<?xml version="1.0" standalone="no"?>
<!DOCTYPE svg PUBLIC "-//W3C//DTD SVG 20010904//EN"
 "http://www.w3.org/TR/2001/REC-SVG-20010904/DTD/svg10.dtd">
<svg version="1.0" xmlns="http://www.w3.org/2000/svg"
 width="512.000000pt" height="512.000000pt" viewBox="0 0 512.000000 512.000000"
 preserveAspectRatio="xMidYMid meet">
<metadata>
Created by potrace 1.16, written by Peter Selinger 2001-2019
</metadata>
<g transform="translate(0.000000,512.000000) scale(0.100000,-0.100000)"
fill="#000000" stroke="none">
<path d="M2525 4953 c-30 -119 -80 -210 -137 -247 -26 -17 -47 -37 -47 -43 -1
-7 12 -19 28 -27 47 -25 98 -93 111 -147 24 -99 -10 -246 -81 -355 -27 -41
-52 -74 -57 -74 -4 0 -35 19 -67 43 -63 45 -160 97 -182 97 -27 0 -4 -127 37
-206 17 -31 30 -67 30 -80 0 -21 -5 -24 -37 -24 -21 0 -60 -7 -88 -16 -66 -20
-107 -11 -156 33 -82 75 -92 131 -49 298 35 139 38 221 11 281 -22 49 -78 114
-97 114 -17 0 -17 0 1 -43 31 -75 19 -133 -80 -392 -37 -95 -39 -106 -39 -215
-1 -131 14 -180 77 -242 43 -44 85 -52 157 -33 30 8 82 15 115 14 58 0 168
-19 179 -30 9 -9 -33 -151 -56 -189 -36 -59 -88 -120 -138 -159 -48 -38 -48
-38 -245 -44 -160 -5 -200 -9 -209 -22 -10 -13 -14 -13 -41 1 -81 42 -118 103
-119 194 -1 61 2 71 57 167 67 117 87 174 87 248 0 72 -21 135 -65 195 -69 94
-335 315 -503 419 -119 73 -221 126 -229 118 -4 -4 16 -31 44 -60 164 -168
297 -413 322 -589 10 -75 3 -88 -48 -88 -47 0 -176 -31 -271 -65 -102 -38
-340 -169 -340 -189 0 -22 135 -144 189 -171 30 -15 78 -29 107 -32 33 -4 54
-11 54 -18 0 -7 -51 -53 -113 -103 -181 -146 -310 -289 -374 -417 -11 -22 -46
-103 -78 -180 -32 -77 -61 -144 -66 -149 -5 -6 -9 -16 -9 -24 0 -12 19 -14
107 -10 211 9 344 90 504 305 111 149 121 142 40 -28 -113 -236 -158 -408
-186 -719 -17 -188 -37 -314 -60 -379 -13 -39 -13 -41 6 -41 40 0 150 60 203
110 63 60 39 82 202 -187 132 -217 194 -393 179 -505 -10 -73 10 -60 56 36 87
182 89 355 9 889 -23 154 -28 396 -10 487 17 91 52 210 62 216 19 12 20 -7 4
-93 -41 -223 -8 -427 99 -619 35 -62 52 -77 59 -51 2 6 11 37 20 67 38 131 56
263 56 419 0 86 4 151 8 145 5 -5 16 -52 25 -105 13 -75 17 -162 17 -411 0
-234 4 -337 15 -401 32 -181 116 -378 232 -540 33 -45 161 -184 298 -321 150
-150 270 -280 318 -345 72 -96 151 -234 167 -290 7 -28 30 -41 30 -17 0 25
107 227 153 287 82 109 199 236 370 401 289 277 396 443 475 738 24 91 26 111
32 460 6 286 11 384 25 452 24 123 39 104 30 -41 -5 -99 -3 -137 18 -256 30
-169 54 -257 70 -252 22 7 97 152 128 247 40 123 49 271 25 408 -19 107 -19
122 -6 122 10 0 39 -93 62 -195 21 -98 16 -374 -10 -540 -55 -351 -66 -576
-36 -723 17 -82 76 -222 93 -222 7 0 11 30 11 79 0 51 7 103 21 147 26 88 109
253 184 369 144 224 124 204 159 163 45 -51 95 -85 165 -112 61 -25 80 -21 63
11 -18 33 -42 177 -57 343 -34 367 -73 524 -186 757 -80 164 -75 183 15 65
147 -193 255 -277 410 -318 67 -18 230 -19 223 -1 -102 238 -172 387 -209 442
-65 100 -154 193 -300 312 -71 58 -128 110 -128 117 0 9 18 15 49 18 73 7 154
52 232 128 38 37 69 71 69 76 -1 9 -157 103 -245 147 -107 53 -274 100 -385
109 -32 3 -35 6 -38 36 -5 54 35 191 87 297 51 103 159 255 237 335 40 42 55
70 36 70 -12 0 -202 -109 -276 -160 -201 -135 -423 -333 -469 -418 -72 -133
-53 -263 65 -438 61 -91 48 -227 -29 -294 -50 -44 -84 -56 -100 -34 -11 15
-39 18 -210 22 -198 5 -198 5 -271 76 -82 79 -150 199 -159 278 -5 44 -5 44
54 56 79 16 138 15 217 -3 80 -19 116 -8 164 51 43 52 62 114 62 203 0 93 -13
142 -81 313 -47 119 -53 141 -53 208 0 53 5 85 18 108 9 19 15 37 11 40 -15
15 -61 -28 -94 -88 -33 -59 -36 -72 -36 -145 0 -51 9 -114 24 -173 32 -126 27
-206 -15 -259 -17 -21 -47 -47 -68 -57 -34 -17 -44 -17 -85 -6 -25 6 -65 14
-88 17 -53 6 -54 15 -12 103 25 53 58 166 59 203 0 24 -127 -34 -209 -96 -55
-40 -55 -40 -88 -2 -70 81 -113 203 -113 323 0 106 37 179 113 218 39 21 34
37 -22 71 -58 36 -97 106 -131 237 -13 47 -28 86 -35 86 -6 0 -20 -34 -30 -77z
m60 -128 c23 -63 59 -121 85 -137 26 -16 25 -35 -1 -50 -31 -20 -62 -77 -75
-138 -9 -48 -14 -55 -36 -58 -24 -3 -27 1 -37 48 -14 65 -31 98 -72 138 -32
31 -32 31 4 71 39 43 67 93 87 154 14 45 20 41 45 -28z m-768 -469 c-3 -45
-16 -112 -28 -151 -15 -44 -23 -96 -24 -140 0 -60 4 -78 31 -124 16 -30 48
-67 71 -83 56 -41 105 -45 194 -18 66 20 73 20 88 5 20 -20 19 -102 -2 -122
-12 -12 -25 -12 -96 2 -75 16 -87 16 -153 1 -110 -25 -130 -22 -171 23 -63 70
-83 194 -52 315 9 32 35 109 59 170 24 61 49 135 56 163 18 79 34 56 27 -41z
m1477 11 c4 -21 27 -87 51 -148 63 -156 78 -219 73 -309 -5 -81 -28 -138 -71
-179 -28 -25 -55 -26 -169 -2 -46 10 -69 9 -129 -3 -49 -11 -76 -12 -84 -6
-15 13 -26 77 -19 107 9 32 27 34 90 13 69 -24 93 -25 142 -4 125 52 158 166
107 376 -25 102 -31 171 -19 203 9 22 19 5 28 -48z m-2279 -26 c85 -60 267
-215 321 -273 73 -77 94 -123 94 -202 0 -86 -21 -144 -86 -241 -78 -117 -98
-168 -99 -245 0 -39 7 -83 18 -112 23 -59 97 -129 162 -152 79 -28 80 -29 83
-83 3 -60 -3 -64 -75 -53 -70 11 -127 43 -193 106 -68 64 -105 136 -120 230
-20 122 2 207 88 337 55 84 68 126 58 183 -13 68 -117 245 -270 457 -79 110
-76 116 19 48z m3155 33 c0 -3 -58 -92 -128 -198 -147 -221 -183 -288 -190
-356 -6 -68 -1 -82 67 -189 70 -108 86 -164 79 -278 -10 -174 -129 -323 -296
-369 -82 -23 -92 -17 -92 50 0 55 0 55 53 70 128 37 207 141 207 271 0 78 -21
135 -84 224 -69 98 -93 151 -102 223 -11 92 13 152 97 242 132 142 389 346
389 310z m-1596 -41 c3 -16 8 -50 11 -78 4 -27 13 -85 22 -128 16 -79 16 -79
-13 -133 -16 -30 -33 -53 -39 -51 -19 6 -65 101 -60 125 3 12 15 78 26 145 11
67 22 128 24 135 7 21 23 13 29 -15z m-358 -228 c8 -20 -15 -75 -31 -75 -16 0
-45 27 -45 41 0 6 5 19 10 30 13 23 58 26 66 4z m750 -12 c8 -31 -6 -57 -33
-61 -26 -4 -50 53 -32 74 20 25 58 17 65 -13z m-644 -94 c16 -9 35 -8 75 1 43
9 57 9 69 -1 16 -13 54 -82 54 -97 0 -5 -33 -12 -73 -15 -40 -4 -104 -14 -142
-22 -76 -18 -83 -15 -95 39 -8 35 -6 38 31 62 21 13 39 29 39 34 0 13 16 13
42 -1z m419 -5 c21 -4 46 -1 58 5 18 10 26 8 50 -11 16 -13 36 -28 46 -33 15
-9 17 -17 9 -50 -8 -34 -14 -41 -38 -43 -16 -2 -49 1 -72 7 -24 6 -78 14 -119
18 -42 3 -78 10 -81 15 -6 10 32 77 55 96 9 7 25 10 36 7 11 -3 36 -8 56 -11z
m-232 -157 c6 -8 17 -40 24 -73 15 -65 40 -81 45 -29 5 58 22 104 42 110 22 7
201 -12 235 -25 21 -8 23 -17 28 -117 5 -100 4 -109 -15 -125 -34 -30 -83 -23
-131 20 -23 20 -53 43 -67 51 -23 13 -24 13 -11 -3 23 -28 -1 -40 -32 -16 -26
20 -26 20 -29 -2 -4 -31 -42 -31 -46 0 -4 27 -18 28 -32 2 -16 -30 -44 -26
-38 5 6 27 -9 35 -18 10 -4 -9 -13 -13 -24 -10 -12 4 -23 -3 -34 -21 -19 -28
-71 -54 -110 -54 -14 0 -36 10 -50 23 -23 20 -24 26 -16 67 5 25 6 71 3 102
-6 57 -6 57 38 68 36 10 105 20 210 29 9 0 22 -5 28 -12z m-1365 -83 c27 -27
16 -64 -20 -64 -25 0 -61 51 -49 70 10 15 52 12 69 -6z m2896 -2 c0 -29 -29
-62 -54 -62 -28 0 -40 24 -26 50 18 33 80 43 80 12z m-3191 -23 c-6 -11 -8
-33 -4 -48 6 -28 5 -28 -52 -35 -83 -9 -243 -47 -243 -57 0 -14 78 -10 150 7
89 21 188 23 224 4 41 -21 42 -36 5 -55 -48 -26 -318 -18 -374 10 -22 11 -40
26 -40 34 0 29 311 181 337 165 5 -3 3 -14 -3 -25z m3553 -18 c81 -34 204
-110 202 -126 -1 -5 -16 -19 -35 -30 -30 -18 -52 -20 -206 -20 -165 0 -173 1
-195 22 -22 22 -22 22 26 44 52 23 110 21 231 -7 65 -15 145 -19 145 -6 0 9
-191 54 -257 60 -51 4 -51 4 -41 32 7 20 6 35 -2 51 -12 21 -11 22 23 16 19
-3 68 -19 109 -36z m-1942 -158 c0 -5 -16 -21 -35 -36 -19 -15 -35 -36 -35
-46 0 -26 -61 -141 -71 -135 -5 3 -9 29 -9 57 0 65 31 123 80 148 36 19 70 25
70 12z m207 -24 c32 -65 45 -154 40 -254 -8 -160 -38 -225 -212 -453 -33 -43
-65 -87 -71 -98 -7 -10 -15 -16 -19 -12 -15 14 26 132 80 233 35 66 66 144 91
230 33 114 38 145 40 255 2 69 3 126 3 128 3 14 38 -8 48 -29z m72 5 c22 -18
38 -48 58 -107 25 -75 27 -95 27 -242 1 -149 -1 -165 -27 -238 -15 -42 -47
-118 -72 -168 -74 -147 -92 -260 -53 -344 19 -41 31 -30 25 24 -8 67 14 153
72 279 88 191 105 275 99 464 -5 124 -16 184 -55 286 -11 28 16 2 43 -40 35
-56 166 -348 220 -489 84 -225 112 -367 121 -610 6 -167 6 -167 65 -240 74
-92 154 -251 173 -344 30 -145 14 -290 -49 -435 -37 -86 -109 -200 -149 -238
-25 -24 -25 -24 -30 340 -4 371 -13 467 -52 579 -8 23 -15 50 -15 61 0 20 1
20 26 3 47 -31 46 -2 -2 61 -65 83 -95 148 -102 216 -4 54 -3 58 16 58 30 0
34 13 17 54 -9 20 -15 67 -15 108 0 40 -4 79 -9 87 -17 26 -31 0 -31 -57 0
-31 -7 -84 -15 -117 -24 -99 -19 -163 21 -282 72 -218 78 -362 29 -688 -13
-93 -25 -173 -25 -177 0 -17 -18 -6 -28 17 -16 34 -28 31 -49 -12 -21 -45
-134 -163 -156 -163 -13 0 -11 12 15 68 32 71 108 276 108 292 0 6 -6 10 -14
10 -8 0 -21 -19 -31 -42 -29 -76 -92 -172 -161 -248 -90 -101 -104 -125 -104
-185 0 -37 9 -70 35 -124 40 -83 42 -106 15 -141 -24 -30 -25 -44 -5 -60 8 -7
15 -20 15 -29 0 -16 -46 -68 -83 -94 -16 -11 -17 -16 -6 -41 12 -25 11 -30
-11 -47 -35 -26 -49 -24 -87 13 -38 37 -43 77 -18 168 21 79 19 98 -20 184
-20 42 -40 102 -46 134 -17 88 -16 88 -42 65 -12 -11 -38 -29 -57 -41 -19 -11
-50 -37 -69 -56 -48 -49 -64 -35 -59 53 2 61 1 66 -17 63 -79 -12 -118 -13
-144 -4 -32 11 -52 -2 -65 -45 -14 -43 -50 -25 -86 44 -17 31 -33 49 -50 53
-20 5 -25 12 -23 34 2 33 29 66 52 66 9 0 42 -9 74 -20 90 -32 176 -27 294 16
54 19 136 49 182 65 46 16 92 36 102 45 10 9 37 64 59 121 51 132 76 168 189
272 163 148 179 204 130 433 -13 56 -12 58 23 135 20 43 44 114 53 158 16 79
23 284 10 305 -16 25 -22 3 -28 -87 -11 -205 -95 -416 -215 -545 -38 -41 -18
-51 30 -16 9 7 20 9 24 5 4 -4 10 -46 12 -92 6 -119 -10 -157 -113 -264 -45
-48 -93 -104 -107 -126 -26 -41 -59 -128 -78 -202 -21 -83 -71 -100 -88 -30
-45 182 -2 370 133 572 30 46 55 86 55 89 0 20 -34 -1 -69 -42 -49 -56 -56
-51 -67 46 -12 111 27 264 92 364 10 15 15 31 10 35 -12 12 -101 -91 -127
-147 -40 -89 -51 -56 -24 75 20 94 73 223 135 323 26 42 70 114 98 160 81 133
97 191 97 357 -1 139 -6 167 -50 268 -11 25 8 21 44 -9z m-209 -6 c0 -7 -21
-22 -47 -33 -26 -11 -51 -21 -55 -23 -4 -2 -8 1 -8 7 0 14 71 61 92 61 10 0
18 -6 18 -12z m416 -63 c14 -30 40 -76 58 -102 48 -71 49 -73 32 -73 -24 0
-81 63 -120 133 -38 68 -44 93 -23 100 19 7 25 0 53 -58z m-682 20 c-3 -43
-41 -140 -71 -175 -20 -24 -33 -30 -64 -30 -21 0 -39 3 -39 6 0 4 18 35 40 70
22 35 40 65 40 67 0 3 9 26 21 51 18 41 24 47 47 44 23 -3 27 -7 26 -33z m276
-20 c0 -49 -89 -155 -131 -155 -19 0 -19 0 2 41 20 41 103 129 120 129 5 0 9
-7 9 -15z m-1650 -71 c0 -37 15 -59 56 -84 33 -21 34 -24 20 -39 -24 -24 -92
-19 -122 9 -31 30 -33 84 -2 117 28 30 48 29 48 -3z m3389 0 c56 -72 -15 -163
-103 -134 -20 6 -36 15 -36 20 0 5 16 18 35 30 40 25 55 48 55 84 0 34 23 34
49 0z m-3549 -184 c0 -6 -21 -25 -47 -43 -75 -50 -195 -171 -256 -255 -102
-142 -173 -282 -136 -270 8 2 31 36 52 74 52 95 114 187 177 263 78 92 250
228 250 196 0 -3 -44 -49 -98 -103 -96 -95 -167 -186 -156 -203 9 -15 29 1 54
44 30 51 215 237 235 237 32 0 22 -23 -41 -92 -37 -40 -113 -133 -168 -207
-104 -139 -169 -200 -269 -254 -51 -26 -113 -44 -123 -35 -8 9 135 321 172
375 56 81 190 203 269 245 76 40 85 43 85 28z m3761 -38 c41 -27 92 -64 114
-83 55 -49 151 -172 184 -238 49 -96 124 -282 117 -288 -12 -13 -101 18 -155
53 -83 56 -137 110 -227 229 -45 61 -117 150 -159 199 -49 57 -73 92 -67 98 6
6 16 7 26 1 29 -16 167 -156 213 -215 43 -57 63 -71 63 -45 0 23 -126 171
-194 227 -66 55 -77 70 -53 70 46 0 268 -216 345 -334 28 -44 66 -108 84 -143
18 -34 39 -63 46 -63 18 0 15 15 -17 78 -86 169 -243 357 -374 446 -31 22 -57
43 -57 48 0 20 43 4 111 -40z m-1981 -20 c0 -33 -37 -125 -74 -186 -45 -75
-70 -141 -86 -231 -6 -38 -14 -80 -16 -92 -5 -29 -33 -30 -90 -4 -51 23 -84
64 -84 106 0 25 8 38 41 64 38 32 49 33 92 16 13 -5 17 -2 17 14 0 14 6 21 20
21 25 0 26 18 3 35 -14 11 -15 15 -4 28 18 22 5 37 -32 37 -32 0 -77 38 -77
66 0 17 -65 73 -93 79 -116 26 -149 26 -112 -1 17 -12 16 -14 -9 -24 -15 -5
-30 -10 -34 -10 -4 0 -18 -9 -32 -19 -20 -16 -22 -21 -11 -35 11 -14 8 -20
-20 -47 -40 -38 -103 -68 -141 -69 -39 0 -42 -13 -13 -73 14 -30 25 -61 25
-69 0 -32 25 -40 64 -21 37 17 37 17 67 -15 21 -22 39 -32 60 -32 37 0 76 -39
85 -85 4 -23 22 -48 55 -78 44 -40 49 -49 49 -87 0 -33 -6 -48 -29 -71 -58
-57 -168 -31 -187 46 -11 43 3 96 36 136 35 44 38 71 9 100 -16 16 -27 19 -52
13 -59 -12 -77 -22 -71 -39 4 -9 -5 -32 -20 -54 -46 -66 -68 -138 -75 -246 -6
-100 -6 -100 -86 -100 -80 0 -80 0 -83 473 l-2 472 455 0 c435 0 455 -1 455
-18z m1008 -454 c-3 -473 -3 -473 -127 -476 -68 -1 -128 1 -133 6 -5 5 1 29
12 54 11 25 29 85 41 134 18 75 20 111 17 229 -4 122 -8 150 -33 215 -28 78
-81 174 -134 247 -17 24 -31 47 -31 53 0 6 71 10 195 10 195 0 195 0 193 -472z
m-2584 383 c-7 -59 -7 -59 24 -66 34 -7 99 8 154 36 37 19 38 19 38 0 0 -26
-80 -97 -119 -106 -37 -8 -85 1 -101 19 -15 19 -39 117 -32 135 7 22 23 41 33
41 5 0 6 -27 3 -59z m3276 40 c18 -34 13 -71 -10 -71 -15 0 -20 7 -20 29 0 16
-3 36 -6 45 -9 23 23 20 36 -3z m-65 -102 c75 0 83 -12 34 -53 -37 -31 -76
-33 -129 -6 -42 21 -95 83 -86 99 4 6 29 0 61 -16 42 -18 72 -25 120 -24z
m-2125 -59 c0 -12 -33 -30 -55 -30 -21 0 -9 19 19 30 28 12 36 12 36 0z m-813
-37 c9 -23 -34 -58 -53 -42 -18 15 -18 24 2 43 20 21 43 20 51 -1z m2764 -5
c10 -18 8 -24 -7 -35 -10 -7 -23 -12 -28 -10 -17 6 -29 34 -23 51 9 23 44 20
58 -6z m-2585 -3 c16 -8 48 -17 71 -21 51 -7 57 -31 18 -69 -53 -54 -135 -13
-135 66 0 43 5 46 46 24z m2394 -19 c0 -48 -41 -96 -83 -96 -37 0 -77 34 -77
66 0 19 7 23 48 29 26 3 58 13 72 20 36 21 40 19 40 -19z m-2719 -127 c-27
-46 -64 -117 -81 -157 -18 -40 -35 -70 -37 -68 -16 15 78 221 135 295 45 59
35 18 -17 -70z m3003 29 c49 -80 106 -207 105 -235 0 -10 -20 23 -43 72 -24
50 -59 117 -79 150 -33 54 -45 85 -33 85 3 0 25 -33 50 -72z m-3170 13 c17
-19 17 -21 -3 -48 -57 -77 -119 -310 -157 -593 -9 -69 -25 -152 -35 -185 -22
-70 -24 -98 -6 -93 26 9 57 144 92 396 20 144 54 279 99 389 39 94 51 112 65
98 6 -6 -4 -49 -24 -110 -43 -128 -60 -215 -85 -422 -11 -93 -27 -196 -35
-231 -26 -109 -89 -214 -150 -252 -50 -31 -58 -27 -52 28 3 26 15 139 26 252
27 256 43 348 86 477 42 126 131 313 149 313 7 0 21 -9 30 -19z m3392 -27 c43
-73 101 -215 128 -311 40 -144 55 -237 71 -443 9 -107 21 -212 26 -234 13 -49
1 -63 -37 -43 -47 24 -91 77 -124 148 -36 78 -55 162 -75 341 -22 190 -43 298
-81 417 -38 117 -39 121 -20 121 14 0 53 -80 85 -172 32 -92 61 -234 81 -389
21 -162 54 -301 75 -319 22 -18 27 6 11 52 -27 81 -35 123 -56 283 -30 235
-70 389 -133 509 -30 56 -30 59 -12 72 28 20 32 18 61 -32z m-3126 -60 c0 -8
-17 -49 -39 -92 -92 -184 -117 -300 -108 -515 4 -124 10 -159 42 -272 90 -316
96 -342 102 -435 3 -52 1 -111 -5 -130 -10 -35 -10 -35 -22 -1 -24 64 -108
228 -157 307 -28 43 -73 116 -101 161 -29 46 -52 91 -52 101 0 10 9 45 20 76
11 32 26 105 35 164 9 58 17 108 19 109 2 2 8 -47 15 -109 6 -62 18 -144 26
-183 18 -88 154 -485 166 -485 19 0 7 49 -51 222 -87 256 -94 293 -93 493 0
207 22 326 81 449 63 129 122 197 122 140z m2859 -34 c98 -152 141 -315 141
-543 0 -185 -18 -277 -100 -520 -62 -183 -68 -211 -49 -205 14 5 119 297 154
428 14 52 31 152 37 223 7 70 15 127 18 127 3 0 11 -40 18 -90 6 -49 23 -124
37 -167 14 -43 25 -85 25 -93 0 -9 -26 -56 -58 -105 -126 -195 -262 -447 -262
-486 0 -10 -3 -10 -12 -1 -16 16 -15 189 2 267 7 33 32 125 56 203 67 222 77
278 77 442 1 180 -20 274 -97 438 -50 105 -59 142 -35 142 5 0 27 -27 48 -60z
m-2633 3 c-4 -16 -11 -129 -15 -253 -9 -224 -17 -300 -31 -300 -9 0 -30 173
-30 257 0 68 20 196 41 263 19 57 47 84 35 33z m2368 -6 c18 -44 42 -156 51
-234 6 -56 -8 -261 -22 -307 -14 -50 -24 22 -34 245 -5 134 -12 263 -15 287
-7 51 1 54 20 9z m103 -87 c27 -147 13 -341 -33 -448 -24 -55 -29 -21 -8 51
24 83 24 284 1 380 -18 72 -16 90 11 85 12 -2 20 -22 29 -68z m-2547 48 c0 -6
-7 -50 -16 -97 -21 -112 -15 -279 15 -371 11 -35 18 -66 16 -68 -11 -11 -27
17 -51 91 -22 68 -27 101 -28 197 -1 149 18 260 45 260 10 0 19 -5 19 -12z
m2739 -466 c1 -77 -5 -151 -15 -199 -16 -77 -43 -157 -51 -150 -2 3 6 56 17
118 12 63 24 179 27 259 8 170 21 154 22 -28z m-2935 -227 c21 -105 21 -130 0
-91 -40 74 -63 275 -47 406 7 50 8 41 19 -90 7 -80 20 -181 28 -225z m1273
203 c5 -7 19 -55 32 -106 23 -94 23 -94 0 -118 -22 -24 -27 -25 -99 -18 -69 6
-85 3 -168 -25 -51 -18 -97 -29 -102 -26 -6 4 -17 19 -25 35 -27 53 -101 75
-160 48 -14 -6 -25 -14 -25 -17 0 -3 -3 -16 -6 -28 -5 -17 -1 -22 18 -25 19
-2 23 -10 26 -43 3 -41 3 -41 -59 -70 -73 -36 -130 -96 -155 -165 -27 -74 -33
-69 -53 44 -16 88 -15 513 2 519 6 3 181 6 388 6 291 1 379 -2 386 -11z m-392
-351 c25 -82 59 -128 120 -157 47 -23 102 -24 186 -4 26 6 26 5 36 -78 6 -45
7 -86 3 -91 -11 -13 -144 11 -203 38 -32 14 -64 25 -71 25 -16 0 -76 -65 -76
-83 0 -7 4 -27 9 -45 8 -27 7 -32 -8 -32 -40 0 -91 89 -91 158 0 25 9 52 25
75 23 35 24 38 8 74 -20 48 -22 119 -4 161 21 50 42 37 66 -41z m501 -1327
c24 -22 51 -40 59 -40 8 0 36 19 61 42 46 43 46 43 65 19 10 -13 19 -29 19
-35 0 -7 -24 -49 -54 -94 -29 -45 -59 -95 -66 -112 -7 -16 -16 -30 -20 -30 -5
0 -24 28 -43 63 -20 34 -52 84 -71 112 -39 54 -42 66 -26 96 15 27 27 24 76
-21z"/>
<path d="M2394 3966 c-14 -36 13 -57 46 -36 12 7 12 13 4 27 -15 24 -43 28
-50 9z"/>
<path d="M2251 3941 c-7 -5 -11 -19 -9 -32 4 -31 42 -33 46 -3 4 25 -19 46
-37 35z"/>
<path d="M2680 3965 c-18 -21 -5 -47 22 -43 26 3 37 36 16 49 -18 12 -24 11
-38 -6z"/>
<path d="M2830 3935 c-7 -8 -10 -22 -6 -30 7 -20 42 -19 50 1 8 22 8 22 -13
33 -14 8 -22 7 -31 -4z"/>
<path d="M2325 3804 c-27 -9 -52 -17 -54 -19 -1 -2 9 -29 23 -59 26 -54 28
-56 66 -56 47 0 130 21 130 32 0 15 -38 84 -52 95 -24 20 -62 22 -113 7z"/>
<path d="M2666 3779 c-27 -31 -41 -69 -34 -90 4 -13 137 -24 154 -12 13 9 54
87 54 102 0 14 -58 31 -106 31 -35 0 -47 -5 -68 -31z"/>
</g>
</svg>
