<?xml version="1.0" standalone="no"?>
<!DOCTYPE svg PUBLIC "-//W3C//DTD SVG 20010904//EN"
 "http://www.w3.org/TR/2001/REC-SVG-20010904/DTD/svg10.dtd">
<svg version="1.0" xmlns="http://www.w3.org/2000/svg"
 width="336.000000pt" height="343.000000pt" viewBox="0 0 336.000000 343.000000"
 preserveAspectRatio="xMidYMid meet">
<metadata>
Created by potrace 1.16, written by Peter Selinger 2001-2019
</metadata>
<g transform="translate(0.000000,343.000000) scale(0.100000,-0.100000)"
fill="#000000" stroke="none">
<path d="M770 3382 c0 -5 22 -23 49 -40 49 -32 211 -201 211 -220 0 -6 -6 -13
-12 -15 -7 -3 -3 -6 10 -6 15 -1 36 -19 65 -56 37 -48 67 -70 67 -47 0 36 -25
145 -42 184 -17 40 -32 55 -100 98 -114 74 -248 129 -248 102z"/>
<path d="M2476 3355 c-101 -44 -182 -93 -212 -128 -24 -28 -43 -87 -61 -185
-11 -60 1 -80 26 -41 9 13 36 47 61 74 25 28 72 82 103 122 68 84 137 150 172
163 29 11 33 30 8 30 -10 0 -53 -16 -97 -35z"/>
<path d="M2509 3287 c-37 -34 -85 -86 -109 -114 -47 -60 -51 -96 -3 -42 143
161 185 211 181 214 -1 2 -33 -24 -69 -58z"/>
<path d="M800 3326 c0 -3 32 -43 71 -88 40 -46 78 -93 87 -105 8 -13 21 -23
28 -23 17 0 18 26 1 37 -6 4 -32 31 -57 59 -49 55 -130 130 -130 120z"/>
<path d="M1605 3228 c-53 -37 -84 -82 -90 -129 -3 -24 -9 -64 -15 -89 -5 -25
-9 -57 -10 -72 0 -26 3 -28 38 -28 49 0 100 32 118 75 19 45 20 265 2 264 -7
0 -26 -10 -43 -21z m-19 -246 c-12 -11 -18 7 -10 30 8 23 8 23 12 0 2 -13 1
-26 -2 -30z"/>
<path d="M1710 3125 c0 -124 0 -124 31 -159 28 -33 124 -80 141 -70 11 7 -3
135 -18 164 -7 14 -15 43 -19 63 -6 28 -20 49 -58 82 -29 25 -57 45 -64 45
-10 0 -13 -31 -13 -125z"/>
<path d="M594 3185 c-3 -8 -14 -17 -25 -20 -11 -4 -26 -20 -35 -36 -15 -30
-15 -30 6 -19 26 14 30 10 63 -52 31 -58 61 -98 75 -98 6 0 13 -9 17 -19 6
-18 9 -18 55 11 48 30 61 50 41 63 -5 3 -12 1 -16 -5 -8 -13 -25 -13 -25 1 0
18 -53 81 -76 89 -17 7 -24 20 -29 54 -6 36 -11 46 -26 46 -11 0 -22 -7 -25
-15z m61 -97 c6 -9 25 -36 43 -62 18 -25 30 -51 27 -56 -10 -16 -35 -12 -35 6
0 9 -11 29 -25 46 -14 16 -25 35 -25 42 0 7 -11 23 -25 36 -14 13 -25 33 -25
44 0 18 3 17 28 -10 15 -17 32 -38 37 -46z"/>
<path d="M2730 3176 c0 -7 -7 -20 -17 -27 -9 -8 -39 -41 -66 -74 -28 -33 -58
-63 -68 -67 -28 -11 -23 -24 17 -47 40 -24 65 -24 72 -2 3 10 -1 12 -17 8 -39
-10 -32 12 26 85 32 40 63 79 69 87 10 12 15 12 37 -5 31 -23 35 -38 7 -29
-13 4 -30 -1 -46 -14 -28 -22 -83 -91 -84 -104 0 -11 77 71 84 89 7 18 36 19
36 1 0 -7 -22 -34 -50 -60 -47 -44 -61 -67 -42 -67 4 0 30 23 57 50 48 49 74
65 58 35 -5 -8 -30 -37 -57 -65 -32 -34 -43 -50 -31 -50 9 0 29 14 44 31 17
19 31 27 35 20 4 -6 -2 -16 -14 -23 -21 -13 -28 -38 -10 -38 6 0 18 10 28 22
9 11 29 35 44 51 28 30 29 47 3 47 -7 0 -15 -10 -18 -22 -2 -13 -4 -3 -4 22
-1 25 4 55 10 67 9 20 5 27 -29 58 -40 35 -74 45 -74 21z"/>
<path d="M0 2909 c0 -160 4 -268 9 -265 12 8 33 130 30 176 -1 19 4 64 10 100
7 35 10 85 6 110 -10 66 -35 150 -46 150 -5 0 -9 -111 -9 -271z"/>
<path d="M540 3075 c0 -9 -12 -27 -26 -42 -24 -24 -24 -26 -8 -44 21 -24 29
-18 14 10 -17 32 -5 25 49 -29 48 -48 73 -60 85 -42 3 5 -17 32 -44 60 -33 34
-50 61 -50 77 0 14 -4 25 -10 25 -5 0 -10 -7 -10 -15z"/>
<path d="M2294 3028 c-29 -33 -29 -33 4 -4 30 28 37 36 29 36 -2 0 -16 -15
-33 -32z"/>
<path d="M422 3021 c-6 -3 -30 -46 -53 -94 -34 -72 -43 -102 -47 -160 -3 -59
-1 -75 12 -86 9 -8 18 -12 19 -10 2 2 16 29 31 59 56 106 133 180 188 180 21
0 21 1 5 18 -16 15 -19 15 -28 2 -8 -12 -19 -5 -63 41 -29 32 -58 54 -64 50z
m13 -108 c-5 -10 -10 -33 -13 -50 -2 -18 -8 -33 -13 -33 -5 0 -18 -20 -29 -45
-24 -53 -32 -57 -24 -12 16 84 51 157 77 157 5 0 6 -8 2 -17z"/>
<path d="M2901 3006 c-5 -12 -28 -39 -50 -58 -45 -38 -52 -58 -21 -58 41 0
135 -119 170 -215 11 -29 12 -30 27 -10 11 15 14 39 11 97 -4 66 -11 90 -51
172 -48 99 -69 117 -86 72z m63 -103 c16 -32 36 -123 35 -156 -1 -20 -1 -20
-8 4 -13 41 -32 73 -55 91 -17 13 -18 20 -9 29 9 9 9 16 2 25 -11 14 -4 34 11
34 5 0 16 -12 24 -27z"/>
<path d="M1675 2960 c-8 -12 5 -60 16 -60 5 0 9 7 9 16 0 9 6 14 13 12 18 -7
15 -20 -11 -52 -27 -35 -43 -25 -45 27 -1 36 -1 36 -30 19 -16 -9 -34 -23 -40
-31 -10 -12 -8 -13 12 -8 17 4 24 1 28 -12 7 -29 51 -44 85 -30 15 6 28 18 28
27 0 11 9 13 40 9 49 -6 53 7 6 23 -18 6 -46 24 -62 40 -31 32 -40 35 -49 20z"/>
<path d="M1485 2879 c-10 -15 -2 -19 23 -12 12 3 19 9 16 14 -7 12 -31 11 -39
-2z"/>
<path d="M1874 2868 c26 -20 6 -32 -39 -24 -26 5 -47 0 -84 -19 -61 -31 -80
-31 -134 -3 -45 23 -136 29 -159 10 -8 -6 -13 -34 -13 -74 0 -56 3 -63 20 -64
91 -6 113 -26 117 -104 2 -40 8 -65 16 -68 7 -2 12 5 12 15 0 17 7 19 65 18
36 0 65 -4 65 -8 0 -4 0 -29 0 -57 0 -27 -4 -50 -10 -50 -5 0 -10 23 -10 51 0
31 -4 48 -10 44 -5 -3 -10 -22 -10 -41 0 -19 -4 -34 -9 -34 -5 0 -8 16 -7 35
2 20 -1 38 -5 41 -9 5 -11 -3 -13 -58 0 -15 -5 -27 -11 -25 -5 1 -9 13 -7 26
2 13 0 31 -3 39 -10 26 -24 -5 -26 -53 -1 -26 -3 -31 -6 -15 -8 48 -13 56 -23
40 -5 -8 -7 -23 -4 -32 7 -22 -4 -60 -15 -53 -5 2 -11 55 -15 117 -7 112 -15
138 -43 138 -11 0 -13 -5 -8 -17 4 -10 10 -70 12 -133 5 -119 17 -155 45 -133
7 6 28 14 46 18 18 4 35 12 38 18 5 14 54 19 54 6 0 -5 6 -9 14 -9 7 0 34 -11
59 -26 44 -24 46 -24 56 -6 6 11 16 73 22 138 6 66 16 123 20 129 13 14 11 25
-6 25 -8 0 -19 -9 -25 -20 -6 -11 -16 -17 -25 -14 -20 8 -19 -13 0 -24 14 -7
14 -12 0 -45 -8 -20 -15 -64 -15 -97 0 -33 -4 -60 -10 -60 -5 0 -10 14 -10 31
0 16 -4 28 -9 24 -18 -10 -23 36 -7 60 9 14 16 46 16 75 0 38 4 50 15 50 8 0
15 4 15 10 0 17 61 43 73 31 27 -27 57 7 57 62 -1 44 -41 116 -70 125 -9 3 -8
-1 4 -10z m-264 -78 c22 -11 40 -26 40 -33 0 -6 -13 -27 -28 -45 -28 -34 -28
-34 -73 -4 -24 17 -55 42 -68 56 -24 26 -24 26 0 35 39 16 87 12 129 -9z m308
6 c7 -8 -33 -42 -101 -87 -48 -32 -48 -32 -77 2 -36 42 -35 56 10 81 28 15 48
18 98 15 35 -3 66 -8 70 -11z m2 -56 c0 -5 -4 -10 -10 -10 -5 0 -10 5 -10 10
0 6 5 10 10 10 6 0 10 -4 10 -10z m-205 -59 c10 -22 15 -47 12 -55 -9 -24 -44
-19 -52 7 -8 22 -8 22 -12 -1 -5 -27 -27 -24 -31 5 -3 18 43 83 59 83 3 0 14
-18 24 -39z"/>
<path d="M381 2594 c0 -11 3 -14 6 -6 3 7 2 16 -1 19 -3 4 -6 -2 -5 -13z"/>
<path d="M592 2563 c-13 -3 -26 -12 -30 -21 -3 -9 -12 -23 -19 -30 -22 -23
-14 -38 30 -57 23 -10 52 -28 65 -39 21 -19 22 -19 22 0 0 44 -13 62 -53 78
-30 12 -38 19 -30 27 12 12 117 -6 140 -24 13 -9 33 -2 33 13 0 5 -17 21 -37
35 -36 24 -66 28 -121 18z"/>
<path d="M2658 2553 c-27 -17 -43 -41 -34 -50 3 -3 20 0 38 5 18 6 54 13 81
16 37 4 47 3 47 -9 0 -8 -14 -18 -32 -23 -24 -6 -40 -21 -60 -56 -33 -56 -28
-79 9 -36 14 17 46 41 72 53 54 26 61 45 29 81 -31 34 -110 45 -150 19z"/>
<path d="M1175 2520 c-10 -16 3 -29 49 -49 33 -15 51 -18 80 -11 21 4 40 11
43 13 13 13 -11 27 -46 27 -21 0 -55 7 -74 15 -43 18 -44 18 -52 5z"/>
<path d="M2145 2517 c-16 -5 -52 -12 -80 -16 -36 -4 -51 -11 -53 -23 -5 -24
50 -50 99 -46 35 3 43 8 62 41 25 44 16 59 -28 44z"/>
<path d="M667 2482 c-6 -11 33 -92 44 -92 6 0 9 18 7 41 -2 33 -8 44 -25 50
-12 4 -24 5 -26 1z"/>
<path d="M750 2471 c-7 -15 -4 -30 13 -65 12 -25 25 -46 29 -46 4 0 15 11 23
24 15 22 14 27 -6 65 -23 45 -42 52 -59 22z"/>
<path d="M2609 2483 c-52 -6 -66 -48 -43 -122 9 -29 34 11 34 55 0 50 4 53 30
22 19 -23 19 -23 37 2 32 44 22 52 -58 43z"/>
<path d="M494 2446 c-3 -14 -3 -30 1 -36 10 -17 95 -51 107 -44 6 4 20 -6 33
-21 24 -31 55 -29 55 3 0 21 -23 46 -32 36 -9 -8 -128 55 -135 71 -8 23 -22
18 -29 -9z"/>
<path d="M1200 2461 c0 -39 88 -65 125 -37 19 15 18 15 -18 16 -21 0 -53 7
-72 14 -19 8 -35 12 -35 7z"/>
<path d="M2836 2455 c-3 -9 -27 -25 -53 -36 -57 -24 -93 -56 -93 -81 0 -24 12
-23 39 6 21 23 88 46 128 46 16 -1 15 -3 -6 -20 -13 -11 -33 -20 -44 -20 -29
0 -87 -42 -87 -63 0 -26 30 -34 47 -11 8 10 26 20 41 20 15 1 37 5 50 9 23 8
23 8 8 -30 -22 -52 -21 -67 7 -63 34 5 34 53 1 231 -6 29 -28 36 -38 12z"/>
<path d="M872 2392 c-39 -38 -72 -76 -72 -84 0 -29 -57 -93 -103 -116 -26 -13
-47 -28 -47 -33 0 -15 31 -23 49 -12 12 8 25 4 53 -13 21 -13 45 -24 54 -24
14 0 13 4 -5 33 -15 24 -27 31 -45 29 -23 -2 -21 2 22 46 49 51 66 47 37 -8
-15 -29 -15 -33 -1 -49 9 -10 16 -23 16 -29 0 -7 6 -12 13 -12 10 0 12 25 9
105 -3 70 -1 105 6 105 6 0 22 11 35 24 16 16 32 23 44 20 11 -3 25 1 32 10
16 20 10 70 -9 74 -8 1 -48 -28 -88 -66z"/>
<path d="M2397 2453 c-14 -13 -6 -61 13 -86 24 -30 26 -51 4 -43 -9 3 -18 6
-20 6 -3 0 -9 12 -14 26 -13 33 -34 26 -39 -12 -2 -22 -5 -25 -10 -11 -6 16
-10 15 -44 -8 -46 -32 -49 -49 -4 -39 17 4 39 7 47 6 31 -1 140 20 140 27 0 5
-9 16 -20 26 -20 18 -27 45 -12 45 17 0 81 -68 87 -93 7 -28 73 -107 90 -107
6 0 23 -14 39 -30 30 -31 50 -37 61 -20 10 16 -5 50 -21 50 -8 0 -32 9 -53 19
-30 16 -45 35 -77 97 -27 53 -48 83 -68 93 -16 9 -39 26 -51 39 -23 23 -37 27
-48 15z"/>
<path d="M998 2360 c-10 -29 -31 -39 -42 -21 -4 5 -19 3 -37 -6 -17 -8 -28
-17 -25 -20 5 -5 48 -11 121 -18 22 -2 57 -6 78 -10 51 -10 48 7 -8 42 -24 15
-44 33 -45 39 0 7 -7 15 -16 18 -10 4 -18 -3 -26 -24z m39 -42 c-3 -8 -6 -5
-6 6 -1 11 2 17 5 13 3 -3 4 -12 1 -19z"/>
<path d="M1635 2373 c-62 -34 -173 -75 -239 -89 -155 -33 -350 -36 -483 -8
-32 6 -32 6 -28 -517 3 -487 5 -531 25 -629 40 -195 122 -387 245 -571 99
-147 244 -305 387 -420 144 -115 131 -113 230 -38 190 144 315 276 447 472
111 166 177 314 228 510 26 102 26 102 32 652 3 303 5 551 4 553 0 2 -11 -1
-22 -8 -33 -17 -188 -28 -301 -19 -167 12 -285 42 -430 108 -54 25 -57 25 -95
4z m81 -42 c58 -35 221 -91 316 -107 91 -16 332 -16 383 1 20 6 20 2 19 -492
-2 -519 -4 -554 -48 -700 -79 -262 -219 -494 -429 -707 -102 -103 -253 -226
-277 -226 -20 0 -175 125 -260 211 -113 113 -193 213 -266 331 -103 165 -190
395 -213 560 -6 42 -11 284 -11 549 -1 452 0 474 17 470 10 -2 84 -5 164 -8
109 -4 168 -1 232 11 91 17 251 74 302 106 37 24 33 24 71 1z"/>
<path d="M1641 2108 c-38 -51 -39 -87 -6 -118 25 -23 25 -23 25 33 0 31 4 59
10 62 16 10 22 -37 11 -86 -7 -30 -7 -58 -1 -80 13 -43 13 -139 1 -139 -6 0
-12 21 -16 48 -10 80 -23 117 -53 145 -26 25 -32 26 -58 17 -43 -17 -64 -40
-64 -70 0 -39 21 -56 40 -30 25 33 57 16 75 -39 27 -86 61 -181 68 -187 8 -8
62 109 78 169 18 67 47 87 74 50 11 -15 15 -15 29 -4 26 22 20 67 -13 90 -53
38 -101 22 -123 -41 -6 -15 -15 -28 -20 -28 -18 0 1 63 27 90 14 14 25 35 25
46 0 23 -55 114 -69 114 -5 0 -23 -19 -40 -42z m164 -168 c-3 -5 -10 -10 -16
-10 -5 0 -9 5 -9 10 0 6 7 10 16 10 8 0 12 -4 9 -10z"/>
<path d="M1211 2030 c-42 -52 -45 -100 -8 -138 16 -17 27 -39 27 -56 0 -15 4
-25 10 -21 6 3 10 15 10 26 0 11 14 38 31 59 36 45 35 67 -8 131 -14 21 -27
39 -28 39 -1 0 -16 -18 -34 -40z m39 -69 c0 -45 -12 -91 -21 -85 -10 6 -12 84
-3 108 9 24 24 9 24 -23z"/>
<path d="M2070 2018 c-35 -57 -35 -76 -2 -123 16 -23 33 -58 37 -76 4 -19 12
-40 17 -46 11 -14 3 -79 -11 -87 -5 -3 -14 31 -21 77 -11 66 -18 87 -41 109
-35 35 -61 35 -100 0 -26 -24 -31 -33 -25 -56 7 -30 34 -46 46 -27 4 7 17 11
30 9 18 -2 28 -18 50 -78 15 -42 30 -93 34 -113 5 -29 10 -36 20 -28 12 10 50
91 83 176 14 37 24 51 41 53 15 2 22 -2 22 -12 0 -19 21 -21 38 -4 32 32 -17
108 -71 108 -30 0 -77 -54 -77 -88 0 -12 -4 -22 -10 -22 -21 0 -9 63 20 104
28 39 29 45 19 76 -29 83 -66 101 -99 48z m50 -83 c0 -45 -13 -67 -24 -39 -8
21 -8 79 0 87 14 14 24 -6 24 -48z m-115 -85 c-3 -5 -11 -10 -16 -10 -6 0 -7
5 -4 10 3 6 11 10 16 10 6 0 7 -4 4 -10z"/>
<path d="M1079 1870 c-23 -23 -29 -35 -23 -52 13 -44 25 -51 50 -27 32 30 48
15 73 -67 22 -69 57 -144 69 -144 4 0 23 51 43 113 31 98 39 112 59 115 15 3
29 -3 38 -15 13 -17 14 -17 28 1 20 28 18 40 -12 75 -33 40 -75 42 -109 5 -14
-15 -25 -37 -25 -50 0 -12 -4 -26 -10 -29 -5 -3 -10 -21 -11 -38 0 -18 -4 -41
-9 -52 -7 -19 -8 -18 -13 5 -3 14 -9 47 -12 75 -15 113 -73 149 -136 85z"/>
<path d="M1663 1620 c-27 -11 -29 -23 -8 -40 24 -20 17 -49 -17 -70 -29 -17
-35 -18 -55 -5 -12 8 -34 15 -48 15 -21 0 -25 -5 -25 -29 0 -36 13 -46 30 -26
12 14 16 13 36 -6 23 -21 23 -21 50 0 32 25 81 27 112 5 21 -15 25 -15 41 0
24 22 38 20 52 -5 14 -27 27 -14 31 31 3 34 3 34 -37 31 -22 -1 -45 -7 -52
-13 -6 -5 -24 -8 -40 -6 -24 2 -28 8 -31 36 -2 18 2 40 9 48 9 11 9 17 -1 29
-14 17 -16 17 -47 5z"/>
<path d="M1660 1440 c0 -5 5 -10 10 -10 6 0 10 5 10 10 0 6 -4 10 -10 10 -5 0
-10 -4 -10 -10z"/>
<path d="M1640 1414 c0 -3 5 -15 11 -26 8 -15 8 -27 -2 -46 -11 -20 -11 -26
-1 -29 6 -3 12 -13 12 -23 0 -10 -6 -20 -12 -23 -10 -3 -10 -9 0 -26 20 -34
15 -141 -8 -179 -18 -29 -25 -33 -58 -30 -35 3 -37 5 -40 41 -3 32 0 38 22 47
16 6 26 17 26 30 0 18 -6 20 -61 20 -57 0 -60 -1 -57 -22 2 -17 9 -22 26 -20
22 3 30 -12 12 -23 -19 -12 -11 -65 15 -90 36 -37 88 -34 125 5 27 29 29 30
42 12 48 -68 158 -45 158 32 0 17 -5 37 -12 44 -9 9 -8 12 5 12 18 0 42 36 28
44 -4 3 -25 5 -45 4 -30 -1 -36 -5 -36 -23 0 -12 7 -36 16 -54 19 -39 6 -61
-37 -61 -43 0 -69 47 -69 127 0 34 5 65 10 68 16 10 12 55 -5 55 -20 0 -19 10
2 25 16 12 16 16 3 39 -10 20 -11 29 -2 38 22 22 12 34 -28 35 -22 1 -40 0
-40 -3z"/>
<path d="M1215 1248 c-11 -6 -39 -29 -62 -51 -43 -41 -56 -77 -29 -77 16 0 46
26 46 40 0 13 53 60 67 60 19 0 16 -12 -12 -50 -14 -19 -25 -42 -25 -53 0 -27
-18 -57 -35 -57 -8 0 -23 10 -34 22 -19 19 -21 20 -27 4 -4 -11 2 -26 17 -42
19 -20 30 -24 53 -20 27 6 28 4 23 -23 -3 -15 -1 -33 6 -40 8 -8 8 -20 -2 -47
-12 -32 -11 -39 6 -62 23 -30 70 -49 85 -34 14 14 1 32 -21 32 -30 0 -43 23
-31 56 9 23 8 31 -4 40 -14 10 -14 13 4 29 24 22 36 14 20 -14 -7 -14 -7 -21
0 -21 5 0 10 -15 10 -32 0 -26 7 -37 32 -53 17 -11 42 -27 54 -35 17 -11 30
-12 51 -4 36 12 28 29 -14 29 -44 0 -93 47 -77 73 6 9 24 18 40 20 37 5 70 36
85 79 13 39 8 45 -40 62 -42 14 -81 14 -81 1 0 -16 -36 -12 -59 8 -22 17 -22
17 9 65 36 57 37 71 8 91 -26 19 -36 19 -63 4z m90 -241 c0 -20 -4 -37 -10
-36 -5 0 -9 9 -7 21 1 13 -5 22 -18 25 -23 6 -26 19 -7 26 29 13 42 2 42 -36z
m85 33 c0 -5 -4 -10 -10 -10 -5 0 -10 5 -10 10 0 6 5 10 10 10 6 0 10 -4 10
-10z m-27 -37 c-5 -12 -2 -15 10 -10 9 3 17 2 17 -4 0 -15 -30 -23 -42 -11
-12 12 -4 42 11 42 6 0 7 -8 4 -17z"/>
<path d="M2082 1238 c-18 -18 -15 -44 11 -88 31 -55 17 -76 -47 -72 -38 2 -46
0 -46 -14 0 -14 -3 -15 -12 -6 -15 15 -30 15 -52 -1 -14 -10 -15 -18 -7 -37 5
-14 12 -37 15 -52 5 -21 12 -28 30 -28 35 0 86 -20 86 -34 0 -16 -62 -76 -78
-76 -7 0 -21 5 -32 12 -26 17 -40 0 -15 -18 30 -23 101 -9 131 24 33 39 39 70
16 96 -15 17 -52 81 -52 91 0 2 9 5 20 8 22 6 39 -11 22 -22 -14 -9 -3 -58 15
-65 11 -5 14 -1 10 13 -3 11 2 28 9 38 11 14 14 14 12 3 -3 -25 12 -60 27 -60
21 0 27 16 11 30 -13 10 -12 14 4 30 11 11 25 17 33 14 16 -6 61 41 53 55 -5
7 -14 7 -31 -1 -31 -14 -55 -4 -55 24 0 12 -12 39 -26 60 -29 41 -26 60 6 40
11 -7 26 -12 33 -12 7 0 18 -13 24 -30 12 -32 30 -39 39 -15 8 19 -9 40 -60
77 -42 30 -74 36 -94 16z m75 -194 c-3 -3 -12 -4 -19 -1 -8 3 -5 6 6 6 11 1
17 -2 13 -5z m-155 -31 c34 -32 36 -45 6 -41 -16 2 -22 9 -21 22 1 11 -6 26
-15 33 -9 7 -13 13 -8 13 6 0 23 -12 38 -27z"/>
<path d="M1640 908 c-38 -52 -38 -84 0 -127 17 -18 30 -40 30 -48 0 -8 8 -28
17 -44 16 -27 16 -29 -1 -48 -10 -11 -15 -24 -11 -30 3 -6 1 -19 -4 -28 -12
-21 -12 -19 -16 72 -2 60 -27 112 -61 127 -34 16 -91 -11 -100 -47 -9 -38 3
-77 24 -73 10 2 16 11 14 21 -3 19 6 21 41 8 17 -7 27 -20 32 -43 12 -63 57
-188 66 -188 13 0 61 108 79 175 14 53 24 65 53 65 10 0 17 -8 17 -20 0 -30
26 -24 40 9 16 39 5 68 -30 86 -56 29 -97 13 -114 -42 -8 -26 -26 -31 -26 -7
0 21 18 55 42 78 14 13 18 26 13 45 -7 30 -54 101 -66 101 -5 0 -22 -19 -39
-42z m44 -93 c-3 -25 -10 -43 -14 -40 -13 8 -18 68 -8 95 9 23 10 23 19 7 6
-9 7 -37 3 -62z"/>
<path d="M2120 929 c0 -6 4 -19 10 -29 8 -15 4 -23 -21 -44 -17 -14 -36 -26
-42 -26 -7 0 -4 -5 5 -11 19 -10 47 0 81 29 20 17 23 62 5 80 -15 15 -38 16
-38 1z"/>
<path d="M475 2370 c-3 -5 -3 -21 1 -35 4 -15 1 -37 -6 -51 -17 -30 0 -74 28
-74 30 0 33 11 12 38 -11 13 -20 29 -20 33 0 15 84 9 104 -6 26 -20 33 -19 39
4 7 29 -10 48 -50 56 -20 4 -48 15 -61 26 -28 21 -38 23 -47 9z"/>
<path d="M1458 2349 c-26 -14 -22 -32 5 -23 29 9 33 12 21 24 -5 5 -16 5 -26
-1z"/>
<path d="M1880 2346 c0 -13 39 -30 48 -21 8 7 -20 35 -34 35 -8 0 -14 -6 -14
-14z"/>
<path d="M727 2308 c-29 -21 -82 -96 -74 -104 9 -10 94 56 105 81 23 50 14 57
-31 23z"/>
<path d="M2594 2322 c-19 -12 19 -65 64 -89 23 -12 42 -18 42 -14 0 10 -81
111 -89 111 -3 0 -11 -4 -17 -8z"/>
<path d="M2527 2244 c-4 -8 -10 -94 -8 -117 1 -4 10 -3 21 3 16 9 18 8 14 -5
-9 -21 15 -19 55 6 31 19 33 22 18 37 -15 14 -18 14 -35 -1 -24 -22 -32 -21
-32 2 0 26 -26 85 -33 75z"/>
<path d="M424 2157 c-10 -49 -21 -471 -12 -481 4 -6 8 -20 8 -32 0 -12 7 -27
15 -34 36 -30 135 48 135 106 0 11 5 25 12 32 17 17 0 28 -22 14 -11 -7 -27
-12 -35 -12 -28 0 -15 15 28 32 30 13 51 31 72 65 42 65 45 77 38 128 -6 45
-6 45 -43 5 -31 -34 -59 -48 -73 -37 -2 1 -11 -4 -21 -12 -10 -8 -16 -28 -16
-50 1 -136 -11 -221 -31 -221 -15 0 4 419 21 451 16 29 12 38 -29 59 -39 20
-39 20 -47 -13z m212 -223 c-3 -9 -6 -19 -6 -23 0 -9 -85 -101 -93 -101 -18 0
-3 29 33 63 21 22 42 47 45 58 4 10 11 19 17 19 5 0 7 -7 4 -16z"/>
<path d="M2914 2175 c-10 -8 -26 -15 -35 -15 -13 0 -14 -8 -8 -47 24 -145 37
-453 20 -453 -19 0 -26 27 -28 120 -7 238 -3 219 -44 230 -20 6 -44 19 -54 30
-21 23 -35 26 -35 6 0 -8 21 -33 48 -55 41 -36 44 -41 24 -41 -13 0 -36 13
-52 29 -33 33 -40 25 -40 -42 0 -52 34 -114 76 -142 71 -46 72 -46 41 -40 -19
4 -28 2 -26 -7 4 -33 -1 -41 -16 -28 -8 7 -15 19 -15 26 0 8 -16 31 -35 51
-19 20 -35 42 -35 48 0 5 -12 21 -27 35 -26 25 -26 25 -19 -12 8 -45 79 -177
107 -200 12 -10 25 -15 30 -12 5 3 22 -4 38 -15 16 -12 39 -21 50 -21 12 0 21
-4 21 -10 0 -13 -26 -13 -51 0 -10 6 -19 8 -19 6 0 -3 14 -13 30 -21 39 -20
66 -12 89 26 16 26 18 52 15 222 -3 211 -12 334 -23 342 -5 2 -17 -2 -27 -10z
m-100 -308 c11 -4 16 -13 12 -22 -3 -8 2 -19 12 -24 9 -5 14 -12 11 -16 -8 -8
-59 16 -59 27 0 5 -11 24 -25 42 -34 45 -32 69 4 30 15 -17 36 -34 45 -37z
m-19 -178 c4 -6 4 -13 1 -16 -7 -7 -46 26 -46 39 0 10 36 -8 45 -23z"/>
<path d="M578 2134 c-19 -10 -29 -25 -34 -50 -7 -39 -2 -49 21 -40 18 6 48 71
43 91 -2 11 -8 11 -30 -1z"/>
<path d="M2760 2117 c0 -28 56 -85 70 -71 6 6 4 18 -5 34 -8 14 -18 33 -21 43
-10 26 -44 22 -44 -6z"/>
<path d="M730 2061 c0 -5 5 -13 10 -16 6 -3 10 -2 10 4 0 5 -4 13 -10 16 -5 3
-10 2 -10 -4z"/>
<path d="M563 2014 c-49 -22 -66 -45 -43 -59 20 -12 116 64 99 79 -2 2 -28 -7
-56 -20z"/>
<path d="M708 1914 c-5 -4 -8 -16 -8 -26 0 -10 -7 -21 -15 -24 -30 -12 -121
-211 -92 -202 19 6 116 160 123 195 7 36 2 68 -8 57z"/>
<path d="M690 1405 c-7 -8 -8 -15 -2 -15 5 0 15 7 22 15 7 8 8 15 2 15 -5 0
-15 -7 -22 -15z"/>
<path d="M500 1400 c0 -5 7 -10 16 -10 8 0 12 5 9 10 -3 6 -10 10 -16 10 -5 0
-9 -4 -9 -10z"/>
<path d="M650 387 c0 -16 45 -57 62 -57 21 0 1 35 -30 53 -27 16 -32 16 -32 4z"/>
<path d="M2668 379 c-30 -22 -37 -49 -14 -49 18 0 66 43 66 59 0 17 -22 13
-52 -10z"/>
<path d="M2721 314 c-21 -26 -28 -49 -13 -42 51 25 62 34 60 46 -5 26 -25 24
-47 -4z"/>
<path d="M600 315 c0 -15 38 -40 47 -31 7 7 -26 46 -39 46 -4 0 -8 -7 -8 -15z"/>
</g>
</svg>
