<?xml version="1.0" standalone="no"?>
<!DOCTYPE svg PUBLIC "-//W3C//DTD SVG 20010904//EN"
 "http://www.w3.org/TR/2001/REC-SVG-20010904/DTD/svg10.dtd">
<svg version="1.0" xmlns="http://www.w3.org/2000/svg"
 width="340.000000pt" height="443.000000pt" viewBox="0 0 340.000000 443.000000"
 preserveAspectRatio="xMidYMid meet">
<metadata>
Created by potrace 1.16, written by Peter Selinger 2001-2019
</metadata>
<g transform="translate(0.000000,443.000000) scale(0.100000,-0.100000)"
fill="#000000" stroke="none">
<path d="M1690 4420 c0 -5 -9 -10 -20 -10 -12 0 -25 -10 -32 -26 -7 -14 -25
-32 -40 -40 -26 -14 -28 -18 -28 -80 0 -58 3 -69 24 -85 45 -35 37 -108 -14
-124 -17 -5 -20 -15 -20 -69 0 -44 5 -67 15 -76 8 -7 15 -26 15 -43 0 -16 10
-45 21 -64 21 -34 21 -34 -25 -79 -46 -46 -46 -46 -75 -25 -21 15 -44 21 -85
21 -53 0 -73 11 -41 24 8 3 15 18 15 34 0 33 16 52 43 52 17 0 19 -5 13 -41
-6 -40 -6 -40 21 -37 27 3 28 5 28 63 0 56 -2 60 -30 74 -16 8 -37 18 -45 22
-10 4 -14 18 -12 38 2 27 -1 31 -24 31 -34 0 -63 -17 -73 -42 -4 -12 -23 -26
-42 -32 -39 -13 -49 -39 -24 -66 11 -12 13 -20 6 -25 -13 -7 -14 -74 -2 -93 4
-7 28 -14 52 -15 36 -2 48 -8 67 -31 12 -17 22 -34 22 -38 0 -5 -15 -24 -32
-42 -28 -28 -37 -32 -57 -25 -18 7 -22 15 -19 34 4 17 -2 31 -19 47 -33 31
-81 126 -94 188 -6 30 -16 50 -24 50 -8 0 -22 14 -32 30 -19 33 -25 35 -54 20
-14 -8 -25 -7 -41 5 -28 19 -114 20 -121 2 -8 -22 10 -42 40 -42 25 0 29 -4
33 -40 5 -38 6 -40 37 -37 48 5 87 -39 78 -88 -4 -19 -7 -39 -8 -45 -1 -5 13
-9 30 -7 29 2 38 -4 79 -57 25 -33 52 -62 60 -65 8 -3 14 -12 14 -21 0 -8 11
-20 25 -25 17 -7 25 -17 25 -34 0 -14 5 -28 10 -31 6 -3 10 -14 10 -23 0 -10
9 -23 20 -30 18 -11 20 -23 20 -99 0 -81 -3 -92 -41 -172 -51 -104 -126 -184
-182 -195 -69 -13 -37 -46 45 -46 89 0 71 -29 -31 -51 -66 -14 -140 8 -174 53
-19 24 -34 31 -71 35 -37 5 -50 11 -58 28 -8 19 -3 34 31 91 38 63 41 73 41
141 0 53 -5 84 -19 111 -26 51 -67 87 -99 87 -26 0 -27 3 -34 64 -6 51 -15 76
-44 118 -20 29 -38 53 -40 53 -1 0 -10 -7 -18 -16 -24 -23 -46 -11 -99 56 -63
77 -81 79 -72 8 8 -63 49 -161 105 -259 23 -39 39 -73 36 -76 -8 -8 -73 42
-123 95 -23 24 -47 41 -53 37 -24 -15 -4 -102 40 -166 16 -24 25 -45 21 -47
-5 -2 -33 8 -62 21 -30 13 -68 29 -86 36 -17 7 -42 24 -55 38 -27 30 -75 56
-87 48 -23 -13 54 -207 104 -264 46 -53 58 -65 85 -82 14 -9 23 -19 20 -22 -3
-3 -56 -7 -118 -10 -62 -2 -115 -7 -118 -9 -12 -12 36 -51 89 -72 62 -25 63
-29 8 -41 -18 -4 -64 -20 -101 -35 -38 -16 -94 -33 -124 -40 -31 -6 -56 -17
-56 -23 0 -7 29 -27 65 -44 58 -30 72 -33 155 -33 49 0 90 -4 90 -8 0 -16
-232 -176 -282 -195 -10 -3 -18 -15 -18 -25 0 -24 39 -32 165 -32 90 -1 90 -1
8 -79 -46 -43 -114 -99 -153 -125 -38 -26 -70 -52 -70 -58 0 -11 72 -7 169 11
35 7 68 8 72 4 7 -7 -98 -191 -131 -230 -5 -7 -10 -24 -10 -38 0 -49 47 -26
155 74 67 63 78 57 50 -26 -9 -26 -25 -93 -36 -148 -11 -59 -27 -111 -39 -127
-11 -15 -20 -39 -20 -53 0 -20 5 -25 24 -25 19 0 37 23 102 126 43 69 81 127
85 129 3 3 3 -17 -1 -43 -4 -26 -11 -80 -14 -119 -6 -62 -5 -73 8 -73 9 0 20
16 27 40 15 48 25 51 33 8 11 -58 60 -146 126 -228 53 -65 70 -79 90 -77 26 2
29 19 11 62 -23 54 -62 224 -77 334 -13 100 -14 135 -5 199 16 108 31 115 31
14 0 -90 13 -168 37 -224 28 -66 37 -50 48 82 7 100 34 253 46 264 5 6 9 -15
9 -57 0 -80 23 -147 51 -147 17 0 19 9 20 118 2 155 19 222 31 123 5 -39 24
-35 42 9 28 70 17 170 -18 170 -11 0 -13 10 -9 40 5 35 3 40 -14 40 -13 0 -24
-12 -33 -35 -23 -58 -38 -63 -33 -12 8 67 -11 68 -70 6 -39 -42 -49 -48 -43
-29 22 73 21 77 -26 83 -53 7 -74 -5 -129 -78 -23 -30 -43 -55 -45 -55 -14 0
83 161 106 175 14 9 13 98 -2 113 -7 7 -22 12 -35 12 -27 0 -30 25 -8 54 21
28 19 36 -10 36 -30 0 -32 11 -5 28 27 16 25 32 -2 32 -24 0 -56 16 -48 23 3
2 26 11 52 21 55 20 59 30 21 48 -34 17 -40 36 -12 40 33 4 36 28 5 28 -29 0
-35 15 -9 24 14 6 14 8 -3 21 -22 16 -13 29 28 39 23 5 31 0 62 -44 40 -56 42
-62 21 -80 -20 -17 -19 -32 5 -58 26 -28 26 -31 -15 -71 -20 -19 -34 -39 -32
-45 4 -11 10 -13 55 -15 27 -1 28 -20 2 -68 -26 -49 -26 -73 0 -66 10 3 35 -4
53 -16 39 -24 52 -21 114 22 33 23 57 31 120 37 125 13 232 71 260 142 8 21
19 38 24 38 6 0 19 16 30 35 12 19 25 35 29 35 18 0 18 -34 0 -70 -24 -48 -26
-90 -5 -90 9 0 29 7 44 15 25 13 30 13 41 0 15 -18 6 -78 -14 -94 -26 -22
-205 -52 -314 -52 -59 0 -111 0 -117 1 -5 1 -21 2 -34 1 -20 -1 -23 -5 -18
-33 3 -18 22 -79 42 -136 23 -66 39 -129 42 -176 6 -71 5 -72 -26 -98 -24 -21
-31 -35 -31 -62 0 -29 -4 -36 -20 -36 -24 0 -26 -17 -5 -40 14 -16 13 -19 -10
-34 -15 -10 -25 -26 -25 -41 0 -23 4 -25 44 -25 56 0 65 -13 26 -40 -35 -25
-39 -53 -10 -73 20 -14 21 -26 23 -208 3 -194 3 -194 41 -294 54 -141 54 -141
17 -159 -17 -9 -31 -24 -31 -32 0 -23 79 -99 122 -117 20 -8 44 -27 54 -42 9
-14 33 -35 53 -45 20 -10 95 -71 166 -134 72 -64 164 -138 205 -164 88 -56
127 -59 205 -19 65 32 204 137 230 172 37 50 145 155 159 155 18 0 54 45 116
142 157 247 192 458 148 883 -6 66 -12 183 -12 260 -1 135 0 143 33 230 19 50
34 108 35 130 1 37 -1 40 -24 38 -14 -1 -75 -3 -137 -3 -118 0 -276 26 -318
54 -27 18 -39 59 -25 86 9 18 13 18 45 4 51 -21 65 -18 65 14 0 15 -4 32 -8
38 -24 26 -42 144 -22 144 6 0 10 -8 10 -18 0 -10 20 -42 45 -71 25 -29 45
-63 45 -76 0 -48 141 -124 248 -133 51 -4 79 -13 122 -39 60 -36 91 -41 110
-18 7 8 28 15 46 15 29 0 34 4 34 23 0 12 -9 37 -21 56 -25 42 -19 61 21 61
28 0 31 3 25 23 -4 12 -19 32 -34 44 -26 21 -26 21 -3 45 26 29 28 45 6 70
-16 17 -15 21 20 73 20 30 43 55 51 55 22 0 57 -39 51 -56 -3 -8 -1 -14 4 -14
6 0 10 -4 10 -10 0 -5 -12 -10 -27 -10 -28 0 -28 0 -4 -19 24 -18 24 -18 -7
-41 -37 -28 -30 -44 27 -60 20 -5 45 -16 56 -24 19 -14 17 -15 -27 -16 -57 0
-67 -12 -31 -39 28 -20 28 -20 4 -21 -20 0 -23 -4 -18 -27 3 -16 9 -36 12 -45
5 -13 2 -18 -11 -18 -36 -1 -56 -26 -59 -75 -2 -40 2 -53 32 -92 38 -50 37
-71 -1 -30 -21 23 -33 27 -81 27 -55 0 -55 0 -49 -42 7 -43 7 -43 -27 -12 -19
18 -45 35 -58 39 -22 7 -23 5 -19 -34 4 -42 4 -42 -14 -19 -10 13 -18 28 -18
34 0 10 -21 24 -36 24 -2 0 -4 -13 -4 -29 0 -21 -6 -32 -19 -36 -37 -11 -40
-139 -5 -206 20 -40 33 -36 40 11 4 22 10 38 14 35 12 -7 20 -207 11 -248 -7
-31 -6 -39 6 -44 8 -3 21 1 28 8 19 20 45 116 45 168 0 123 47 -96 54 -252 3
-84 8 -96 30 -78 24 20 46 142 46 252 0 125 17 124 33 -1 8 -61 8 -110 -1
-191 -12 -109 -65 -336 -83 -353 -5 -6 -9 -23 -9 -38 0 -67 78 -6 179 140 13
19 33 61 45 95 12 34 26 64 30 67 5 3 15 -11 21 -30 6 -19 20 -37 29 -38 14
-3 16 2 11 30 -6 38 -25 169 -25 181 0 22 22 0 49 -48 53 -94 123 -185 143
-185 25 0 24 39 -2 89 -12 21 -30 81 -40 133 -11 51 -27 113 -35 137 -10 26
-12 48 -7 53 9 9 33 -8 126 -89 26 -24 57 -43 68 -43 32 0 17 45 -57 168 -36
60 -65 114 -65 120 0 12 15 11 115 -8 79 -15 125 -17 125 -5 0 5 -24 26 -53
47 -29 20 -97 76 -152 125 -99 88 -99 88 18 93 90 4 121 9 133 22 15 15 15 17
-6 30 -81 46 -289 191 -290 200 0 4 46 9 103 11 121 5 130 7 160 35 13 12 29
22 36 22 7 0 11 8 9 17 -2 12 -20 21 -58 29 -30 6 -89 25 -132 43 -42 17 -85
31 -97 31 -11 0 -23 5 -26 10 -3 6 -2 10 4 10 23 0 119 51 125 66 10 27 7 31
-31 30 -96 -1 -203 5 -202 12 1 4 31 34 68 67 40 35 73 74 80 95 7 19 26 65
42 102 51 117 29 142 -56 64 -26 -25 -60 -47 -74 -51 -14 -3 -50 -18 -79 -31
-30 -14 -56 -23 -59 -21 -2 3 9 29 26 58 16 30 34 73 40 97 13 63 -7 65 -71 7
-63 -56 -97 -80 -104 -72 -3 3 21 54 54 114 61 109 78 155 84 227 4 57 -15 55
-60 -6 -57 -77 -89 -105 -104 -90 -27 27 -55 13 -82 -38 -23 -43 -26 -62 -26
-142 0 -105 10 -135 34 -103 12 16 18 18 33 9 10 -6 18 -22 18 -35 0 -15 9
-28 25 -36 23 -11 23 -12 5 -18 -11 -4 -32 -11 -47 -17 -30 -11 -51 -3 -87 36
-18 19 -22 31 -17 53 20 82 20 83 -9 83 -34 0 -88 -54 -105 -106 -7 -20 -10
-66 -8 -102 3 -57 9 -75 41 -122 20 -30 37 -60 37 -67 0 -23 -39 -53 -68 -53
-19 0 -38 -11 -58 -31 -51 -54 -92 -69 -172 -62 -49 4 -76 11 -87 23 -15 16
-12 18 36 24 90 12 118 40 53 52 -89 17 -214 212 -222 347 -4 70 13 117 42
117 9 0 16 17 21 46 4 29 16 56 33 75 15 16 52 60 82 100 50 65 57 70 84 65
29 -6 29 -6 23 39 -6 38 -3 48 19 75 23 26 31 30 60 24 33 -6 34 -6 34 29 0
34 21 64 38 53 16 -10 46 20 39 39 -6 14 -15 16 -60 11 -28 -4 -71 -8 -95 -9
-34 -2 -48 -9 -66 -31 -13 -17 -28 -26 -34 -22 -8 5 -12 0 -12 -12 0 -46 -43
-157 -73 -186 -35 -35 -50 -22 -22 20 11 18 16 41 13 73 -2 30 2 54 11 64 17
22 7 47 -19 47 -32 0 -60 19 -60 40 0 21 -18 33 -62 44 -27 6 -28 5 -28 -39 0
-43 -2 -45 -28 -45 -15 0 -38 -7 -50 -16 -46 -32 -17 -160 32 -141 12 5 13 11
3 36 -9 24 -8 34 1 43 21 21 47 -4 50 -49 3 -40 3 -40 -43 -46 -25 -4 -59 -17
-75 -29 -30 -22 -30 -22 -61 8 -23 22 -29 35 -25 54 3 14 10 49 15 79 6 29 17
64 26 77 20 32 20 127 -1 145 -21 17 -44 63 -44 88 0 11 9 25 20 31 17 9 20
21 20 75 0 62 -1 66 -44 110 -24 25 -49 45 -55 45 -6 0 -11 5 -11 10 0 6 -7
10 -15 10 -8 0 -15 -4 -15 -10z m-352 -673 c2 -12 -3 -17 -17 -17 -12 0 -21 6
-21 13 0 31 32 34 38 4z m718 -85 c19 -12 24 -53 8 -59 -20 -7 -64 13 -64 30
0 28 33 45 56 29z m-1236 -374 c0 -41 -55 -92 -90 -82 -14 3 -51 8 -82 11 -56
5 -83 23 -34 23 14 0 28 5 31 10 3 6 17 10 31 10 21 0 24 3 18 25 -6 23 -3 25
25 25 17 0 31 -4 31 -10 0 -5 7 -10 15 -10 9 0 15 9 15 23 0 13 3 27 7 31 12
11 33 -25 33 -56z m768 -45 c-2 -10 -12 -18 -23 -18 -11 0 -21 8 -23 18 -3 13
3 17 23 17 20 0 26 -4 23 -17z m280 5 c-3 -7 -17 -13 -33 -13 -16 0 -30 6 -32
13 -3 8 7 12 32 12 25 0 35 -4 33 -12z m-378 -273 c0 -8 -4 -15 -10 -15 -5 0
-10 7 -10 15 0 8 5 15 10 15 6 0 10 -7 10 -15z m445 -15 c0 -7 -6 -15 -12 -17
-8 -3 -13 4 -13 17 0 13 5 20 13 18 6 -3 12 -11 12 -18z m430 -270 c3 -5 31
-10 61 -10 32 0 54 -4 54 -11 0 -11 -59 -8 -128 6 -40 9 -52 25 -18 25 14 0
28 -4 31 -10z m-1339 -19 c-8 -13 -56 -20 -88 -14 -49 10 -30 23 33 23 33 0
58 -4 55 -9z m714 -116 c14 -8 40 -14 58 -15 33 0 33 0 13 -26 -23 -29 -28
-83 -10 -101 9 -9 6 -20 -11 -43 -24 -33 -26 -33 -79 17 -46 44 -95 22 -89
-39 3 -32 5 -33 45 -33 26 -1 50 -7 59 -17 14 -14 14 -19 -5 -56 -12 -23 -31
-47 -44 -53 -12 -7 -25 -17 -29 -23 -4 -6 -22 -16 -40 -22 -33 -11 -33 -11
-33 -111 -1 -116 -9 -133 -64 -133 -96 0 -140 12 -176 47 -32 31 -41 34 -78
31 -45 -5 -91 12 -100 37 -4 8 -13 15 -22 15 -8 0 -32 11 -53 24 -47 30 -60
67 -65 196 -3 65 -13 120 -30 174 -16 49 -23 84 -17 91 5 6 60 11 139 13 71 1
150 6 175 12 28 6 103 8 188 4 117 -5 149 -4 178 9 44 19 59 20 90 2z m354
-10 c43 -8 134 -16 202 -18 72 -2 128 -7 135 -14 8 -8 4 -30 -11 -79 -19 -57
-23 -101 -27 -257 -6 -188 -6 -189 -30 -198 -13 -5 -140 -9 -281 -9 -256 0
-256 0 -284 27 -15 15 -28 33 -28 42 0 23 31 51 58 51 22 0 24 3 18 36 -9 45
15 88 44 79 33 -11 41 3 23 41 -15 30 -15 39 -3 72 7 20 23 47 36 59 20 18 24
32 24 76 0 62 -11 77 -59 77 -52 0 -25 18 34 23 28 2 55 4 60 5 6 1 45 -5 89
-13z m796 -217 c11 -18 20 -37 20 -43 0 -14 -49 48 -50 63 0 20 9 14 30 -20z
m-1587 -697 c12 -11 35 -31 52 -44 27 -23 28 -25 12 -41 -9 -10 -17 -24 -17
-32 0 -8 -14 -20 -30 -26 -21 -7 -38 -24 -52 -52 -23 -45 -148 -216 -157 -216
-3 1 -17 7 -30 14 -21 12 -28 30 -47 122 -13 60 -23 125 -24 144 0 19 -7 44
-16 55 -11 15 -14 41 -13 102 3 82 3 82 28 76 15 -3 34 -10 43 -14 9 -5 28 -9
41 -9 23 0 25 -5 29 -56 6 -72 31 -99 82 -90 33 6 36 10 36 41 0 37 -16 45
-38 23 -24 -24 -44 38 -23 70 5 8 17 11 32 7 20 -5 28 0 44 27 20 33 20 33 23
-24 2 -43 8 -62 25 -77z m389 -30 c3 -105 3 -105 318 -103 323 2 376 -2 393
-29 14 -23 -34 -185 -85 -284 -52 -102 -88 -155 -160 -234 -32 -35 -58 -69
-58 -75 0 -20 -83 -92 -120 -104 -19 -7 -48 -21 -64 -31 -15 -10 -71 -41 -123
-67 -94 -49 -94 -49 -211 11 -95 49 -132 75 -204 144 -93 89 -110 115 -84 134
9 7 27 51 41 100 14 48 42 124 61 168 20 44 38 97 41 117 3 21 14 48 23 62 10
14 21 36 25 50 4 14 45 62 91 108 66 65 84 89 84 111 0 15 3 31 7 35 16 15 22
-15 25 -113z"/>
<path d="M400 732 c0 -132 -2 -151 -18 -165 -10 -10 -28 -17 -40 -17 -11 0
-24 -4 -27 -10 -3 -5 -40 -10 -81 -10 -74 0 -74 0 -74 -39 0 -22 -4 -42 -8
-45 -11 -7 -59 26 -78 53 -18 26 -42 27 -60 4 -16 -21 -18 -69 -4 -78 6 -3 10
-19 10 -35 0 -35 64 -123 123 -167 38 -30 48 -33 117 -33 41 0 94 -7 118 -15
37 -13 51 -13 111 -1 38 8 83 22 100 30 16 9 36 16 44 16 21 0 43 56 28 74 -6
7 -53 35 -104 61 -114 59 -125 68 -106 91 11 13 26 15 81 12 76 -6 112 -22
293 -128 164 -97 363 -193 465 -225 86 -26 86 -26 425 -23 340 3 340 3 420 32
123 43 248 105 375 185 217 136 355 189 416 159 16 -7 29 -20 29 -27 0 -8 -44
-38 -98 -66 -54 -29 -103 -57 -109 -63 -6 -6 -8 -25 -4 -44 7 -40 26 -50 149
-80 86 -21 91 -21 137 -5 27 10 78 17 116 17 78 0 103 12 158 76 66 77 96 140
96 199 0 51 -2 55 -24 55 -13 0 -44 -16 -70 -36 -50 -38 -86 -41 -66 -5 22 43
14 51 -52 51 -36 1 -74 7 -88 15 -14 8 -35 14 -47 15 -36 0 -43 30 -43 179 0
141 0 141 -168 141 -167 0 -167 0 -247 -45 -44 -25 -96 -58 -115 -74 -44 -35
-158 -103 -280 -169 -368 -196 -777 -166 -1150 84 -47 31 -94 65 -105 74 -11
10 -68 43 -126 74 -106 56 -106 56 -262 56 -157 0 -157 0 -157 -148z"/>
</g>
</svg>
