<?xml version="1.0" standalone="no"?>
<!DOCTYPE svg PUBLIC "-//W3C//DTD SVG 20010904//EN"
 "http://www.w3.org/TR/2001/REC-SVG-20010904/DTD/svg10.dtd">
<svg version="1.0" xmlns="http://www.w3.org/2000/svg"
 width="286.000000pt" height="354.000000pt" viewBox="0 0 286.000000 354.000000"
 preserveAspectRatio="xMidYMid meet">
<metadata>
Created by potrace 1.16, written by Peter Selinger 2001-2019
</metadata>
<g transform="translate(0.000000,354.000000) scale(0.100000,-0.100000)"
fill="#000000" stroke="none">
<path d="M1418 3518 c-2 -17 -10 -23 -28 -23 -30 0 -34 -28 -5 -33 26 -5 44
-22 23 -22 -8 0 -21 -7 -28 -15 -10 -13 -9 -15 12 -15 14 0 27 -3 31 -6 10
-11 -5 -34 -22 -34 -22 0 -90 -51 -91 -67 0 -26 62 -10 75 19 14 31 35 34 35
6 0 -22 -34 -64 -75 -93 -28 -19 -7 -42 23 -26 27 15 32 14 32 -4 0 -32 -40
-92 -73 -110 -34 -18 -34 -18 -71 10 -41 31 -45 49 -16 65 11 6 20 18 20 26 0
12 -7 14 -29 9 -25 -5 -33 -1 -59 31 -34 40 -36 39 -46 -30 -7 -49 -11 -52
-40 -37 -27 15 -79 7 -97 -15 -16 -20 -29 -18 -29 5 0 11 -5 23 -12 27 -8 5
-6 11 7 20 15 11 16 16 5 29 -7 9 -18 14 -24 12 -6 -3 -21 5 -34 16 -16 15
-25 18 -33 10 -7 -7 -8 -17 -3 -25 5 -7 9 -24 9 -38 0 -20 5 -25 23 -23 16 2
25 -4 32 -21 5 -13 14 -27 20 -31 5 -3 16 -21 24 -39 12 -29 53 -71 94 -96 16
-9 16 -11 -1 -24 -16 -13 -16 -15 1 -37 19 -23 19 -23 123 1 131 30 341 32
459 5 124 -29 133 -29 154 -6 15 17 16 23 6 36 -10 12 -4 22 39 61 28 25 51
50 51 56 0 6 12 30 28 54 19 30 33 43 47 41 15 -1 20 4 20 23 0 14 4 31 9 38
5 8 4 18 -3 25 -8 8 -17 5 -33 -10 -13 -11 -29 -18 -35 -16 -18 7 -29 -27 -12
-38 11 -6 11 -11 1 -21 -6 -6 -12 -20 -12 -30 0 -22 -9 -22 -34 -3 -39 30 -78
10 -62 -31 6 -16 8 -16 25 0 19 18 31 12 31 -15 0 -22 -46 -59 -74 -59 -51 0
-64 66 -20 95 28 18 25 29 -9 30 -18 0 -23 7 -25 35 -5 63 -10 66 -47 26 -28
-31 -39 -37 -60 -32 -31 8 -35 -18 -5 -36 29 -18 25 -32 -16 -63 -35 -27 -37
-27 -70 -12 -38 19 -61 49 -70 95 -6 31 7 45 21 22 3 -5 13 -10 21 -10 21 0
17 37 -5 43 -11 2 -29 23 -40 45 -26 51 -26 52 -1 52 13 0 20 -7 20 -19 0 -10
7 -22 16 -25 28 -11 54 -6 54 9 0 8 -4 15 -10 15 -5 0 -19 10 -30 22 -11 12
-33 23 -48 24 -30 1 -44 31 -18 39 55 17 53 15 34 29 -23 17 -23 22 3 29 28 7
19 32 -12 32 -17 0 -25 6 -27 23 -4 29 -30 29 -34 0z m-323 -374 c27 -17 32
-43 15 -75 -14 -25 -51 -24 -84 2 -28 22 -35 59 -11 59 8 0 15 -4 15 -10 0 -5
5 -10 10 -10 6 0 10 8 10 18 0 17 8 32 17 32 2 0 15 -7 28 -16z m368 -52 c28
-29 28 -29 7 -55 -26 -33 -40 -34 -69 -3 -23 24 -23 24 0 55 12 17 26 31 29
31 3 0 18 -13 33 -28z m-239 -23 c38 -22 38 -21 -1 -88 -6 -10 -73 35 -73 49
0 15 27 60 35 60 2 0 20 -9 39 -21z m486 -11 c19 -32 13 -58 -13 -58 -6 0 -19
-7 -28 -16 -17 -16 -19 -15 -28 9 -5 14 -15 28 -20 32 -20 12 -11 31 22 48 44
22 45 21 67 -15z"/>
<path d="M1372 2942 c-9 -6 31 -11 110 -15 74 -3 153 -13 198 -25 69 -18 92
-20 78 -6 -24 23 -360 64 -386 46z"/>
<path d="M1250 2930 c-25 -8 -25 -8 0 -9 14 0 32 4 40 9 13 9 13 10 0 9 -8 -1
-26 -5 -40 -9z"/>
<path d="M1148 2908 c-21 -6 -38 -14 -38 -19 0 -11 -5 -12 60 11 58 19 42 25
-22 8z"/>
<path d="M1222 2891 c-96 -24 -122 -38 -122 -68 0 -28 -1 -28 102 -3 46 12
133 23 193 26 94 5 129 2 234 -19 69 -14 128 -24 133 -21 4 3 8 14 8 25 0 64
-366 104 -548 60z"/>
<path d="M1271 2750 c-28 -33 -81 -106 -118 -162 -37 -57 -99 -136 -138 -177
-70 -74 -70 -74 -10 -69 64 6 170 43 244 86 24 14 54 26 66 27 11 0 44 17 72
38 103 75 153 154 161 254 4 51 2 63 -10 63 -8 0 -20 -12 -27 -27 -26 -58 -92
-161 -122 -189 -32 -29 -32 -29 -24 1 5 17 9 50 10 75 0 25 6 62 14 82 24 73
-1 59 -36 -19 -19 -43 -42 -94 -50 -113 -9 -19 -18 -30 -20 -23 -2 7 1 22 7
34 13 24 60 158 60 171 0 24 -35 1 -79 -52z"/>
<path d="M1603 2803 c-20 -7 -34 -76 -35 -171 -2 -97 14 -175 47 -242 36 -71
151 -168 173 -146 4 4 -1 13 -10 19 -89 61 -102 74 -124 121 -28 61 -33 106
-9 86 9 -7 25 -35 37 -61 20 -47 86 -119 109 -119 6 0 -3 16 -20 35 -62 71
-66 85 -71 274 -4 123 -9 176 -17 178 -8 3 -13 -13 -15 -49 -3 -53 -3 -53 -11
-13 -5 22 -10 50 -12 61 -5 23 -22 34 -42 27z"/>
<path d="M1181 2776 c-15 -18 -28 -111 -14 -103 10 7 43 90 43 109 0 12 -16 9
-29 -6z"/>
<path d="M508 2746 c-16 -6 -44 -27 -63 -46 -30 -29 -35 -31 -35 -14 0 11 5
25 11 31 17 17 1 37 -18 22 -60 -51 -78 -199 -34 -296 27 -62 112 -146 174
-173 101 -45 226 -62 322 -44 42 7 169 67 179 83 4 6 -25 9 -74 7 -44 -1 -80
1 -80 5 0 4 35 42 77 85 80 83 131 155 159 224 27 67 3 70 -31 5 -34 -67 -123
-157 -185 -187 -61 -30 -146 -35 -191 -13 -43 22 -79 55 -79 72 0 7 -7 13 -15
13 -10 0 -15 -10 -15 -30 0 -40 52 -97 115 -127 50 -24 50 -24 7 -18 -81 10
-161 67 -189 133 -10 24 -18 31 -25 24 -29 -29 35 -118 114 -158 56 -28 60
-36 16 -27 -81 15 -174 78 -202 137 -42 90 5 225 95 272 55 28 25 46 -33 20z"/>
<path d="M2290 2751 c0 -5 9 -12 19 -16 27 -8 100 -90 117 -130 32 -76 5 -172
-63 -221 -48 -36 -111 -64 -140 -64 -26 0 -25 2 17 26 76 43 120 96 120 144 0
29 -19 25 -31 -7 -24 -65 -116 -130 -195 -138 -27 -3 -42 -2 -34 1 119 51 160
89 160 148 0 35 -12 33 -44 -8 -54 -72 -167 -84 -268 -29 -65 35 -149 129
-180 198 -25 59 -38 69 -38 31 0 -42 81 -186 134 -238 27 -27 47 -51 44 -54
-13 -13 -95 67 -132 129 -41 70 -57 75 -36 12 16 -48 88 -125 165 -175 36 -24
64 -44 62 -47 -11 -10 -147 63 -184 100 -44 42 -54 38 -29 -11 30 -57 148
-145 224 -168 104 -32 275 -8 378 51 54 32 120 105 146 163 33 71 31 171 -5
239 -14 28 -31 54 -36 57 -16 10 -23 -12 -11 -35 18 -32 4 -34 -32 -4 -51 43
-128 70 -128 46z"/>
<path d="M590 2733 c-23 -8 -60 -45 -60 -59 0 -6 9 -14 20 -17 11 -3 28 -19
37 -37 31 -55 39 -62 67 -62 57 0 90 65 61 121 -23 46 -80 70 -125 54z"/>
<path d="M2204 2730 c-62 -25 -84 -111 -39 -155 40 -41 76 -32 106 26 10 21
30 46 44 55 31 20 21 44 -29 68 -38 18 -51 19 -82 6z"/>
<path d="M1392 2452 c-66 -60 -152 -172 -152 -197 0 -5 -9 -21 -20 -35 -35
-45 -25 -50 51 -25 83 29 131 56 211 119 58 46 96 92 85 103 -3 3 -20 -7 -38
-21 -40 -34 -48 -27 -16 16 30 39 50 86 41 99 -3 6 -25 -11 -48 -36 -61 -65
-86 -60 -45 9 12 20 17 36 12 36 -4 0 -41 -31 -81 -68z"/>
<path d="M1163 2325 c-88 -76 -105 -95 -83 -95 29 0 144 89 174 135 32 49 -5
33 -91 -40z"/>
<path d="M1200 2270 c-9 -6 -10 -10 -3 -10 6 0 15 5 18 10 8 12 4 12 -15 0z"/>
<path d="M1444 2248 c-79 -50 -294 -126 -294 -104 0 3 10 22 22 42 25 42 29
42 -82 9 -39 -12 -93 -17 -189 -17 -152 0 -138 19 -106 -153 26 -134 30 -415
10 -631 -20 -212 -16 -320 15 -408 40 -117 123 -232 234 -327 71 -60 252 -185
334 -230 44 -24 44 -24 95 5 236 131 449 316 519 451 73 142 88 249 64 456
-35 297 -31 458 16 716 12 67 20 124 17 126 -2 3 -42 1 -89 -3 -157 -13 -353
21 -472 81 -21 11 -39 19 -41 19 -2 0 -25 -14 -53 -32z m22 -249 c20 -40 17
-92 -7 -123 -31 -39 -54 -33 -79 19 -19 38 -20 50 -11 77 6 18 21 42 33 55 24
26 39 19 64 -28z m266 -70 c51 -54 68 -78 68 -100 0 -35 -33 -47 -80 -30 -30
10 -34 8 -128 -78 -53 -48 -102 -94 -109 -102 -9 -11 -13 -113 -15 -374 -3
-350 -4 -361 -25 -402 -33 -61 -75 -87 -148 -91 -107 -6 -169 56 -162 162 3
51 8 63 35 87 57 51 107 51 167 -2 35 -31 35 -31 35 230 0 190 -3 261 -12 261
-6 0 -35 -22 -64 -50 -64 -61 -119 -89 -136 -72 -18 18 16 75 82 136 117 109
130 125 130 162 0 19 -5 44 -11 55 -7 14 -7 24 -1 32 6 7 12 28 14 47 3 34 3
35 53 35 50 0 50 0 47 -33 -4 -55 22 -52 84 9 58 57 57 55 38 132 -8 34 10 57
45 57 19 0 43 -18 93 -71z"/>
<path d="M1405 1997 c-37 -56 -10 -131 38 -106 16 9 19 18 14 56 -2 25 -12 52
-20 60 -13 14 -17 13 -32 -10z"/>
<path d="M1613 1963 c-4 -9 1 -29 10 -45 9 -17 17 -34 17 -40 0 -6 -98 -107
-217 -225 -175 -171 -215 -215 -203 -223 8 -5 17 -10 20 -10 11 0 237 209 338
313 103 106 103 106 138 85 28 -16 37 -18 49 -8 26 22 16 45 -47 108 -63 63
-93 76 -105 45z"/>
<path d="M1396 1795 c-13 -34 -6 -45 25 -45 27 0 30 3 27 28 -4 31 -41 44 -52
17z"/>
<path d="M1390 1690 c0 -34 10 -38 32 -12 31 35 30 42 -1 42 -28 0 -31 -3 -31
-30z"/>
<path d="M1414 1549 c-18 -19 -19 -44 -24 -318 -6 -319 -9 -338 -62 -375 -49
-34 -108 -4 -108 54 0 35 34 56 59 37 11 -10 9 -13 -10 -17 -34 -8 -38 -46 -6
-61 76 -34 107 86 34 132 -42 26 -83 18 -119 -21 -23 -24 -28 -40 -28 -79 0
-79 56 -131 143 -131 57 0 105 32 135 90 21 43 22 52 22 377 0 183 -4 333 -8
333 -5 0 -17 -9 -28 -21z"/>
<path d="M1185 1409 c-12 -19 5 -23 22 -6 16 16 16 17 1 17 -9 0 -20 -5 -23
-11z"/>
<path d="M285 2244 c-33 -36 -34 -92 -2 -121 28 -26 58 -35 76 -24 12 8 8 15
-18 40 -27 26 -31 33 -21 51 10 18 20 20 120 20 61 0 110 -4 110 -9 0 -5 -21
-14 -47 -20 -67 -17 -103 -38 -103 -61 0 -17 4 -17 55 10 30 16 75 32 100 36
85 12 69 30 -65 73 -120 39 -172 40 -205 5z"/>
<path d="M2393 2246 c-40 -12 -75 -25 -79 -29 -4 -4 45 -7 108 -7 92 0 118 -3
128 -15 11 -13 9 -21 -8 -45 -28 -37 -28 -50 1 -50 63 0 91 99 41 145 -34 31
-89 32 -191 1z"/>
<path d="M2262 2189 c2 -7 28 -18 58 -26 30 -7 74 -25 98 -38 51 -29 62 -31
62 -11 0 19 -37 41 -110 65 -70 23 -114 27 -108 10z"/>
<path d="M653 2135 c-94 -29 -141 -58 -236 -144 -91 -81 -141 -108 -231 -123
-64 -11 -92 -6 -168 27 -35 14 -18 -20 26 -52 149 -113 299 -76 522 129 38 35
84 74 102 87 45 32 35 36 -28 11 -29 -11 -58 -19 -64 -17 -16 6 83 54 127 62
34 7 49 26 29 38 -4 3 -39 -5 -79 -18z"/>
<path d="M2127 2153 c-15 -14 -5 -23 35 -34 47 -12 142 -58 136 -65 -3 -2 -28
3 -57 12 -62 18 -73 14 -34 -11 15 -10 63 -50 106 -89 201 -182 320 -223 454
-156 59 30 101 65 91 76 -4 3 -29 -3 -56 -12 -44 -16 -60 -17 -116 -7 -91 15
-142 43 -233 124 -94 85 -137 111 -233 144 -81 27 -84 28 -93 18z"/>
<path d="M671 2028 c-80 -56 -121 -110 -148 -194 -34 -107 14 -237 111 -302
81 -54 143 -57 79 -4 -18 15 -42 48 -53 74 -20 46 -20 50 -5 133 19 101 34
140 81 209 19 28 34 54 34 58 0 21 -23 3 -60 -45 -47 -63 -80 -151 -80 -216
-1 -43 -2 -45 -15 -27 -8 11 -15 16 -15 11 0 -5 -5 -4 -11 2 -8 8 -6 28 5 72
23 90 62 159 122 217 30 28 54 54 54 58 0 16 -33 1 -99 -46z"/>
<path d="M2100 2072 c0 -4 25 -32 56 -62 65 -63 124 -174 123 -230 0 -27 -2
-31 -8 -15 -7 16 -9 13 -16 -20 -7 -37 -8 -38 -15 -15 -5 14 -8 41 -9 60 -1
19 -12 59 -26 88 -24 52 -83 131 -97 132 -16 0 -7 -29 16 -57 45 -54 76 -132
91 -226 4 -23 10 -35 17 -31 15 9 1 -51 -24 -103 -11 -24 -33 -52 -49 -64 -62
-44 -20 -53 56 -11 90 50 154 169 142 269 -8 74 -61 168 -120 213 -29 22 -64
48 -79 60 -26 20 -58 27 -58 12z"/>
<path d="M415 1818 c-129 -94 -151 -115 -179 -170 -20 -39 -26 -67 -26 -114 0
-61 15 -93 26 -57 15 51 47 96 127 181 82 88 142 179 135 206 -2 8 -35 -11
-83 -46z"/>
<path d="M2370 1865 c0 -36 57 -123 142 -217 51 -56 97 -116 104 -136 21 -63
39 -47 38 34 0 90 -29 143 -111 204 -32 24 -84 63 -115 87 -42 32 -58 40 -58
28z"/>
<path d="M421 1631 c-69 -136 -91 -207 -91 -302 0 -56 5 -77 33 -130 33 -64
68 -95 52 -48 -4 13 -9 58 -11 99 -3 73 -3 74 7 22 13 -73 31 -113 74 -161 55
-61 89 -53 44 11 -26 36 -59 138 -59 181 0 31 0 31 28 4 39 -38 83 -49 129
-33 53 18 54 36 3 36 -47 0 -77 13 -102 44 -28 34 -21 37 20 10 39 -27 83 -28
145 -5 34 13 35 31 2 31 -38 0 -75 23 -126 77 -40 43 -48 58 -58 114 -6 36
-11 89 -11 117 0 29 -4 52 -9 52 -5 0 -36 -54 -70 -119z"/>
<path d="M2376 1719 c-3 -13 -8 -55 -11 -94 -4 -38 -13 -84 -20 -100 -15 -39
-109 -123 -144 -131 -68 -15 -65 -27 13 -45 50 -11 58 -10 96 10 50 26 50 7 0
-26 -20 -14 -48 -23 -71 -23 -45 0 -51 -16 -13 -30 48 -19 91 -12 127 20 19
17 38 30 42 30 10 0 -3 -84 -22 -140 -8 -25 -26 -59 -39 -77 -29 -38 -30 -43
-5 -43 11 0 36 19 55 42 32 37 48 74 73 173 7 28 8 27 11 -16 2 -25 -3 -65
-11 -88 -27 -76 10 -57 53 28 51 101 33 234 -56 408 -63 125 -71 135 -78 102z"/>
<path d="M363 1634 c-56 -60 -93 -136 -100 -209 -5 -45 -3 -55 9 -55 10 0 17
14 21 45 8 52 42 127 93 202 21 29 34 56 31 60 -4 4 -28 -16 -54 -43z"/>
<path d="M2450 1672 c0 -5 19 -38 42 -73 53 -83 77 -137 78 -174 0 -16 5 -37
10 -45 9 -13 11 -13 20 0 13 20 13 26 -5 95 -17 66 -43 112 -93 168 -33 36
-52 46 -52 29z"/>
<path d="M640 913 c-1 -58 -1 -58 -78 -105 -127 -77 -120 -63 -64 -143 27 -39
59 -79 72 -90 22 -20 22 -20 41 4 31 38 35 70 10 87 -11 8 -21 20 -21 25 0 14
41 48 58 49 7 0 25 8 39 17 26 17 26 17 16 -2 -9 -15 -8 -26 3 -47 19 -37 39
-35 53 3 24 69 11 114 -59 194 -22 25 -40 50 -40 56 0 5 -7 9 -15 9 -12 0 -15
-13 -15 -57z"/>
<path d="M2147 894 c-49 -65 -57 -82 -57 -119 0 -46 17 -95 33 -95 5 0 18 10
29 23 19 22 19 22 13 -8 -7 -34 -69 -102 -134 -148 -24 -16 -144 -81 -265
-144 -122 -63 -247 -134 -280 -159 -58 -46 -58 -46 -90 -16 -47 45 -131 95
-284 170 -267 132 -364 198 -402 276 -12 25 -25 46 -28 46 -4 0 -20 -43 -35
-94 -32 -107 -31 -112 31 -168 61 -55 165 -119 312 -193 184 -92 282 -148 367
-212 40 -29 75 -53 78 -53 3 0 31 20 62 44 92 69 156 107 348 206 203 104 291
160 354 224 41 42 43 47 37 86 -7 42 -7 42 16 15 23 -27 23 -27 74 37 55 69
84 113 84 126 0 5 -40 32 -90 61 -90 53 -90 53 -90 112 0 43 -4 59 -13 59 -8
0 -39 -34 -70 -76z m35 -141 c11 -10 34 -22 51 -28 40 -13 47 -42 14 -54 -14
-5 -27 -16 -30 -23 -2 -7 -8 5 -12 27 -4 22 -12 45 -19 50 -20 18 -39 45 -31
45 5 0 17 -8 27 -17z m-1312 -288 c10 -13 10 -19 -5 -35 -17 -18 -55 -28 -55
-14 0 11 34 64 41 64 4 0 12 -7 19 -15z m1186 -27 c4 -5 -8 -8 -27 -6 -18 2
-34 8 -36 14 -4 13 55 6 63 -8z m-126 -78 c0 -17 -19 -11 -30 9 -16 32 -11 42
10 21 11 -11 20 -24 20 -30z m-951 28 c0 -7 -4 -22 -9 -33 -7 -18 -8 -19 -15
-2 -4 9 -5 24 -1 32 7 18 26 20 25 3z m93 -50 c-7 -7 -12 -20 -12 -30 0 -10
-4 -18 -10 -18 -5 0 -10 8 -10 18 0 20 18 42 34 42 6 0 5 -5 -2 -12z m723 -14
c30 -20 33 -38 5 -29 -15 5 -20 2 -20 -11 0 -14 -3 -14 -15 -4 -12 10 -13 15
-4 21 7 4 9 14 6 23 -8 20 -3 20 28 0z m-585 -65 c0 -10 -4 -19 -10 -19 -5 0
-10 12 -10 26 0 14 4 23 10 19 6 -3 10 -15 10 -26z m440 -4 c7 -14 10 -28 7
-32 -8 -8 -36 26 -37 45 0 20 16 14 30 -13z m-200 -90 c19 -23 8 -50 -20 -50
-29 0 -38 26 -18 49 17 19 23 19 38 1z"/>
</g>
</svg>
