<?xml version="1.0" encoding="utf-8"?>
<!DOCTYPE svg PUBLIC "-//W3C//DTD SVG 1.0//EN" "http://www.w3.org/TR/2001/REC-SVG-20010904/DTD/svg10.dtd">
<svg version="1.0" xmlns="http://www.w3.org/2000/svg" width="354px" height="357px" viewBox="0 0 354 357" preserveAspectRatio="xMidYMid meet">
 <g fill="#000000">
  <path d="M155 351.9 c-31.8 -3.6 -64.3 -15.2 -89.1 -31.9 -7.6 -5 -11.8 -8.9 -18.9 -17 -21.6 -24.8 -35 -50.5 -41.4 -79 -8.3 -37.5 -5 -75.1 9.6 -109.1 17.3 -40.1 48 -72.3 87 -91.2 7.4 -3.6 14 -7.7 19.1 -12 9 -7.5 13.3 -9.8 19.4 -10.5 5 -0.5 5.7 1 1.6 3.2 -1.6 0.8 -3.9 2.6 -5.2 4 -2.3 2.4 -2.3 2.6 -0.5 2.6 1 0 3.8 -0.5 6.1 -1 14 -3.2 44.2 -4.2 59.3 -2 61.9 9.4 115.5 52.4 138.5 111.5 8.8 22.3 11.9 39.4 11.9 64 -0.1 26.1 -3.6 44.7 -13 67.5 -9.1 22.5 -19.3 37.4 -38.6 57.2 -11.5 11.6 -16 15.5 -23 19.6 -4.7 2.8 -10.5 6.5 -12.9 8.2 -7.9 5.7 -39.3 13.6 -63.3 15.9 -12.6 1.3 -35.6 1.2 -46.6 0z m51.5 -10 c24.3 -2.8 54.1 -11.3 64.8 -18.5 15.6 -10.7 32.7 -27.9 43.9 -44.5 11 -16.3 17.6 -30.5 22.7 -48.6 3.8 -13.8 5 -20.7 6 -35.1 3.4 -49.2 -13.9 -95.3 -48.8 -130.3 -25.1 -25.2 -51.5 -39.6 -86.1 -47 -14.2 -3 -45.9 -3.4 -59 -0.6 -11.2 2.4 -18 4.6 -18 5.9 0 1.2 2.7 0.9 15.5 -1.7 11 -2.2 39.3 -3.1 50.8 -1.5 36.3 4.8 66.7 20 93.8 47 32 31.9 49 72.5 48.9 117 -0.1 51.5 -24.7 100.7 -65.8 131.9 -10.1 7.7 -21.9 14.4 -23.8 13.7 -0.8 -0.3 -6.1 0.6 -11.7 1.9 -19.8 4.8 -36.5 6.8 -58.7 6.8 -37.5 0.1 -65.7 -6.2 -99 -22.1 -12 -5.8 -17.7 -10.4 -28.4 -23.2 -19.8 -23.6 -32.1 -48.7 -37.8 -77.2 -3 -14.9 -3.3 -46.9 -0.5 -61.8 4 -21.3 12.9 -43.1 25.4 -62 10.9 -16.4 30.3 -35.7 46.8 -46.5 14.5 -9.5 14.2 -9.2 12.9 -10.5 -1.2 -1.2 -14.4 6.4 -24.9 14.5 -14.8 11.3 -33.9 33.1 -43.7 49.9 -16.6 28.4 -24.7 64.4 -21.8 97.9 3.1 37.2 16.4 69 40.7 97.8 5.2 6 9.6 9.9 18.3 15.8 39.4 26.5 85.3 36.9 137.5 31z m-14.8 -23.4 c16.7 -20.6 24 -40.2 25 -66.4 0.5 -12 0.4 -14.3 -0.8 -13.9 -0.9 0.3 -1.7 2.8 -2.2 6.9 -2.3 18.7 -4 28.1 -6.3 35 -4.3 13.2 -17.1 33.4 -25.9 41 -3.8 3.2 -3.9 3.3 -2.2 0.6 l1.8 -2.8 -4.9 -5.7 c-2.8 -3.1 -7.5 -9.6 -10.7 -14.4 -4 -6.3 -6.2 -8.8 -7.6 -8.8 -1.6 0 -1.9 0.4 -1.3 2.3 2 6.5 14 24.5 22.3 33.5 l3.1 3.3 2.8 -2.8 c1.6 -1.5 4.7 -5 6.9 -7.8z m-66.7 -32.5 c1.4 -14.6 3.6 -24.4 6.7 -29.3 1.3 -2.1 2.2 -4.1 2 -4.4 -0.9 -0.9 -4.7 2.2 -5.7 4.7 -2.9 7.3 -5.9 24.1 -7.5 42.2 l-0.7 7.8 -3 -2.5 c-3.6 -3 -5.9 -3.2 -8.3 -0.5 -1 1.1 -2.1 2 -2.5 2 -3.1 0 9.9 -41.8 14.2 -45.6 l2.1 -1.9 -1.7 3.2 c-3.6 7.1 -1.3 6.3 3.7 -1.2 3 -4.4 5.2 -8.3 5 -8.7 -0.2 -0.5 -1.5 -0.8 -2.7 -0.8 -5.5 0 -14.2 14.7 -19.8 33.4 -3.2 10.8 -5.6 25.1 -4.5 26.2 0.4 0.4 2 -0.4 3.5 -1.8 5.7 -5.3 6.7 -5.4 12 -0.4 l4.7 4.5 0.7 -7.7 c0.4 -4.2 1.2 -12.9 1.8 -19.2z m101.6 18.9 c13.2 -9.2 19.4 -17.3 19.4 -25.4 0 -2.7 -0.4 -6.5 -0.9 -8.3 -1 -3.5 -1.5 -2.9 11.2 -13.4 2.8 -2.3 2.8 -2.3 1.2 -6.1 -1.6 -3.8 -1.6 -3.9 1.2 -7.5 1.5 -2.1 5 -6.1 7.7 -9.1 l4.8 -5.4 -0.5 -7.1 c-0.3 -3.9 -0.7 -8 -0.9 -9.1 -0.2 -1.6 1.6 -2.8 10.3 -6.6 16 -7.2 15.4 -7.2 18.6 -0.3 2.1 4.4 2.8 7.9 3.1 13.7 0.4 7.2 0.2 8.3 -2.8 14.2 -3.1 6 -3.1 6.4 -1.6 9.3 0.9 1.7 2 3.3 2.5 3.6 1.7 1.1 17.1 -8.2 17.1 -10.3 0 -0.4 -2.1 -0.5 -4.6 -0.2 -6.3 0.5 -6.9 -0.5 -4.4 -7.5 2.7 -7.6 5.6 -20.2 6.5 -28.1 l0.7 -6.2 -3.2 0.9 c-3.5 1 -7.5 -0.1 -8.2 -2.2 -0.3 -0.7 1.8 -3.3 4.5 -5.7 4.4 -4 4.8 -4.8 4.4 -7.8 -0.6 -3.7 -7.4 -15.3 -9 -15.3 -0.5 0 -2.6 1.5 -4.7 3.4 -9.4 8.4 -27.9 15.9 -44.1 17.8 -10.4 1.1 -11.1 1.6 -8.3 5.6 2 2.8 1.1 5.6 -1.4 4.7 -1.7 -0.5 -2 0.3 -2.6 8.2 -0.6 8.5 -0.6 8.8 2.4 13.6 3.5 5.7 2.9 7.7 -2.5 7.7 -3 0 -3.3 0.3 -3.9 3.8 -0.3 2 -1.9 5.7 -3.6 8.2 -2.3 3.5 -3 5.6 -3 9.5 0 2.8 0.4 5.7 0.9 6.5 1.7 2.5 0 3.1 -3.3 1.2 l-3.2 -1.9 -3.5 27.8 c-1.9 15.4 -3.2 27.9 -2.8 27.9 0.3 0 3.2 -1.8 6.5 -4.1z m-138.1 -11.6 c5.5 -9.4 20.6 -31.8 25.2 -37.3 l3.7 -4.5 -5.3 5 c-5.5 5.2 -15.6 18.2 -23.1 29.8 -2.4 3.7 -4.7 6.7 -5 6.7 -0.4 0 -2.1 -1.6 -3.8 -3.6 -2.9 -3.2 -3.7 -3.6 -6.7 -3.1 -1.9 0.3 -3.5 0.2 -3.5 -0.3 0 -1.3 10.8 -15 16.4 -20.8 6 -6.2 14.4 -12.7 15.3 -11.8 0.4 0.3 0.1 1.2 -0.5 1.8 -2.8 2.8 -0.9 2.7 2.6 0 2.1 -1.7 5.4 -3.8 7.5 -4.8 4.7 -2.3 4.7 -3.4 0 -3.4 -3.6 -0.1 -3.7 -0.1 -1.8 -1.6 1.9 -1.5 1.8 -1.6 -2 -0.9 -12.4 2.1 -26.8 16.3 -39.5 38.8 -3.2 5.7 -3.4 8.5 -0.4 5.5 1.2 -1.2 2.4 -1.4 5.1 -0.8 4.4 1 6.5 3 8.8 8 1 2.2 2.1 4 2.4 4 0.4 0 2.5 -3 4.6 -6.7z m187.8 -7.7 c6.2 -4.8 11.4 -9 11.6 -9.2 0.2 -0.2 -1 -0.7 -2.8 -1 -1.7 -0.4 -3.4 -1.1 -3.7 -1.5 -0.3 -0.5 0.7 -3.4 2.1 -6.4 2.9 -5.8 2.8 -7.6 -0.6 -11.9 -2.7 -3.4 -3.9 -2.5 -3.9 2.7 0 5.7 -3.6 12.9 -10.4 20.7 -6 7 -9.6 13.3 -9.6 16.9 0 2.2 0 2.2 3.1 0.4 1.7 -1 8.1 -5.8 14.2 -10.7z m-114 -1.2 c3.2 -0.6 3.7 -1 3.1 -2.7 -0.5 -1.5 -0.3 -1.7 0.7 -1.1 2.1 1.3 5.8 1.4 12.2 0.1 9 -1.8 7 -3.7 -3.9 -3.7 -5.4 0 -6.2 -0.2 -5.7 -1.6 0.5 -1.4 1.8 -1.6 9.3 -1 l8.6 0.6 -0.1 -2.4 c0 -1.3 -0.2 -2.7 -0.5 -2.9 -0.3 -0.3 -3.4 -0.7 -7 -0.8 -5.5 -0.2 -12 -2.1 -12 -3.4 0 -0.3 0.8 -0.9 1.8 -1.4 1.3 -0.7 3.2 -0.5 6.2 0.5 2.4 0.8 6.6 1.4 9.4 1.2 4.2 -0.2 5.1 -0.6 5.3 -2.3 l0.3 -2 -0.9 2 c-0.8 1.7 -1 1.6 -1 -1.2 l-0.1 -3.1 -6.7 -0.6 c-3.8 -0.4 -8.1 -1.1 -9.6 -1.6 -1.6 -0.5 -3.5 -0.6 -4.3 -0.3 -2.4 0.9 -1.6 -1.4 1.3 -3.7 2.3 -1.8 2.9 -1.9 3.8 -0.7 1.3 1.8 9.8 2.9 12.9 1.7 1.9 -0.7 2.3 -1.4 1.9 -3.1 -0.4 -1.6 -0.2 -2 0.8 -1.7 0.8 0.3 1.4 1.3 1.4 2.4 0 1 0.6 1.9 1.3 1.8 0.6 -0.1 2.1 -0.2 3.2 -0.2 1.1 -0.1 2 -0.9 2 -1.7 0 -0.8 0.7 -1.5 1.5 -1.5 0.8 0 1.5 0.9 1.5 2 0 2.5 2 2.7 2.1 0.3 0.1 -1.7 0.2 -1.7 0.6 0 0.2 0.9 0.9 1.7 1.4 1.7 0.6 0 0.7 -0.5 0.3 -1.1 -0.4 -0.8 0 -0.8 1.5 0 2.5 1.4 5.3 0.3 2.8 -1 -3.2 -1.8 -17.5 -4.6 -24.6 -4.8 -4.1 -0.1 -10.4 -0.9 -14 -1.7 -3.6 -0.9 -8.1 -1.3 -9.8 -1.1 -2.3 0.4 -3.9 0 -5.5 -1.3 l-2.3 -1.9 2.6 -0.1 c1.7 0 3.4 -1.2 5.4 -3.9 1.6 -2.1 3.5 -3.7 4.1 -3.4 1.5 0.6 7.4 -2.4 7.4 -3.7 0 -0.6 -2.7 -1 -5.9 -1 -5.8 0 -6 0.1 -11.5 5.5 -3.1 3 -5.6 6.3 -5.6 7.4 0 1.1 -2.2 4.8 -5 8.2 -5.1 6.4 -5.9 8.2 -3.8 9.5 0.7 0.5 0.9 0.2 0.4 -0.7 -0.4 -0.8 -0.1 -0.6 0.7 0.4 1.1 1.3 1.6 1.5 2 0.5 0.3 -1 0.7 -1 1.7 -0.1 2 1.9 0.4 4.6 -2.2 3.7 -4.6 -1.4 -5.3 -1.1 -5.6 3.2 -0.3 3.5 0 4.2 2.3 5.2 3 1.4 3.4 3.7 0.5 2.9 -2.7 -0.7 -2.5 1 0.3 3.4 6.2 5.5 14.2 7.7 23 6.3z m38.3 -5.3 c0 -1.1 -0.6 -1.7 -1.3 -1.4 -0.6 0.3 -0.9 1.1 -0.6 1.9 0.7 2 1.9 1.7 1.9 -0.5z m-10.9 -5.6 c-0.4 -0.8 -0.2 -1.7 0.3 -2 0.6 -0.4 1 -0.1 1 0.4 0 0.6 0.9 1.1 2 1.1 2.9 0 2.4 -2.7 -0.6 -3.4 -3.1 -0.8 -3 -0.9 -3.9 2.7 -0.5 1.8 -0.3 2.7 0.5 2.7 0.7 0 1 -0.7 0.7 -1.5z m7.1 -9.4 c2.8 -1.7 0.1 -4.6 -2.9 -3.1 -0.9 0.5 -1.9 0.6 -2.3 0.3 -0.3 -0.3 -0.6 0.3 -0.6 1.5 0 1.6 0.6 2.2 2.3 2.2 1.2 0 2.8 -0.4 3.5 -0.9z m-112 -22.7 c8.6 -3.7 17.3 -6.9 19.4 -7.2 2.7 -0.3 3.5 -0.8 2.6 -1.3 -2.6 -1.7 -8 -0.8 -18.5 3.1 -13.4 5.1 -16.8 5.6 -21.7 3.6 -4.4 -1.8 -4 -3.3 1.2 -4.2 2 -0.3 6.2 -2 9.2 -3.6 3 -1.7 7.5 -4.1 10 -5.5 l4.5 -2.4 -6.5 0.5 c-3.6 0.3 -7.6 0.9 -8.9 1.2 -2 0.6 -2.2 0.5 -1.3 -1.2 3.6 -6.7 16.2 -17.4 20.4 -17.4 1 0 1.8 -0.4 1.8 -1 0 -1.7 -8.9 -1.1 -12.8 0.9 -4.9 2.5 -11.4 9.6 -18.4 20.1 -3.1 4.7 -7.2 10.1 -9.2 11.9 -4.2 4.1 -4.4 5.1 -1.3 5.2 1.2 0 4 0.9 6.2 1.9 2.2 1 4.9 1.9 5.9 1.9 1 0.1 8.9 -2.9 17.4 -6.5z m121.3 4 c1.2 -1.4 1.1 -1.6 -0.5 -1.3 -1.1 0.2 -2.1 1 -2.4 1.7 -0.5 1.7 1.3 1.5 2.9 -0.4z m-158.3 -4.4 c3.4 -3.3 7.2 -10.6 7.2 -13.6 0 -2 2.3 -11.4 3.5 -14.7 0.8 -2 -0.6 -1.7 -6.2 1.1 -8 4 -3.7 -3.8 7.3 -13 6.2 -5.2 8.5 -7.9 10.6 -12.5 3.4 -7.3 3.4 -8.1 0.1 -9.4 -3.6 -1.3 -11.7 -6.4 -17 -10.6 l-4.2 -3.3 -2.4 3.2 c-6.6 8.9 -7.5 15.1 -2.6 19.2 1.6 1.4 3.8 3 4.7 3.5 3.1 1.8 0.2 4.6 -5.2 4.9 l-4.6 0.3 0 4.7 c0 6 2.3 16.4 5.6 26.6 3.1 9.1 2.6 10 -4.3 9.2 -2.4 -0.3 -4.3 -0.2 -4.3 0.3 0 1.1 6.7 7.1 8 7.1 0.4 0 2.2 -1.3 3.8 -3z m136.5 -0.3 c0.4 0.3 0.7 -1.4 0.7 -3.8 0 -7.1 0.8 -8.9 4.1 -8.9 3.1 0 7.9 -1.9 7.9 -3.1 0 -0.5 -1.1 -1.6 -2.5 -2.5 -1.9 -1.3 -3.1 -1.4 -5.5 -0.6 -3.7 1.3 -4.3 0.5 -3.5 -5.2 0.5 -3.2 0.3 -5.1 -0.7 -6.5 l-1.5 -2.1 -1.9 2.1 c-1.3 1.5 -1.9 3.6 -1.9 7.3 0 5.3 -0.6 5.8 -4.6 4.2 -0.9 -0.4 -2.6 0.1 -3.9 1.2 -2.2 1.8 -2.3 2.1 -0.7 3.6 1.1 1.1 2.9 1.6 5.2 1.4 l3.6 -0.3 0.4 6.3 c0.5 7.2 1.1 8.8 2.9 7.3 0.7 -0.6 1.6 -0.8 1.9 -0.4z m-25.3 -33.2 c10.6 -11 12 -13.5 12 -21.7 -0.1 -6.1 -0.1 -6.2 -1.5 -3.3 -0.7 1.7 -1.4 2.3 -1.5 1.5 -0.1 -0.9 -0.6 -0.5 -1.2 1 -1.1 2.4 -1.2 2.4 -1.8 -1.5 l-0.6 -4 -0.8 5.8 c-0.9 7 -3.2 9.8 -12.6 16 -3.5 2.3 -7.3 5.6 -8.3 7.4 -2.2 3.9 -3.5 13.7 -1.8 14.7 0.7 0.4 1.1 0 1.1 -1.1 0 -1.1 0.7 -2.8 1.5 -3.9 1.5 -1.7 1.5 -1.4 1 4.6 l-0.6 6.5 3.2 -6.5 c2.1 -4.2 6.1 -9.4 11.9 -15.5z m-26.2 -4.6 c2.2 -5.1 4.4 -7.4 3.4 -3.7 -0.6 2.6 -0.9 2.8 7.3 -4.2 9.1 -7.7 11.9 -14.8 9.8 -25.1 l-0.9 -4.4 -2.8 5.5 c-1.7 3.4 -6 8.6 -11.1 13.6 -9.1 8.9 -10.1 11 -11.2 22.5 -0.3 4.2 -0.1 8.6 0.8 12 l1.3 5.4 0.7 -8.5 c0.4 -4.8 1.6 -10.5 2.7 -13.1z m104.7 12.8 c-1.9 -2.9 -7.3 -14 -11.9 -24.7 -7.9 -18.5 -10.3 -26.1 -14.5 -47 -0.8 -3.9 -0.9 -3.2 -0.9 5.5 -0.1 5.5 0.3 13.2 0.7 17 0.5 3.9 0.7 7.2 0.5 7.4 -0.2 0.2 -1 -1.2 -1.8 -3 l-1.5 -3.4 0.6 5 c0.6 5.6 5.4 17.7 8.4 21.5 l2 2.5 -0.7 -3.7 c-0.3 -2.1 -0.4 -3.8 -0.2 -3.8 0.6 0 6.8 9.9 6.8 10.9 0 1.8 9.4 15.9 12.3 18.3 1.8 1.5 3.3 2.8 3.5 2.8 0.1 0 -1.4 -2.4 -3.3 -5.3z m-25 -8.4 c-0.9 -3.4 -2.6 -7.2 -3.6 -8.4 -2 -2.4 -2.6 -1 -0.9 2.2 2.1 3.8 -0.1 1.8 -4.4 -4.1 -2.5 -3.3 -5.2 -8.4 -6.1 -11.3 -2.3 -6.8 -3.8 -8.4 -3 -3.2 0.3 2.2 0.7 5.8 0.9 8 0.6 6.2 1.4 7.5 9.1 15.5 4 4.1 7.6 8.6 8.1 10 l0.8 2.5 0.4 -2.4 c0.2 -1.4 -0.4 -5.3 -1.3 -8.8z m6.5 -2.3 c-0.6 -1.1 -0.8 -2 -0.5 -2 1.1 0 -1.8 -4.5 -7.2 -11.2 -3 -3.8 -5.6 -6.8 -5.8 -6.8 -0.2 0 0.1 1.5 0.6 3.2 0.5 1.8 0.9 3.4 0.9 3.6 0 1.1 8.4 9.1 9.1 8.6 0.5 -0.3 0.9 0.2 0.9 1.1 0 1.8 1.8 5.5 2.6 5.5 0.2 0 0 -0.9 -0.6 -2z m-111.4 -12.8 c-0.8 -1.5 -3.2 -4.7 -5.4 -7.2 l-3.9 -4.4 -4.2 1.4 c-5 1.6 -6.2 3 -2.6 3 3.3 0 11.3 4.1 14.4 7.4 3.1 3.3 3.5 3.3 1.7 -0.2z m127.5 -4.8 c-0.7 -3.9 -2.9 -9.9 -5.2 -14.5 -2.3 -4.4 -6 -13.7 -8.4 -20.7 -2.4 -7 -4.4 -12.1 -4.4 -11.4 -0.2 2.5 4.9 23.9 7.2 30.7 3 8.6 8.4 19.5 9.7 19.5 0.6 0 1 1 1 2.2 0 1.2 0.3 1.9 0.6 1.5 0.3 -0.3 0.1 -3.6 -0.5 -7.3z m-201.3 0.9 c0.3 -2.2 -2.8 -4 -4.8 -2.8 -1.2 0.7 -1.3 3.8 -0.3 4.9 1.5 1.4 4.8 0.1 5.1 -2.1z m291.6 1.1 c0.7 -1.9 -1 -4.4 -3.1 -4.4 -1.7 0 -2.7 2.4 -1.9 4.5 0.7 2 4.2 1.9 5 -0.1z m-133 -5.1 c-0.9 -5.2 -1.4 -5.4 -1.4 -0.5 0 2.3 0.5 4.2 1 4.2 0.7 0 0.8 -1.4 0.4 -3.7z m-103.1 -7.3 c6.5 -3.6 9.7 -3.6 18.3 0 11.1 4.8 17.2 4.6 25.2 -0.7 5.9 -4.1 8.2 -7.6 11.8 -17.7 1.7 -5 4.6 -12.9 6.4 -17.6 3.1 -8.2 7.4 -25.9 6.6 -26.8 -0.9 -0.8 -17.5 34.8 -22 47.1 -2.3 6.1 -10.3 14.4 -14.9 15.2 -2 0.4 -5.6 -0.1 -9.7 -1.4 -3.6 -1.2 -7.4 -2.1 -8.5 -2.1 -3.4 0 -0.3 -1.7 5.3 -2.9 12.2 -2.6 21.5 -9.8 30.7 -24 4.3 -6.6 8.1 -14.1 7.1 -14.1 -0.2 0 -2.2 3.1 -4.5 7 -4.1 6.8 -11.1 14.6 -18 19.9 -3.2 2.4 -4.2 2.6 -14 2.6 -12.9 0.1 -15.4 1.2 -24.1 10.9 -2.4 2.8 -2.4 2.8 3 -0.6 6.6 -4.1 11.7 -5.7 20.7 -6.4 8.7 -0.7 6.4 1.1 -2.6 2 -3.6 0.4 -8.1 1.6 -10.1 2.6 -4.8 2.4 -18 13 -18 14.3 0 0.6 1.2 -0.1 2.8 -1.5 1.5 -1.4 5.3 -4 8.5 -5.8z m170.4 -0.5 c2.7 -0.8 6.5 -2.5 8.4 -3.8 7.4 -5 12.4 -16.7 11.3 -26.5 -0.8 -6.8 -2 -7.4 -2.6 -1.4 -1.3 13.8 -16.2 28.2 -31.7 30.7 -3 0.5 -3.9 1 -3 1.6 2.2 1.4 12 1 17.6 -0.6z m-230.8 -9.7 c1.6 -1.8 5.1 -4.6 7.9 -6.3 l4.9 -2.9 -2.1 -2.9 -2 -2.8 6.9 -6.3 c3.9 -3.5 6.8 -6.6 6.5 -6.9 -0.3 -0.3 -3 0.5 -6 1.8 -9.9 4.3 -13 3.2 -15 -5.6 l-0.7 -3.4 -3.3 7 c-4.1 8.9 -4.9 16.3 -2.5 25 0.9 3.6 1.9 6.5 2.1 6.5 0.3 0 1.8 -1.5 3.3 -3.2z m52.8 2.1 c1.4 -1.4 0.8 -3.2 -2.9 -8.7 -4.7 -6.8 -6.2 -12.4 -5.5 -20.5 0.8 -8.8 4.3 -16.4 12.7 -27.1 3.3 -4.2 5.8 -7.6 5.4 -7.6 -0.3 0 -3.5 2.8 -7.1 6.3 -10.6 10.1 -16.7 20.7 -17.9 30.9 -0.8 6.5 0.2 14.8 1.8 14.8 0.5 0 0.7 -0.8 0.4 -1.7 -0.8 -2 0.3 -12.3 1.3 -12.3 0.4 0 0.7 3.1 0.8 6.8 0.1 7.7 3.2 16.3 6.7 18.7 2.5 1.8 2.9 1.8 4.3 0.4z m248.9 -8.5 c1.6 -6.1 1.6 -6.7 0 -12.6 -1 -3.5 -3 -9 -4.6 -12.3 -2.6 -5.5 -2.8 -5.7 -2.9 -2.9 -0.1 4.6 -2 9.3 -4.2 10.5 -1.4 0.7 -3.7 0.2 -9.5 -2.1 -4.2 -1.7 -7.8 -2.9 -8.1 -2.7 -0.4 0.5 8.2 8.6 11.7 11 2.5 1.7 2.5 1.8 0.7 4.9 -1 1.7 -1.6 3.2 -1.5 3.3 0.2 0.1 2.4 1.6 5.1 3.4 2.6 1.8 5.7 4.6 6.9 6.2 2 2.7 2.4 2.8 3.4 1.4 0.7 -0.9 2 -4.5 3 -8.1z m-141.6 3.1 c1 -1.2 0.2 -1.4 -5.6 -1.4 -6.2 0.1 -6.7 0.2 -4.9 1.5 2.5 1.8 8.9 1.8 10.5 -0.1z m95.5 -19 c0 -7.9 -0.4 -9.8 -3.1 -15.5 -3.4 -7.2 -12 -18 -18 -22.5 l-3.9 -2.9 4.1 4.9 c9.4 11.5 11.6 15.7 15.9 30.6 2.1 7.3 2.6 10.7 2.2 15.4 l-0.5 6 1.6 -3.5 c1.2 -2.5 1.7 -6.1 1.7 -12.5z m-94.5 13.6 c0 -0.5 0.8 -1.2 1.8 -1.5 0.9 -0.3 0.6 -0.4 -0.8 -0.2 -1.4 0.2 -3.4 0.7 -4.4 1.1 -1.3 0.6 -1.7 0.5 -1.3 -0.2 0.4 -0.7 -1.2 -0.9 -4.6 -0.7 -2.8 0.2 -5.5 0.3 -5.9 0.4 -0.5 0 -0.8 0.3 -0.8 0.8 0 0.4 3.6 0.8 8 1 4.6 0.1 8 -0.2 8 -0.7z m58.8 -2 c8.5 -4.4 13.2 -12 13.2 -21.4 0 -7.3 -3.4 -15.2 -13.9 -32.2 -3.3 -5.4 -6.1 -10.5 -6.1 -11.2 0 -0.7 0.9 -1.3 2.1 -1.3 1.9 0 33.5 5.1 40.8 6.6 l3.5 0.7 -2.5 -4.1 c-4.3 -7.4 -15.2 -19.5 -23.4 -25.9 l-8 -6.4 -0.5 4.7 c-0.7 6.6 -2.1 7.2 -11.4 5 -4.2 -1 -7.6 -2.1 -7.6 -2.5 0 -0.5 1.8 -1.5 4 -2.4 4.7 -1.8 5.1 -3.7 1.8 -9.4 -4.7 -8.1 -5 -8.2 -16.4 -11.4 -16.3 -4.4 -22.3 -5.1 -36.5 -4.3 l-12.7 0.7 5.7 4.7 c7.6 6.5 18.8 18.1 25.4 26.4 l5.4 6.8 1.1 10.7 c0.7 5.8 1.2 12.2 1.2 14.2 0 2 0.6 5.2 1.4 7.1 0.8 1.9 2.2 6.5 3.1 10.4 2.3 10.2 8.4 29.5 10.2 32.2 3.3 5.3 12.2 6.3 20.1 2.3z m-130.9 -1.8 c5.8 -3.4 12.4 -10.1 15 -15.2 1.2 -2.2 2.1 -4.2 2.1 -4.5 0 -0.7 -13.3 5.3 -14.5 6.5 -0.6 0.6 0.1 0.6 1.8 0 1.6 -0.6 3.6 -1.1 4.5 -1.1 2.2 0 -6.6 8.9 -13.5 13.7 -2.9 2 -5.3 3.8 -5.3 4.1 0 0.9 5.7 -1.1 9.9 -3.5z m1.8 -19.7 c9.9 -5.9 14.7 -10.5 18.5 -18.1 1.7 -3.3 3.4 -6.5 3.9 -7.1 0.6 -0.7 1 -8.3 1.1 -17 0.1 -22.2 -0.9 -25.4 -11.2 -36.2 -5.7 -6 -8.5 -8.2 -10.3 -8.2 -2.9 0 -7.6 4.9 -10.8 11.2 -2.4 4.6 -2.1 5.1 4.5 6.9 4.8 1.3 3.9 2.3 -3.9 4.3 -10.2 2.7 -12.5 1.7 -12.5 -5.3 0 -1.7 -0.4 -3.1 -0.8 -3.1 -2 0 -17.4 13.5 -22.7 19.9 -6.4 7.6 -10.3 13.6 -9.5 14.5 0.3 0.2 9.5 -1.1 20.5 -3 22.2 -3.8 24.5 -4 24.5 -2.1 0 0.7 -2.8 5.8 -6.1 11.2 -8.2 13.4 -13.7 24.7 -14.5 30.1 -0.8 5.8 1.1 12.8 4.8 16.9 l2.8 3.3 6.9 -6.9 c3.8 -3.7 10.5 -8.8 14.8 -11.3z m59 2.9 c-0.2 -0.5 -1.5 -1 -3 -1.1 -4.6 -0.2 -9.1 -2.5 -12.9 -6.8 l-3.8 -4.1 0 4.8 c0 4.4 0.4 5.3 4.6 9.5 4.1 4.2 4.5 5.1 4 8.2 l-0.5 3.5 5.9 -6.5 c3.3 -3.6 5.8 -6.9 5.7 -7.5z m8.5 11.7 c0.7 -1 2.1 -2.1 3.1 -2.5 1 -0.4 1.5 -1.2 1.1 -1.8 -0.5 -0.8 -0.9 -0.8 -1.4 0.1 -1.1 1.8 -2 -1.4 -2 -7.5 0 -4.3 -0.4 -5.6 -1.9 -6.5 -1.1 -0.5 -2.2 -1 -2.4 -1 -0.8 0 -2.7 8.8 -2.7 12.6 0 3.1 -0.2 3.5 -1.5 2.4 -0.9 -0.7 -1.9 -1 -2.3 -0.6 -0.4 0.4 0 1.1 0.9 1.6 0.9 0.5 2.7 1.8 4 2.9 3 2.5 3.5 2.5 5.1 0.3z m11.5 -1.4 c-0.5 -1.6 0.5 -3.2 4.3 -6.7 4.4 -4.1 4.9 -5.1 5.2 -9.4 l0.3 -4.9 -2.6 3.2 c-2.7 3.2 -13.1 7.6 -15 6.4 -0.5 -0.3 -0.9 0.6 -0.9 2 0 1.4 0.5 2.6 1 2.6 0.6 0 2.5 2 4.2 4.5 3.5 5 4.3 5.5 3.5 2.3z m99.2 -3.4 c-0.8 -1 -1.5 -1 -2.9 -0.1 -1.8 1.1 -1.8 1.2 -0.2 3 1.5 1.7 1.7 1.7 2.9 0.1 0.9 -1.2 1 -2.1 0.2 -3z m-239.6 2.2 c0.7 -1.8 -1.5 -3.7 -3.1 -2.7 -1.5 0.9 -0.5 4.1 1.3 4.1 0.7 0 1.5 -0.6 1.8 -1.4z m-12.4 -20.9 c3.2 -2.4 8.7 -5.4 12.1 -6.7 6.1 -2.3 6.6 -3.9 1.3 -4 -3.7 0 -10.3 -3.1 -11.5 -5.3 -0.6 -1.2 -1.4 -4.6 -1.7 -7.7 l-0.6 -5.5 -3.8 7.5 c-2.8 5.7 -3.8 9 -4 13 -0.1 5.4 0.9 13 1.8 13 0.3 0 3.1 -2 6.4 -4.3z m128.1 3.9 c0 -0.2 -1.4 -0.9 -3.1 -1.5 -2.7 -0.9 -3 -0.9 -1.9 0.4 1.1 1.3 5 2.2 5 1.1z m25.9 -0.5 c0.7 -0.5 0.9 -1.1 0.4 -1.4 -0.4 -0.3 -1.7 0.1 -2.8 0.9 -2.1 1.6 0 2 2.4 0.5z m115.2 -4.8 c1 -4.9 0.9 -6.8 -0.5 -12.2 -0.9 -3.6 -3 -8.7 -4.6 -11.5 l-3 -5.1 0 4.3 c0 5.4 -2.2 10.6 -5.2 12.5 -1.2 0.8 -5 2.1 -8.3 2.7 -5.5 1.2 -5.8 1.4 -3.5 2.3 7.5 3 16.9 7.8 19.5 10.1 1.7 1.4 3.3 2.5 3.7 2.6 0.4 0 1.2 -2.6 1.9 -5.7z m-129.7 0 c1 3.3 2.2 3.5 3.2 0.5 l0.7 -2.3 0.8 2.3 0.9 2.2 5.5 -3.1 c4.1 -2.3 6.4 -3 9.1 -2.7 3.5 0.4 3.6 0.3 3 -2.5 -0.6 -3.1 -2.3 -5.7 -3.6 -5.7 -0.5 0 -3.9 2 -7.6 4.5 -3.7 2.5 -6.9 4.3 -7.2 4 -0.3 -0.2 0.8 -2.1 2.3 -4.1 l2.8 -3.7 -2.4 0.6 c-1.3 0.3 -3.8 0.9 -5.5 1.5 -2.2 0.7 -4.1 0.6 -7 -0.5 -8.1 -3 -8.2 -2.9 -4.6 1.1 1.8 2.1 3.1 4.1 2.8 4.3 -0.3 0.3 -2.9 -1.1 -5.8 -3.1 -6.6 -4.5 -9.2 -4.6 -11.3 -0.5 -2 3.7 -1.4 4.4 3 4 2.3 -0.2 5.2 0.7 8.6 2.5 4.8 2.6 5.1 2.7 6.1 1 0.9 -1.6 1.1 -1.6 2.6 0.6 l1.7 2.3 0.6 -3 0.6 -3 0.7 2.8z m3.3 -14.1 c2 -2.8 6.3 -10.6 6.3 -11.7 0 -2.7 -7.9 7.6 -8.4 11 -0.4 3.1 -1.5 2.3 -5.7 -4.1 -2.4 -3.7 -4.5 -6.2 -4.7 -5.5 -0.7 2 7.4 13.1 9.6 13.1 0.4 0 1.7 -1.3 2.9 -2.8z m-29.9 -16.2 c-7.9 -8.6 -11 -11.1 -8.9 -7.2 1.3 2.5 15.5 16 16.9 16.2 0.2 0 -3.4 -4 -8 -9z m15.4 1.7 c1.6 -1.7 4.7 -5.3 6.8 -7.9 l3.9 -4.8 7.7 8.5 c4.2 4.7 7.9 8.3 8.2 8 0.6 -0.6 -6.1 -9 -10.8 -13.6 -2 -2 -4 -4.2 -4.3 -5 -0.6 -1.5 -1.3 -0.9 -9.2 8.5 -5.2 6.3 -8.5 11.2 -8.5 12.8 0 0.7 0.7 0.2 1.6 -1 0.8 -1.2 2.9 -3.7 4.6 -5.5z m-8.7 -0.5 l-2.8 -2.7 2.3 3.3 c1.2 1.8 2.5 3.1 2.8 2.7 0.3 -0.3 -0.7 -1.8 -2.3 -3.3z m17.8 -4.6 c1.9 -2.8 1.9 -3 0.2 -1.6 -2.5 1.8 -5.4 5.2 -5.5 6.4 0 1.3 2.8 -1.3 5.3 -4.8z m6.6 1.5 c-1.3 -1.7 -2.7 -3.1 -3.1 -3.1 -1.1 0 -0.2 1.8 2.5 4.7 2.9 3.2 3.3 2 0.6 -1.6z m17.7 -6.3 c0.8 -1.6 1.2 -2.8 0.9 -2.8 -0.7 0 -4.5 6.3 -4.5 7.5 0 1.1 1.3 -0.6 3.6 -4.7z m-37.6 0.7 c0 -1.9 -9.8 -7.5 -13 -7.4 -2.4 0 -2.4 0.1 1.3 3.3 4.2 3.7 9.7 6.7 10.9 6 0.4 -0.3 0.8 -1.2 0.8 -1.9z m5.6 -6 c2.1 -3.2 1.2 -5.8 -3.7 -10.5 -2.8 -2.7 -3.4 -3.7 -2 -3.3 1.1 0.3 3.8 2.5 6 4.9 4.4 4.7 6.8 4.2 3.2 -0.7 -2.2 -3 -1.4 -4.1 0.9 -1.3 0.8 0.8 2.9 2.2 4.9 3 2 0.8 4.6 2.5 5.8 3.6 1.3 1.2 2.3 1.9 2.3 1.5 0 -3.2 -24 -16.4 -35 -19.2 -6.1 -1.6 -16 -3.4 -16 -3 0 0.1 3.3 1.8 7.3 3.8 7.8 4 17.2 10.5 16.3 11.4 -0.3 0.3 -3 -0.5 -6 -1.8 -3.1 -1.2 -5.9 -1.9 -6.3 -1.4 -0.5 0.4 -0.3 1 0.4 1.2 1.6 0.6 17.1 12.2 17.8 13.3 1 1.6 2.4 1.1 4.1 -1.5z m2.8 -22 c-4.1 -5 -3.9 -7.2 0.2 -3.4 2.3 2 2.5 2.1 1.6 0.4 -1.7 -3.4 -12.5 -13.1 -17.1 -15.5 -8.3 -4.2 -22.5 -7.1 -36.9 -7.5 -7.4 -0.2 -13.6 -0.6 -13.9 -0.8 -0.2 -0.3 2 -1.2 4.9 -2.1 5.3 -1.5 5.4 -1.6 9.1 -9.4 2 -4.3 3.7 -8.2 3.7 -8.7 0 -0.4 -2.8 1.9 -6.3 5.2 -3.4 3.3 -8 6.9 -10.2 8.1 -7.3 3.7 -9.8 8.4 -6.6 12.3 1.8 2.2 2.8 2.4 16.2 3.1 15.3 0.7 21.6 1.5 22.5 2.9 0.3 0.5 -1.8 0.9 -4.7 0.9 -6.9 0 -5.4 1.2 3.3 2.7 5.3 0.9 10.5 2.9 21.7 8.7 8 4.1 15 7.5 15.4 7.5 0.5 0.1 -0.8 -1.9 -2.9 -4.4z"/>
  <path d="M162.1 275.6 c-0.9 -1 -0.9 -1.6 -0.1 -2.1 1.6 -1 3.1 0.7 2.1 2.3 -0.6 1 -1 1 -2 -0.2z"/>
  <path d="M162.2 265.3 c0.2 -0.9 0.8 -1.8 1.5 -2 0.7 -0.3 0.9 0.3 0.6 1.6 -0.6 2.5 -2.6 2.8 -2.1 0.4z"/>
  <path d="M154.9 256.2 c1.4 -0.9 4.4 -3.6 6.8 -6 2.4 -2.3 4.3 -4 4.3 -3.7 0 2.3 -3.7 6.8 -7.3 9 -4.9 2.8 -7.5 3.3 -3.8 0.7z"/>
 </g>
 <g fill="#ffffff">
  <path d="M170.3 352.3 c4.8 -0.2 12.5 -0.2 17 0 4.5 0.1 0.6 0.3 -8.8 0.3 -9.3 0 -13 -0.2 -8.2 -0.3z"/>
  <path d="M153.8 351.3 c1.2 -0.2 3 -0.2 4 0 0.9 0.3 -0.1 0.5 -2.3 0.4 -2.2 0 -3 -0.2 -1.7 -0.4z"/>
  <path d="M200.8 351.3 c1.2 -0.2 3 -0.2 4 0 0.9 0.3 -0.1 0.5 -2.3 0.4 -2.2 0 -3 -0.2 -1.7 -0.4z"/>
  <path d="M162.7 343.3 c1.8 -0.2 5 -0.2 7 0 2.1 0.2 0.7 0.4 -3.2 0.4 -3.8 0 -5.5 -0.2 -3.8 -0.4z"/>
  <path d="M188.8 343.3 c1.8 -0.2 4.5 -0.2 6 0 1.5 0.2 0 0.4 -3.3 0.4 -3.3 0 -4.5 -0.2 -2.7 -0.4z"/>
  <path d="M152.3 342.3 c0.9 -0.2 2.5 -0.2 3.5 0 0.9 0.3 0.1 0.5 -1.8 0.5 -1.9 0 -2.7 -0.2 -1.7 -0.5z"/>
  <path d="M202.3 342.3 c0.9 -0.2 2.5 -0.2 3.5 0 0.9 0.3 0.1 0.5 -1.8 0.5 -1.9 0 -2.7 -0.2 -1.7 -0.5z"/>
  <path d="M174.3 338.3 c3.1 -0.2 8.3 -0.2 11.5 0 3.1 0.2 0.5 0.3 -5.8 0.3 -6.3 0 -8.9 -0.1 -5.7 -0.3z"/>
  <path d="M86.8 332.4 c-2.7 -1.3 -4.8 -2.7 -4.8 -2.9 0 -0.5 9.9 4.2 10.9 5.1 1.3 1.1 -2 0 -6.1 -2.2z"/>
  <path d="M178.9 322.3 c1.2 -2.4 3.1 -3.9 3.1 -2.5 0 0.5 -1 1.7 -2.1 2.8 -2.2 1.9 -2.2 1.9 -1 -0.3z"/>
  <path d="M82.8 320.4 c-3.8 -2 -3.6 -2.8 0.2 -0.9 1.7 0.9 3 1.8 3 2 0 0.7 -0.1 0.6 -3.2 -1.1z"/>
  <path d="M52.1 308.7 c-2.5 -2.8 -3.2 -4.1 -1.7 -2.7 2.6 2.3 7.1 8 6.4 8 -0.2 0 -2.3 -2.4 -4.7 -5.3z"/>
  <path d="M123.3 308.5 c0 -2.7 0.2 -3.8 0.4 -2.2 0.2 1.5 0.2 3.7 0 5 -0.2 1.2 -0.4 0 -0.4 -2.8z"/>
  <path d="M62 302.3 l-5.5 -5.8 5.8 5.5 c5.3 5 6.2 6 5.4 6 -0.1 0 -2.7 -2.6 -5.7 -5.7z"/>
  <path d="M182 306.7 c0 -0.2 0.9 -1.4 2 -2.7 2.1 -2.4 2.7 -4.6 1 -3.5 -0.5 0.3 -1 0.1 -1 -0.5 0 -0.7 0.6 -1 1.3 -0.7 1.7 0.5 1.5 3.8 -0.3 6 -1.3 1.5 -3 2.3 -3 1.4z"/>
  <path d="M292 300.5 c3.5 -3.6 6.7 -6.5 6.9 -6.5 0.3 0 -2.4 2.9 -5.9 6.5 -3.5 3.6 -6.7 6.5 -6.9 6.5 -0.3 0 2.4 -2.9 5.9 -6.5z"/>
  <path d="M295 303.5 c1.9 -1.9 3.6 -3.5 3.9 -3.5 0.3 0 -1 1.6 -2.9 3.5 -1.9 1.9 -3.6 3.5 -3.9 3.5 -0.3 0 1 -1.6 2.9 -3.5z"/>
  <path d="M301 306.7 c0 -0.2 1.5 -1.6 3.3 -3.3 l3.2 -2.9 -2.9 3.3 c-2.8 3 -3.6 3.7 -3.6 2.9z"/>
  <path d="M178.6 303.5 c-1.7 -1.3 -1.8 -1.7 -0.6 -2.8 1 -1 1.1 -0.9 0.5 0.2 -0.6 1 -0.4 1.3 0.6 0.9 1 -0.4 1.5 0.1 1.5 1.3 0 1.1 0 1.9 -0.1 1.9 0 0 -0.9 -0.7 -1.9 -1.5z"/>
  <path d="M237 296.5 c1.9 -1.9 3.6 -3.5 3.9 -3.5 0.3 0 -1 1.6 -2.9 3.5 -1.9 1.9 -3.6 3.5 -3.9 3.5 -0.3 0 1 -1.6 2.9 -3.5z"/>
  <path d="M160.5 291.1 c-0.6 -0.5 -1.9 -1.1 -3 -1.4 -1.9 -0.4 -1.9 -0.5 0.1 -0.6 1.2 0 2.7 0.6 3.4 1.4 1.4 1.6 1 2 -0.5 0.6z"/>
  <path d="M184.6 286.4 c-0.8 -2.1 -0.8 -2.4 0.5 -2.4 0.5 0 0.7 0.5 0.3 1.2 -0.5 0.8 0 0.9 1.5 0.5 1.8 -0.4 2 -0.3 1 0.9 -1.5 1.8 -2.5 1.8 -3.3 -0.2z"/>
  <path d="M163.3 284.3 c3.1 -0.5 3.1 -0.6 1.6 -3.6 -1.2 -2.2 -1.2 -2.2 0.9 -0.4 1.1 1.1 2.6 1.6 3.1 1.2 0.6 -0.3 1.6 -0.3 2.2 0.1 1.3 0.8 -5.6 3.4 -8.6 3.2 -1.2 0 -0.9 -0.3 0.8 -0.5z"/>
  <path d="M197.5 279.1 c-0.3 -0.6 0.5 -1.5 1.7 -2.2 1.3 -0.6 2 -0.8 1.6 -0.4 -0.4 0.5 -0.2 1.5 0.4 2.4 1 1.3 1 1.4 -0.2 0.4 -1.7 -1.5 -3.4 -1.7 -2.5 -0.3 0.3 0.6 0.4 1 0.1 1 -0.3 0 -0.7 -0.4 -1.1 -0.9z"/>
  <path d="M186.5 274 c-1.6 -2.6 3 -3.8 5.3 -1.4 0.8 0.9 0.8 1.4 -0.3 1.7 -0.7 0.3 -1.6 -0.1 -1.9 -0.9 -0.3 -0.8 -1 -1.4 -1.5 -1.4 -0.6 0 -0.8 0.7 -0.5 1.5 0.7 1.7 -0.1 2 -1.1 0.5z"/>
  <path d="M175.8 268.3 c1.2 -0.2 3 -0.2 4 0 0.9 0.3 -0.1 0.5 -2.3 0.4 -2.2 0 -3 -0.2 -1.7 -0.4z"/>
  <path d="M162.4 265.3 c0.2 -0.9 0.8 -1.9 1.4 -2.1 0.6 -0.2 0.8 0.5 0.5 1.7 -0.6 2.5 -2.2 2.8 -1.9 0.4z"/>
  <path d="M188.5 265.1 c-1 -0.9 -0.5 -6.2 0.5 -5.6 0.6 0.3 0.8 1.8 0.5 3.3 -0.4 2.3 -0.4 2.4 0.4 0.7 0.8 -1.6 1 -1.7 1 -0.3 0.1 0.9 1.1 1.9 2.4 2.1 1.3 0.3 0.9 0.4 -1.1 0.4 -1.8 -0.1 -3.5 -0.3 -3.7 -0.6z"/>
  <path d="M203.8 265.3 c0.6 -0.2 1.2 -1.3 1.2 -2.4 0 -1.6 0.2 -1.8 1.4 -0.7 1.1 1.1 1.1 1.5 -0.3 2.5 -0.9 0.7 -2 1.2 -2.6 1.2 -0.5 0 -0.4 -0.3 0.3 -0.6z"/>
  <path d="M118.6 263.1 c-0.3 -0.4 0.4 -1.7 1.5 -2.7 1.8 -1.6 1.9 -1.6 1.3 -0.1 -0.3 0.9 -1 1.7 -1.6 1.7 -0.5 0 -0.6 0.5 -0.3 1 0.3 0.6 0.4 1 0.1 1 -0.3 0 -0.7 -0.4 -1 -0.9z"/>
  <path d="M192.3 263.3 c0.4 -0.3 0.3 -1.1 -0.3 -1.7 -0.6 -0.8 -0.2 -1.2 1.3 -1.3 1.2 0 1.7 0.1 1 0.4 -0.7 0.2 -0.9 1.1 -0.6 1.9 0.3 0.8 -0.1 1.4 -0.8 1.4 -0.7 0 -0.9 -0.3 -0.6 -0.7z"/>
  <path d="M136.3 261.4 c0 -0.7 0.7 -1 1.4 -0.7 0.8 0.3 1.3 0.2 1.1 -0.3 -0.2 -0.5 0.1 -1 0.7 -1.2 0.5 -0.2 1.1 0.1 1.3 0.7 0.2 0.6 -0.1 1.1 -0.8 1.1 -0.6 0 -0.9 0.4 -0.6 0.8 0.2 0.4 -0.3 0.8 -1.3 0.8 -1 0 -1.8 -0.6 -1.8 -1.2z"/>
  <path d="M109.9 257.8 c2.4 -2.6 4.8 -4.5 5.3 -4.2 0.4 0.3 1.1 -0.1 1.4 -1 0.3 -0.8 1.3 -1.7 2.2 -2.1 1 -0.4 0.5 0.7 -1.2 2.4 -1.6 1.7 -3.2 2.8 -3.5 2.6 -0.2 -0.3 -2.3 1.2 -4.5 3.2 -4 3.7 -4 3.7 0.3 -0.9z"/>
  <path d="M98.7 258.3 c0.3 -1 1 -2.3 1.4 -2.9 0.5 -0.6 0.6 -1.4 0.2 -1.7 -0.3 -0.4 -0.1 -0.7 0.5 -0.7 1.5 0 1.6 1.7 0.2 2.5 -0.5 0.3 -1 1.1 -1 1.7 0 0.6 1 0.3 2.2 -0.8 2 -1.7 2.1 -1.7 0.9 -0.1 -0.8 1 -2.2 2.2 -3.2 2.8 -1.5 0.8 -1.7 0.6 -1.2 -0.8z"/>
  <path d="M127 256 c0.6 -1.1 2 -2.5 3.3 -3.1 l2.2 -1.1 -2.2 2.1 c-1.3 1.2 -2.3 2.6 -2.3 3.1 0 0.6 -0.5 1 -1 1 -0.7 0 -0.7 -0.6 0 -2z"/>
  <path d="M197.8 253.6 c-2.2 -1.6 -2.3 -3.6 -0.3 -3.6 0.9 0 1.5 0.9 1.5 2.1 0 1.5 0.5 1.9 1.6 1.5 0.8 -0.3 1.2 -0.2 0.9 0.4 -0.8 1.3 -1.6 1.2 -3.7 -0.4z"/>
  <path d="M231.2 247 c0 -1.9 0.2 -2.7 0.5 -1.7 0.2 0.9 0.2 2.5 0 3.5 -0.3 0.9 -0.5 0.1 -0.5 -1.8z"/>
  <path d="M55.5 239 c2.7 -2.7 5.1 -5 5.4 -5 0.8 0 -8.4 9.8 -9.4 9.9 -0.5 0.1 1.3 -2.1 4 -4.9z"/>
  <path d="M180 241.8 c0 -0.6 0.3 -0.8 0.7 -0.5 0.3 0.4 1.2 0.2 1.9 -0.4 0.8 -0.7 1.4 -0.6 2 0.2 0.4 0.8 0.3 0.9 -0.4 0.5 -0.7 -0.4 -1.2 -0.2 -1.2 0.3 0 0.6 -0.7 1.1 -1.5 1.1 -0.8 0 -1.5 -0.5 -1.5 -1.2z"/>
  <path d="M265 236.5 c1.9 -1.9 3.6 -3.5 3.9 -3.5 0.3 0 -1 1.6 -2.9 3.5 -1.9 1.9 -3.6 3.5 -3.9 3.5 -0.3 0 1 -1.6 2.9 -3.5z"/>
  <path d="M185.3 234.5 c0 -2.2 0.2 -3 0.4 -1.7 0.2 1.2 0.2 3 0 4 -0.3 0.9 -0.5 -0.1 -0.4 -2.3z"/>
  <path d="M142.7 234.4 c-0.4 -0.4 -0.7 -1.4 -0.7 -2.3 0 -1.1 0.3 -1.2 1.1 -0.4 0.6 0.6 1 1.6 0.7 2.3 -0.2 0.6 -0.7 0.8 -1.1 0.4z"/>
  <path d="M238 228.6 c0 -1.4 0.4 -2.7 0.8 -3 0.5 -0.3 0.6 0.8 0.4 2.5 -0.5 3.5 -1.2 3.8 -1.2 0.5z"/>
  <path d="M130.2 227.5 c-0.6 -1.4 -0.8 -3.3 -0.5 -4.2 0.5 -1.3 0.9 -0.7 1.4 2.2 0.8 4.8 0.6 5.3 -0.9 2z"/>
  <path d="M141 228.8 c0 -0.7 -0.3 -2.4 -0.7 -3.7 -0.3 -1.4 -0.2 -2.2 0.3 -1.8 1 0.6 1.8 6.7 0.9 6.7 -0.3 0 -0.5 -0.6 -0.5 -1.2z"/>
  <path d="M142.1 221.9 c0 -0.8 0.6 -2.4 1.4 -3.5 1.3 -1.8 1.4 -1.7 1.4 1.6 0 2.8 -0.2 3.1 -0.8 1.5 l-0.8 -2 -0.5 2 c-0.4 1.3 -0.6 1.4 -0.7 0.4z"/>
  <path d="M185.4 221.6 c-0.3 -0.8 -0.4 -2.3 -0.2 -3.3 0.3 -1.1 0.6 -0.6 0.9 1.5 0.6 3.4 0.2 4.2 -0.7 1.8z"/>
  <path d="M76 212.5 c1.9 -1.9 3.6 -3.5 3.9 -3.5 0.3 0 -1 1.6 -2.9 3.5 -1.9 1.9 -3.6 3.5 -3.9 3.5 -0.3 0 1 -1.6 2.9 -3.5z"/>
  <path d="M203 205.5 c-2.4 -2.5 -4.2 -4.5 -3.9 -4.5 0.3 0 2.5 2 4.9 4.5 2.4 2.5 4.2 4.5 3.9 4.5 -0.3 0 -2.5 -2 -4.9 -4.5z"/>
  <path d="M131 208 c0 -0.8 0.5 -2.2 1 -3 0.9 -1.3 1 -1.3 1 0 0 0.8 -0.5 2.2 -1 3 -0.9 1.3 -1 1.3 -1 0z"/>
  <path d="M219.3 207.9 c-0.6 -0.6 -0.9 -1.8 -0.6 -2.7 0.5 -1.1 0.3 -1.3 -0.7 -0.7 -0.9 0.5 -1.1 0.4 -0.6 -0.3 1.1 -1.8 2.8 -1.4 2.4 0.6 -0.1 0.9 0.1 2.3 0.5 3 1 1.5 0.5 1.6 -1 0.1z"/>
  <path d="M133.6 202.5 c-0.3 -0.8 -0.1 -1.5 0.5 -1.5 0.6 0 0.8 -0.4 0.5 -0.9 -0.3 -0.5 0.1 -1.4 0.8 -2 1.2 -1 1.3 -0.8 0.9 1.1 l-0.6 2.3 2.4 -2 c1.7 -1.4 1.6 -1.1 -0.5 1.3 -3.5 3.7 -3.2 3.6 -4 1.7z"/>
  <path d="M206.9 201.4 c-1.6 -1.6 -1.4 -6.8 0.2 -5.8 0.5 0.3 0.5 1.4 -0.1 2.5 -0.6 1.1 -0.7 1.9 -0.1 1.9 0.5 0 1.1 0.7 1.5 1.5 0.7 1.9 0.4 1.9 -1.5 -0.1z"/>
  <path d="M214.9 201.3 c-0.7 -1 -0.9 -1.5 -0.5 -1.1 0.5 0.4 1.5 0.3 2.2 -0.3 0.9 -0.8 1.1 -0.5 0.7 1 -0.6 2.5 -0.7 2.5 -2.4 0.4z"/>
  <path d="M38.4 199.1 c0 -2.1 0.7 -3.6 1.6 -3.8 1 -0.3 1.1 -0.2 0.3 0.4 -0.6 0.4 -1.3 2.2 -1.6 3.8 -0.4 2.7 -0.5 2.7 -0.3 -0.4z"/>
  <path d="M9.3 195 c0 -2.5 0.2 -3.5 0.4 -2.2 0.2 1.2 0.2 3.2 0 4.5 -0.2 1.2 -0.4 0.2 -0.4 -2.3z"/>
  <path d="M156 197.7 c0 -0.2 1.5 -1.6 3.3 -3.3 l3.2 -2.9 -2.9 3.3 c-2.8 3 -3.6 3.7 -3.6 2.9z"/>
  <path d="M194.1 195.1 c-1.3 -1.8 -1.8 -3.6 -1.4 -4.7 0.4 -1.2 0.3 -1.5 -0.5 -1 -0.7 0.4 -1.2 0.3 -1.2 -0.2 0 -0.6 0.7 -1.2 1.5 -1.6 1 -0.4 1.5 0.1 1.5 1.4 0 1.1 0.5 2 1.1 2 0.6 0 0.9 0.6 0.6 1.3 -0.2 0.6 0 2 0.5 3 1.6 3.1 0.1 3 -2.1 -0.2z"/>
  <path d="M245.9 196.1 c0.9 -0.6 1.1 -1.6 0.7 -2.7 -0.6 -1.5 -0.4 -1.6 0.5 -0.7 1.4 1.4 0.5 4.3 -1.3 4.3 -1 0 -0.9 -0.3 0.1 -0.9z"/>
  <path d="M340.3 191.5 c0 -3.3 0.2 -4.5 0.4 -2.7 0.2 1.8 0.2 4.5 0 6 -0.2 1.5 -0.4 0 -0.4 -3.3z"/>
  <path d="M344.3 191.5 c0 -3.3 0.2 -4.5 0.4 -2.7 0.2 1.8 0.2 4.5 0 6 -0.2 1.5 -0.4 0 -0.4 -3.3z"/>
  <path d="M1.3 190 c0 -3.6 0.2 -5 0.4 -3.2 0.2 1.7 0.2 4.7 0 6.5 -0.2 1.7 -0.4 0.3 -0.4 -3.3z"/>
  <path d="M352.4 183 c0 -6.3 0.1 -8.9 0.3 -5.7 0.2 3.1 0.2 8.3 0 11.5 -0.2 3.1 -0.3 0.5 -0.3 -5.8z"/>
  <path d="M171.3 187 c0 -2.5 0.2 -3.5 0.4 -2.2 0.2 1.2 0.2 3.2 0 4.5 -0.2 1.2 -0.4 0.2 -0.4 -2.3z"/>
  <path d="M205.6 186.4 c0.1 -0.6 -0.3 -1.8 -0.9 -2.5 -0.7 -0.7 -0.2 -0.5 1.1 0.5 2.2 1.9 3 3.2 1.3 2.2 -0.5 -0.4 -1.1 -0.3 -1.4 0.1 -0.2 0.5 -0.3 0.3 -0.1 -0.3z"/>
  <path d="M244.9 186.7 c0.5 -0.5 2.4 -0.7 4.2 -0.5 3.3 0.3 3.3 0.4 -0.8 0.8 -2.3 0.3 -3.9 0.2 -3.4 -0.3z"/>
  <path d="M141 181.8 c4.1 -4.5 5 -5.3 5 -4.5 0 0.2 -2.1 2.3 -4.7 4.7 l-4.8 4.5 4.5 -4.7z"/>
  <path d="M163.1 181.8 c-0.1 -3.2 0.3 -4.8 1.2 -4.8 0.8 0 0.7 -0.3 -0.3 -1 -1.1 -0.7 -1.2 -1.2 -0.4 -2 0.9 -0.9 1.6 0.1 2.8 3.6 1.9 5.6 1.9 5.7 0.6 4.9 -0.5 -0.3 -1 -1.6 -1 -2.7 0 -3.1 -1.2 -1.4 -2 2.9 l-0.8 3.8 -0.1 -4.7z"/>
  <path d="M81.4 181.3 c0.2 -1 0.6 -1.7 1 -1.6 1.5 0.3 1.6 1.1 0.2 2.2 -1.2 1 -1.4 0.9 -1.2 -0.6z"/>
  <path d="M195.3 180.4 c-0.9 -2 -0.9 -3.3 0.2 -6.2 l1.3 -3.7 0 6.3 c-0.1 3.4 -0.1 6.2 -0.2 6.2 -0.1 0 -0.6 -1.2 -1.3 -2.6z"/>
  <path d="M1.3 177 c0 -3 0.2 -4.3 0.4 -2.7 0.2 1.5 0.2 3.9 0 5.5 -0.2 1.5 -0.4 0.2 -0.4 -2.8z"/>
  <path d="M340.3 175.5 c0 -3.3 0.2 -4.5 0.4 -2.7 0.2 1.8 0.2 4.5 0 6 -0.2 1.5 -0.4 0 -0.4 -3.3z"/>
  <path d="M344.3 176 c0 -3 0.2 -4.3 0.4 -2.7 0.2 1.5 0.2 3.9 0 5.5 -0.2 1.5 -0.4 0.2 -0.4 -2.8z"/>
  <path d="M9.3 173 c0 -2.5 0.2 -3.5 0.4 -2.2 0.2 1.2 0.2 3.2 0 4.5 -0.2 1.2 -0.4 0.2 -0.4 -2.3z"/>
  <path d="M13.3 171.5 c0 -2.2 0.2 -3 0.4 -1.7 0.2 1.2 0.2 3 0 4 -0.3 0.9 -0.5 -0.1 -0.4 -2.3z"/>
  <path d="M83.6 174.2 c-0.3 -0.5 0.4 -1.8 1.7 -2.8 2.1 -1.9 2.1 -1.9 0.7 0 -0.8 1.1 -1.3 2.1 -1.2 2.3 0.2 0.3 0.1 0.7 -0.1 0.9 -0.3 0.3 -0.8 0.1 -1.1 -0.4z"/>
  <path d="M161.7 169.3 c-0.7 -3.9 -0.1 -4 1.1 -0.4 0.6 1.7 0.7 3.1 0.3 3.1 -0.5 0 -1.1 -1.2 -1.4 -2.7z"/>
  <path d="M27 168.7 c0 -0.2 1.5 -1.6 3.3 -3.3 l3.2 -2.9 -2.9 3.3 c-2.8 3 -3.6 3.7 -3.6 2.9z"/>
  <path d="M100.5 167 c-0.7 -1.2 0.2 -1.2 3 0 1.9 0.8 1.9 0.9 -0.2 0.9 -1.2 0.1 -2.5 -0.3 -2.8 -0.9z"/>
  <path d="M207 166.6 c0 -0.8 0.5 -1.8 1 -2.1 0.6 -0.3 1 0.3 1 1.4 0 1.2 -0.4 2.1 -1 2.1 -0.5 0 -1 -0.6 -1 -1.4z"/>
  <path d="M210.2 165 c0 -1.9 0.2 -2.7 0.5 -1.7 0.2 0.9 0.2 2.5 0 3.5 -0.3 0.9 -0.5 0.1 -0.5 -1.8z"/>
  <path d="M81.3 164.4 c-1.2 -2.6 -1.2 -2.6 0.7 -0.9 2 1.8 2.6 3.5 1.3 3.5 -0.5 0 -1.3 -1.2 -2 -2.6z"/>
  <path d="M279.3 162.1 c0.6 -1.7 1.4 -2.8 1.9 -2.5 0.4 0.3 0.1 1.6 -0.8 3 -2.1 3.2 -2.5 3 -1.1 -0.5z"/>
  <path d="M128 159.5 c1.9 -1.9 3.6 -3.5 3.9 -3.5 0.3 0 -1 1.6 -2.9 3.5 -1.9 1.9 -3.6 3.5 -3.9 3.5 -0.3 0 1 -1.6 2.9 -3.5z"/>
  <path d="M67.5 158.9 c-0.4 -0.6 -0.5 -1.3 -0.2 -1.6 0.7 -0.7 2.7 0.6 2.7 1.8 0 1.2 -1.7 1.2 -2.5 -0.2z"/>
  <path d="M21.3 154 c0 -2.5 0.2 -3.5 0.4 -2.2 0.2 1.2 0.2 3.2 0 4.5 -0.2 1.2 -0.4 0.2 -0.4 -2.3z"/>
  <path d="M209.3 150 c0 -4.7 0.2 -6.6 0.4 -4.2 0.2 2.3 0.2 6.1 0 8.5 -0.2 2.3 -0.4 0.4 -0.4 -4.3z"/>
  <path d="M68.2 152 c0 -1.9 0.2 -2.7 0.5 -1.7 0.2 0.9 0.2 2.5 0 3.5 -0.3 0.9 -0.5 0.1 -0.5 -1.8z"/>
  <path d="M104 146.8 c2.4 -2.7 4.5 -4.8 4.7 -4.8 0.8 0 0 0.9 -4.4 5 l-4.8 4.5 4.5 -4.7z"/>
  <path d="M69.4 145.6 c-0.3 -0.8 -0.1 -2.3 0.5 -3.3 0.9 -1.5 1 -1.3 1.1 1.5 0 3.4 -0.7 4.2 -1.6 1.8z"/>
  <path d="M137 144 c1.2 -1.6 2.4 -3 2.6 -3 0.3 0 -0.4 1.4 -1.6 3 -1.2 1.7 -2.4 3 -2.6 3 -0.3 0 0.4 -1.3 1.6 -3z"/>
  <path d="M279 145.3 c0 -1.3 0.5 -2.3 1 -2.3 1.3 0 1.3 1.1 0 3 -0.8 1.2 -1 1.1 -1 -0.7z"/>
  <path d="M178.5 144.3 c-1.6 -1.3 -1.7 -1.5 -0.2 -1 1.1 0.4 1.7 0.1 1.7 -0.8 0 -2 -1.9 -1.9 -4.4 0.2 -1.2 1 -0.8 0.3 0.8 -1.5 3.3 -3.6 4.9 -3 4.4 1.6 -0.3 2.9 -0.4 3 -2.3 1.5z"/>
  <path d="M73.3 140.5 c0 -2.2 0.2 -3 0.4 -1.7 0.2 1.2 0.2 3 0 4 -0.3 0.9 -0.5 -0.1 -0.4 -2.3z"/>
  <path d="M188 142.4 c0 -1 0.5 -2.6 1 -3.4 0.8 -1.1 0.9 -0.7 0.4 1.5 -0.8 3.7 -1.4 4.5 -1.4 1.9z"/>
  <path d="M161 138.5 c-1.3 -1.4 -2.2 -2.7 -1.9 -2.9 0.2 -0.2 1.4 1 2.7 2.5 2.9 3.6 2.4 3.8 -0.8 0.4z"/>
  <path d="M277.5 140 c-0.3 -0.5 -0.1 -1.8 0.5 -2.7 0.9 -1.5 1 -1.4 0.4 0.6 -0.4 1.6 -0.3 2.1 0.5 1.7 0.6 -0.4 1.1 -0.2 1.1 0.3 0 1.4 -1.7 1.4 -2.5 0.1z"/>
  <path d="M216 137.5 c0 -1.4 0.2 -2.5 0.4 -2.5 0.2 0 0.6 1.1 0.8 2.5 0.3 1.4 0.1 2.5 -0.3 2.5 -0.5 0 -0.9 -1.1 -0.9 -2.5z"/>
  <path d="M262.3 135.5 c0 -2.7 0.2 -3.8 0.4 -2.2 0.2 1.5 0.2 3.7 0 5 -0.2 1.2 -0.4 0 -0.4 -2.8z"/>
  <path d="M145.1 134.2 c-0.7 -1.4 -0.4 -2.8 1.5 -5.8 1.4 -2.1 2.2 -3 1.9 -1.9 -0.4 1.1 -1 2.8 -1.2 3.8 -0.3 0.9 -0.9 1.7 -1.5 1.7 -0.5 0 -0.4 0.9 0.2 2 0.6 1.1 0.8 2 0.6 2 -0.3 0 -1 -0.8 -1.5 -1.8z"/>
  <path d="M208 131.4 c0 -2.1 -0.4 -3.3 -1 -2.9 -1.5 0.9 -1.2 -0.1 0.3 -1.3 1.1 -0.9 1.4 -0.2 1.6 3.3 0.1 2.5 -0.1 4.5 -0.4 4.5 -0.3 0 -0.5 -1.6 -0.5 -3.6z"/>
  <path d="M184 129.9 c-1.3 -0.9 -1.2 -1 0.3 -0.5 1.1 0.3 1.7 0 1.7 -1 0 -1 -0.6 -1.4 -1.5 -1.1 -0.8 0.4 -1.7 0.1 -2.1 -0.5 -0.4 -0.7 -0.3 -0.8 0.4 -0.4 0.8 0.5 1.2 -0.4 1.2 -2.8 0 -1.9 0.5 -3.8 1 -4.1 0.6 -0.4 1 1 1 3.4 0 2.1 0.5 4.1 1 4.3 0.7 0.2 0.6 0.9 -0.2 2 -1 1.3 -1.7 1.5 -2.8 0.7z"/>
  <path d="M176.3 118.5 c-0.6 -1.4 -0.7 -2.3 -0.2 -1.9 1.3 0.8 3.1 4.4 2.2 4.4 -0.4 0 -1.3 -1.1 -2 -2.5z"/>
  <path d="M82 112.5 c3 -3 5.7 -5.5 5.9 -5.5 0.3 0 -1.9 2.5 -4.9 5.5 -3 3 -5.7 5.5 -5.9 5.5 -0.3 0 1.9 -2.5 4.9 -5.5z"/>
  <path d="M193.4 116.1 c1.3 -1.5 1.4 -2 0.4 -2.4 -0.7 -0.3 -0.2 -0.6 1.1 -0.6 l2.4 -0.1 -2.3 2.5 c-2.7 2.9 -4.2 3.4 -1.6 0.6z"/>
  <path d="M206.5 114 c-1 -1.1 -1.5 -2 -1.1 -2 1.1 0 3.9 3 3.4 3.6 -0.3 0.2 -1.3 -0.5 -2.3 -1.6z"/>
  <path d="M261.3 105.9 c0.1 -0.4 -0.7 -1.5 -1.8 -2.4 -2 -1.6 -2 -1.6 0.1 -0.6 3 1.4 4.8 3.8 2.9 3.8 -0.7 0 -1.3 -0.4 -1.2 -0.8z"/>
  <path d="M203 101.4 c0 -1.5 3.7 -6.1 4.3 -5.4 0.3 0.3 -0.6 1.9 -1.9 3.5 -1.3 1.7 -2.4 2.5 -2.4 1.9z"/>
  <path d="M213.2 99 c0 -1.9 0.2 -2.7 0.5 -1.7 0.2 0.9 0.2 2.5 0 3.5 -0.3 0.9 -0.5 0.1 -0.5 -1.8z"/>
  <path d="M177 95.8 c0 -0.6 0.3 -0.8 0.7 -0.5 0.3 0.4 1.6 -0.1 2.7 -1 2.1 -1.8 2.1 -1.8 0.2 0.5 -2.1 2.4 -3.6 2.9 -3.6 1z"/>
  <path d="M162.8 94.3 c-0.6 -0.7 -0.8 -1.6 -0.4 -2 0.3 -0.3 0.6 -0.1 0.6 0.6 0 0.7 0.4 1 0.9 0.7 0.5 -0.3 1.4 0 2 0.7 0.8 1 0.7 1.4 -0.4 1.4 -0.9 0 -2 -0.6 -2.7 -1.4z"/>
  <path d="M176.9 92.7 c3.5 -3.7 4.9 -4.7 3.4 -2.4 -0.4 0.6 -0.8 1.5 -0.8 2 0 0.4 -0.3 0.6 -0.6 0.5 -0.4 -0.2 -1.7 0.6 -3 1.7 -1.3 1.1 -0.8 0.3 1 -1.8z"/>
  <path d="M143.3 87 c0 -4.1 0.2 -5.8 0.4 -3.7 0.2 2 0.2 5.4 0 7.5 -0.2 2 -0.4 0.3 -0.4 -3.8z"/>
  <path d="M182.5 90 c-0.3 -0.5 -0.5 -1 -0.3 -1.1 1.9 -0.4 5.1 -0.9 4.7 -0.6 -0.2 0.1 -1.1 0.8 -2.1 1.5 -1.1 0.9 -1.8 1 -2.3 0.2z"/>
  <path d="M189.2 85.3 c-0.7 -0.2 -1.7 -1.4 -2.3 -2.6 -1.1 -2.1 -1 -2 1.5 0.2 1.4 1.4 2.6 2.6 2.6 2.8 0 0.3 0 0.3 -1.8 -0.4z"/>
  <path d="M169.9 81.3 l-2.4 -2.8 2.7 2.4 c2.4 2.1 3 2.2 4.5 1 1.6 -1.3 1.7 -1.2 0.4 0.4 -1.8 2.3 -2.3 2.2 -5.2 -1z"/>
  <path d="M190.5 77 c-2.3 -2.6 -3.1 -5.7 -1 -4 0.8 0.7 1.3 1.7 1.2 2.3 -0.1 0.7 0.3 1.1 0.9 1 0.6 -0.1 1.1 0.5 1.1 1.3 0 1.8 0 1.8 -2.2 -0.6z"/>
  <path d="M51 77.7 c0 -0.2 1.5 -1.6 3.3 -3.3 l3.2 -2.9 -2.9 3.3 c-2.8 3 -3.6 3.7 -3.6 2.9z"/>
  <path d="M180.2 72.5 c0.4 -0.4 -0.2 -1.5 -1.4 -2.5 -2 -1.6 -2 -1.7 -0.2 -2.4 1 -0.4 1.5 -0.4 1.1 0 -0.4 0.4 0 1.5 0.9 2.5 1.2 1.4 1.3 1.8 0.2 2.5 -0.7 0.4 -1 0.4 -0.6 -0.1z"/>
  <path d="M52 70.7 c0 -0.1 3.5 -3.6 7.8 -7.7 l7.7 -7.5 -7.5 7.8 c-6.9 7.1 -8 8.2 -8 7.4z"/>
  <path d="M163.3 70.3 c0.4 -0.3 0.1 -1.3 -0.5 -2.2 -0.8 -1 -0.4 -0.9 1 0.3 2.6 2.3 2.7 2.6 0.5 2.6 -0.9 0 -1.3 -0.3 -1 -0.7z"/>
  <path d="M294.5 63.8 l-7 -7.3 7.3 7 c6.7 6.4 7.7 7.5 6.9 7.5 -0.1 0 -3.4 -3.3 -7.2 -7.2z"/>
  <path d="M54 57.5 c3.5 -3.6 6.7 -6.5 6.9 -6.5 0.3 0 -2.4 2.9 -5.9 6.5 -3.5 3.6 -6.7 6.5 -6.9 6.5 -0.3 0 2.4 -2.9 5.9 -6.5z"/>
  <path d="M299 57.3 l-5.5 -5.8 5.8 5.5 c3.1 3 5.7 5.6 5.7 5.7 0 0.8 -1 -0.1 -6 -5.4z"/>
  <path d="M141.1 56 c-0.7 -0.4 0.1 -0.7 1.8 -0.8 1.7 0 3.1 0.1 3.1 0.3 0 0.7 -3.9 1.2 -4.9 0.5z"/>
  <path d="M173.9 48.3 l-3.4 -3.8 3.8 3.4 c2 1.9 3.7 3.6 3.7 3.8 0 0.8 -0.8 0 -4.1 -3.4z"/>
  <path d="M132.5 45 c0.3 -0.5 1.2 -1 2 -1 0.8 0 1.7 0.5 2 1 0.4 0.6 -0.5 1 -2 1 -1.5 0 -2.4 -0.4 -2 -1z"/>
  <path d="M142.8 42.8 c0.9 -0.9 1.5 -0.9 2.4 0 0.9 0.9 0.7 1.2 -1.2 1.2 -1.9 0 -2.1 -0.3 -1.2 -1.2z"/>
  <path d="M118.8 40.3 c2.8 -0.2 7.6 -0.2 10.5 0 2.8 0.2 0.5 0.3 -5.3 0.3 -5.8 0 -8.1 -0.1 -5.2 -0.3z"/>
  <path d="M183.3 40.3 c1.5 -0.2 3.7 -0.2 5 0 1.2 0.2 0 0.4 -2.8 0.4 -2.7 0 -3.8 -0.2 -2.2 -0.4z"/>
  <path d="M125 14.5 c1.9 -1.9 3.6 -3.5 3.9 -3.5 0.3 0 -1 1.6 -2.9 3.5 -1.9 1.9 -3.6 3.5 -3.9 3.5 -0.3 0 1 -1.6 2.9 -3.5z"/>
  <path d="M174.3 14.3 c1.5 -0.2 3.7 -0.2 5 0 1.2 0.2 0 0.4 -2.8 0.4 -2.7 0 -3.8 -0.2 -2.2 -0.4z"/>
 </g>
</svg>