<?xml version="1.0" standalone="no"?>
<!DOCTYPE svg PUBLIC "-//W3C//DTD SVG 20010904//EN"
 "http://www.w3.org/TR/2001/REC-SVG-20010904/DTD/svg10.dtd">
<svg version="1.0" xmlns="http://www.w3.org/2000/svg"
 width="323.000000pt" height="332.000000pt" viewBox="0 0 323.000000 332.000000"
 preserveAspectRatio="xMidYMid meet">
<metadata>
Created by potrace 1.16, written by Peter Selinger 2001-2019
</metadata>
<g transform="translate(0.000000,332.000000) scale(0.100000,-0.100000)"
fill="#000000" stroke="none">
<path d="M1004 3288 c-41 -44 -74 -93 -74 -110 0 -16 47 -62 73 -71 9 -4 55 1
102 10 83 16 84 16 142 -7 32 -13 83 -24 113 -25 51 -3 166 -28 200 -45 32
-15 13 -35 -58 -61 -92 -34 -102 -43 -102 -89 0 -20 -9 -63 -20 -95 -11 -32
-18 -60 -16 -62 2 -2 21 13 43 34 22 21 62 51 89 68 47 28 48 30 22 33 -30 4
-35 11 -16 30 9 9 7 12 -11 12 -40 0 -17 24 45 47 37 14 71 21 92 17 41 -6 41
3 -1 86 -27 55 -44 74 -115 127 -45 35 -93 65 -106 69 -15 3 -40 -5 -77 -27
-44 -25 -67 -32 -119 -34 -41 -2 -82 -10 -110 -24 -56 -26 -72 -26 -101 -2
-24 19 -24 19 -5 55 10 19 29 45 42 57 13 12 24 26 24 31 0 18 -28 6 -56 -24z"/>
<path d="M1790 3009 c0 -19 41 -69 56 -69 21 0 17 15 -12 49 -26 32 -44 40
-44 20z"/>
<path d="M1616 2868 c-2 -7 -9 -31 -15 -54 -25 -92 -89 -146 -188 -158 -45 -6
-52 -4 -47 9 11 28 -15 16 -31 -15 -21 -40 -19 -77 4 -90 29 -15 31 -13 29 23
-3 31 -2 32 39 35 85 6 174 -64 195 -153 9 -40 17 -55 28 -53 8 2 16 14 18 28
11 97 98 180 187 180 63 0 84 -12 65 -34 -16 -21 -5 -34 18 -20 26 17 27 51 1
65 -20 10 -21 12 -5 21 13 8 15 13 5 24 -17 20 -29 17 -29 -7 0 -20 -3 -21
-62 -15 -54 6 -68 13 -102 44 -45 43 -75 103 -76 150 0 22 -5 32 -15 32 -9 0
-17 -6 -19 -12z m39 -142 c15 -25 43 -53 62 -63 18 -9 33 -21 33 -25 0 -5 -15
-15 -32 -24 -31 -15 -78 -73 -78 -95 0 -24 -35 -2 -38 24 -2 19 -16 36 -48 58
-25 17 -44 35 -42 39 2 5 19 19 38 32 19 13 44 40 55 61 11 20 20 37 21 37 1
0 14 -20 29 -44z"/>
<path d="M1615 2670 c-7 -12 2 -30 16 -30 12 0 12 27 0 35 -5 3 -12 1 -16 -5z"/>
<path d="M1570 2650 c-8 -5 -11 -12 -8 -16 10 -9 38 3 38 16 0 12 -10 13 -30
0z"/>
<path d="M1670 2640 c0 -5 5 -10 10 -10 6 0 10 5 10 10 0 6 -4 10 -10 10 -5 0
-10 -4 -10 -10z"/>
<path d="M1616 2612 c-3 -6 -1 -14 5 -17 15 -10 25 3 12 16 -7 7 -13 7 -17 1z"/>
<path d="M1257 2819 c-122 -40 -222 -88 -324 -154 -100 -66 -95 -66 -192 22
-54 48 -81 64 -81 47 0 -4 15 -25 33 -48 19 -23 46 -60 61 -84 27 -43 27 -43
-64 -144 -199 -224 -306 -442 -348 -710 -18 -113 -18 -113 -56 -132 -64 -31
-178 -67 -234 -73 -68 -8 -69 -28 -1 -36 62 -8 115 -33 193 -91 33 -25 63 -43
67 -40 11 6 25 -24 33 -71 11 -67 66 -235 76 -235 5 0 17 17 26 37 14 34 14
43 0 88 -19 65 -46 197 -46 230 0 20 5 25 25 25 23 0 45 24 33 36 -3 2 -57 14
-119 26 -63 12 -116 24 -119 26 -16 12 101 49 188 60 41 5 57 11 57 22 0 8
-11 16 -25 18 -14 2 -29 7 -33 11 -4 5 -1 49 8 100 40 233 145 451 310 644 74
87 96 103 124 87 29 -15 31 -13 31 24 0 31 7 40 56 75 81 58 226 131 324 162
68 21 88 32 98 54 13 26 10 56 -5 54 -4 0 -48 -14 -96 -30z m-972 -1333 c33
-10 41 -17 43 -40 2 -15 1 -35 -2 -43 -5 -13 -11 -10 -33 12 -15 15 -47 38
-70 52 -73 43 -49 50 62 19z"/>
<path d="M1904 2818 c3 -13 6 -30 6 -39 0 -11 21 -23 65 -38 97 -31 204 -85
300 -149 84 -56 86 -58 80 -91 -7 -35 -3 -37 46 -17 22 9 129 -106 207 -223
109 -162 175 -327 206 -510 16 -95 13 -111 -19 -111 -29 0 -43 -19 -24 -31 8
-5 30 -9 49 -9 45 -1 182 -42 187 -55 2 -6 -48 -20 -114 -33 -65 -12 -121 -26
-126 -31 -14 -14 2 -31 29 -31 14 0 27 -6 30 -14 17 -44 -67 -336 -131 -452
-33 -62 -33 -62 -8 -85 24 -24 25 -24 40 -4 27 36 92 179 118 260 14 44 35
132 46 195 11 63 23 118 27 121 7 8 109 39 125 39 18 0 0 -20 -60 -64 -35 -25
-63 -53 -63 -61 0 -24 14 -18 79 35 65 51 151 90 201 90 19 0 30 5 30 14 0 9
-18 15 -52 19 -59 6 -159 37 -228 70 -42 21 -46 25 -53 72 -38 232 -90 388
-183 545 -65 110 -102 160 -192 252 -65 67 -65 67 -41 113 13 26 39 64 57 85
48 57 40 87 -9 34 -30 -33 -125 -104 -138 -104 -6 0 -43 22 -83 49 -94 63
-179 105 -296 147 -110 40 -116 41 -108 12z"/>
<path d="M1307 2464 c-10 -11 3 -24 24 -24 10 0 19 7 19 15 0 15 -31 21 -43 9z"/>
<path d="M1910 2456 c0 -11 9 -16 26 -16 31 0 28 23 -4 28 -15 2 -22 -2 -22
-12z"/>
<path d="M1241 2341 c-33 -35 -89 -78 -136 -105 -96 -56 -132 -82 -123 -91 4
-4 53 18 110 48 186 99 290 127 378 101 178 -52 157 -50 252 -21 117 37 173
35 282 -7 48 -19 124 -55 168 -80 44 -25 85 -46 89 -46 33 0 -24 45 -142 114
-25 14 -65 48 -88 76 -47 56 -95 76 -139 58 -25 -10 -26 -11 -7 -18 11 -5 28
-11 38 -14 36 -11 15 -26 -36 -26 -29 0 -87 -9 -128 -20 -94 -25 -156 -25
-244 0 -38 11 -80 20 -92 20 -16 0 -21 6 -20 20 1 14 9 20 27 20 24 1 24 1 6
15 -12 9 -42 15 -79 15 -60 0 -60 0 -116 -59z"/>
<path d="M1788 2270 c-34 -10 -115 -68 -122 -87 -11 -26 21 -24 80 8 50 26 67
30 109 26 28 -3 60 -8 73 -12 36 -12 26 12 -16 39 -45 28 -88 37 -124 26z"/>
<path d="M1351 2252 c-61 -30 -50 -40 46 -38 84 1 91 -1 138 -31 33 -21 53
-29 60 -22 15 15 -6 41 -65 77 -62 37 -123 42 -179 14z"/>
<path d="M1237 2173 c-2 -4 -17 -45 -32 -91 -34 -105 -95 -176 -193 -224 -59
-29 -76 -33 -149 -33 -96 0 -102 -11 -22 -38 83 -28 165 -20 216 21 23 18 43
32 46 32 16 0 -110 -164 -142 -185 -20 -13 -80 -35 -133 -49 -117 -31 -150
-44 -206 -85 -65 -48 -41 -54 45 -10 58 28 104 43 177 54 121 20 161 39 203
97 17 24 67 82 111 130 44 47 85 94 90 105 5 10 20 67 31 127 26 129 15 164
-19 59 -27 -86 -64 -154 -102 -190 -28 -26 -27 -23 11 36 46 72 99 227 83 243
-5 5 -12 6 -15 1z"/>
<path d="M2000 2139 c0 -49 15 -133 42 -238 10 -40 17 -75 15 -78 -8 -7 -48
97 -59 152 -6 30 -15 55 -19 55 -21 0 -1 -132 31 -203 10 -22 16 -46 13 -53
-6 -17 75 -150 146 -238 60 -75 164 -151 220 -162 45 -9 34 9 -22 38 -59 29
-156 132 -194 205 -18 33 -33 64 -33 69 0 4 15 -6 33 -23 57 -54 95 -67 198
-64 21 1 47 10 60 21 24 20 24 20 -36 14 -79 -8 -134 17 -205 92 -51 53 -116
172 -108 196 3 7 12 -3 22 -23 19 -41 62 -86 73 -76 4 4 -3 20 -15 35 -12 15
-32 42 -45 59 -12 18 -27 33 -34 33 -19 0 -25 17 -43 123 -17 106 -40 143 -40
66z"/>
<path d="M1852 2139 c-18 -16 -41 -29 -52 -29 -11 0 -20 -7 -20 -15 0 -19 -4
-19 -40 0 -29 15 -30 15 -30 -9 0 -27 70 -96 98 -96 44 0 101 79 102 141 0 38
-21 41 -58 8z"/>
<path d="M1359 2153 c-9 -64 47 -153 96 -153 30 0 95 55 95 81 0 16 -5 18 -27
13 -22 -6 -25 -4 -20 10 4 9 2 16 -3 16 -6 0 -10 -5 -10 -11 0 -16 -41 0 -71
27 -24 23 -58 32 -60 17z"/>
<path d="M1612 2138 c-5 -7 -15 -36 -20 -64 -6 -29 -21 -68 -33 -88 -21 -37
-20 -39 18 -37 12 1 28 -7 37 -21 16 -22 16 -22 32 0 8 12 26 22 40 22 29 0
31 14 4 47 -13 16 -20 41 -20 67 0 39 -21 86 -39 86 -5 0 -13 -6 -19 -12z"/>
<path d="M1462 1918 c-7 -7 -12 -18 -12 -26 0 -21 -51 -132 -61 -132 -11 0 7
56 31 97 11 20 18 38 14 42 -8 8 -74 -68 -74 -85 0 -7 -23 -39 -50 -71 -61
-70 -90 -143 -90 -222 0 -60 32 -185 51 -197 20 -12 21 5 5 52 -17 51 -22 169
-7 178 5 4 11 -22 14 -56 6 -84 54 -226 92 -274 32 -40 40 -26 15 27 -13 30
-20 66 -20 115 0 66 21 168 38 178 4 2 7 -46 7 -107 1 -100 4 -118 27 -169 27
-55 44 -76 55 -64 3 3 -2 26 -12 52 -26 68 -18 228 16 309 27 66 126 205 146
205 22 0 135 -143 169 -216 24 -48 36 -91 41 -137 6 -67 18 -87 28 -44 3 12 6
58 8 102 2 80 2 80 20 43 25 -54 23 -156 -4 -219 -24 -56 -18 -77 12 -39 29
38 57 120 68 202 10 73 10 73 7 -32 -3 -105 -3 -105 21 -52 33 72 35 183 4
262 -22 55 -148 236 -158 226 -3 -3 0 -19 6 -37 13 -39 15 -82 2 -75 -5 4 -12
28 -16 55 -7 50 -37 111 -55 111 -15 0 -12 -15 11 -60 27 -51 20 -61 -14 -21
-14 17 -27 26 -29 21 -2 -5 -22 -3 -48 6 -32 11 -50 13 -61 5 -12 -7 -28 -6
-54 2 -28 8 -41 8 -56 -1 -10 -7 -24 -12 -31 -12 -6 0 -20 -7 -30 -17 -26 -23
-32 -10 -14 26 26 49 18 79 -12 49z"/>
<path d="M1176 1765 c-44 -37 -73 -72 -90 -108 -30 -63 -52 -175 -37 -190 11
-11 21 9 40 79 12 47 69 138 129 207 42 48 51 67 33 67 -6 0 -39 -25 -75 -55z"/>
<path d="M1580 1628 c-79 -164 -86 -288 -24 -410 30 -59 30 -58 -2 -58 -15 0
-40 -14 -62 -35 -20 -19 -66 -59 -102 -88 -36 -29 -80 -73 -98 -98 -18 -24
-42 -54 -52 -65 -11 -12 -20 -26 -20 -31 0 -18 35 -41 65 -45 25 -2 31 1 33
20 3 21 5 21 25 7 38 -27 117 -16 117 16 0 24 -3 24 62 -6 29 -14 61 -25 71
-25 10 0 17 -8 17 -20 0 -30 43 -26 64 5 25 38 20 48 -43 77 -71 34 -107 61
-97 76 5 8 29 0 80 -28 40 -22 80 -40 88 -40 9 0 18 -9 21 -20 7 -27 42 -26
61 2 22 30 20 47 -6 76 -23 24 -23 24 14 9 33 -14 38 -14 52 2 23 25 20 39
-16 74 -70 66 -121 99 -167 107 -46 7 -46 7 -13 15 41 10 50 31 59 134 3 42 9
82 13 90 11 21 23 -74 15 -120 -8 -48 7 -52 26 -6 9 21 14 72 14 147 0 109 -2
119 -32 182 -37 78 -89 158 -104 158 -5 0 -32 -46 -59 -102z m70 -619 c43 -23
63 -38 46 -34 -39 8 -112 44 -127 61 -19 23 2 16 81 -27z"/>
<path d="M870 1694 c-64 -25 -136 -71 -126 -81 5 -6 182 64 204 80 6 5 12 13
12 18 0 14 -19 10 -90 -17z"/>
<path d="M2083 1570 c18 -83 61 -213 87 -265 48 -96 176 -242 196 -222 4 3
-15 30 -40 59 -54 61 -107 166 -135 268 -22 78 -46 123 -87 160 -27 25 -27 25
-21 0z"/>
<path d="M724 1461 c-42 -26 -112 -108 -161 -189 -43 -73 -113 -226 -113 -250
0 -24 24 -7 54 39 16 24 66 80 110 124 86 85 165 133 235 142 41 6 51 19 29
41 -25 25 6 32 77 17 70 -15 101 -13 91 4 -6 9 -203 74 -261 85 -20 4 -40 0
-61 -13z"/>
<path d="M1810 1323 c-1 -54 -7 -104 -16 -128 -27 -70 -27 -75 -10 -75 21 0
52 63 61 123 8 51 -11 167 -26 167 -5 0 -9 -39 -9 -87z"/>
<path d="M863 1179 c-81 -14 -180 -55 -250 -105 -88 -63 -189 -193 -163 -209
12 -8 29 4 120 80 121 102 311 183 468 200 40 5 62 11 59 19 -8 23 -134 32
-234 15z"/>
<path d="M1075 1070 c-152 -23 -237 -43 -300 -70 -79 -34 -205 -112 -205 -126
0 -18 4 -18 49 5 41 21 99 43 269 101 96 33 161 49 310 76 23 5 32 35 10 33
-7 0 -67 -9 -133 -19z"/>
<path d="M1876 945 c-9 -9 -16 -20 -16 -24 0 -13 24 -31 42 -31 28 0 34 29 11
52 -19 18 -21 18 -37 3z"/>
<path d="M1820 865 c-17 -20 -4 -35 31 -35 30 0 38 17 17 38 -16 16 -33 15
-48 -3z"/>
<path d="M1717 813 c-12 -11 -7 -43 6 -43 17 0 37 20 37 37 0 13 -32 18 -43 6z"/>
<path d="M1516 753 c-3 -3 -3 -16 0 -29 4 -15 -2 -36 -15 -57 -12 -19 -21 -41
-21 -50 0 -8 23 -63 50 -122 28 -59 50 -113 50 -120 0 -7 6 -18 14 -24 12 -10
16 -8 21 11 4 13 32 76 63 140 55 118 55 118 28 157 -20 28 -26 46 -21 61 6
18 3 21 -12 18 -28 -5 -28 -45 2 -83 26 -35 26 -35 -13 -117 -22 -46 -43 -93
-46 -105 -7 -23 -26 -32 -26 -12 0 6 -19 51 -42 100 -41 90 -41 90 -20 133 25
50 28 91 8 99 -8 3 -17 3 -20 0z"/>
<path d="M1740 700 c0 -5 13 -24 28 -42 55 -64 67 -149 31 -221 -12 -23 -56
-78 -99 -122 -42 -44 -80 -90 -84 -102 -9 -28 -23 -29 -31 -3 -4 11 -44 61
-90 110 -62 67 -87 102 -100 140 -25 75 -7 171 39 209 9 8 16 17 16 22 0 18
-22 8 -64 -26 -50 -41 -57 -42 -81 -15 -50 55 -208 68 -273 22 -55 -40 -36
-69 24 -37 37 19 58 19 122 0 63 -19 108 -55 99 -79 -6 -15 -10 -15 -43 -1
-21 8 -40 13 -43 10 -13 -14 20 -41 69 -55 51 -15 53 -17 64 -61 17 -65 45
-105 128 -184 78 -74 128 -155 128 -209 0 -34 15 -64 26 -54 3 4 10 28 15 55
14 74 44 121 143 223 89 92 97 105 121 198 4 12 14 22 23 22 32 1 102 39 102
56 0 12 -5 14 -17 9 -31 -13 -73 -18 -73 -8 0 14 40 48 76 67 53 26 107 30
147 11 38 -18 57 -14 57 11 0 25 -78 54 -146 54 -59 0 -102 -15 -170 -60 -20
-12 -26 -10 -72 28 -49 41 -72 52 -72 32z"/>
<path d="M1594 604 c-3 -11 -10 -29 -15 -42 -13 -33 -2 -44 27 -26 27 18 32
55 9 74 -12 10 -16 9 -21 -6z"/>
<path d="M2437 174 c-4 -4 -7 -45 -7 -91 0 -77 2 -83 20 -83 20 0 21 5 18 87
-3 79 -12 106 -31 87z"/>
</g>
</svg>
