<?xml version="1.0" standalone="no"?>
<!DOCTYPE svg PUBLIC "-//W3C//DTD SVG 20010904//EN"
 "http://www.w3.org/TR/2001/REC-SVG-20010904/DTD/svg10.dtd">
<svg version="1.0" xmlns="http://www.w3.org/2000/svg"
 width="435.000000pt" height="494.000000pt" viewBox="0 0 435.000000 494.000000"
 preserveAspectRatio="xMidYMid meet">
<metadata>
Created by potrace 1.16, written by Peter Selinger 2001-2019
</metadata>
<g transform="translate(0.000000,494.000000) scale(0.100000,-0.100000)"
fill="#000000" stroke="none">
<path d="M2113 4835 c-41 -42 -41 -44 -31 -85 14 -52 3 -64 -41 -49 -32 11
-35 10 -70 -28 -20 -22 -42 -42 -50 -44 -9 -3 5 -24 43 -62 56 -58 56 -58 85
-42 17 8 32 11 35 7 9 -14 10 -75 2 -118 -5 -31 -4 -44 8 -54 9 -7 16 -27 16
-45 0 -37 -18 -95 -30 -95 -18 0 -157 69 -169 84 -8 10 -21 14 -33 10 -10 -3
-30 1 -43 10 -16 10 -35 14 -55 9 -23 -4 -39 0 -60 15 -27 21 -28 21 -33 2 -6
-24 -37 -26 -78 -4 -17 8 -32 14 -33 12 -1 -2 -9 -29 -16 -62 -8 -32 -20 -60
-27 -62 -48 -15 -47 -13 -27 -35 13 -15 19 -36 19 -68 0 -25 5 -50 11 -56 6
-5 36 -46 67 -91 31 -44 64 -87 73 -95 17 -14 36 -53 39 -80 1 -9 12 -26 23
-37 12 -12 24 -34 28 -49 3 -16 10 -40 16 -54 5 -15 7 -42 3 -60 -8 -46 7 -64
80 -94 71 -28 75 -42 50 -150 -32 -141 -102 -222 -258 -300 -80 -41 -97 -46
-134 -40 -37 5 -49 2 -88 -25 -60 -41 -75 -66 -83 -142 -8 -70 -22 -80 -53
-38 -17 23 -18 28 -3 69 9 27 13 59 9 81 -9 55 -61 139 -101 162 -34 20 -34
20 -28 76 5 45 12 62 32 79 24 21 26 25 15 54 -7 18 -10 36 -7 40 3 5 26 9 52
10 101 2 132 32 64 62 -21 9 -78 58 -127 108 -100 102 -146 129 -220 128 -143
0 -230 -88 -245 -247 -5 -51 -14 -82 -28 -100 -70 -90 -76 -101 -63 -129 11
-24 10 -30 -6 -43 -63 -52 -94 -171 -59 -225 15 -23 16 -36 7 -92 -7 -43 -7
-112 0 -206 12 -175 8 -207 -48 -382 -50 -156 -64 -251 -60 -405 2 -105 2
-105 -40 -192 -49 -102 -111 -171 -171 -189 -35 -10 -45 -9 -73 7 -18 11 -43
39 -57 64 -21 40 -23 55 -19 125 6 104 29 163 126 317 101 160 134 226 176
351 52 159 68 273 68 497 1 167 -2 207 -21 283 -12 48 -31 106 -43 128 -11 23
-18 48 -14 57 4 11 -21 42 -85 104 -73 71 -100 90 -142 103 -90 26 -117 15
-55 -24 54 -33 115 -104 132 -151 9 -25 32 -62 52 -82 36 -37 36 -37 30 -175
-4 -89 -15 -182 -32 -263 -20 -97 -28 -171 -34 -330 -10 -246 -13 -257 -137
-471 -102 -176 -125 -243 -126 -354 -1 -99 26 -175 79 -227 46 -44 79 -58 141
-58 89 1 165 54 224 157 47 83 51 79 46 -43 -6 -118 -29 -200 -75 -262 -24
-32 -24 -32 0 -41 24 -9 24 -11 20 -103 -3 -51 -11 -124 -18 -163 -12 -67 -10
-114 11 -197 8 -34 -1 -35 -88 -12 -33 8 -63 13 -66 9 -3 -3 2 -21 11 -40 9
-20 17 -42 17 -49 0 -17 -70 -46 -111 -46 -49 0 -33 -29 38 -67 50 -28 80 -36
157 -45 53 -6 96 -14 96 -18 0 -4 -9 -15 -20 -25 -11 -10 -20 -22 -20 -28 0
-5 49 -7 123 -5 95 3 135 9 182 27 113 42 106 45 103 -44 -3 -70 -1 -78 20
-96 13 -10 43 -24 65 -30 59 -16 272 -7 319 14 37 16 37 16 40 94 3 91 -8 87
133 44 233 -71 444 -101 710 -101 266 0 487 32 725 105 123 38 114 41 120 -45
5 -75 5 -75 45 -95 34 -17 60 -20 180 -20 123 0 144 2 175 21 35 20 35 20 38
102 3 85 7 91 45 70 51 -27 165 -48 265 -48 56 0 102 3 102 6 0 3 -9 17 -20
31 -11 15 -19 27 -18 29 2 1 44 7 95 13 57 6 108 18 135 32 97 49 119 79 58
79 -38 0 -110 29 -110 44 0 6 9 28 19 49 10 20 15 39 11 42 -5 3 -38 -2 -75
-10 -93 -22 -105 -18 -72 21 15 18 40 60 56 95 16 35 45 80 65 98 20 19 36 44
36 56 0 12 -18 46 -41 76 -33 45 -69 109 -69 125 0 2 10 4 23 4 13 0 32 7 43
15 19 15 18 15 -6 36 -151 125 -180 165 -187 263 -3 35 -1 71 5 81 8 16 13 12
36 -33 72 -143 205 -206 321 -153 53 23 88 66 115 138 18 48 21 73 18 148 -6
113 -28 176 -109 307 -79 129 -143 265 -163 351 -46 186 -60 333 -61 615 0
274 0 274 37 303 25 20 42 46 53 79 12 37 30 61 73 98 31 27 67 54 80 61 12 6
22 17 22 23 0 16 -82 2 -129 -22 -54 -27 -191 -162 -191 -187 0 -11 -11 -45
-25 -74 -50 -111 -59 -175 -60 -424 0 -250 8 -312 64 -478 36 -105 76 -184
167 -328 104 -164 136 -236 142 -320 3 -51 0 -81 -12 -114 -19 -49 -76 -105
-107 -105 -81 0 -181 107 -230 244 -18 52 -18 65 -7 166 16 143 3 234 -56 411
-52 155 -55 193 -30 360 16 108 14 222 -8 324 -10 47 -40 112 -93 199 -23 39
-32 87 -37 210 -3 58 -2 60 27 69 32 10 65 35 65 48 0 4 -10 11 -22 14 -13 4
-47 25 -76 47 -73 55 -111 68 -189 68 -89 0 -133 -13 -183 -55 -22 -18 -64
-41 -93 -49 -70 -20 -147 -55 -147 -66 0 -5 19 -25 42 -44 35 -30 49 -36 89
-36 62 0 78 -7 72 -31 -3 -10 0 -19 6 -19 6 0 11 -13 11 -30 0 -30 5 -33 65
-42 17 -3 20 -12 23 -69 3 -66 3 -67 -32 -87 -21 -13 -57 -54 -92 -106 -55
-84 -57 -87 -39 -106 17 -19 17 -21 -20 -65 -49 -60 -81 -81 -99 -66 -7 6 -19
39 -26 74 -14 73 -28 103 -67 139 -31 29 -115 78 -134 78 -7 0 -54 20 -104 44
-103 50 -183 116 -222 184 -27 46 -67 202 -55 213 4 4 30 14 58 23 67 22 88
45 80 89 -8 42 19 133 50 170 13 16 24 35 24 42 0 8 10 31 22 52 27 46 146
205 160 214 7 4 7 13 0 24 -12 22 -5 51 19 86 20 28 16 39 -13 39 -10 0 -18 7
-18 18 0 9 -7 26 -15 36 -8 11 -15 32 -15 48 0 32 -8 34 -36 13 -25 -19 -58
-19 -74 0 -7 8 -18 15 -25 15 -7 0 -18 -7 -25 -15 -14 -17 -51 -20 -66 -5 -7
7 -16 4 -29 -10 -10 -11 -29 -20 -42 -20 -13 0 -34 -7 -46 -15 -12 -8 -56 -28
-97 -45 -70 -29 -76 -30 -87 -13 -18 24 -16 103 3 124 12 13 13 22 5 38 -13
23 -15 128 -2 135 4 3 21 0 38 -6 28 -10 32 -8 80 40 52 52 52 52 4 101 -33
33 -52 46 -62 41 -8 -4 -25 -11 -38 -15 -24 -7 -24 -7 -18 47 6 52 5 55 -28
87 -19 18 -35 37 -35 42 0 19 -26 4 -67 -36z m-209 -605 c17 -5 59 -15 94 -22
35 -7 67 -17 72 -23 5 -6 1 -35 -11 -70 -16 -49 -17 -62 -6 -70 21 -16 18 -81
-5 -101 -16 -16 -21 -16 -28 -4 -9 15 -14 49 -11 81 1 10 -13 20 -38 29 -22 7
-52 26 -67 41 -15 16 -31 29 -36 29 -4 0 -17 -18 -28 -40 -11 -22 -25 -40 -30
-40 -6 0 -10 -18 -10 -40 0 -29 -5 -43 -17 -47 -10 -4 -19 -1 -22 8 -2 7 -24
34 -47 58 -49 51 -60 83 -44 140 16 61 49 81 133 81 39 0 84 -4 101 -10z m746
-22 c11 -18 23 -48 26 -65 8 -42 -16 -104 -47 -120 -13 -6 -30 -22 -39 -33
-20 -27 -56 -23 -53 5 1 11 -9 34 -23 52 -13 17 -28 43 -34 57 -11 31 -30 26
-54 -14 -12 -21 -25 -30 -44 -30 -43 0 -52 -11 -45 -53 3 -21 10 -40 14 -43
11 -6 12 -44 2 -44 -5 1 -20 11 -35 23 -20 17 -29 37 -36 82 -6 33 -16 79 -22
102 -16 55 -8 73 30 73 28 0 96 14 150 31 14 4 62 8 108 8 82 1 82 1 102 -31z
m3 -235 c-7 -2 -21 -2 -30 0 -10 3 -4 5 12 5 17 0 24 -2 18 -5z m843 -401 c1
-11 12 -34 26 -50 36 -43 52 -110 45 -192 -6 -69 -26 -132 -27 -83 0 28 -10
53 -21 53 -25 0 1 -107 37 -150 23 -27 24 -31 9 -37 -24 -8 -44 6 -66 46 -10
18 -21 36 -24 39 -7 7 0 -40 11 -81 4 -11 -1 -19 -13 -23 -10 -4 -26 -16 -36
-28 -17 -21 -17 -21 -32 -1 -15 18 -16 18 -43 -15 -29 -34 -29 -34 -27 76 1
86 6 120 23 162 21 50 22 72 3 72 -4 0 -13 -11 -19 -24 -13 -29 -78 -52 -99
-35 -8 8 -10 17 -3 29 6 11 5 21 -3 29 -10 11 -4 12 29 6 26 -4 44 -2 49 4 10
17 -33 29 -128 36 -88 7 -88 7 -85 42 3 34 6 37 62 54 33 11 68 26 77 35 17
15 18 13 21 -23 3 -34 6 -38 32 -41 40 -5 76 6 76 22 0 8 10 17 23 20 21 6 21
7 4 20 -10 8 -43 17 -74 21 -83 10 -52 29 60 36 114 7 112 7 113 -19z m-1483
-65 c-1 -47 -34 -168 -52 -197 -18 -27 -24 0 -13 52 7 29 13 76 13 103 2 66
14 97 37 93 14 -3 17 -13 15 -51z m119 41 c8 -20 -36 -186 -71 -269 -58 -139
-180 -252 -311 -288 -52 -14 -132 -11 -137 5 -2 6 20 21 49 34 107 46 236 150
302 244 45 63 71 128 82 206 4 25 11 53 16 63 10 20 63 24 70 5z m150 -36 c16
-93 98 -232 186 -314 55 -52 168 -126 222 -148 59 -23 65 -31 40 -52 -48 -39
-165 -11 -268 64 -59 44 -122 119 -157 187 -30 61 -72 196 -81 261 -7 52 -7
52 22 48 25 -3 29 -8 36 -46z m90 18 c3 -14 11 -56 17 -95 18 -122 -12 -102
-65 43 -13 36 -21 69 -18 74 3 5 18 8 32 6 19 -2 29 -11 34 -28z m-177 -37
c18 -121 54 -213 149 -385 22 -41 39 -87 43 -118 6 -50 6 -50 -191 -50 -196 0
-196 0 -196 53 0 32 9 73 24 107 13 30 39 91 58 135 19 44 45 123 57 175 13
52 24 101 27 108 7 25 23 11 29 -25z m-1105 -69 c0 -8 -8 -14 -17 -14 -15 -1
-14 -4 6 -20 13 -11 29 -20 36 -20 20 0 40 31 37 56 -2 16 2 24 12 24 21 0 23
-7 27 -75 3 -48 1 -60 -11 -61 -30 -2 -32 -4 -20 -19 10 -12 9 -15 -7 -15 -29
0 -35 -11 -17 -31 19 -21 15 -53 -8 -57 -22 -4 -115 36 -121 53 -3 7 -3 49 0
95 6 80 7 83 37 95 34 14 46 12 46 -11z m-263 -298 c57 -28 92 -37 170 -44 86
-9 101 -8 122 6 13 10 30 22 38 27 11 8 24 0 53 -32 89 -100 81 -231 -16 -249
-48 -9 -114 -15 -154 -15 -19 0 -53 0 -76 0 -25 0 -46 7 -54 16 -8 9 -21 13
-37 9 -51 -13 -204 51 -248 104 -24 28 -27 39 -22 75 12 85 56 136 117 137 20
0 67 -15 107 -34z m193 15 c14 -27 13 -31 -9 -31 -23 0 -35 15 -27 35 8 21 23
19 36 -4z m2650 -111 c27 -53 25 -69 -12 -118 -35 -45 -58 -54 -58 -22 0 15
-7 20 -25 20 -16 0 -25 6 -25 15 0 19 -9 19 -30 0 -14 -13 -19 -13 -28 -3 -15
19 30 108 65 130 15 10 43 18 60 18 28 0 35 -6 53 -40z m-2146 -55 c19 -15 19
-15 -3 -15 -17 0 -22 -4 -17 -16 5 -14 1 -16 -23 -11 -37 8 -65 -23 -75 -82
-9 -56 -26 -62 -26 -9 0 53 25 102 65 127 37 24 54 25 79 6z m1355 -9 c40 -21
60 -57 77 -139 27 -129 77 -172 199 -171 39 0 94 4 123 8 38 7 60 5 77 -4 30
-16 44 -6 27 20 -10 16 -6 28 20 74 18 31 38 58 46 61 8 3 34 -4 58 -14 39
-18 44 -24 44 -52 0 -18 -3 -29 -7 -26 -7 7 -32 -22 -33 -37 0 -6 7 -1 15 10
8 10 15 16 15 12 0 -4 -21 -31 -46 -59 -26 -29 -53 -69 -61 -88 -9 -20 -20
-39 -27 -43 -21 -14 -150 -8 -201 10 -28 10 -97 44 -153 76 -78 44 -110 69
-133 102 -43 64 -52 133 -11 92 16 -16 16 7 1 66 -11 45 -47 76 -90 76 -21 0
-22 1 -4 20 22 24 28 24 64 6z m-45 -82 c8 -20 8 -748 0 -768 -5 -14 -43 -16
-324 -16 -240 0 -321 3 -326 12 -4 7 -7 75 -5 153 2 110 6 144 18 158 13 14
14 22 5 43 -29 63 -3 101 48 71 26 -16 28 -15 45 3 12 13 15 27 10 49 -9 40
-18 45 -60 30 -48 -18 -61 -4 -45 46 15 44 5 58 -40 58 -38 0 -59 -18 -42 -35
17 -17 15 -67 -4 -75 -8 -3 -27 0 -42 6 -22 11 -28 10 -39 -5 -15 -20 -17 -80
-4 -88 5 -3 25 1 45 9 20 9 41 13 46 10 15 -9 12 -58 -5 -82 -14 -21 -14 -24
5 -43 18 -18 20 -32 20 -157 0 -76 -4 -144 -8 -151 -7 -9 -79 -12 -328 -10
-319 3 -319 3 -322 261 -2 246 -1 260 18 287 12 17 32 30 47 32 61 7 71 123
15 175 -22 20 -24 26 -12 33 9 6 277 10 646 10 567 0 632 -2 638 -16z m-1314
-8 c0 -2 -7 -6 -15 -10 -8 -3 -15 -1 -15 4 0 6 7 10 15 10 8 0 15 -2 15 -4z
m-45 -56 c-3 -5 1 -10 9 -10 9 0 16 5 16 10 0 6 12 10 26 10 18 0 25 -4 21
-14 -3 -7 -1 -18 5 -24 6 -6 8 -25 4 -45 -5 -28 -12 -36 -35 -40 -18 -4 -36
-18 -47 -36 -17 -30 -58 -51 -95 -51 -30 0 -23 43 17 118 20 37 41 73 46 80
12 14 42 17 33 2z m1577 -255 c50 -30 116 -63 147 -72 31 -9 57 -18 59 -18 1
-1 9 -28 17 -59 8 -32 25 -80 37 -108 21 -50 21 -50 -4 -102 -14 -29 -53 -86
-86 -127 -130 -161 -222 -349 -222 -453 0 -47 5 -62 43 -117 54 -78 141 -240
157 -292 15 -46 6 -59 -84 -118 -47 -30 -71 -39 -104 -39 -55 0 -91 -19 -133
-70 -32 -37 -38 -40 -95 -44 -36 -2 -78 -13 -104 -26 -24 -12 -84 -31 -133
-41 -80 -16 -93 -22 -118 -52 -20 -24 -43 -38 -74 -46 -33 -8 -59 -25 -90 -56
-42 -44 -45 -45 -107 -45 -61 0 -65 2 -103 40 -25 26 -61 48 -98 62 -34 12
-67 33 -80 49 -18 23 -38 31 -112 48 -49 10 -115 31 -145 45 -30 14 -63 26
-73 26 -24 0 -56 17 -87 45 -17 15 -44 25 -84 29 -48 5 -70 15 -133 59 -75 52
-75 52 -69 104 10 83 49 176 116 279 81 122 85 152 40 285 -17 52 -60 154 -96
226 -77 159 -92 214 -68 251 15 23 19 24 83 18 36 -4 84 -9 107 -12 30 -4 44
-2 53 10 8 9 17 16 22 16 5 0 9 -114 9 -254 0 -282 10 -369 61 -521 66 -197
195 -371 382 -516 99 -77 247 -169 271 -169 22 0 168 88 262 158 43 32 111 92
150 133 135 141 208 260 258 419 49 154 56 238 56 681 0 406 0 406 33 417 17
5 35 10 40 11 4 1 49 -24 99 -54z m305 -417 c-3 -8 -6 -5 -6 6 -1 11 2 17 5
13 3 -3 4 -12 1 -19z m-2177 -147 c59 -100 141 -314 142 -373 1 -43 -5 -58
-54 -131 -67 -98 -91 -144 -111 -217 -40 -145 -37 -155 66 -227 71 -50 88 -57
138 -61 42 -3 63 -10 76 -25 18 -19 17 -20 -4 -8 -35 18 -48 13 -27 -10 19
-21 19 -21 -63 -18 -69 4 -85 8 -107 28 -19 18 -42 25 -93 31 -37 4 -73 3 -79
-1 -14 -11 -34 10 -34 37 0 12 9 33 20 47 18 22 18 26 4 38 -12 9 -14 22 -8
48 4 20 8 104 9 186 2 144 8 190 25 180 4 -2 10 -18 13 -35 4 -16 11 -30 17
-30 13 0 13 33 -2 65 -15 33 -6 41 25 20 40 -26 43 1 3 37 -41 39 -106 133
-106 155 0 9 14 2 42 -21 41 -35 71 -45 82 -27 4 5 -10 19 -29 31 -19 12 -51
41 -70 64 -29 36 -35 51 -35 90 0 33 4 46 14 46 8 0 16 -7 20 -15 7 -18 26
-20 26 -2 0 6 -7 25 -15 40 -11 22 -12 34 -3 50 22 44 50 77 63 77 8 0 33 -31
55 -69z m1654 -121 c-1 -151 -5 -190 -28 -282 -71 -295 -251 -520 -568 -709
-82 -48 -82 -48 -137 -17 -174 98 -352 255 -441 387 -132 197 -180 370 -180
654 0 147 0 147 678 145 677 -3 677 -3 676 -178z m393 -52 c1 -155 -2 -196
-14 -214 -8 -13 -16 -45 -18 -71 -1 -26 -6 -55 -9 -64 -10 -24 14 -36 29 -16
7 10 10 36 7 65 -3 37 0 51 14 62 16 14 17 13 11 -19 -6 -28 -2 -42 19 -72 22
-32 27 -52 33 -151 7 -93 13 -122 35 -166 40 -78 34 -91 -45 -111 -47 -12 -81
-29 -119 -59 -53 -42 -62 -46 -133 -56 -34 -4 -37 -3 -32 15 5 13 2 19 -10 19
-10 0 -15 7 -13 17 2 12 14 17 43 18 30 1 58 13 110 47 39 25 81 57 94 71 23
26 23 26 6 79 -25 76 -79 180 -142 276 -51 78 -55 88 -54 139 1 63 38 155 109
273 37 62 70 110 76 110 1 0 2 -86 3 -192z m-2331 -145 c-3 -26 -22 -99 -42
-162 -35 -113 -38 -117 -106 -186 -69 -70 -69 -70 -85 -47 -8 12 -19 22 -24
22 -16 0 -9 -30 11 -50 19 -19 19 -20 -20 -92 -50 -95 -100 -219 -100 -253 0
-36 22 -75 75 -135 24 -27 49 -60 56 -72 12 -23 12 -23 -12 -2 -19 17 -34 20
-72 16 -48 -4 -48 -4 -41 -36 6 -31 6 -31 -16 -11 -12 11 -27 33 -34 50 -19
45 -29 180 -15 206 6 12 13 67 16 123 6 138 14 158 81 212 82 66 156 162 247
323 44 77 82 141 84 141 2 0 1 -21 -3 -47z m2504 -125 c35 -147 111 -249 226
-305 65 -31 75 -40 121 -111 91 -139 99 -171 64 -240 -27 -52 -60 -79 -106
-88 -28 -5 -51 -19 -75 -45 -44 -48 -114 -65 -137 -33 -7 10 -23 19 -36 19
-12 0 -22 7 -23 15 0 8 -2 21 -2 27 -3 17 -75 53 -106 53 -14 0 -30 8 -35 18
-5 9 -36 31 -70 47 -33 17 -60 33 -61 37 0 4 21 23 46 42 31 24 60 37 92 41
106 13 120 42 72 152 -22 54 -30 88 -31 135 0 73 -11 139 -30 185 -13 32 -12
34 25 72 22 22 43 38 47 36 4 -3 13 -29 19 -57z m-2441 -1 c32 -40 33 -44 26
-101 -7 -64 -26 -120 -51 -147 -23 -25 3 -41 47 -29 18 6 35 10 36 10 7 0 2
-89 -6 -124 -5 -21 -6 -48 -2 -59 4 -11 2 -36 -5 -55 -18 -55 -2 -89 49 -104
60 -17 63 -23 18 -41 -22 -9 -45 -25 -50 -35 -7 -12 -25 -21 -51 -25 -59 -8
-90 -31 -90 -67 0 -27 -3 -30 -30 -30 -19 0 -30 -5 -30 -14 0 -24 -13 -26 -66
-12 -73 19 -87 29 -138 97 -57 76 -58 99 -10 211 57 134 103 208 175 285 65
69 70 78 101 178 18 58 35 105 38 104 3 0 20 -19 39 -42z m2906 -367 c11 -4
26 -25 34 -46 7 -22 31 -62 52 -91 46 -61 48 -77 14 -99 -14 -9 -42 -52 -64
-98 -47 -98 -94 -152 -139 -161 -32 -7 -33 -6 -21 14 20 30 3 37 -31 13 -16
-12 -33 -22 -37 -22 -4 0 3 7 15 16 25 18 29 44 6 44 -8 0 -12 5 -9 10 3 6 15
10 25 10 73 0 155 104 155 195 0 43 -8 62 -53 133 -28 46 -52 88 -52 93 0 9
68 2 105 -11z m-2530 -393 c55 -14 153 -38 218 -56 271 -72 534 -102 729 -83
174 16 287 37 488 89 318 83 452 99 558 68 76 -23 80 -34 83 -210 1 -82 -1
-149 -4 -147 -4 1 -30 14 -59 27 -82 38 -197 35 -375 -11 -76 -19 -190 -48
-253 -65 -188 -48 -328 -63 -570 -63 -256 1 -418 22 -641 84 -258 72 -314 82
-425 78 -90 -3 -105 -6 -143 -31 -41 -27 -41 -27 -41 96 0 163 7 215 33 228
64 35 247 32 402 -4z m-705 -112 c7 -9 8 -15 2 -15 -5 0 -12 7 -16 15 -3 8 -4
15 -2 15 2 0 9 -7 16 -15z m380 -286 c44 -50 96 -69 175 -63 62 5 98 -7 80
-25 -17 -17 -165 -33 -240 -26 -38 4 -82 13 -98 22 -26 13 -29 18 -24 50 6 36
41 83 61 83 6 0 26 -18 46 -41z m2371 2 c40 -41 39 -78 -3 -96 -55 -22 -142
-28 -231 -15 -46 6 -90 16 -98 21 -28 18 12 30 79 24 76 -7 137 16 173 64 28
39 43 39 80 2z"/>
<path d="M3173 3483 c-18 -6 -16 -33 1 -33 19 0 31 19 20 30 -5 4 -15 5 -21 3z"/>
<path d="M3192 2569 c3 -10 33 -16 99 -21 104 -8 130 -5 111 14 -7 7 -54 14
-113 16 -83 4 -101 2 -97 -9z"/>
<path d="M2479 2654 c-26 -14 -26 -14 -12 -59 9 -24 13 -51 10 -58 -6 -16 -73
-21 -82 -7 -12 19 -33 10 -45 -21 -10 -24 -10 -35 0 -55 12 -21 18 -24 44 -18
68 16 81 12 84 -27 2 -23 -2 -40 -12 -49 -9 -7 -16 -16 -16 -21 0 -9 48 -59
57 -59 3 0 17 12 30 27 23 24 24 29 13 63 -19 57 -11 76 30 72 18 -1 39 -7 46
-13 9 -7 18 -2 33 19 19 28 20 31 5 61 -12 24 -20 30 -33 25 -30 -13 -79 -16
-85 -5 -6 9 5 66 20 105 3 7 -3 16 -13 19 -10 2 -25 7 -33 10 -8 3 -27 -1 -41
-9z"/>
<path d="M1635 2621 c-6 -11 9 -23 19 -14 9 9 7 23 -3 23 -6 0 -12 -4 -16 -9z"/>
<path d="M1760 2420 c0 -19 3 -21 12 -12 9 9 9 15 0 24 -9 9 -12 7 -12 -12z"/>
<path d="M1777 2294 c-8 -8 1 -24 13 -24 4 0 10 7 14 15 5 15 -14 21 -27 9z"/>
<path d="M1474 2756 c-10 -8 -17 -17 -14 -20 10 -10 50 6 50 20 0 18 -11 18
-36 0z"/>
<path d="M1417 2703 c-4 -3 -7 -13 -7 -21 0 -18 13 -7 16 13 2 17 1 18 -9 8z"/>
<path d="M1800 1780 c-17 -33 -19 -47 -11 -76 12 -43 1 -49 -64 -41 -37 6 -46
3 -55 -13 -24 -45 -2 -105 31 -84 9 5 23 8 74 16 18 3 20 -3 20 -70 0 -64 -3
-76 -22 -92 -29 -23 -29 -30 1 -30 13 0 29 -7 36 -15 14 -17 40 -20 40 -5 0 5
11 12 25 16 14 3 25 7 25 8 0 1 -9 19 -20 41 -20 40 -28 139 -12 149 5 3 30
-2 57 -10 38 -11 50 -11 56 -2 6 9 13 7 28 -6 15 -13 24 -16 33 -9 7 6 30 13
51 17 37 7 37 7 37 -31 -1 -55 -17 -116 -34 -129 -23 -16 -20 -34 6 -34 12 0
29 -7 38 -15 16 -14 21 -14 56 6 22 13 41 24 43 26 2 1 -4 11 -13 22 -21 24
-40 140 -25 158 11 12 13 12 71 -18 18 -9 24 -8 38 10 16 22 16 22 34 2 12
-13 23 -18 30 -12 6 4 28 11 48 15 31 6 37 4 43 -14 11 -34 -6 -110 -31 -140
-26 -30 -25 -33 19 -44 15 -3 27 -11 27 -16 0 -15 36 -12 50 5 7 8 21 15 31
15 24 0 24 7 -1 55 -20 40 -28 129 -11 139 4 3 27 -2 51 -11 43 -17 43 -17 66
10 24 28 24 28 4 67 -23 45 -20 44 -72 28 -51 -15 -65 -3 -48 44 11 31 10 38
-11 71 -27 41 -45 47 -54 17 -3 -11 -13 -27 -22 -36 -13 -13 -14 -22 -5 -51 6
-20 9 -40 6 -45 -8 -12 -78 -10 -92 4 -8 8 -14 5 -23 -15 -15 -34 -27 -34 -39
-2 -8 22 -13 24 -29 15 -26 -13 -68 -13 -77 1 -3 6 -1 29 6 50 12 37 12 41
-10 64 -13 14 -31 25 -39 25 -26 0 -46 -41 -46 -95 0 -50 0 -50 -49 -47 -37 1
-52 -2 -62 -15 -13 -17 -15 -17 -24 -1 -8 12 -19 15 -49 11 -61 -8 -72 -1 -60
41 8 29 6 43 -11 76 -11 22 -25 40 -30 40 -5 0 -19 -18 -30 -40z"/>
<path d="M1552 669 c5 -37 -23 -150 -39 -156 -24 -9 -14 -29 21 -40 40 -12 49
-8 34 17 -13 20 -3 70 14 70 6 0 19 -7 29 -16 22 -20 39 -11 39 21 0 22 -3 24
-29 19 -35 -7 -44 6 -31 40 11 29 31 34 50 11 17 -21 40 -19 40 4 0 15 -11 22
-48 30 -26 5 -55 13 -65 17 -15 5 -18 2 -15 -17z"/>
<path d="M2651 666 c-48 -27 -64 -91 -36 -146 52 -100 189 -71 202 43 5 43 3
49 -30 82 -28 28 -43 35 -73 35 -22 -1 -50 -7 -63 -14z m84 -22 c20 -8 45 -56
45 -86 0 -78 -90 -92 -128 -21 -37 69 13 133 83 107z"/>
<path d="M1720 603 c-1 -58 -19 -125 -38 -139 -21 -16 -16 -20 32 -29 36 -7
38 -6 31 15 -9 29 13 146 31 161 20 16 8 29 -27 29 -27 0 -29 -3 -29 -37z"/>
<path d="M2470 631 c-49 -7 -49 -5 -30 -81 6 -25 10 -64 8 -87 -3 -43 -3 -43
42 -42 67 1 95 12 98 37 4 26 -19 30 -38 7 -7 -8 -23 -15 -35 -15 -18 0 -24 7
-27 30 -6 37 3 44 42 35 26 -6 30 -4 30 14 0 28 -18 36 -47 20 -20 -11 -26
-11 -33 1 -25 40 8 73 50 50 16 -9 22 -8 26 4 3 8 3 20 -1 26 -7 11 -13 11
-85 1z"/>
<path d="M1876 563 c-16 -32 -43 -75 -59 -96 -16 -21 -27 -40 -25 -42 2 -3 19
-8 37 -11 31 -6 32 -5 23 12 -15 28 3 54 37 54 37 0 59 -25 43 -50 -6 -10 -8
-21 -5 -24 9 -9 75 -7 71 2 -24 46 -41 94 -51 145 -17 82 -34 84 -71 10z m42
-41 c2 -14 -2 -22 -12 -22 -19 0 -28 14 -20 35 9 21 28 14 32 -13z"/>
<path d="M2050 602 c0 -4 4 -12 9 -17 11 -12 16 -142 6 -166 -5 -13 1 -18 30
-21 39 -5 58 9 31 24 -23 13 -22 68 2 68 10 0 23 -5 30 -12 17 -17 36 4 27 32
-5 15 -12 19 -23 15 -36 -15 -47 -10 -50 23 -3 28 0 32 20 32 13 0 29 -5 36
-12 16 -16 35 3 26 25 -5 14 -20 17 -75 17 -38 0 -69 -4 -69 -8z"/>
<path d="M2230 603 c0 -5 7 -17 15 -27 19 -25 21 -152 3 -159 -32 -11 5 -16
73 -9 71 7 74 8 77 35 4 33 0 33 -38 6 -16 -12 -35 -19 -43 -16 -19 7 -34 134
-18 150 20 20 12 27 -29 27 -22 0 -40 -3 -40 -7z"/>
</g>
</svg>
