<?xml version="1.0" standalone="no"?>
<!DOCTYPE svg PUBLIC "-//W3C//DTD SVG 20010904//EN"
 "http://www.w3.org/TR/2001/REC-SVG-20010904/DTD/svg10.dtd">
<svg version="1.0" xmlns="http://www.w3.org/2000/svg"
 width="462.000000pt" height="465.000000pt" viewBox="0 0 462.000000 465.000000"
 preserveAspectRatio="xMidYMid meet">
<metadata>
Created by potrace 1.16, written by Peter Selinger 2001-2019
</metadata>
<g transform="translate(0.000000,465.000000) scale(0.100000,-0.100000)"
fill="#000000" stroke="none">
<path d="M2300 4641 c0 -4 -18 -21 -41 -37 -41 -28 -41 -28 -34 -87 7 -59 7
-59 -46 -55 -54 3 -54 3 -57 -64 -3 -74 -7 -69 63 -72 26 -1 30 -5 33 -33 3
-30 1 -33 -23 -33 -38 0 -52 -37 -30 -83 9 -20 23 -38 31 -41 36 -14 -2 -92
-42 -84 -31 6 -40 34 -22 66 14 23 15 32 5 44 -15 19 -102 78 -116 78 -14 0
-49 -52 -65 -97 -8 -21 -18 -37 -22 -37 -5 1 -21 4 -35 8 -25 5 -27 3 -32 -42
-5 -41 -2 -50 21 -74 14 -15 33 -30 42 -33 29 -9 70 13 84 46 16 38 11 65 -17
84 -20 14 -20 15 -2 55 21 46 38 50 80 16 24 -20 28 -27 18 -37 -19 -19 -16
-53 8 -83 18 -23 27 -27 68 -24 44 3 47 5 71 50 24 46 24 46 -14 88 -40 45
-39 57 9 62 29 3 30 4 26 53 -5 72 -14 85 -61 85 -39 0 -40 1 -40 36 0 36 1
36 33 31 17 -4 43 -9 56 -13 24 -7 24 -7 18 68 -6 65 -4 78 12 92 23 21 44 20
70 -1 20 -17 20 -22 11 -82 -12 -73 -8 -100 14 -82 7 6 31 12 52 14 37 2 39 0
42 -30 3 -31 3 -32 -45 -35 -48 -3 -48 -3 -54 -53 -4 -27 -8 -57 -10 -65 -3
-10 4 -16 21 -17 14 0 31 -1 38 -2 20 -2 14 -20 -19 -61 -30 -37 -31 -41 -19
-72 22 -54 39 -68 86 -68 36 0 46 5 63 29 23 32 27 56 11 66 -20 12 -10 45 20
60 40 21 46 19 64 -17 21 -41 20 -55 -4 -68 -30 -16 -27 -74 6 -106 31 -32 67
-27 107 17 24 26 27 35 21 67 -9 51 -11 53 -41 41 -14 -5 -27 -8 -28 -7 -1 2
-17 33 -34 71 -18 37 -36 67 -41 67 -15 0 -130 -72 -130 -82 0 -5 7 -23 16
-40 15 -29 15 -32 -4 -51 -24 -23 -44 -18 -67 17 -16 25 -16 27 9 57 46 54 48
112 6 117 -34 5 -42 15 -35 45 6 23 11 25 48 24 42 -2 42 -2 45 71 3 74 3 74
-54 66 -62 -7 -59 -13 -38 81 4 16 -8 32 -45 63 -51 43 -61 49 -61 33z m-315
-592 c16 -16 -9 -44 -41 -44 -30 0 -42 21 -30 52 7 16 51 11 71 -8z m724 7
c16 -19 3 -45 -25 -52 -30 -8 -44 2 -44 31 0 17 7 25 23 28 12 2 25 5 28 6 4
0 12 -5 18 -13z"/>
<path d="M1703 4274 c-3 -8 -3 -44 0 -80 6 -64 6 -64 -28 -64 -19 0 -36 -3
-39 -8 -2 -4 1 -32 8 -61 14 -64 45 -93 77 -73 30 19 36 15 75 -48 20 -33 38
-60 40 -60 2 0 15 11 29 24 27 25 27 25 -4 40 -16 9 -44 36 -61 61 -17 25 -33
45 -36 45 -3 0 -18 -7 -34 -15 -27 -14 -30 -14 -40 4 -5 11 -10 29 -10 40 0
18 6 21 40 21 28 0 40 4 40 14 0 8 -4 18 -10 21 -5 3 -10 27 -10 52 0 44 1 45
27 38 40 -10 51 -22 46 -49 -7 -37 16 -42 28 -7 6 17 14 31 17 31 4 0 17 -16
30 -35 23 -37 42 -45 42 -20 0 16 -49 115 -56 115 -2 0 -13 -6 -24 -12 -16
-10 -28 -8 -75 15 -65 32 -64 32 -72 11z"/>
<path d="M2860 4264 c-51 -26 -71 -29 -88 -12 -16 16 -32 0 -66 -61 -16 -31
-23 -52 -16 -56 14 -9 28 2 45 36 20 37 26 36 48 -3 13 -23 21 -28 26 -19 5 7
6 21 4 31 -4 13 4 23 26 34 16 9 35 16 41 16 15 0 12 -63 -5 -86 -24 -32 -18
-43 28 -46 40 -3 42 -5 40 -32 -3 -41 -15 -49 -49 -31 -16 8 -32 15 -37 15 -4
0 -21 -23 -38 -50 -19 -31 -40 -52 -55 -56 -30 -8 -28 -30 3 -51 21 -14 23
-12 60 46 39 62 50 69 84 51 33 -18 55 3 68 66 15 77 16 74 -25 74 -36 0 -36
0 -33 77 3 46 0 77 -6 79 -5 1 -30 -9 -55 -22z"/>
<path d="M903 4235 c-95 -29 -177 -98 -225 -187 -19 -36 -23 -58 -23 -138 1
-97 10 -129 62 -212 10 -15 15 -30 11 -33 -11 -12 -119 23 -168 55 -68 44 -84
39 -88 -29 -4 -63 24 -128 88 -205 40 -48 40 -48 -22 -107 -97 -90 -160 -131
-212 -136 -60 -7 -97 9 -121 55 -16 29 -27 38 -52 40 -18 2 -41 -1 -51 -7 -30
-16 -52 -73 -52 -133 0 -164 174 -298 387 -298 47 0 63 -4 63 -14 0 -27 -92
-177 -113 -185 -12 -5 -42 -15 -67 -22 -39 -12 -45 -18 -48 -44 -3 -19 2 -33
14 -42 28 -20 9 -42 -80 -89 -95 -51 -126 -79 -126 -116 0 -27 -52 -132 -71
-144 -16 -10 -9 -53 10 -64 45 -24 245 28 424 109 38 17 72 29 77 26 16 -10
-11 -85 -94 -255 -97 -202 -104 -221 -81 -240 13 -11 25 -11 58 -3 23 7 44 10
46 8 2 -2 -12 -47 -30 -100 -34 -95 -34 -95 -6 -118 27 -22 27 -22 -39 -121
-163 -243 -126 -285 100 -113 55 42 81 56 84 47 22 -65 97 -190 129 -216 77
-62 144 -81 151 -43 2 10 -20 79 -47 155 -28 77 -51 147 -51 158 0 16 4 15 27
-9 38 -37 79 -57 111 -53 24 3 27 7 26 43 0 22 -9 70 -19 108 -19 67 -19 67
23 153 23 47 48 84 54 82 6 -2 20 -31 33 -65 30 -84 67 -143 115 -187 71 -64
75 -56 72 132 -2 162 -2 162 32 162 41 0 46 10 46 100 0 39 5 72 11 76 6 3 18
22 26 42 17 42 143 193 155 186 4 -3 8 -22 8 -43 0 -53 26 -198 55 -309 96
-364 352 -708 706 -952 40 -28 80 -50 88 -50 32 0 215 135 323 238 213 204
342 392 432 628 42 111 84 296 93 404 3 45 10 83 15 86 5 4 17 -4 26 -17 9
-13 35 -44 58 -69 23 -25 49 -61 59 -80 9 -19 26 -44 36 -55 14 -15 19 -40 21
-100 3 -80 3 -80 37 -83 34 -3 34 -3 27 -156 -6 -132 -5 -155 9 -166 13 -10
20 -11 39 -1 38 21 106 118 138 199 17 42 35 81 39 86 4 5 28 -32 53 -82 46
-91 46 -91 26 -156 -27 -85 -30 -135 -9 -149 23 -14 63 -1 103 33 60 53 60 43
1 -120 -65 -180 -59 -218 28 -174 69 36 114 84 156 165 22 44 41 87 41 95 0
24 19 16 71 -28 67 -58 169 -119 194 -116 40 6 22 61 -59 187 -42 65 -76 123
-76 129 0 6 9 14 20 17 28 9 25 39 -11 135 -17 45 -29 84 -25 87 3 3 19 0 35
-6 16 -7 40 -11 53 -9 42 6 28 58 -61 238 -80 162 -112 244 -104 267 3 7 41
-6 106 -37 156 -73 330 -120 392 -104 20 5 25 12 25 39 0 18 -4 35 -8 37 -18
7 -72 110 -72 137 0 34 -37 68 -126 119 -33 18 -68 39 -78 47 -19 15 -19 15 2
38 41 43 18 81 -56 93 -29 5 -50 16 -67 36 -37 44 -97 156 -90 168 3 5 31 10
62 10 171 0 334 100 376 231 20 61 21 79 5 131 -13 46 -50 78 -87 78 -34 0
-45 -8 -65 -48 -31 -60 -110 -69 -192 -23 -28 16 -84 60 -124 98 -74 70 -74
70 -27 130 69 87 102 184 81 237 -9 25 -37 19 -92 -17 -45 -31 -158 -65 -171
-52 -3 3 0 14 7 23 7 9 27 46 45 82 27 56 31 76 31 140 0 66 -4 82 -34 140
-45 84 -88 126 -168 163 -91 42 -192 49 -241 15 -19 -12 -39 -36 -44 -51 -18
-57 32 -117 98 -117 21 0 30 -8 47 -47 29 -66 35 -161 14 -217 -27 -70 -37
-73 -89 -27 -65 55 -122 75 -202 69 -123 -10 -215 -93 -215 -193 0 -42 5 -56
26 -76 37 -35 99 -33 128 4 30 38 51 34 81 -16 43 -75 32 -121 -48 -201 -28
-28 -74 -63 -102 -76 -44 -22 -64 -25 -175 -25 -142 -1 -178 -12 -187 -57 -8
-40 -26 -35 -66 20 -84 115 -117 213 -124 365 -6 117 -6 117 21 117 66 0 -1
34 -159 81 -48 14 -112 22 -206 26 -152 6 -248 -8 -352 -54 -31 -14 -60 -24
-62 -21 -3 3 2 21 10 41 19 46 19 67 0 67 -9 0 -29 7 -45 15 -29 15 -30 15
-30 -10 0 -14 7 -37 16 -51 9 -13 20 -39 23 -57 5 -26 12 -33 35 -35 29 -4 29
-4 23 -120 -7 -132 -25 -209 -68 -293 -29 -58 -84 -129 -99 -129 -5 0 -11 14
-15 30 -12 54 -43 64 -184 65 -148 1 -189 15 -272 91 -60 57 -79 90 -79 139 0
40 32 110 54 118 8 3 29 -9 50 -29 46 -44 78 -44 122 0 43 43 46 93 8 152 -85
130 -274 152 -396 45 -43 -38 -51 -38 -77 -5 -30 38 -36 104 -17 182 21 87 38
112 77 112 20 0 40 10 60 29 52 52 34 124 -37 151 -35 14 -121 11 -171 -5z
m175 -41 c44 -31 19 -84 -40 -84 -42 0 -97 -100 -112 -201 -14 -95 33 -211 88
-217 23 -3 38 6 75 42 55 54 84 66 158 66 138 0 255 -128 183 -200 -29 -29
-48 -25 -72 16 -19 33 -24 36 -56 30 -43 -6 -66 -27 -92 -80 -45 -94 -12 -185
99 -272 77 -61 123 -74 255 -74 101 0 150 -9 134 -25 -3 -3 -38 -19 -79 -34
-40 -15 -75 -34 -77 -41 -7 -20 57 -6 119 25 29 14 56 24 60 23 18 -6 -33 -70
-78 -98 -42 -27 -56 -30 -125 -30 -77 0 -77 0 -80 -87 -3 -86 -3 -87 -32 -94
-33 -9 -101 -71 -120 -109 -8 -14 -16 -54 -20 -89 -4 -35 -16 -87 -27 -115
-21 -57 -91 -136 -121 -136 -22 0 -22 -2 2 60 39 99 89 285 79 295 -15 15 -25
-4 -49 -90 -33 -119 -79 -242 -97 -256 -13 -11 -18 -10 -30 6 -11 16 -14 41
-10 111 4 87 6 95 55 186 52 95 52 95 101 101 85 10 208 91 200 132 -4 17 -8
16 -44 -17 -74 -66 -107 -77 -248 -79 -139 -2 -171 8 -183 57 -10 38 10 71 63
105 41 26 55 30 91 25 33 -4 44 -2 49 10 10 27 -18 34 -114 32 -88 -3 -94 -2
-119 23 -39 39 -36 94 6 132 25 23 39 28 64 24 148 -23 209 -28 219 -18 7 7 2
13 -19 21 -49 17 -58 25 -98 83 -35 51 -40 65 -46 134 -3 43 -11 88 -18 99
-13 25 -68 49 -134 58 -44 7 -48 10 -87 74 -71 118 -77 214 -21 329 35 72 85
116 162 143 66 24 155 26 186 4z m2654 -4 c115 -43 188 -146 196 -277 4 -69 2
-78 -31 -146 -49 -99 -64 -113 -138 -126 -39 -6 -71 -19 -86 -33 -27 -25 -45
-82 -37 -114 9 -33 -13 -91 -59 -156 -31 -45 -47 -59 -73 -64 -41 -8 -46 -34
-6 -34 15 1 63 7 107 15 108 20 119 19 154 -11 24 -20 31 -34 31 -61 0 -78
-45 -107 -154 -97 -81 7 -127 -6 -106 -31 7 -9 24 -11 50 -8 32 5 48 0 89 -26
27 -18 52 -39 55 -47 13 -34 5 -71 -20 -95 -24 -23 -30 -24 -152 -21 -143 4
-173 13 -244 73 -51 43 -58 46 -58 25 0 -40 153 -136 217 -136 23 0 37 -7 46
-22 94 -155 98 -166 104 -240 5 -73 -12 -148 -35 -148 -24 0 -54 74 -107 263
-18 62 -33 97 -41 97 -8 0 -14 -6 -14 -13 0 -19 57 -223 80 -285 24 -63 24
-62 5 -62 -26 0 -83 60 -109 113 -14 29 -30 86 -36 127 -6 41 -18 89 -26 107
-18 35 -79 88 -118 103 -24 9 -25 14 -28 92 -3 83 -3 83 -83 88 -47 3 -93 12
-111 22 -37 20 -94 83 -94 103 0 19 14 19 30 0 14 -17 112 -55 141 -55 42 0
11 23 -69 52 -45 17 -82 34 -82 38 0 14 51 21 140 19 136 -4 189 15 283 101
103 94 121 180 56 270 -47 64 -99 78 -123 31 -19 -36 -43 -45 -71 -27 -47 31
-40 89 15 145 43 42 91 61 157 61 69 0 107 -16 171 -74 47 -41 55 -44 77 -34
33 15 67 90 73 164 9 115 -56 254 -119 254 -20 0 -34 8 -45 25 -16 25 -16 27
6 50 20 21 33 25 81 25 34 0 81 -8 111 -20z m-1354 -450 c4 -43 -16 -60 -72
-60 -56 0 -88 -18 -109 -63 -28 -56 -20 -65 48 -56 37 5 68 17 92 35 36 27 36
27 30 -2 -26 -120 -38 -226 -32 -278 8 -73 44 -164 84 -215 17 -22 31 -44 31
-50 0 -8 -47 -11 -151 -11 -151 0 -151 0 -180 29 -36 37 -37 70 -3 128 14 24
22 48 19 53 -12 20 -35 -5 -70 -78 -47 -98 -78 -132 -122 -132 -40 0 -41 12
-7 52 74 89 94 181 76 344 -13 109 -8 138 18 124 10 -6 35 -10 54 -10 30 0 36
4 36 20 0 42 -28 78 -72 92 -44 15 -59 38 -38 63 10 12 109 40 175 48 17 3 66
4 110 3 80 -1 80 -1 83 -36z m66 13 c8 -21 0 -136 -20 -292 -21 -159 -9 -218
73 -342 47 -73 49 -79 30 -79 -33 0 -115 122 -141 209 -20 68 -20 144 -2 252
8 46 18 120 21 164 4 44 8 86 10 93 6 17 22 15 29 -5z m53 -142 c-2 -64 -12
-147 -22 -186 -13 -55 -15 -76 -6 -98 15 -38 31 -25 31 26 0 23 7 69 15 102 8
33 15 78 17 100 1 22 4 -25 7 -105 6 -140 7 -148 40 -215 22 -45 56 -91 93
-127 32 -32 58 -60 58 -63 0 -3 -29 -5 -64 -5 -73 0 -76 2 -138 93 -76 113
-93 199 -68 354 6 34 12 108 15 165 2 57 5 105 5 108 0 3 6 -3 11 -14 7 -12
10 -60 6 -135z m-1963 80 c15 -24 106 -52 231 -70 76 -11 148 -27 160 -35 24
-16 43 -82 27 -98 -5 -5 -20 -4 -37 2 -29 11 -64 8 -162 -12 -39 -8 -63 -8
-91 0 -71 22 -152 123 -152 192 0 29 13 40 24 21z m3586 -13 c0 -38 -45 -121
-83 -155 -53 -46 -102 -59 -174 -44 -73 15 -119 18 -160 7 -32 -7 -33 -6 -33
23 0 80 21 91 210 116 88 12 128 22 170 44 68 36 70 36 70 9z m-3173 -230 c6
-7 15 -28 22 -47 6 -19 23 -50 37 -68 14 -19 24 -37 21 -40 -3 -3 -29 0 -56 7
-46 11 -55 10 -97 -10 -67 -33 -87 -91 -59 -175 12 -39 -181 -148 -301 -168
-80 -14 -203 2 -266 34 -101 51 -137 101 -52 72 66 -22 191 -13 264 19 30 14
107 64 170 112 63 47 145 101 182 119 73 34 84 47 41 47 -35 0 -112 -44 -236
-137 -174 -130 -270 -160 -421 -131 -85 16 -108 40 -109 116 -1 86 55 138 80
73 15 -40 51 -61 116 -68 71 -7 127 18 263 117 114 83 139 97 214 121 65 21
173 25 187 7z m2962 -23 c35 -16 110 -63 165 -103 123 -91 186 -122 246 -122
60 0 133 36 140 70 8 34 34 36 59 4 32 -41 21 -153 -17 -173 -37 -19 -154 -33
-215 -26 -90 10 -147 38 -287 144 -128 96 -188 130 -227 131 -38 0 -26 -13 35
-42 31 -15 107 -64 167 -110 61 -46 126 -93 145 -105 79 -48 215 -67 303 -42
76 21 51 -16 -43 -65 -143 -75 -329 -54 -496 55 -66 44 -75 53 -69 72 4 12 10
41 12 63 4 35 0 46 -27 77 -42 49 -86 62 -151 47 -28 -7 -52 -10 -55 -7 -3 3
10 26 29 51 20 25 38 59 42 75 8 36 21 41 110 37 51 -2 87 -10 134 -31z
m-1300 -139 c26 -58 72 -121 121 -163 47 -40 54 -64 10 -31 -88 64 -171 221
-169 316 1 47 2 47 10 -15 5 -34 18 -82 28 -107z m8 142 c-3 -8 -6 -5 -6 6 -1
11 2 17 5 13 3 -3 4 -12 1 -19z m-682 -277 c-28 -51 -81 -109 -90 -99 -3 3 13
27 35 54 23 27 48 62 56 77 9 16 18 26 21 24 3 -3 -7 -28 -22 -56z m-1081
-116 c19 -14 18 -16 -17 -50 -60 -59 -170 -237 -237 -383 -16 -36 -37 -62 -65
-81 -22 -15 -61 -42 -87 -60 -26 -18 -86 -50 -133 -72 -82 -38 -105 -59 -67
-59 30 0 193 84 250 129 54 43 64 44 82 11 9 -16 -1 -26 -68 -75 -42 -32 -106
-72 -142 -90 -112 -56 -301 -107 -315 -85 -6 10 44 109 72 142 9 9 12 25 8 37
-8 25 10 35 90 51 161 32 360 179 434 318 17 33 2 43 -17 12 -55 -84 -245
-244 -324 -273 -30 -11 -20 10 21 45 49 42 52 52 16 58 -37 6 -44 28 -11 35
14 3 36 7 49 10 34 7 101 69 213 196 95 108 195 199 217 199 7 0 21 -7 31 -15z
m3058 -78 c51 -52 136 -139 188 -194 82 -87 101 -102 135 -108 63 -11 76 -16
72 -28 -2 -7 -16 -14 -32 -17 -16 -3 -30 -9 -31 -15 -2 -5 20 -28 47 -50 63
-49 49 -57 -30 -15 -84 45 -166 114 -236 198 -68 81 -87 79 -30 -4 87 -126
249 -240 383 -269 96 -22 112 -30 112 -59 0 -13 18 -54 41 -91 49 -81 46 -98
-13 -89 -133 20 -307 98 -420 189 -60 47 -68 64 -44 84 12 10 27 3 77 -34 62
-46 207 -122 243 -127 10 -2 21 2 23 8 2 5 -30 25 -72 43 -76 34 -223 126
-261 165 -12 11 -50 75 -84 141 -73 141 -134 237 -186 294 -35 40 -36 42 -18
56 10 8 24 15 31 15 7 0 54 -42 105 -93z m-3052 -37 c0 -19 11 -42 29 -62 28
-32 33 -33 107 -34 43 -1 79 -5 81 -10 2 -5 -23 -50 -55 -100 -97 -149 -184
-204 -334 -212 -55 -3 -88 -1 -88 6 0 5 31 73 70 150 69 138 164 292 181 292
5 0 9 -13 9 -30z m2974 -53 c70 -106 189 -336 182 -352 -13 -34 -143 -22 -231
22 -27 13 -70 43 -94 66 -41 40 -151 197 -151 217 0 5 30 6 68 3 51 -4 76 -2
99 10 30 16 63 69 63 101 0 9 2 16 5 16 3 0 30 -37 59 -83z m-2424 -46 c0 -5
-12 -32 -26 -59 -27 -52 -36 -105 -19 -110 5 -2 18 23 28 55 10 32 25 65 34
73 13 13 14 2 11 -105 -3 -83 -9 -131 -21 -155 -22 -48 -107 -264 -107 -273 0
-43 69 96 101 203 7 22 16 40 21 40 26 0 -55 -211 -106 -275 -16 -20 -16 -20
-28 0 -54 86 -67 219 -30 311 11 27 23 72 27 100 3 27 8 63 11 80 7 46 104
153 104 115z m1863 -40 c40 -45 45 -56 50 -113 3 -35 18 -97 32 -138 34 -98
31 -187 -9 -272 -15 -32 -31 -58 -36 -58 -21 0 -102 173 -115 245 -9 55 7 34
35 -45 27 -77 79 -184 86 -177 3 3 -24 83 -60 178 -66 173 -66 173 -66 283 0
124 11 131 40 25 18 -68 40 -90 40 -41 0 16 -13 56 -30 88 -16 32 -30 62 -30
67 0 18 21 3 63 -42z m-1102 -9 c122 -60 188 -163 199 -312 4 -49 12 -95 18
-103 8 -9 39 -16 90 -19 95 -5 154 -31 217 -94 108 -109 138 -287 80 -480 -42
-142 -190 -276 -288 -262 -19 3 -16 7 23 33 61 41 62 59 6 75 -54 15 -96 7
-126 -26 -46 -48 -57 -14 -12 37 35 39 98 49 168 25 26 -9 49 -16 51 -16 10 0
33 74 33 106 0 30 -7 44 -40 75 -22 21 -40 41 -40 44 0 13 50 3 73 -15 30 -24
37 -25 37 -5 0 53 -85 148 -143 161 -37 8 -137 -4 -137 -17 0 -5 18 -37 39
-70 58 -89 49 -98 -94 -108 -90 -6 -90 -6 -93 -37 -2 -22 -11 -35 -28 -43 -34
-15 -34 -15 -34 18 0 15 10 43 23 62 20 30 30 35 91 45 37 6 71 15 76 20 5 5
-22 41 -62 82 -38 41 -73 71 -76 67 -3 -3 -6 -20 -7 -37 0 -44 -18 -45 -38 -3
-32 67 -13 180 34 206 17 9 27 39 13 39 -3 0 -32 -16 -64 -36 -117 -72 -225
-67 -313 15 -42 39 -57 74 -57 135 0 64 31 110 81 121 45 10 56 -7 29 -43 -56
-76 38 -164 155 -146 183 27 260 256 126 377 -73 66 -167 74 -222 21 -55 -52
-47 -114 14 -114 60 0 116 -54 117 -113 0 -35 -24 -82 -46 -91 -25 -10 -29 1
-9 24 23 25 22 78 -2 102 -11 10 -45 23 -78 28 -163 26 -176 210 -20 286 46
22 178 15 236 -14z m-1211 -248 c0 -3 -27 -72 -61 -152 -141 -341 -374 -722
-441 -722 -28 0 -22 31 25 133 71 150 371 643 445 730 15 17 32 23 32 11z
m2808 -113 c93 -137 311 -507 363 -616 58 -122 68 -155 45 -155 -47 0 -214
233 -325 454 -66 131 -181 401 -181 426 0 23 36 -17 98 -109z m-2888 83 c0 -3
-20 -30 -44 -59 -24 -30 -99 -147 -167 -261 -129 -214 -146 -237 -216 -285
-52 -36 -77 -38 -68 -6 10 33 150 313 207 414 76 134 90 150 140 157 24 4 61
15 83 26 41 19 65 24 65 14z m2985 -31 c43 -13 83 -29 87 -36 73 -109 288
-527 288 -559 0 -24 -9 -23 -61 11 -69 45 -99 83 -220 286 -117 197 -136 226
-181 286 -32 41 -35 54 -10 44 9 -5 53 -19 97 -32z m-180 -73 c53 -165 200
-450 316 -610 75 -105 269 -392 288 -427 21 -40 -11 -28 -97 36 -157 116 -332
322 -415 488 -15 28 -32 55 -37 58 -41 25 -4 -65 78 -189 54 -83 56 -95 24
-144 -8 -13 -18 -19 -22 -15 -16 17 -163 353 -196 447 -34 98 -80 267 -86 316
-3 23 0 25 36 25 40 0 48 7 66 59 13 36 22 27 45 -44z m-2697 23 c15 -34 22
-38 54 -38 20 0 38 -2 41 -5 9 -9 -12 -113 -44 -220 -43 -142 -224 -570 -241
-570 -10 0 -38 55 -38 76 0 9 20 47 44 83 44 67 79 132 96 176 7 20 6 25 -5
25 -8 0 -27 -24 -41 -52 -86 -170 -287 -405 -433 -507 -74 -51 -91 -59 -91
-42 0 14 145 237 229 350 166 227 319 508 385 709 10 28 19 52 22 52 2 0 12
-17 22 -37z m259 -173 c33 -87 26 -207 -9 -172 -24 24 -27 10 -21 -84 6 -91 5
-96 -13 -92 -12 2 -24 18 -32 46 -8 23 -18 42 -22 42 -9 0 -5 -294 6 -368 5
-39 3 -43 -13 -40 -29 5 -91 107 -109 178 -26 104 -16 195 35 310 43 96 70
139 57 90 -4 -14 -16 -59 -27 -100 -24 -89 -32 -270 -11 -277 9 -4 12 14 12
65 0 38 7 107 16 153 19 104 86 320 98 316 4 -2 19 -32 33 -67z m2183 39 c0
-10 13 -58 30 -105 37 -106 60 -235 60 -332 0 -55 3 -73 13 -69 8 3 12 32 11
103 -1 91 -14 157 -58 309 -13 44 94 -184 110 -235 15 -48 16 -65 6 -134 -6
-43 -22 -101 -35 -130 -24 -52 -72 -116 -87 -116 -4 0 -6 92 -2 205 4 151 2
205 -7 205 -6 0 -11 -10 -11 -23 0 -26 -26 -67 -42 -67 -8 0 -9 28 -5 89 5 61
3 92 -4 97 -6 4 -15 1 -19 -6 -16 -26 -30 3 -30 64 0 46 7 79 25 120 24 55 45
66 45 25z m-2571 -763 c6 -25 11 -50 11 -55 0 -20 -29 -11 -65 20 -38 34 -47
60 -16 52 13 -3 23 2 31 16 15 29 25 20 39 -33z m2941 40 c0 -22 17 -28 40
-16 24 13 25 7 4 -30 -22 -36 -73 -67 -84 -50 -7 11 4 83 16 102 8 13 24 9 24
-6z m218 -67 c9 -13 12 -32 8 -50 -10 -49 -57 -140 -94 -181 -35 -39 -85 -72
-94 -62 -4 4 74 253 103 332 9 23 9 23 36 2 15 -11 33 -30 41 -41z m-3328 0
c8 -24 33 -98 57 -164 23 -66 38 -124 34 -128 -14 -14 -95 57 -129 113 -18 30
-40 79 -49 108 -17 52 -17 52 17 87 19 20 39 34 45 32 5 -2 17 -23 25 -48z"/>
<path d="M871 4064 c-58 -48 -84 -108 -89 -198 -3 -70 0 -87 20 -126 13 -24
29 -46 37 -48 15 -5 14 1 -14 78 -34 90 8 240 77 279 30 17 37 41 14 41 -8 0
-28 -12 -45 -26z"/>
<path d="M1132 3617 c-70 -75 -67 -235 6 -300 36 -32 44 -9 12 34 -52 73 -52
173 0 233 17 19 30 39 30 45 0 18 -25 12 -48 -12z"/>
<path d="M1272 3228 c2 -7 31 -26 63 -42 56 -27 59 -30 37 -39 -17 -8 -36 -7
-65 0 -41 11 -57 9 -57 -7 0 -12 58 -30 97 -30 42 0 135 39 130 54 -2 6 -14
12 -28 14 -34 5 -139 43 -145 53 -8 14 -36 10 -32 -3z"/>
<path d="M3690 4081 c0 -5 15 -20 34 -35 19 -14 47 -51 61 -81 23 -47 27 -64
23 -122 -2 -38 -11 -83 -21 -102 -21 -42 -21 -51 -2 -51 27 0 58 87 59 165 0
85 -25 146 -85 199 -37 34 -69 47 -69 27z"/>
<path d="M3450 3626 c0 -7 7 -19 16 -27 61 -50 59 -190 -4 -262 -18 -20 -11
-31 16 -23 10 4 29 28 43 54 29 59 32 150 6 200 -31 57 -77 92 -77 58z"/>
<path d="M3285 3214 c-27 -13 -69 -26 -93 -30 -23 -3 -45 -10 -47 -15 -9 -13
72 -50 123 -55 54 -7 102 8 102 31 0 11 -6 15 -17 11 -49 -14 -73 -17 -92 -11
-32 10 -25 23 17 34 41 12 82 37 82 52 0 14 -20 10 -75 -17z"/>
<path d="M2117 3513 c-3 -10 -8 -39 -12 -65 -6 -48 -6 -48 34 -48 30 0 41 4
41 15 0 9 -9 15 -21 15 -20 0 -21 4 -16 50 5 39 3 50 -8 50 -7 0 -16 -8 -18
-17z"/>
<path d="M2148 3373 c-43 -5 -51 -28 -21 -58 15 -16 17 -16 32 3 9 11 26 25
39 31 22 12 22 33 -1 29 -7 -1 -29 -3 -49 -5z"/>
<path d="M3957 1490 c-26 -63 -78 -213 -74 -216 17 -17 92 167 84 209 -3 17
-5 18 -10 7z"/>
<path d="M657 1473 c-15 -23 63 -217 79 -200 3 3 -8 43 -26 89 -18 46 -35 92
-39 102 -5 12 -10 16 -14 9z"/>
<path d="M2291 4061 c-13 -24 0 -35 30 -26 12 4 19 14 17 23 -5 24 -35 26 -47
3z"/>
<path d="M2292 3958 c-7 -13 -17 -31 -24 -40 -10 -14 -8 -21 12 -43 29 -31 34
-31 66 -2 25 24 25 24 -2 65 -15 23 -31 42 -34 42 -4 0 -12 -10 -18 -22z"/>
<path d="M2080 3898 c-57 -12 -63 -19 -44 -46 20 -29 40 -27 88 6 65 44 47 60
-44 40z"/>
<path d="M2470 3897 c0 -18 60 -67 82 -67 17 0 48 31 48 47 0 11 -13 15 -92
29 -31 5 -38 3 -38 -9z"/>
<path d="M2725 3848 c-16 -6 -35 -12 -42 -14 -8 -2 -5 -18 10 -53 21 -50 47
-68 47 -33 0 11 9 29 20 42 22 26 27 71 8 69 -7 -1 -26 -6 -43 -11z"/>
<path d="M1047 959 c-46 -11 -89 -32 -107 -54 -10 -12 -13 -67 -11 -250 1
-128 6 -246 10 -261 23 -86 206 -101 289 -23 19 17 22 30 22 105 0 61 4 86 13
90 7 2 66 -2 131 -11 64 -8 161 -15 214 -15 122 0 243 -14 402 -45 69 -13 141
-26 160 -27 39 -3 38 2 20 -103 -12 -70 -12 -70 49 -207 33 -75 61 -141 61
-147 0 -24 18 -9 33 27 8 20 38 90 66 155 51 117 51 117 35 183 -8 37 -13 73
-10 80 3 8 19 14 36 14 17 0 75 9 128 20 148 30 322 50 440 50 59 1 139 5 177
10 185 26 165 33 165 -61 0 -98 11 -121 74 -150 49 -22 145 -25 184 -5 60 31
60 30 68 299 8 278 10 268 -67 308 -64 32 -148 34 -304 6 -82 -15 -216 -30
-325 -36 -107 -6 -267 -24 -380 -42 -258 -41 -356 -41 -610 0 -119 19 -267 36
-380 42 -110 6 -239 20 -319 34 -140 26 -200 29 -264 14z m249 -50 c61 -13
168 -24 281 -29 166 -9 248 -18 548 -64 140 -22 256 -20 435 8 250 39 305 46
490 56 96 5 221 18 278 29 139 28 225 28 282 -1 45 -23 45 -23 48 -195 1 -95
-1 -173 -5 -173 -5 0 -34 13 -65 29 -77 39 -178 48 -315 27 -57 -9 -145 -16
-197 -16 -111 0 -268 -15 -386 -36 -47 -9 -137 -24 -200 -33 -88 -14 -115 -21
-114 -32 1 -9 9 -49 18 -90 17 -76 17 -76 -27 -179 -23 -57 -48 -105 -53 -107
-6 -2 -31 44 -56 103 -45 106 -45 106 -27 182 28 113 30 108 -52 116 -40 3
-102 13 -138 21 -123 28 -265 45 -411 51 -80 2 -204 12 -276 21 -151 19 -251
11 -328 -27 -25 -12 -48 -21 -52 -21 -4 1 -9 74 -11 164 -5 181 -6 176 63 201
56 21 157 19 270 -5z m-149 -545 c-9 -9 -114 -18 -105 -10 7 8 100 24 107 19
2 -2 1 -6 -2 -9z m2438 -4 c8 -13 -65 -13 -85 0 -11 7 -2 10 32 10 26 0 50 -4
53 -10z"/>
</g>
</svg>
