<?xml version="1.0" standalone="no"?>
<!DOCTYPE svg PUBLIC "-//W3C//DTD SVG 20010904//EN"
 "http://www.w3.org/TR/2001/REC-SVG-20010904/DTD/svg10.dtd">
<svg version="1.0" xmlns="http://www.w3.org/2000/svg"
 width="416.000000pt" height="461.000000pt" viewBox="0 0 416.000000 461.000000"
 preserveAspectRatio="xMidYMid meet">
<metadata>
Created by potrace 1.16, written by Peter Selinger 2001-2019
</metadata>
<g transform="translate(0.000000,461.000000) scale(0.100000,-0.100000)"
fill="#000000" stroke="none">
<path d="M2105 4600 c-4 -6 -24 -19 -46 -30 -46 -24 -48 -35 -14 -70 34 -36
20 -58 -23 -36 -34 18 -62 21 -62 7 0 -4 -12 -26 -26 -47 -26 -38 -26 -38 -3
-82 33 -61 43 -67 79 -52 16 7 30 16 30 21 0 5 7 9 15 9 21 0 19 -47 -2 -59
-14 -8 -15 -12 -4 -25 11 -13 9 -17 -13 -27 -23 -11 -26 -18 -26 -63 0 -74
-11 -86 -50 -57 -56 41 -93 44 -164 15 -17 -6 -18 -4 -12 20 10 41 -9 68 -47
64 -27 -3 -33 -8 -35 -32 -4 -28 -4 -28 -32 -1 -22 21 -35 26 -54 21 -21 -5
-26 -13 -26 -36 0 -29 -13 -40 -25 -20 -10 16 -51 12 -66 -6 -11 -14 -10 -21
4 -47 25 -42 8 -52 -35 -21 -43 30 -75 26 -84 -12 -5 -19 0 -32 20 -53 34 -35
33 -41 -8 -41 -18 0 -39 -7 -46 -15 -18 -22 14 -55 53 -55 31 0 31 0 2 -30
-24 -25 -27 -34 -19 -48 16 -25 57 -27 79 -2 30 33 37 24 34 -42 -4 -56 -2
-63 14 -63 30 0 57 -41 50 -76 -6 -29 4 -38 24 -18 13 13 63 -44 63 -74 0 -12
14 -42 30 -66 23 -33 30 -55 30 -91 0 -56 11 -68 71 -78 23 -4 44 -12 46 -18
6 -19 -113 -120 -185 -157 -88 -46 -179 -67 -286 -67 -99 0 -113 5 -163 61
-40 44 -81 69 -112 69 -24 0 -54 72 -49 121 3 33 5 34 58 45 30 7 68 17 84 23
24 10 38 8 91 -14 35 -14 67 -25 72 -25 12 0 78 70 92 98 13 24 7 42 -12 42
-6 0 -52 20 -103 45 -72 35 -96 52 -113 80 -19 33 -84 74 -118 75 -7 0 -34 16
-60 36 -44 33 -50 35 -102 30 -87 -8 -90 -8 -123 9 -43 21 -52 7 -29 -45 21
-46 19 -60 -5 -60 -20 0 -64 -30 -64 -44 0 -6 -16 -21 -35 -34 -53 -34 -43
-53 35 -69 31 -7 44 -14 41 -24 -2 -8 -6 -68 -9 -134 -4 -120 -4 -120 -41
-155 -20 -19 -48 -51 -63 -70 -26 -35 -26 -35 -52 20 -24 53 -25 62 -23 225 1
138 -1 177 -15 210 -9 22 -19 82 -22 132 -7 113 -32 187 -86 260 -65 86 -94
86 -66 1 10 -29 20 -101 23 -160 7 -122 -9 -201 -58 -298 -15 -30 -35 -71 -44
-90 -8 -19 -22 -46 -30 -60 -19 -32 -19 -96 0 -149 9 -26 10 -41 4 -41 -6 0
-39 16 -73 35 -35 19 -70 35 -79 35 -50 0 14 -175 99 -269 46 -51 46 -51 -43
-51 -106 0 -123 -8 -103 -44 16 -31 166 -165 198 -177 13 -5 39 -9 58 -9 20 0
34 -3 32 -7 -40 -79 -63 -147 -84 -256 -14 -73 -34 -151 -44 -174 -19 -43 -19
-43 -48 -26 -25 14 -35 15 -56 5 -52 -24 -42 -106 17 -126 40 -15 75 16 122
110 22 43 58 106 80 140 22 33 55 93 74 132 38 79 55 92 46 35 -20 -117 -68
-227 -150 -343 -96 -136 -125 -184 -144 -235 -47 -126 -36 -239 31 -311 40
-44 78 -58 78 -29 0 8 -8 19 -19 24 -10 6 -26 27 -36 47 -46 97 22 235 216
440 31 33 71 82 88 110 42 65 80 187 90 291 15 142 47 141 57 -2 8 -127 -12
-214 -79 -345 -30 -58 -71 -157 -90 -220 -69 -219 -185 -418 -266 -455 -32
-14 -54 -16 -106 -11 -81 8 -89 -11 -19 -44 103 -50 246 -6 362 111 34 34 64
61 66 58 3 -3 8 -53 12 -112 7 -106 7 -106 -33 -144 -23 -21 -55 -49 -73 -62
-32 -24 -32 -24 -25 -175 3 -83 11 -181 17 -217 8 -50 8 -75 -2 -103 -11 -34
-10 -41 7 -64 31 -41 133 -54 133 -17 0 19 10 19 38 -1 17 -11 21 -21 16 -40
-4 -16 -1 -31 9 -42 20 -21 97 -184 97 -203 0 -8 10 -27 23 -42 20 -26 28 -28
87 -28 118 0 260 61 260 112 0 10 -9 42 -20 70 -13 32 -17 56 -12 61 11 11
130 43 196 53 45 7 47 7 57 -24 9 -26 27 -39 122 -84 175 -84 307 -121 521
-147 49 -6 93 -13 98 -16 11 -7 10 -25 -2 -44 -8 -12 -11 -12 -28 3 -19 18
-49 22 -68 9 -6 -4 -20 -25 -31 -47 -21 -39 -21 -39 0 -82 11 -23 26 -44 33
-47 7 -3 29 4 50 15 47 24 44 24 44 -7 0 -18 -6 -28 -21 -31 -32 -9 -19 -44
26 -69 22 -13 45 -26 51 -29 6 -3 29 5 50 19 67 44 68 46 46 68 -18 18 -18 22
-4 50 12 26 12 32 1 39 -21 13 -46 11 -52 -4 -7 -19 4 -70 19 -87 11 -14 9
-18 -20 -34 -31 -17 -35 -17 -66 -1 -29 15 -30 18 -17 33 16 19 28 69 20 89
-7 18 -54 17 -80 -2 -44 -31 -77 20 -48 75 16 31 45 41 45 16 0 -19 48 -30 66
-15 8 7 14 30 14 56 0 42 1 44 27 41 24 -3 28 -9 38 -53 12 -59 32 -68 76 -36
33 24 46 21 60 -16 13 -35 -13 -83 -42 -76 -17 5 -20 2 -17 -13 2 -12 13 -20
29 -22 21 -2 31 4 48 33 26 45 26 56 1 105 -17 33 -26 40 -50 40 -19 0 -34 -8
-45 -22 -13 -20 -17 -21 -25 -8 -6 8 -9 26 -8 40 3 24 7 25 88 32 165 13 329
58 485 132 50 24 102 46 116 49 18 5 29 16 36 39 9 32 11 33 54 30 45 -3 150
-28 181 -44 17 -8 17 -12 -2 -61 -11 -28 -20 -62 -20 -74 0 -68 223 -147 313
-110 29 13 39 25 57 74 26 71 77 172 97 195 10 11 13 26 9 42 -6 24 -4 25 21
20 44 -9 80 10 88 45 5 24 12 31 30 31 34 0 59 28 49 54 -13 34 -5 199 15 324
12 72 16 124 11 138 -5 12 -30 37 -56 54 -68 48 -99 119 -90 209 4 36 10 69
15 74 4 4 22 -13 40 -37 66 -93 169 -156 267 -164 72 -5 96 -1 143 29 44 27
27 39 -45 32 -70 -7 -97 1 -143 43 -84 75 -163 236 -216 441 -15 55 -47 136
-82 205 -71 137 -83 186 -83 334 0 90 3 114 14 114 25 0 33 -24 39 -115 10
-157 59 -261 196 -414 144 -160 192 -238 199 -327 6 -70 -2 -99 -38 -131 -35
-31 -38 -43 -10 -43 11 0 37 17 58 38 50 50 67 109 59 209 -7 90 -46 179 -125
283 -71 95 -118 176 -147 252 -23 63 -44 178 -32 178 2 0 21 -35 41 -77 21
-43 59 -112 86 -153 28 -42 57 -97 66 -123 17 -50 63 -97 95 -97 53 0 90 88
51 123 -25 22 -48 21 -72 -3 -20 -20 -20 -20 -34 3 -17 26 -38 107 -61 237 -9
53 -30 122 -46 156 -16 34 -29 65 -29 68 0 3 17 6 38 6 38 0 87 27 135 73 12
12 44 41 70 65 34 31 47 50 45 65 -3 21 -9 22 -101 25 -98 3 -98 3 -41 65 57
61 105 150 117 215 10 50 -14 52 -98 9 -39 -20 -74 -37 -77 -37 -4 0 0 21 9
46 20 60 13 137 -16 167 -11 13 -21 29 -21 35 0 7 -15 43 -34 80 -48 95 -66
164 -66 251 1 83 21 216 39 249 8 16 8 23 -1 28 -7 5 -32 -14 -64 -48 -64 -70
-92 -146 -100 -273 -3 -49 -13 -108 -21 -130 -12 -31 -15 -80 -14 -212 1 -169
0 -172 -27 -225 -15 -29 -34 -53 -42 -53 -7 0 -27 21 -45 47 -31 45 -33 51
-38 175 -4 70 -9 143 -13 161 -6 28 -4 32 15 32 31 0 81 28 81 45 0 8 -14 22
-30 30 -17 9 -35 27 -40 40 -5 14 -14 25 -19 25 -5 0 -21 4 -35 10 -26 9 -26
9 -5 56 23 55 15 70 -27 50 -40 -20 -55 -21 -88 -7 -38 15 -87 1 -132 -38 -19
-17 -47 -33 -62 -36 -53 -12 -88 -33 -112 -69 -27 -39 -101 -83 -187 -111 -63
-20 -66 -34 -23 -94 48 -66 73 -70 157 -28 40 21 42 21 100 3 32 -10 69 -21
83 -25 23 -6 25 -11 23 -64 -2 -65 -10 -84 -70 -154 -40 -47 -49 -52 -107 -62
-89 -16 -232 -14 -301 4 -33 9 -87 28 -120 44 -87 41 -219 150 -202 167 2 2
25 8 51 13 62 11 86 34 86 81 0 43 26 111 46 123 8 4 14 20 14 35 1 38 44 85
70 77 18 -6 20 -3 14 18 -7 31 5 55 37 71 21 11 24 18 21 58 -3 52 10 68 37
44 22 -20 55 -21 71 -1 11 13 10 21 -1 43 -7 15 -15 30 -17 35 -2 4 5 7 16 7
32 0 54 27 42 51 -8 14 -21 19 -50 19 -22 0 -40 3 -40 6 0 3 14 17 30 31 35
29 40 67 10 83 -25 13 -51 6 -75 -20 -17 -18 -55 -28 -55 -14 0 3 11 19 25 36
51 61 9 97 -50 42 -31 -29 -42 -26 -25 6 6 12 9 33 6 46 -5 20 -13 24 -41 24
-28 0 -38 -5 -47 -25 -15 -33 -24 -32 -37 5 -20 58 -88 31 -79 -31 4 -27 3
-30 -16 -23 -12 4 -46 8 -76 8 -43 1 -62 -4 -84 -21 -16 -13 -33 -23 -37 -23
-5 0 -9 27 -9 59 0 53 -3 61 -27 79 -23 16 -25 22 -15 35 10 12 10 16 -3 21
-16 6 -21 41 -6 51 6 3 13 -1 18 -9 10 -16 63 -29 79 -18 6 4 22 27 37 52 26
45 26 45 -4 93 -31 51 -58 60 -90 31 -19 -17 -39 -12 -39 10 0 8 7 19 15 26
26 21 18 56 -15 70 -16 7 -35 18 -41 26 -13 16 -35 18 -44 4z m70 -56 c14 -14
14 -18 2 -33 -37 -41 -27 -101 17 -101 13 0 31 9 41 20 24 26 30 25 55 -10 21
-29 21 -29 0 -70 -13 -25 -27 -40 -39 -40 -14 0 -18 5 -14 21 5 18 2 20 -38
17 -44 -3 -44 -3 -44 -57 0 -39 -4 -57 -17 -64 -26 -17 -51 10 -45 47 8 52 -7
76 -47 76 -26 0 -35 -5 -40 -22 -6 -23 -6 -23 -31 5 -31 35 -31 54 -2 90 22
29 22 29 49 8 30 -24 49 -26 66 -9 19 19 14 59 -10 86 -16 17 -19 26 -11 29 7
3 23 13 35 23 24 19 41 15 73 -16z m-73 -357 c-2 -10 6 -17 20 -19 29 -4 37
-46 12 -65 -16 -11 -16 -13 -1 -19 26 -10 21 -36 -5 -32 -16 2 -22 9 -21 23 1
11 -2 37 -8 58 -7 27 -15 37 -29 37 -25 0 -25 9 -2 26 21 16 38 12 34 -9z m93
3 c3 -6 -5 -10 -19 -10 -14 0 -28 5 -31 10 -3 6 5 10 19 10 14 0 28 -4 31 -10z
m-440 -66 c0 -19 -5 -29 -15 -29 -16 0 -25 28 -16 51 10 25 31 10 31 -22z
m-101 4 c12 -17 13 -24 3 -30 -19 -12 -27 -9 -36 15 -16 40 8 51 33 15z m870
7 c3 -8 3 -22 0 -30 -8 -21 -34 0 -34 26 0 23 25 25 34 4z m112 4 c7 -12 -32
-56 -42 -46 -3 3 -4 18 0 32 7 26 29 34 42 14z m-1040 -60 c19 -21 19 -21 -16
-14 -42 9 -50 13 -50 26 0 17 47 9 66 -12z m311 5 c2 -6 -10 -8 -31 -6 -53 6
-100 -29 -133 -100 -17 -39 -33 -50 -33 -23 0 43 52 100 120 132 29 14 72 13
77 -3z m529 -9 c17 -13 16 -13 -16 -5 -19 5 -46 11 -60 13 -16 3 -11 5 16 6
22 0 49 -6 60 -14z m274 0 c-7 -8 -19 -15 -27 -15 -13 0 -13 3 -3 15 7 8 19
15 27 15 13 0 13 -3 3 -15z m-195 -38 c18 -15 28 -36 32 -65 6 -48 -12 -60
-23 -14 -3 15 -20 44 -36 65 -33 43 -17 52 27 14z m-889 -41 c-47 -40 -76 -84
-76 -115 0 -18 -3 -22 -11 -14 -15 15 -1 77 24 109 25 33 77 65 91 57 5 -4 -7
-20 -28 -37z m78 0 c-21 -44 -34 -46 -34 -6 0 23 6 33 23 39 30 12 31 9 11
-33z m186 37 c-1 -11 -93 -53 -100 -47 -9 10 54 54 78 54 12 0 22 -3 22 -7z
m557 -18 c21 -14 33 -41 15 -33 -4 2 -29 12 -55 23 -26 11 -47 24 -47 29 0 12
59 -1 87 -19z m377 -8 c-7 -18 -50 -34 -62 -22 -4 4 6 18 22 32 30 25 52 20
40 -10z m-1363 13 c30 -17 24 -42 -8 -38 -20 2 -29 9 -31 26 -4 24 9 28 39 12z
m684 -1 c8 -12 -14 -69 -26 -69 -5 0 -9 8 -9 18 0 10 -5 23 -11 29 -6 6 -8 16
-5 22 9 14 43 14 51 0z m500 -9 c41 -25 65 -75 65 -134 0 -50 -14 -65 -16 -17
-1 17 -7 44 -14 61 -14 35 -75 81 -95 73 -8 -2 -18 5 -25 16 -10 19 -8 21 21
21 17 0 46 -9 64 -20z m-254 -40 c41 -16 80 -30 87 -30 17 0 15 -7 -8 -45 -22
-36 -42 -48 -64 -39 -41 16 -88 -56 -67 -102 6 -14 11 -31 11 -38 0 -17 -43
-36 -80 -36 -50 0 -80 50 -34 58 25 5 53 41 54 69 0 12 -11 35 -25 51 -21 25
-25 40 -25 92 0 63 0 63 39 56 21 -3 72 -19 112 -36z m-380 -25 c5 -45 3 -53
-23 -78 -18 -18 -28 -39 -28 -58 0 -33 31 -69 60 -69 24 0 28 -35 4 -44 -23
-9 -107 -7 -123 3 -11 7 -11 15 -1 43 11 29 10 39 -4 66 -19 36 -45 53 -77 49
-30 -3 -51 56 -27 79 27 27 131 64 173 62 40 -3 40 -3 46 -53z m-350 -15 c23
-13 26 -75 5 -117 -8 -15 -17 -36 -20 -45 -8 -26 -18 -22 -45 17 -19 28 -23
44 -19 80 8 68 33 89 79 65z m489 -22 c-1 -13 -7 -34 -15 -48 -8 -14 -14 -28
-15 -32 0 -16 22 -7 40 15 18 22 18 22 29 -7 11 -27 13 -28 30 -12 16 14 20
15 30 2 10 -11 10 -20 1 -36 -10 -18 -17 -21 -47 -15 -19 3 -41 9 -50 12 -13
5 -14 0 -8 -28 7 -30 6 -32 -9 -20 -8 7 -23 11 -31 7 -13 -5 -14 -2 -4 15 14
27 5 35 -26 21 -54 -25 -93 -4 -81 43 8 29 26 34 26 6 0 -28 17 -35 29 -12 6
11 20 23 31 26 15 5 20 15 20 39 0 37 6 46 32 46 12 0 18 -7 18 -22z m495 2
c22 -24 22 -67 1 -108 -13 -24 -45 -50 -50 -40 -26 50 -34 153 -13 161 25 11
44 6 62 -13z m-1195 1 c0 -13 -27 -21 -45 -15 -25 10 -17 24 15 24 17 0 30 -4
30 -9z m1391 -6 c0 -5 -12 -11 -26 -13 -18 -2 -25 1 -25 13 0 12 7 15 25 13
14 -2 26 -7 26 -13z m-1073 -40 c7 -14 12 -37 12 -50 0 -30 13 -32 31 -4 17
25 42 18 58 -18 9 -19 9 -29 0 -39 -16 -20 -29 -17 -29 6 0 26 -8 25 -32 -5
-11 -14 -28 -25 -39 -25 -11 0 -29 -6 -40 -12 -18 -11 -23 -10 -40 11 -23 28
-25 57 -4 65 12 4 14 0 9 -19 -5 -19 -2 -25 10 -25 22 0 31 27 16 45 -18 22
-3 31 18 12 23 -21 31 -15 24 18 -3 18 -11 25 -28 25 -13 0 -24 6 -24 13 0 36
42 36 58 2z m763 15 c28 -15 23 -30 -9 -30 -22 0 -30 -7 -39 -30 -13 -34 1
-51 17 -20 6 11 17 20 25 20 17 0 20 -16 5 -25 -17 -10 -11 -32 10 -38 24 -6
26 -30 4 -48 -14 -11 -18 -10 -29 5 -8 10 -19 15 -25 11 -7 -4 -25 3 -42 15
-22 16 -33 19 -41 11 -16 -16 -25 -14 -37 10 -9 16 -8 26 5 45 20 32 32 30 53
-6 23 -40 36 -38 28 5 -5 27 -3 37 8 41 8 3 18 14 21 25 7 22 18 24 46 9z
m1276 -22 c-26 -148 -12 -250 52 -385 42 -88 43 -111 5 -185 -21 -41 -31 -34
-38 25 -9 66 -44 199 -68 255 -30 73 -19 225 23 305 16 29 32 20 26 -15z
m-3342 -59 c24 -90 19 -159 -20 -273 -19 -56 -40 -137 -46 -181 -16 -120 -25
-124 -58 -27 -23 69 -23 69 7 128 59 117 75 187 74 318 0 104 1 117 14 104 8
-8 21 -39 29 -69z m998 44 c8 -7 -21 -43 -35 -43 -12 0 -10 24 4 38 14 14 22
15 31 5z m1351 -12 c12 -13 14 -21 6 -26 -11 -7 -50 21 -50 37 0 15 27 8 44
-11z m-1178 -113 c6 -21 -3 -41 -16 -33 -5 3 -11 1 -15 -5 -10 -16 -23 -12
-41 15 -21 32 -12 44 31 42 24 -1 37 -8 41 -19z m1020 11 c3 -6 17 -8 30 -5
13 4 24 5 24 2 0 -10 -56 -66 -66 -66 -19 0 -36 50 -23 66 14 17 25 18 35 3z
m-451 -102 c71 -35 161 -31 221 9 34 23 34 23 48 -10 7 -18 30 -43 50 -55 37
-23 50 -49 19 -36 -47 18 -189 45 -288 55 -146 15 -359 -1 -479 -36 -27 -8
-59 -14 -70 -14 -18 0 -17 3 9 20 39 26 65 60 65 88 0 29 11 28 40 -3 14 -15
44 -29 77 -36 72 -16 148 6 190 55 28 33 28 33 58 6 17 -15 44 -34 60 -43z
m-1321 41 c14 -6 33 -22 42 -36 15 -23 19 -24 85 -18 91 9 126 -3 174 -61 27
-33 59 -55 112 -80 78 -36 96 -58 38 -47 -43 8 -48 -12 -5 -21 17 -4 28 -11
24 -16 -9 -16 -68 -10 -99 11 -39 26 -86 26 -108 0 -9 -11 -29 -20 -44 -21
-61 -2 -99 3 -114 17 -19 17 -39 18 -39 3 0 -6 -11 -24 -25 -41 -28 -33 -34
-98 -12 -117 20 -16 26 -4 20 34 -6 36 12 78 30 72 7 -2 11 -18 9 -38 -1 -19
6 -58 17 -88 11 -31 17 -69 14 -90 -4 -37 14 -78 24 -53 6 15 35 16 51 0 16
-16 -23 -58 -53 -58 -12 0 -58 28 -103 63 -45 34 -97 73 -116 87 -35 25 -35
25 -36 118 0 118 14 175 51 206 16 14 29 27 29 30 0 3 -16 6 -35 6 -19 0 -35
4 -35 10 0 13 63 29 94 23 22 -5 26 -2 26 18 0 31 -10 45 -37 53 -22 7 -30 26
-16 39 8 9 8 9 37 -5z m2526 -6 c0 -5 -14 -21 -30 -37 -41 -39 -38 -71 7 -67
36 4 53 -13 21 -22 -22 -5 -22 -6 9 -38 38 -40 51 -86 60 -206 5 -79 4 -95
-11 -111 -10 -11 -13 -21 -7 -25 16 -10 35 -116 22 -129 -6 -6 -7 -17 -2 -26
29 -55 18 -197 -13 -185 -8 3 -17 -6 -21 -23 -6 -21 -9 -24 -12 -10 -5 21 -27
18 -31 -4 -1 -8 4 -23 12 -34 15 -20 16 -19 40 10 20 24 25 26 26 12 0 -21
-37 -97 -48 -97 -4 0 -13 5 -20 12 -21 21 -36 -7 -43 -82 -3 -38 -12 -77 -20
-86 -8 -10 -84 -70 -169 -134 -85 -65 -163 -126 -172 -137 -20 -22 -58 -125
-58 -157 0 -17 -2 -18 -10 -6 -5 8 -10 55 -10 103 0 88 0 88 64 156 131 140
263 338 240 361 -13 13 -25 2 -63 -58 -19 -29 -39 -51 -45 -49 -19 6 -19 182
0 244 18 56 14 74 -10 54 -20 -17 -36 -89 -36 -162 0 -76 -15 -69 -32 14 -23
108 19 223 126 345 53 61 66 83 80 137 9 35 16 78 16 95 0 16 4 30 10 30 20 0
31 -41 24 -90 -7 -57 -1 -63 21 -20 21 40 19 82 -5 113 -11 14 -20 35 -20 47
0 21 0 21 -26 1 -45 -35 -184 -25 -184 14 0 18 -39 12 -113 -16 -26 -11 -54
-19 -62 -19 -26 0 -16 17 16 26 41 12 33 29 -13 25 -22 -1 -38 2 -38 8 0 6 6
11 13 11 33 0 126 56 173 105 61 63 96 74 189 58 60 -11 60 -11 92 23 30 31
63 45 63 26z m-1070 -111 c30 -5 62 -12 70 -15 8 -2 41 -12 73 -21 59 -16 80
-45 33 -45 -33 0 -41 -16 -22 -45 19 -29 8 -38 -30 -25 -141 46 -556 47 -678
1 -39 -15 -52 -3 -26 24 28 29 19 45 -26 45 -24 0 -34 5 -34 15 0 8 2 15 5 15
3 0 44 12 92 26 142 41 379 52 543 25z m-1819 -224 c5 -188 6 -194 38 -275 18
-46 31 -86 27 -89 -21 -21 -80 93 -97 189 -13 68 -29 83 -29 25 0 -74 48 -183
104 -236 37 -36 44 -55 25 -67 -16 -10 -113 97 -143 158 -22 44 -26 65 -26
137 0 102 35 301 62 355 23 44 33 -6 39 -197z m3245 97 c17 -65 28 -137 31
-210 5 -104 4 -116 -19 -165 -41 -88 -145 -198 -162 -170 -10 15 14 58 38 69
48 22 130 236 98 256 -5 3 -12 -14 -15 -37 -10 -75 -79 -207 -108 -207 -17 0
-10 24 32 106 41 81 41 81 40 252 -1 166 8 237 29 216 6 -6 22 -55 36 -110z
m-1456 -25 c29 -7 25 -8 -20 -4 -30 3 -77 5 -105 5 -36 0 -46 3 -35 10 16 10
99 4 160 -11z m-335 1 c-3 -5 -15 -10 -26 -10 -11 0 -17 5 -14 10 3 6 15 10
26 10 11 0 17 -4 14 -10z m-57 -5 c-9 -9 -98 -22 -98 -14 0 8 31 15 79 18 13
0 22 -1 19 -4z m496 -14 c4 -5 -3 -7 -14 -4 -23 6 -26 13 -6 13 8 0 17 -4 20
-9z m-2068 -157 c49 -131 51 -154 14 -134 -35 19 -80 113 -80 167 0 90 26 77
66 -33z m3598 73 c13 -54 -58 -207 -96 -207 -23 0 9 131 52 209 14 28 36 27
44 -2z m-2017 -43 c9 -27 -145 -165 -282 -251 -105 -66 -163 -87 -245 -85 -64
1 -78 5 -92 23 -10 12 -18 30 -18 40 0 17 8 19 63 19 58 0 151 16 225 39 67
20 169 87 245 159 72 68 96 81 104 56z m273 -63 c23 -44 68 -112 101 -150 40
-48 54 -71 43 -71 -9 0 -59 20 -112 45 -52 25 -101 45 -109 45 -8 0 -33 -11
-56 -24 -55 -32 -197 -89 -205 -82 -3 3 10 21 30 40 50 48 122 147 148 203 33
68 38 73 81 73 37 0 39 -1 79 -79z m-180 65 c0 -52 -204 -316 -226 -293 -12
12 44 114 95 172 27 31 60 71 72 90 13 19 32 35 42 35 9 0 17 -2 17 -4z m305
-93 c80 -101 120 -167 110 -183 -22 -36 -214 203 -215 268 0 32 35 4 105 -85z
m65 51 c150 -154 330 -223 548 -210 110 6 112 5 87 -43 -17 -35 -50 -42 -176
-42 -85 0 -91 1 -191 50 -57 28 -137 77 -178 108 -80 61 -170 152 -170 172 0
25 38 8 80 -35z m1690 -69 c0 -32 -46 -110 -98 -167 -53 -57 -143 -115 -162
-103 -4 3 -2 22 7 43 10 28 26 44 59 61 56 30 134 98 134 117 0 19 -14 18 -30
-2 -23 -27 -130 -104 -145 -104 -27 0 -16 28 27 64 46 40 132 86 159 86 10 0
21 5 24 10 9 15 25 12 25 -5z m-3880 -15 c101 -30 237 -140 174 -140 -16 0
-128 73 -139 90 -3 5 -10 10 -16 10 -36 0 40 -78 113 -116 49 -25 68 -48 68
-83 0 -25 -6 -26 -54 -6 -75 31 -181 158 -202 239 -6 26 -5 28 12 22 10 -5 30
-12 44 -16z m3350 -105 c15 -52 9 -190 -9 -208 -8 -8 -11 11 -11 80 0 49 -3
112 -7 138 -8 60 9 54 27 -10z m-1780 -9 c0 -7 -19 -34 -43 -60 -42 -45 -45
-46 -103 -46 -59 0 -59 0 4 35 35 18 78 45 95 59 37 29 47 32 47 12z m761 -26
c34 -22 77 -45 95 -52 46 -16 43 -28 -8 -28 -52 0 -89 18 -126 61 -61 72 -50
77 39 19z m-342 -5 c72 -36 145 -63 251 -91 79 -22 124 -27 273 -31 177 -6
177 -6 175 -397 -3 -391 -3 -391 -157 -394 -85 -1 -158 1 -162 5 -4 5 -10 59
-14 121 -7 102 -6 112 10 112 9 0 26 -11 37 -25 25 -33 33 -32 74 9 43 43 46
85 8 123 -26 26 -44 27 -111 7 -31 -9 -29 9 4 52 26 35 26 35 -18 80 -24 24
-48 44 -55 44 -14 0 -84 -76 -84 -91 0 -6 9 -22 20 -36 25 -33 27 -58 3 -48
-75 30 -129 8 -140 -57 -5 -33 -2 -41 30 -73 42 -42 63 -44 79 -10 7 15 18 24
27 23 14 -3 16 -20 13 -108 -1 -58 -4 -111 -7 -118 -3 -9 -36 -12 -132 -10
-128 3 -128 3 -136 217 -5 155 -4 217 4 227 16 20 24 17 37 -11 17 -36 55 -33
86 8 41 54 43 82 8 117 -35 34 -48 36 -99 15 -19 -8 -37 -15 -39 -15 -12 0 -1
32 22 65 25 38 25 38 -17 81 -24 24 -48 44 -54 44 -5 -1 -28 -21 -49 -46 -34
-40 -38 -49 -27 -66 7 -11 16 -30 21 -43 9 -25 9 -25 -49 -19 -55 6 -59 5 -80
-22 -28 -36 -22 -76 16 -116 34 -36 66 -36 82 -1 11 23 14 24 27 12 12 -13 13
-36 4 -160 -6 -79 -11 -175 -13 -214 -2 -70 -2 -70 -111 -73 -60 -1 -113 1
-117 5 -4 4 -8 58 -10 118 -4 106 -3 110 17 113 15 2 23 -3 27 -17 10 -38 36
-36 78 5 47 46 51 83 13 120 -26 27 -40 28 -116 9 -35 -9 -36 6 -3 49 14 18
25 36 25 39 0 13 -72 87 -84 87 -7 0 -31 -19 -54 -43 -42 -43 -42 -43 -17 -77
25 -34 32 -60 16 -60 -4 0 -22 5 -40 11 -43 15 -78 4 -96 -31 -22 -43 -19 -66
18 -107 37 -39 64 -40 74 -2 4 14 12 19 27 17 20 -3 21 -8 17 -78 -8 -166 6
-155 -186 -155 -170 0 -170 0 -173 93 -1 50 1 92 6 92 5 0 19 -11 31 -24 18
-19 21 -30 15 -60 -6 -33 -4 -38 15 -43 11 -3 21 -12 21 -20 0 -12 7 -14 30
-9 17 3 30 1 30 -4 0 -22 30 -8 45 20 23 45 18 98 -20 184 -49 113 -79 152
-129 169 -41 14 -41 14 -41 198 0 184 0 184 165 190 91 4 200 14 244 24 95 20
254 75 299 104 41 27 57 26 116 -4z m-1724 -35 c7 -21 101 -110 116 -110 13 0
31 -52 22 -61 -12 -12 -92 31 -135 73 -36 36 -58 94 -44 117 9 14 34 3 41 -19z
m3335 -9 c0 -47 -104 -144 -169 -157 -27 -6 -31 -4 -31 14 0 13 16 30 48 50
26 16 63 47 82 70 38 43 70 54 70 23z m-800 -70 c0 -27 -15 -41 -41 -41 -21 0
-29 5 -29 18 0 10 3 22 7 25 10 10 63 8 63 -2z m-2735 -19 c61 -9 61 -24 0
-37 -25 -6 -47 -15 -48 -20 -4 -18 40 -16 101 4 34 12 68 21 75 21 17 0 42
-44 33 -59 -13 -20 -85 -51 -119 -51 -33 0 -117 49 -117 69 0 4 -18 21 -40 36
-22 15 -40 32 -40 36 0 10 81 10 155 1z m3820 -1 c10 -18 -39 -41 -87 -41 -51
0 -98 14 -98 29 0 9 22 12 147 19 17 1 34 -2 38 -7z m-3574 -66 c24 -14 52
-25 62 -25 19 0 23 -25 6 -36 -7 -4 -1 -12 17 -19 25 -11 26 -14 11 -20 -9 -4
-29 -4 -44 0 -33 8 -103 81 -103 107 0 23 -1 23 51 -7z m3396 9 c30 -9 68 -13
84 -10 39 8 36 -6 -8 -43 -45 -37 -95 -41 -154 -11 -45 24 -57 43 -39 65 16
19 48 19 117 -1z m-147 -9 c0 -9 -20 -36 -45 -61 -41 -41 -49 -45 -87 -42 -24
2 -43 9 -46 17 -3 10 3 12 27 9 36 -5 54 10 22 19 -31 8 -26 18 17 31 20 6 46
18 57 26 26 20 55 20 55 1z m-762 -42 c3 -35 -3 -38 -45 -27 -15 4 -23 14 -23
28 0 30 9 38 40 34 20 -2 26 -9 28 -35z m-1680 -40 c-3 -55 -4 -58 -31 -61
-33 -4 -46 21 -25 46 8 9 19 29 26 45 20 46 33 32 30 -30z m2495 -30 c59 -63
140 -326 95 -311 -20 7 -46 58 -87 175 -21 61 -44 119 -49 130 -11 19 -7 33 8
33 3 0 18 -12 33 -27z m-3373 8 c0 -5 -8 -29 -18 -53 -11 -24 -22 -61 -26 -83
-11 -57 -74 -185 -92 -185 -16 0 -16 -3 18 134 22 91 40 130 76 169 26 27 42
34 42 18z m134 -133 c-3 -188 -48 -295 -194 -454 -87 -94 -139 -161 -186 -240
-21 -34 -23 -10 -4 43 20 57 59 123 146 246 106 151 143 245 153 397 4 58 10
111 14 117 6 9 16 8 40 -2 32 -14 32 -14 31 -107z m3156 -6 c16 -169 55 -269
164 -419 95 -132 159 -263 129 -263 -5 0 -18 18 -31 41 -25 44 -102 138 -193
236 -100 108 -159 265 -159 422 0 52 4 71 18 83 21 19 45 27 54 19 3 -3 11
-57 18 -119z m-265 37 c-9 -28 -15 -53 -12 -56 3 -3 12 16 20 43 24 81 35 62
19 -33 -11 -73 -12 -106 -1 -193 10 -92 29 -160 44 -160 3 0 2 19 -1 43 -9 53
-1 46 46 -45 20 -40 50 -98 66 -128 27 -50 29 -63 28 -150 -1 -52 -13 -162
-28 -243 -31 -179 -32 -201 -6 -271 20 -51 45 -81 110 -126 21 -15 21 -15 5
-137 -8 -67 -17 -166 -18 -220 -3 -96 -3 -97 -31 -106 -19 -6 -31 -6 -39 2 -6
6 -26 11 -44 11 -40 0 -41 6 -8 40 38 40 75 152 75 230 0 82 -36 163 -115 258
-58 70 -62 80 -120 267 -37 123 -124 306 -236 501 -33 58 -59 112 -57 122 2
13 19 19 68 25 36 4 76 15 90 25 14 10 42 51 62 92 29 58 37 87 38 130 0 38 8
72 27 110 32 66 43 46 18 -31z m-2329 -38 c30 -27 142 -69 256 -96 20 -5 41
-28 78 -85 27 -44 50 -83 50 -88 0 -11 -34 -22 -66 -22 -27 0 -74 37 -74 58 0
9 -6 28 -13 42 -11 21 -23 26 -102 37 -50 6 -139 20 -200 30 -110 18 -110 18
-132 63 -40 81 -38 83 95 88 69 3 75 1 108 -27z m-315 -12 c11 -5 36 -34 54
-64 42 -65 42 -65 135 -91 75 -21 75 -21 78 -65 6 -84 -83 -295 -200 -477 -33
-51 -64 -109 -68 -130 -5 -20 -11 -98 -15 -172 -9 -201 -5 -191 -98 -289 -104
-110 -153 -200 -143 -269 8 -62 39 -123 75 -147 30 -19 30 -19 0 -32 -16 -7
-46 -11 -66 -10 -29 1 -38 -2 -41 -15 -2 -11 3 -18 12 -18 23 0 20 -27 -3 -33
-11 -2 -29 0 -42 7 -25 12 -23 -7 -34 331 -6 180 -6 180 32 209 21 16 51 44
66 63 33 39 44 41 49 11 4 -26 28 -37 28 -12 0 9 -11 40 -25 68 -26 53 -42
160 -49 329 -2 49 -9 94 -16 102 -21 26 -4 152 31 216 16 30 47 92 69 139 54
113 54 113 70 118 10 4 11 -3 7 -27 -5 -22 -3 -30 4 -25 7 4 9 34 4 93 -11
131 -11 134 3 138 7 3 12 -5 12 -21 0 -13 5 -37 12 -53 21 -51 21 1 0 76 -11
38 -18 72 -15 75 5 5 40 -7 74 -25z m2179 -6 c70 -26 73 -30 48 -67 -27 -39
-100 -116 -110 -116 -4 0 -8 45 -8 100 0 111 -2 110 70 83z m520 -94 c0 -21
-4 -39 -10 -39 -5 0 -10 21 -10 46 0 27 4 43 10 39 6 -3 10 -24 10 -46z
m-2223 -85 c22 -6 22 -6 25 -377 5 -420 7 -438 90 -602 78 -155 213 -305 371
-412 82 -55 311 -173 337 -173 9 0 62 22 117 49 365 178 577 403 664 703 15
53 23 115 28 228 5 139 8 155 24 154 9 -1 17 5 17 12 0 8 11 19 25 24 35 13
41 35 16 66 -24 30 -26 52 -10 124 11 50 50 110 72 110 7 0 32 -43 56 -96 44
-94 44 -96 28 -122 -86 -133 -117 -236 -117 -388 0 -69 5 -91 30 -147 38 -84
38 -129 1 -215 -35 -84 -106 -201 -134 -224 -29 -23 -69 -22 -117 2 -22 11
-47 20 -56 20 -24 0 -64 -39 -64 -62 0 -11 -11 -23 -25 -28 -32 -12 -34 -43
-2 -38 16 2 21 -1 19 -14 -2 -12 4 -18 18 -18 28 0 100 -23 100 -32 0 -12
-219 -114 -305 -141 -258 -84 -517 -83 -784 0 -79 25 -263 111 -286 134 -13
13 7 25 54 34 19 4 46 18 59 32 21 23 22 27 8 42 -9 10 -16 24 -16 32 0 25
-39 59 -68 59 -15 0 -47 -10 -71 -21 -84 -37 -132 -2 -196 147 -54 127 -48
184 32 306 25 36 25 41 21 180 -5 164 -14 194 -96 330 -52 85 -52 85 -33 124
18 36 41 110 55 177 6 24 11 27 49 27 23 0 52 -3 64 -6z m1663 -322 c0 -15 -2
-15 -10 -2 -13 20 -13 33 0 25 6 -3 10 -14 10 -23z m-1838 -29 c8 -10 30 -45
48 -77 32 -57 34 -65 41 -208 8 -148 8 -148 -38 -228 -43 -77 -45 -83 -41
-148 3 -54 12 -85 48 -160 57 -120 100 -162 168 -162 48 -1 100 -29 88 -49
-13 -20 -110 -24 -152 -6 -29 12 -54 15 -96 10 -58 -7 -58 -7 -58 33 0 27 -9
51 -28 78 -15 21 -39 59 -53 84 -14 25 -40 68 -57 95 -17 28 -34 62 -38 78 -5
23 -3 27 14 27 15 0 27 14 45 53 46 101 43 131 -22 211 -17 21 -31 49 -31 63
0 13 20 56 44 96 46 75 76 151 76 191 0 39 18 47 42 19z m2130 -87 c10 -44 32
-106 48 -138 17 -32 30 -65 30 -73 0 -9 -20 -40 -45 -71 -25 -30 -45 -58 -45
-62 0 -4 -4 -33 -9 -64 -10 -58 0 -121 20 -134 8 -5 9 10 4 47 -6 45 -5 52 6
41 8 -7 14 -34 14 -60 0 -42 -6 -56 -52 -117 -78 -104 -135 -209 -140 -259 -5
-44 -5 -44 -72 -50 -36 -2 -85 -8 -109 -11 -23 -4 -59 -4 -79 0 -36 6 -36 6
-4 26 17 10 43 19 57 19 78 0 124 50 212 229 67 137 70 172 25 271 -30 64 -30
66 -24 185 8 130 21 173 81 260 44 64 59 57 82 -39z m-1559 -52 c13 -5 14 -22
10 -100 -6 -94 -6 -94 60 -94 66 0 66 0 69 98 3 97 3 97 108 97 105 0 105 0
108 -98 3 -98 3 -98 70 -95 67 3 67 3 66 93 -1 56 3 93 10 97 20 14 234 9 243
-4 4 -7 6 -52 4 -100 -3 -88 -3 -88 63 -88 66 0 66 0 60 93 -7 94 -7 94 32
100 22 4 97 4 168 0 129 -6 129 -6 123 -117 -19 -364 -242 -658 -646 -855 -57
-28 -112 -51 -121 -51 -24 0 -164 70 -265 133 -190 118 -317 254 -405 432 -63
128 -79 192 -87 337 -6 117 -6 117 63 121 130 6 252 7 267 1z m-770 -243 c54
-60 55 -72 7 -154 -24 -40 -43 -83 -43 -97 0 -22 48 -103 180 -301 19 -29 22
-43 17 -81 -6 -41 -4 -47 16 -58 18 -10 35 -9 82 0 32 7 61 10 65 7 7 -8 9 -7
-127 -42 -57 -15 -145 -45 -195 -66 -49 -21 -93 -39 -97 -39 -4 0 -9 9 -13 19
-7 23 -54 41 -105 41 -25 0 -43 7 -58 23 -27 29 -52 89 -52 126 0 50 57 142
146 232 46 48 84 90 84 95 1 29 21 256 26 292 4 24 12 42 19 42 7 0 28 -18 48
-39z m2511 -87 c33 -118 53 -159 113 -226 25 -28 59 -81 76 -116 26 -56 29
-71 25 -130 -3 -46 -14 -86 -34 -127 -27 -55 -34 -63 -93 -91 -37 -18 -68 -41
-72 -52 -7 -19 -14 -18 -147 39 -88 37 -174 65 -231 76 -103 20 -122 38 -29
27 72 -8 90 5 81 61 -7 46 57 166 147 275 76 92 81 107 55 180 -8 23 -15 66
-15 95 0 48 3 56 37 85 46 41 50 36 87 -96z m-2041 -659 c127 -87 329 -164
507 -194 283 -48 548 -8 809 123 52 26 111 59 133 73 35 24 44 25 106 19 37
-4 96 -14 132 -23 132 -32 442 -168 454 -199 3 -9 -1 -34 -11 -55 -13 -30 -21
-38 -35 -33 -19 6 -25 -10 -8 -21 17 -11 11 -25 -11 -25 -18 0 -19 -2 -9 -15
10 -12 10 -19 2 -27 -8 -8 -24 -3 -59 20 -127 80 -383 165 -507 167 -4 0 -13
-16 -20 -35 -10 -30 -22 -40 -111 -83 -222 -109 -373 -142 -650 -142 -281 0
-438 34 -650 140 -87 44 -101 54 -110 83 -9 31 -11 32 -60 32 -101 0 -287 -62
-453 -151 -83 -44 -82 -44 -82 -25 0 8 -7 17 -16 20 -14 5 -14 9 -3 23 12 15
12 16 -3 10 -21 -7 -23 3 -5 22 10 12 9 13 -7 7 -15 -5 -17 -2 -13 13 3 15 1
18 -11 14 -11 -5 -14 -2 -10 9 4 9 1 21 -5 27 -18 18 31 51 153 107 185 84
374 140 480 143 22 1 49 -8 73 -24z m2169 -117 c-15 -15 -26 -4 -18 18 5 13 9
15 18 6 9 -9 9 -15 0 -24z m90 -14 c-7 -14 -18 -24 -25 -21 -15 5 -11 48 6 59
20 12 31 -9 19 -38z m-2858 -300 c5 -14 15 -16 54 -11 26 4 57 9 70 13 32 9
27 -8 -11 -32 -44 -29 -74 -37 -103 -30 -25 7 -45 41 -37 64 7 17 20 15 27 -4z
m2654 -23 c-2 -21 -10 -28 -38 -35 -30 -7 -44 -4 -90 20 -45 23 -51 29 -32 32
12 2 39 -2 58 -8 32 -11 38 -10 56 8 27 26 50 18 46 -17z"/>
<path d="M1085 3563 c-43 -6 -51 -19 -24 -37 29 -18 89 -18 89 0 0 11 -28 47
-33 43 -1 -1 -15 -4 -32 -6z"/>
<path d="M1050 3460 c11 -21 35 -27 45 -11 6 10 -25 31 -45 31 -8 0 -8 -6 0
-20z"/>
<path d="M3112 3554 c-12 -8 -27 -24 -33 -36 -10 -19 -9 -20 33 -13 43 7 98
38 98 56 0 15 -74 10 -98 -7z"/>
<path d="M3164 3479 c-3 -6 -1 -16 4 -21 13 -13 45 8 36 23 -7 12 -31 11 -40
-2z"/>
<path d="M3430 3123 c0 -5 7 -18 15 -29 12 -16 14 -16 15 -3 0 9 -7 22 -15 29
-8 7 -15 8 -15 3z"/>
<path d="M3176 3033 c-10 -25 10 -39 23 -15 10 19 6 32 -10 32 -4 0 -10 -8
-13 -17z"/>
<path d="M3378 2859 c-29 -32 -48 -61 -48 -75 0 -30 16 -31 31 -1 7 12 29 41
51 65 34 37 42 62 20 62 -4 0 -28 -23 -54 -51z"/>
<path d="M2100 3525 c-23 -24 -23 -25 -5 -45 23 -25 33 -25 61 1 23 21 23 21
-3 45 -14 13 -27 24 -28 24 -1 0 -12 -11 -25 -25z"/>
<path d="M1861 3501 c-8 -14 -5 -23 13 -40 22 -21 22 -21 46 4 13 14 22 26 19
27 -54 33 -65 34 -78 9z"/>
<path d="M2332 3502 c-23 -18 -23 -18 2 -41 23 -22 25 -22 50 -6 25 16 25 18
8 41 -20 28 -30 29 -60 6z"/>
<path d="M3551 2150 c0 -8 6 -24 14 -34 11 -15 15 -16 15 -5 0 8 -7 24 -15 35
-11 14 -14 15 -14 4z"/>
<path d="M2025 1549 c-2 -3 8 -42 22 -87 14 -46 23 -86 19 -89 -3 -4 -34 12
-68 36 -33 23 -66 40 -72 38 -7 -3 -11 -39 -11 -98 0 -94 0 -94 78 -97 42 -2
77 -6 77 -9 0 -4 7 -61 15 -128 8 -66 16 -136 17 -155 2 -23 8 -35 18 -35 10
0 16 12 17 35 6 78 25 256 29 272 4 14 20 18 82 20 77 3 77 3 82 93 3 50 2 94
-2 99 -4 5 -33 -9 -67 -32 -50 -35 -81 -50 -81 -39 0 4 27 141 31 157 3 12
-13 16 -89 20 -52 3 -96 2 -97 -1z"/>
<path d="M964 756 c-15 -12 -17 -18 -8 -33 6 -10 22 -20 35 -23 29 -7 39 -40
12 -40 -11 0 -23 -4 -28 -9 -6 -4 -23 -12 -39 -15 -25 -6 -28 -5 -17 8 7 8 11
30 9 48 -4 40 -33 49 -69 19 -20 -16 -22 -22 -11 -33 11 -11 16 -10 27 6 22
30 33 11 24 -40 -5 -26 -7 -50 -3 -53 3 -3 24 5 47 17 23 12 49 22 58 22 22 0
49 32 49 58 0 24 -34 46 -58 38 -15 -5 -15 -4 1 8 37 29 10 50 -29 22z"/>
<path d="M3227 742 c-16 -18 -23 -82 -11 -95 11 -10 86 75 80 90 -4 8 -6 17
-6 19 0 12 -49 1 -63 -14z m46 -27 c-5 -16 -33 -21 -33 -7 0 13 22 32 31 26 5
-2 6 -11 2 -19z"/>
<path d="M3321 723 c3 -37 -2 -54 -22 -74 -14 -14 -18 -24 -11 -31 17 -17 38
-2 60 43 20 40 20 44 5 61 -20 23 -35 23 -32 1z"/>
<path d="M2533 667 c-44 -20 -40 -73 6 -83 52 -11 54 -13 41 -29 -9 -10 -17
-12 -30 -5 -19 10 -30 4 -30 -17 0 -18 50 -17 78 3 24 16 29 48 10 60 -6 4
-25 10 -41 13 -42 9 -47 31 -8 31 34 0 41 14 14 28 -11 6 -26 6 -40 -1z"/>
<path d="M1657 659 c-28 -16 -49 -73 -38 -102 12 -32 65 -54 86 -37 23 19 18
33 -9 26 -30 -8 -50 15 -42 49 9 35 43 51 65 31 23 -21 31 -20 31 3 0 12 -11
23 -31 30 -38 13 -39 13 -62 0z"/>
<path d="M2437 643 c-3 -5 -2 -15 4 -23 15 -25 11 -90 -7 -97 -24 -9 -38 14
-39 63 0 39 -3 44 -20 42 -17 -3 -20 -9 -17 -43 4 -50 31 -89 66 -93 46 -6 57
13 52 87 -3 48 -8 67 -19 69 -8 2 -18 -1 -20 -5z"/>
<path d="M1767 593 c-4 -27 -9 -58 -13 -70 -5 -19 0 -23 34 -34 46 -13 74 -7
66 15 -4 11 -14 13 -36 9 -34 -7 -34 -7 -12 95 6 28 4 32 -13 32 -17 0 -21 -9
-26 -47z"/>
<path d="M1887 567 c-4 -28 -9 -61 -12 -73 -6 -19 -1 -22 41 -28 48 -6 72 3
60 23 -4 6 -20 8 -37 4 -28 -5 -30 -4 -27 18 2 18 9 23 26 22 14 -2 22 3 22
12 0 8 -9 15 -20 15 -11 0 -20 6 -20 14 0 19 17 29 25 16 11 -17 37 -11 33 8
-2 12 -14 18 -44 19 -41 3 -41 3 -47 -50z"/>
<path d="M2276 612 c-3 -5 -1 -26 4 -48 5 -21 11 -51 15 -66 4 -19 12 -28 25
-28 24 0 24 3 5 58 -8 23 -12 54 -9 67 5 21 2 25 -14 25 -12 0 -23 -4 -26 -8z"/>
<path d="M2016 602 c-2 -4 -6 -36 -7 -72 -3 -55 -1 -65 14 -68 13 -3 17 3 17
22 0 33 18 34 29 2 10 -26 37 -41 46 -25 4 5 -3 21 -15 36 -18 23 -19 28 -5
43 18 20 19 34 3 47 -17 13 -76 24 -82 15z m50 -48 c-5 -13 -10 -14 -18 -6 -6
6 -8 18 -4 28 5 13 10 14 18 6 6 -6 8 -18 4 -28z"/>
<path d="M2175 578 c-4 -13 -15 -42 -26 -65 -24 -53 -24 -53 1 -53 13 0 20 7
20 19 0 23 28 48 39 35 5 -5 11 -18 13 -29 2 -12 13 -21 26 -23 28 -4 28 -2
-9 74 -33 67 -53 80 -64 42z"/>
</g>
</svg>
