<?xml version="1.0" standalone="no"?>
<!DOCTYPE svg PUBLIC "-//W3C//DTD SVG 20010904//EN"
 "http://www.w3.org/TR/2001/REC-SVG-20010904/DTD/svg10.dtd">
<svg version="1.0" xmlns="http://www.w3.org/2000/svg"
 width="395.000000pt" height="479.000000pt" viewBox="0 0 395.000000 479.000000"
 preserveAspectRatio="xMidYMid meet">
<metadata>
Created by potrace 1.16, written by Peter Selinger 2001-2019
</metadata>
<g transform="translate(0.000000,479.000000) scale(0.100000,-0.100000)"
fill="#000000" stroke="none">
<path d="M1945 4676 c7 -45 7 -45 -41 -48 -49 -3 -49 -3 -49 -58 0 -53 1 -55
25 -52 69 8 65 10 68 -41 4 -62 -9 -77 -64 -77 -43 0 -43 0 -46 -57 -3 -58 -3
-58 -63 -69 -92 -16 -112 -22 -113 -36 -1 -7 -8 -38 -17 -68 -28 -101 -17
-176 45 -302 19 -39 24 -60 17 -67 -7 -7 -5 -12 7 -17 33 -13 41 12 19 58 -21
42 -65 167 -77 220 -5 23 -2 30 22 42 49 25 143 40 196 30 49 -9 49 -9 48
-109 -1 -117 8 -187 26 -193 15 -5 16 68 2 228 -6 63 -8 139 -4 168 5 44 10
53 29 58 33 8 63 -4 71 -28 3 -11 0 -110 -7 -219 -11 -175 -14 -199 -29 -199
-10 0 -30 -12 -44 -27 -25 -25 -29 -26 -37 -10 -15 26 -32 21 -25 -8 7 -29
-19 -36 -28 -7 -9 26 -106 28 -106 2 0 -18 -66 -57 -77 -46 -3 3 -15 -1 -27
-9 -26 -19 -46 -19 -46 0 0 8 -4 15 -9 15 -21 0 -73 69 -116 152 -25 47 -45
92 -45 100 0 15 57 51 70 43 4 -2 10 -23 13 -46 9 -69 105 -249 132 -249 19 0
20 26 2 33 -16 6 -69 113 -104 211 -32 88 -28 157 12 187 22 18 37 56 18 47
-112 -52 -147 -74 -164 -102 -10 -17 -19 -40 -19 -50 0 -11 -3 -16 -7 -12 -5
4 -8 12 -8 18 0 6 -7 16 -16 21 -26 16 -69 -16 -69 -51 0 -51 42 -69 75 -32
22 25 36 14 41 -31 4 -36 74 -172 107 -206 11 -13 26 -23 34 -23 23 0 14 -19
-12 -26 -29 -7 -33 -29 -7 -43 10 -5 38 -35 62 -65 41 -51 45 -62 50 -123 5
-66 5 -66 54 -83 28 -9 51 -21 53 -26 1 -5 -11 -27 -27 -49 -38 -52 -72 -125
-66 -142 3 -7 15 -13 26 -13 25 0 25 -11 -1 -61 -23 -46 -14 -69 26 -69 15 0
25 -7 29 -23 3 -13 23 -33 46 -46 42 -23 50 -38 25 -47 -8 -3 -24 -22 -36 -42
-33 -56 -70 -92 -94 -92 -12 0 -30 -7 -41 -15 -10 -8 -31 -15 -46 -15 -18 0
-28 -5 -28 -15 0 -10 10 -15 34 -15 40 0 66 -8 66 -21 0 -5 -52 -9 -115 -9
-115 0 -115 0 -115 -120 0 -66 -4 -120 -9 -120 -4 0 -16 26 -25 58 -29 94 -37
114 -74 172 -74 114 -81 184 -21 215 28 15 188 25 218 15 9 -3 16 2 19 13 2
11 -21 41 -67 87 -39 38 -71 74 -71 80 0 6 -26 23 -57 38 -70 32 -158 35 -213
8 -91 -47 -180 -169 -218 -301 -37 -126 -44 -181 -33 -237 5 -29 13 -75 16
-103 4 -27 13 -74 21 -102 14 -48 14 -61 -1 -135 -32 -159 -47 -204 -105 -308
-114 -206 -146 -276 -171 -370 -26 -102 -88 -191 -154 -221 -139 -63 -300 57
-282 211 7 61 21 87 92 181 68 89 102 153 111 208 16 101 -54 201 -140 201
-51 0 -76 -24 -76 -73 0 -20 -6 -30 -20 -34 -23 -6 -27 -31 -6 -39 21 -8 86
23 86 41 0 9 6 15 13 13 7 -3 13 -26 15 -55 3 -48 -1 -56 -60 -145 -96 -142
-109 -166 -124 -245 -30 -159 47 -313 194 -385 55 -28 76 -33 124 -30 102 4
194 62 259 161 9 14 20 21 27 17 15 -9 42 -101 42 -145 0 -54 -46 -164 -90
-214 -39 -44 -39 -44 7 -151 25 -58 43 -109 39 -113 -4 -4 -16 -1 -28 6 -18
11 -23 11 -33 -3 -14 -18 -36 -21 -51 -6 -20 20 -38 -15 -25 -51 13 -38 14
-59 2 -59 -19 0 -105 87 -122 125 -25 55 -24 87 8 151 14 30 24 57 21 60 -8 7
-61 -20 -77 -40 -7 -8 -15 -34 -18 -56 -3 -23 -10 -39 -17 -37 -5 2 -19 31
-30 65 -18 55 -18 68 -8 109 16 59 1 81 -30 43 -17 -21 -20 -34 -15 -87 4 -37
17 -83 32 -112 14 -28 22 -51 18 -51 -5 1 -26 13 -48 28 -43 30 -57 54 -101
170 -34 90 -50 94 -64 12 -6 -38 -6 -37 -84 -26 -44 7 -46 6 -46 -18 0 -14 16
-42 38 -67 72 -82 70 -81 111 -74 26 4 50 0 82 -13 50 -22 154 -86 164 -102 4
-6 -27 -10 -89 -10 -86 0 -97 2 -124 25 -32 27 -74 32 -108 12 -95 -55 -98
-106 -6 -107 18 0 22 -5 22 -33 0 -19 3 -36 6 -40 8 -8 81 29 117 59 26 22 57
32 57 18 0 -3 -5 -14 -10 -24 -16 -29 5 -32 34 -5 34 31 62 38 134 33 71 -5
173 -63 193 -109 14 -36 4 -51 -16 -22 -18 26 -70 39 -99 25 -11 -6 -40 -19
-63 -29 -69 -29 -59 -44 70 -104 29 -13 29 -13 3 -36 -31 -27 -33 -39 -5 -48
12 -4 33 -33 52 -71 31 -63 31 -63 14 -152 -23 -118 -23 -117 22 -132 31 -10
62 -10 152 -1 156 16 330 55 346 77 8 10 12 45 11 90 -1 41 0 75 3 77 4 4 192
-4 579 -23 242 -12 450 -10 755 10 83 5 200 11 260 13 110 4 110 4 111 -80 0
-73 3 -87 20 -97 32 -19 212 -54 342 -68 111 -11 126 -10 150 5 24 14 27 22
24 59 -2 24 -9 68 -17 98 -15 55 -15 55 17 118 18 35 41 70 50 79 26 23 22 39
-12 53 -40 17 -38 26 8 33 69 9 161 87 103 87 -10 0 -24 6 -30 14 -6 7 -31 19
-55 26 -39 11 -48 10 -85 -9 -41 -21 -41 -21 -41 4 0 20 12 33 53 58 123 78
197 82 289 15 22 -16 32 -5 19 21 -19 34 5 33 52 -3 25 -19 59 -42 76 -51 34
-17 37 -14 43 35 3 22 10 26 56 34 69 12 67 29 -10 84 -67 48 -93 50 -136 9
-20 -18 -40 -23 -120 -28 -53 -3 -99 -4 -102 -2 -9 8 65 62 137 99 62 32 78
36 116 31 43 -6 45 -5 84 41 44 54 73 97 73 111 0 5 -17 7 -39 4 -47 -6 -85
16 -100 58 -5 16 -14 29 -19 29 -7 0 -41 -67 -86 -172 -8 -21 -34 -51 -58 -68
-45 -33 -61 -26 -34 15 21 32 33 91 40 199 4 49 11 95 17 102 5 6 26 15 46 19
50 9 72 25 94 67 10 21 19 40 19 43 0 10 -45 4 -70 -10 -35 -20 -40 -19 -40
12 0 38 -41 133 -57 133 -17 0 -76 -126 -70 -150 6 -23 -5 -26 -22 -6 -17 21
-66 36 -82 25 -11 -6 -9 -14 9 -38 12 -17 22 -35 22 -41 0 -6 17 -18 38 -26
20 -9 44 -20 52 -24 20 -10 24 -54 7 -72 -11 -11 -14 -31 -10 -79 4 -47 0 -77
-14 -113 -22 -61 -43 -72 -43 -23 0 50 -7 64 -46 88 -49 30 -59 16 -27 -38 48
-83 26 -177 -59 -246 -68 -54 -70 -54 -62 -10 3 21 14 46 22 56 15 16 14 18
-6 24 -26 6 -27 14 -8 51 10 19 15 79 17 214 4 187 4 187 -27 220 -49 52 -84
122 -83 165 0 45 23 181 32 189 3 4 21 -6 39 -21 84 -71 171 -82 267 -34 69
35 103 76 127 155 22 75 4 122 -102 252 -45 55 -56 96 -32 120 20 20 48 14 60
-13 8 -18 19 -25 39 -25 36 0 46 16 19 30 -12 7 -20 19 -17 28 5 25 -20 70
-44 77 -52 17 -128 -25 -150 -83 -5 -13 -9 -50 -9 -83 0 -58 2 -63 55 -131 66
-84 84 -133 65 -178 -20 -48 -55 -70 -112 -70 -91 0 -138 34 -177 130 -13 30
-48 100 -79 154 -46 82 -57 110 -60 158 -3 39 -1 58 7 58 6 0 14 -6 17 -14 3
-8 33 -33 67 -55 50 -31 71 -39 107 -39 25 0 51 -1 59 -3 26 -7 23 30 -5 79
-53 89 -97 187 -101 222 -5 47 -34 109 -70 151 -16 18 -45 57 -65 84 -20 28
-48 61 -62 74 -26 24 -26 25 -21 151 5 146 -6 205 -60 317 -35 71 -35 71 -14
107 13 22 18 43 14 54 -6 15 -8 15 -25 -5 -25 -31 -42 -29 -38 4 4 35 -19 42
-32 9 -13 -35 -30 -33 -30 4 0 17 -4 30 -10 30 -12 0 -31 -35 -23 -44 3 -3 -1
-6 -10 -6 -11 0 -17 8 -17 24 0 39 -18 40 -40 4 -30 -50 -26 -64 18 -65 72 -1
122 -9 134 -21 11 -11 -20 -11 -129 3 -41 5 -84 -16 -148 -72 -27 -24 -53 -43
-58 -43 -15 0 -87 -53 -87 -65 0 -7 18 -12 53 -12 28 0 63 -3 77 -7 19 -6 34
-1 62 21 41 31 44 50 8 45 -12 -2 -33 -1 -47 3 -20 5 -23 8 -13 20 7 8 20 15
29 15 9 0 21 10 26 23 13 28 99 58 133 46 13 -5 36 -9 50 -9 15 0 37 -7 48
-15 29 -20 74 -118 77 -166 1 -21 5 -39 8 -39 12 0 18 -44 8 -56 -7 -9 -7 -19
0 -33 9 -16 8 -22 -6 -30 -17 -9 -17 -10 -1 -23 16 -11 16 -18 6 -53 -14 -46
-23 -55 -59 -55 -15 0 -48 -9 -73 -21 -62 -27 -86 -66 -86 -141 0 -53 -24
-138 -39 -138 -3 0 -19 30 -35 65 -41 92 -35 162 29 318 37 93 46 125 41 152
-6 28 -3 35 14 40 19 6 28 24 13 26 -28 3 -51 7 -74 13 -36 10 -45 -8 -15 -28
44 -28 42 -65 -8 -189 -53 -132 -69 -200 -53 -234 15 -33 3 -39 -31 -14 -37
26 -77 27 -99 2 -9 -11 -20 -18 -25 -15 -4 3 -8 43 -8 90 0 84 0 84 -117 84
-106 1 -116 2 -99 15 11 8 35 15 53 15 23 0 33 5 33 15 0 9 -9 15 -25 15 -46
0 -124 48 -158 97 -18 26 -40 53 -49 62 -25 22 -22 33 15 56 18 11 33 30 35
43 2 12 7 20 12 17 7 -5 70 22 70 30 0 3 -9 19 -20 37 -28 46 -26 68 5 68 40
0 31 37 -32 137 -18 29 -33 58 -33 66 0 8 20 22 45 31 45 18 45 18 45 81 0 64
0 64 70 137 38 40 70 76 70 79 0 10 -31 20 -41 13 -19 -11 -8 9 21 37 40 41
120 203 120 244 0 19 5 37 10 40 6 3 10 0 10 -8 0 -8 9 -22 19 -31 38 -35 84
9 66 63 -9 28 -51 38 -74 17 -23 -21 -31 -20 -31 2 0 46 -147 130 -275 157
-139 30 -130 24 -133 88 -3 56 -3 56 -55 59 -52 3 -52 3 -55 61 -3 59 -3 59
45 55 48 -3 48 -3 47 57 -2 57 -3 60 -25 57 -68 -8 -64 -11 -62 41 1 47 1 47
-58 47 -60 0 -60 0 -54 -44z m450 -478 c57 -40 76 -89 56 -146 -34 -94 -84
-218 -92 -227 -12 -13 -11 -35 2 -35 6 0 13 9 16 20 3 11 9 20 13 20 11 0 72
151 74 184 2 39 17 42 52 13 27 -24 27 -24 5 -78 -30 -73 -112 -194 -131 -194
-20 -1 -40 -14 -40 -27 0 -6 9 -8 20 -5 23 6 28 -11 5 -19 -18 -7 -117 29
-113 42 2 5 11 8 21 7 19 -3 24 23 5 30 -10 3 -10 11 0 38 60 154 66 175 66
259 1 47 -3 100 -8 118 -5 17 -6 32 -3 32 4 0 27 -14 52 -32z m-113 -83 c27
-10 50 -20 52 -24 7 -10 -27 -133 -58 -215 -14 -37 -26 -77 -26 -87 0 -13 -9
-19 -32 -22 -82 -11 -125 0 -114 30 3 8 -5 18 -21 26 -25 11 -26 12 -19 92 3
44 6 108 6 143 0 55 3 64 23 72 30 13 131 5 189 -15z m-902 -45 c0 -5 -9 -10
-20 -10 -11 0 -20 5 -20 10 0 6 9 10 20 10 11 0 20 -4 20 -10z m1257 4 c-3 -3
-12 -4 -19 -1 -8 3 -5 6 6 6 11 1 17 -2 13 -5z m13 -34 c0 -5 -5 -10 -11 -10
-5 0 -7 5 -4 10 3 6 8 10 11 10 2 0 4 -4 4 -10z m-579 -236 c7 -8 9 -17 6 -20
-10 -10 -35 3 -46 24 -9 17 -8 19 9 15 11 -3 25 -12 31 -19z m-61 -9 c0 -8 -9
-15 -20 -15 -11 0 -20 7 -20 15 0 8 9 15 20 15 11 0 20 -7 20 -15z m-190 -20
c11 -13 8 -15 -14 -15 -16 0 -26 5 -26 15 0 8 6 15 14 15 7 0 19 -7 26 -15z
m45 -5 c-3 -5 -11 -10 -16 -10 -6 0 -7 5 -4 10 3 6 11 10 16 10 6 0 7 -4 4
-10z m-265 -50 c0 -5 -2 -10 -4 -10 -3 0 -8 5 -11 10 -3 6 -1 10 4 10 6 0 11
-4 11 -10z m731 -90 c14 0 10 -27 -5 -33 -16 -7 -56 2 -56 12 0 14 25 31 38
26 8 -3 18 -5 23 -5z m-336 -90 c4 -6 -7 -10 -27 -9 -27 0 -30 2 -13 9 27 12
33 12 40 0z m49 -174 c14 -9 36 -16 48 -16 35 0 45 -11 52 -55 9 -52 -33 -192
-66 -222 -39 -35 -64 -44 -94 -33 -73 28 -101 66 -130 177 -19 71 -5 123 33
123 26 0 70 31 88 63 18 30 18 30 31 5 7 -14 24 -33 38 -42z m-658 -253 c24
-15 44 -31 44 -35 0 -4 -14 -29 -31 -57 -32 -51 -32 -51 -89 -51 -61 0 -103
22 -115 60 -8 26 -21 25 -35 0 -9 -18 -7 -25 18 -48 17 -16 33 -46 41 -76 6
-26 19 -55 27 -63 8 -9 13 -22 10 -30 -14 -36 -17 -63 -8 -63 6 0 12 8 15 18
3 12 7 9 17 -15 6 -18 16 -33 21 -33 5 0 9 -9 9 -19 0 -11 5 -23 10 -26 20
-12 52 -88 47 -111 -2 -13 2 -29 10 -35 8 -7 11 -20 7 -32 -4 -13 -2 -17 5
-13 7 5 11 -5 11 -29 0 -39 -21 -115 -31 -115 -4 0 -21 24 -38 54 -34 60 -48
74 -56 53 -3 -7 28 -64 70 -126 41 -61 75 -115 75 -118 0 -4 32 -39 70 -79 49
-51 70 -79 70 -97 0 -14 5 -38 10 -53 8 -19 8 -30 0 -38 -8 -8 -12 -4 -17 13
-6 25 -6 25 -15 2 -10 -28 -28 -18 -28 15 0 33 -25 81 -50 94 -11 6 -51 21
-90 34 -39 13 -92 40 -118 60 -43 33 -57 53 -76 109 -11 34 -31 12 -33 -36 -1
-26 1 -47 5 -47 12 0 122 -107 122 -119 0 -6 7 -8 16 -4 14 5 16 2 10 -20 -5
-20 -3 -27 9 -27 22 0 18 -15 -7 -33 -23 -16 -23 -16 -1 -10 21 5 21 5 0 -39
-25 -50 -99 -128 -123 -128 -11 0 -14 5 -9 18 4 9 9 34 12 55 5 30 3 37 -11
37 -14 0 -17 -8 -15 -32 3 -44 -8 -76 -32 -88 -15 -9 -19 -7 -19 5 0 9 -6 15
-12 13 -9 -3 -11 -18 -8 -44 12 -94 3 -250 -19 -339 -34 -138 -69 -203 -143
-265 -35 -29 -92 -80 -127 -112 -64 -60 -64 -60 -51 -112 29 -116 92 -221 151
-252 36 -18 37 -34 3 -34 -65 0 -107 57 -179 246 -13 34 -29 70 -36 82 -11 17
-9 24 15 53 30 35 126 231 126 256 0 10 -6 13 -16 9 -13 -5 -15 -1 -11 20 2
15 -3 52 -13 83 -10 31 -24 82 -31 114 -14 64 -36 73 -31 12 3 -25 0 -35 -7
-31 -6 4 -11 14 -11 22 0 8 -5 14 -11 14 -7 0 -9 -12 -5 -35 5 -23 2 -44 -8
-64 -19 -37 -96 -115 -128 -131 -18 -9 -17 -6 7 14 45 38 22 43 -29 6 -38 -27
-56 -34 -110 -37 -37 -2 -67 1 -71 7 -3 5 -13 10 -22 10 -9 0 -25 8 -35 18
-58 53 -91 91 -107 122 -26 48 -52 138 -42 144 5 3 11 29 14 58 6 55 29 105
104 221 61 94 86 155 79 193 -8 39 -40 73 -77 81 -40 8 -26 23 21 23 52 0 94
-36 109 -94 17 -67 0 -129 -59 -212 -127 -178 -140 -205 -140 -281 0 -24 6
-59 14 -77 20 -49 85 -116 131 -137 84 -39 192 -14 256 59 30 34 99 165 99
187 0 53 185 416 223 436 9 5 17 18 17 29 0 10 5 22 11 26 6 3 9 19 5 35 -5
25 13 132 29 171 3 9 18 19 31 22 14 4 22 11 19 17 -4 5 -1 16 5 24 10 12 15
11 31 -8 19 -22 19 -22 13 8 -4 17 -11 38 -16 48 -5 11 -5 17 2 17 5 0 10 -6
10 -14 0 -16 18 -31 26 -23 3 3 1 15 -6 26 -10 19 -8 23 19 32 37 13 38 19 6
42 -24 17 -24 17 -40 -12 -11 -22 -27 -33 -56 -41 -48 -13 -63 -2 -54 39 4 14
1 27 -6 32 -7 4 -14 25 -15 46 -1 21 -5 47 -10 57 -4 10 -2 32 3 47 9 24 9 29
-4 29 -16 0 -12 23 13 71 7 14 10 35 7 47 -3 12 3 35 15 54 11 18 17 39 15 45
-6 17 52 118 96 166 59 66 125 89 214 75 27 -4 68 -20 93 -35z m708 -115 c9
-17 14 -39 11 -49 -7 -21 -85 -48 -111 -38 -10 4 -31 8 -45 8 -40 1 -62 22
-54 53 6 25 8 25 85 22 71 -4 78 -3 83 16 7 27 13 25 31 -12z m100 -106 c17
-26 29 -53 27 -60 -4 -21 19 -42 45 -42 13 0 24 -2 24 -4 0 -2 3 -11 6 -20 9
-24 -33 -20 -81 7 -39 22 -85 86 -85 120 0 31 17 18 35 -25 10 -24 19 -38 22
-32 2 7 -5 28 -17 48 -39 71 -19 78 24 8z m-151 -82 c5 -19 17 -46 28 -61 10
-14 16 -29 12 -33 -8 -8 -183 -8 -183 0 0 3 16 24 35 47 19 22 35 47 35 54 0
14 37 34 55 29 5 -1 13 -18 18 -36z m469 -142 c8 -22 -4 -168 -13 -168 -11 0
-47 -71 -43 -85 1 -5 5 -23 8 -38 5 -22 11 -27 26 -22 18 6 20 2 20 -41 0 -35
-6 -54 -21 -70 -15 -16 -19 -29 -14 -41 5 -10 7 -26 6 -35 -1 -11 4 -18 13
-18 11 0 16 -9 16 -30 0 -30 0 -30 -190 -30 -190 0 -190 0 -190 50 0 49 0 49
-62 52 -63 3 -63 3 -66 246 -2 242 -2 242 252 242 194 0 255 -3 258 -12z m566
-48 c48 -45 54 -63 17 -54 -19 5 -25 2 -25 -10 0 -9 8 -16 21 -16 11 0 18 -4
14 -9 -3 -5 -1 -12 5 -16 5 -3 10 1 10 9 0 9 2 16 4 16 21 0 106 -71 106 -89
0 -4 9 -16 20 -26 11 -10 20 -22 20 -27 0 -16 -58 -8 -84 13 -31 25 -35 45 -5
29 23 -13 38 -5 22 11 -6 6 -37 11 -68 12 -36 1 -60 7 -62 14 -3 9 4 11 25 7
17 -4 32 -1 36 5 5 7 -2 11 -19 11 -14 0 -47 10 -73 22 -26 11 -63 23 -82 25
-37 4 -60 19 -60 38 0 15 28 28 42 19 9 -6 27 12 28 27 0 12 -55 -4 -67 -19
-7 -9 -16 -12 -20 -8 -9 9 8 37 28 46 8 4 23 11 34 17 31 16 86 -4 133 -47z
m-188 -67 c1 -58 29 -106 69 -117 21 -6 39 -6 50 0 9 6 34 9 56 7 22 -2 47 -3
57 -4 9 0 24 -9 34 -20 17 -18 16 -19 -27 -15 -24 2 -46 5 -49 6 -13 5 -76 -3
-87 -11 -7 -7 -14 -6 -18 2 -4 6 -19 9 -35 5 -26 -5 -30 -1 -49 47 -26 66 -31
137 -11 137 6 0 10 -17 10 -37z m-207 -31 c9 -8 17 -21 17 -29 0 -21 -24 -15
-50 12 -24 25 -50 33 -50 16 0 -6 5 -13 10 -16 21 -13 9 -24 -15 -13 -32 15
-32 29 2 50 29 17 48 13 86 -20z m309 -12 c13 0 33 -7 44 -15 25 -20 6 -33
-44 -30 -56 3 -56 3 -71 26 -10 18 -10 23 0 30 7 4 21 3 30 -2 10 -5 28 -9 41
-9z m-418 -27 c33 -27 26 -36 -27 -39 -45 -2 -48 -1 -34 14 8 9 12 23 10 30
-7 18 25 15 51 -5z m171 -23 c10 -22 24 -45 32 -51 19 -16 16 -29 -6 -29 -27
0 -67 59 -63 93 5 38 16 34 37 -13z m-93 -7 c18 -21 33 -63 22 -63 -16 0 -54
44 -54 62 0 23 12 23 32 1z m-14 -63 c34 -27 45 -31 51 -21 5 8 14 10 20 7 16
-10 14 -26 -3 -26 -8 0 -16 -6 -19 -12 -3 -9 -11 -7 -28 8 -44 38 -78 54 -114
54 -44 0 -43 22 1 31 32 6 31 6 92 -41z m268 -17 c9 -16 25 -40 36 -55 21 -32
16 -73 -12 -88 -10 -6 -40 -10 -67 -11 -36 0 -43 -3 -28 -9 12 -5 14 -9 6 -9
-8 -1 -23 6 -33 16 -12 11 -45 18 -95 23 -70 5 -79 4 -104 -17 -15 -13 -35
-23 -45 -23 -16 1 -13 5 11 25 31 26 24 32 -20 15 -24 -9 -25 -8 -15 10 6 11
19 20 30 20 10 0 22 5 25 10 3 6 -3 10 -14 10 -18 0 -21 6 -21 45 0 44 1 45
23 34 12 -6 36 -25 54 -42 32 -30 32 -30 135 21 57 28 106 51 110 51 4 1 15
-11 24 -26z m59 -3 c5 -8 11 -8 19 -1 17 14 39 -11 55 -61 7 -20 23 -44 36
-52 27 -18 60 -74 50 -84 -11 -11 -185 180 -185 203 0 9 19 5 25 -5z m178 -7
c27 -4 37 -2 37 7 0 9 8 6 23 -7 12 -11 27 -19 33 -16 16 5 37 -23 79 -107 21
-41 49 -90 63 -108 33 -46 17 -55 -20 -12 -16 19 -33 34 -38 33 -8 -2 -30 28
-95 132 -21 33 -40 55 -42 49 -4 -11 46 -101 94 -169 35 -49 37 -55 25 -55
-20 0 -111 105 -143 166 -32 59 -49 78 -49 54 0 -21 43 -96 82 -143 22 -27 38
-50 36 -53 -10 -9 -81 57 -100 93 -11 21 -25 43 -32 48 -6 6 -10 17 -9 25 2 9
-3 24 -11 35 -13 18 -14 18 -10 -10 2 -17 1 -23 -2 -15 -4 8 -14 23 -22 33
-14 16 -14 19 -2 28 8 5 26 7 40 4 14 -3 42 -8 63 -12z m-414 -162 c30 -5 35
-11 50 -61 20 -64 47 -118 98 -198 36 -56 36 -56 -2 -87 -64 -50 -133 -127
-162 -180 -25 -45 -28 -60 -28 -145 0 -79 4 -104 24 -150 46 -104 27 -166 -87
-283 -47 -47 -62 -57 -91 -57 -40 0 -110 -19 -131 -35 -8 -7 -23 -15 -32 -18
-21 -7 -59 -67 -52 -79 7 -11 44 -10 44 2 0 12 37 13 44 1 3 -5 15 -7 26 -4
26 7 25 -2 -2 -54 -22 -41 -38 -55 -38 -33 0 16 -43 50 -62 50 -11 0 -30 -12
-43 -27 -28 -33 -37 -27 -37 23 0 41 -47 129 -82 154 -62 44 -100 46 -77 2 6
-10 7 -23 3 -27 -4 -3 -7 -27 -7 -52 -1 -36 -6 -48 -25 -63 -24 -18 -25 -18
-46 1 -29 28 -60 24 -93 -13 -42 -47 -54 -32 -48 62 3 42 10 87 16 98 17 32
-3 35 -56 8 -55 -28 -107 -78 -122 -118 -10 -28 -34 -37 -46 -18 -3 6 -19 10
-35 10 -20 0 -33 7 -41 21 -10 19 -17 21 -60 16 -84 -10 -195 41 -230 106 -13
23 4 114 47 253 19 61 34 131 34 155 0 62 -38 134 -110 209 -33 33 -60 67 -60
75 0 7 25 44 55 81 31 38 71 102 89 142 19 41 38 78 43 83 13 13 63 -28 63
-52 0 -10 5 -19 10 -19 6 0 10 -4 10 -10 0 -5 -7 -10 -15 -10 -15 0 -17 -8
-19 -68 -1 -29 1 -32 22 -27 19 5 22 1 22 -22 0 -41 71 -193 126 -270 66 -93
203 -227 297 -290 92 -62 82 -63 214 36 240 181 372 403 411 693 9 65 20 118
24 118 4 0 8 -5 8 -11 0 -5 5 -7 10 -4 6 3 10 19 10 35 0 33 52 72 85 62 11
-3 35 -8 54 -11z m351 -58 c32 -38 40 -54 36 -75 -7 -34 19 -99 37 -92 8 3 35
-40 77 -123 82 -163 92 -177 146 -209 34 -20 59 -27 101 -27 61 0 93 18 131
73 39 57 23 126 -47 210 -54 64 -61 81 -61 145 0 51 3 60 34 91 36 36 81 45
104 22 21 -21 13 -29 -22 -22 -46 8 -86 -29 -86 -78 1 -33 12 -51 99 -162 32
-42 45 -68 49 -101 14 -132 -110 -241 -246 -216 -49 10 -120 56 -135 88 -6 13
-14 23 -19 23 -5 0 -20 12 -34 27 -34 37 -50 19 -28 -32 9 -22 13 -49 9 -64
-3 -14 -8 -46 -10 -71 -7 -87 -17 -134 -31 -154 -16 -23 -19 -66 -5 -66 6 0
13 5 16 10 13 22 41 9 53 -23 7 -19 28 -48 47 -66 36 -33 49 -79 19 -67 -14 5
-15 -4 -9 -86 13 -191 11 -220 -14 -286 -25 -67 -35 -76 -93 -85 -41 -6 -52 7
-15 18 12 4 36 21 54 38 42 40 57 106 51 228 -6 121 -28 171 -118 266 -67 70
-164 194 -188 240 -18 33 -42 158 -42 216 0 29 5 70 11 92 23 88 23 89 6 82
-11 -4 -23 3 -35 21 -23 32 -122 209 -122 218 0 3 8 3 18 -1 9 -4 41 -9 70
-10 38 -2 52 1 52 11 0 8 8 14 18 14 9 0 26 7 36 15 30 23 41 19 86 -32z m195
-33 c3 -5 2 -10 -4 -10 -5 0 -13 5 -16 10 -3 6 -2 10 4 10 5 0 13 -4 16 -10z
m75 -9 c15 -28 13 -33 -10 -21 -11 6 -20 17 -20 25 0 21 17 18 30 -4z m-1482
-103 c3 -77 3 -77 60 -80 57 -3 57 -3 60 -308 1 -168 0 -311 -3 -318 -4 -10
-19 -4 -58 24 -150 107 -281 254 -348 390 -37 75 -51 133 -30 119 5 -3 26 19
46 50 33 49 36 59 30 96 -4 24 -18 53 -31 66 -13 13 -24 28 -24 34 0 6 56 8
148 7 147 -3 147 -3 150 -80z m-270 -13 c15 -32 15 -45 2 -45 -5 0 -10 9 -10
19 0 11 -4 23 -10 26 -12 8 -13 25 -2 25 5 0 14 -11 20 -25z m1296 -227 c14
-50 36 -181 36 -213 0 -19 -39 -39 -71 -37 -17 1 -29 -4 -33 -14 -9 -24 2 -35
29 -28 32 8 36 -5 19 -57 -14 -37 -14 -52 -3 -97 14 -58 6 -84 -25 -90 -18 -4
-17 -3 -162 -143 -77 -74 -107 -97 -134 -102 -19 -3 -43 -8 -52 -12 -15 -6
-16 -4 -5 19 9 20 19 26 44 26 39 0 89 41 162 134 77 97 86 158 37 251 -18 33
-21 55 -19 132 1 80 6 100 29 143 27 49 108 140 124 140 5 0 16 -24 24 -52z
m-1627 -127 c91 -110 97 -159 40 -347 -20 -67 -37 -131 -37 -144 0 -15 -4 -20
-15 -17 -28 11 -26 -14 4 -63 45 -73 87 -106 161 -129 36 -10 74 -21 84 -23
11 -1 21 -9 24 -17 4 -11 -7 -13 -55 -9 -66 6 -129 34 -185 82 -20 17 -48 39
-62 49 -14 10 -26 27 -26 37 0 11 -9 24 -20 30 -17 9 -19 19 -15 87 4 72 6 78
34 95 29 19 49 53 37 65 -10 11 -56 -16 -56 -32 0 -25 -18 -17 -35 14 -12 24
-13 40 -5 83 7 36 7 54 0 56 -18 6 -10 30 13 36 22 6 22 6 2 22 -19 15 -19 16
-1 29 10 7 15 18 12 24 -4 5 -2 12 4 16 6 4 8 10 5 15 -3 5 1 25 9 45 20 46
43 45 83 -4z m1729 -183 c21 -42 71 -104 155 -194 101 -107 104 -115 104 -276
0 -137 0 -137 -29 -167 -17 -17 -40 -31 -51 -31 -12 0 -39 -13 -60 -30 -37
-29 -61 -31 -51 -4 8 20 -25 34 -78 34 -34 0 -46 4 -50 18 -5 18 -1 60 9 102
5 21 2 28 -18 39 -22 12 -28 11 -56 -10 -17 -12 -31 -31 -31 -40 0 -25 -19
-34 -27 -12 -16 42 -43 37 -43 -8 0 -30 -25 -79 -41 -79 -4 0 -16 14 -26 30
-9 17 -22 30 -29 30 -17 0 -47 -38 -50 -63 -1 -12 -3 -25 -3 -29 -1 -11 -42
-31 -48 -24 -3 3 0 13 8 22 9 11 12 40 10 96 -3 73 -1 80 18 85 15 4 21 13 21
34 0 16 3 29 8 29 4 0 41 32 82 71 41 38 101 88 133 110 57 40 57 40 51 139
-7 99 -7 99 24 129 38 39 48 39 68 -1z m-1889 -163 c35 -35 35 -35 28 -144 -7
-108 -7 -108 69 -156 76 -47 82 -56 70 -102 -8 -31 -15 -29 -42 12 -17 27 -29
35 -52 35 -16 0 -32 5 -35 10 -11 17 -23 11 -29 -15 -4 -16 -1 -34 8 -47 11
-15 12 -26 6 -33 -7 -9 -5 -16 5 -25 26 -22 17 -28 -52 -35 -79 -9 -93 -17
-93 -56 0 -16 -3 -29 -6 -29 -19 0 -42 23 -47 48 -9 46 -57 55 -57 11 0 -35
-18 -20 -54 44 -43 77 -54 133 -33 173 9 16 61 74 117 129 103 102 129 137
135 184 2 14 4 27 4 29 3 11 29 -4 58 -33z m216 -436 c-19 -20 -43 -19 -43 1
0 9 52 30 59 23 3 -2 -5 -13 -16 -24z m102 -3 c17 -12 17 -16 6 -30 -13 -15
-15 -15 -32 0 -38 34 -14 60 26 30z m1641 -173 c-11 -11 -19 6 -11 24 8 17 8
17 12 0 3 -10 2 -21 -1 -24z m-1711 -93 c158 -12 970 -11 1155 1 231 15 466
22 494 15 15 -4 35 -15 45 -25 17 -17 18 -32 14 -165 -3 -130 -2 -146 13 -146
13 0 15 10 11 70 -3 38 -4 70 -3 70 0 0 37 -7 81 -15 44 -8 101 -14 126 -15
25 0 54 -6 65 -14 18 -14 18 -15 1 -22 -10 -3 -29 -29 -43 -56 -24 -48 -24
-50 -10 -111 31 -128 31 -124 -3 -132 -35 -7 -193 9 -306 31 -44 9 -93 17
-109 18 -34 2 -46 22 -19 30 10 3 52 13 93 21 81 17 120 37 120 61 0 28 -101
64 -217 78 -110 13 -125 12 -664 -14 -170 -8 -298 -8 -465 0 -454 21 -531 22
-656 12 -150 -13 -237 -43 -238 -84 0 -17 52 -39 130 -54 47 -8 91 -21 99 -29
12 -11 8 -15 -25 -20 -21 -3 -88 -15 -149 -25 -60 -10 -152 -22 -202 -26 -77
-5 -94 -4 -99 9 -3 8 4 52 15 98 19 81 19 85 2 124 -10 22 -28 49 -40 59 -30
27 -27 34 22 40 106 13 202 27 223 32 21 5 24 3 24 -21 0 -17 5 -25 13 -22 6
2 11 17 10 33 -6 72 -2 179 8 190 6 7 20 15 32 18 28 6 296 -2 452 -14z"/>
<path d="M2314 3765 c0 -14 6 -23 11 -22 14 5 13 39 -1 44 -7 2 -11 -6 -10
-22z"/>
<path d="M2186 3813 c-4 -4 -15 -8 -23 -8 -9 0 -18 -5 -20 -12 -3 -8 9 -11 36
-10 23 1 41 2 41 3 0 1 -3 9 -6 18 -7 17 -16 20 -28 9z"/>
<path d="M1884 3305 c-16 -42 26 -59 72 -29 19 13 22 20 13 30 -16 19 -78 18
-85 -1z"/>
<path d="M2031 3306 c-13 -16 2 -32 19 -21 6 4 9 1 8 -7 -3 -14 40 -24 53 -11
5 5 6 18 3 31 -5 17 -14 22 -39 22 -18 0 -38 -6 -44 -14z"/>
<path d="M1950 3179 c0 -14 45 -28 69 -22 12 3 20 10 19 15 -5 13 -88 19 -88
7z"/>
<path d="M1950 3127 c0 -25 43 -36 73 -20 37 19 25 33 -29 33 -30 0 -44 -4
-44 -13z"/>
<path d="M1286 3102 c-9 -15 22 -42 49 -42 48 0 37 32 -16 45 -15 4 -30 2 -33
-3z"/>
<path d="M1270 2680 c0 -5 5 -10 10 -10 6 0 10 5 10 10 0 6 -4 10 -10 10 -5 0
-10 -4 -10 -10z"/>
<path d="M1030 2481 c0 -6 5 -13 10 -16 6 -3 10 1 10 9 0 9 -4 16 -10 16 -5 0
-10 -4 -10 -9z"/>
<path d="M1250 1950 c0 -5 5 -10 11 -10 5 0 7 5 4 10 -3 6 -8 10 -11 10 -2 0
-4 -4 -4 -10z"/>
<path d="M1200 1854 c0 -8 5 -12 10 -9 6 3 10 10 10 16 0 5 -4 9 -10 9 -5 0
-10 -7 -10 -16z"/>
<path d="M613 1400 c-33 -40 -28 -49 7 -15 29 28 38 46 23 44 -5 0 -18 -13
-30 -29z"/>
<path d="M2377 2593 c-14 -13 -6 -33 13 -33 13 0 20 7 20 20 0 19 -20 27 -33
13z"/>
<path d="M2367 2244 c-8 -8 1 -24 14 -24 5 0 9 7 9 15 0 15 -12 20 -23 9z"/>
<path d="M3005 2613 c-27 -7 -36 -16 -27 -30 11 -17 72 -29 72 -14 0 6 -7 11
-15 11 -8 0 -15 5 -15 10 0 6 7 10 16 10 8 0 12 5 9 10 -6 10 -8 11 -40 3z"/>
<path d="M3160 2306 c0 -8 5 -18 10 -21 6 -3 10 1 10 9 0 8 -4 18 -10 21 -5 3
-10 -1 -10 -9z"/>
<path d="M3271 2250 c18 -33 34 -58 36 -56 5 4 -56 116 -64 116 -2 0 10 -27
28 -60z"/>
<path d="M3200 2241 c0 -5 5 -13 10 -16 6 -3 10 -2 10 4 0 5 -4 13 -10 16 -5
3 -10 2 -10 -4z"/>
<path d="M1921 1774 c0 -11 3 -14 6 -6 3 7 2 16 -1 19 -3 4 -6 -2 -5 -13z"/>
<path d="M2826 1314 c-10 -27 -7 -56 7 -52 14 5 23 68 9 68 -6 0 -13 -7 -16
-16z"/>
<path d="M837 294 c-11 -11 -8 -44 3 -44 15 0 24 30 13 41 -5 5 -12 6 -16 3z"/>
<path d="M2800 3141 c-31 -9 -33 -35 -3 -39 28 -4 63 14 63 33 0 16 -19 18
-60 6z"/>
<path d="M2940 2750 c0 -5 7 -10 15 -10 8 0 15 5 15 10 0 6 -7 10 -15 10 -8 0
-15 -4 -15 -10z"/>
</g>
</svg>
