<?xml version="1.0" standalone="no"?>
<!DOCTYPE svg PUBLIC "-//W3C//DTD SVG 20010904//EN"
 "http://www.w3.org/TR/2001/REC-SVG-20010904/DTD/svg10.dtd">
<svg version="1.0" xmlns="http://www.w3.org/2000/svg"
 width="385.000000pt" height="464.000000pt" viewBox="0 0 385.000000 464.000000"
 preserveAspectRatio="xMidYMid meet">
<metadata>
Created by potrace 1.16, written by Peter Selinger 2001-2019
</metadata>
<g transform="translate(0.000000,464.000000) scale(0.100000,-0.100000)"
fill="#000000" stroke="none">
<path d="M1876 4560 c-38 -37 -39 -40 -28 -79 12 -49 3 -58 -39 -41 -28 12
-31 10 -69 -31 -21 -24 -39 -47 -40 -51 0 -4 19 -28 43 -52 41 -43 43 -44 70
-30 39 21 50 10 43 -45 -4 -34 -2 -52 9 -66 19 -26 19 -51 0 -59 -8 -3 -15
-10 -15 -16 0 -17 26 -11 45 10 23 26 38 25 69 -3 25 -23 25 -23 -5 -67 -17
-25 -34 -46 -38 -48 -5 -1 -14 11 -21 27 -6 16 -20 37 -29 45 -22 20 -72 29
-90 17 -17 -11 -18 -60 -2 -120 10 -37 9 -46 -4 -61 -8 -9 -15 -22 -15 -28 0
-7 -7 -12 -15 -12 -10 0 -15 -11 -15 -35 0 -42 -11 -44 -40 -7 -19 23 -21 36
-17 85 5 57 4 59 -16 52 -49 -15 -67 -17 -67 -6 0 6 11 18 25 27 28 18 31 40
10 68 -8 11 -15 32 -15 48 0 15 -5 28 -10 28 -18 0 -68 -29 -72 -41 -3 -9 -9
-9 -23 -2 -15 9 -28 6 -57 -10 -21 -12 -38 -27 -38 -34 0 -27 24 -63 50 -71
19 -7 29 -19 33 -41 5 -25 12 -31 31 -31 14 0 28 -4 31 -10 10 -16 19 -12 30
12 11 26 42 35 59 18 8 -8 4 -16 -16 -32 -54 -39 -29 -127 40 -145 15 -3 27
-1 32 7 4 7 13 9 19 6 6 -4 24 2 40 13 56 40 84 16 36 -29 -28 -26 -32 -40
-12 -40 16 0 55 41 91 95 44 67 29 128 -34 137 -21 2 -25 9 -25 34 -1 18 -7
39 -14 48 -17 21 -7 46 19 46 13 0 33 -18 56 -50 38 -53 60 -60 79 -25 27 53
49 75 71 75 32 0 39 -21 21 -57 -9 -16 -15 -38 -14 -48 2 -15 -5 -20 -25 -20
-80 -2 -76 -104 7 -204 25 -29 55 -42 55 -23 0 5 -11 19 -25 32 -14 13 -25 29
-25 37 0 15 36 18 44 4 4 -5 31 -17 61 -26 53 -17 55 -17 92 5 35 20 38 21 50
4 18 -24 9 -32 -74 -71 -41 -19 -76 -40 -79 -47 -6 -16 53 -116 69 -116 6 0
28 12 49 26 44 31 64 27 73 -16 11 -52 -1 -55 -127 -31 -148 28 -362 29 -493
2 -49 -10 -97 -22 -106 -25 -26 -11 -41 19 -45 92 -4 56 0 79 19 123 37 85 40
103 16 133 -34 43 -96 30 -87 -18 6 -32 -16 -36 -34 -6 -15 24 -28 26 -28 5 0
-18 -17 -20 -23 -2 -5 15 13 57 25 57 4 0 8 11 8 25 0 14 -5 25 -12 25 -6 0
-20 8 -30 17 -14 13 -21 14 -30 5 -21 -21 -28 -13 -28 33 0 42 -11 58 -25 35
-3 -5 -30 -10 -60 -10 -30 0 -56 -4 -59 -9 -3 -4 10 -26 30 -47 41 -46 217
-309 299 -447 48 -82 56 -103 51 -129 -4 -22 -1 -37 10 -49 9 -10 14 -22 13
-27 -11 -30 -192 -176 -258 -210 -68 -34 -83 -37 -170 -40 -86 -3 -99 -1 -124
18 -31 25 -36 50 -9 50 10 0 26 6 36 13 18 13 55 106 56 139 0 9 7 24 16 32
13 14 14 26 5 85 -6 39 -11 72 -11 75 0 3 -22 32 -49 64 -66 79 -131 112 -221
112 -55 0 -78 -6 -128 -31 -94 -46 -175 -159 -188 -260 -4 -27 -10 -49 -14
-49 -15 0 -20 33 -20 141 0 76 -5 120 -16 149 -15 38 -44 55 -44 26 0 -8 -18
-49 -40 -91 -21 -43 -42 -97 -46 -121 -7 -48 -11 -52 -29 -27 -7 9 -16 13 -22
10 -16 -10 -36 -113 -31 -161 7 -57 -8 -60 -51 -10 -44 49 -55 41 -52 -37 2
-60 21 -118 53 -161 20 -28 5 -29 -66 -8 -36 12 -71 18 -76 15 -16 -10 48
-121 91 -160 22 -19 39 -39 39 -43 0 -5 -27 -21 -60 -37 -33 -16 -60 -32 -60
-36 0 -15 65 -53 109 -65 25 -6 45 -15 45 -20 -2 -8 -62 -43 -161 -96 -24 -12
-43 -28 -43 -34 0 -25 109 -55 192 -53 43 1 78 -1 78 -5 1 -3 -13 -35 -30 -69
-16 -34 -37 -96 -45 -137 -8 -41 -17 -85 -20 -97 -4 -18 -1 -23 13 -23 23 0
97 49 136 89 17 17 32 31 35 31 4 0 5 -73 4 -163 -2 -183 -9 -208 -82 -316
-49 -71 -84 -101 -122 -101 -33 0 -46 -15 -23 -28 29 -16 67 0 116 49 56 56
63 50 15 -13 -47 -62 -91 -88 -146 -88 -82 0 -121 48 -121 150 0 56 3 65 31
91 44 41 67 37 34 -7 -33 -43 -6 -114 43 -114 34 0 68 23 86 58 64 129 -22
255 -134 197 -79 -41 -121 -243 -69 -335 26 -46 80 -80 126 -80 36 1 103 31
127 59 35 38 41 27 41 -77 0 -84 4 -106 29 -162 15 -36 33 -77 39 -93 10 -23
5 -45 -31 -155 -23 -70 -42 -141 -42 -158 0 -16 16 -63 36 -104 20 -41 45
-113 55 -159 10 -46 27 -93 36 -103 15 -17 15 -20 3 -28 -8 -6 -23 -10 -33
-10 -40 0 -153 -67 -211 -125 -64 -63 -143 -171 -133 -181 3 -3 30 3 60 15 69
25 152 37 161 23 4 -6 -16 -57 -43 -113 -28 -56 -48 -106 -45 -110 2 -4 28 3
57 16 95 44 286 75 459 75 102 0 121 11 139 80 7 27 17 50 21 50 5 0 30 -11
56 -24 58 -29 235 -87 367 -121 224 -56 567 -85 794 -65 303 26 608 99 793
191 32 15 59 25 62 21 2 -4 7 -27 11 -51 9 -55 35 -81 83 -82 143 -3 247 -9
312 -19 82 -11 191 -44 228 -68 45 -29 42 1 -8 102 -28 54 -50 105 -50 113 0
22 81 12 160 -20 33 -14 62 -21 65 -17 9 14 -82 135 -145 193 -107 100 -231
143 -389 135 -91 -4 -91 -4 -97 28 -6 34 0 54 17 54 5 0 9 -9 9 -20 0 -23 10
-26 29 -8 10 11 16 8 30 -10 17 -24 17 -24 62 20 25 23 61 55 80 70 23 17 43
44 54 75 10 26 34 76 52 110 39 71 67 198 53 241 -5 15 -24 64 -43 110 -34 82
-34 82 -1 180 20 56 34 117 34 145 0 50 15 62 41 30 21 -24 89 -53 130 -53 46
0 97 34 126 85 48 85 20 251 -53 314 -55 49 -129 38 -159 -24 -27 -58 -12
-145 33 -190 64 -64 149 3 108 84 -21 40 -20 44 7 29 12 -7 26 -12 30 -13 30
-1 37 -111 11 -174 -20 -50 -51 -71 -106 -71 -53 0 -104 26 -139 71 -50 63
-44 81 10 27 44 -44 53 -49 88 -46 48 4 48 21 0 29 -20 3 -43 12 -52 19 -36
30 -103 128 -125 185 -22 53 -25 76 -25 200 -1 77 -5 148 -9 158 -15 31 17 19
64 -26 25 -24 62 -54 83 -66 32 -19 38 -20 43 -7 13 34 -17 162 -56 243 -22
44 -40 83 -40 85 0 1 37 1 82 0 66 -3 95 1 141 18 57 22 74 45 40 57 -39 13
-192 106 -188 113 3 4 22 11 42 15 44 7 103 44 103 63 0 7 -8 15 -17 19 -10 3
-37 17 -59 30 -41 23 -41 23 15 81 54 55 101 135 88 149 -4 3 -37 -4 -73 -15
-37 -12 -70 -19 -74 -17 -5 3 5 29 20 58 35 64 52 183 28 192 -9 4 -29 -8 -51
-30 -46 -46 -59 -45 -51 5 7 41 -12 167 -27 176 -5 2 -14 -4 -21 -16 -19 -30
-25 -25 -33 25 -3 25 -24 79 -46 120 -21 41 -39 83 -39 95 0 33 -20 23 -40
-22 -15 -34 -20 -66 -20 -148 0 -157 -16 -196 -38 -92 -34 165 -157 282 -297
282 -95 0 -149 -23 -217 -94 -41 -44 -59 -71 -63 -96 -3 -19 -11 -54 -19 -78
-12 -37 -12 -45 1 -57 7 -8 23 -47 35 -87 22 -78 46 -108 84 -108 13 0 24 -4
24 -9 0 -18 -61 -60 -96 -67 -52 -10 -156 10 -227 44 -62 29 -193 132 -243
192 -25 29 -26 32 -9 50 12 13 15 27 11 46 -5 20 2 44 30 98 46 89 253 404
310 472 24 28 40 54 37 58 -3 3 -30 6 -59 6 -29 0 -56 5 -59 10 -13 22 -25 8
-25 -29 0 -40 -13 -61 -25 -41 -9 15 -17 13 -52 -18 -37 -31 -40 -40 -19 -56
19 -14 32 -66 17 -66 -6 0 -11 5 -11 10 0 19 -21 10 -32 -15 -16 -36 -28 -31
-28 14 0 63 -52 71 -94 16 -15 -20 -31 -33 -36 -30 -5 3 -25 -4 -44 -16 -31
-18 -36 -19 -36 -5 0 20 45 50 61 41 14 -9 29 12 29 41 0 13 -10 25 -26 33
-14 6 -24 17 -21 24 6 20 35 19 56 -2 16 -16 28 -19 53 -14 37 7 48 18 48 50
0 14 9 24 28 31 15 5 34 22 42 37 14 25 13 28 -9 46 -31 25 -74 36 -79 20 -2
-7 -17 0 -38 19 -51 45 -74 37 -74 -25 0 -13 -4 -27 -10 -30 -18 -11 -11 -37
16 -57 35 -28 18 -44 -30 -27 -43 16 -54 8 -33 -24 17 -26 12 -67 -13 -104
-21 -32 -40 -29 -40 7 0 17 -5 30 -12 30 -7 0 -21 18 -31 40 -18 38 -18 40 4
91 23 52 23 52 0 70 -13 11 -29 19 -36 19 -6 0 -20 9 -30 20 -10 11 -24 20
-31 20 -24 0 -26 21 -5 44 17 18 20 30 14 74 -5 43 -3 53 11 58 10 4 22 2 29
-5 20 -20 42 -12 87 34 44 44 44 44 -3 91 -43 44 -48 47 -72 36 -54 -25 -71
-6 -39 43 15 23 14 25 -30 69 -25 25 -48 46 -53 46 -4 -1 -26 -18 -47 -40z
m75 -26 c15 -14 17 -26 12 -75 -7 -68 4 -78 63 -59 34 11 38 10 62 -14 27 -26
27 -26 1 -52 -24 -24 -29 -25 -69 -14 -23 6 -46 8 -51 3 -4 -4 -9 -39 -11 -78
-3 -61 -5 -70 -23 -73 -39 -5 -48 12 -46 84 2 67 2 67 -53 61 -44 -4 -57 -2
-70 12 -22 25 -20 48 7 66 19 12 30 13 55 4 54 -19 66 -7 58 58 -5 45 -3 60
10 74 21 23 32 24 55 3z m-371 -479 c0 -8 6 -24 12 -35 11 -17 9 -22 -11 -36
-15 -11 -21 -23 -18 -35 6 -22 -19 -53 -34 -43 -10 6 -6 41 13 104 6 19 12 41
14 48 5 17 24 15 24 -3z m716 -10 c9 -14 14 -31 11 -40 -4 -8 0 -27 8 -42 21
-40 19 -55 -7 -51 -18 2 -24 11 -26 35 -2 20 -11 37 -23 43 -25 14 -24 30 1
30 11 0 20 5 20 10 0 6 -4 10 -10 10 -5 0 -10 7 -10 15 0 23 18 18 36 -10z
m-802 -36 c26 -20 27 -39 2 -39 -22 0 -60 36 -52 48 10 17 19 15 50 -9z m906
3 c0 -17 -36 -42 -60 -42 -18 0 -10 28 13 43 30 21 47 21 47 -1z m-1079 -128
c17 -36 29 -67 26 -70 -6 -6 -97 112 -97 126 0 6 9 10 20 10 15 0 28 -17 51
-66z m1279 60 c0 -11 -101 -152 -122 -170 -22 -19 -22 -19 -1 16 40 66 73 133
73 146 0 8 11 14 25 14 14 0 25 -3 25 -6z m-1220 -69 c0 -8 -4 -15 -10 -15 -5
0 -10 7 -10 15 0 8 5 15 10 15 6 0 10 -7 10 -15z m670 -11 c0 -18 -6 -28 -21
-31 -14 -4 -19 -12 -16 -24 3 -11 2 -19 -2 -19 -16 0 -31 26 -31 56 0 28 4 33
28 37 15 2 30 5 35 6 4 0 7 -11 7 -25z m438 8 c2 -7 -3 -12 -12 -12 -9 0 -16
7 -16 16 0 17 22 14 28 -4z m-645 -4 c49 -23 27 -59 -24 -38 -32 14 -31 12
-23 34 7 19 12 20 47 4z m-193 -32 c0 -3 -4 -8 -10 -11 -5 -3 -10 -1 -10 4 0
6 5 11 10 11 6 0 10 -2 10 -4z m570 -6 c0 -5 -4 -10 -10 -10 -5 0 -10 5 -10
10 0 6 5 10 10 10 6 0 10 -4 10 -10z m-440 -30 c0 -5 -7 -10 -16 -10 -8 0 -12
5 -9 10 3 6 10 10 16 10 5 0 9 -4 9 -10z m320 -6 c0 -9 -7 -14 -17 -12 -25 5
-28 28 -4 28 12 0 21 -6 21 -16z m250 -5 c0 -9 -33 -29 -49 -29 -17 0 -13 28
6 38 18 11 43 5 43 -9z m-960 -21 c0 -6 -7 -5 -15 2 -8 7 -15 17 -15 22 0 6 7
5 15 -2 8 -7 15 -17 15 -22z m159 20 c-3 -25 -12 -48 -19 -48 -14 0 -32 30
-27 44 5 13 48 17 46 4z m125 -13 c23 -36 20 -38 -24 -15 -40 21 -45 40 -11
40 10 0 26 -11 35 -25z m666 -25 c0 -5 -4 -10 -10 -10 -5 0 -10 5 -10 10 0 6
5 10 10 10 6 0 10 -4 10 -10z m-870 -21 c0 -5 -4 -9 -10 -9 -5 0 -10 7 -10 16
0 8 5 12 10 9 6 -3 10 -10 10 -16z m54 -38 c-4 -9 -10 -33 -13 -55 -6 -38 -6
-38 -50 13 -24 29 -40 55 -37 58 4 4 12 1 18 -5 16 -16 36 -15 55 3 18 19 37
9 27 -14z m839 2 c18 -17 19 -17 32 0 15 21 37 23 29 2 -3 -8 -24 -20 -45 -27
-35 -10 -41 -9 -53 8 -25 34 3 47 37 17z m-76 -5 c16 -22 43 -100 37 -109 -8
-14 -44 10 -44 29 0 10 -7 28 -16 40 -24 34 -2 72 23 40z m93 -46 c0 -5 -9
-17 -20 -27 -20 -18 -20 -17 -20 8 0 20 5 27 20 27 11 0 20 -4 20 -8z m-150
-12 c0 -5 -7 -10 -15 -10 -8 0 -15 5 -15 10 0 6 7 10 15 10 8 0 15 -4 15 -10z
m-55 -10 c-3 -5 -11 -10 -16 -10 -6 0 -7 5 -4 10 3 6 11 10 16 10 6 0 7 -4 4
-10z m-1217 -66 c29 -14 61 -38 73 -52 21 -27 21 -27 -6 -30 -14 -2 -37 4 -50
12 -27 18 -55 21 -55 7 0 -25 64 -54 119 -55 56 -1 56 -1 64 -55 9 -53 2 -92
-25 -161 -10 -25 -10 -25 -19 -2 -9 25 -49 31 -49 7 0 -8 7 -15 15 -15 8 0 15
-4 15 -9 0 -5 -9 -7 -20 -4 -27 7 -16 -24 11 -32 23 -8 25 -33 3 -42 -9 -3
-28 6 -48 26 -36 35 -76 42 -76 12 0 -10 7 -24 16 -32 9 -7 30 -33 47 -58 17
-25 42 -55 56 -67 31 -27 22 -42 -15 -25 -30 13 -50 5 -34 -14 19 -23 69 -29
90 -10 17 15 23 15 87 -5 78 -24 111 -21 191 18 66 32 135 98 191 182 24 36
53 75 64 88 41 45 51 17 14 -38 -51 -76 -59 -90 -50 -90 6 0 28 26 50 58 40
56 83 102 83 88 0 -15 -60 -94 -125 -164 -46 -50 -65 -76 -58 -83 11 -11 81
56 113 108 18 30 60 71 60 59 0 -29 -108 -191 -162 -242 -89 -85 -215 -158
-261 -151 -17 2 -60 -5 -96 -16 -57 -17 -75 -18 -148 -8 -157 20 -225 69 -288
207 -23 51 -42 77 -59 86 -39 17 -43 2 -9 -35 17 -17 35 -47 42 -66 17 -52 68
-126 107 -156 49 -38 137 -66 227 -72 78 -6 78 -6 106 -62 16 -31 32 -66 36
-79 6 -21 4 -23 -17 -20 -17 2 -30 18 -50 61 -27 54 -48 74 -48 42 0 -8 29
-70 64 -137 66 -128 88 -198 63 -198 -8 0 -22 9 -32 20 -24 27 -33 25 -37 -7
-4 -34 -26 -42 -32 -11 -41 185 -69 295 -76 302 -22 23 -19 -31 10 -160 50
-228 74 -434 52 -448 -11 -6 -124 146 -164 220 -20 36 -32 75 -35 115 -7 76
-25 73 -35 -7 -11 -80 -12 -83 -31 -49 -14 27 -16 28 -22 10 -15 -48 -46 -106
-53 -101 -5 3 -14 31 -21 63 -7 32 -15 64 -17 71 -6 22 -24 3 -24 -26 0 -15
-4 -33 -9 -41 -16 -25 -31 -1 -31 50 0 48 -15 66 -27 32 -13 -35 -56 -93 -64
-87 -5 3 -9 38 -9 79 0 71 1 75 51 149 28 41 59 78 69 81 23 7 55 43 46 52 -3
4 -23 -1 -43 -11 -21 -10 -40 -13 -45 -8 -11 11 7 61 34 90 24 25 23 25 -47
23 -86 -3 -94 21 -25 74 50 38 52 58 6 50 -20 -4 -43 -2 -57 5 -23 13 -23 13
0 31 14 11 39 19 62 19 28 0 39 4 39 15 0 10 -10 15 -32 15 -34 0 -78 33 -78
58 0 12 10 13 49 8 57 -7 72 4 36 28 -14 9 -25 22 -25 30 0 7 -9 21 -20 31
-19 17 -19 18 0 56 53 102 185 195 249 174 30 -9 26 -35 -15 -110 -33 -60 -36
-71 -32 -128 6 -78 38 -148 98 -208 100 -100 261 -98 488 6 44 21 72 40 72 49
0 9 -2 16 -4 16 -2 0 -41 -17 -87 -39 -144 -66 -269 -86 -363 -59 -92 27 -175
156 -163 254 5 50 55 134 91 154 32 16 39 46 20 82 -9 17 -13 32 -10 35 3 3
30 -13 60 -36 30 -22 58 -41 62 -41 11 0 33 34 34 52 0 22 -19 33 -33 19 -18
-18 -34 -13 -94 25 -72 46 -86 36 -54 -41 23 -55 24 -87 2 -46 -20 36 -68 54
-128 47 -29 -3 -53 -2 -53 3 0 4 23 17 52 28 51 20 75 43 43 43 -31 0 -100
-42 -152 -93 -29 -28 -54 -49 -57 -46 -8 8 23 81 45 105 13 13 47 36 77 50 41
20 52 28 43 37 -9 9 -22 7 -53 -11 -23 -12 -43 -20 -45 -18 -9 9 18 46 51 71
78 59 172 70 254 29z m2137 2 c52 -24 127 -97 106 -104 -6 -2 -26 6 -45 17
-18 12 -41 21 -50 21 -32 0 -15 -20 42 -49 31 -16 65 -37 74 -48 18 -20 51
-103 44 -110 -2 -2 -26 19 -52 47 -43 46 -126 100 -154 100 -27 0 -6 -28 30
-40 22 -7 45 -20 52 -27 9 -12 1 -13 -54 -7 -65 6 -65 6 -94 -30 -16 -20 -32
-36 -36 -36 -15 0 -8 35 12 65 46 69 12 93 -56 41 -44 -34 -94 -48 -94 -26 0
18 -28 11 -35 -9 -4 -13 3 -28 18 -45 25 -26 25 -26 58 5 66 62 110 78 75 27
-26 -37 -20 -62 25 -98 57 -46 94 -126 85 -188 -12 -89 -67 -166 -142 -202
-84 -39 -241 -18 -378 50 -81 40 -123 41 -67 1 82 -59 293 -119 374 -107 57 9
136 47 169 82 41 44 81 133 86 190 5 59 -9 110 -49 174 -21 33 -25 49 -18 62
20 37 111 11 184 -53 41 -36 95 -114 95 -137 0 -7 -16 -33 -36 -57 -43 -54
-38 -68 22 -59 36 5 44 3 44 -9 0 -23 -49 -57 -81 -57 -19 0 -29 -5 -29 -15 0
-11 11 -15 43 -15 31 0 49 -6 62 -20 17 -19 17 -20 -10 -30 -16 -6 -41 -8 -57
-5 -43 10 -35 -14 17 -53 25 -18 45 -39 45 -47 0 -15 -46 -28 -87 -24 -38 4
-39 -4 -12 -56 28 -53 19 -72 -25 -50 -28 15 -56 20 -56 10 0 -3 25 -30 55
-60 30 -30 68 -79 85 -108 26 -45 30 -62 30 -124 0 -40 -4 -73 -8 -73 -11 0
-50 54 -62 85 -10 26 -29 34 -31 13 -1 -7 0 -26 0 -43 1 -16 -3 -37 -9 -45 -9
-13 -11 -13 -20 0 -5 8 -10 24 -10 35 0 28 -16 49 -29 41 -6 -4 -11 -23 -11
-42 0 -19 -7 -51 -16 -72 -15 -35 -16 -36 -30 -18 -7 11 -16 36 -20 55 -10 64
-14 69 -31 38 -8 -16 -17 -26 -20 -23 -3 3 -9 34 -12 68 -7 74 -31 94 -31 26
0 -67 -26 -136 -78 -209 -104 -145 -116 -159 -126 -149 -16 16 9 224 49 415
34 162 38 212 14 188 -6 -6 -25 -80 -43 -164 -24 -113 -36 -154 -47 -154 -8 0
-14 10 -14 27 -1 39 -8 41 -35 13 -13 -14 -30 -25 -37 -25 -25 0 -3 67 59 184
32 61 62 123 65 139 10 48 -15 30 -43 -32 -26 -59 -49 -80 -67 -62 -6 6 4 37
26 84 35 74 35 74 109 80 170 13 267 74 333 212 18 39 43 78 55 88 15 13 19
22 12 29 -19 19 -54 -17 -88 -89 -62 -136 -131 -184 -289 -205 -73 -9 -94 -8
-146 6 -34 10 -71 15 -84 12 -61 -16 -258 130 -349 258 -53 74 -119 202 -113
219 2 6 21 -17 43 -52 58 -94 122 -181 140 -188 25 -9 29 6 7 30 -29 31 -103
139 -103 149 0 5 5 6 11 2 8 -4 7 0 -1 15 -6 12 -9 27 -7 34 5 16 59 -42 80
-85 43 -88 179 -198 269 -218 46 -10 61 -9 117 9 60 18 67 19 91 4 23 -13 31
-14 55 -2 31 15 50 47 21 36 -9 -4 -23 -10 -31 -13 -10 -4 -15 0 -15 10 0 9 6
19 14 22 21 8 123 148 118 162 -7 22 -48 13 -80 -18 -36 -34 -50 -37 -59 -13
-4 11 1 22 15 31 29 19 31 72 3 72 -10 0 -21 -7 -25 -15 -3 -8 -12 -15 -20
-15 -23 0 -39 142 -23 203 7 25 11 27 55 26 52 -2 112 23 112 46 0 19 -19 19
-44 0 -26 -19 -66 -19 -66 -1 0 20 57 62 106 80 59 22 122 19 179 -8z m-2618
-112 c-7 -69 7 -172 27 -213 20 -38 27 -84 17 -100 -7 -12 -19 -6 -59 28 -45
37 -52 49 -62 98 -15 68 -3 138 35 213 34 67 49 57 42 -26z m2945 9 c33 -75
41 -130 27 -192 -8 -40 -20 -59 -60 -96 -38 -36 -53 -45 -62 -36 -9 9 -6 28
13 79 18 52 25 93 28 185 5 136 16 148 54 60z m-1386 26 c153 -15 229 -32 229
-49 0 -17 -6 -16 -110 2 -96 17 -390 14 -488 -4 -73 -14 -109 -8 -76 12 23 15
190 40 315 49 11 0 70 -4 130 -10z m83 -74 c105 -15 131 -25 131 -53 0 -15
-10 -15 -135 8 -82 15 -341 12 -420 -5 -87 -19 -95 -19 -95 0 0 22 32 35 128
49 117 19 264 19 391 1z m-1750 -183 c26 -51 40 -65 110 -111 45 -29 81 -57
81 -62 0 -5 -20 -9 -45 -9 -34 0 -45 -4 -45 -16 0 -21 20 -57 36 -67 22 -13
16 -31 -16 -55 -39 -29 -38 -47 3 -68 17 -9 34 -18 36 -20 3 -2 -9 -18 -24
-34 -38 -39 -27 -60 40 -77 26 -7 50 -14 52 -17 3 -3 -2 -21 -11 -40 -21 -44
-20 -53 4 -66 21 -11 21 -12 -7 -44 -15 -18 -57 -75 -93 -127 -75 -108 -196
-237 -210 -223 -13 14 7 101 39 169 17 35 59 92 101 138 72 77 84 107 32 75
-63 -38 -159 -79 -197 -85 -42 -5 -125 12 -125 26 0 4 48 36 108 71 59 34 124
76 145 93 50 39 35 57 -24 27 -35 -18 -53 -21 -97 -16 -57 7 -96 22 -88 34 2
4 59 30 126 57 107 43 143 66 129 80 -3 2 -32 -6 -65 -18 -61 -21 -61 -21
-117 7 -36 17 -64 39 -78 62 -12 19 -19 37 -17 39 2 3 20 0 39 -5 42 -12 179
-13 198 -1 20 13 4 31 -28 31 -41 0 -109 54 -132 103 -34 76 -25 82 48 37 61
-37 103 -48 103 -27 0 8 -7 21 -17 28 -9 8 -22 28 -30 46 -15 37 -18 123 -3
123 5 0 23 -26 39 -58z m3152 -44 c-7 -20 -23 -50 -37 -67 -13 -16 -21 -32
-16 -35 11 -7 88 22 124 46 14 10 31 18 37 18 13 0 5 -41 -15 -81 -17 -33 -79
-89 -102 -90 -9 -1 -26 -2 -37 -3 -11 0 -20 -8 -20 -16 0 -12 17 -15 100 -14
55 0 110 4 123 8 35 13 27 -12 -21 -59 -59 -60 -108 -72 -178 -45 -29 11 -55
18 -57 15 -14 -13 15 -34 89 -64 177 -72 174 -70 158 -86 -8 -8 -42 -18 -75
-21 -49 -5 -69 -3 -109 15 -28 13 -52 18 -57 13 -11 -11 71 -69 201 -142 51
-29 90 -57 88 -63 -2 -6 -14 -14 -28 -18 -71 -20 -159 -1 -253 56 -32 19 -65
35 -73 35 -8 0 18 -35 59 -79 44 -47 87 -104 105 -142 37 -75 58 -158 44 -172
-15 -15 -95 67 -189 193 -47 63 -98 132 -114 152 -32 42 -34 48 -13 48 24 0
28 24 11 64 -17 41 -22 35 61 66 53 20 59 35 24 66 -17 15 -31 31 -31 36 0 4
16 14 35 22 43 18 44 37 4 69 -31 24 -31 24 -5 63 41 60 36 74 -26 74 -62 0
-59 6 42 73 36 23 75 58 87 77 12 19 32 48 45 65 23 29 23 29 26 -5 2 -19 -1
-52 -7 -72z m-1405 -41 c69 -188 124 -279 201 -338 43 -32 62 -35 101 -15 24
12 32 11 70 -5 62 -27 53 -39 -31 -39 -69 0 -78 3 -133 38 -70 46 -135 123
-193 232 -43 82 -91 209 -91 243 0 44 38 -15 76 -116z m-291 76 c-22 -159
-110 -372 -169 -407 -22 -14 -116 -10 -116 4 0 5 15 18 33 29 59 37 137 161
190 301 44 114 46 120 57 120 8 0 9 -16 5 -47z m133 35 c5 -7 24 -96 41 -198
18 -102 36 -198 41 -214 13 -39 7 -43 -37 -20 -55 29 -72 89 -80 286 -5 138
-4 158 9 158 9 0 20 -6 26 -12z m-65 -182 c4 -86 11 -164 16 -173 5 -10 15
-34 24 -54 12 -29 26 -40 71 -59 31 -12 56 -26 56 -31 0 -12 -307 -12 -314 0
-7 11 17 21 53 21 40 0 79 35 91 82 14 51 6 60 -17 19 -31 -56 -37 -61 -85
-70 -26 -4 -61 -20 -78 -35 -31 -26 -32 -26 -206 -26 -97 0 -174 4 -174 9 0 5
16 19 36 30 31 18 42 20 69 11 17 -6 69 -15 115 -20 66 -8 88 -7 111 5 62 33
126 153 171 323 16 64 32 120 35 125 14 23 20 -18 26 -157z m-419 33 c-71 -80
-199 -146 -262 -134 -45 8 -34 17 39 32 57 11 141 55 204 107 35 28 46 25 19
-5z m1045 -74 c26 -13 66 -27 89 -31 50 -8 61 -19 27 -28 -49 -12 -147 29
-216 91 -65 59 -68 80 -4 33 30 -23 77 -52 104 -65z m76 -725 c0 -405 0 -405
-325 -405 -325 0 -325 0 -321 400 2 220 5 403 8 408 2 4 147 6 321 5 317 -3
317 -3 317 -408z m-913 215 c-1 -11 -5 -51 -9 -89 -6 -68 -6 -68 83 -65 89 4
89 4 89 -76 0 -73 -2 -80 -19 -78 -11 1 -49 3 -85 5 -66 3 -66 3 -66 -82 0
-85 0 -85 -75 -85 -75 0 -75 0 -75 85 0 78 -2 85 -19 83 -11 -1 -49 -3 -85 -5
-66 -3 -66 -3 -66 77 0 80 0 80 89 76 89 -3 89 -3 83 88 -6 92 -6 92 76 89 75
-3 82 -5 79 -23z m-478 -244 c15 -16 17 -51 16 -337 -2 -343 4 -394 53 -526
57 -151 129 -259 266 -401 124 -128 306 -274 373 -300 34 -13 238 141 388 293
161 163 257 325 305 514 24 95 25 110 25 427 0 329 0 329 24 341 20 9 30 7 53
-10 28 -20 28 -20 28 -171 0 -97 4 -154 11 -161 8 -8 27 11 69 75 32 47 60 83
63 80 9 -9 41 -138 41 -168 1 -20 -15 -47 -54 -93 -30 -36 -62 -79 -71 -97
-24 -45 -14 -132 31 -261 33 -97 36 -114 30 -170 -6 -57 -10 -67 -48 -104 -40
-39 -45 -40 -103 -40 -66 1 -107 -19 -120 -57 -4 -11 -22 -37 -40 -57 -32 -36
-52 -83 -41 -94 3 -3 14 0 26 8 18 11 22 10 34 -6 13 -18 15 -18 41 -1 26 17
29 17 56 2 49 -29 71 -22 185 62 22 16 56 31 75 33 30 3 36 7 46 43 6 22 27
70 47 107 47 88 56 169 32 281 -17 81 -17 81 16 108 19 16 39 29 45 29 8 0 13
-33 16 -92 4 -84 8 -100 42 -165 21 -39 71 -110 112 -158 41 -48 75 -94 75
-103 4 -59 0 -97 -16 -132 -17 -37 -38 -54 -172 -137 -16 -9 -23 -23 -23 -44
0 -34 -16 -69 -30 -69 -6 0 -10 11 -10 24 0 13 -9 34 -19 47 -16 20 -28 24
-68 22 -59 -2 -184 -35 -217 -57 -19 -12 -26 -26 -28 -58 -3 -42 -3 -42 -98
-76 -218 -77 -408 -111 -677 -119 -295 -9 -530 24 -788 110 -130 43 -130 43
-130 81 0 29 -6 43 -25 57 -34 26 -217 71 -253 63 -33 -7 -53 -45 -70 -136 -6
-32 -16 -58 -22 -58 -7 0 -44 33 -83 74 -65 68 -71 79 -86 144 -27 120 -26
123 67 222 140 150 179 231 183 385 3 102 10 116 41 77 20 -27 15 -82 -13
-147 -51 -119 -51 -124 1 -282 25 -78 52 -146 58 -151 7 -5 27 -13 46 -17 18
-4 53 -16 78 -27 37 -16 57 -19 113 -13 61 6 74 4 110 -16 42 -24 42 -24 70
11 27 34 28 34 54 17 22 -15 27 -15 32 -3 9 23 -25 77 -90 143 -37 38 -69 63
-82 63 -12 0 -47 -11 -78 -25 -53 -23 -59 -24 -86 -10 -66 34 -76 92 -34 208
98 272 99 308 5 445 -22 33 -52 86 -66 117 -25 57 -25 57 -5 135 11 43 20 88
20 99 0 12 5 21 10 21 12 0 96 -112 105 -140 4 -11 12 -20 20 -20 19 0 29 93
22 217 -6 102 -6 102 21 122 34 25 45 26 66 2z m-584 -60 c-2 -75 -1 -81 9
-81 5 0 17 20 26 45 32 81 48 76 75 -24 12 -45 40 -57 40 -17 0 32 28 98 40
91 4 -3 11 -19 15 -35 4 -17 10 -28 15 -25 12 7 20 -21 20 -73 1 -128 33 -245
97 -348 65 -105 93 -166 93 -203 0 -20 -22 -101 -50 -181 -71 -207 -69 -268
14 -319 43 -27 61 -26 124 4 58 28 73 30 90 13 19 -19 14 -28 -13 -28 -16 0
-25 -6 -25 -15 0 -11 11 -15 38 -15 40 0 86 -25 76 -41 -3 -6 -19 -7 -35 -4
-22 5 -29 3 -29 -9 0 -9 5 -16 10 -16 6 0 10 -7 10 -15 0 -19 -20 -19 -54 -1
-18 9 -49 12 -99 8 -60 -4 -82 -1 -122 17 -26 11 -56 21 -66 21 -24 0 -38 30
-83 173 -37 117 -37 117 12 240 41 104 48 130 43 167 -3 24 -12 45 -19 48 -9
3 -11 -3 -6 -22 9 -35 -8 -33 -41 6 -21 25 -25 38 -20 64 3 20 1 35 -6 40 -15
9 -29 -14 -29 -48 0 -37 -12 -41 -71 -24 -28 9 -56 13 -61 10 -14 -9 9 -31 40
-37 53 -11 75 -38 80 -100 10 -127 -48 -255 -183 -397 -103 -108 -139 -156
-130 -171 5 -7 11 -6 20 1 17 14 20 8 35 -65 16 -78 42 -128 83 -161 28 -22
33 -33 32 -61 -3 -47 -11 -51 -32 -14 -10 17 -24 31 -30 31 -16 0 -16 -15 -1
-40 19 -30 0 -37 -39 -14 -31 18 -39 30 -54 85 -10 35 -16 70 -14 78 3 7 -16
55 -42 106 -47 93 -47 93 -1 242 49 154 65 254 48 298 -15 39 -31 20 -24 -27
10 -57 -15 -47 -40 18 -23 61 -27 218 -7 314 16 77 155 495 173 519 31 41 52
60 60 55 5 -3 9 -31 8 -63z m2671 18 c26 -37 164 -447 178 -530 6 -36 11 -82
11 -102 0 -56 -22 -139 -39 -145 -25 -9 -31 -24 -31 -83 0 -41 9 -78 31 -130
53 -128 52 -124 40 -202 -15 -104 -102 -274 -170 -334 -27 -23 -52 -43 -56
-43 -4 0 -4 14 0 30 8 36 3 37 -36 9 -27 -19 -29 -19 -29 -2 0 23 9 35 44 57
39 25 20 43 -22 19 -17 -10 -34 -14 -39 -10 -13 14 12 40 78 85 107 70 139
120 139 214 0 55 -11 75 -94 172 -42 50 -91 119 -108 155 -28 56 -32 77 -32
143 -1 92 14 114 84 126 57 10 66 32 12 32 -21 0 -53 -5 -71 -11 -40 -14 -47
-8 -25 25 9 15 14 29 10 33 -8 9 -45 -26 -62 -59 -7 -14 -28 -37 -45 -49 -31
-22 -32 -22 -45 -4 -8 10 -16 16 -19 14 -5 -6 10 -131 26 -209 14 -72 1 -132
-57 -255 -38 -80 -49 -95 -69 -95 -13 0 -43 -15 -67 -33 -24 -18 -62 -44 -85
-57 -35 -19 -45 -21 -58 -10 -9 7 -13 21 -10 31 8 25 -10 24 -43 -1 -16 -13
-29 -17 -35 -11 -17 17 2 42 49 62 33 15 43 24 35 32 -7 7 -18 7 -37 -2 -35
-16 -41 -8 -14 19 20 20 29 22 83 16 60 -6 60 -6 119 52 56 57 58 61 59 113 2
82 0 92 -37 201 -63 189 -59 214 53 337 74 81 82 103 83 234 0 70 2 79 20 84
16 4 20 14 20 44 0 22 4 39 9 39 8 0 29 -49 48 -110 4 -12 7 -12 19 4 8 11 14
25 14 32 0 6 7 28 15 49 19 44 35 36 54 -25 18 -61 38 -52 38 18 0 92 15 99
64 31z m-3081 -311 c54 -58 -7 -226 -65 -178 -24 20 -18 58 11 76 18 12 24 24
22 43 -4 34 -41 40 -79 12 -33 -25 -36 -21 -12 19 30 51 89 65 123 28z m3518
6 c20 -14 52 -63 52 -79 0 -4 -14 5 -31 19 -35 30 -51 32 -73 10 -23 -23 -17
-44 16 -57 23 -8 34 -53 18 -72 -17 -21 -44 -19 -65 5 -27 29 -33 131 -11 165
19 29 60 33 94 9z m-1815 -92 c-2 -12 -19 -36 -38 -53 -38 -34 -43 -53 -21
-78 10 -11 15 -46 17 -115 2 -100 2 -100 -52 -97 -30 1 -70 6 -89 10 -32 6
-35 10 -35 41 0 43 -24 51 -55 20 -16 -16 -21 -31 -18 -51 4 -29 3 -30 -26
-23 -17 3 -38 12 -47 20 -23 20 -29 18 -88 -36 -55 -50 -55 -50 -21 -85 19
-20 45 -38 57 -41 29 -8 29 -9 -2 -46 -45 -53 -38 -58 88 -58 127 0 137 5 137
61 0 42 12 49 98 49 54 0 54 0 50 -139 -3 -121 -5 -142 -23 -161 -19 -21 -19
-21 28 -67 47 -45 47 -45 43 -136 -3 -65 -8 -91 -17 -89 -35 9 -198 138 -307
244 -223 217 -328 435 -339 700 -3 70 -3 134 0 143 6 13 44 15 334 13 328 -3
328 -3 326 -26z m41 -73 c25 -29 25 -38 4 -66 -5 -6 -9 -77 -9 -157 -1 -120
-3 -146 -15 -146 -8 0 -14 -4 -14 -10 0 -5 7 -10 15 -10 13 0 15 -24 15 -152
0 -123 3 -155 15 -169 15 -15 13 -20 -14 -50 -17 -18 -33 -30 -37 -27 -8 9 5
48 17 48 5 0 9 7 9 15 0 21 -10 19 -37 -7 -30 -28 -40 -17 -20 25 14 29 17 78
17 322 0 194 3 292 11 301 13 16 3 35 -15 28 -25 -9 -27 27 -4 56 13 16 26 29
30 29 3 1 18 -13 32 -30z m386 -214 c0 -26 -35 -36 -86 -25 -50 11 -68 4 -79
-31 -4 -10 -13 -19 -21 -19 -19 0 -18 40 2 68 14 20 24 22 100 22 67 0 84 -3
84 -15z m-670 -29 c0 -32 16 -43 77 -51 49 -6 52 -9 47 -30 -7 -26 5 -38 26
-25 12 7 12 12 2 22 -19 19 -14 30 14 26 23 -3 27 -9 30 -40 3 -38 3 -38 -121
-38 -100 0 -125 -3 -125 -14 0 -8 -14 -16 -32 -19 -42 -6 -48 0 -20 21 21 16
21 18 3 29 -16 10 -20 8 -31 -13 -16 -30 -18 -30 -58 4 -33 27 -33 27 2 61 37
35 60 36 38 1 -15 -25 -15 -30 1 -30 7 0 18 9 25 20 14 23 39 25 77 8 32 -15
37 -9 25 31 -9 33 -4 61 11 61 5 0 9 -11 9 -24z m697 -69 c28 -28 28 -28 -9
-63 -21 -18 -42 -34 -48 -34 -15 0 -12 21 5 40 18 20 9 57 -16 63 -20 5 -25
-9 -10 -32 11 -17 -14 -61 -35 -61 -16 0 -19 26 -4 35 13 8 13 45 0 45 -5 0
-7 -6 -4 -14 8 -21 -61 -70 -83 -60 -10 4 -54 8 -98 8 -80 1 -80 1 -83 42 -3
41 -3 41 68 48 40 3 79 2 89 -3 10 -6 22 -6 27 -1 11 11 44 15 116 15 50 0 61
-4 85 -28z m-679 -129 c-3 -43 -3 -43 -90 -46 -97 -3 -112 7 -51 36 27 13 37
14 40 5 3 -7 18 -13 34 -13 24 0 29 4 29 23 0 27 7 37 27 37 10 0 13 -11 11
-42z m-804 -593 c210 -126 455 -206 756 -246 138 -19 438 -16 595 5 136 19
354 70 440 104 97 38 266 122 317 157 41 29 54 33 63 23 14 -16 37 -100 64
-233 11 -55 23 -108 26 -117 8 -19 -36 -42 -265 -135 -202 -82 -376 -128 -615
-164 -139 -21 -568 -18 -720 5 -230 35 -497 115 -707 212 -68 31 -127 60 -132
65 -5 4 -4 26 2 51 6 24 23 97 37 163 29 131 41 168 53 162 4 -2 43 -25 86
-52z m-214 -136 c0 -6 -4 -7 -10 -4 -5 3 -10 11 -10 16 0 6 5 7 10 4 6 -3 10
-11 10 -16z m14 -79 c-1 -14 -5 -48 -9 -77 -12 -83 0 -119 61 -183 30 -31 54
-60 54 -63 0 -13 -105 -7 -132 7 -46 24 -170 48 -182 36 -14 -14 9 -30 45 -30
41 0 89 -12 89 -21 0 -5 -24 -9 -54 -9 -72 0 -200 -25 -248 -48 -20 -11 -39
-17 -42 -15 -2 3 13 37 35 76 43 80 48 111 20 127 -28 15 -86 12 -128 -5 -19
-8 -37 -15 -39 -15 -27 0 71 109 148 166 83 61 157 83 278 81 105 -2 105 -2
104 -27z m2682 19 c95 -17 179 -65 261 -147 40 -41 73 -78 73 -83 0 -13 -21
-11 -50 6 -14 8 -46 14 -72 15 -40 0 -50 -4 -64 -25 -16 -25 -15 -28 29 -103
24 -42 43 -80 40 -84 -2 -5 -19 0 -36 9 -50 26 -125 43 -220 50 -99 7 -102 18
-9 31 67 9 81 17 65 33 -13 13 -103 -3 -176 -32 -26 -11 -73 -19 -103 -19 -56
0 -56 0 0 60 72 78 84 119 63 215 -8 39 -13 73 -10 78 6 11 141 9 209 -4z"/>
<path d="M686 2540 c-25 -56 -27 -88 -5 -74 10 6 59 110 59 125 0 5 -6 9 -14
9 -7 0 -25 -27 -40 -60z"/>
<path d="M926 2591 c-15 -23 50 -381 73 -404 22 -22 22 4 -3 125 -14 67 -29
159 -33 202 -7 73 -22 103 -37 77z"/>
<path d="M792 2548 c-32 -41 -51 -161 -20 -130 10 10 47 115 48 135 0 11 -17
8 -28 -5z"/>
<path d="M3107 2603 c-7 -12 51 -133 63 -133 17 0 11 34 -16 88 -24 49 -37 61
-47 45z"/>
<path d="M2906 2591 c-4 -6 -14 -57 -22 -113 -9 -57 -24 -143 -34 -193 -20
-96 -12 -136 14 -73 24 56 72 366 59 379 -8 8 -13 8 -17 0z"/>
<path d="M3036 2551 c-10 -16 31 -126 48 -129 20 -4 20 3 0 64 -19 55 -38 82
-48 65z"/>
<path d="M440 2643 c-13 -10 -49 -31 -79 -48 -54 -29 -76 -55 -49 -55 20 0
171 92 176 108 5 17 -20 15 -48 -5z"/>
<path d="M426 2443 c-54 -65 -73 -103 -42 -86 19 10 116 131 116 144 0 22 -22
5 -74 -58z"/>
<path d="M3366 2662 c-12 -20 137 -122 177 -122 29 0 18 20 -20 37 -21 10 -64
34 -95 55 -31 21 -59 34 -62 30z"/>
<path d="M3350 2503 c0 -10 75 -105 109 -137 62 -59 29 0 -65 117 -20 25 -44
36 -44 20z"/>
<path d="M1820 2890 c-59 -71 -45 -87 18 -20 54 58 61 70 38 70 -8 0 -33 -22
-56 -50z"/>
<path d="M2228 2514 c-46 -44 -58 -64 -38 -64 11 0 40 -53 40 -75 0 -20 -24
-19 -99 6 -53 18 -65 19 -72 8 -13 -19 -8 -147 5 -158 19 -16 95 -1 107 20 11
22 47 25 55 6 8 -22 -13 -100 -30 -109 -9 -5 -16 -13 -16 -17 0 -12 91 -101
103 -101 6 0 30 20 54 45 43 46 43 46 24 73 -26 37 -35 111 -14 119 10 4 23
-2 32 -14 11 -13 35 -22 69 -27 52 -7 52 -7 52 78 0 47 -4 87 -9 90 -5 3 -35
-3 -67 -14 -32 -11 -64 -18 -71 -16 -22 9 -15 63 9 80 22 16 22 16 -27 66 -27
27 -52 50 -55 50 -3 0 -26 -21 -52 -46z m88 -66 c-9 -12 -16 -41 -16 -64 0
-35 4 -43 23 -48 37 -10 70 -7 101 9 42 22 46 20 46 -35 0 -42 -3 -50 -18 -50
-10 0 -27 7 -38 15 -10 8 -40 15 -66 15 -48 0 -48 0 -43 -62 3 -35 11 -73 17
-86 10 -19 8 -26 -12 -47 -30 -31 -36 -31 -65 3 -22 25 -22 28 -7 45 10 11 18
42 20 83 4 64 4 64 -53 64 -38 0 -62 -5 -72 -15 -28 -29 -47 -14 -48 38 0 26
2 47 6 47 4 0 23 -7 44 -16 20 -8 56 -14 78 -12 42 3 42 3 40 58 0 30 -6 56
-12 58 -18 6 -13 22 16 46 28 24 28 24 51 0 22 -22 23 -24 8 -46z"/>
<path d="M470 741 c0 -5 5 -13 10 -16 6 -3 10 -2 10 4 0 5 -4 13 -10 16 -5 3
-10 2 -10 -4z"/>
<path d="M2987 1913 c-10 -9 -9 -23 2 -23 5 0 11 7 15 15 5 15 -5 20 -17 8z"/>
<path d="M2945 1860 c-3 -5 -2 -10 4 -10 5 0 13 5 16 10 3 6 2 10 -4 10 -5 0
-13 -4 -16 -10z"/>
<path d="M1910 1731 c0 -10 30 -24 37 -17 3 3 2 9 -2 15 -8 13 -35 15 -35 2z"/>
<path d="M1695 1441 c-3 -6 -23 -11 -45 -11 -25 0 -40 -5 -44 -16 -5 -12 -1
-15 22 -10 15 2 44 7 65 11 22 3 37 11 35 17 -6 16 -25 21 -33 9z"/>
<path d="M1752 1436 c1 -10 8 -17 13 -17 15 1 12 24 -3 29 -9 3 -13 -2 -10
-12z"/>
<path d="M1565 1430 c-3 -5 1 -10 9 -10 9 0 16 5 16 10 0 6 -4 10 -9 10 -6 0
-13 -4 -16 -10z"/>
<path d="M2215 1451 c-3 -6 -17 -11 -31 -11 -22 0 -23 -3 -14 -20 12 -22 30
-27 30 -9 0 7 8 18 17 25 10 7 15 15 11 19 -3 3 -9 2 -13 -4z"/>
<path d="M2020 1426 c0 -17 33 -27 51 -15 14 8 14 8 -36 24 -8 2 -15 -2 -15
-9z"/>
<path d="M2110 1430 c-12 -7 -11 -10 5 -16 11 -4 23 -12 27 -18 4 -6 10 -8 13
-5 3 4 -2 16 -12 28 -13 15 -22 18 -33 11z"/>
<path d="M1866 3681 c-57 -58 -56 -71 10 -119 45 -32 46 -33 72 -16 36 22 82
66 82 76 0 14 -91 108 -104 108 -7 0 -33 -22 -60 -49z m87 -16 c32 -30 35 -40
7 -25 -11 6 -20 15 -20 20 0 17 -26 11 -45 -10 -10 -11 -21 -18 -23 -15 -6 5
37 55 47 55 4 0 19 -11 34 -25z"/>
<path d="M1590 3663 c-6 -16 -18 -45 -27 -66 -18 -42 -12 -57 17 -39 16 10 20
10 20 -2 0 -18 38 -46 62 -46 10 0 24 15 34 38 10 20 23 44 30 52 17 20 9 30
-52 63 -64 34 -72 34 -84 0z m58 -30 c6 -19 -25 -16 -32 3 -4 11 -1 14 11 12
9 -2 18 -9 21 -15z"/>
</g>
</svg>
