<?xml version="1.0" standalone="no"?>
<!DOCTYPE svg PUBLIC "-//W3C//DTD SVG 20010904//EN"
 "http://www.w3.org/TR/2001/REC-SVG-20010904/DTD/svg10.dtd">
<svg version="1.0" xmlns="http://www.w3.org/2000/svg"
 width="298.000000pt" height="344.000000pt" viewBox="0 0 298.000000 344.000000"
 preserveAspectRatio="xMidYMid meet">
<metadata>
Created by potrace 1.16, written by Peter Selinger 2001-2019
</metadata>
<g transform="translate(0.000000,344.000000) scale(0.100000,-0.100000)"
fill="#000000" stroke="none">
<path d="M1485 3430 c-4 -6 -24 -22 -46 -35 -35 -23 -38 -28 -32 -56 6 -30 5
-31 -24 -25 -45 10 -57 -11 -49 -86 7 -74 27 -101 68 -93 36 8 36 0 -3 -78
-56 -111 -88 -127 -175 -88 -62 28 -99 91 -54 91 11 0 20 -6 20 -14 0 -20 20
-25 48 -13 27 12 28 42 3 112 -17 47 -20 50 -50 47 -25 -2 -31 2 -31 18 0 11
-8 23 -17 26 -10 3 -31 12 -46 20 -40 20 -42 19 -77 -32 -28 -42 -30 -48 -15
-64 18 -20 10 -30 -26 -30 -37 0 -40 -15 -14 -85 26 -69 45 -86 75 -67 36 22
40 15 40 -69 0 -74 3 -86 32 -133 39 -63 51 -120 34 -161 -20 -47 -119 -140
-182 -171 -86 -42 -163 -44 -234 -7 -57 30 -100 80 -100 117 0 12 18 39 40 61
33 32 40 46 40 77 0 49 -42 98 -116 134 -49 24 -62 26 -143 22 -110 -5 -180
-37 -252 -116 -59 -65 -79 -108 -79 -173 0 -70 37 -110 106 -116 61 -6 101 12
139 61 18 23 25 44 23 63 -3 24 -8 29 -43 33 -40 5 -40 5 -15 28 32 30 80 29
109 -2 19 -20 24 -37 26 -98 4 -133 78 -221 219 -263 22 -7 42 -18 44 -25 5
-13 -85 -11 -241 6 -142 16 -242 -93 -193 -209 19 -47 42 -50 31 -4 -27 109
26 178 139 180 28 0 96 -3 151 -7 120 -9 158 1 273 68 76 44 148 106 124 106
-7 0 -31 -12 -53 -26 -61 -38 -114 -54 -183 -54 -122 0 -219 51 -257 134 -26
57 -24 109 8 194 25 70 25 75 10 107 -9 19 -30 41 -48 50 -43 23 -57 5 -19
-23 43 -32 39 -52 -10 -52 -64 0 -146 -36 -182 -81 -45 -56 -61 -53 -73 14 -7
36 -5 41 43 87 100 96 289 120 352 45 8 -10 14 -35 14 -56 -1 -27 3 -39 12
-39 9 0 14 12 14 35 0 39 14 46 30 16 18 -34 11 -58 -24 -89 -19 -16 -39 -39
-45 -51 -29 -53 27 -149 113 -194 65 -34 173 -31 251 8 32 17 86 55 119 85 57
53 59 54 52 25 -28 -119 -150 -266 -269 -325 -68 -33 -68 -33 -253 -27 -198 7
-230 2 -254 -42 -32 -62 4 -103 93 -109 51 -3 71 1 111 22 27 14 54 22 59 19
13 -8 -2 -75 -21 -97 -34 -37 -94 -59 -157 -58 -75 1 -103 11 -155 58 -62 56
-82 103 -78 180 1 34 -1 66 -5 70 -15 15 -27 -20 -27 -78 0 -32 -4 -58 -10
-58 -16 0 -30 37 -30 81 0 95 75 178 169 187 60 5 74 -11 21 -27 -38 -11 -57
-27 -47 -37 3 -3 29 1 58 10 30 8 65 14 79 13 37 -3 31 18 -15 48 -71 49 -168
30 -244 -45 -52 -52 -73 -161 -45 -233 4 -12 -8 -16 -55 -22 -34 -4 -61 -11
-61 -15 0 -13 69 -128 81 -136 6 -3 14 -17 20 -30 5 -14 22 -30 39 -35 16 -6
30 -16 30 -21 0 -6 -16 -28 -36 -50 -49 -55 -90 -146 -104 -231 -6 -40 -16
-88 -21 -108 -14 -57 -12 -69 16 -69 25 0 25 0 25 -104 0 -124 10 -141 58
-101 17 14 41 41 52 60 12 20 26 32 32 29 6 -4 9 -39 8 -83 -3 -103 -6 -94 53
-153 28 -29 67 -81 85 -115 35 -66 46 -74 68 -45 13 16 17 14 49 -23 19 -22
37 -56 41 -75 10 -59 12 -64 29 -50 7 6 19 36 26 66 10 46 10 63 -4 114 -21
75 -21 72 5 68 51 -7 29 87 -37 162 -77 87 -108 140 -121 209 -14 75 -11 88
19 68 33 -21 68 -27 90 -15 17 9 19 17 14 68 -4 32 -20 88 -37 124 -36 81 -38
119 -7 149 74 69 147 126 152 117 3 -5 5 -169 4 -362 -2 -382 0 -397 58 -573
75 -231 256 -494 458 -665 84 -71 253 -190 271 -190 6 0 17 -7 24 -15 17 -21
65 -19 98 3 15 10 72 48 127 84 292 192 525 488 619 788 56 176 59 201 65 589
6 364 6 364 57 317 29 -25 64 -56 78 -67 60 -47 65 -95 19 -175 -25 -44 -47
-147 -37 -176 8 -27 41 -31 85 -10 21 11 41 17 43 13 2 -3 0 -35 -5 -71 -10
-70 -30 -107 -104 -190 -47 -52 -77 -105 -89 -152 -6 -25 -3 -28 17 -28 13 0
26 -2 29 -5 3 -3 -2 -31 -10 -61 -13 -46 -14 -65 -4 -111 12 -58 28 -87 43
-77 5 3 9 18 9 33 0 30 54 119 78 128 8 4 19 -1 24 -10 13 -24 35 -21 44 6 12
39 75 130 120 174 44 42 44 42 38 126 -8 98 3 115 39 62 28 -41 86 -87 98 -79
5 3 9 54 9 115 0 109 0 109 26 109 24 0 26 3 21 33 -38 224 -60 287 -132 382
-28 36 -34 50 -24 53 36 12 159 172 159 207 0 10 -10 15 -32 15 -18 0 -43 3
-56 6 -21 6 -22 10 -16 68 11 110 -31 192 -121 236 -64 31 -121 30 -173 -5
-55 -36 -55 -53 1 -53 23 1 59 -5 79 -12 21 -8 40 -11 44 -8 12 12 -7 27 -46
38 -50 13 -52 30 -5 30 68 0 141 -44 171 -102 19 -37 19 -142 -1 -158 -13 -11
-15 -7 -15 23 0 56 -11 97 -27 97 -12 0 -13 -11 -8 -55 6 -48 4 -62 -19 -109
-34 -70 -82 -111 -151 -132 -59 -17 -118 -13 -166 12 -44 22 -79 72 -79 110 0
41 5 41 61 9 59 -33 133 -34 180 -2 40 27 47 49 24 83 -29 44 -77 57 -180 49
-170 -14 -264 -7 -321 21 -102 51 -224 185 -259 284 -23 64 -19 66 38 14 28
-26 81 -61 117 -78 54 -25 78 -30 140 -31 64 0 82 4 121 27 57 34 109 108 109
155 0 28 -9 42 -45 75 -46 42 -53 64 -35 99 16 28 28 23 32 -13 5 -51 26 -46
30 8 5 70 35 89 141 89 66 -1 93 -6 137 -26 84 -39 130 -83 130 -126 0 -39
-15 -73 -33 -73 -7 0 -22 15 -34 34 -26 41 -99 77 -172 85 -64 7 -75 24 -32
48 36 21 40 33 10 33 -31 0 -57 -18 -74 -50 -17 -33 -13 -58 18 -129 29 -67
21 -158 -19 -208 -64 -80 -135 -108 -251 -101 -57 4 -88 12 -138 38 -36 18
-69 30 -73 26 -17 -18 176 -138 253 -157 33 -8 77 -9 144 -4 185 16 232 6 272
-58 19 -31 20 -53 4 -119 -10 -38 10 -36 30 2 35 67 3 164 -64 197 -40 20 -97
22 -257 8 -117 -9 -143 3 -63 29 68 23 119 56 161 105 41 48 58 98 58 173 0
99 66 140 136 86 29 -23 29 -23 -16 -28 -38 -4 -46 -9 -48 -28 -5 -34 43 -101
83 -118 76 -32 156 -8 182 53 22 54 10 111 -40 186 -75 111 -185 163 -327 155
-86 -5 -147 -33 -194 -89 -40 -48 -36 -93 14 -140 52 -50 53 -84 4 -138 -103
-115 -282 -87 -424 66 -56 59 -60 67 -60 111 0 45 36 142 57 155 5 3 10 41 11
84 3 104 13 137 41 141 33 5 25 47 -9 47 -35 0 -60 -53 -60 -126 0 -66 -8 -78
-31 -48 -16 22 -18 22 -44 5 -20 -13 -36 -16 -68 -10 -42 7 -42 7 9 21 81 23
106 49 112 115 3 36 0 58 -7 63 -18 11 -61 -3 -61 -20 0 -15 -12 -20 -22 -9
-3 3 -1 21 5 40 10 32 14 35 39 30 15 -3 28 -1 28 4 0 6 8 5 20 -2 25 -16 35
-5 20 23 -11 19 -9 25 11 40 31 24 34 24 54 -7 17 -26 17 -27 -11 -50 -30 -24
-29 -25 26 -38 49 -11 55 -20 38 -62 -12 -30 -23 -40 -44 -44 -26 -5 -27 -6
-10 -22 35 -36 57 -18 91 75 20 54 14 67 -32 67 -26 0 -27 3 -11 29 9 15 6 27
-18 64 -32 50 -40 54 -70 32 -10 -8 -29 -15 -41 -15 -16 0 -22 -7 -25 -27 -2
-19 -8 -27 -18 -24 -43 11 -55 6 -67 -32 -7 -21 -16 -55 -19 -75 -4 -31 -2
-39 17 -50 19 -12 25 -11 50 7 31 23 46 13 30 -18 -16 -29 -73 -60 -122 -67
-37 -5 -48 -2 -68 17 -28 26 -84 145 -76 159 4 6 19 10 34 10 41 0 49 16 53
100 3 75 3 75 -35 73 -38 -2 -38 -2 -32 31 6 30 3 35 -29 54 -20 12 -36 26
-36 32 0 13 -17 13 -25 0z m35 -57 c25 -22 25 -35 0 -58 -31 -28 -24 -35 35
-35 55 0 55 0 55 -44 0 -35 -5 -47 -25 -60 -30 -20 -45 -20 -45 -1 0 9 9 15
21 15 15 0 20 5 17 21 -5 35 -33 47 -58 24 -26 -24 -22 -65 15 -157 14 -34 23
-63 20 -66 -2 -2 -18 11 -34 29 -31 33 -31 33 -64 1 -18 -18 -36 -32 -40 -32
-4 0 4 22 19 49 14 27 28 74 31 104 5 48 3 56 -17 70 -28 19 -60 7 -60 -23 0
-15 7 -20 25 -20 28 0 34 -17 9 -27 -18 -7 -51 26 -54 53 -7 61 -3 66 47 63
53 -4 66 11 38 41 -19 21 -14 50 10 50 8 0 15 5 15 10 0 15 17 12 40 -7z
m-422 -159 c38 -18 39 -27 11 -53 -28 -25 -8 -36 30 -16 42 21 56 19 69 -10
16 -35 15 -65 -3 -65 -8 0 -12 6 -9 14 7 18 -28 38 -50 30 -37 -14 -28 -111
14 -149 11 -10 43 -26 72 -35 52 -17 52 -18 24 -25 -18 -5 -36 -3 -47 4 -31
18 -58 13 -71 -14 -18 -39 -28 -30 -28 25 0 74 -19 149 -40 160 -24 13 -26 13
-44 -6 -19 -19 -12 -34 15 -34 10 0 19 -7 19 -15 0 -9 -9 -15 -23 -15 -17 0
-27 10 -40 38 -17 36 -17 37 4 55 12 9 32 17 45 17 31 0 39 17 14 32 -23 15
-25 30 -8 58 7 11 13 20 14 20 0 0 15 -7 32 -16z m418 -215 c10 -12 43 -33 72
-48 52 -26 52 -26 -92 -26 -79 0 -142 3 -140 7 3 4 25 17 49 29 25 13 53 31
62 41 21 23 26 23 49 -3z m232 -130 c42 -11 80 -23 85 -28 5 -5 1 -21 -9 -37
-10 -16 -18 -30 -19 -31 -1 -1 -45 6 -99 17 -137 28 -344 28 -441 0 -90 -26
-99 -25 -120 6 -15 23 -15 28 -3 41 59 58 427 78 606 32z m-346 -134 c9 -50
10 -228 2 -249 -14 -37 -24 2 -24 98 0 66 -4 106 -12 114 -18 18 -63 14 -103
-9 -38 -22 -65 -20 -65 6 0 11 6 15 18 11 13 -4 21 2 29 23 9 25 18 30 64 39
77 14 83 12 91 -33z m267 21 c35 -32 26 -52 -10 -22 -29 25 -59 34 -59 19 0
-4 12 -17 28 -29 34 -27 23 -41 -18 -24 -35 15 -114 18 -147 6 -22 -8 -23 -6
-23 34 0 42 0 42 104 38 85 -3 108 -7 125 -22z m101 -33 c4 -110 33 -260 67
-349 3 -8 -28 -34 -83 -69 -48 -31 -136 -92 -195 -136 -59 -43 -114 -79 -123
-79 -17 0 -210 171 -225 199 -5 9 -3 61 6 126 8 61 13 131 10 158 -2 26 -2 47
0 47 2 0 17 -9 32 -21 27 -20 30 -20 59 -5 17 9 33 16 37 16 3 0 5 -33 5 -73
0 -60 3 -75 20 -90 18 -15 20 -29 20 -147 0 -102 3 -130 13 -130 15 0 19 45
33 328 4 73 11 135 16 138 5 3 22 -6 39 -20 17 -14 42 -26 55 -26 33 0 78 24
102 55 24 30 32 32 32 4 0 -12 -15 -36 -33 -54 -27 -27 -31 -37 -25 -61 4 -16
14 -63 22 -104 27 -141 40 -154 102 -97 35 32 35 32 15 124 -22 98 -29 273
-11 273 6 0 10 -3 10 -7z m720 -83 c0 -5 -4 -10 -10 -10 -5 0 -10 5 -10 10 0
6 5 10 10 10 6 0 10 -4 10 -10z m-2305 -39 c10 -48 27 -56 89 -41 80 19 98 0
47 -51 -25 -24 -38 -29 -80 -29 -42 0 -53 4 -70 26 -21 27 -26 60 -15 102 9
31 21 28 29 -7z m2645 -27 c0 -56 -12 -79 -47 -92 -46 -16 -90 -3 -124 35 -40
46 -28 60 39 43 61 -14 85 -4 101 41 14 42 31 28 31 -27z m-1014 -349 c13 -43
10 -45 -11 -5 -17 33 -18 40 -7 40 4 0 12 -16 18 -35z m-813 -19 c-22 -29 -53
-50 -61 -41 -7 7 56 65 71 65 4 0 0 -11 -10 -24z m761 2 c27 -38 20 -48 -32
-48 -27 0 -52 3 -56 7 -7 7 51 62 66 63 4 0 14 -10 22 -22z m272 -29 c3 -6 3
-13 0 -16 -7 -7 -66 46 -66 60 0 9 56 -28 66 -44z m-814 24 c27 -24 22 -43
-11 -43 -36 0 -41 8 -30 38 10 26 17 27 41 5z m426 -80 c-10 -2 -28 -2 -40 0
-13 2 -5 4 17 4 22 1 32 -1 23 -4z m447 -3 c17 -7 15 -9 -12 -9 -18 -1 -33 4
-33 9 0 12 17 12 45 0z m-968 -6 c-3 -3 -12 -4 -19 -1 -8 3 -5 6 6 6 11 1 17
-2 13 -5z m161 -1 c-10 -2 -26 -2 -35 0 -10 3 -2 5 17 5 19 0 27 -2 18 -5z
m595 0 c-13 -2 -35 -2 -50 0 -16 2 -5 4 22 4 28 0 40 -2 28 -4z m-1675 -105
c16 -29 40 -63 53 -75 73 -66 186 -88 284 -55 60 21 60 21 24 -12 -42 -39
-103 -52 -170 -37 -55 13 -62 5 -79 -84 -20 -105 12 -207 81 -255 45 -33 56
-13 15 29 -48 49 -66 98 -65 173 1 84 10 113 34 113 18 0 21 -9 26 -100 4 -78
11 -110 29 -145 29 -57 50 -143 39 -161 -7 -11 -17 -9 -55 10 -25 14 -51 35
-57 48 -5 13 -16 23 -24 23 -15 0 -16 -4 -4 -50 5 -19 12 -53 16 -75 6 -36 5
-39 -9 -24 -22 21 -74 176 -87 259 -13 84 0 163 36 228 14 25 23 47 21 50 -13
12 -38 -12 -62 -60 -88 -172 10 -480 230 -726 69 -77 78 -116 18 -73 -34 23
-121 56 -128 48 -4 -3 18 -34 49 -67 52 -58 107 -163 93 -177 -3 -3 -33 21
-66 55 -34 34 -67 59 -74 56 -7 -3 -20 5 -28 18 -8 13 -29 38 -47 57 -28 30
-30 35 -15 46 13 9 14 14 5 19 -6 4 -18 3 -25 -3 -10 -8 -17 -7 -26 4 -11 13
-11 26 -2 66 7 28 12 74 12 102 0 59 -46 210 -63 204 -5 -1 -11 -25 -12 -53
-3 -88 -59 -214 -84 -189 -14 14 3 221 23 267 19 43 20 68 5 68 -5 0 -19 -22
-31 -50 -21 -50 -38 -65 -38 -32 0 36 41 177 61 211 28 48 109 159 137 188 41
44 27 53 -47 27 -61 -21 -79 -3 -33 34 18 15 32 30 32 35 0 11 -38 9 -45 -3
-13 -20 -53 -10 -79 21 -34 40 -33 49 4 49 34 0 90 25 90 40 0 19 8 10 38 -42z
m2637 22 c22 -11 50 -20 62 -20 32 0 29 -21 -7 -55 -28 -27 -33 -28 -63 -17
-42 15 -47 15 -47 -1 0 -8 11 -20 25 -27 14 -7 25 -19 25 -26 0 -22 -27 -23
-65 -3 -22 12 -45 17 -57 13 -19 -6 -19 -7 5 -32 48 -53 137 -179 156 -223 18
-40 51 -171 51 -200 0 -25 -19 -4 -38 41 -12 28 -26 50 -31 50 -15 0 -14 -8 7
-71 20 -58 37 -269 22 -269 -30 0 -80 121 -85 203 -4 77 -23 62 -53 -43 -25
-86 -27 -132 -8 -211 16 -66 10 -83 -27 -73 -20 5 -27 2 -27 -9 0 -8 6 -18 13
-20 8 -4 6 -11 -9 -24 -12 -10 -36 -40 -53 -66 -27 -39 -35 -46 -47 -36 -11 9
-25 -1 -74 -50 -60 -62 -76 -61 -44 2 23 44 93 138 121 160 13 10 23 23 23 28
0 18 -38 9 -106 -25 -38 -19 -70 -33 -72 -31 -8 7 23 52 69 101 98 105 193
280 230 421 33 132 20 260 -35 328 -37 45 -42 23 -10 -42 26 -51 29 -69 28
-148 0 -77 -5 -106 -38 -202 -42 -124 -71 -168 -60 -92 3 24 10 59 16 77 14
46 1 53 -30 15 -26 -30 -79 -63 -103 -63 -20 0 -3 89 30 158 24 52 31 83 37
163 3 55 10 102 15 105 4 2 16 -8 26 -23 13 -20 18 -46 17 -102 0 -88 -22
-142 -74 -180 -22 -16 -29 -26 -21 -34 25 -25 103 60 122 136 14 58 7 152 -15
195 -15 28 -20 31 -44 25 -71 -20 -148 -4 -206 42 -28 22 -13 29 22 11 49 -25
131 -31 194 -12 66 19 151 90 170 142 6 18 15 34 18 34 3 0 23 -9 45 -20z
m-1313 -27 c38 -37 46 -60 29 -78 -5 -6 -11 -26 -13 -45 -3 -35 -3 -35 35 -34
21 1 46 9 58 20 44 39 84 -38 60 -117 -13 -45 -6 -43 -95 -20 -22 5 -44 8 -48
5 -8 -5 -12 -297 -4 -305 2 -2 36 -2 76 -1 71 4 71 4 65 33 -4 18 -2 36 5 44
15 18 64 20 77 3 14 -18 46 -205 38 -218 -11 -17 -659 -4 -662 13 -2 6 7 57
20 112 22 100 22 100 62 100 40 0 40 0 45 -45 5 -44 5 -44 70 -43 65 1 65 1
68 157 3 156 3 156 -40 150 -24 -4 -52 -13 -64 -21 -18 -12 -23 -11 -35 3 -20
25 -19 129 3 150 15 15 19 15 62 -5 60 -29 80 -25 84 18 2 18 -1 38 -7 44 -21
21 -11 55 24 86 20 17 39 31 42 31 4 0 24 -17 45 -37z m-498 -63 c38 -42 43
-55 25 -66 -20 -12 -38 -67 -28 -86 13 -24 52 -23 74 2 26 29 53 22 89 -23 29
-36 30 -40 16 -64 -8 -14 -27 -35 -42 -46 -27 -20 -27 -20 -58 7 -38 31 -44
32 -70 6 -26 -26 -25 -39 5 -79 28 -39 25 -48 -29 -101 -36 -34 -36 -34 -83
12 -46 46 -46 46 -19 80 30 40 33 69 10 92 -21 21 -27 20 -62 -9 -17 -14 -34
-25 -38 -25 -12 0 -84 73 -84 85 0 17 66 85 83 85 8 0 20 -7 27 -16 38 -45 90
-36 90 15 0 16 -9 40 -20 54 -11 14 -20 30 -20 35 0 17 66 82 83 82 8 0 31
-18 51 -40z m1008 3 c43 -42 45 -49 19 -77 -31 -34 -35 -62 -11 -86 19 -19 22
-19 48 -5 15 8 35 21 44 28 15 10 24 6 59 -30 42 -41 42 -41 21 -68 -11 -14
-32 -35 -47 -46 -25 -21 -25 -21 -56 5 -17 14 -36 26 -43 26 -38 0 -50 -74
-16 -105 26 -24 25 -37 -6 -74 -46 -55 -58 -56 -103 -8 -23 23 -41 47 -41 52
0 6 9 21 20 35 26 33 26 76 0 90 -21 11 -48 2 -83 -28 -16 -14 -20 -13 -52 18
-42 40 -44 62 -9 107 29 38 44 41 83 12 16 -11 39 -19 52 -17 33 4 38 51 10
89 -12 16 -21 32 -21 36 0 11 73 83 84 83 6 0 27 -17 48 -37z m-560 -699 c5
-3 8 -25 8 -49 0 -36 -3 -44 -23 -48 -12 -4 -40 -25 -62 -47 -40 -41 -40 -41
-22 -71 19 -34 23 -89 6 -89 -15 0 -51 20 -76 42 -22 20 -22 20 -52 -1 -51
-37 -81 -80 -81 -117 0 -26 10 -44 43 -79 24 -25 50 -45 58 -45 8 0 30 11 49
25 64 47 70 40 70 -85 0 -110 0 -110 -40 -110 -41 0 -41 0 -38 -68 3 -59 5
-67 23 -67 28 0 45 -13 45 -35 0 -15 22 -38 88 -91 13 -10 18 -249 6 -262 -9
-9 -73 25 -174 92 -124 81 -339 298 -422 426 -85 131 -130 220 -166 336 -39
121 -49 168 -58 256 -11 117 -53 107 408 99 222 -4 406 -10 410 -12z m62 -148
c39 -36 44 -57 21 -76 -9 -8 -15 -30 -15 -56 0 -41 2 -44 28 -44 15 0 45 12
66 26 38 26 38 26 65 7 14 -11 35 -36 46 -56 20 -36 20 -36 -1 -63 -11 -15
-32 -37 -46 -47 -26 -20 -27 -20 -54 2 -17 13 -41 21 -65 21 -39 0 -39 0 -39
-129 0 -130 0 -130 38 -133 36 -3 37 -4 40 -45 3 -45 3 -45 -48 -47 -21 -1
-25 -5 -22 -30 3 -20 -4 -36 -24 -57 -15 -16 -33 -29 -39 -29 -6 0 -27 17 -48
38 -26 27 -34 41 -27 52 13 21 3 30 -36 30 -33 0 -34 1 -34 39 0 39 1 40 38
43 37 3 37 3 37 138 0 135 0 135 -41 138 -32 2 -48 -2 -72 -22 -30 -26 -30
-26 -66 14 -20 22 -36 48 -36 58 0 10 18 35 40 57 40 39 40 39 65 15 17 -16
37 -24 67 -24 43 -1 43 -1 46 46 2 31 -3 56 -13 71 -15 24 -15 26 26 61 24 20
48 36 55 36 7 0 29 -15 48 -34z"/>
<path d="M1447 2874 c-17 -17 -4 -24 44 -24 36 0 49 4 47 13 -5 13 -79 22 -91
11z"/>
<path d="M1635 2851 c-3 -6 4 -15 15 -21 29 -15 102 -18 107 -4 8 23 -108 47
-122 25z"/>
<path d="M1223 2843 c-17 -6 -16 -33 1 -33 23 0 76 22 76 31 0 9 -56 11 -77 2z"/>
</g>
</svg>
