<?xml version="1.0" standalone="no"?>
<!DOCTYPE svg PUBLIC "-//W3C//DTD SVG 20010904//EN"
 "http://www.w3.org/TR/2001/REC-SVG-20010904/DTD/svg10.dtd">
<svg version="1.0" xmlns="http://www.w3.org/2000/svg"
 width="345.000000pt" height="387.000000pt" viewBox="0 0 345.000000 387.000000"
 preserveAspectRatio="xMidYMid meet">
<metadata>
Created by potrace 1.16, written by Peter Selinger 2001-2019
</metadata>
<g transform="translate(0.000000,387.000000) scale(0.100000,-0.100000)"
fill="#000000" stroke="none">
<path d="M1658 3787 c-31 -53 -43 -66 -77 -77 -23 -7 -41 -17 -42 -22 -7 -56
-3 -63 38 -82 41 -20 41 -20 45 -115 2 -53 2 -99 0 -103 -2 -5 -35 -8 -73 -8
-69 0 -70 0 -120 47 -27 25 -51 44 -53 42 -2 -2 -16 -26 -32 -54 -15 -27 -35
-54 -44 -59 -28 -17 -80 -74 -80 -87 0 -8 36 -52 81 -99 59 -62 83 -82 93 -75
7 6 32 25 56 43 38 28 50 32 107 32 63 0 63 0 63 -174 0 -172 0 -175 -25 -204
-14 -17 -59 -49 -100 -71 -75 -42 -75 -42 -75 -144 0 -67 -4 -107 -12 -115
-18 -18 -205 -16 -258 3 -60 21 -236 20 -292 -2 -86 -33 -119 -66 -178 -181
-31 -59 -95 -180 -144 -269 -77 -143 -92 -166 -129 -187 -86 -51 -247 -72
-339 -44 -59 18 -65 2 -23 -68 45 -75 57 -86 130 -123 54 -28 68 -31 152 -31
102 0 114 -8 58 -41 -36 -22 -40 -48 -4 -29 15 9 21 7 25 -5 8 -20 -11 -97
-40 -160 -13 -27 -38 -90 -56 -140 -18 -49 -41 -97 -51 -106 -13 -12 -16 -25
-12 -57 3 -23 10 -42 15 -42 5 0 50 25 101 56 50 30 96 56 102 57 5 1 12 -18
16 -43 5 -36 2 -54 -17 -92 -13 -26 -28 -49 -34 -53 -18 -11 -11 -31 30 -82
36 -46 40 -56 46 -132 4 -45 11 -84 17 -88 6 -3 19 7 31 23 12 16 28 36 36 44
16 17 79 111 99 147 18 34 68 268 101 468 16 99 34 200 40 225 5 25 26 144 46
265 20 121 41 231 46 245 10 25 10 25 19 1 17 -43 29 -270 24 -460 -3 -151
-10 -215 -37 -362 -38 -212 -38 -211 53 -392 72 -144 140 -246 235 -352 89
-100 226 -234 279 -273 22 -17 73 -55 113 -86 104 -79 101 -78 145 -48 153
108 219 164 342 285 77 76 147 144 155 150 40 31 190 297 244 435 37 92 37 92
16 195 -28 138 -50 276 -50 313 0 26 6 33 45 52 89 43 105 25 121 -138 6 -60
54 -310 79 -414 26 -107 61 -174 132 -255 24 -27 43 -56 43 -65 0 -20 24 -21
39 -2 9 10 9 16 1 21 -6 4 -9 13 -6 20 3 8 8 71 12 140 3 70 9 161 13 203 6
77 6 77 46 75 26 -2 46 -10 57 -23 9 -11 24 -20 33 -20 9 0 30 -7 46 -16 31
-16 109 -12 109 6 0 4 -15 31 -34 59 -34 50 -76 148 -76 176 0 8 -6 18 -13 22
-7 4 -23 24 -34 43 -24 39 -78 169 -72 173 24 16 164 78 197 87 73 19 124 58
180 137 29 41 50 79 46 84 -6 10 -54 4 -84 -11 -8 -5 -37 -17 -65 -29 -40 -16
-52 -18 -60 -7 -5 7 -31 16 -57 19 -99 14 -172 67 -251 185 -38 57 -149 279
-201 403 -21 51 -36 71 -67 91 -82 53 -225 60 -397 18 -99 -24 -160 -25 -208
-5 -36 15 -36 15 -33 107 2 51 0 103 -5 115 -4 14 -30 33 -70 52 -107 52 -117
75 -119 282 -2 154 -2 154 75 157 77 3 77 3 100 -32 13 -19 33 -39 45 -45 24
-11 34 -2 71 59 11 20 41 51 66 70 25 18 46 40 46 48 0 8 -27 43 -60 79 -33
35 -60 68 -60 73 0 5 -9 14 -20 20 -22 12 -46 3 -93 -36 -24 -20 -40 -24 -97
-24 -38 0 -72 4 -75 10 -3 5 -3 50 1 99 7 90 7 90 45 117 65 45 61 90 -10 114
-32 10 -48 25 -78 71 -21 32 -45 58 -53 58 -8 1 -32 -28 -52 -62z m94 -38 c16
-30 35 -47 66 -60 50 -22 54 -42 11 -60 -47 -19 -60 -60 -58 -185 1 -106 1
-106 100 -100 108 6 128 12 153 51 20 30 30 26 52 -21 10 -20 34 -47 56 -61
21 -14 38 -31 38 -38 0 -7 -18 -25 -39 -40 -24 -16 -48 -45 -61 -73 -22 -46
-22 -46 -55 -6 -33 39 -33 39 -139 42 -106 4 -106 4 -106 -155 0 -87 5 -178
11 -203 14 -63 41 -120 56 -120 35 0 125 -44 135 -66 6 -13 9 -26 6 -29 -3 -3
-40 6 -82 20 -63 21 -97 26 -189 27 -101 1 -119 -2 -180 -27 -37 -15 -71 -25
-74 -21 -3 3 -2 16 4 29 8 16 31 30 79 46 65 22 70 27 90 70 19 41 22 68 25
236 4 190 4 190 -99 190 -104 0 -104 0 -133 -32 -35 -40 -43 -41 -58 -5 -7 16
-32 45 -57 66 -24 20 -44 42 -43 49 0 7 19 26 42 42 23 17 49 45 59 63 24 49
26 49 56 13 31 -37 69 -48 172 -47 65 1 65 1 68 96 4 124 -8 167 -54 186 -45
19 -43 41 6 60 29 12 48 29 66 60 14 24 32 44 39 44 8 0 24 -19 37 -41z m141
-1140 c53 -15 78 -28 82 -40 11 -33 -4 -39 -48 -20 -111 48 -265 50 -396 8
-59 -20 -74 -21 -78 -10 -3 7 0 20 7 28 11 13 106 48 160 59 53 10 199 -3 273
-25z m-213 -67 c0 -20 -48 -50 -89 -57 -24 -4 -59 -14 -77 -21 -43 -18 -64
-18 -64 1 0 22 45 47 119 67 73 19 111 22 111 10z m160 -3 c106 -23 157 -56
131 -82 -7 -7 -25 -5 -53 6 -24 8 -59 18 -79 21 -37 7 -89 40 -89 57 0 12 33
11 90 -2z m-695 -110 c89 -26 250 -28 349 -5 38 9 71 14 75 11 18 -18 -157
-114 -256 -139 -95 -25 -159 -21 -244 15 -76 33 -253 74 -269 64 -18 -11 -10
-23 21 -34 24 -8 30 -15 24 -28 -15 -39 -76 -256 -105 -373 -41 -164 -57 -197
-117 -248 -125 -104 -313 -130 -444 -61 -54 29 -138 103 -128 114 3 2 29 -4
57 -15 69 -27 135 -25 209 4 170 67 274 197 378 476 64 171 67 175 147 209 92
38 195 42 303 10z m1396 10 c96 -30 115 -47 144 -122 32 -82 67 -160 132 -297
86 -180 230 -293 391 -307 56 -5 77 -2 116 16 27 11 51 21 54 21 18 0 -100
-106 -143 -128 -44 -24 -61 -27 -150 -27 -92 0 -106 3 -169 33 -86 40 -151 92
-175 140 -10 21 -35 100 -54 177 -20 77 -51 194 -70 260 -19 66 -33 123 -30
128 2 4 13 7 23 7 25 0 36 20 19 31 -22 14 -150 -15 -271 -61 -105 -40 -171
-40 -292 1 -121 42 -271 146 -178 125 179 -41 271 -43 392 -7 73 22 208 27
261 10z m-756 -64 c77 -58 222 -130 305 -151 73 -19 242 -22 325 -5 27 5 52 8
54 5 2 -2 -6 -52 -19 -111 -12 -60 -28 -137 -36 -173 -43 -207 -39 -430 13
-730 40 -228 42 -214 -58 -420 -106 -218 -279 -411 -552 -616 -54 -41 -101
-74 -105 -74 -16 0 -210 153 -303 240 -210 194 -342 385 -423 608 -26 73 -26
73 -6 165 37 166 51 279 57 454 6 186 -6 311 -52 508 -32 135 -33 150 -15 149
8 0 58 -6 110 -13 143 -17 286 7 413 71 44 22 185 116 193 129 11 19 41 8 99
-36z m783 -127 c7 -24 37 -142 68 -263 70 -276 97 -321 226 -382 62 -29 59
-24 125 -188 24 -60 53 -129 63 -152 11 -24 20 -46 20 -50 0 -5 6 -19 13 -33
18 -35 41 -119 34 -126 -3 -3 -43 14 -89 38 -168 90 -221 97 -280 38 -22 -22
-42 -40 -44 -40 -1 0 -6 21 -9 48 -4 26 -24 151 -46 277 -71 425 -126 846
-113 867 11 17 20 7 32 -34z m-1678 -31 c0 -64 -19 -213 -65 -507 -28 -179
-93 -571 -101 -608 -5 -23 -7 -21 -46 23 -40 45 -43 47 -87 43 -25 -3 -64 -12
-86 -22 -71 -31 -119 -55 -157 -78 -20 -13 -39 -20 -43 -16 -5 5 100 287 150
403 8 17 21 49 31 73 14 37 25 47 70 67 63 28 138 95 165 147 11 21 31 86 45
145 14 60 29 122 34 138 5 17 24 81 41 143 17 61 36 112 40 112 5 0 9 -28 9
-63z m-327 -1209 c43 -59 98 -168 91 -181 -21 -38 -99 -147 -104 -147 -4 0
-10 48 -14 108 -3 59 -9 140 -13 180 -7 82 2 91 40 40z m2343 -7 c-3 -21 -9
-97 -12 -169 -6 -116 -15 -166 -27 -152 -2 3 -25 36 -51 74 -45 66 -47 72 -37
105 15 49 102 181 119 181 11 0 13 -9 8 -39z m-2406 -145 c0 -8 -4 -17 -9 -20
-10 -7 -23 19 -14 28 11 11 23 6 23 -8z"/>
<path d="M1680 2735 c0 -8 9 -15 20 -15 11 0 20 7 20 15 0 8 -9 15 -20 15 -11
0 -20 -7 -20 -15z"/>
<path d="M1680 2143 c-55 -73 -101 -105 -160 -111 -55 -5 -57 -7 -39 -77 8
-31 18 -46 33 -50 51 -15 86 -37 91 -58 10 -41 21 -222 17 -274 -4 -53 -4 -53
-115 -53 -149 0 -178 9 -214 65 -15 25 -34 45 -41 45 -7 0 -30 -9 -52 -20 -22
-11 -46 -20 -55 -20 -19 0 -19 -5 0 -77 19 -72 19 -127 0 -178 -23 -66 -20
-73 41 -100 31 -14 60 -25 64 -25 4 0 21 22 38 49 39 63 71 73 224 69 113 -3
113 -3 113 -124 0 -174 -13 -416 -24 -440 -6 -13 -30 -29 -58 -40 -26 -10 -49
-18 -51 -19 -3 -3 -32 -114 -32 -126 0 -6 9 -7 21 -4 57 18 148 -37 200 -121
19 -32 49 -46 49 -25 0 6 25 37 56 70 58 63 112 89 156 75 20 -6 20 -4 14 42
-12 84 -16 92 -45 99 -15 3 -41 14 -58 24 -42 26 -41 25 -55 496 -3 90 -3 90
139 90 142 0 142 0 172 -29 16 -15 35 -41 41 -57 7 -16 16 -29 20 -29 10 0
113 42 122 49 4 4 1 28 -7 55 -19 62 -19 136 0 206 18 68 18 70 1 70 -11 0
-83 29 -117 47 -4 2 -12 -9 -18 -25 -7 -17 -25 -42 -41 -57 -28 -26 -36 -28
-152 -34 -68 -4 -131 -5 -140 -3 -21 5 -22 47 -9 227 10 122 18 135 92 155 30
8 40 17 45 38 3 15 10 40 15 56 5 16 9 31 9 32 0 2 -19 4 -42 4 -63 0 -117 32
-168 100 -24 33 -45 60 -45 60 0 0 -16 -21 -35 -47z"/>
<path d="M893 1405 c-3 -9 -3 -18 0 -21 9 -9 27 6 27 22 0 19 -19 18 -27 -1z"/>
</g>
</svg>
