<?xml version="1.0" standalone="no"?>
<!DOCTYPE svg PUBLIC "-//W3C//DTD SVG 20010904//EN"
 "http://www.w3.org/TR/2001/REC-SVG-20010904/DTD/svg10.dtd">
<svg version="1.0" xmlns="http://www.w3.org/2000/svg"
 width="351.000000pt" height="461.000000pt" viewBox="0 0 351.000000 461.000000"
 preserveAspectRatio="xMidYMid meet">
<metadata>
Created by potrace 1.16, written by Peter Selinger 2001-2019
</metadata>
<g transform="translate(0.000000,461.000000) scale(0.100000,-0.100000)"
fill="#000000" stroke="none">
<path d="M1711 4550 c-43 -61 -43 -61 -27 -101 31 -78 15 -102 -55 -79 -40 14
-40 14 -86 -33 -47 -46 -47 -46 1 -91 26 -26 51 -46 55 -46 5 0 24 7 44 15 27
11 37 12 44 2 12 -17 8 -126 -6 -140 -16 -16 -13 -39 9 -67 27 -34 25 -49 -13
-116 -28 -51 -37 -59 -62 -59 -25 0 -38 11 -77 64 -43 57 -48 69 -48 116 0 53
0 53 -69 51 -56 -1 -75 3 -98 20 -41 31 -43 76 -5 111 26 25 30 36 35 106 3
42 3 77 1 77 -3 0 -30 -19 -61 -41 -30 -23 -67 -45 -82 -48 -24 -7 -26 -12
-29 -64 -2 -41 -7 -57 -17 -57 -8 0 -17 5 -21 11 -5 8 -27 9 -73 4 -36 -4 -81
-7 -98 -7 -18 0 -33 -4 -33 -10 0 -5 29 -38 65 -72 36 -34 65 -65 65 -70 0 -4
-9 -19 -20 -33 -11 -14 -20 -28 -20 -32 0 -3 20 -17 45 -30 45 -24 45 -24 74
8 62 66 147 30 268 -112 38 -45 41 -63 13 -72 -25 -8 -25 -23 0 -50 17 -18 18
-25 8 -53 -10 -26 -10 -37 0 -52 19 -31 15 -50 -27 -137 -48 -99 -98 -156
-156 -179 -35 -13 -45 -22 -47 -43 -5 -41 -50 -39 -155 4 -150 62 -198 74
-327 83 -123 8 -123 8 -222 64 -152 86 -260 114 -338 88 -42 -14 -46 -32 -10
-48 17 -8 36 -35 59 -85 47 -103 96 -166 162 -209 58 -38 58 -38 -15 -38 -41
0 -88 -6 -107 -14 -35 -15 -35 -15 6 -83 23 -37 51 -79 63 -91 25 -28 78 -57
124 -67 17 -3 32 -11 32 -16 0 -18 -68 -39 -125 -39 -72 0 -81 -18 -34 -67 42
-44 102 -72 152 -73 20 0 37 -5 37 -10 0 -17 -99 -159 -144 -208 -63 -69 -160
-107 -208 -81 -22 12 -22 12 5 25 60 32 34 106 -39 112 -85 6 -129 -104 -75
-191 13 -21 43 -49 68 -64 39 -22 58 -27 122 -27 65 0 86 4 145 32 38 18 84
46 103 62 33 30 53 38 53 22 0 -5 -21 -28 -47 -52 -349 -319 -372 -347 -381
-470 -5 -70 0 -85 68 -210 10 -19 31 -66 46 -104 111 -278 358 -358 485 -158
24 39 29 56 29 111 0 126 -68 216 -201 267 -38 14 -71 30 -75 35 -12 20 -47 7
-90 -33 -51 -47 -64 -42 -64 22 0 61 46 132 142 221 49 45 90 80 91 78 2 -2
10 -35 20 -74 41 -165 216 -307 265 -215 9 17 11 47 7 95 -6 67 -4 74 32 145
38 75 38 75 41 38 2 -21 -1 -84 -6 -140 -18 -190 10 -338 91 -488 85 -159 218
-302 422 -456 108 -81 232 -181 239 -193 3 -5 -17 -27 -44 -50 -50 -42 -50
-42 -106 18 -35 38 -76 70 -111 86 -60 29 -57 29 -395 9 -83 -5 -103 -3 -143
15 -75 33 -73 44 33 167 94 110 96 119 35 176 -58 55 -184 88 -212 54 -6 -7
-22 -44 -35 -82 -25 -73 -76 -182 -107 -226 -27 -37 -24 -59 13 -97 66 -67 91
-74 308 -77 171 -2 206 -5 288 -27 52 -14 96 -28 99 -30 2 -3 -6 -20 -18 -37
-32 -42 -32 -100 0 -134 42 -45 116 -24 124 33 2 14 9 27 15 29 13 4 198 -177
240 -236 30 -42 83 -184 100 -267 9 -45 35 -55 40 -15 5 43 53 182 85 245 20
41 62 93 135 168 58 59 111 107 118 107 6 0 14 -13 17 -30 8 -39 47 -64 87
-55 64 14 86 102 37 153 -15 15 -27 31 -27 34 0 9 85 35 155 48 81 14 323 27
338 18 23 -14 98 -8 136 12 54 27 111 83 111 109 0 12 -17 52 -38 89 -39 69
-112 233 -112 251 0 6 -9 15 -19 21 -72 38 -241 -50 -241 -127 0 -14 12 -37
29 -53 15 -16 45 -54 65 -84 20 -31 41 -56 46 -56 12 0 22 -34 14 -54 -3 -9
-34 -25 -72 -36 -64 -20 -69 -20 -206 -4 -236 27 -325 6 -422 -99 -46 -50 -58
-58 -65 -45 -5 9 -25 26 -44 38 -19 12 -35 28 -35 35 0 17 85 90 230 197 260
193 408 371 480 582 41 116 51 206 39 347 -6 64 -9 135 -7 156 4 38 4 38 22
-2 10 -22 27 -52 37 -67 16 -22 19 -41 17 -116 -3 -99 6 -122 52 -122 50 0
148 88 190 170 11 22 25 63 31 92 6 29 13 55 15 57 2 2 44 -33 93 -78 108 -99
141 -155 141 -243 0 -32 -2 -58 -5 -58 -2 0 -25 23 -51 50 -26 28 -52 50 -58
50 -25 0 -183 -72 -216 -99 -56 -45 -93 -113 -98 -179 -6 -87 12 -139 68 -193
113 -110 252 -80 369 81 56 75 72 104 96 180 10 30 33 77 51 103 39 56 49 98
41 172 -10 98 -56 163 -224 312 -59 53 -125 115 -145 138 -37 42 -37 42 63 -8
93 -47 104 -51 178 -51 70 -1 83 2 126 29 49 31 103 108 104 151 1 11 -15 39
-35 62 -30 36 -41 42 -73 42 -44 0 -73 -26 -73 -65 0 -28 19 -57 36 -53 6 2
13 -1 15 -7 1 -5 -13 -14 -33 -19 -48 -13 -117 15 -177 71 -37 34 -153 190
-167 225 -2 4 16 8 40 8 27 0 63 10 94 25 50 25 101 85 89 104 -3 6 -30 11
-58 11 -50 0 -147 27 -147 41 0 3 18 9 41 13 83 13 146 62 189 146 10 20 26
42 34 49 42 35 -7 61 -118 62 -70 0 -71 0 -46 17 75 50 132 118 177 210 30 61
55 98 70 105 34 15 28 35 -14 46 -57 16 -107 13 -173 -9 -58 -20 -75 -28 -175
-86 -69 -41 -114 -52 -230 -58 -113 -7 -150 -15 -238 -55 -146 -67 -217 -76
-227 -31 -4 17 -20 32 -52 47 -51 25 -98 83 -153 188 -38 72 -42 100 -20 129
12 16 12 22 -1 48 -14 27 -13 31 6 56 21 27 21 27 -1 45 -19 15 -21 20 -9 41
24 46 122 138 167 158 65 29 133 12 133 -33 0 -24 6 -24 37 1 14 11 31 20 38
20 7 0 18 7 25 15 11 13 9 20 -9 38 -11 13 -21 27 -21 31 0 5 33 40 73 79 72
71 72 71 -26 80 -83 7 -101 6 -122 -7 -13 -9 -27 -16 -30 -16 -3 0 -5 27 -5
60 0 57 -2 61 -27 71 -16 6 -52 29 -81 51 -59 44 -79 41 -60 -9 9 -23 9 -41 1
-66 -10 -33 -9 -37 24 -66 46 -41 44 -85 -7 -119 -31 -21 -42 -23 -99 -18 -64
7 -64 7 -58 -42 5 -47 3 -53 -39 -111 -49 -68 -62 -76 -99 -67 -19 5 -34 24
-57 70 -32 64 -32 64 -5 100 32 41 32 43 12 63 -12 11 -15 32 -13 82 3 72 6
74 63 50 29 -11 33 -10 70 25 22 20 43 36 48 36 21 0 2 41 -36 78 -44 43 -44
43 -80 26 -19 -9 -42 -14 -51 -11 -21 8 -21 65 0 96 15 21 15 24 -11 59 -15
20 -35 49 -44 64 -9 16 -21 28 -27 28 -6 0 -30 -27 -53 -60z m80 -31 c18 -26
20 -35 10 -55 -15 -35 -14 -106 3 -129 13 -18 19 -19 72 -7 51 10 60 10 76 -5
25 -22 23 -38 -8 -62 -20 -16 -31 -18 -50 -10 -40 15 -91 11 -98 -7 -10 -26
-7 -162 4 -169 17 -10 11 -37 -12 -62 -28 -30 -32 -29 -59 8 -18 26 -20 34
-10 53 7 13 11 54 9 101 -3 80 -3 80 -40 83 -20 2 -47 -2 -59 -8 -18 -10 -25
-8 -48 14 -21 21 -24 30 -15 44 9 14 26 17 85 17 74 0 74 0 77 60 2 32 -2 69
-9 81 -9 18 -7 27 12 53 12 17 26 31 30 31 4 0 18 -14 30 -31z m475 -245 c30
-23 34 -32 34 -71 0 -37 10 -74 26 -92 2 -2 23 8 48 23 43 25 47 26 82 11 43
-18 41 -33 -9 -60 -31 -17 -40 -18 -57 -7 -54 33 -53 1 2 -55 23 -23 39 -46
35 -49 -4 -4 -26 1 -49 12 -52 24 -102 23 -153 -1 -47 -23 -137 -112 -171
-171 -26 -45 -44 -57 -69 -48 -23 9 -18 35 20 94 45 73 52 80 75 80 24 0 26
13 5 30 -8 7 -15 23 -15 36 0 22 4 24 57 24 72 0 129 35 139 85 7 37 -17 102
-41 111 -21 9 -20 74 2 74 3 0 20 -12 39 -26z m-956 -10 c0 -16 -11 -36 -25
-50 -34 -32 -36 -111 -2 -141 37 -34 63 -43 121 -43 63 0 70 -10 35 -54 -23
-29 -17 -50 11 -41 17 6 24 -2 100 -121 16 -25 8 -40 -24 -46 -13 -2 -27 8
-43 32 -89 133 -206 218 -283 205 -21 -4 -46 -13 -57 -20 -22 -17 -53 -19 -53
-4 0 6 18 28 40 48 53 48 53 82 0 49 -15 -10 -26 -9 -54 5 -40 19 -46 41 -17
57 30 16 60 12 99 -12 34 -21 35 -21 48 -3 8 10 14 40 14 66 0 42 4 51 33 73
41 33 57 33 57 0z m478 -326 c7 -7 12 -21 12 -32 0 -11 7 -28 17 -38 9 -10 13
-21 10 -24 -8 -8 -46 36 -47 52 0 6 -7 17 -15 24 -8 7 -12 16 -9 21 7 12 18
11 32 -3z m-57 -51 c-8 -8 -11 -7 -11 4 0 20 13 34 18 19 3 -7 -1 -17 -7 -23z
m162 -117 c43 -22 96 -43 118 -46 41 -7 49 -26 13 -33 -10 -2 -21 -7 -24 -11
-3 -4 -27 -11 -55 -15 -49 -7 -49 -7 -32 12 21 24 22 43 3 43 -17 0 -29 -17
-31 -41 -1 -9 -9 -25 -18 -34 -23 -23 -13 -36 21 -25 52 16 84 21 78 12 -3 -6
4 -12 17 -16 18 -5 20 -8 7 -16 -8 -5 -30 -10 -49 -10 -49 0 -108 -20 -129
-44 -21 -23 -37 -101 -23 -110 12 -8 34 21 26 33 -4 7 4 9 22 5 18 -3 43 3 68
16 34 17 75 27 75 16 0 -58 -145 -216 -200 -216 -18 0 -11 16 15 30 33 17 32
34 -1 26 -41 -11 -63 1 -61 32 1 18 -4 27 -15 30 -13 2 -18 -3 -18 -17 0 -12
5 -21 12 -21 9 0 9 -3 0 -12 -9 -9 -6 -17 15 -34 41 -33 21 -40 -29 -11 -64
37 -135 118 -144 161 -9 48 -2 53 36 25 21 -16 43 -23 69 -22 31 2 40 -2 44
-18 3 -10 12 -19 21 -19 24 0 21 61 -5 94 -29 37 -52 47 -127 54 -77 8 -92 27
-30 39 32 7 49 6 65 -4 28 -18 42 2 19 25 -17 17 -116 25 -116 10 0 -4 -13
-16 -30 -28 -17 -12 -30 -16 -30 -10 0 7 9 14 20 17 21 5 21 5 0 40 -24 41
-25 47 -5 39 21 -8 217 90 251 125 28 29 28 29 53 -1 14 -16 61 -47 104 -70z
m137 -109 c0 -10 8 -22 17 -25 11 -5 13 -10 6 -17 -7 -7 -18 -7 -34 3 -13 7
-25 14 -27 15 -2 1 1 11 8 22 13 26 30 27 30 2z m-128 -123 c-6 -6 -15 -8 -19
-4 -4 4 -1 11 7 16 19 12 27 3 12 -12z m-262 2 c0 -5 -4 -10 -9 -10 -6 0 -13
5 -16 10 -3 6 1 10 9 10 9 0 16 -4 16 -10z m-165 -80 c-4 -12 -9 -19 -12 -17
-3 3 -2 15 2 27 4 12 9 19 12 17 3 -3 2 -15 -2 -27z m603 -65 c-3 -3 -9 2 -12
12 -6 14 -5 15 5 6 7 -7 10 -15 7 -18z m-618 7 c0 -5 -7 -17 -16 -28 -14 -17
-15 -17 -10 -1 3 10 6 23 6 28 0 5 5 9 10 9 6 0 10 -4 10 -8z m601 -69 c8 -29
29 -64 55 -92 24 -25 64 -84 90 -130 25 -46 63 -102 83 -124 36 -40 36 -40 8
-33 -26 6 -27 5 -17 -15 18 -32 4 -34 -38 -6 -40 26 -70 77 -91 152 -6 22 -20
54 -31 70 -28 42 -26 13 5 -94 14 -47 25 -94 25 -105 0 -18 -1 -18 -25 4 -31
29 -65 118 -65 169 0 21 -3 53 -6 70 -13 62 -24 29 -25 -71 -1 -57 -5 -116 -8
-133 -7 -30 -7 -30 -18 5 -6 21 -7 60 -2 95 4 33 8 118 8 189 1 126 1 129 20
112 10 -9 24 -38 32 -63z m-559 20 c-3 -27 -9 -49 -13 -51 -14 -6 -10 -22 5
-22 10 0 15 -30 21 -134 7 -133 3 -176 -16 -176 -7 0 -9 52 -7 145 2 80 0 145
-4 145 -3 0 -11 -14 -17 -31 -6 -17 -15 -28 -20 -24 -6 3 -18 -7 -28 -22 -10
-15 -21 -30 -25 -33 -4 -4 -16 -31 -27 -61 -28 -83 -45 -112 -90 -152 -53 -47
-97 -53 -51 -7 27 27 26 44 -1 30 -35 -19 -31 -6 16 49 24 28 60 82 80 119 19
37 51 85 71 107 20 22 45 60 56 85 16 38 45 80 53 80 2 0 0 -21 -3 -47z m603
-3 c8 -16 29 -46 47 -65 38 -44 32 -55 -11 -19 -33 28 -61 73 -61 99 0 23 8
18 25 -15z m-675 -14 c0 -18 -45 -73 -71 -87 -12 -6 -3 12 23 46 44 59 48 63
48 41z m834 -87 c5 -5 7 -11 4 -15 -10 -9 -67 25 -79 48 -11 21 -11 21 27 -2
22 -13 43 -27 48 -31z m-615 19 c6 -17 16 -23 37 -23 41 0 38 -28 -6 -57 -42
-28 -57 -68 -18 -47 12 6 36 23 51 35 34 28 54 30 79 7 13 -12 22 -13 29 -6 8
8 5 14 -10 22 -12 7 -21 18 -21 26 0 22 47 18 67 -5 25 -29 33 -25 33 20 0 32
4 40 18 40 17 0 49 -28 66 -58 7 -12 -26 -128 -60 -208 -7 -18 -16 -49 -20
-69 -8 -44 -30 -56 -53 -29 -9 11 -33 25 -53 32 -34 12 -40 11 -88 -19 -28
-17 -52 -30 -53 -28 -28 44 -48 110 -53 173 -5 53 -11 76 -20 76 -19 0 -36 37
-29 60 10 33 55 80 76 80 11 0 23 -10 28 -22z m-348 -19 c-25 -21 -51 -25 -51
-9 0 11 62 40 70 33 3 -3 -6 -13 -19 -24z m159 -114 c0 -61 -66 -203 -85 -183
-4 3 3 48 16 100 24 102 45 142 35 68 -6 -45 -6 -45 9 -15 7 17 12 38 9 48 -3
9 -1 17 5 17 6 0 11 -16 11 -35z m100 -221 c-24 -49 -66 -77 -108 -72 -27 3
-26 4 28 60 30 31 64 69 75 85 20 28 20 28 23 0 2 -15 -6 -48 -18 -73z m435
26 c20 -27 48 -58 63 -69 24 -17 25 -20 9 -26 -45 -18 -100 34 -118 113 -10
45 3 40 46 -18z m-1195 -45 c0 -2 -16 -13 -36 -25 -39 -22 -37 -36 5 -42 39
-5 38 -28 -1 -28 -61 0 -100 49 -64 79 26 22 96 33 96 16z m2013 -13 c39 -34
3 -82 -61 -82 -41 0 -39 23 3 30 40 7 42 26 5 45 -17 9 -28 20 -25 25 8 13 55
2 78 -18z m-961 -22 c226 -108 460 -121 729 -39 38 11 72 18 78 15 5 -3 -5
-50 -24 -108 -81 -249 -101 -467 -70 -773 25 -249 10 -354 -70 -515 -88 -175
-176 -273 -411 -456 -94 -73 -205 -170 -248 -215 -76 -83 -76 -83 -106 -48
-16 19 -29 37 -30 40 0 9 -169 151 -280 235 -274 207 -411 398 -461 639 -20
95 -20 108 -7 250 7 83 13 238 12 345 -1 217 -13 296 -77 493 -19 59 -32 109
-27 112 4 2 61 -10 126 -27 110 -29 132 -32 284 -32 164 -1 166 -1 280 36 63
21 133 49 155 62 22 14 45 26 52 26 6 0 49 -18 95 -40z m-1364 -1282 c2 -20
10 -30 27 -34 13 -3 33 -16 45 -29 19 -21 22 -31 17 -70 -8 -52 10 -62 37 -20
18 27 36 25 36 -4 0 -46 -93 -93 -154 -77 -61 15 -125 104 -126 174 0 73 110
129 118 60z m2633 3 c16 -16 29 -38 29 -48 0 -22 -25 -104 -39 -132 -17 -31
-75 -61 -117 -61 -70 0 -150 78 -116 112 7 7 15 1 26 -21 23 -43 36 -39 36 13
0 50 28 93 63 98 13 2 23 11 25 23 6 38 12 45 37 45 16 0 38 -12 56 -29z
m-2256 -417 c53 -30 68 -48 63 -71 -7 -36 -94 -8 -155 50 -18 17 -33 37 -33
45 0 21 72 8 125 -24z m1925 23 c0 -16 -30 -44 -85 -81 -27 -18 -53 -26 -82
-26 -49 0 -51 5 -19 42 49 55 186 103 186 65z m-1424 -415 c70 -24 165 -122
210 -216 19 -39 34 -82 34 -95 0 -23 -9 -17 -78 52 -42 42 -81 77 -86 77 -5 0
-27 20 -50 44 -31 33 -61 51 -126 75 -47 18 -100 35 -118 38 -35 6 -47 17 -37
33 11 18 195 12 251 -8z m844 -7 c0 -2 -28 -19 -62 -37 -62 -33 -103 -76 -176
-185 -39 -59 -60 -62 -36 -5 38 92 140 202 208 225 35 12 66 13 66 2z m76 -24
c-3 -5 -18 -12 -33 -15 -60 -14 -83 -30 -108 -71 -14 -24 -35 -47 -48 -50 -12
-4 -59 -45 -104 -93 -46 -47 -83 -80 -83 -74 0 6 6 17 13 24 6 7 37 42 67 78
112 133 150 164 235 194 47 17 68 19 61 7z m-395 -232 c-17 -41 -50 -135 -74
-209 -24 -74 -49 -135 -55 -135 -7 0 -39 77 -71 170 -32 94 -64 183 -70 198
-18 47 -14 57 23 57 24 0 37 -5 41 -17 3 -10 21 -36 41 -58 35 -40 35 -40 69
0 19 22 37 48 40 57 6 17 62 29 78 17 5 -4 -5 -40 -22 -80z"/>
<path d="M1722 3767 c-37 -38 -40 -67 -12 -112 31 -50 50 -52 87 -11 43 47 43
82 0 124 -18 18 -35 32 -38 32 -3 0 -19 -15 -37 -33z m68 -36 c0 -4 -11 -8
-25 -9 -26 -2 -36 22 -12 31 12 4 37 -10 37 -22z m-10 -50 c0 -14 -18 -23 -31
-15 -8 4 -7 9 2 15 18 11 29 11 29 0z"/>
<path d="M1595 3720 c-7 -12 12 -40 27 -40 13 0 6 43 -9 47 -6 2 -14 -1 -18
-7z"/>
<path d="M1565 3700 c3 -5 8 -10 11 -10 2 0 4 5 4 10 0 6 -5 10 -11 10 -5 0
-7 -4 -4 -10z"/>
<path d="M1793 3397 c-32 -14 -29 -27 7 -27 19 0 30 5 30 14 0 21 -12 25 -37
13z"/>
<path d="M1675 2825 c-211 -102 -429 -120 -685 -56 -41 11 -77 17 -79 15 -2
-2 10 -54 27 -116 66 -238 70 -312 46 -830 -4 -80 -2 -153 6 -195 37 -215 187
-422 444 -615 146 -110 281 -223 301 -255 15 -22 45 -32 45 -15 0 19 127 133
270 242 235 179 341 297 424 469 56 117 69 196 62 369 -22 534 -21 564 36 787
38 149 41 165 36 165 -2 0 -27 -6 -54 -14 -252 -73 -494 -56 -710 49 -40 19
-78 35 -85 34 -8 0 -45 -16 -84 -34z m159 -30 c214 -104 484 -123 715 -50 27
9 28 22 -8 -119 -54 -212 -57 -285 -35 -787 5 -103 3 -153 -9 -211 -42 -202
-180 -389 -417 -567 -159 -118 -262 -204 -291 -242 -25 -32 -25 -32 -89 33
-36 36 -128 111 -205 168 -227 168 -349 300 -421 455 -53 114 -67 203 -60 364
23 493 18 595 -35 791 -36 130 -35 124 -8 115 109 -34 199 -46 329 -41 151 5
254 29 384 90 39 19 73 35 75 35 2 1 35 -15 75 -34z"/>
<path d="M1750 2692 c0 -5 -17 -30 -37 -57 -31 -40 -38 -56 -37 -92 1 -43 1
-43 -32 -37 -29 5 -34 3 -48 -25 -9 -16 -16 -41 -16 -54 0 -28 43 -71 85 -84
29 -9 30 -12 30 -71 0 -62 0 -62 -127 -66 -110 -4 -135 -8 -180 -29 -60 -29
-142 -103 -135 -121 6 -15 110 -56 141 -56 12 0 61 13 108 29 48 16 112 31
145 33 58 3 58 3 65 -57 5 -50 3 -63 -12 -80 -46 -52 -63 -292 -25 -381 17
-42 71 -104 91 -104 20 0 72 67 84 107 20 71 23 153 10 259 -10 83 -17 107
-32 115 -14 7 -18 21 -18 60 0 28 5 59 11 71 9 17 17 19 57 13 26 -4 86 -20
133 -36 48 -16 100 -29 115 -29 27 0 136 39 151 54 4 4 -18 31 -49 60 -76 73
-125 88 -284 90 -124 1 -124 1 -124 61 0 61 0 61 54 87 64 32 77 63 52 123
-15 35 -18 37 -50 31 -34 -6 -34 -6 -29 36 4 38 0 49 -38 101 -39 53 -59 69
-59 49z m-66 -534 c12 -20 2 -44 -27 -62 -13 -8 -22 -6 -39 11 -19 19 -20 26
-10 48 9 20 18 26 39 23 14 -2 31 -11 37 -20z m224 10 c16 -16 15 -53 -3 -68
-18 -15 -52 -4 -66 22 -20 37 38 77 69 46z m-411 -22 c27 -24 27 -26 13 -53
-34 -62 -121 -29 -98 37 8 25 20 34 50 39 4 0 20 -10 35 -23z m600 2 c27 -25
29 -45 6 -70 -19 -21 -56 -24 -70 -5 -23 29 -23 48 2 73 29 29 33 30 62 2z
m143 -76 c0 -5 -11 -14 -25 -20 -31 -14 -33 1 -2 16 28 14 27 13 27 4z m-911
-16 c9 -11 6 -12 -14 -8 -14 2 -28 8 -31 13 -9 15 33 10 45 -5z m466 -233 c42
-47 31 -79 -30 -84 -34 -3 -41 0 -54 23 -15 26 -14 29 14 58 16 16 32 30 36
30 5 0 20 -12 34 -27z m-1 -194 c45 -35 25 -89 -34 -89 -27 0 -60 22 -60 40 0
11 50 70 60 70 4 0 19 -9 34 -21z"/>
<path d="M1213 2648 c-39 -44 -45 -65 -28 -99 9 -17 14 -33 11 -36 -3 -4 -24
2 -47 13 -41 18 -41 18 -60 -5 -23 -28 -24 -72 -4 -111 18 -34 26 -36 60 -14
37 24 51 12 59 -49 7 -66 0 -90 -25 -84 -10 3 -24 -2 -31 -10 -10 -13 -8 -19
11 -34 55 -45 118 19 130 131 5 50 8 55 33 58 18 2 34 -5 53 -25 26 -28 26
-28 46 -4 21 26 26 90 9 121 -18 34 -44 41 -84 25 -19 -8 -40 -15 -46 -15 -15
0 -12 26 5 40 25 20 17 50 -21 86 -19 19 -39 34 -43 34 -4 0 -17 -10 -28 -22z"/>
<path d="M2231 2629 c-34 -41 -34 -41 -16 -75 10 -19 15 -37 12 -40 -3 -4 -27
1 -52 10 -46 15 -47 15 -71 -9 -19 -19 -24 -35 -24 -73 0 -26 6 -57 14 -67 13
-18 15 -18 46 8 18 16 44 27 61 27 28 0 29 -2 29 -45 0 -59 26 -120 60 -145
35 -25 45 -25 70 0 25 25 16 52 -15 44 -17 -4 -25 -1 -30 15 -6 18 0 70 12
114 5 21 36 22 53 2 43 -51 95 59 60 126 -13 23 -29 24 -75 2 -41 -20 -53 -13
-31 19 9 12 16 30 16 40 0 20 -57 88 -74 88 -6 0 -26 -19 -45 -41z"/>
<path d="M1278 1819 c-43 -59 -46 -79 -18 -134 22 -43 25 -65 10 -65 -5 0 -10
5 -10 11 0 5 -21 19 -47 31 -27 11 -57 29 -69 40 -19 17 -22 17 -34 2 -8 -8
-15 -41 -17 -72 -3 -44 0 -64 16 -89 21 -34 75 -53 94 -34 6 6 21 11 33 11 19
0 24 -8 34 -57 26 -130 54 -173 112 -173 33 0 63 37 47 56 -8 10 -15 10 -30 1
-14 -9 -21 -9 -31 1 -16 16 -14 102 4 138 14 30 20 31 86 18 28 -5 38 -2 63
22 16 15 32 42 35 60 8 44 -14 134 -32 134 -8 0 -14 -4 -14 -9 0 -12 -132 -83
-139 -75 -3 3 7 27 22 54 22 40 25 53 17 75 -12 32 -71 105 -85 105 -5 0 -27
-23 -47 -51z"/>
<path d="M2147 1814 c-43 -66 -45 -81 -15 -134 13 -21 20 -41 17 -44 -7 -8
-121 54 -136 73 -17 23 -31 4 -45 -60 -21 -103 30 -166 112 -139 60 20 75 1
75 -93 0 -72 0 -72 -35 -72 -26 0 -34 -4 -32 -15 6 -27 24 -40 53 -40 49 0 90
60 104 152 11 70 23 83 66 68 30 -11 40 -10 67 4 42 22 55 57 49 130 -7 75
-19 88 -51 53 -14 -15 -34 -27 -45 -27 -11 0 -34 -12 -51 -26 -17 -15 -34 -23
-38 -20 -3 4 6 31 22 60 21 39 26 59 21 77 -10 31 -74 109 -89 109 -6 0 -28
-25 -49 -56z"/>
<path d="M1721 1389 c-36 -36 -36 -37 -14 -84 9 -19 14 -37 12 -39 -8 -8 -77
19 -97 37 -25 23 -39 21 -48 -5 -24 -75 13 -155 66 -144 61 12 64 11 74 -17 8
-22 6 -35 -8 -62 -18 -33 -18 -33 9 -69 15 -20 33 -36 40 -36 17 0 75 66 75
86 0 8 -7 17 -15 20 -19 8 -20 54 -2 78 11 15 17 16 35 7 34 -18 59 -13 86 20
29 34 31 54 14 110 -13 45 -21 48 -51 15 -22 -24 -85 -51 -96 -41 -3 3 3 19
12 34 9 16 17 37 17 46 0 18 -52 75 -68 75 -6 0 -24 -14 -41 -31z"/>
<path d="M1270 752 c0 -4 24 -16 53 -27 40 -14 71 -37 135 -100 45 -46 82 -79
82 -75 0 15 -63 101 -96 130 -61 53 -174 100 -174 72z"/>
<path d="M2870 3958 c-46 -13 -86 -52 -106 -104 -15 -39 -15 -46 0 -91 30 -89
136 -161 233 -159 28 1 55 4 58 8 14 13 -91 132 -139 159 -59 32 -78 61 -64
101 6 16 17 28 27 28 24 0 55 36 48 55 -7 17 -8 17 -57 3z m-43 -145 c10 -21
34 -48 53 -60 61 -38 119 -88 119 -102 1 -23 -77 -6 -123 27 -56 40 -86 86
-86 133 0 49 13 50 37 2z"/>
<path d="M597 3954 c-13 -13 17 -52 44 -58 33 -6 47 -42 29 -75 -6 -12 -35
-35 -65 -52 -53 -30 -135 -122 -135 -152 0 -26 111 -13 171 19 120 66 160 182
93 271 -29 38 -116 68 -137 47z m127 -80 c3 -9 6 -37 6 -64 0 -59 -28 -97
-104 -140 -48 -28 -106 -40 -106 -22 0 13 73 79 105 95 53 27 80 64 79 108 -1
40 9 52 20 23z"/>
<path d="M830 3712 c0 -26 20 -42 50 -42 34 0 50 -33 38 -77 -11 -41 -31 -52
-95 -50 -45 2 -56 -2 -80 -26 -22 -22 -26 -31 -17 -44 40 -63 141 -78 212 -30
103 68 107 186 9 261 -42 32 -117 38 -117 8z m150 -88 c16 -49 0 -104 -41
-138 -37 -32 -68 -40 -121 -33 -86 12 -72 57 19 57 32 0 63 6 78 16 29 19 46
65 38 104 -8 43 13 38 27 -6z"/>
<path d="M2595 3720 c-42 -17 -85 -74 -91 -121 -15 -112 100 -212 206 -180
126 38 110 124 -24 126 -48 0 -61 4 -77 24 -21 26 -25 71 -7 89 7 7 24 12 38
12 30 0 50 17 50 42 0 14 -8 18 -37 17 -21 0 -47 -4 -58 -9z m-30 -124 c10
-61 45 -86 121 -86 71 0 89 -14 54 -42 -15 -12 -39 -18 -71 -18 -42 0 -53 5
-89 38 -37 36 -40 43 -40 94 0 30 3 58 7 62 8 8 9 7 18 -48z"/>
<path d="M1440 820 c0 -5 5 -10 10 -10 6 0 10 5 10 10 0 6 -4 10 -10 10 -5 0
-10 -4 -10 -10z"/>
</g>
</svg>
