<?xml version="1.0" standalone="no"?>
<!DOCTYPE svg PUBLIC "-//W3C//DTD SVG 20010904//EN"
 "http://www.w3.org/TR/2001/REC-SVG-20010904/DTD/svg10.dtd">
<svg version="1.0" xmlns="http://www.w3.org/2000/svg"
 width="380.000000pt" height="441.000000pt" viewBox="0 0 380.000000 441.000000"
 preserveAspectRatio="xMidYMid meet">
<metadata>
Created by potrace 1.16, written by Peter Selinger 2001-2019
</metadata>
<g transform="translate(0.000000,441.000000) scale(0.100000,-0.100000)"
fill="#000000" stroke="none">
<path d="M1915 4400 c-5 -8 -17 -58 -27 -113 -10 -55 -25 -111 -34 -125 -14
-21 -21 -23 -59 -17 -36 5 -47 3 -64 -14 -27 -27 -27 -65 -1 -91 16 -16 28
-19 58 -14 53 8 65 -11 94 -141 33 -150 45 -149 83 1 15 64 35 123 43 131 10
10 25 13 49 8 27 -5 38 -1 58 19 30 31 32 59 4 87 -16 16 -28 20 -55 14 -71
-13 -84 8 -115 175 -14 79 -23 98 -34 80z m126 -310 c32 0 40 -3 29 -10 -8 -5
-29 -10 -45 -10 -45 0 -71 -24 -84 -75 -11 -45 -31 -54 -31 -14 0 28 -26 75
-45 83 -9 3 -34 6 -55 6 -59 0 -57 17 3 23 44 4 56 10 81 39 30 35 30 35 66
-4 32 -33 43 -38 81 -38z"/>
<path d="M1465 4160 c-88 -16 -122 -105 -70 -182 25 -36 25 -36 -10 -57 -109
-64 -127 -221 -40 -336 33 -42 112 -82 180 -91 61 -8 68 -13 85 -64 11 -33 11
-45 1 -64 -9 -16 -10 -29 -3 -42 6 -11 13 -41 17 -67 7 -45 5 -51 -23 -80 -37
-39 -72 -104 -72 -133 0 -12 7 -27 15 -34 21 -17 19 -25 -14 -63 -35 -39 -112
-83 -159 -90 -39 -6 -47 -12 -37 -26 3 -6 24 -11 46 -11 22 0 38 -4 35 -8 -3
-5 -46 -26 -95 -47 -90 -39 -90 -39 -93 -99 -3 -61 -3 -61 -69 -60 -85 2 -164
40 -224 106 -118 132 -93 292 53 334 143 42 212 194 148 329 -28 60 -56 87
-116 114 -70 32 -200 26 -248 -12 -25 -20 5 -27 47 -12 82 28 178 9 239 -48
65 -61 81 -167 37 -243 -28 -47 -66 -74 -142 -98 -154 -50 -178 -245 -48 -393
61 -70 148 -113 247 -121 73 -7 73 -7 76 -116 1 -60 -1 -113 -6 -118 -5 -5
-29 -4 -56 3 -26 6 -50 9 -53 5 -13 -13 24 -37 61 -40 45 -4 59 -16 54 -47 -3
-22 -7 -24 -50 -21 -48 4 -48 4 -48 -37 0 -43 -43 -150 -107 -265 -53 -96 -53
-57 1 61 48 104 65 165 66 225 0 32 -5 40 -31 53 -17 9 -32 15 -34 13 -1 -2
-17 -70 -34 -153 -28 -131 -81 -363 -92 -404 -2 -7 1 -15 7 -18 17 -6 133 152
166 227 63 139 57 136 57 35 1 -49 -4 -107 -10 -129 -19 -69 5 -65 51 8 23 36
45 66 49 66 4 0 12 -59 19 -132 12 -132 12 -132 -19 -187 -48 -85 -116 -177
-146 -196 -22 -15 -24 -19 -10 -26 24 -14 112 23 168 71 49 41 49 41 60 13 23
-61 21 -78 -15 -148 -42 -82 -52 -136 -36 -194 11 -43 30 -48 30 -7 0 12 6 31
14 41 13 18 14 18 19 -1 21 -76 19 -93 -23 -172 -55 -103 -52 -100 -159 -170
-79 -53 -100 -62 -137 -62 -31 0 -46 -5 -51 -15 -3 -9 -23 -25 -45 -36 -58
-29 -80 -72 -74 -137 5 -54 5 -54 -127 -116 -73 -34 -162 -75 -200 -91 -72
-30 -104 -55 -70 -55 10 0 57 15 104 34 46 18 164 60 262 92 149 48 181 56
198 46 27 -17 34 -15 71 16 18 16 66 39 106 52 67 21 74 21 91 6 22 -20 34
-20 72 0 28 14 32 14 50 -2 18 -16 21 -16 57 10 21 14 47 26 59 26 11 0 38 12
59 27 45 30 153 83 171 83 20 0 80 -118 117 -230 39 -120 66 -264 66 -359 0
-65 12 -103 26 -88 4 4 11 51 15 105 8 118 31 228 70 346 32 97 93 214 116
223 18 7 124 -38 183 -77 25 -16 55 -30 67 -30 12 0 28 -6 35 -13 7 -8 24 -19
37 -26 19 -11 26 -10 42 5 18 16 21 16 60 -1 38 -17 42 -18 68 -2 27 16 32 15
87 -4 73 -26 93 -36 121 -62 20 -18 26 -19 48 -7 22 12 42 7 207 -50 101 -35
215 -76 253 -92 76 -30 99 -34 93 -16 -5 14 10 6 -210 112 -98 46 -178 89
-178 94 0 5 5 23 11 40 15 44 -17 110 -66 137 -20 10 -41 27 -46 37 -7 13 -21
18 -48 18 -31 0 -58 13 -133 63 -95 64 -128 101 -185 211 -22 44 -23 52 -11
74 22 42 15 148 -15 218 -23 53 -24 66 -15 102 6 23 16 42 22 42 6 0 28 -14
49 -31 42 -35 125 -65 140 -50 5 5 -7 26 -31 50 -22 23 -61 82 -87 132 -45 87
-46 91 -36 142 5 29 13 92 16 140 8 100 14 102 59 12 32 -63 60 -75 52 -22
-11 72 -17 227 -8 227 5 0 14 -19 21 -42 19 -63 83 -178 138 -247 49 -63 82
-81 68 -38 -4 12 -13 55 -21 96 -8 40 -29 139 -48 220 -19 80 -37 165 -41 189
-7 46 -8 47 -54 31 -29 -10 -31 -14 -26 -48 15 -92 30 -142 67 -225 62 -141
38 -135 -32 8 -48 97 -65 143 -68 183 -5 55 -5 55 -51 51 -42 -3 -46 -1 -49
21 -5 31 9 43 53 47 42 4 71 22 57 36 -6 6 -26 5 -52 -2 -25 -7 -46 -8 -52 -2
-5 5 -7 58 -6 118 3 109 3 109 75 115 134 12 250 90 304 204 48 101 35 211
-33 274 -11 11 -51 32 -88 46 -127 49 -180 153 -135 263 43 102 170 156 281
118 57 -19 80 -7 38 21 -22 14 -48 18 -119 18 -84 0 -95 -2 -141 -30 -100 -62
-140 -186 -94 -293 28 -64 71 -103 145 -131 30 -12 66 -28 79 -37 55 -35 72
-142 36 -221 -50 -110 -164 -185 -284 -187 -61 -1 -61 -1 -64 62 -3 63 -3 63
-66 92 -82 36 -91 50 -33 50 24 0 47 3 50 7 10 9 -13 33 -32 33 -39 0 -161
131 -161 172 0 16 5 19 29 13 42 -9 46 10 7 33 -47 28 -157 226 -160 290 -4
74 22 132 59 132 39 0 127 37 167 70 49 41 88 121 88 182 0 63 -27 115 -86
166 -47 40 -47 40 -26 66 29 38 36 78 18 119 -18 45 -57 71 -103 69 -97 -4
-143 -108 -83 -191 14 -21 39 -36 84 -51 74 -24 128 -71 146 -125 27 -81 -20
-184 -102 -226 -100 -51 -269 -5 -242 65 8 21 19 20 71 -5 117 -57 241 20 230
144 -9 104 -124 158 -215 101 -31 -20 -19 -35 21 -23 56 16 87 11 118 -20 51
-51 36 -131 -31 -166 -43 -22 -74 -19 -133 15 -30 17 -58 30 -64 30 -6 0 -34
-16 -63 -35 -59 -40 -64 -39 -125 24 -21 23 -43 41 -48 41 -6 0 -34 -20 -63
-45 -55 -48 -74 -54 -93 -31 -7 8 -28 22 -48 31 -36 17 -37 17 -103 -15 -80
-39 -121 -36 -166 11 -52 54 -29 146 41 169 24 8 40 8 54 1 25 -14 61 -14 61
0 0 15 -63 39 -102 39 -40 0 -91 -29 -114 -66 -25 -37 -24 -116 2 -152 55 -73
137 -92 221 -50 50 25 70 16 59 -27 -9 -35 -62 -57 -136 -56 -94 0 -160 37
-191 105 -52 115 10 235 137 267 77 20 129 98 105 160 -10 27 -58 74 -81 81
-8 2 -28 2 -45 -2z m65 -50 c23 -23 25 -39 8 -75 -22 -48 -97 -46 -117 3 -13
31 -2 76 21 85 29 12 69 6 88 -13z m880 0 c42 -42 13 -110 -47 -110 -47 0 -76
63 -49 105 20 31 67 34 96 5z m-524 -515 c23 -9 42 -12 52 -6 30 15 102 24
102 12 0 -6 -9 -11 -20 -11 -12 0 -34 -7 -49 -15 -16 -8 -31 -11 -35 -8 -12
13 -6 -14 9 -33 21 -28 18 -40 -5 -19 -19 17 -21 17 -41 -1 -22 -19 -22 -19
-5 14 17 33 17 33 -18 47 -20 8 -40 15 -45 15 -5 0 -13 5 -16 10 -9 15 31 12
71 -5z m249 -19 c19 -8 35 -20 35 -25 0 -17 -37 -13 -44 4 -3 9 -16 20 -28 25
-13 5 -17 9 -10 9 7 1 28 -6 47 -13z m-417 -25 c-11 -18 -58 -31 -58 -16 0 7
63 45 68 41 2 -2 -3 -13 -10 -25z m475 -50 c-6 -23 -52 -46 -66 -32 -13 13 0
31 24 31 11 0 22 7 25 15 8 21 23 9 17 -14z m-496 -11 c6 0 16 -7 23 -15 10
-13 9 -15 -9 -15 -11 0 -21 5 -21 10 0 6 -7 10 -15 10 -8 0 -15 2 -15 4 0 2
-3 13 -7 23 -6 17 -6 17 14 1 11 -10 24 -18 30 -18z m193 -10 c0 -5 -9 -10
-21 -10 -11 0 -17 5 -14 10 3 6 13 10 21 10 8 0 14 -4 14 -10z m95 -1 c10 -15
-1 -23 -20 -15 -9 3 -13 10 -10 16 8 13 22 13 30 -1z m-210 -19 c-3 -5 -13
-10 -21 -10 -8 0 -14 5 -14 10 0 6 9 10 21 10 11 0 17 -4 14 -10z m290 -41
c60 -11 135 -43 135 -57 0 -4 -5 -13 -10 -18 -7 -7 -5 -18 8 -35 23 -32 92
-145 92 -153 0 -19 -25 1 -57 46 -27 37 -39 47 -41 35 -2 -10 10 -36 27 -59
17 -23 28 -44 25 -47 -3 -3 -12 3 -20 13 -7 11 -17 17 -20 13 -7 -6 21 -96 44
-142 25 -50 44 -146 44 -229 0 -61 5 -88 21 -120 17 -32 22 -58 22 -121 -1
-69 -5 -90 -34 -152 -54 -117 -89 -134 -57 -30 21 70 3 66 -38 -8 -20 -35 -41
-67 -48 -71 -6 -4 7 24 28 62 74 135 104 220 104 299 0 57 -22 38 -36 -32 -15
-73 -47 -138 -124 -252 -89 -131 -130 -215 -130 -267 0 -54 -16 -57 -37 -7
-17 42 -12 108 12 167 23 54 1 52 -35 -4 -18 -28 -34 -50 -35 -50 -2 0 1 14 6
32 8 30 29 63 174 273 30 44 55 85 55 92 0 25 -20 13 -44 -26 -14 -22 -51 -68
-82 -103 -31 -34 -72 -91 -93 -125 -38 -66 -58 -81 -47 -37 10 38 66 123 124
186 103 115 143 189 178 334 30 127 33 208 9 289 -19 65 -68 170 -92 197 -25
28 -34 10 -13 -25 30 -50 70 -164 70 -198 0 -27 -2 -30 -15 -19 -26 21 -27 5
-4 -39 26 -50 22 -99 -16 -212 -29 -85 -30 -93 -10 -85 8 3 15 1 15 -5 0 -17
-77 -143 -122 -200 -144 -180 -152 -197 -164 -332 -8 -91 -12 -90 -75 14 -40
66 -41 72 -30 108 14 48 14 51 -2 51 -14 0 -66 -124 -74 -177 -6 -38 -20 -43
-28 -10 -14 62 -25 161 -20 178 10 31 25 22 25 -16 0 -52 17 -43 29 16 14 62
30 96 40 80 4 -6 17 5 32 31 31 52 71 96 76 82 2 -6 0 -29 -4 -50 -10 -48 -2
-116 15 -122 9 -3 12 13 12 57 0 94 20 131 105 195 103 78 143 130 155 202 6
33 10 60 10 62 0 1 -7 2 -15 2 -8 0 -17 -14 -21 -36 -7 -39 -71 -126 -106
-145 -22 -12 -22 -12 -5 15 9 14 24 37 33 51 38 58 -2 30 -108 -78 -124 -126
-220 -205 -226 -188 -6 19 44 78 164 196 104 103 113 115 140 187 29 80 44 91
44 32 0 -38 17 -46 24 -11 3 12 8 36 11 52 23 110 27 160 20 269 -7 118 -7
118 -43 133 -41 17 -110 12 -127 -9 -32 -42 -126 -61 -111 -23 7 20 0 19 -36
-7 -28 -19 -32 -20 -43 -5 -7 11 -19 14 -35 10 -16 -4 -21 -2 -18 7 7 23 54
52 105 66 60 16 239 18 318 3z m-68 -166 c-40 -75 -113 -104 -182 -70 -22 11
-43 25 -47 30 -10 17 -62 -5 -66 -27 -3 -16 0 -18 22 -12 29 7 116 -30 116
-50 0 -6 -21 -15 -47 -18 -27 -4 -83 -23 -125 -43 -71 -33 -108 -38 -108 -14
0 5 16 31 35 57 19 27 50 72 69 99 65 93 93 114 103 75 6 -22 60 -53 69 -39 3
5 16 9 30 9 13 0 33 9 44 20 11 11 30 20 43 20 12 0 29 5 37 10 21 14 25 -12
7 -47z m-66 -125 c48 -27 53 -41 26 -66 -20 -18 -28 -19 -88 -9 -55 8 -75 7
-123 -8 -65 -20 -84 -15 -35 11 21 10 67 19 121 22 48 3 88 9 88 13 0 5 -13
15 -30 24 -16 9 -30 20 -30 25 0 16 30 11 71 -12z m489 -262 c0 -5 -10 -2 -22
6 -31 20 -76 86 -84 123 -5 24 5 15 49 -45 31 -41 56 -79 57 -84z m-755 34
c-3 -6 -34 -29 -68 -51 -34 -23 -77 -55 -94 -72 -44 -42 -52 -28 -11 19 51 58
200 148 173 104z m75 -15 c-28 -30 -9 -34 27 -5 27 21 63 27 63 10 0 -5 -42
-43 -93 -83 -91 -73 -157 -152 -157 -189 0 -30 15 -21 49 32 36 55 93 108 161
147 25 14 62 39 83 55 31 25 37 27 37 12 0 -10 -60 -77 -134 -148 -106 -103
-141 -144 -166 -193 -29 -61 -59 -87 -46 -40 19 67 19 70 5 65 -8 -2 -30 -33
-49 -69 -42 -77 -48 -62 -27 63 22 125 49 179 126 250 67 62 65 70 -7 24 -84
-53 -141 -163 -146 -281 -3 -70 -9 -95 -21 -84 -2 3 -7 41 -11 85 -6 69 -4 86
16 131 24 57 105 141 161 168 19 8 57 29 84 45 61 36 76 38 45 5z m668 -114
c7 -19 12 -43 11 -55 -1 -26 -38 54 -46 99 -5 28 -4 29 9 10 8 -11 20 -35 26
-54z m-34 -58 c30 -95 47 -226 27 -208 -29 28 -88 295 -64 295 5 0 22 -39 37
-87z m-995 6 c-7 -4 -17 -5 -22 -2 -5 3 -3 9 4 14 7 4 17 5 22 2 5 -3 3 -9 -4
-14z m1121 5 c0 -2 -7 -4 -15 -4 -8 0 -15 4 -15 10 0 5 7 7 15 4 8 -4 15 -8
15 -10z m-1131 -54 c15 -8 19 -29 25 -140 7 -126 -2 -200 -24 -200 -4 0 -11
-7 -14 -15 -10 -28 23 -28 55 -1 17 14 36 26 42 26 7 0 21 -27 31 -60 23 -72
46 -80 46 -17 0 24 6 52 14 62 13 18 14 18 19 -1 13 -40 35 -159 31 -165 -2
-3 -23 -3 -46 2 -24 4 -59 8 -79 9 -36 0 -37 -1 -43 -43 -8 -50 10 -115 36
-131 13 -8 29 -6 65 9 29 11 80 20 128 23 74 3 83 1 123 -25 23 -15 42 -32 42
-38 0 -26 -47 -53 -106 -62 -49 -7 -74 -19 -122 -54 -71 -51 -76 -71 -32 -114
36 -34 51 -29 87 26 50 76 52 78 114 90 33 7 63 18 66 25 3 8 9 14 13 14 13 0
20 -42 9 -61 -19 -36 -130 -154 -164 -175 -83 -50 -93 -77 -44 -119 53 -44 78
-33 121 55 36 73 78 120 107 120 11 0 13 -15 8 -80 -7 -82 -19 -115 -68 -183
-38 -52 -39 -98 -3 -126 15 -12 40 -21 55 -21 32 0 37 -11 14 -30 -12 -10 -31
-7 -99 14 -102 33 -122 28 -131 -37 -11 -72 21 -124 72 -114 16 3 54 15 86 28
72 27 80 21 85 -64 4 -56 1 -66 -22 -94 -32 -38 -32 -56 -4 -119 12 -27 29
-75 38 -107 9 -32 20 -58 25 -58 6 0 13 20 16 43 4 24 21 74 38 112 37 81 37
81 11 113 -41 53 -50 176 -13 190 8 3 45 -7 83 -22 82 -33 113 -29 129 16 29
83 -1 147 -62 133 -18 -3 -43 -12 -57 -19 -46 -23 -95 -28 -109 -11 -8 9 -10
23 -6 33 5 12 9 14 12 6 7 -19 37 -16 67 8 41 32 35 76 -19 156 -45 65 -45 66
-45 149 0 46 3 84 6 84 23 0 70 -53 105 -121 34 -65 45 -79 65 -79 25 0 94 54
94 74 0 17 -30 43 -84 75 -24 14 -71 57 -105 95 -53 59 -61 73 -61 107 0 44 8
48 35 19 10 -11 34 -23 54 -26 53 -10 67 -19 102 -72 32 -47 56 -72 70 -72 13
0 69 61 69 74 0 12 -87 83 -127 104 -10 6 -42 13 -71 17 -54 7 -72 23 -72 64
0 32 25 48 93 61 57 10 69 10 123 -10 94 -34 109 -35 128 -9 11 16 16 45 16
91 0 68 0 68 -36 68 -19 0 -80 -9 -135 -21 -55 -11 -105 -19 -111 -17 -7 3 4
22 25 44 28 30 37 35 37 21 0 -10 4 -17 9 -15 11 4 132 138 148 164 11 17 12
16 12 -13 1 -48 18 -40 44 20 34 76 47 131 55 227 7 84 7 84 51 92 24 4 48 5
52 2 12 -7 11 -721 -1 -867 -30 -367 -134 -623 -404 -996 -90 -124 -169 -276
-201 -385 -14 -50 -27 -92 -30 -94 -5 -6 -7 -3 -41 108 -45 144 -85 215 -268
475 -151 214 -237 387 -285 576 -52 200 -56 263 -54 737 2 239 5 438 8 443 8
12 61 12 84 -1z m235 -579 c3 -5 -12 -11 -35 -13 -39 -4 -55 2 -42 16 10 9 71
7 77 -3z m716 -1 c0 -5 -25 -10 -56 -10 -34 0 -53 4 -49 10 3 6 28 10 56 10
27 0 49 -4 49 -10z m-1134 -97 c-10 -10 -19 5 -10 18 6 11 8 11 12 0 2 -7 1
-15 -2 -18z m762 -34 c-12 -22 -26 -35 -30 -31 -11 11 31 84 43 76 5 -3 0 -23
-13 -45z m-4 -131 c15 -30 15 -31 -2 -15 -10 10 -24 17 -30 17 -6 0 -9 7 -6
15 9 23 21 18 38 -17z m195 -232 c-3 -3 -11 5 -18 17 -13 21 -12 21 5 5 10
-10 16 -20 13 -22z m-879 -49 c0 -2 -10 -12 -21 -23 -22 -19 -22 -19 -10 4 10
18 31 31 31 19z m674 -58 c4 -23 13 -54 21 -70 15 -29 20 -69 8 -69 -3 0 -15
7 -25 17 -17 15 -20 15 -43 -7 -24 -22 -25 -22 -25 -4 0 11 9 45 20 77 11 31
20 66 20 77 0 36 17 21 24 -21z m662 4 c-4 -4 -11 -1 -16 7 -16 25 -11 35 7
17 9 -9 13 -20 9 -24z m-511 -273 c17 -7 15 -9 -12 -9 -18 -1 -33 4 -33 9 0
12 17 12 45 0z m-310 -10 c-3 -5 -13 -10 -21 -10 -8 0 -14 5 -14 10 0 6 9 10
21 10 11 0 17 -4 14 -10z m693 -77 c11 -16 34 -57 52 -93 68 -136 112 -201
154 -227 23 -14 59 -37 81 -52 22 -15 52 -32 67 -38 14 -7 29 -20 32 -31 5
-14 13 -18 30 -15 30 6 81 -20 102 -53 24 -35 10 -41 -26 -10 -17 14 -38 26
-46 26 -13 0 -12 -4 1 -30 8 -16 15 -35 15 -42 -1 -16 -80 72 -80 89 0 6 -14
16 -32 22 -25 9 -36 8 -55 -4 -12 -9 -23 -20 -23 -25 0 -15 21 -23 33 -11 20
20 35 12 60 -30 21 -35 26 -79 10 -79 -3 0 -23 16 -44 35 -22 19 -46 35 -55
35 -9 0 -39 16 -66 36 -55 39 -78 35 -78 -16 0 -34 -8 -42 -31 -29 -15 7 -19
21 -19 59 0 54 -4 58 -31 34 -19 -17 -39 -11 -39 12 0 17 0 17 -42 0 -18 -8
-40 -26 -48 -40 -7 -14 -16 -26 -19 -26 -11 0 -28 15 -39 35 -14 26 -1 48 55
101 41 38 43 43 43 95 0 30 -7 79 -15 109 -19 70 -19 108 0 154 18 43 27 45
53 9z m-1020 -37 c26 -51 27 -69 7 -126 -8 -23 -15 -70 -15 -103 0 -60 0 -60
55 -113 60 -58 65 -74 35 -104 -27 -27 -34 -26 -61 15 -14 21 -30 33 -38 30
-7 -3 -20 0 -28 7 -12 10 -18 7 -34 -12 -18 -23 -20 -24 -33 -8 -17 23 -26 13
-26 -31 0 -20 -4 -42 -9 -50 -14 -21 -39 -6 -43 26 -4 37 -31 41 -71 10 -18
-13 -42 -27 -55 -31 -12 -4 -43 -23 -67 -42 -53 -40 -68 -29 -40 30 24 51 42
63 67 47 27 -17 45 0 23 23 -10 10 -33 16 -61 16 -24 0 -44 4 -44 9 0 5 28 25
63 44 188 103 174 91 221 185 24 48 47 98 51 112 12 41 55 110 69 110 7 0 22
-20 34 -44z m916 -190 c26 -56 20 -86 -29 -138 -24 -27 -49 -48 -57 -48 -24 0
-92 28 -96 39 -3 10 76 127 121 178 24 27 37 20 61 -31z m-757 -52 c34 -49 62
-92 63 -96 0 -13 -72 -39 -89 -33 -30 11 -91 95 -91 125 0 36 30 102 44 97 6
-2 39 -43 73 -93z m-607 -184 c25 -19 25 -19 -15 -59 -47 -49 -61 -52 -40 -10
25 46 14 54 -29 20 -42 -34 -51 -34 -41 -2 5 17 78 71 95 71 3 0 16 -9 30 -20z
m410 -35 c0 -8 -4 -17 -10 -20 -6 -4 -10 5 -10 20 0 15 4 24 10 20 6 -3 10
-12 10 -20z m1060 -10 c0 -14 -4 -25 -10 -25 -11 0 -14 33 -3 43 11 11 13 8
13 -18z"/>
<path d="M2230 2917 c0 -53 12 -82 23 -54 6 15 -7 94 -17 104 -3 4 -6 -19 -6
-50z"/>
<path d="M1850 3220 c20 -13 47 -13 55 0 4 6 -9 10 -32 10 -28 0 -34 -3 -23
-10z"/>
<path d="M1812 1099 c-9 -17 -27 -44 -39 -59 -34 -41 -30 -54 13 -47 49 8 84
42 84 82 0 30 -15 55 -32 55 -5 0 -17 -14 -26 -31z"/>
<path d="M1986 1114 c-21 -54 16 -111 77 -121 42 -6 52 13 18 34 -11 7 -25 29
-32 50 -16 52 -50 72 -63 37z"/>
<path d="M716 3808 c-2 -7 -7 -37 -10 -67 -6 -55 -32 -117 -110 -255 -25 -44
-52 -109 -61 -145 -21 -86 -33 -235 -24 -286 4 -22 5 -43 3 -47 -3 -5 -24 -8
-48 -8 -56 0 -106 33 -124 82 -13 33 -13 43 2 89 9 28 33 75 53 105 24 37 33
58 26 65 -20 20 -133 -147 -148 -218 -11 -52 12 -113 60 -159 45 -44 101 -64
176 -64 40 0 41 1 34 28 -4 15 -7 77 -6 138 1 151 27 234 107 347 19 26 34 58
34 70 0 13 12 52 26 88 30 72 46 230 25 243 -6 4 -13 1 -15 -6z"/>
<path d="M3110 3805 c-21 -26 -6 -149 29 -241 35 -90 37 -98 16 -90 -24 9 -17
-10 9 -27 33 -22 90 -119 115 -195 16 -49 21 -92 22 -190 1 -70 0 -134 -2
-142 -3 -12 8 -16 48 -18 125 -7 239 109 217 223 -7 40 -56 124 -105 184 -62
74 -67 46 -10 -43 53 -81 68 -141 47 -189 -19 -47 -68 -77 -125 -77 -43 0 -43
0 -38 58 12 145 -27 334 -93 441 -61 99 -103 202 -106 258 -3 63 -6 69 -24 48z"/>
<path d="M3110 3360 c0 -5 5 -10 10 -10 6 0 10 5 10 10 0 6 -4 10 -10 10 -5 0
-10 -4 -10 -10z"/>
<path d="M862 3319 c-64 -32 -142 -143 -171 -244 -17 -57 -39 -196 -36 -220 2
-11 6 -42 10 -70 13 -93 67 -207 88 -186 7 7 7 14 0 23 -6 7 -21 40 -33 73
-30 79 -34 241 -8 326 20 65 71 143 112 173 28 21 28 21 43 -1 26 -39 84 -29
108 18 21 39 19 64 -7 93 -33 35 -57 39 -106 15z"/>
<path d="M2903 3330 c-48 -19 -60 -95 -22 -136 28 -30 74 -32 89 -4 16 30 33
25 75 -21 101 -112 133 -306 75 -464 -26 -72 -28 -83 -15 -86 14 -3 50 75 65
141 45 197 -56 496 -191 566 -32 16 -45 17 -76 4z"/>
<path d="M3736 2946 c-7 -18 -29 -44 -47 -57 -33 -23 -40 -24 -218 -24 -183 0
-183 0 -206 -64 -13 -36 -22 -68 -19 -72 2 -4 36 -13 75 -19 77 -13 172 -7
250 16 89 27 199 153 199 229 0 35 -17 31 -34 -9z m-275 -122 c52 -10 101 -13
132 -9 55 8 57 -4 5 -31 -37 -19 -178 -32 -178 -16 0 6 17 12 38 14 35 3 34 4
-35 26 -70 22 -89 32 -59 32 8 0 51 -7 97 -16z"/>
<path d="M70 2950 c0 -26 34 -94 71 -141 65 -83 223 -125 375 -99 41 7 76 16
78 19 2 3 -6 37 -18 75 -21 68 -21 68 -146 61 -69 -4 -145 -7 -169 -7 -61 2
-132 39 -151 79 -17 37 -40 44 -40 13z m429 -120 c-7 -5 -41 -14 -76 -20 -83
-16 -89 -30 -14 -30 34 0 61 -4 61 -10 0 -13 -126 -13 -189 1 -27 5 -57 20
-68 31 -18 21 -18 21 27 14 28 -3 86 1 150 13 100 17 137 18 109 1z"/>
<path d="M425 2639 c-155 -46 -177 -50 -251 -47 -54 3 -88 10 -104 21 -62 43
-52 2 13 -60 63 -60 92 -76 174 -97 124 -32 249 -12 368 59 33 20 61 38 63 39
4 5 -40 80 -53 88 -5 4 -10 15 -10 25 0 10 -7 19 -15 20 -8 1 -91 -21 -185
-48z m174 -5 c-17 -20 -182 -98 -252 -119 -60 -18 -99 -18 -146 -2 -59 20 -48
34 32 40 50 3 116 20 203 50 71 24 140 45 153 45 21 2 22 0 10 -14z"/>
<path d="M3210 2666 c-5 -14 -21 -44 -36 -66 -31 -47 -36 -39 61 -95 170 -96
387 -80 512 38 29 28 53 56 53 63 0 18 -4 17 -42 -2 -53 -27 -187 -14 -343 34
-188 58 -193 59 -205 28z m177 -60 c72 -25 168 -50 213 -57 73 -10 81 -13 65
-25 -32 -23 -103 -28 -165 -11 -67 19 -270 115 -270 128 0 15 22 10 157 -35z"/>
<path d="M680 2533 c0 -5 -29 -30 -64 -56 -35 -26 -86 -65 -112 -87 -27 -22
-80 -57 -119 -77 -64 -34 -77 -38 -150 -38 -44 0 -88 4 -97 9 -38 18 -17 -23
33 -67 62 -54 118 -72 194 -63 60 7 183 52 252 93 24 14 46 23 49 20 8 -8 -30
-77 -81 -145 -58 -76 -156 -167 -207 -189 -66 -29 -45 -49 34 -32 95 20 201
77 318 169 21 16 41 30 45 30 12 0 -7 -42 -68 -143 -88 -149 -116 -219 -117
-294 0 -34 4 -74 10 -88 14 -38 33 -21 26 24 -9 60 29 122 153 248 129 131
153 172 186 324 25 111 25 133 -1 143 -19 7 -26 -11 -59 -154 -15 -63 -31
-127 -37 -142 -13 -34 -174 -205 -184 -195 -4 4 15 42 41 84 74 118 122 218
156 327 30 98 30 98 8 122 -12 13 -28 24 -36 24 -7 0 -62 -73 -122 -163 -100
-151 -156 -217 -183 -217 -11 0 -7 6 53 80 21 25 67 95 104 155 37 60 78 124
93 142 25 34 25 34 -11 70 -36 37 -36 37 -142 -63 -128 -119 -184 -160 -249
-179 -59 -18 -92 -19 -134 -4 -42 14 -33 25 27 33 74 10 177 67 277 152 49 42
106 88 127 102 21 14 36 30 34 36 -4 13 -47 21 -47 9z"/>
<path d="M3119 2523 c-9 -10 -10 -18 -3 -20 16 -5 66 -42 166 -124 110 -91
175 -126 258 -142 33 -6 60 -15 60 -20 0 -16 -57 -29 -105 -23 -89 10 -169 59
-291 178 -61 59 -113 108 -117 108 -3 0 -20 -18 -37 -40 -32 -40 -32 -40 -3
-77 16 -21 60 -87 98 -148 37 -60 88 -134 113 -162 24 -29 39 -53 33 -53 -27
0 -95 80 -191 225 -56 85 -108 155 -114 155 -6 -1 -23 -11 -38 -23 -26 -22
-26 -22 -6 -87 38 -125 73 -205 126 -290 65 -103 95 -160 84 -160 -12 0 -148
141 -176 184 -16 23 -26 53 -26 75 0 20 -13 79 -28 131 -23 78 -31 95 -47 95
-13 0 -21 -8 -23 -22 -5 -32 44 -226 69 -276 12 -23 77 -98 144 -167 131 -135
152 -171 141 -240 -3 -22 -2 -41 3 -44 28 -17 49 87 31 155 -19 74 -49 139
-122 261 -38 65 -68 122 -66 129 2 6 23 -5 48 -27 110 -92 205 -141 345 -178
23 -6 58 12 38 20 -31 13 -113 74 -154 114 -71 71 -180 240 -154 240 2 0 45
-20 94 -45 195 -98 302 -97 412 2 49 44 53 67 8 51 -53 -18 -159 -5 -227 29
-64 32 -302 209 -302 224 0 15 -27 10 -41 -8z"/>
<path d="M1222 1388 c-7 -7 -54 -33 -104 -58 -111 -54 -121 -70 -45 -70 63 0
72 -7 84 -69 4 -25 13 -46 18 -48 6 -2 18 34 28 79 11 46 27 103 38 127 10 24
19 45 19 47 0 9 -27 3 -38 -8z"/>
<path d="M2570 1380 c0 -7 9 -47 20 -89 10 -42 22 -93 25 -114 8 -50 26 -43
41 15 17 69 20 71 75 65 36 -5 49 -3 49 7 0 17 -40 52 -70 61 -14 4 -47 19
-75 34 -67 35 -65 34 -65 21z"/>
</g>
</svg>
