<?xml version="1.0" standalone="no"?>
<!DOCTYPE svg PUBLIC "-//W3C//DTD SVG 20010904//EN"
 "http://www.w3.org/TR/2001/REC-SVG-20010904/DTD/svg10.dtd">
<svg version="1.0" xmlns="http://www.w3.org/2000/svg"
 width="454.000000pt" height="476.000000pt" viewBox="0 0 454.000000 476.000000"
 preserveAspectRatio="xMidYMid meet">
<metadata>
Created by potrace 1.16, written by Peter Selinger 2001-2019
</metadata>
<g transform="translate(0.000000,476.000000) scale(0.100000,-0.100000)"
fill="#000000" stroke="none">
<path d="M2204 4698 c-9 -18 -30 -52 -45 -75 -32 -46 -36 -82 -15 -116 14 -21
33 -97 24 -97 -2 0 -28 7 -56 15 -29 9 -58 12 -65 8 -6 -4 -19 -6 -29 -5 -22
4 -68 -58 -68 -92 0 -31 14 -61 43 -93 26 -29 57 -30 57 -3 0 13 9 22 31 27
41 11 42 27 1 31 -27 3 -35 -1 -39 -17 -3 -12 -12 -21 -21 -21 -24 0 -41 32
-42 75 0 35 4 43 33 60 17 11 37 18 42 16 56 -19 121 -28 133 -18 18 14 9 74
-19 129 -20 40 -20 40 5 73 14 19 31 46 37 62 10 26 12 27 23 9 6 -10 21 -34
34 -53 23 -35 28 -72 13 -88 -13 -14 -32 -115 -25 -127 4 -7 25 -8 58 -3 70
10 86 10 124 2 41 -8 42 7 0 29 -27 14 -40 15 -81 5 -73 -17 -78 -15 -71 17 4
15 15 47 25 71 19 44 19 44 -26 112 -25 37 -45 72 -45 77 0 26 -21 20 -36 -10z"/>
<path d="M1744 4509 c-41 -12 -76 -51 -72 -81 4 -31 21 -25 30 10 4 16 19 34
32 40 32 14 42 0 22 -30 -9 -12 -16 -30 -16 -40 0 -24 19 -33 26 -11 3 10 15
37 25 61 27 61 19 70 -47 51z"/>
<path d="M2646 4511 c-4 -6 2 -29 14 -53 11 -23 20 -53 20 -66 0 -21 2 -22 15
-12 8 7 15 23 15 35 0 12 -7 28 -15 35 -20 17 -19 30 3 30 37 0 70 -67 42 -85
-5 -3 -10 -13 -10 -21 0 -26 19 -15 36 22 19 41 10 73 -29 98 -31 21 -83 31
-91 17z"/>
<path d="M1693 4368 c3 -13 0 -36 -8 -53 -11 -24 -14 -26 -14 -9 -1 11 -14 33
-30 49 -26 24 -36 27 -67 22 -21 -4 -46 -15 -57 -25 -16 -16 -17 -23 -7 -42 8
-15 18 -20 32 -16 13 3 31 -3 47 -15 16 -13 27 -16 29 -9 7 19 -30 50 -60 50
-35 0 -37 17 -2 26 73 18 106 -37 79 -128 -19 -64 -19 -98 -1 -98 13 0 28 71
28 128 0 15 6 22 18 22 22 0 30 11 41 57 9 42 3 63 -18 63 -11 0 -14 -7 -10
-22z"/>
<path d="M2815 4365 c-10 -9 -24 -28 -31 -43 -12 -27 -12 -27 -23 3 -11 27
-13 28 -23 12 -8 -14 -5 -27 8 -53 20 -36 37 -40 43 -8 6 35 41 74 66 74 31 0
55 -10 55 -22 0 -6 -7 -7 -16 -4 -24 9 -49 -9 -84 -60 -24 -36 -28 -49 -19
-60 15 -18 29 -9 29 19 1 27 55 93 64 78 12 -18 45 -12 57 10 10 19 7 25 -17
45 -33 27 -80 30 -109 9z"/>
<path d="M1800 4362 c-8 -4 -28 -16 -43 -26 -36 -24 -21 -42 19 -22 16 8 42
19 57 25 15 6 25 16 22 21 -7 11 -32 12 -55 2z"/>
<path d="M2602 4353 c2 -11 16 -20 33 -23 24 -5 29 -10 28 -28 -3 -28 8 -28
35 1 25 27 28 37 8 37 -7 0 -27 7 -42 15 -40 20 -66 19 -62 -2z"/>
<path d="M2494 4334 c3 -9 6 -21 7 -27 0 -7 4 -3 8 8 9 22 5 35 -11 35 -5 0
-7 -7 -4 -16z"/>
<path d="M1777 4303 c-14 -13 -6 -23 16 -23 13 0 27 -3 30 -7 11 -11 -14 -33
-38 -33 -41 0 -101 -97 -80 -130 12 -20 23 -9 29 31 8 48 47 90 76 82 49 -13
71 60 24 77 -30 12 -48 13 -57 3z"/>
<path d="M2316 4301 c-4 -6 4 -15 19 -21 37 -14 55 -12 55 5 0 8 -6 15 -12 15
-7 0 -23 3 -34 6 -12 3 -25 1 -28 -5z"/>
<path d="M2147 4294 c-11 -12 3 -24 29 -24 16 0 24 5 22 13 -5 13 -40 22 -51
11z"/>
<path d="M2256 4291 c-7 -11 9 -99 25 -134 14 -32 0 -73 -37 -107 -23 -23 -23
-23 -43 1 -38 46 -45 75 -27 119 20 51 20 80 1 80 -8 0 -15 -8 -15 -17 0 -10
-8 -39 -17 -65 -19 -54 -14 -69 45 -139 35 -40 35 -40 66 -5 68 76 72 87 50
147 -8 24 -15 63 -15 87 -1 29 -5 42 -14 42 -8 0 -16 -4 -19 -9z"/>
<path d="M2587 4294 c-13 -13 -7 -41 12 -65 15 -19 22 -21 32 -12 10 10 9 16
-2 29 -7 9 -14 24 -14 32 0 17 -17 26 -28 16z"/>
<path d="M3667 4274 c-3 -4 -3 -14 2 -23 18 -35 22 -135 6 -186 -31 -107 -115
-149 -360 -180 -145 -19 -226 -53 -278 -118 -52 -64 -61 -87 -61 -157 0 -81
22 -125 99 -200 80 -77 100 -119 99 -205 0 -58 -5 -79 -29 -124 -16 -29 -45
-66 -64 -82 -34 -28 -40 -29 -136 -29 -55 0 -105 4 -112 8 -10 6 -52 121 -53
143 0 4 16 10 36 14 52 9 129 59 118 76 -2 5 -15 3 -29 -3 -19 -8 -31 -6 -67
13 -23 13 -47 34 -52 46 -7 15 -21 22 -52 26 -43 4 -118 52 -108 68 3 5 16 9
30 9 28 0 47 31 23 38 -25 8 -141 130 -137 144 4 11 25 25 63 42 15 7 -17 26
-42 26 -30 0 -29 9 7 44 17 16 30 33 30 36 0 4 14 13 30 20 31 13 41 40 15 40
-24 0 -75 -42 -75 -61 0 -29 -22 -34 -42 -9 -18 22 -18 23 25 73 24 28 57 58
75 67 36 19 82 81 82 109 0 17 -19 39 -47 55 -6 3 -19 -1 -27 -10 -15 -14 -17
-14 -22 0 -14 37 49 63 76 31 7 -8 21 -15 31 -15 53 0 25 199 -33 234 -24 14
-34 0 -16 -21 36 -43 53 -89 50 -134 -3 -47 -3 -47 -34 -32 -39 20 -76 8 -97
-29 -13 -22 -13 -30 -2 -52 17 -32 34 -38 67 -25 15 5 28 8 30 6 9 -9 -60 -97
-76 -97 -10 0 -37 -25 -61 -55 -24 -30 -49 -54 -54 -55 -6 0 -10 39 -10 98 0
60 -4 97 -10 97 -6 0 -35 -27 -65 -60 -59 -66 -77 -76 -87 -48 -16 45 -85 153
-98 153 -14 0 -76 -97 -90 -139 -3 -11 -14 -21 -24 -21 -19 0 -87 60 -113 100
-28 44 -43 13 -43 -91 0 -49 -2 -89 -5 -89 -3 0 -25 25 -50 55 -25 30 -50 55
-56 55 -15 0 -59 41 -73 68 -14 26 -3 54 11 28 11 -19 62 -22 56 -3 -3 6 -15
13 -27 15 -16 3 -20 8 -16 23 7 21 -6 25 -36 9 -11 -7 -19 -21 -19 -37 0 -43
64 -132 97 -133 13 0 103 -110 103 -126 0 -11 -22 -24 -41 -24 -5 0 -14 11
-19 25 -22 57 -137 87 -174 46 -23 -25 -5 -36 31 -18 41 21 86 5 125 -44 37
-47 38 -52 7 -59 -35 -8 -34 -29 0 -41 17 -6 31 -16 31 -23 0 -24 -97 -136
-117 -136 -16 0 -32 -22 -26 -36 3 -8 18 -14 34 -14 18 0 29 -5 29 -14 0 -21
-76 -66 -112 -66 -25 0 -36 -6 -43 -22 -14 -32 -90 -69 -126 -61 -70 14 -4
-46 76 -69 22 -6 43 -14 47 -17 8 -7 -27 -117 -43 -137 -8 -10 -38 -14 -99
-14 -60 0 -90 -4 -92 -12 -7 -20 -60 8 -106 55 -54 55 -74 105 -74 187 0 85
20 125 102 205 103 100 135 205 91 300 -44 94 -130 149 -268 170 -174 28 -216
36 -270 57 -109 40 -149 105 -140 225 3 37 8 79 12 92 7 19 5 22 -11 19 -12
-2 -33 -31 -56 -76 -30 -57 -38 -85 -38 -126 0 -112 87 -213 221 -258 35 -11
68 -24 73 -29 15 -13 -84 -24 -219 -24 -144 0 -199 16 -250 71 -31 33 -35 106
-8 136 12 14 14 21 5 30 -14 14 -117 -90 -155 -155 -54 -94 -59 -205 -11 -298
52 -103 128 -162 242 -186 37 -7 70 -17 74 -21 10 -10 -136 -168 -171 -187
-15 -7 -69 -26 -121 -40 -85 -25 -98 -26 -146 -16 -29 7 -64 21 -78 32 -35 28
-46 17 -46 -44 1 -70 27 -123 89 -179 62 -56 89 -65 244 -81 64 -6 117 -14
117 -17 0 -3 -19 -38 -42 -78 -71 -119 -193 -230 -315 -284 -45 -20 -111 -21
-155 -3 -16 6 -18 1 -18 -37 0 -38 5 -49 38 -80 98 -96 219 -121 400 -82 41 8
41 -1 1 -66 -17 -28 -60 -114 -95 -192 -66 -144 -116 -218 -166 -247 -47 -27
-27 -35 73 -33 113 4 173 21 227 67 22 19 45 35 51 35 7 0 11 -23 11 -57 0
-32 7 -98 15 -148 8 -49 15 -140 15 -201 0 -67 8 -159 21 -230 25 -146 18
-207 -39 -316 -9 -19 26 -5 76 30 61 41 198 204 237 282 55 109 83 214 114
435 19 133 33 185 50 185 5 0 23 -25 40 -55 17 -31 48 -74 69 -97 48 -53 131
-120 142 -113 5 3 0 24 -10 48 -18 43 -24 91 -21 205 1 69 12 74 31 14 7 -20
16 -41 20 -45 4 -5 34 44 66 107 32 64 60 114 62 111 2 -2 10 -39 18 -83 37
-213 167 -430 373 -624 81 -76 258 -224 319 -267 28 -19 32 -28 32 -66 0 -24
-3 -46 -7 -48 -8 -5 -52 1 -218 29 -49 8 -175 44 -280 79 -104 35 -209 67
-232 71 -24 4 -43 12 -43 18 0 10 17 63 78 239 15 43 15 51 1 75 -18 32 -74
72 -102 72 -18 0 -19 -5 -15 -56 5 -64 4 -64 -88 -24 -39 18 -60 21 -90 15
-48 -8 -104 -64 -122 -121 -39 -123 -144 -527 -149 -575 -5 -55 -5 -55 46
-108 53 -55 142 -102 216 -115 48 -9 105 -35 105 -47 0 -5 -18 0 -40 11 -50
26 -57 25 -64 -5 -8 -30 -38 -39 -107 -33 -49 5 -79 21 -66 35 4 3 32 8 62 11
71 6 78 18 16 27 -70 10 -121 -19 -121 -70 0 -34 161 -80 242 -69 82 10 108
36 133 132 12 46 27 88 34 95 9 9 39 2 134 -31 268 -95 447 -140 584 -145 40
-2 75 -5 78 -9 3 -3 1 -17 -4 -32 -9 -21 -5 -40 19 -100 16 -40 32 -95 35
-122 7 -52 11 -64 26 -64 5 0 9 19 9 41 0 24 15 78 35 128 26 65 33 96 29 122
-6 35 -6 35 64 37 108 2 288 44 502 117 107 37 204 68 214 69 17 1 24 -14 45
-98 29 -112 45 -129 129 -142 87 -13 250 41 244 81 -7 48 -68 75 -129 59 -32
-9 -18 -24 22 -24 43 0 65 -9 65 -26 0 -8 -1 -14 -3 -14 -2 0 -29 -5 -60 -11
-71 -13 -91 -7 -107 31 -7 17 -18 30 -24 30 -20 0 18 20 39 20 58 1 195 91
235 154 21 34 21 34 -44 288 -103 401 -122 443 -210 468 -39 11 -49 9 -108
-14 -35 -14 -68 -26 -71 -26 -4 0 -7 25 -7 55 0 66 -15 71 -78 25 -56 -40 -59
-62 -24 -156 68 -181 72 -192 59 -202 -7 -5 -43 -17 -82 -27 -38 -10 -124 -37
-190 -60 -167 -60 -214 -73 -339 -90 -59 -8 -112 -18 -117 -21 -5 -3 -18 -2
-29 1 -16 5 -20 15 -20 47 0 45 -7 37 160 170 126 100 306 277 378 373 97 128
158 273 199 475 10 45 10 45 32 -5 12 -27 32 -68 43 -90 12 -22 28 -53 36 -68
19 -38 32 -30 49 26 25 85 36 57 31 -80 -3 -95 -9 -136 -21 -161 -24 -45 -3
-43 60 6 64 48 112 102 156 176 36 59 36 59 60 5 17 -36 31 -96 42 -184 36
-271 110 -438 266 -602 40 -42 141 -123 154 -123 10 0 5 24 -15 66 -30 60 -35
152 -17 284 9 63 19 225 22 360 3 135 10 249 14 253 5 4 22 -3 39 -18 16 -14
55 -37 86 -51 47 -21 71 -26 147 -26 95 0 133 13 88 31 -54 21 -106 97 -179
259 -23 51 -59 124 -82 163 -22 38 -38 72 -35 75 2 3 42 0 89 -7 70 -10 93 -9
145 4 126 33 179 71 238 171 33 57 26 72 -23 46 -58 -31 -109 -26 -200 21 -44
22 -106 64 -137 91 -70 63 -185 215 -185 245 0 5 54 14 119 20 137 13 190 32
248 90 49 49 75 104 81 169 5 61 -7 73 -45 44 -16 -11 -53 -25 -84 -32 -53
-11 -63 -10 -155 20 -55 17 -111 40 -125 49 -34 23 -159 158 -159 171 0 6 19
13 43 17 127 21 224 93 275 203 39 82 38 185 -1 262 -31 63 -141 185 -157 175
-7 -4 -7 -12 0 -25 5 -10 10 -37 10 -59 0 -51 -33 -91 -102 -122 -48 -22 -65
-24 -193 -23 -134 2 -219 14 -185 27 8 4 40 15 70 27 30 11 80 40 111 64 73
57 99 110 99 197 -1 54 -6 74 -38 133 -36 67 -51 84 -65 70z m-2937 -179 c0
-52 21 -95 67 -136 61 -56 159 -86 375 -117 83 -12 149 -44 194 -95 42 -46 54
-75 54 -128 0 -61 -21 -98 -105 -179 -96 -93 -125 -148 -125 -241 0 -119 82
-238 192 -280 40 -16 43 -19 43 -55 0 -38 -1 -39 -33 -37 -97 4 -229 114 -290
240 -34 72 -37 85 -36 163 1 58 6 95 17 117 21 40 21 54 2 47 -24 -10 -18 19
13 54 25 29 29 30 46 17 18 -14 18 -16 -12 -85 -33 -73 -49 -160 -38 -204 12
-47 26 -27 26 38 0 71 18 132 56 190 22 33 24 42 14 61 -10 19 -7 32 24 92 20
38 36 74 36 81 0 6 -15 23 -34 37 -25 19 -35 36 -40 65 -4 24 -18 53 -36 72
-34 38 -41 20 -10 -27 11 -16 20 -46 20 -66 0 -30 6 -41 34 -63 34 -26 34 -26
6 -93 -16 -38 -36 -69 -44 -71 -21 -4 -20 -1 6 52 21 45 21 45 -21 91 -33 36
-41 52 -36 68 26 83 12 99 -123 138 -57 16 -120 38 -141 48 -83 43 -140 135
-127 206 9 45 26 45 26 0z m3010 -21 c0 -84 -55 -153 -156 -196 -21 -9 -79
-29 -127 -43 -98 -29 -133 -54 -122 -88 21 -66 19 -75 -28 -117 -45 -41 -45
-41 -25 -88 12 -26 27 -51 34 -57 17 -13 64 -76 64 -87 0 -17 -29 -7 -35 12
-3 11 -11 20 -17 20 -6 0 -3 -11 5 -24 22 -33 40 -146 35 -211 -11 -127 -131
-291 -256 -347 -73 -33 -92 -28 -92 27 0 29 6 37 45 59 59 35 98 78 137 151
27 49 32 71 32 120 -1 83 -27 135 -118 232 -111 118 -129 176 -82 263 45 85
160 145 301 156 121 10 269 57 318 102 27 24 55 83 63 131 8 53 24 43 24 -15z
m-1500 -154 c0 -5 11 -26 25 -46 25 -37 32 -64 17 -64 -4 0 -16 14 -25 30 -24
39 -38 38 -70 -7 -38 -54 -35 -15 4 53 27 47 49 62 49 34z m-221 -71 c13 -17
21 -33 18 -35 -7 -8 -57 37 -57 52 0 23 14 16 39 -17z m445 8 c-8 -17 -64 -60
-64 -49 0 17 51 73 60 67 5 -3 7 -11 4 -18z m-221 -52 c8 -18 -11 -31 -25 -17
-11 11 -3 32 12 32 4 0 10 -7 13 -15z m1817 -31 c0 -108 -98 -169 -288 -181
-61 -4 -91 -10 -89 -17 7 -19 198 -9 259 14 73 27 122 70 137 120 18 60 35 40
29 -34 -6 -72 -33 -131 -90 -192 -55 -59 -124 -85 -253 -91 -90 -5 -109 -2
-182 22 -77 25 -134 57 -123 68 3 3 40 -1 84 -9 43 -8 90 -14 105 -12 54 6 19
23 -81 40 -98 16 -198 51 -198 71 0 5 14 6 31 2 28 -6 30 -5 24 14 -5 17 -2
21 18 21 13 0 44 -7 67 -15 23 -8 56 -15 72 -15 51 0 26 22 -46 41 -38 9 -76
25 -85 34 -15 16 -12 17 54 11 39 -3 82 -9 98 -12 17 -4 27 -2 27 5 0 6 -7 11
-15 11 -26 0 -125 34 -125 43 0 5 8 6 18 2 9 -5 88 -10 175 -13 171 -5 208 2
277 53 36 26 61 24 36 -4 -18 -20 -21 -41 -6 -41 11 0 34 44 44 83 9 37 26 25
26 -19z m-3647 -11 c7 -34 33 -71 43 -61 4 5 2 20 -5 34 -6 15 -10 28 -8 30 2
2 33 -11 70 -30 39 -21 88 -37 124 -42 51 -6 203 6 286 23 15 3 27 1 27 -5 0
-5 -12 -12 -27 -15 -121 -25 -143 -31 -143 -40 0 -5 19 -7 43 -3 179 24 226
16 123 -23 -182 -68 -453 -42 -531 51 -25 30 -42 89 -30 108 10 16 22 4 28
-27z m1817 -25 c9 -3 10 -7 3 -11 -6 -4 -19 3 -29 16 -11 12 -12 17 -4 11 8
-6 22 -13 30 -16z m-1827 -84 c26 -29 57 -49 100 -65 55 -21 77 -24 207 -23
119 1 157 5 210 22 78 26 104 28 96 7 -4 -11 2 -15 24 -15 17 0 30 -5 30 -11
0 -20 -87 -48 -221 -69 -112 -18 -148 -20 -207 -12 -91 13 -169 49 -222 102
-46 46 -59 47 -36 3 34 -67 136 -119 264 -135 88 -11 87 -11 306 29 43 8 29
-17 -25 -44 -168 -86 -421 -61 -514 49 -36 43 -73 122 -81 175 -7 50 4 77 20
48 6 -10 28 -38 49 -61z m1733 27 c18 -11 40 -38 50 -60 10 -23 20 -41 23 -41
3 0 15 12 26 26 11 15 35 42 53 61 31 34 35 35 90 31 31 -3 70 -10 85 -17 28
-11 28 -11 8 -40 -12 -16 -38 -35 -59 -42 -20 -6 -59 -27 -85 -46 -27 -19 -54
-32 -60 -30 -7 2 -20 0 -29 -4 -10 -6 -19 -5 -23 1 -4 6 -15 8 -26 5 -13 -4
-39 7 -79 33 -33 22 -75 44 -92 47 -37 8 -48 20 -48 53 0 15 6 22 19 22 11 0
23 5 26 10 11 17 88 11 121 -9z m94 -51 c0 -5 -4 -10 -10 -10 -5 0 -10 5 -10
10 0 6 5 10 10 10 6 0 10 -4 10 -10z m-219 -79 c27 -74 70 -103 126 -86 19 6
22 4 20 -18 -1 -14 3 -26 8 -26 6 0 9 13 8 29 -4 36 12 48 27 20 14 -26 30
-26 30 0 0 20 24 28 34 11 4 -5 24 -12 46 -16 54 -9 90 11 120 67 35 64 44 70
36 25 -14 -74 -120 -267 -160 -289 -9 -5 -27 -1 -48 12 -34 20 -34 20 -73 0
-22 -11 -40 -20 -41 -20 -5 0 -90 116 -111 150 -21 36 -39 85 -53 153 -10 52
10 44 31 -12z m-116 -91 c-7 -23 -52 -56 -62 -46 -4 3 9 22 27 41 36 37 46 39
35 5z m715 -48 c-15 -5 -60 38 -60 57 0 10 12 3 35 -19 20 -19 31 -36 25 -38z
m-1686 -64 c-19 -21 -19 -21 1 -13 54 21 65 19 65 -13 0 -26 -5 -32 -35 -42
-36 -12 -171 -4 -180 10 -5 8 130 78 154 79 10 1 9 -5 -5 -21z m2668 -10 c38
-17 67 -36 65 -42 -5 -14 -102 -27 -150 -20 -28 4 -41 12 -47 30 -5 13 -14 24
-20 24 -5 0 -10 5 -10 10 0 17 41 11 76 -11 19 -11 42 -19 51 -17 13 3 8 9
-19 22 -37 18 -50 36 -26 36 6 0 42 -14 80 -32z m-1742 -42 c0 -29 -41 -81
-81 -101 -38 -20 -144 -31 -153 -16 -4 6 2 15 16 20 13 5 34 18 47 30 13 12
34 21 47 21 12 0 42 15 66 34 52 42 58 43 58 12z m100 11 c0 -7 -5 -18 -12
-25 -9 -9 -9 -12 0 -12 18 0 14 -29 -10 -68 -24 -40 -135 -115 -192 -131 -47
-12 -50 -10 -42 23 5 19 23 34 64 55 55 28 119 87 157 144 19 29 35 35 35 14z
m704 -22 c27 -19 59 -35 71 -35 12 0 34 -11 48 -24 15 -14 36 -27 47 -31 11
-4 18 -11 15 -16 -9 -14 -113 -11 -143 5 -49 26 -121 114 -105 130 10 10 16 8
67 -29z m-206 -127 c2 -58 1 -123 -2 -142 -7 -35 -9 -36 -50 -36 -23 0 -45 3
-48 6 -3 3 2 29 13 59 10 29 22 79 25 109 6 54 17 70 27 44 3 -7 6 16 7 52 2
102 21 38 28 -92z m152 52 c25 -25 63 -54 85 -65 55 -27 75 -45 75 -67 0 -25
-28 -23 -86 8 -68 36 -81 49 -125 129 -42 76 -52 119 -16 70 12 -16 42 -50 67
-75z m-1890 84 c0 -11 -88 -94 -100 -94 -21 0 -9 20 38 59 45 39 62 49 62 35z
m1320 -69 c0 -99 -13 -123 -98 -173 -38 -23 -74 -48 -82 -56 -12 -16 -80 -23
-80 -9 0 35 29 75 70 97 62 34 132 111 155 169 10 26 22 47 26 47 5 0 9 -34 9
-75z m-995 20 c-15 -96 35 -222 126 -319 64 -69 142 -117 209 -130 47 -9 64
-21 57 -40 -5 -13 -11 -14 -31 -5 -20 9 -33 8 -66 -5 -40 -16 -40 -16 -50 10
-6 14 -10 30 -10 35 0 20 -28 19 -78 0 -31 -13 -52 -16 -52 -10 0 20 35 56 50
51 10 -4 10 0 -3 13 -14 13 -21 15 -30 6 -21 -21 -34 -11 -41 29 -4 27 -11 40
-22 40 -12 0 -14 7 -9 30 4 17 3 30 -2 30 -15 0 -33 -23 -33 -41 0 -16 -19
-29 -41 -29 -15 0 -10 33 15 106 25 71 25 84 0 84 -8 0 -14 8 -14 18 -1 36
-26 54 -64 47 -20 -4 -36 -5 -36 -2 0 9 114 127 123 127 5 0 5 -20 2 -45z
m2499 -87 c-2 -3 -21 -2 -41 4 -31 8 -39 7 -50 -8 -7 -10 -13 -26 -13 -36 0
-10 -6 -18 -14 -18 -22 0 -24 -20 -9 -70 36 -120 33 -155 -8 -85 -21 36 -49
47 -49 20 0 -8 5 -15 10 -15 6 0 10 -7 10 -15 0 -9 -9 -15 -25 -15 -23 0 -25
-4 -25 -45 0 -45 -7 -54 -27 -34 -11 11 -63 2 -63 -12 0 -5 6 -6 13 -4 14 5
63 -32 54 -41 -3 -4 -27 1 -53 10 -26 9 -49 16 -51 16 -1 0 -9 -16 -17 -35
-17 -39 -38 -44 -75 -19 -17 12 -26 13 -34 5 -18 -18 -49 -14 -45 6 2 11 23
23 60 34 77 23 116 48 186 124 56 59 122 172 122 207 0 8 4 18 9 24 4 5 5 35
2 67 -4 32 -5 60 -3 62 7 6 141 -119 136 -127z m276 87 c33 -33 40 -45 26 -45
-16 0 -96 71 -96 85 0 17 32 -1 70 -40z m-1546 9 c29 -11 -3 -34 -45 -34 -27
0 -39 4 -39 14 0 23 48 34 84 20z m255 -41 c27 -54 67 -221 55 -233 -6 -6 -28
-6 -54 -2 -44 8 -45 8 -40 42 3 19 5 79 5 133 0 53 3 97 7 97 4 0 16 -17 27
-37z m-1740 -19 c-7 -9 -37 -31 -66 -50 -51 -32 -67 -54 -40 -54 6 0 37 18 67
40 30 22 65 47 78 56 16 12 26 14 33 7 16 -16 -1 -42 -60 -91 -73 -62 -69 -90
4 -32 42 33 68 39 58 14 -5 -14 -3 -15 15 -5 21 11 52 6 52 -9 0 -25 -103
-112 -175 -148 -116 -57 -203 -76 -323 -69 -115 7 -178 27 -224 70 -26 26 -66
87 -55 87 1 0 26 -9 55 -20 80 -31 215 -24 308 15 26 11 34 19 27 26 -7 7 -33
4 -84 -11 -86 -26 -210 -25 -248 2 -20 15 -18 16 46 21 66 5 335 90 478 150
63 27 76 28 54 1z m1568 -54 c-3 -33 -16 -82 -29 -108 -23 -46 -24 -47 -75
-50 -56 -3 -62 1 -39 27 30 35 86 122 100 155 9 21 22 36 32 36 14 0 16 -8 11
-60z m1315 20 c55 -43 68 -48 68 -25 0 8 -13 21 -30 30 -29 15 -40 35 -20 35
5 0 119 -36 252 -81 214 -72 247 -80 290 -75 59 8 64 -8 11 -31 -29 -12 -58
-14 -123 -9 -47 3 -97 8 -112 12 -41 9 -35 -14 8 -32 19 -8 63 -17 97 -21 53
-5 73 -1 130 22 38 15 71 24 74 21 8 -7 -18 -46 -57 -84 -61 -61 -246 -94
-375 -67 -136 28 -355 164 -355 220 0 21 9 19 37 -7 23 -21 23 -21 23 5 0 32
14 34 54 8 50 -33 51 -11 2 34 -43 40 -62 85 -35 85 6 0 34 -18 61 -40z
m-1524 0 c13 -28 12 -33 -21 -78 -63 -85 -86 -101 -154 -108 -80 -9 -89 7 -23
41 68 34 123 85 145 135 22 48 35 50 53 10z m78 -35 c13 -32 -88 -145 -130
-145 -24 0 -19 11 20 50 20 19 47 52 60 73 26 39 41 46 50 22z m439 -55 c9
-15 71 -42 90 -38 10 2 20 -3 22 -9 3 -8 -4 -13 -16 -13 -14 0 -19 -5 -15 -15
5 -12 -2 -15 -30 -15 -43 0 -76 31 -76 72 0 28 13 37 25 18z m-914 -49 c-6
-10 -17 -23 -25 -30 -12 -10 -17 -8 -26 9 -13 24 -6 36 25 42 28 6 37 0 26
-21z m1238 -95 c13 -9 14 -547 1 -851 -9 -220 -21 -279 -84 -412 -94 -198
-274 -395 -550 -604 -118 -90 -118 -90 -148 -71 -80 51 -256 200 -369 312
-172 171 -262 304 -316 465 -41 120 -44 178 -41 680 3 480 3 480 143 485 207
7 1351 4 1364 -4z m-2049 -9 c0 -8 -34 -45 -75 -84 -55 -51 -89 -75 -126 -87
-57 -18 -99 -21 -99 -7 0 12 117 110 148 124 12 6 25 7 29 3 8 -8 -62 -72 -89
-81 -10 -4 -18 -11 -18 -16 0 -22 89 38 145 97 59 62 85 78 85 51z m2634 -8
c15 -12 38 -38 50 -58 15 -22 44 -47 77 -64 54 -29 54 -29 24 -2 -16 15 -40
36 -52 46 -23 19 -30 39 -15 39 13 0 80 -51 132 -99 45 -42 45 -42 -5 -38 -27
2 -69 13 -92 24 -25 12 -41 16 -40 9 7 -37 -125 35 -145 80 -19 41 0 40 45 -3
38 -36 87 -70 87 -60 0 3 -25 30 -55 62 -69 72 -77 116 -11 64z m-2614 -50 c0
-25 -49 -71 -101 -95 -45 -20 -66 -10 -30 15 13 9 44 35 70 58 52 48 61 51 61
22z m2554 -68 c28 -21 62 -44 74 -51 37 -19 94 -161 67 -168 -17 -4 -177 91
-217 129 -41 39 -53 78 -18 59 10 -6 23 -18 29 -28 5 -9 13 -14 16 -10 4 4 -4
21 -19 38 -28 34 -33 56 -13 63 23 10 30 7 81 -32z m-2481 16 c20 -10 23 -17
15 -30 -11 -21 -30 -13 -21 10 4 10 2 14 -4 10 -6 -4 -13 -17 -15 -30 -5 -26
12 -29 50 -9 12 7 22 9 22 4 0 -31 -75 -86 -274 -200 -13 -7 2 66 24 114 13
31 36 54 91 92 41 29 77 52 80 52 4 0 18 -6 32 -13z m2932 -162 c95 -118 240
-230 330 -255 64 -18 58 -34 -10 -27 -68 7 -143 40 -242 109 -96 66 -217 181
-211 199 7 20 49 12 66 -12 28 -41 60 -74 66 -68 3 3 -6 21 -20 40 -33 44 -57
89 -47 89 5 -1 35 -34 68 -75z m-3402 48 c-4 -10 -13 -28 -21 -41 -22 -33 -4
-42 22 -10 25 32 86 50 86 25 0 -8 -18 -34 -41 -57 -22 -23 -38 -44 -36 -47
12 -11 70 35 88 70 13 24 26 37 39 37 27 0 25 -20 -10 -90 -34 -68 -35 -70
-17 -70 8 0 22 17 31 38 21 47 53 89 61 81 3 -4 -6 -37 -22 -75 -35 -89 -145
-203 -243 -251 -121 -60 -263 -63 -341 -7 -22 16 -40 34 -40 39 -1 6 -5 15
-10 21 -11 14 -1 24 25 24 69 0 274 145 372 264 58 69 68 77 57 49z m823 -26
c-6 -30 -6 -30 14 -12 27 24 35 14 17 -22 -23 -42 -84 -109 -93 -100 -11 10
12 125 31 153 21 32 39 20 31 -19z m1743 -30 c18 -60 21 -97 9 -97 -12 0 -88
79 -88 91 0 4 -3 16 -7 26 -5 14 -1 13 21 -7 20 -18 25 -20 20 -7 -3 9 -3 24
0 33 9 23 32 2 45 -39z m225 36 c4 -5 17 -8 29 -8 16 0 28 -14 48 -55 32 -64
44 -130 25 -130 -17 0 -117 102 -138 141 -23 43 -12 52 18 14 16 -21 24 -25
24 -14 0 9 -7 22 -15 29 -16 14 -20 30 -7 30 5 0 12 -3 16 -7z m534 -102 c180
-176 274 -231 397 -234 85 -2 85 -18 0 -27 -34 -4 -85 0 -133 10 -74 14 -86
20 -157 78 -9 8 -88 96 -116 130 -8 10 -14 11 -22 3 -8 -8 -5 -16 9 -30 10
-11 28 -31 39 -45 31 -41 58 -66 71 -66 6 0 14 -8 16 -18 3 -10 27 -31 54 -47
42 -25 63 -30 149 -35 93 -6 98 -7 70 -19 -20 -8 -62 -12 -126 -9 -83 3 -104
8 -160 35 -120 60 -231 175 -265 276 -19 56 -13 71 12 30 52 -85 80 -123 92
-123 17 0 15 7 -13 44 -14 18 -25 36 -25 39 0 3 -11 23 -25 43 -14 20 -25 46
-25 57 0 41 53 11 158 -92z m-2758 85 c0 -7 -10 -20 -22 -29 -13 -8 -20 -18
-16 -22 4 -5 17 4 29 18 28 36 40 34 27 -4 -10 -31 -111 -139 -129 -139 -12 0
-11 56 1 102 14 48 46 88 58 70 7 -10 11 -10 22 3 16 19 30 20 30 1z m2074
-28 c16 -22 16 -22 16 -2 0 24 36 26 51 3 10 -16 12 -142 3 -177 -10 -34 -25
-22 -62 45 -50 94 -56 200 -8 131z m-1960 -13 c-3 -14 -3 -25 0 -25 4 0 11 11
16 25 11 29 30 33 30 6 0 -58 -63 -201 -89 -201 -12 0 -20 119 -12 166 5 29
11 38 24 36 9 -2 17 2 17 8 0 5 5 10 10 10 6 0 8 -11 4 -25z m196 -96 c0 -81
-15 -89 -38 -21 -12 38 -12 45 2 67 27 41 36 29 36 -46z m1630 51 c8 -14 8
-31 0 -58 -20 -73 -30 -71 -30 6 0 72 10 90 30 52z m-1978 -151 c-7 -84 -6
-104 3 -109 6 -3 12 16 15 42 6 48 15 67 27 54 4 -3 6 -48 5 -98 0 -50 2 -96
5 -101 11 -18 23 19 23 76 0 31 5 57 10 57 6 0 10 -8 10 -17 0 -10 5 -49 10
-88 4 -38 10 -175 11 -303 3 -197 1 -235 -11 -242 -8 -5 -18 -10 -22 -10 -7 0
-40 97 -59 178 -7 28 -16 52 -20 52 -18 0 -18 -22 0 -72 11 -29 23 -64 27 -78
14 -48 -21 -4 -54 67 -70 152 -112 372 -98 506 8 72 11 77 66 107 46 24 56 20
52 -21z m-247 -1 c-4 -18 -11 -37 -15 -43 -4 -5 -23 -47 -41 -93 -24 -61 -29
-86 -21 -94 11 -11 29 20 63 115 7 20 19 37 27 37 10 0 13 -25 12 -117 -1
-119 5 -168 22 -190 5 -7 7 -17 3 -23 -11 -18 5 -90 21 -90 16 0 19 -41 4 -56
-8 -8 -7 -39 1 -103 19 -148 -13 -404 -63 -504 -10 -20 -20 -37 -21 -37 -2 0
1 35 6 78 17 150 12 362 -9 362 -9 0 -12 -38 -12 -147 -1 -200 -32 -348 -97
-458 -42 -72 -58 -74 -45 -5 14 74 29 234 40 420 6 96 13 199 16 228 5 42 3
52 -8 52 -17 0 -34 -121 -43 -305 -11 -231 -17 -286 -28 -282 -18 6 -25 92
-26 320 -1 175 2 222 20 303 11 53 18 98 15 101 -13 13 -25 -14 -37 -87 -17
-106 -34 -104 -26 3 6 85 49 276 93 408 46 140 172 315 149 207z m2558 18 c3
-8 14 -13 24 -10 10 2 29 -5 43 -15 24 -19 25 -23 25 -153 -1 -103 -6 -153
-23 -223 -36 -144 -103 -312 -132 -330 -14 -8 -14 -10 20 84 17 45 28 87 25
92 -12 18 -23 8 -30 -27 -11 -63 -45 -164 -55 -164 -5 0 -16 15 -25 34 -14 29
-15 66 -7 320 6 158 13 290 16 293 13 13 20 -11 22 -70 1 -83 2 -87 16 -87 8
0 9 29 5 108 -4 59 -3 113 2 121 12 19 22 -1 30 -63 3 -29 10 -49 16 -46 12 6
12 60 1 113 -7 30 -5 37 7 37 8 0 17 -6 20 -14z m264 -19 c38 -44 96 -149 117
-212 68 -213 115 -455 88 -455 -5 0 -14 29 -21 65 -12 59 -25 85 -37 73 -2 -3
5 -40 17 -84 42 -155 49 -664 9 -664 -11 0 -18 52 -26 188 -10 177 -28 333
-39 332 -20 -1 -8 -185 42 -620 5 -44 5 -45 -15 -27 -32 29 -80 136 -102 228
-14 56 -22 134 -26 234 -6 163 -8 175 -25 175 -9 0 -10 -42 -5 -162 3 -90 9
-183 12 -208 5 -40 4 -43 -9 -30 -18 18 -39 90 -63 215 -24 122 -23 476 2 516
12 20 14 53 13 217 -1 195 3 196 72 30 13 -32 30 -58 37 -58 6 0 12 4 12 8 0
11 -41 110 -74 182 -42 90 -32 117 21 57z m-2349 -94 c7 -43 17 -82 22 -87 16
-16 22 18 10 65 -16 64 -16 71 -3 76 23 8 54 -86 60 -177 6 -91 -15 -227 -43
-282 -19 -37 -60 -39 -74 -2 -22 56 -41 459 -23 477 3 4 14 7 23 7 13 0 19
-17 28 -77z m1886 61 c19 -18 19 -41 6 -250 -10 -167 -25 -244 -46 -244 -8 0
-14 -4 -14 -10 0 -5 -4 -10 -10 -10 -17 0 -47 72 -65 154 -29 131 -10 313 36
341 19 12 22 -4 10 -46 -9 -29 -9 -45 -2 -52 11 -11 31 29 31 63 0 27 18 70
29 70 5 0 17 -7 25 -16z m-2519 -80 c-9 -14 -14 -32 -11 -40 3 -8 -3 -37 -14
-64 -11 -27 -29 -86 -40 -132 -30 -115 -92 -216 -154 -250 -17 -9 -16 -7 4 21
26 38 17 57 -11 21 -32 -42 -73 -80 -101 -96 -29 -15 -37 -7 -15 15 10 10 6
11 -17 5 -30 -7 -30 -7 -6 32 13 21 56 99 95 173 60 111 90 154 175 249 57 64
106 110 108 104 2 -7 -4 -24 -13 -38z m3153 -17 c23 -29 69 -81 102 -117 40
-42 78 -99 111 -165 28 -55 69 -128 91 -163 23 -34 39 -64 37 -67 -8 -7 -86
50 -103 75 -9 14 -34 48 -57 75 -22 28 -62 93 -89 145 -47 90 -89 155 -90 137
0 -5 14 -41 31 -80 56 -127 117 -218 197 -294 50 -49 70 -73 58 -73 -10 0 -34
14 -53 30 -18 17 -42 30 -51 30 -10 0 -32 15 -49 33 -61 63 -102 150 -143 304
-23 81 -43 156 -46 166 -11 31 10 17 54 -36z m-2898 -226 c0 -69 -4 -122 -10
-126 -6 -4 -10 38 -10 119 0 77 4 126 10 126 6 0 10 -46 10 -119z m2610 -33
c0 -83 -3 -118 -10 -108 -13 20 -13 230 0 230 6 0 10 -47 10 -122z m-2580
-183 c0 -25 -4 -45 -10 -45 -5 0 -10 20 -10 45 0 25 5 45 10 45 6 0 10 -20 10
-45z m473 -467 c16 -22 18 -30 8 -42 -12 -14 -60 -9 -61 7 -1 59 1 68 16 65 9
-2 26 -15 37 -30z m1642 -10 c-1 -38 -4 -43 -26 -46 -15 -2 -32 4 -39 13 -11
13 -9 20 15 45 39 41 51 38 50 -12z m-1779 -44 c44 -19 70 -25 102 -21 50 5
56 -10 16 -42 -33 -26 -78 -27 -150 -1 -62 21 -128 66 -119 81 12 18 93 9 151
-17z m2004 7 c0 -25 -105 -78 -170 -87 -56 -7 -100 8 -100 36 0 15 7 20 28 20
15 1 56 12 92 25 36 13 84 24 108 24 35 1 42 -2 42 -18z m-2046 -246 c40 -19
124 -51 187 -71 62 -20 175 -58 251 -85 204 -72 299 -88 530 -90 243 -1 277 6
627 121 307 101 390 137 475 204 44 34 61 43 67 34 5 -7 4 -17 -1 -22 -6 -6
-10 -17 -10 -26 0 -13 2 -13 11 0 9 12 9 11 4 -5 -11 -31 -8 -51 35 -210 17
-61 32 -123 35 -139 5 -32 25 -60 25 -36 0 14 11 8 12 -7 1 -4 7 -22 14 -40
12 -29 12 -32 -4 -32 -65 0 -249 -36 -342 -66 -25 -8 -61 -17 -80 -19 -19 -3
-123 -34 -230 -70 -310 -103 -542 -139 -756 -117 -215 22 -360 57 -614 150
-47 17 -97 31 -111 31 -15 0 -46 7 -70 16 -79 28 -243 64 -291 64 -26 0 -49 4
-52 9 -4 7 38 194 60 265 5 15 3 18 -11 13 -13 -5 -16 -2 -13 16 2 14 9 21 19
19 22 -3 60 142 47 178 -19 53 1 53 58 1 31 -28 88 -67 128 -86z m-224 -45 c0
-5 -5 -10 -11 -10 -5 0 -7 5 -4 10 3 6 8 10 11 10 2 0 4 -4 4 -10z m2425 -70
c3 -5 1 -10 -4 -10 -6 0 -11 5 -11 10 0 6 2 10 4 10 3 0 8 -4 11 -10z m-2482
-151 c-28 -109 -30 -115 -38 -108 -2 3 7 48 20 100 30 112 34 123 40 117 3 -3
-7 -52 -22 -109z m2512 32 c3 -5 1 -12 -5 -16 -5 -3 -10 1 -10 9 0 18 6 21 15
7z m-260 -421 c-16 -11 -34 -20 -40 -20 -17 1 36 40 54 40 10 0 6 -7 -14 -20z"/>
<path d="M3291 3803 c-12 -14 -24 -43 -27 -64 -5 -28 -16 -46 -40 -64 -40 -31
-42 -52 -10 -103 12 -20 26 -47 30 -59 7 -23 26 -32 26 -13 0 5 -11 35 -25 66
-31 70 -31 72 1 86 28 13 59 62 49 79 -4 5 5 30 19 54 28 51 12 64 -23 18z"/>
<path d="M3257 3472 c-22 -24 -21 -38 2 -76 27 -45 51 -132 51 -189 0 -34 4
-47 13 -45 31 11 10 157 -34 242 -18 35 -18 40 -4 55 8 10 15 21 15 24 0 14
-27 7 -43 -11z"/>
<path d="M4014 3582 c-23 -20 -54 -43 -70 -51 -16 -7 -37 -17 -46 -22 -9 -5
-35 -12 -58 -15 -24 -4 -40 -12 -40 -20 0 -17 11 -17 70 -1 68 19 122 51 163
96 20 23 37 43 37 46 0 12 -18 2 -56 -33z"/>
<path d="M3707 3473 c-15 -14 -6 -23 23 -23 20 0 30 5 30 15 0 15 -40 21 -53
8z"/>
<path d="M2010 3662 c0 -4 24 -18 53 -32 28 -14 69 -40 90 -59 20 -18 37 -29
37 -23 0 14 -75 84 -112 105 -34 18 -68 23 -68 9z"/>
<path d="M2365 3649 c-48 -25 -105 -78 -105 -96 0 -7 25 7 56 32 31 25 69 48
85 52 16 3 34 12 40 19 18 22 -29 18 -76 -7z"/>
<path d="M2258 3406 c-6 -15 -8 -29 -5 -32 9 -9 37 15 37 32 0 25 -20 25 -32
0z"/>
<path d="M2105 3380 c-7 -12 23 -80 36 -80 13 0 11 15 -5 55 -16 37 -21 41
-31 25z"/>
<path d="M2316 3378 c-2 -7 -8 -28 -14 -45 -5 -18 -6 -35 -2 -38 11 -7 33 32
25 45 -3 5 -1 11 5 15 13 8 13 35 0 35 -6 0 -12 -6 -14 -12z"/>
<path d="M2255 3321 c-3 -5 -1 -12 5 -16 5 -3 10 1 10 9 0 18 -6 21 -15 7z"/>
<path d="M955 3310 c-3 -6 1 -7 9 -4 18 7 21 14 7 14 -6 0 -13 -4 -16 -10z"/>
<path d="M1300 2769 c0 -5 5 -7 10 -4 6 3 10 8 10 11 0 2 -4 4 -10 4 -5 0 -10
-5 -10 -11z"/>
<path d="M3122 2779 c2 -7 10 -15 17 -17 8 -3 12 1 9 9 -2 7 -10 15 -17 17 -8
3 -12 -1 -9 -9z"/>
<path d="M200 2946 c0 -12 82 -47 115 -49 55 -3 39 17 -23 29 -31 6 -65 14
-74 19 -10 4 -18 4 -18 1z"/>
<path d="M450 2923 c-44 -7 -54 -13 -43 -24 15 -15 103 -1 103 17 0 14 -11 15
-60 7z"/>
<path d="M3775 3090 c3 -5 11 -10 16 -10 6 0 7 5 4 10 -3 6 -11 10 -16 10 -6
0 -7 -4 -4 -10z"/>
<path d="M3980 2905 c0 -8 9 -15 20 -15 11 0 20 7 20 15 0 8 -9 15 -20 15 -11
0 -20 -7 -20 -15z"/>
<path d="M4090 2910 c0 -5 14 -10 30 -10 17 0 30 5 30 10 0 6 -13 10 -30 10
-16 0 -30 -4 -30 -10z"/>
<path d="M2178 2752 c-97 -145 -99 -163 -28 -247 28 -33 53 -70 56 -82 9 -33
28 -28 46 11 9 19 37 57 62 85 51 58 55 79 25 136 -27 53 -102 165 -110 165
-3 0 -26 -30 -51 -68z"/>
<path d="M1826 2740 c-32 -10 -71 -30 -85 -44 -36 -34 -45 -33 -70 10 -20 33
-52 43 -41 13 2 -8 4 -30 3 -49 -8 -207 -7 -225 15 -272 44 -98 165 -189 229
-173 14 3 51 31 83 61 49 46 62 54 96 54 22 0 54 -9 73 -21 50 -30 57 -10 17
43 -62 81 -137 103 -224 67 -39 -16 -62 -6 -76 35 -8 21 -6 32 11 54 18 24 27
27 77 27 57 0 60 2 49 43 -7 28 37 97 67 107 40 13 24 41 -31 53 -70 16 -124
14 -193 -8z"/>
<path d="M2423 2748 c-31 -8 -43 -16 -43 -29 0 -11 6 -19 14 -19 22 0 74 -54
82 -84 4 -19 1 -33 -11 -46 -26 -29 -10 -40 34 -23 33 13 43 13 67 2 16 -8 35
-26 43 -41 14 -25 14 -29 -5 -55 -26 -34 -54 -40 -89 -17 -18 12 -37 15 -67
11 -49 -7 -81 -29 -126 -87 -40 -52 -30 -74 17 -39 54 40 92 31 166 -41 62
-58 66 -61 102 -54 49 9 66 18 115 62 90 81 124 177 112 311 -4 47 -6 91 -5
96 15 49 -9 56 -40 10 -28 -41 -39 -43 -65 -14 -48 54 -201 83 -301 57z"/>
<path d="M2090 2281 c-46 -13 -52 -82 -11 -132 16 -21 28 -24 78 -23 35 0 71
7 91 18 19 10 36 15 39 12 4 -3 -5 -34 -18 -67 -20 -51 -32 -67 -68 -91 -76
-48 -170 -34 -224 33 -61 75 -67 79 -114 79 -105 0 -173 -84 -173 -212 0 -55
51 -224 86 -284 29 -51 70 -80 88 -64 10 7 22 7 40 0 33 -12 56 -13 74 -1 12
7 12 12 0 30 -12 21 -10 25 25 56 22 19 36 38 33 43 -3 5 -25 7 -48 5 -53 -6
-102 24 -135 82 -38 68 -25 119 37 145 25 11 41 11 85 0 102 -24 193 7 273 94
35 38 72 123 72 165 0 6 8 11 18 11 29 0 62 29 62 55 0 60 -28 70 -95 34 -57
-29 -116 -49 -147 -49 -18 0 -28 -5 -28 -15 0 -26 73 -18 150 17 53 23 74 28
82 20 16 -16 13 -18 -85 -58 -124 -50 -187 -37 -187 40 0 18 6 25 23 28 12 2
22 9 22 17 0 18 -13 21 -45 12z"/>
<path d="M2487 2085 c-43 -29 -45 -35 -17 -53 30 -18 26 -66 -6 -91 -41 -32
-102 -28 -149 9 -53 42 -68 40 -42 -7 17 -30 94 -78 140 -87 31 -6 49 -2 93
21 56 28 56 28 80 0 27 -32 30 -56 10 -95 -27 -52 -96 -97 -111 -72 -3 5 -10
10 -16 10 -17 0 -9 -27 15 -53 20 -22 23 -32 17 -55 -13 -42 -36 -85 -60 -106
-12 -11 -21 -26 -21 -33 0 -27 100 6 130 42 9 10 22 14 39 10 38 -7 71 45 122
195 60 178 56 261 -15 338 -53 59 -145 70 -209 27z"/>
<path d="M2205 1878 c-3 -13 -31 -75 -61 -138 -72 -152 -83 -206 -61 -296 10
-38 39 -116 67 -174 27 -58 52 -115 55 -127 4 -13 10 -23 15 -23 20 0 134 273
149 357 15 80 5 122 -63 264 -29 63 -57 124 -60 137 -4 12 -13 22 -21 22 -8 0
-16 -10 -20 -22z"/>
<path d="M3490 2743 c56 -59 64 -65 69 -51 5 13 -82 98 -100 98 -7 0 7 -21 31
-47z"/>
<path d="M927 2742 c-31 -32 -34 -42 -12 -42 9 0 21 11 27 25 6 14 15 25 20
25 4 0 8 5 8 10 0 17 -15 11 -43 -18z"/>
<path d="M380 2447 c-74 -49 -160 -87 -199 -88 -14 0 -35 -5 -46 -10 -14 -6 5
-8 60 -6 63 3 91 10 133 31 74 37 160 118 125 116 -5 -1 -37 -20 -73 -43z"/>
<path d="M418 2366 c-20 -15 -24 -36 -7 -36 20 0 49 21 49 35 0 18 -19 19 -42
1z"/>
<path d="M330 2320 c-14 -4 -44 -8 -67 -9 -54 -1 -68 -21 -16 -22 77 -2 123 9
123 31 0 11 -5 11 -40 0z"/>
<path d="M3800 2600 c0 -18 32 -60 41 -54 5 3 2 19 -8 35 -17 29 -33 38 -33
19z"/>
<path d="M1154 1863 c9 -100 18 -148 28 -158 8 -7 9 -4 5 8 -4 10 -10 60 -13
112 -4 52 -11 95 -16 95 -6 0 -7 -24 -4 -57z"/>
<path d="M800 1720 c0 -11 7 -20 15 -20 8 0 15 9 15 20 0 11 -7 20 -15 20 -8
0 -15 -9 -15 -20z"/>
<path d="M3393 2075 c0 -22 2 -30 4 -17 2 12 2 30 0 40 -3 9 -5 -1 -4 -23z"/>
<path d="M3280 1798 c0 -45 3 -59 10 -48 13 20 13 110 0 110 -6 0 -10 -27 -10
-62z"/>
<path d="M3710 2095 c0 -8 7 -15 15 -15 8 0 15 7 15 15 0 8 -7 15 -15 15 -8 0
-15 -7 -15 -15z"/>
<path d="M3640 1865 c0 -16 6 -25 15 -25 9 0 15 9 15 25 0 16 -6 25 -15 25 -9
0 -15 -9 -15 -25z"/>
<path d="M3730 1780 c0 -11 7 -20 15 -20 8 0 15 9 15 20 0 11 -7 20 -15 20 -8
0 -15 -9 -15 -20z"/>
<path d="M3643 1743 c-18 -7 -16 -33 2 -33 8 0 15 9 15 20 0 11 -1 20 -2 19
-2 0 -9 -3 -15 -6z"/>
<path d="M3744 1737 c-7 -20 -2 -47 11 -50 14 -3 19 43 6 56 -7 7 -12 6 -17
-6z"/>
<path d="M1331 2073 c2 -167 17 -157 26 17 5 108 4 120 -11 120 -15 0 -16 -15
-15 -137z"/>
<path d="M1303 2000 c0 -30 2 -43 4 -27 2 15 2 39 0 55 -2 15 -4 2 -4 -28z"/>
<path d="M3094 2236 c-8 -21 3 -49 16 -41 5 3 10 15 10 25 0 25 -18 36 -26 16z"/>
<path d="M3145 2221 c-3 -5 -1 -12 5 -16 5 -3 10 1 10 9 0 18 -6 21 -15 7z"/>
<path d="M3137 2144 c-9 -9 -8 -113 2 -179 6 -46 8 -41 15 58 7 101 2 140 -17
121z"/>
<path d="M3087 2113 c-8 -14 5 -73 14 -67 12 7 12 74 0 74 -6 0 -12 -3 -14 -7z"/>
<path d="M3101 1990 c0 -33 1 -34 11 -12 8 17 8 26 0 34 -9 9 -12 4 -11 -22z"/>
<path d="M616 2224 c-4 -10 -1 -14 6 -12 15 5 23 28 10 28 -5 0 -13 -7 -16
-16z"/>
<path d="M430 1900 c0 -5 4 -10 9 -10 6 0 13 5 16 10 3 6 -1 10 -9 10 -9 0
-16 -4 -16 -10z"/>
<path d="M365 1830 c-10 -11 -15 -23 -12 -27 8 -7 47 25 47 39 0 14 -16 9 -35
-12z"/>
<path d="M3492 720 c0 -14 2 -19 5 -12 2 6 2 18 0 25 -3 6 -5 1 -5 -13z"/>
<path d="M2800 4155 c0 -16 6 -25 15 -25 9 0 15 9 15 25 0 16 -6 25 -15 25 -9
0 -15 -9 -15 -25z"/>
<path d="M2806 4088 c-2 -7 -7 -31 -10 -53 -5 -43 14 -83 34 -70 8 5 8 11 0
19 -6 8 -7 32 -4 58 4 29 2 48 -5 52 -6 4 -13 1 -15 -6z"/>
<path d="M1624 4033 c6 -49 6 -49 -27 -45 -22 2 -37 -2 -48 -15 -15 -16 -39
-75 -39 -93 0 -13 89 -42 109 -35 23 7 46 64 32 78 -13 13 -31 -1 -31 -24 0
-15 -6 -18 -30 -16 -17 2 -36 9 -41 14 -17 17 18 63 47 63 12 0 26 5 29 11 4
6 13 8 20 5 21 -8 23 1 10 51 -17 67 -40 71 -31 6z"/>
<path d="M1692 4058 c5 -32 28 -35 28 -4 0 17 -5 26 -16 26 -10 0 -14 -7 -12
-22z"/>
<path d="M1750 4038 c-34 -23 -50 -48 -32 -48 18 0 81 45 82 58 0 18 -13 15
-50 -10z"/>
<path d="M1820 4045 c0 -3 4 -13 9 -23 5 -9 12 -25 15 -34 7 -25 26 -22 26 3
0 29 -18 59 -35 59 -8 0 -15 -2 -15 -5z"/>
<path d="M2874 3975 c-8 -21 10 -39 30 -32 22 9 20 24 -4 37 -16 9 -22 8 -26
-5z"/>
<path d="M2770 3951 c0 -11 -3 -26 -6 -35 -4 -10 -1 -16 7 -16 8 0 22 -14 31
-30 13 -23 24 -30 48 -30 39 0 39 18 -1 32 -22 8 -29 16 -27 31 2 12 -7 31
-20 44 -28 28 -32 28 -32 4z"/>
<path d="M1670 3898 c0 -6 8 -20 17 -30 15 -17 15 -20 -12 -48 -40 -42 -45
-117 -11 -149 25 -24 66 -26 74 -3 2 7 -9 15 -27 18 -18 4 -36 15 -41 25 -15
28 0 79 26 89 20 8 23 14 18 46 -4 38 -19 64 -35 64 -5 0 -9 -5 -9 -12z"/>
<path d="M2907 3903 c-4 -3 -7 -15 -7 -25 0 -15 5 -18 23 -12 29 9 31 10 24
29 -7 15 -28 20 -40 8z"/>
<path d="M2736 3863 c-13 -13 -5 -43 19 -69 24 -26 32 -65 19 -98 -10 -25 -20
-19 -19 11 0 19 -8 31 -27 42 -35 20 -50 5 -18 -19 22 -17 23 -22 12 -40 -27
-44 26 -56 64 -14 32 33 31 80 -1 124 -14 19 -25 39 -25 46 0 15 -15 26 -24
17z"/>
</g>
</svg>
