<?xml version="1.0" standalone="no"?>
<!DOCTYPE svg PUBLIC "-//W3C//DTD SVG 20010904//EN"
 "http://www.w3.org/TR/2001/REC-SVG-20010904/DTD/svg10.dtd">
<svg version="1.0" xmlns="http://www.w3.org/2000/svg"
 width="289.000000pt" height="445.000000pt" viewBox="0 0 289.000000 445.000000"
 preserveAspectRatio="xMidYMid meet">
<metadata>
Created by potrace 1.16, written by Peter Selinger 2001-2019
</metadata>
<g transform="translate(0.000000,445.000000) scale(0.100000,-0.100000)"
fill="#000000" stroke="none">
<path d="M399 4373 c-4 -38 -18 -96 -69 -278 -33 -115 -69 -250 -80 -300 -12
-49 -26 -103 -32 -118 -7 -19 -8 -31 -1 -38 8 -8 22 6 47 43 20 30 45 63 55
73 11 9 25 33 31 51 13 37 30 37 30 -1 0 -13 5 -27 12 -31 8 -5 9 10 4 57 -17
163 -19 219 -7 219 6 0 11 -8 11 -17 1 -10 7 -80 13 -156 11 -112 11 -143 0
-168 -7 -17 -13 -35 -13 -40 0 -12 87 -11 95 1 3 6 0 26 -7 46 -11 32 -11 37
5 49 10 7 18 22 17 32 -6 58 8 70 31 24 23 -47 139 -165 151 -153 7 7 6 17 -1
31 -18 32 -258 635 -262 656 -4 19 -28 34 -30 18z m85 -339 c10 -25 7 -179 -3
-168 -11 12 -22 184 -12 184 5 0 12 -7 15 -16z"/>
<path d="M1390 4094 c-75 -15 -131 -36 -140 -54 -6 -12 -15 -18 -20 -15 -10 6
-110 -53 -147 -88 -13 -11 -23 -29 -23 -39 0 -14 -5 -18 -19 -13 -25 8 -74
-49 -66 -76 4 -13 1 -19 -8 -19 -20 0 -51 -81 -45 -115 3 -16 1 -25 -7 -25 -7
0 -15 -10 -19 -22 -9 -37 -7 -116 4 -123 6 -3 7 -17 4 -31 -3 -13 -2 -37 4
-52 5 -15 15 -46 22 -70 18 -58 31 -66 68 -45 30 17 30 18 29 95 -1 43 1 78 6
78 4 0 7 6 7 13 0 7 8 29 19 49 16 33 17 38 2 52 -14 15 -13 16 9 16 18 0 29
8 39 30 7 17 10 37 7 45 -4 10 1 15 17 15 30 1 59 24 52 42 -4 10 1 14 17 14
14 -1 26 7 32 21 7 14 18 21 35 20 25 -2 26 0 24 43 -3 45 -3 45 13 15 9 -16
18 -31 19 -33 1 -1 24 5 51 13 65 20 114 20 114 0 0 -8 5 -15 10 -15 6 0 10 5
10 12 0 6 6 3 14 -8 18 -24 17 -24 44 61 32 100 47 184 36 195 -11 11 -175 21
-214 14z m-101 -194 c0 -13 -1 -13 -8 0 -5 8 -12 26 -15 40 -7 25 -7 25 8 0 9
-14 15 -32 15 -40z"/>
<path d="M1637 3983 c-8 -14 -45 -147 -49 -173 -2 -17 4 -27 20 -36 13 -6 30
-21 38 -33 8 -11 22 -21 30 -21 8 0 14 -6 14 -13 0 -8 9 -24 19 -36 11 -13 22
-28 24 -34 2 -8 13 -5 33 8 29 19 29 19 11 -6 -28 -39 -31 -51 -14 -61 10 -5
17 -21 17 -38 0 -17 5 -30 11 -30 22 0 179 91 179 103 0 7 -7 25 -15 41 -8 15
-15 32 -15 36 0 14 -70 124 -97 152 -32 34 -36 34 -64 6 -21 -23 -21 -23 -5 9
9 18 16 36 16 40 0 10 -123 93 -138 93 -6 0 -13 -3 -15 -7z"/>
<path d="M1380 3741 c-53 -16 -114 -54 -156 -97 -44 -43 -114 -171 -114 -206
0 -33 27 -19 38 20 14 45 78 147 113 179 28 25 111 68 152 78 42 11 142 -43
204 -108 28 -30 65 -82 82 -115 30 -60 60 -86 45 -39 -36 115 -119 218 -216
266 -61 31 -100 36 -148 22z"/>
<path d="M391 3631 c-8 -5 -11 -16 -8 -25 5 -13 18 -14 74 -9 71 6 90 14 79
32 -8 13 -125 14 -145 2z"/>
<path d="M1344 3600 c-80 -44 -131 -96 -169 -169 -29 -58 -29 -61 -12 -61 7 0
27 24 44 54 41 67 96 117 173 156 61 31 61 31 124 -5 35 -19 79 -50 98 -69 36
-35 103 -144 94 -153 -7 -8 -88 44 -177 115 -44 34 -82 62 -84 62 -3 0 -38
-26 -78 -58 -101 -82 -165 -120 -215 -128 -24 -4 -42 -12 -42 -20 0 -19 20
-28 33 -15 6 6 20 11 32 11 18 0 43 13 145 75 12 7 13 6 3 -6 -7 -9 -36 -28
-65 -44 -29 -16 -59 -35 -66 -42 -7 -7 -22 -13 -33 -13 -19 0 -19 -1 -3 -31
22 -44 34 -449 13 -448 -8 0 -52 13 -99 29 -59 19 -89 25 -97 18 -7 -6 -10
-14 -7 -20 3 -5 9 -30 12 -55 7 -46 32 -73 32 -35 0 30 10 52 25 52 21 0 187
-86 240 -124 52 -38 89 -47 79 -21 -4 8 -2 15 4 15 13 0 72 -58 72 -71 0 -19
26 -7 41 19 9 16 31 39 49 52 31 22 32 22 21 2 -15 -28 -14 -32 8 -32 10 0 35
13 56 30 51 40 242 133 260 126 9 -3 15 -18 15 -37 0 -51 24 -29 38 36 7 32
11 64 8 70 -3 9 -33 3 -101 -21 -53 -19 -100 -34 -103 -34 -11 0 -3 412 8 444
14 40 13 46 -9 46 -11 0 -23 5 -26 10 -8 13 18 13 49 -1 33 -15 63 -5 46 16
-7 8 -21 15 -32 15 -10 0 -21 8 -24 18 -15 50 -58 126 -90 162 -40 44 -166
120 -199 120 -11 0 -52 -18 -91 -40z m161 -163 c6 -5 -9 1 -32 13 -24 12 -43
29 -43 38 0 12 8 8 33 -14 17 -16 37 -33 42 -37z m-71 -57 c6 0 17 5 23 11 8
8 14 5 22 -10 9 -17 9 -21 -3 -21 -8 0 -16 -6 -19 -12 -3 -10 -10 -10 -30 1
-15 8 -30 12 -33 9 -6 -6 12 -41 35 -71 17 -20 31 -7 31 29 0 13 8 24 21 27
19 5 19 4 5 -17 -8 -13 -16 -36 -18 -52 -5 -47 -37 -38 -67 19 -24 48 -24 48
-6 85 14 27 20 32 22 20 3 -10 10 -18 17 -18z m222 -47 c-5 -5 -76 35 -76 43
0 2 18 -5 41 -16 23 -12 38 -24 35 -27z m-381 -55 c6 -6 -1 -7 -20 -2 -16 3
-34 11 -40 16 -6 6 1 7 20 2 17 -3 35 -11 40 -16z m332 -4 c-3 -3 -12 -4 -19
-1 -8 3 -5 6 6 6 11 1 17 -2 13 -5z m-317 -45 c72 -32 120 -88 120 -139 0 -19
-2 -19 -22 -6 -13 7 -45 17 -73 21 -66 9 -92 27 -106 74 -22 72 1 86 81 50z
m118 -4 c6 -14 9 -25 7 -25 -9 0 -45 34 -45 42 0 18 28 6 38 -17z m262 5 c8
-14 6 -30 -6 -60 -19 -47 -31 -55 -99 -65 -27 -3 -60 -13 -72 -21 -32 -20 -36
-18 -29 17 10 51 61 106 119 128 66 25 74 25 87 1z m-185 -10 c-10 -11 -21
-17 -24 -14 -3 3 3 12 13 20 28 20 32 17 11 -6z m-265 -125 c10 -9 41 -20 71
-24 82 -13 93 -35 119 -241 15 -113 16 -120 29 -120 13 0 16 17 31 154 17 162
40 206 107 206 16 0 46 9 68 20 21 11 40 18 41 17 2 -1 -2 -22 -8 -45 -8 -34
-20 -49 -57 -74 -76 -51 -110 -88 -82 -88 12 0 98 57 106 71 4 5 11 9 16 9 15
0 1 -87 -22 -135 -24 -53 -31 -61 -122 -133 -93 -74 -85 -75 -203 42 -78 77
-82 84 -97 151 -9 38 -15 71 -13 73 2 1 31 -15 64 -38 60 -39 82 -48 82 -32 0
13 -41 47 -92 77 -56 32 -54 28 -63 83 -7 45 -2 51 25 27z m81 -382 c13 -16
12 -17 -3 -4 -17 13 -22 21 -14 21 2 0 10 -8 17 -17z m289 14 c0 -2 -9 -12
-20 -22 -24 -21 -27 -14 -4 9 15 15 24 20 24 13z"/>
<path d="M427 3563 c-2 -5 0 -89 4 -187 6 -119 6 -183 -1 -190 -20 -20 -9 -27
38 -24 35 2 47 7 45 18 -1 8 -5 99 -8 203 -7 187 -7 187 -40 187 -19 0 -36 -3
-38 -7z"/>
<path d="M2568 3299 c-9 -5 -68 -14 -130 -20 -151 -13 -219 -33 -263 -76 -50
-49 -48 -92 10 -212 56 -115 58 -147 9 -201 -42 -46 -105 -73 -219 -90 -89
-14 -98 -18 -85 -40 7 -12 33 -15 127 -15 113 0 121 1 184 32 46 23 75 45 93
72 49 70 51 126 11 255 -8 27 -15 57 -15 67 0 35 49 77 114 99 66 21 139 64
170 99 22 24 18 44 -6 30z"/>
<path d="M542 3244 c3 -35 6 -38 48 -48 56 -14 118 -60 126 -93 7 -26 -28
-114 -53 -135 -18 -15 -16 -28 5 -28 10 0 27 -7 38 -15 18 -14 17 -14 -13 -15
-28 0 -33 -4 -33 -24 0 -14 -5 -28 -10 -31 -15 -9 -12 -48 5 -71 19 -25 19
-34 0 -34 -8 0 -15 -6 -15 -14 0 -7 -11 -29 -23 -48 -23 -33 -44 -128 -29
-128 16 0 72 41 87 63 8 13 20 51 26 83 6 32 18 73 26 91 10 20 14 45 10 68
-3 19 -2 35 4 35 5 0 35 39 66 87 48 71 58 93 58 129 0 98 -115 164 -284 164
-42 0 -42 0 -39 -36z"/>
<path d="M1752 3221 c7 -68 56 -165 86 -169 24 -4 72 22 72 37 0 5 -16 15 -36
21 -41 14 -90 76 -100 126 -10 53 -27 41 -22 -15z"/>
<path d="M1100 3225 c0 -65 -23 -119 -72 -168 -27 -27 -46 -53 -43 -58 4 -5
24 -9 46 -9 33 0 42 5 59 32 29 48 46 217 23 225 -8 3 -13 -5 -13 -22z"/>
<path d="M620 3148 c-31 -12 -242 -16 -292 -4 -32 7 -38 6 -38 -8 0 -31 41
-40 170 -39 129 1 205 17 205 43 0 18 -15 21 -45 8z"/>
<path d="M2480 3109 c0 -15 44 -39 71 -39 22 0 85 37 69 41 -23 5 -140 4 -140
-2z"/>
<path d="M450 3000 c0 -51 0 -51 38 -48 37 3 37 3 37 48 0 45 0 45 -37 48 -38
3 -38 3 -38 -48z"/>
<path d="M2440 3023 c-63 -8 -73 -36 -46 -127 11 -35 12 -55 4 -77 -13 -38 -4
-48 22 -24 24 22 26 73 5 101 -18 24 -19 58 -2 71 6 6 26 15 42 20 30 10 49
45 23 41 -7 0 -29 -3 -48 -5z"/>
<path d="M385 2923 c-74 -5 -99 -24 -90 -69 3 -18 0 -44 -6 -58 -10 -20 -10
-29 -1 -38 7 -7 12 -34 12 -60 0 -56 25 -125 51 -138 10 -6 44 -10 77 -10 50
0 65 5 101 31 23 16 41 35 38 42 -2 7 -38 16 -85 21 -45 5 -82 13 -82 17 0 5
34 9 75 9 93 0 145 19 145 52 0 45 -12 51 -113 52 -87 1 -119 7 -105 21 3 3
52 7 108 9 110 4 122 10 118 56 -6 49 -97 73 -243 63z"/>
<path d="M744 2786 c-11 -29 1 -50 34 -60 53 -15 59 5 12 43 -32 26 -41 29
-46 17z"/>
<path d="M1024 2738 c3 -17 40 -99 81 -182 79 -161 94 -209 95 -296 0 -58 -34
-228 -48 -242 -5 -5 -12 71 -15 169 -7 178 -18 279 -37 329 -6 15 -13 24 -16
21 -3 -3 -5 -123 -5 -266 2 -276 13 -393 52 -516 30 -98 114 -266 134 -269 6
0 13 26 17 59 8 75 49 179 100 256 43 63 46 66 70 47 63 -52 137 -226 142
-334 2 -38 19 -30 49 22 70 122 109 228 131 359 17 103 26 628 10 633 -17 5
-33 -111 -39 -278 -9 -257 -18 -281 -48 -137 -21 98 -22 208 -1 276 8 29 46
116 85 193 64 129 82 188 60 188 -5 0 -34 -15 -64 -32 -31 -18 -95 -55 -143
-83 -49 -27 -108 -65 -131 -82 -50 -38 -87 -42 -117 -12 -28 28 -339 209 -359
209 -5 0 -7 -13 -3 -32z m154 -90 c31 -17 85 -48 119 -70 34 -21 72 -38 83
-38 25 0 25 -13 -1 -117 -21 -83 -21 -83 12 -122 19 -22 39 -39 44 -39 6 0 25
17 44 39 33 39 33 39 16 111 -9 40 -18 82 -20 93 -3 15 5 24 33 37 20 9 83 44
140 77 57 34 107 61 112 61 19 0 9 -24 -49 -119 -32 -53 -67 -121 -77 -151
-22 -69 -22 -214 0 -319 9 -41 14 -77 10 -80 -3 -3 -19 10 -36 29 -17 19 -63
68 -102 109 -71 74 -71 74 -168 -29 -54 -57 -100 -101 -103 -98 -3 2 2 43 11
89 10 52 14 120 12 179 -3 85 -7 103 -39 170 -20 41 -55 104 -77 139 -61 94
-56 100 36 49z"/>
<path d="M1300 2459 c-10 -17 -9 -24 4 -37 20 -20 39 -4 34 29 -4 31 -24 35
-38 8z"/>
<path d="M1540 2465 c-17 -20 -6 -45 20 -45 17 0 21 5 18 27 -4 31 -20 40 -38
18z"/>
<path d="M940 2660 c-25 -10 -57 -21 -72 -24 -45 -10 -32 -26 20 -25 66 0 117
19 117 43 0 27 -13 28 -65 6z"/>
<path d="M2227 2639 c-67 -26 6 -49 123 -39 102 8 80 25 -55 44 -22 3 -53 1
-68 -5z"/>
<path d="M2540 2597 c0 -25 108 -87 153 -87 58 0 177 67 149 84 -6 3 -34 1
-64 -5 -53 -11 -155 -3 -215 16 -17 5 -23 3 -23 -8z"/>
<path d="M66 2592 c-14 -23 95 -82 154 -82 39 0 40 1 40 34 0 33 0 33 -78 39
-43 3 -85 9 -94 12 -9 4 -19 2 -22 -3z"/>
<path d="M840 2579 c-171 -22 -216 -31 -245 -53 -46 -34 -3 -36 210 -11 264
32 257 30 253 58 -4 29 -24 29 -218 6z"/>
<path d="M1816 2583 c-4 -9 -2 -21 3 -26 5 -5 130 -22 276 -38 147 -15 274
-30 281 -33 12 -4 14 -92 14 -510 0 -455 -2 -515 -20 -619 -46 -269 -163 -519
-359 -762 -116 -144 -361 -369 -514 -470 -69 -46 -62 -48 -204 60 -449 337
-723 746 -788 1175 -9 56 -15 169 -15 273 0 177 0 177 -31 177 -31 0 -31 0
-26 -227 4 -200 8 -241 30 -333 46 -190 93 -304 189 -463 88 -146 165 -245
303 -386 165 -170 431 -381 480 -381 29 0 220 137 348 250 354 312 566 656
644 1045 13 66 17 181 20 652 4 572 4 572 -19 577 -13 3 -88 10 -168 16 -80 6
-201 18 -270 26 -158 18 -167 17 -174 -3z"/>
<path d="M514 2525 c-12 -18 -22 -24 -35 -20 -18 6 -19 0 -19 -78 0 -85 0 -85
45 -85 45 0 45 0 45 98 0 54 -4 101 -10 105 -5 3 -17 -6 -26 -20z"/>
<path d="M327 2483 c-4 -3 -7 -18 -7 -33 0 -15 -16 -76 -35 -136 -49 -148 -56
-249 -25 -322 38 -88 116 -142 206 -142 79 0 115 32 149 129 21 60 2 87 -25
37 -32 -62 -145 -66 -202 -8 -43 43 -45 86 -7 217 49 171 49 178 0 225 -44 43
-44 43 -54 33z"/>
<path d="M2545 2420 c-9 -15 52 -98 88 -120 38 -23 90 -31 141 -22 48 9 49 25
1 34 -40 9 -126 50 -170 82 -46 34 -53 37 -60 26z"/>
<path d="M211 2348 c-19 -12 -55 -27 -80 -34 -25 -6 -46 -15 -46 -20 0 -12
116 -23 136 -13 20 10 43 69 32 80 -5 5 -23 -2 -42 -13z"/>
<path d="M473 2313 c-45 -4 -55 -20 -28 -43 10 -9 32 -11 67 -7 57 7 74 18 65
41 -6 16 -15 17 -104 9z"/>
<path d="M472 2229 c-38 -15 -20 -34 35 -37 39 -2 52 1 57 13 3 9 4 21 0 26
-7 11 -62 11 -92 -2z"/>
<path d="M2524 2215 c-4 -9 -4 -46 0 -83 16 -158 109 -263 256 -290 31 -6 62
-12 69 -14 26 -6 22 21 -6 36 -35 18 -196 184 -245 251 -20 28 -40 63 -43 78
-9 34 -23 44 -31 22z"/>
<path d="M440 2145 c-22 -26 3 -40 72 -38 59 1 82 13 75 38 -2 6 -33 11 -69
13 -50 2 -68 -1 -78 -13z"/>
<path d="M140 1944 c-30 -30 -72 -64 -93 -75 -20 -11 -37 -24 -37 -30 0 -22
183 15 227 46 22 15 22 15 -4 65 -14 28 -29 50 -32 50 -4 0 -31 -25 -61 -56z"/>
<path d="M2516 1739 c-21 -93 -20 -144 3 -196 23 -50 101 -137 112 -126 5 5
-3 31 -16 58 -32 66 -67 242 -59 295 5 32 4 40 -9 40 -10 0 -20 -21 -31 -71z"/>
<path d="M329 1788 c-1 -1 -2 -28 -4 -58 -3 -67 -41 -226 -61 -257 -16 -25
-19 -53 -5 -53 13 0 77 74 96 109 8 17 18 50 21 73 6 52 -17 180 -34 186 -7 2
-12 2 -13 0z"/>
<path d="M1427 1694 c-4 -4 -7 -30 -7 -58 0 -59 -25 -235 -39 -285 -18 -59
-56 -107 -106 -130 -45 -21 -52 -41 -16 -41 53 0 104 -80 123 -190 10 -61 10
-83 -4 -151 -19 -92 -57 -164 -99 -188 -35 -20 -36 -29 -5 -40 37 -15 85 -81
105 -146 16 -50 33 -152 44 -253 5 -56 22 -18 37 88 27 188 70 285 136 311 31
11 30 20 -9 44 -19 12 -43 44 -62 80 -29 57 -30 66 -30 185 0 117 2 128 27
177 29 54 60 83 90 83 26 0 22 27 -5 34 -37 9 -85 64 -106 121 -22 59 -41 185
-44 290 -2 63 -12 86 -30 69z"/>
</g>
</svg>
