<?xml version="1.0" standalone="no"?>
<!DOCTYPE svg PUBLIC "-//W3C//DTD SVG 20010904//EN"
 "http://www.w3.org/TR/2001/REC-SVG-20010904/DTD/svg10.dtd">
<svg version="1.0" xmlns="http://www.w3.org/2000/svg"
 width="375.000000pt" height="446.000000pt" viewBox="0 0 375.000000 446.000000"
 preserveAspectRatio="xMidYMid meet">
<metadata>
Created by potrace 1.16, written by Peter Selinger 2001-2019
</metadata>
<g transform="translate(0.000000,446.000000) scale(0.100000,-0.100000)"
fill="#000000" stroke="none">
<path d="M516 4368 c-12 -167 -76 -503 -104 -552 -11 -20 -45 71 -47 124 -3
158 -83 -62 -84 -231 -1 -61 4 -112 14 -139 32 -92 127 -188 267 -269 60 -35
80 -63 60 -83 -11 -11 -227 39 -327 77 -89 33 -212 99 -246 132 -15 13 -29 20
-33 15 -3 -5 6 -40 21 -78 84 -221 250 -334 515 -351 55 -4 92 -11 99 -19 13
-16 10 -17 -71 -34 -30 -6 -102 -14 -160 -17 -144 -8 -248 13 -408 84 -22 9
-13 -15 33 -90 46 -76 122 -158 189 -203 78 -53 188 -68 295 -39 56 14 73 12
70 -8 -1 -7 1 -20 6 -30 6 -15 -5 -32 -52 -80 -33 -34 -93 -110 -132 -169 -72
-106 -113 -149 -180 -182 -18 -10 -29 -21 -25 -26 5 -4 50 -18 99 -31 129 -32
319 -33 388 -2 48 22 48 22 58 -1 14 -30 -10 -85 -52 -120 -43 -36 -37 -45 26
-39 55 6 55 6 55 -23 0 -16 18 -155 40 -309 39 -280 39 -280 -17 -375 -31 -52
-74 -113 -96 -137 -31 -34 -36 -44 -24 -49 9 -3 21 -3 27 1 6 4 49 17 96 30
59 15 87 19 89 11 14 -46 13 -81 -1 -105 -16 -27 -15 -32 35 -149 28 -67 51
-128 51 -136 0 -15 18 -31 26 -23 2 2 6 39 9 81 3 43 9 94 14 114 21 86 21
101 0 121 -31 28 -55 161 -30 161 5 0 40 20 77 45 36 25 68 45 70 45 1 0 31
-55 66 -122 105 -204 200 -334 408 -560 99 -107 99 -107 136 -225 47 -153 94
-337 94 -374 0 -19 5 -29 15 -29 10 0 15 10 15 31 0 17 7 59 16 93 23 89 112
385 121 399 4 7 53 62 110 122 186 199 309 370 402 558 29 59 57 107 63 107 6
0 31 -15 57 -34 73 -53 158 -95 250 -122 47 -13 99 -29 116 -34 42 -14 50 2
17 37 -114 118 -227 365 -283 613 -18 82 -20 113 -14 230 3 74 8 136 10 139 3
2 20 -10 40 -28 49 -42 122 -78 197 -96 35 -8 66 -15 71 -15 16 0 5 22 -25 53
-33 33 -102 156 -93 165 2 3 35 -11 73 -31 48 -26 87 -38 133 -42 115 -12 389
31 389 61 0 7 -13 17 -29 22 -46 16 -114 85 -183 185 -77 114 -120 161 -228
251 -109 91 -216 192 -241 228 -24 33 -17 68 12 68 27 0 159 -52 159 -63 0 -5
-25 -7 -55 -5 -30 3 -55 2 -55 -2 0 -4 26 -32 58 -62 144 -137 359 -186 501
-113 74 37 161 122 221 216 46 72 58 99 45 99 -3 0 -23 -9 -44 -20 -65 -33
-181 -60 -282 -67 -77 -5 -129 -1 -270 22 -279 43 -283 45 -287 80 -2 17 -17
44 -35 63 -31 32 -31 32 61 34 161 4 172 3 172 -7 0 -5 -31 -19 -70 -29 -41
-11 -70 -24 -70 -32 0 -21 151 -64 224 -64 94 0 229 26 299 59 126 57 209 147
267 290 30 73 32 95 6 76 -153 -116 -339 -183 -647 -234 -142 -24 -149 -24
-149 -13 0 5 25 16 56 26 218 69 404 196 463 318 33 69 45 166 32 252 -13 85
-52 208 -66 207 -5 0 -13 -25 -16 -56 -17 -148 -178 -349 -405 -508 -85 -59
-111 -83 -101 -94 4 -3 19 -1 34 5 53 20 83 23 83 9 0 -19 -35 -50 -104 -91
-68 -41 -103 -48 -86 -17 16 31 13 34 -30 27 -22 -3 -40 -2 -40 3 0 5 22 23
48 40 74 47 187 150 232 211 56 75 103 158 95 169 -3 6 -26 -3 -53 -19 -26
-16 -96 -48 -157 -71 -123 -46 -311 -135 -427 -204 -78 -45 -78 -45 -78 -88 0
-51 9 -63 77 -106 72 -45 97 -88 90 -153 -7 -55 -29 -98 -51 -98 -8 0 -43 13
-78 28 -50 23 -66 36 -78 63 -11 25 -21 34 -40 35 -35 1 -60 14 -60 31 0 7
-11 25 -25 39 -14 14 -25 32 -25 41 0 9 -6 24 -14 32 -22 24 -56 159 -56 222
0 74 40 152 100 194 36 26 50 30 106 29 63 -1 63 -1 81 35 40 84 -3 196 -125
323 -44 46 -87 98 -96 116 -9 17 -21 32 -26 32 -21 0 -8 -44 36 -128 49 -94
63 -156 45 -191 -9 -17 -21 -21 -58 -21 -70 0 -129 -33 -161 -90 -26 -47 -26
-47 -74 -26 -26 12 -48 25 -48 29 -1 30 -34 117 -44 117 -7 0 -18 -23 -25 -52
-16 -71 -31 -88 -80 -93 -39 -4 -43 -2 -57 28 -23 49 -73 78 -143 84 -35 3
-66 12 -73 20 -24 30 -11 91 43 193 35 68 49 104 44 117 -7 17 -8 17 -18 -1
-7 -11 -46 -57 -88 -102 -155 -167 -192 -257 -150 -366 9 -25 13 -26 63 -22
42 4 62 1 98 -18 58 -30 120 -118 127 -180 7 -59 -23 -194 -53 -240 -13 -21
-24 -43 -24 -50 0 -11 -13 -30 -60 -85 -6 -7 -22 -13 -35 -13 -29 0 -55 -24
-55 -51 0 -11 -10 -23 -23 -28 -12 -5 -44 -19 -70 -31 -26 -12 -53 -20 -61
-17 -23 9 -46 63 -48 112 -3 55 17 83 97 140 51 35 61 48 69 83 6 29 5 46 -3
56 -29 35 -337 195 -531 275 -87 36 -95 41 -92 64 2 14 -2 28 -7 32 -19 11
-12 25 14 25 17 0 29 -8 37 -25 19 -42 33 -23 36 49 4 82 -8 121 -85 291 -33
72 -84 192 -114 268 -68 173 -83 180 -93 45z m54 -40 c0 -6 44 -115 99 -242
54 -127 101 -243 105 -258 6 -26 4 -28 -22 -28 -34 0 -82 -42 -82 -71 0 -21
-20 -25 -37 -8 -8 8 -11 6 -10 -6 3 -25 -20 -30 -27 -7 -7 21 -82 62 -115 62
-33 0 -36 24 -13 108 25 91 72 359 72 407 0 18 3 40 6 49 6 17 24 12 24 -6z
m863 -452 c-5 -50 -4 -55 21 -71 20 -13 37 -16 73 -10 37 5 45 4 36 -5 -6 -7
-37 -13 -68 -14 -48 -1 -60 2 -76 23 -10 13 -19 32 -19 42 0 21 26 89 34 89 2
0 2 -24 -1 -54z m917 -1 c10 -44 -1 -79 -29 -95 -24 -12 -131 -2 -131 12 0 6
15 7 36 3 47 -8 92 10 100 41 4 13 3 41 -1 62 -9 50 13 30 25 -23z m-689 -114
c28 -28 38 -51 22 -51 -10 0 -73 64 -73 74 0 15 24 4 51 -23z m448 -20 c-34
-41 -49 -50 -49 -30 0 15 69 83 76 76 4 -3 -9 -24 -27 -46z m-748 8 c22 -22
20 -35 -4 -26 -13 5 -31 47 -21 47 2 0 13 -9 25 -21z m1049 -14 c-14 -17 -50
-20 -50 -5 0 6 6 10 14 10 7 0 20 7 27 16 9 11 15 12 17 5 2 -7 -2 -18 -8 -26z
m-895 -23 c-3 -3 -11 0 -18 7 -9 10 -8 11 6 5 10 -3 15 -9 12 -12z m-1033 -27
c-12 -22 -27 -2 -18 22 5 12 10 13 17 6 7 -7 8 -17 1 -28z m1716 14 c-21 -10
-45 -31 -54 -44 -16 -25 -34 -33 -34 -16 0 5 15 26 34 45 24 26 42 36 62 36
29 -1 29 -1 -8 -21z m-584 -14 c14 -13 26 -32 26 -42 -1 -17 -2 -16 -18 2 -9
11 -33 30 -52 42 -34 22 -34 23 -9 23 14 0 38 -11 53 -25z m-918 -16 c3 -6 1
-16 -5 -22 -6 -6 -11 -25 -11 -43 0 -27 -4 -32 -32 -38 -17 -3 -32 -5 -33 -4
-1 2 -11 22 -23 46 -24 47 -25 45 43 61 55 12 53 12 61 0z m1209 -23 c-16 -24
-16 -28 -1 -51 20 -30 20 -35 2 -35 -8 0 -17 -8 -20 -17 -6 -15 -9 -15 -28 5
-18 17 -19 23 -9 36 8 9 17 13 22 10 15 -9 10 23 -6 36 -16 13 -21 40 -7 40 4
0 13 -5 18 -10 8 -8 15 -6 24 5 20 24 24 10 5 -19z m-155 -12 c0 -19 5 -24 25
-24 14 0 25 -4 25 -10 0 -5 -25 -10 -55 -10 -34 0 -55 4 -55 11 0 7 10 9 25 5
27 -7 32 3 14 21 -14 14 -4 47 11 38 5 -3 10 -17 10 -31z m254 -63 c-1 -1 -12
3 -23 11 -12 8 -18 18 -14 21 6 7 43 -25 37 -32z m41 29 c3 -5 -3 -10 -15 -10
-12 0 -18 5 -15 10 3 6 10 10 15 10 5 0 12 -4 15 -10z m-1335 -57 c0 -5 -18
-9 -41 -10 -24 -2 -38 1 -34 7 7 12 75 14 75 3z m314 -54 c66 -34 161 -84 209
-112 83 -47 88 -52 85 -81 -2 -25 -12 -36 -48 -55 -64 -36 -128 -103 -157
-168 -24 -51 -25 -59 -12 -82 21 -37 71 -68 124 -75 50 -8 58 -22 19 -36 -63
-24 -163 2 -198 52 -22 30 -11 36 13 7 26 -31 28 -6 2 29 -43 63 -34 116 39
224 49 72 49 72 32 101 -9 16 -65 75 -124 130 -97 91 -129 127 -111 127 3 0
60 -28 127 -61z m936 29 c0 -18 -2 -20 -9 -8 -6 8 -7 18 -5 22 9 14 14 9 14
-14z m103 -9 c-10 -17 -45 -53 -77 -81 -49 -41 -61 -47 -68 -34 -10 17 25 96
42 96 15 0 12 -21 -7 -42 -9 -10 -14 -20 -12 -23 3 -2 34 22 70 55 35 32 65
59 67 60 2 0 -5 -14 -15 -31z m710 -57 c-161 -152 -177 -184 -124 -251 48 -61
73 -122 79 -188 4 -60 3 -64 -26 -91 -32 -30 -91 -52 -138 -52 -76 0 -103 34
-36 46 80 15 132 53 132 99 0 63 -112 203 -187 234 -56 23 -56 75 0 104 17 9
104 55 192 101 88 47 169 85 180 85 14 0 -6 -24 -72 -87z m-993 43 c0 -26 54
-95 71 -91 20 4 49 -11 49 -26 0 -6 -8 -17 -17 -24 -16 -11 -25 -6 -68 34 -28
26 -64 57 -80 68 -17 12 -27 25 -22 30 4 4 18 -3 32 -16 24 -23 50 -21 27 2
-15 15 -16 52 -2 43 6 -3 10 -13 10 -20z m-1087 -95 c5 -58 22 -197 38 -310
33 -233 34 -240 17 -240 -39 1 -46 24 -73 240 -14 118 -33 254 -42 302 -18
102 -14 121 24 116 28 -3 28 -3 36 -108z m86 62 c92 -95 83 -95 -31 1 -26 21
-37 47 -22 47 4 0 27 -21 53 -48z m1035 32 c9 -24 7 -28 -9 -14 -17 14 -20 30
-6 30 5 0 12 -7 15 -16z m-97 -65 c56 -24 84 -48 125 -108 31 -44 31 -44 94
27 57 62 117 102 154 102 24 0 6 -21 -40 -46 -27 -15 -52 -35 -55 -46 -4 -10
-27 -35 -52 -56 -43 -36 -45 -39 -40 -82 4 -33 1 -47 -11 -56 -30 -22 -41 -6
-35 47 6 47 4 50 -33 84 -21 19 -47 35 -58 35 -25 0 -56 28 -56 51 0 10 -11
26 -25 35 -14 9 -25 20 -25 25 0 12 2 12 57 -12z m133 11 c0 -5 -2 -10 -4 -10
-3 0 -8 5 -11 10 -3 6 -1 10 4 10 6 0 11 -4 11 -10z m187 -87 c-9 -9 -19 -14
-22 -11 -3 3 2 13 11 22 9 9 19 14 22 11 3 -3 -2 -13 -11 -22z m-1052 -52 c40
-26 40 -26 -3 -29 -39 -3 -42 -5 -36 -28 7 -28 5 -29 -41 -10 -36 16 -125 92
-125 109 0 9 24 6 79 -9 21 -6 23 -4 16 16 -7 23 -7 23 31 0 22 -13 57 -35 79
-49z m1066 -40 c-6 -10 -17 -24 -26 -31 -9 -8 -25 -30 -35 -51 -21 -39 -85
-99 -108 -99 -18 0 -92 58 -92 72 0 6 -18 30 -40 54 -22 24 -40 50 -40 59 0
19 4 19 40 0 16 -8 39 -14 52 -12 21 2 23 -2 23 -47 1 -38 6 -52 24 -67 30
-25 37 -24 67 6 22 22 24 31 18 70 -6 45 1 56 23 34 8 -8 21 -4 49 15 40 27
60 26 45 -3z m-1201 -74 c0 -11 -80 2 -97 15 -7 6 -11 14 -8 18 6 10 105 -21
105 -33z m1250 7 c0 -8 -4 -12 -10 -9 -5 3 -10 13 -10 21 0 8 5 12 10 9 6 -3
10 -13 10 -21z m-445 -97 c-16 -60 -67 -171 -85 -182 -13 -8 -3 19 25 70 13
22 30 65 40 95 9 30 19 61 21 69 2 8 7 12 9 9 3 -2 -2 -30 -10 -61z m-696 38
c2 -2 -13 -18 -33 -35 -28 -25 -35 -37 -30 -56 5 -19 1 -26 -21 -34 -14 -5
-44 -10 -66 -10 -33 0 -40 3 -37 18 2 9 18 24 35 32 41 19 42 36 3 45 -35 8
-63 32 -54 47 6 9 192 2 203 -7z m1160 -55 c7 -25 26 -69 42 -99 32 -60 37
-80 15 -62 -18 15 -71 142 -80 191 -9 47 8 26 23 -30z m-277 -17 c37 -36 37
-36 75 1 41 39 53 35 30 -11 -21 -40 -61 -75 -79 -68 -18 7 -78 88 -78 104 0
19 13 12 52 -26z m-378 -68 c14 -30 45 -82 70 -114 26 -33 46 -62 46 -64 0 -7
-58 -20 -100 -22 -29 -1 -45 7 -98 53 -34 30 -67 63 -73 74 -13 24 -1 40 11
17 10 -18 143 -129 154 -129 4 0 0 13 -9 30 -19 37 -19 40 5 40 11 0 25 -9 32
-20 7 -11 17 -20 21 -20 5 0 -2 14 -15 32 -43 61 -92 178 -74 178 3 0 16 -25
30 -55z m827 -15 c-29 -57 -30 -63 -15 -75 14 -9 16 -21 10 -55 -7 -42 -7 -42
31 -12 21 17 56 49 78 71 42 44 55 50 55 26 0 -16 -57 -74 -113 -116 -30 -22
-46 -27 -75 -23 -93 13 -97 18 -59 64 13 15 43 64 66 109 24 46 45 80 48 77 3
-2 -9 -32 -26 -66z m-1373 -41 c2 -9 -8 -29 -21 -45 -23 -26 -25 -27 -48 -11
-13 9 -31 17 -41 17 -32 0 -19 20 25 40 48 23 80 22 85 -1z m1077 -99 c84 -42
156 -70 240 -92 107 -27 139 -31 293 -34 172 -4 172 -4 175 -281 2 -153 0
-342 -5 -421 -31 -521 -222 -948 -598 -1336 -101 -104 -117 -125 -132 -175
-38 -129 -84 -271 -90 -276 -6 -6 -70 188 -97 292 -8 30 -28 57 -73 100 -100
95 -245 270 -330 398 -188 283 -283 566 -318 949 -7 67 -10 255 -8 431 3 312
3 312 173 318 237 7 408 51 570 145 39 23 72 41 75 41 3 1 59 -26 125 -59z
m-1141 5 c28 -26 32 -41 16 -65 -7 -12 -14 -12 -27 -4 -26 16 -47 58 -40 77 9
23 19 21 51 -8z m-111 -11 c43 -10 34 -34 -13 -34 -22 0 -56 -7 -76 -15 -30
-12 -36 -12 -40 0 -3 8 -3 19 1 25 9 15 67 39 85 35 8 -2 27 -7 43 -11z m197
-8 c11 -21 10 -28 -7 -53 -11 -15 -32 -54 -46 -85 -14 -32 -31 -58 -38 -58 -7
0 -20 -6 -28 -13 -21 -18 -126 -40 -151 -32 -12 4 -19 12 -17 18 3 11 102 35
150 36 23 1 27 5 27 29 0 17 15 45 40 76 40 49 48 70 30 81 -16 10 -11 25 8
25 10 0 24 -11 32 -24z m1910 -4 c0 -4 30 -41 68 -82 37 -41 59 -71 50 -67
-10 4 -25 10 -33 13 -25 10 -17 -9 38 -89 77 -112 140 -182 221 -242 65 -49
227 -135 255 -135 6 0 11 -5 11 -11 0 -20 -176 -5 -243 21 -75 28 -150 89
-191 153 -18 29 -76 136 -128 238 -70 137 -93 190 -85 198 13 13 37 15 37 3z
m-2052 -54 c24 -24 13 -38 -32 -38 -24 0 -62 -7 -86 -15 -31 -11 -47 -12 -62
-4 -32 17 -3 37 78 53 89 18 88 18 102 4z m180 -93 c-5 -44 -41 -110 -64 -119
-8 -3 -11 11 -9 45 2 35 10 59 29 84 37 48 50 45 44 -10z m-173 10 c0 -14 -6
-19 -20 -18 -11 1 -44 -5 -74 -13 -56 -16 -86 -13 -79 8 5 13 129 47 158 44 8
-1 15 -10 15 -21z m2004 -46 c30 -74 28 -89 -9 -54 -23 22 -30 38 -30 67 0 52
13 48 39 -13z m-1994 -126 c7 -60 3 -69 -34 -75 -22 -3 -26 3 -38 47 -17 68
-17 70 15 81 41 16 49 8 57 -53z m-95 -47 c0 -13 -7 -29 -15 -36 -20 -16 -19
-29 3 -53 16 -19 16 -20 -23 -54 -59 -52 -120 -84 -194 -105 -66 -18 -201 -25
-201 -10 0 5 24 16 53 25 85 27 176 86 267 174 47 45 91 83 98 83 6 0 12 -11
12 -24z m115 -55 c-15 -13 -105 -24 -105 -12 0 5 19 12 43 14 23 2 49 4 57 5
8 1 10 -1 5 -7z m-11 -68 c3 -16 12 -95 21 -178 25 -236 34 -309 85 -665 48
-332 50 -367 15 -354 -14 6 -18 34 -91 569 -50 371 -56 416 -78 550 -8 50 -12
93 -9 98 2 4 15 7 28 7 18 0 25 -7 29 -27z m181 -393 c0 -109 -5 -152 -23
-220 -38 -140 -40 -138 -67 80 -9 74 -18 154 -21 176 -6 40 -4 43 38 72 71 50
73 46 73 -108z m-46 -927 c10 -17 10 -17 11 0 0 14 7 18 28 15 18 -2 26 -8 23
-18 -1 -8 -8 -45 -13 -82 -6 -38 -14 -68 -18 -68 -5 0 -14 17 -21 38 -6 20
-20 54 -31 75 -18 36 -17 57 2 57 5 0 14 -8 19 -17z"/>
<path d="M556 4179 c-3 -13 -7 -76 -10 -140 -3 -64 -10 -138 -17 -164 -12 -46
-12 -46 22 -75 19 -16 37 -29 42 -30 14 0 7 45 -13 78 -16 25 -18 37 -10 52 6
12 9 73 7 155 -3 130 -11 173 -21 124z"/>
<path d="M590 4160 c0 -29 41 -232 51 -253 10 -22 10 -32 -1 -51 -14 -28 -6
-76 13 -76 6 0 22 17 33 38 21 36 21 38 4 72 -10 19 -32 85 -50 145 -17 61
-35 114 -41 120 -5 5 -9 7 -9 5z"/>
<path d="M1124 3352 c11 -12 21 -20 24 -17 3 3 11 0 19 -7 16 -13 31 -2 17 12
-6 6 -20 12 -32 15 -12 2 -28 7 -35 11 -6 4 -3 -2 7 -14z"/>
<path d="M1240 3313 c-8 -3 -20 -12 -27 -21 -10 -12 -15 -13 -28 -2 -12 10
-16 9 -21 -5 -12 -31 11 -38 54 -16 23 12 49 21 57 21 20 0 14 24 -6 27 -8 1
-21 -1 -29 -4z"/>
<path d="M2647 3399 c-9 -6 -17 -18 -17 -27 0 -14 4 -13 22 6 24 24 22 36 -5
21z"/>
<path d="M2568 3333 c-21 -5 -23 -26 -4 -42 7 -6 11 -22 8 -36 -2 -14 0 -25 6
-25 5 0 12 17 14 38 3 20 8 45 12 55 8 17 0 20 -36 10z"/>
<path d="M2475 3311 c-6 -11 26 -31 49 -31 25 0 19 20 -10 30 -31 12 -31 12
-39 1z"/>
<path d="M2694 2975 c-10 -22 -20 -43 -22 -47 -2 -5 0 -8 6 -8 13 0 46 65 40
81 -3 9 -12 -1 -24 -26z"/>
<path d="M1738 3368 c12 -12 24 -19 27 -16 3 3 -1 13 -10 22 -9 9 -22 16 -28
16 -6 0 -2 -10 11 -22z"/>
<path d="M1765 2750 c-164 -83 -282 -112 -475 -118 -155 -4 -155 -4 -158 -291
-4 -314 8 -469 54 -679 76 -356 233 -634 541 -963 88 -94 102 -114 116 -166
10 -33 17 -71 17 -86 0 -28 18 -47 24 -25 2 7 11 49 21 92 17 79 17 79 127
195 261 275 443 578 513 854 67 267 87 518 70 900 -7 167 -7 167 -124 167 -64
0 -145 5 -180 10 -98 16 -247 67 -346 118 -90 47 -90 47 -200 -8z m155 -80
c64 -92 112 -150 131 -161 27 -14 24 -26 -13 -44 -42 -20 -60 -34 -81 -64 -15
-22 -17 -23 -23 -6 -9 22 23 83 47 90 22 7 24 18 6 33 -7 6 -31 46 -53 89 -41
81 -61 79 -25 -3 25 -57 26 -52 -1 -57 -21 -3 -20 -5 10 -16 36 -15 41 -31 13
-48 -40 -25 -54 -148 -24 -201 16 -28 16 -30 -6 -66 -23 -36 -23 -36 -48 1
-24 35 -24 38 -9 64 33 56 14 196 -29 212 -23 9 -18 24 10 31 28 7 34 26 9 26
-9 0 -14 3 -12 8 45 87 47 137 2 53 -16 -29 -39 -65 -50 -79 -21 -26 -21 -26
12 -58 22 -20 34 -41 34 -58 0 -33 -6 -33 -36 3 -13 16 -42 36 -64 45 -22 9
-40 18 -40 21 0 3 16 19 35 36 19 17 62 68 97 115 34 46 65 84 68 84 3 0 21
-23 40 -50z m-620 -168 c0 -15 5 -33 12 -40 15 -15 6 -24 -15 -16 -20 7 -30
38 -22 64 9 29 25 24 25 -8z m1180 -12 c0 -19 -7 -33 -21 -40 -28 -15 -36 -5
-16 18 10 10 17 29 17 41 0 12 4 19 10 16 6 -3 10 -19 10 -35z m-930 -114 c0
-2 -9 -39 -20 -82 -10 -43 -17 -80 -15 -82 7 -7 135 27 181 48 33 14 44 25 49
49 4 17 13 31 21 31 25 0 27 -28 5 -65 -26 -45 -26 -45 1 -42 18 2 29 -11 58
-60 19 -34 40 -63 46 -63 6 0 18 14 25 32 7 18 30 49 51 70 37 37 38 40 23 61
-20 29 -19 54 4 66 22 12 31 5 31 -24 0 -33 31 -54 117 -81 96 -29 128 -31
118 -6 -16 37 -36 125 -33 140 3 12 13 4 35 -28 84 -119 120 -162 155 -185 21
-14 38 -30 38 -35 0 -7 -41 -8 -114 -4 -112 7 -115 6 -161 -20 -26 -15 -50
-25 -53 -21 -4 3 3 25 16 47 12 23 20 43 18 45 -2 2 -35 7 -74 10 -69 6 -72 5
-100 -24 -29 -28 -52 -85 -52 -128 0 -11 16 -44 35 -73 32 -47 34 -52 16 -52
-11 0 -25 9 -31 20 -6 11 -15 20 -21 20 -15 0 0 -137 21 -185 17 -41 73 -105
92 -105 6 0 33 14 60 30 27 17 53 31 59 33 7 1 11 -33 12 -96 2 -114 0 -116
-83 -62 -64 41 -69 42 -104 14 -53 -41 -73 -115 -55 -200 15 -69 48 -127 104
-178 25 -23 45 -44 45 -46 0 -11 -57 -4 -76 9 -10 8 -41 57 -68 109 -49 95
-49 95 -96 4 -49 -95 -82 -127 -130 -127 -23 0 -21 4 26 48 101 93 139 228 92
321 -13 25 -35 54 -50 65 -27 19 -27 19 -99 -18 -39 -21 -73 -35 -76 -32 -10
10 -8 186 2 186 6 0 38 -14 72 -32 62 -33 62 -33 103 12 45 49 64 104 75 210
6 65 6 65 -24 33 -16 -18 -37 -33 -46 -33 -11 0 -6 13 20 51 52 76 46 138 -20
199 -23 21 -36 25 -93 25 -51 0 -66 3 -64 13 2 11 -7 12 -40 7 -63 -11 -69
-19 -19 -25 40 -5 47 -9 68 -49 12 -24 20 -47 17 -52 -2 -4 -26 6 -52 22 -47
31 -47 31 -164 25 -122 -7 -144 0 -90 28 37 19 90 79 148 166 39 58 64 84 64
66z m340 -1098 c0 -7 12 -29 26 -50 26 -38 27 -39 10 -81 -24 -63 -21 -120 8
-154 25 -29 25 -29 -9 -114 -19 -46 -35 -89 -35 -96 0 -6 -4 -14 -9 -17 -5 -3
-21 29 -36 72 -15 42 -34 88 -42 101 -14 21 -13 25 11 50 30 32 35 93 12 157
-13 37 -12 42 16 92 29 49 48 66 48 40z"/>
<path d="M2165 2180 c3 -5 23 -10 43 -9 30 0 33 2 17 9 -28 12 -67 12 -60 0z"/>
<path d="M1867 1764 c-4 -4 -7 -16 -7 -27 0 -11 -18 -37 -40 -58 -22 -21 -40
-42 -40 -47 0 -5 11 -14 25 -20 13 -6 33 -29 45 -52 11 -22 24 -40 28 -40 5 0
16 18 26 40 10 23 30 47 47 55 29 15 29 15 -11 55 -22 22 -40 46 -40 53 0 19
-24 49 -33 41z m37 -100 c18 -25 18 -26 -5 -50 -23 -25 -23 -25 -41 -2 -22 29
-22 37 -1 60 21 23 24 23 47 -8z"/>
<path d="M1630 1609 c0 -24 23 -21 28 4 2 10 -3 17 -12 17 -10 0 -16 -9 -16
-21z"/>
<path d="M2082 1608 c3 -7 13 -15 22 -16 12 -3 17 1 14 10 -3 7 -13 15 -22 16
-12 3 -17 -1 -14 -10z"/>
<path d="M1852 978 c-15 -15 -16 -38 -2 -38 12 0 23 25 18 40 -2 7 -7 7 -16
-2z"/>
<path d="M1890 963 c0 -25 15 -38 25 -22 4 6 0 18 -9 27 -15 15 -16 15 -16 -5z"/>
<path d="M1080 2677 c0 -19 26 -40 40 -32 13 8 5 22 -21 35 -15 8 -19 7 -19
-3z"/>
<path d="M2644 2669 c-3 -6 -1 -16 5 -22 9 -9 14 -8 21 3 5 8 10 18 10 23 0
11 -28 8 -36 -4z"/>
<path d="M1132 1656 c1 -10 8 -17 13 -17 15 1 12 24 -3 29 -9 3 -13 -2 -10
-12z"/>
<path d="M2597 1663 c-13 -12 -7 -33 8 -33 8 0 15 9 15 20 0 20 -11 26 -23 13z"/>
<path d="M1867 4414 c-4 -4 -7 -23 -7 -43 -1 -49 -47 -131 -89 -155 -19 -11
-50 -22 -70 -25 -47 -8 -48 -34 -1 -42 82 -13 145 -76 156 -155 3 -21 8 -45
10 -53 7 -23 26 2 30 40 10 81 77 154 155 167 58 10 59 34 1 44 -82 14 -139
79 -151 170 -6 48 -18 67 -34 52z"/>
<path d="M3246 3801 c-4 -7 -5 -15 -2 -18 9 -9 19 4 14 18 -4 11 -6 11 -12 0z"/>
</g>
</svg>
