<?xml version="1.0" encoding="UTF-8"?>
<!-- Generator: visioncortex VTracer 0.6.4 -->
<svg version="1.1" xmlns="http://www.w3.org/2000/svg" width="252" height="427">
<path d="M0 0 C5.63613861 3.18564356 5.63613861 3.18564356 7.3125 6.9375 C8 10 8 10 8.15234375 12.51953125 C8.78949077 15.28649668 8.78949077 15.28649668 11.765625 16.546875 C12.91546875 16.94390625 14.0653125 17.3409375 15.25 17.75 C16.38953125 18.15734375 17.5290625 18.5646875 18.703125 18.984375 C21.47123583 19.83711056 24.14969003 20.50708925 27 21 C27.99 24.465 27.99 24.465 29 28 C29.66 28 30.32 28 31 28 C39.31767268 43.20673745 39.31767268 43.20673745 37.125 51.0625 C36.568125 52.5165625 36.568125 52.5165625 36 54 C36.66 54.33 37.32 54.66 38 55 C37.9278125 55.59167969 37.855625 56.18335938 37.78125 56.79296875 C37.37909545 60.21686789 37 63.54893308 37 67 C37 67.66 37 68.32 37 69 C36.67 69.33 36.34 69.66 36 70 C36.66 70.66 37.32 71.32 38 72 C37.34 72 36.68 72 36 72 C36.65923933 80.96912459 37.6083041 89.80703743 40.4375 98.375 C40.623125 99.57125 40.80875 100.7675 41 102 C38.875 104.75 38.875 104.75 36 107 C32.76743758 110.01284462 32.76743758 110.01284462 31 114 C30.34 114 29.68 114 29 114 C29 114.99 29 115.98 29 117 C28.34 117 27.68 117 27 117 C26.67 115.35 26.34 113.7 26 112 C25.61328125 112.47050781 25.2265625 112.94101563 24.828125 113.42578125 C22.10469664 116.6817612 19.58718126 119.65453533 16 122 C20.81510244 126.10175393 25.72431454 126.13854684 31.875 126.5625 C33.63457031 126.68818359 33.63457031 126.68818359 35.4296875 126.81640625 C37.91127636 126.94401531 40.39804668 126.98734163 42.8828125 126.96484375 C46 127 46 127 47 128 C48.40191092 128.2265771 49.8134619 128.39430846 51.2265625 128.53515625 C52.09410156 128.62216797 52.96164063 128.70917969 53.85546875 128.79882812 C55.22638672 128.9293457 55.22638672 128.9293457 56.625 129.0625 C57.51574219 129.15337891 58.40648437 129.24425781 59.32421875 129.33789062 C63.18748483 129.71625174 66.95024236 130.00005067 70.8359375 129.99609375 C74 130 74 130 76.3203125 130.48046875 C80.48875974 131.28863709 84.63844372 131.26597852 88.875 131.3125 C89.74769531 131.34150391 90.62039062 131.37050781 91.51953125 131.40039062 C97.61467076 131.45996718 100.92785518 130.35715069 106 127 C106.66 127 107.32 127 108 127 C108.185625 125.14375 108.185625 125.14375 108.375 123.25 C108.61389636 120.86103635 108.90737473 119.18235601 110 117.03125 C111.14586564 114.70371043 111.39780506 112.82487604 111.625 110.25 C111.810625 108.14625 111.810625 108.14625 112 106 C105.07 105.505 105.07 105.505 98 105 C98 105.33 98 105.66 98 106 C94.65277635 106.58576414 92.65184199 106.44507491 89.8203125 104.51171875 C87.76503945 102.74535419 85.80381763 101.02357206 84 99 C84 98.34 84 97.68 84 97 C83.01 96.67 82.02 96.34 81 96 C79.09993861 92.47131456 77.88317301 90.09817372 78.3125 86.0625 C78.6528125 85.0415625 78.6528125 85.0415625 79 84 C83.3328357 84.55907557 86.90677359 86.21948426 90.81640625 88.0625 C92.87062806 88.9444557 94.81997295 89.52543629 97 90 C97 90.66 97 91.32 97 92 C99.97 91.505 99.97 91.505 103 91 C103 91.66 103 92.32 103 93 C105.64 92.67 108.28 92.34 111 92 C111 92.66 111 93.32 111 94 C115.62 94.66 120.24 95.32 125 96 C126.75017624 141.15454693 126.75017624 141.15454693 124 152 C123.84810346 154.08154515 123.72680583 156.16540451 123.625 158.25 C123.13860686 165.59909634 121.86537188 172.66686414 120.42041016 179.86767578 C119.67392077 183.6538769 118.99131302 187.45117935 118.3125 191.25 C118.11551514 192.32278198 118.11551514 192.32278198 117.91455078 193.41723633 C117.32899222 196.69439929 117 199.65499774 117 203 C116.34 203 115.68 203 115 203 C115.07154297 204.69382813 115.07154297 204.69382813 115.14453125 206.421875 C115.14131999 211.29014391 114.02004217 215.59485978 112.6875 220.25 C112.22331617 221.93471903 111.75977306 223.61961473 111.296875 225.3046875 C111.07193359 226.11260742 110.84699219 226.92052734 110.61523438 227.75292969 C109.83198462 230.61365619 109.12965545 233.49101895 108.4375 236.375 C106.1253463 245.63653186 103.41386407 254.45140648 99.3046875 263.078125 C96.84700359 268.58215964 94.95496633 274.30148112 93 280 C92.34 280 91.68 280 91 280 C90.896875 280.886875 90.79375 281.77375 90.6875 282.6875 C89.96728558 286.15762402 88.85950087 288.01778162 87 291 C85.92819934 292.93237053 84.8657009 294.86992945 83.8125 296.8125 C83.28269531 297.78832031 82.75289062 298.76414062 82.20703125 299.76953125 C81.80871094 300.50558594 81.41039062 301.24164063 81 302 C80.34 302 79.68 302 79 302 C78.71125 302.9075 78.4225 303.815 78.125 304.75 C77.23468224 307.32202908 76.28505587 309.61346766 75 312 C74.34 312 73.68 312 73 312 C73 312.66 73 313.32 73 314 C72.34 314 71.68 314 71 314 C70.814375 314.66 70.62875 315.32 70.4375 316 C68.68463312 319.65815697 66.31503406 322.18726091 63.55859375 325.1328125 C61.79044854 327.02004569 61.79044854 327.02004569 61 330 C60.34 330 59.68 330 59 330 C59 330.66 59 331.32 59 332 C58.34 332 57.68 332 57 332 C57 332.66 57 333.32 57 334 C56.34 334 55.68 334 55 334 C54.34 335.32 53.68 336.64 53 338 C52.34 338 51.68 338 51 338 C50.67 339.32 50.34 340.64 50 342 C49.01 342 48.02 342 47 342 C46.6596875 342.8353125 46.6596875 342.8353125 46.3125 343.6875 C44.63281165 346.6469509 42.45866715 348.66126784 40 351 C39.443125 351.598125 38.88625 352.19625 38.3125 352.8125 C37 354 37 354 35 354 C34.62875 354.86625 34.62875 354.86625 34.25 355.75 C32.81700012 358.32939979 31.21575324 360.06121592 29 362 C28.34 362 27.68 362 27 362 C27 362.66 27 363.32 27 364 C25.35 364.66 23.7 365.32 22 366 C22 366.66 22 367.32 22 368 C21.195625 368.268125 20.39125 368.53625 19.5625 368.8125 C18.716875 369.204375 17.87125 369.59625 17 370 C16.67 370.99 16.34 371.98 16 373 C14.6875 374.6875 14.6875 374.6875 13 376 C11.68 376 10.36 376 9 376 C9 376.66 9 377.32 9 378 C8.01 378 7.02 378 6 378 C6 378.66 6 379.32 6 380 C5.01 380 4.02 380 3 380 C3 380.66 3 381.32 3 382 C1.35 382 -0.3 382 -2 382 C-2 381.34 -2 380.68 -2 380 C-4.64 379.34 -7.28 378.68 -10 378 C-10 377.34 -10 376.68 -10 376 C-10.61875 375.938125 -11.2375 375.87625 -11.875 375.8125 C-12.57625 375.544375 -13.2775 375.27625 -14 375 C-14.309375 374.195625 -14.61875 373.39125 -14.9375 372.5625 C-15.77381806 369.75492583 -15.77381806 369.75492583 -18.625 368.6875 C-19.800625 368.3471875 -19.800625 368.3471875 -21 368 C-21 367.34 -21 366.68 -21 366 C-21.66 366 -22.32 366 -23 366 C-23 365.34 -23 364.68 -23 364 C-23.66 364 -24.32 364 -25 364 C-25 363.34 -25 362.68 -25 362 C-25.8971875 361.566875 -25.8971875 361.566875 -26.8125 361.125 C-29 360 -29 360 -32 358 C-32 357.34 -32 356.68 -32 356 C-33.65 355.34 -35.3 354.68 -37 354 C-37 353.34 -37 352.68 -37 352 C-37.70125 351.814375 -38.4025 351.62875 -39.125 351.4375 C-43.04135028 349.47932486 -45.5338864 346.59323769 -48 343 C-48 342.34 -48 341.68 -48 341 C-48.639375 340.731875 -49.27875 340.46375 -49.9375 340.1875 C-52 339 -52 339 -53 336 C-53.99 335.67 -54.98 335.34 -56 335 C-57.38671875 333.44140625 -57.38671875 333.44140625 -58.6875 331.5625 C-59.12449219 330.94503906 -59.56148438 330.32757813 -60.01171875 329.69140625 C-61 328 -61 328 -61 326 C-61.66 326 -62.32 326 -63 326 C-63 325.34 -63 324.68 -63 324 C-63.66 324 -64.32 324 -65 324 C-65.495 322.515 -65.495 322.515 -66 321 C-66.99 320.34 -67.98 319.68 -69 319 C-70.01866229 317.34467377 -71.01810813 315.67739862 -72 314 C-72.7734375 313.2575 -72.7734375 313.2575 -73.5625 312.5 C-75 311 -75 311 -75.91015625 308.70703125 C-77.0065315 305.9837766 -78.32351534 303.6755026 -79.875 301.1875 C-87 289.50459559 -87 289.50459559 -87 286 C-87.66 285.67 -88.32 285.34 -89 285 C-91.93582621 279.86230413 -94.07314286 274.45120024 -96.1875 268.9375 C-96.44950195 268.26517334 -96.71150391 267.59284668 -96.98144531 266.90014648 C-98.59923766 262.58515471 -99.50527464 258.58366023 -100 254 C-100.66 254 -101.32 254 -102 254 C-102.38478516 252.62908203 -102.38478516 252.62908203 -102.77734375 251.23046875 C-103.16278942 249.88244783 -103.54965267 248.53483188 -103.9375 247.1875 C-104.15132324 246.44121338 -104.36514648 245.69492676 -104.58544922 244.92602539 C-105.99118434 240.12781483 -107.54140788 235.40943367 -109.23046875 230.703125 C-114.21869871 216.70105802 -117.37874183 203.65141344 -118.71289062 188.85791016 C-119.18565354 184.15198949 -119.91500471 179.48740953 -120.625 174.8125 C-123.75189681 153.50379363 -123.75189681 153.50379363 -122 150 C-122.66 149.67 -123.32 149.34 -124 149 C-123.99555878 148.44289841 -123.99111755 147.88579681 -123.98654175 147.31181335 C-123.94234265 141.52080853 -123.91214786 135.72985151 -123.89013672 129.9387207 C-123.88007049 127.77659153 -123.86641646 125.614476 -123.84912109 123.45239258 C-123.82490022 120.34713375 -123.81352319 117.2420547 -123.8046875 114.13671875 C-123.79436493 113.16788254 -123.78404236 112.19904633 -123.77340698 111.20085144 C-123.77325592 110.3001442 -123.77310486 109.39943695 -123.77294922 108.47143555 C-123.76628738 107.28229805 -123.76628738 107.28229805 -123.75949097 106.06913757 C-123.87680247 103.69196327 -123.87680247 103.69196327 -126 101 C-125.8125 97.9375 -125.8125 97.9375 -125 95 C-121.24020388 92.49346925 -118.33600501 92.81019736 -114 92.9375 C-108.42729971 93.13532018 -108.42729971 93.13532018 -103 92 C-101.54426856 91.67559543 -100.08562712 91.36409707 -98.625 91.0625 C-95.23865859 90.32824474 -92.20235736 89.33431556 -89 88 C-87.7934375 87.7834375 -87.7934375 87.7834375 -86.5625 87.5625 C-83.40263299 86.86887066 -80.84189591 85.52008386 -78 84 C-78.81011732 92.10117317 -82.81863178 99.65730988 -89 105 C-93.34417564 106.48096897 -97.97415387 106.052786 -102.53515625 105.9375 C-105.44660434 105.94095019 -105.44660434 105.94095019 -110 107 C-109.67 112.94 -109.34 118.88 -109 125 C-107.68 125.66 -106.36 126.32 -105 127 C-103.9790625 127.7734375 -103.9790625 127.7734375 -102.9375 128.5625 C-93.04183307 135.90444643 -70.67639693 130.54646864 -58.9375 129.5625 C-58.1244339 129.4951062 -57.3113678 129.4277124 -56.47366333 129.35827637 C-54.13687539 129.16230918 -51.80078002 128.95975705 -49.46484375 128.75390625 C-48.75625214 128.69342606 -48.04766052 128.63294586 -47.31759644 128.57063293 C-44.36672874 128.30113583 -41.8242852 127.9414284 -39 127 C-37.56248497 126.98023064 -36.12407806 127.00696841 -34.6875 127.0625 C-28.02723349 127.15130355 -21.55940409 126.05857818 -15 125 C-14.505 123.02 -14.505 123.02 -14 121 C-15.485 120.505 -15.485 120.505 -17 120 C-17 119.34 -17 118.68 -17 118 C-19.65228812 116.92474806 -22.28368454 115.90543849 -25 115 C-25.33 115.66 -25.66 116.32 -26 117 C-26.66 117 -27.32 117 -28 117 C-31 113.53846154 -31 113.53846154 -31 111 C-32.97476327 109.97355952 -32.97476327 109.97355952 -35.015625 109.21875 C-37.60034656 107.63128321 -37.91045699 106.37310276 -38.75 103.5 C-38.99234375 102.7059375 -39.2346875 101.911875 -39.484375 101.09375 C-40 99 -40 99 -40 97 C-39.34 97 -38.68 97 -38 97 C-38 95.02 -38 93.04 -38 91 C-37.34 91 -36.68 91 -36 91 C-36.309375 90.2265625 -36.309375 90.2265625 -36.625 89.4375 C-37.06215765 86.59597528 -36.33211176 84.73302122 -35.484375 82.03515625 C-33.57609942 74.01732095 -34.42190027 62.7342992 -37 55 C-36.34 54.01 -35.68 53.02 -35 52 C-34.79496781 48.96465914 -34.79496781 48.96465914 -34.9375 45.625 C-35.04500055 41.55867484 -34.95708769 37.96189788 -34 34 C-33.34 34 -32.68 34 -32 34 C-31.67 32.68 -31.34 31.36 -31 30 C-30.34 30 -29.68 30 -29 30 C-28.71125 29.4225 -28.4225 28.845 -28.125 28.25 C-27.568125 27.13625 -27.568125 27.13625 -27 26 C-26.62101562 25.01 -26.62101562 25.01 -26.234375 24 C-24.58740777 21.33149614 -23.03405528 20.83765865 -20.125 19.75 C-19.26132813 19.41484375 -18.39765625 19.0796875 -17.5078125 18.734375 C-15 18 -15 18 -11 18 C-10.67 16.68 -10.34 15.36 -10 14 C-8.68 14 -7.36 14 -6 14 C-5.896875 12.7625 -5.79375 11.525 -5.6875 10.25 C-5.10091292 5.5070245 -3.32955162 3.32955162 0 0 Z M-4 45 C-3 49 -3 49 -3 49 Z M-6 50 C-6.33 50.66 -6.66 51.32 -7 52 C-6.34 52 -5.68 52 -5 52 C-5.33 51.34 -5.66 50.68 -6 50 Z M-28 63 C-26.73025028 67.41522109 -26.73025028 67.41522109 -24 71 C-23.67 71.66 -23.34 72.32 -23 73 C-22.34 73 -21.68 73 -21 73 C-21 73.66 -21 74.32 -21 75 C-19.54688391 76.32627781 -19.54688391 76.32627781 -17.6875 77.5625 C-17.07261719 77.99691406 -16.45773438 78.43132812 -15.82421875 78.87890625 C-13.88952097 80.16310555 -13.88952097 80.16310555 -11 81 C-10 82 -9 83 -8 84 C-7.34 84 -6.68 84 -6 84 C-6 80.04 -6 76.08 -6 72 C-8.35125 70.7934375 -8.35125 70.7934375 -10.75 69.5625 C-11.63171875 69.11003906 -12.5134375 68.65757813 -13.421875 68.19140625 C-15.89153235 66.94605249 -15.89153235 66.94605249 -18.265625 66.46484375 C-18.83796875 66.31144531 -19.4103125 66.15804687 -20 66 C-20.33 65.34 -20.66 64.68 -21 64 C-23.32156597 63.59270772 -25.6568787 63.25561323 -28 63 Z M18 65.8125 C17.16726562 66.16892578 16.33453125 66.52535156 15.4765625 66.89257812 C14.28160156 67.41948242 14.28160156 67.41948242 13.0625 67.95703125 C12.33160156 68.27647705 11.60070312 68.59592285 10.84765625 68.92504883 C8.67820694 70.00575875 8.67820694 70.00575875 7 73 C7.33 73.99 7.66 74.98 8 76 C8 75.34 8 74.68 8 74 C8.66 74 9.32 74 10 74 C10.36923077 79.41538462 10.36923077 79.41538462 8.5 82.375 C8.005 82.91125 7.51 83.4475 7 84 C7.66 84.99 8.32 85.98 9 87 C9.59748047 86.15115234 9.59748047 86.15115234 10.20703125 85.28515625 C10.73683594 84.55167969 11.26664063 83.81820312 11.8125 83.0625 C12.33457031 82.33160156 12.85664063 81.60070312 13.39453125 80.84765625 C15 79 15 79 18 78 C18 77.34 18 76.68 18 76 C18.556875 75.896875 19.11375 75.79375 19.6875 75.6875 C23.58324827 74.52930457 26.30613127 73.25557199 28.3125 69.625 C29.01052512 66.95981317 29.15667172 64.74175514 29 62 C25.12074964 62 21.50124571 64.26512283 18 65.8125 Z M7 77 C7 78.65 7 80.3 7 82 C7.66 80.68 8.32 79.36 9 78 C8.34 77.67 7.68 77.34 7 77 Z M-7 85 C-6 87 -6 87 -6 87 Z M14 123 C13.01 123.66 12.02 124.32 11 125 C12.32 125 13.64 125 15 125 C14.67 124.34 14.34 123.68 14 123 Z M-26 128 C-26 128.33 -26 128.66 -26 129 C-23.69 129 -21.38 129 -19 129 C-19 128.67 -19 128.34 -19 128 C-21.31 128 -23.62 128 -26 128 Z M-49 132 C-47.5629191 132.05422947 -46.12524538 132.09289723 -44.6875 132.125 C-43.48673828 132.15980469 -43.48673828 132.15980469 -42.26171875 132.1953125 C-39.71611424 132.15817322 -39.71611424 132.15817322 -37 130 C-38.85625 129.938125 -38.85625 129.938125 -40.75 129.875 C-41.44609375 129.85179687 -42.1421875 129.82859375 -42.859375 129.8046875 C-45.30155975 130.02751458 -46.88636771 130.79085 -49 132 Z M-70 132 C-68.16715557 133.12516085 -68.16715557 133.12516085 -66 134 C-65.01 133.67 -64.02 133.34 -63 133 C-63 132.67 -63 132.34 -63 132 C-65.31 132 -67.62 132 -70 132 Z M-1 148 C-2.51297727 152.34686629 -3.71537227 156.6917839 -4.78759766 161.16699219 C-4.95370041 161.85715927 -5.11980316 162.54732635 -5.29093933 163.25840759 C-5.83462705 165.52060453 -6.37446335 167.78369963 -6.9140625 170.046875 C-7.29218084 171.62538597 -7.67046914 173.20385624 -8.04891968 174.7822876 C-8.839009 178.08020121 -9.62721941 181.37855651 -10.4140625 184.67724609 C-11.42398814 188.91060368 -12.43834066 193.14288573 -13.45405006 197.37485886 C-14.23464712 200.62915487 -15.01305701 203.88397091 -15.79078293 207.13895416 C-16.16413351 208.70046652 -16.53813744 210.26182281 -16.91279984 211.82302094 C-17.43447006 213.99835626 -17.95322994 216.174365 -18.47119141 218.35058594 C-18.76716217 219.58935486 -19.06313293 220.82812378 -19.36807251 222.10443115 C-20.07107362 224.83171425 -20.07107362 224.83171425 -20 227 C-20.680625 227.0825 -21.36125 227.165 -22.0625 227.25 C-25.22861938 228.0583709 -27.43052014 229.31391858 -30.15625 231.0625 C-32 232 -32 232 -34.41796875 232.46484375 C-37.28343896 233.05874605 -39.2909068 234.09470694 -41.8125 235.5625 C-42.60269531 236.01753906 -43.39289063 236.47257812 -44.20703125 236.94140625 C-44.79871094 237.29074219 -45.39039062 237.64007813 -46 238 C-44.43327839 241.13344322 -41.88004436 241.27335095 -38.62890625 242.3828125 C-37.99137924 242.60194305 -37.35385223 242.82107361 -36.69700623 243.04684448 C-35.34728732 243.5091577 -33.99633909 243.96789492 -32.64428711 244.42333984 C-30.57187124 245.12184145 -28.50351006 245.83140623 -26.43554688 246.54296875 C-20.34261715 248.95656964 -20.34261715 248.95656964 -14 250 C-13.34 248.68 -12.68 247.36 -12 246 C-9.52690638 260.77717286 -7.51134698 273.75584669 -11.44140625 288.48046875 C-12.77083811 296.85681912 -10.1959686 304.21315469 -7.4375 312.0625 C-7.10814453 313.02349609 -6.77878906 313.98449219 -6.43945312 314.97460938 C-5.63452834 317.31939027 -4.82128851 319.66091146 -4 322 C-3.34 322 -2.68 322 -2 322 C-1.87625 322.886875 -1.7525 323.77375 -1.625 324.6875 C-1.05587264 327.70387502 -0.23385564 330.20326054 1 333 C3.78488374 331.60755813 3.95795715 329.71026079 4.90371704 326.88241577 C5.13400604 326.16582794 5.36429504 325.44924011 5.6015625 324.7109375 C5.9635524 323.6059642 5.9635524 323.6059642 6.33285522 322.47866821 C6.84260348 320.91459607 7.34840247 319.34923223 7.85058594 317.78271484 C8.61649572 315.40144049 9.40108179 313.0269118 10.1875 310.65234375 C10.68084221 309.1305822 11.17306503 307.6084572 11.6640625 306.0859375 C12.0155687 305.02927383 12.0155687 305.02927383 12.37417603 303.95126343 C14.57835553 296.97134436 14.1838723 291.10968304 12.5 284 C10.81857405 276.31375748 10.5602182 268.86532834 11 261 C10.99299072 260.24710693 10.98598145 259.49421387 10.97875977 258.71850586 C11.15648092 252.86816642 11.15648092 252.86816642 13.42041016 250.53808594 C15.37181119 249.28238364 17.33084362 248.28491246 19.4375 247.3125 C20.90293922 246.56757653 22.36778422 245.82148291 23.83203125 245.07421875 C24.54697754 244.72278809 25.26192383 244.37135742 25.99853516 244.00927734 C28.62794574 242.68334622 31.12336267 241.17655149 33.625 239.625 C37.01435937 237.56390308 40.41552247 235.69791041 44 234 C44 233.34 44 232.68 44 232 C43.32420898 231.84031738 42.64841797 231.68063477 41.95214844 231.51611328 C38.872306 230.76228719 35.81293495 229.94471019 32.75 229.125 C31.15478516 228.74988281 31.15478516 228.74988281 29.52734375 228.3671875 C28.50253906 228.08359375 27.47773438 227.8 26.421875 227.5078125 C25.00793457 227.14647217 25.00793457 227.14647217 23.56542969 226.77783203 C16.4946409 221.87780501 15.55153175 209.88951867 13.67507553 201.96609497 C13.16880572 199.82906665 12.65307526 197.69450766 12.13504028 195.56030273 C11.04009699 191.04217167 9.95678768 186.5212962 8.875 182 C7.61344853 176.72898383 6.34710329 171.45920784 5.06891251 166.19219971 C4.56123368 164.08961145 4.06218033 161.98509603 3.56344604 159.88037109 C3.25617584 158.6114502 2.94890564 157.3425293 2.63232422 156.03515625 C2.36459198 154.9150415 2.09685974 153.79492676 1.8210144 152.64086914 C1.18597601 149.87577064 1.18597601 149.87577064 -1 148 Z " fill="#000000" transform="translate(126,45)"/>
<path d="M0 0 C0.78922852 -0.00467285 1.57845703 -0.0093457 2.39160156 -0.01416016 C3.14538086 -0.01206543 3.89916016 -0.0099707 4.67578125 -0.0078125 C5.68958862 -0.00612061 5.68958862 -0.00612061 6.72387695 -0.00439453 C8.81117306 0.13314954 10.6771858 0.55992354 12.6875 1.125 C12.6875 1.785 12.6875 2.445 12.6875 3.125 C15.3275 3.455 17.9675 3.785 20.6875 4.125 C21.1825 5.61 21.1825 5.61 21.6875 7.125 C20.6975 7.455 19.7075 7.785 18.6875 8.125 C20.9975 8.785 23.3075 9.445 25.6875 10.125 C25.6875 10.785 25.6875 11.445 25.6875 12.125 C27.0075 12.785 28.3275 13.445 29.6875 14.125 C29.6875 14.785 29.6875 15.445 29.6875 16.125 C31.1725 16.62 31.1725 16.62 32.6875 17.125 C34.875 19.0625 34.875 19.0625 36.6875 21.125 C36.6875 21.785 36.6875 22.445 36.6875 23.125 C38.6675 23.785 40.6475 24.445 42.6875 25.125 C42.6875 25.785 42.6875 26.445 42.6875 27.125 C43.3475 27.455 44.0075 27.785 44.6875 28.125 C44.6875 30.105 44.6875 32.085 44.6875 34.125 C44.0275 34.125 43.3675 34.125 42.6875 34.125 C42.6875 35.115 42.6875 36.105 42.6875 37.125 C43.3475 37.125 44.0075 37.125 44.6875 37.125 C45.0175 36.135 45.3475 35.145 45.6875 34.125 C47.1725 34.62 47.1725 34.62 48.6875 35.125 C49.87200668 37.73268262 50.87432581 40.24319574 51.8125 42.9375 C52.07675781 43.66259766 52.34101563 44.38769531 52.61328125 45.13476562 C53.8052968 48.44154989 54.87338661 51.70277889 55.6875 55.125 C56.3475 55.125 57.0075 55.125 57.6875 55.125 C60.15870419 63.00196335 60.15870419 63.00196335 59.6875 67.125 C59.0275 67.785 58.3675 68.445 57.6875 69.125 C57.22938325 71.09735333 57.22938325 71.09735333 57.0625 73.25 C56.876875 75.168125 56.876875 75.168125 56.6875 77.125 C57.3475 77.125 58.0075 77.125 58.6875 77.125 C59.00175139 85.4526619 57.99012621 93.4234977 54.6875 101.125 C53.6975 101.125 52.7075 101.125 51.6875 101.125 C51.501875 102.5790625 51.501875 102.5790625 51.3125 104.0625 C51.10625 105.073125 50.9 106.08375 50.6875 107.125 C49.6975 107.62 49.6975 107.62 48.6875 108.125 C48.1925 109.61 48.1925 109.61 47.6875 111.125 C47.0275 111.125 46.3675 111.125 45.6875 111.125 C45.1925 113.105 45.1925 113.105 44.6875 115.125 C44.0275 115.125 43.3675 115.125 42.6875 115.125 C42.6875 115.785 42.6875 116.445 42.6875 117.125 C41.2265625 118.4140625 41.2265625 118.4140625 39.3125 119.75 C38.68601562 120.19601563 38.05953125 120.64203125 37.4140625 121.1015625 C35.6875 122.125 35.6875 122.125 33.6875 122.125 C33.92146484 121.06925781 33.92146484 121.06925781 34.16015625 119.9921875 C35.84377672 111.45143731 36.46776617 102.46504468 34.08203125 93.96875 C33.6875 92.125 33.6875 92.125 34.16796875 90.25390625 C36.27177883 81.63303037 31.77275351 69.77552047 27.64453125 62.21484375 C25.93526628 59.54943822 24.0113223 57.26291652 21.6875 55.125 C20.98625 54.320625 20.285 53.51625 19.5625 52.6875 C12.5890377 46.47202273 4.80355891 45.125 -4.3125 45.125 C-4.3125 44.465 -4.3125 43.805 -4.3125 43.125 C-13.62535028 44.13646913 -13.62535028 44.13646913 -21.3125 49.125 C-22.6325 49.125 -23.9525 49.125 -25.3125 49.125 C-25.3125 48.465 -25.3125 47.805 -25.3125 47.125 C-26.034375 46.96 -26.75625 46.795 -27.5 46.625 C-32.30596741 44.06181738 -34.35132895 39.82716012 -36.140625 34.796875 C-38.23103436 26.48883781 -37.29812358 17.89867944 -32.875 10.5 C-31.12471275 7.89925969 -30.02529319 6.93352879 -27.3125 5.125 C-26.3225 5.125 -25.3325 5.125 -24.3125 5.125 C-24.3125 4.465 -24.3125 3.805 -24.3125 3.125 C-16.35169547 0.06315211 -8.39658294 0.03513915 0 0 Z M40.6875 37.125 C41.0175 37.785 41.3475 38.445 41.6875 39.125 C42.0175 38.465 42.3475 37.805 42.6875 37.125 C42.0275 37.125 41.3675 37.125 40.6875 37.125 Z " fill="#000000" transform="translate(136.3125,-0.12499999999999999)"/>
<path d="M0 0 C1.98 0.99 3.96 1.98 6 3 C5.67 3.66 5.34 4.32 5 5 C3.35 4.67 1.7 4.34 0 4 C0 2.68 0 1.36 0 0 Z " fill="#000000" transform="translate(195,153)"/>
<path d="M0 0 C2.475 0.99 2.475 0.99 5 2 C5 2.99 5 3.98 5 5 C3.68 4.67 2.36 4.34 1 4 C0.67 2.68 0.34 1.36 0 0 Z " fill="#000000" transform="translate(188,148)"/>
<path d="M0 0 C0.66 0.33 1.32 0.66 2 1 C1.67 2.32 1.34 3.64 1 5 C0.01 5 -0.98 5 -2 5 C-1.125 1.125 -1.125 1.125 0 0 Z " fill="#000000" transform="translate(181,155)"/>
<path d="M0 0 C1.98 0 3.96 0 6 0 C5.67 0.66 5.34 1.32 5 2 C3.35 2 1.7 2 0 2 C0 1.34 0 0.68 0 0 Z " fill="#000000" transform="translate(30,166)"/>
<path d="M0 0 C0.99 0 1.98 0 3 0 C2.67 1.32 2.34 2.64 2 4 C1.01 3.67 0.02 3.34 -1 3 C-0.67 2.01 -0.34 1.02 0 0 Z " fill="#000000" transform="translate(188,169)"/>
<path d="M0 0 C0.66 0 1.32 0 2 0 C1.67 1.32 1.34 2.64 1 4 C0.34 4 -0.32 4 -1 4 C-0.67 2.68 -0.34 1.36 0 0 Z " fill="#000000" transform="translate(50,138)"/>
<path d="M0 0 C0.99 0.33 1.98 0.66 3 1 C2.67 1.66 2.34 2.32 2 3 C1.34 2.67 0.68 2.34 0 2 C0 1.34 0 0.68 0 0 Z " fill="#000000" transform="translate(225,170)"/>
<path d="M0 0 C1.98 0.99 1.98 0.99 4 2 C3.01 2.33 2.02 2.66 1 3 C0.67 2.01 0.34 1.02 0 0 Z " fill="#000000" transform="translate(40,163)"/>
<path d="M0 0 C0.66 0 1.32 0 2 0 C2 0.66 2 1.32 2 2 C1.34 2 0.68 2 0 2 C0 1.34 0 0.68 0 0 Z " fill="#000000" transform="translate(77,161)"/>
<path d="M0 0 C0.99 0.33 1.98 0.66 3 1 C2.01 1.33 1.02 1.66 0 2 C0 1.34 0 0.68 0 0 Z " fill="#000000" transform="translate(35,156)"/>
<path d="M0 0 C0.66 0.66 1.32 1.32 2 2 C1.34 2 0.68 2 0 2 C0 1.34 0 0.68 0 0 Z " fill="#000000" transform="translate(44,172)"/>
<path d="M0 0 C0.66 0.66 1.32 1.32 2 2 C1.34 2 0.68 2 0 2 C0 1.34 0 0.68 0 0 Z " fill="#000000" transform="translate(185,171)"/>
<path d="M0 0 C3 1 3 1 3 1 Z " fill="#000000" transform="translate(151,170)"/>
<path d="M0 0 C3 1 3 1 3 1 Z " fill="#000000" transform="translate(60,170)"/>
<path d="M0 0 C0.66 0 1.32 0 2 0 C1.67 0.66 1.34 1.32 1 2 C0.67 1.34 0.34 0.68 0 0 Z " fill="#000000" transform="translate(104,113)"/>
<path d="M0 0 C2 1 2 1 2 1 Z " fill="#000000" transform="translate(50,171)"/>
<path d="" fill="#000000" transform="translate(0,0)"/>
<path d="M0 0 C2 1 2 1 2 1 Z " fill="#000000" transform="translate(152,168)"/>
<path d="" fill="#000000" transform="translate(0,0)"/>
<path d="M0 0 C2 1 2 1 2 1 Z " fill="#000000" transform="translate(58,155)"/>
<path d="M0 0 C2 1 2 1 2 1 Z " fill="#000000" transform="translate(48,143)"/>
<path d="" fill="#000000" transform="translate(0,0)"/>
<path d="" fill="#000000" transform="translate(0,0)"/>
<path d="" fill="#000000" transform="translate(0,0)"/>
<path d="" fill="#000000" transform="translate(0,0)"/>
<path d="" fill="#000000" transform="translate(0,0)"/>
<path d="" fill="#000000" transform="translate(0,0)"/>
<path d="" fill="#000000" transform="translate(0,0)"/>
<path d="" fill="#000000" transform="translate(0,0)"/>
<path d="" fill="#000000" transform="translate(0,0)"/>
<path d="" fill="#000000" transform="translate(0,0)"/>
<path d="" fill="#000000" transform="translate(0,0)"/>
<path d="" fill="#000000" transform="translate(0,0)"/>
<path d="" fill="#000000" transform="translate(0,0)"/>
<path d="" fill="#000000" transform="translate(0,0)"/>
<path d="" fill="#000000" transform="translate(0,0)"/>
<path d="" fill="#000000" transform="translate(0,0)"/>
<path d="" fill="#000000" transform="translate(0,0)"/>
<path d="" fill="#000000" transform="translate(0,0)"/>
<path d="" fill="#000000" transform="translate(0,0)"/>
<path d="" fill="#000000" transform="translate(0,0)"/>
<path d="" fill="#000000" transform="translate(0,0)"/>
<path d="" fill="#000000" transform="translate(0,0)"/>
<path d="" fill="#000000" transform="translate(0,0)"/>
<path d="" fill="#000000" transform="translate(0,0)"/>
<path d="" fill="#010101" transform="translate(0,0)"/>
<path d="" fill="#000000" transform="translate(0,0)"/>
<path d="" fill="#000000" transform="translate(0,0)"/>
<path d="" fill="#000000" transform="translate(0,0)"/>
<path d="" fill="#000000" transform="translate(0,0)"/>
<path d="" fill="#000000" transform="translate(0,0)"/>
<path d="" fill="#000000" transform="translate(0,0)"/>
<path d="" fill="#000000" transform="translate(0,0)"/>
<path d="" fill="#000000" transform="translate(0,0)"/>
<path d="" fill="#000000" transform="translate(0,0)"/>
<path d="" fill="#000000" transform="translate(0,0)"/>
<path d="" fill="#000000" transform="translate(0,0)"/>
<path d="" fill="#000000" transform="translate(0,0)"/>
<path d="" fill="#000000" transform="translate(0,0)"/>
<path d="" fill="#000000" transform="translate(0,0)"/>
<path d="" fill="#000000" transform="translate(0,0)"/>
<path d="" fill="#000000" transform="translate(0,0)"/>
<path d="" fill="#000000" transform="translate(0,0)"/>
<path d="" fill="#000000" transform="translate(0,0)"/>
<path d="" fill="#000000" transform="translate(0,0)"/>
<path d="" fill="#000000" transform="translate(0,0)"/>
<path d="" fill="#000000" transform="translate(0,0)"/>
<path d="" fill="#000000" transform="translate(0,0)"/>
<path d="" fill="#000000" transform="translate(0,0)"/>
<path d="" fill="#000000" transform="translate(0,0)"/>
<path d="" fill="#000000" transform="translate(0,0)"/>
<path d="" fill="#000000" transform="translate(0,0)"/>
<path d="" fill="#000000" transform="translate(0,0)"/>
<path d="" fill="#000000" transform="translate(0,0)"/>
<path d="" fill="#000000" transform="translate(0,0)"/>
<path d="" fill="#000000" transform="translate(0,0)"/>
<path d="" fill="#000000" transform="translate(0,0)"/>
<path d="" fill="#000000" transform="translate(0,0)"/>
<path d="" fill="#000000" transform="translate(0,0)"/>
<path d="" fill="#000000" transform="translate(0,0)"/>
<path d="" fill="#000000" transform="translate(0,0)"/>
<path d="" fill="#000000" transform="translate(0,0)"/>
<path d="" fill="#000000" transform="translate(0,0)"/>
<path d="" fill="#000000" transform="translate(0,0)"/>
<path d="" fill="#000000" transform="translate(0,0)"/>
</svg>
