<?xml version="1.0" encoding="UTF-8"?>
<!-- Generator: visioncortex VTracer 0.6.4 -->
<svg version="1.1" xmlns="http://www.w3.org/2000/svg" width="215" height="375">
<path d="M0 0 C3.72318419 1.57286659 6.20278785 4.1250453 8.95703125 6.9921875 C9.52663574 7.57645508 10.09624023 8.16072266 10.68310547 8.76269531 C20.10794129 18.60682817 25.15364471 27.47856685 28.22827148 40.6484375 C31.69587609 55.26336641 37.7603745 69.04476004 45.6484375 81.828125 C46.91320219 84.73460385 46.8822839 86.97885258 46.64453125 90.1171875 C46.31453125 90.7771875 45.98453125 91.4371875 45.64453125 92.1171875 C48.61453125 92.7771875 51.58453125 93.4371875 54.64453125 94.1171875 C55.42828125 92.9621875 56.21203125 91.8071875 57.01953125 90.6171875 C58.35546875 88.6484375 58.35546875 88.6484375 59.64453125 87.1171875 C60.30453125 87.1171875 60.96453125 87.1171875 61.64453125 87.1171875 C61.79921875 86.158125 61.79921875 86.158125 61.95703125 85.1796875 C62.29734375 84.15875 62.29734375 84.15875 62.64453125 83.1171875 C63.63453125 82.7871875 64.62453125 82.4571875 65.64453125 82.1171875 C64.97786458 83.45052083 64.31119792 84.78385417 63.64453125 86.1171875 C63.35578125 86.7771875 63.06703125 87.4371875 62.76953125 88.1171875 C61.64453125 90.1171875 61.64453125 90.1171875 59.8359375 91.89453125 C57.42863974 94.33615767 55.48023118 96.91206793 53.45703125 99.6796875 C49.58836319 104.9084843 45.56374911 109.94312444 41.39453125 114.9375 C39.61956058 116.99109887 39.61956058 116.99109887 38.64453125 119.1171875 C37.98453125 119.1171875 37.32453125 119.1171875 36.64453125 119.1171875 C36.39832031 119.67148438 36.15210938 120.22578125 35.8984375 120.796875 C34.40379962 123.5626535 32.57815735 125.81495613 30.58203125 128.2421875 C27.84004378 131.50269773 27.84004378 131.50269773 25.64453125 135.1171875 C24.98453125 135.1171875 24.32453125 135.1171875 23.64453125 135.1171875 C23.38542969 135.6946875 23.12632812 136.2721875 22.859375 136.8671875 C21.55115668 139.29012561 20.05587394 141.08147254 18.20703125 143.1171875 C14.71353427 146.94990233 14.71353427 146.94990233 11.64453125 151.1171875 C11.86650938 153.8156464 11.86650938 153.8156464 12.64453125 156.1171875 C13.63453125 156.4471875 14.62453125 156.7771875 15.64453125 157.1171875 C15.64453125 157.7771875 15.64453125 158.4371875 15.64453125 159.1171875 C17.29453125 159.4471875 18.94453125 159.7771875 20.64453125 160.1171875 C20.87011719 159.60027344 21.09570312 159.08335937 21.328125 158.55078125 C23.14236785 155.19685456 25.42664349 152.22435114 27.70703125 149.1796875 C31.39165521 144.21170987 35.01501043 139.21398954 38.51953125 134.1171875 C39.24011719 133.07175781 39.96070313 132.02632812 40.703125 130.94921875 C41.88790034 129.22092474 43.06863749 127.48984208 44.2421875 125.75390625 C45.32810699 124.17409918 46.47740618 122.63798683 47.64453125 121.1171875 C48.30453125 121.1171875 48.96453125 121.1171875 49.64453125 121.1171875 C49.90234375 120.40175781 50.16015625 119.68632813 50.42578125 118.94921875 C51.7183789 115.94558639 53.27230215 113.48213378 55.14453125 110.8046875 C55.75296875 109.92167969 56.36140625 109.03867188 56.98828125 108.12890625 C57.53484375 107.46503906 58.08140625 106.80117187 58.64453125 106.1171875 C59.30453125 106.1171875 59.96453125 106.1171875 60.64453125 106.1171875 C61.01578125 105.0653125 61.01578125 105.0653125 61.39453125 103.9921875 C62.81044325 100.7355899 64.63458928 98.04073946 66.64453125 95.1171875 C67.11890625 94.2715625 67.59328125 93.4259375 68.08203125 92.5546875 C69.55404326 90.25834876 71.16121349 88.63251354 73.12109375 86.76171875 C77.67022893 81.85098565 81.43360625 76.0704684 85.01953125 70.4296875 C85.55578125 69.6665625 86.09203125 68.9034375 86.64453125 68.1171875 C87.30453125 68.1171875 87.96453125 68.1171875 88.64453125 68.1171875 C88.31453125 69.4371875 87.98453125 70.7571875 87.64453125 72.1171875 C86.98453125 72.1171875 86.32453125 72.1171875 85.64453125 72.1171875 C85.22349121 73.00229004 85.22349121 73.00229004 84.79394531 73.90527344 C83.73984674 75.9337639 82.61162453 77.67452128 81.25390625 79.5078125 C80.56445923 80.44306763 80.56445923 80.44306763 79.86108398 81.3972168 C79.37712158 82.04730713 78.89315918 82.69739746 78.39453125 83.3671875 C77.90090088 84.03596924 77.40727051 84.70475098 76.89868164 85.39379883 C73.89308282 89.46008094 70.86247684 93.50648623 67.765625 97.50390625 C66.51974433 99.29675892 65.57662634 101.1456131 64.64453125 103.1171875 C65.60359375 103.4884375 65.60359375 103.4884375 66.58203125 103.8671875 C71.32755514 105.80413603 76.05876406 107.82430391 80.64453125 110.1171875 C80.82989223 114.195129 80.49218437 116.53735959 78.64453125 120.1171875 C78.06050992 122.53136622 78.06050992 122.53136622 78.64453125 125.1171875 C81.25104706 128.73734835 83.92903359 131.64018906 87.64453125 134.1171875 C87.31453125 135.7671875 86.98453125 137.4171875 86.64453125 139.1171875 C85.65453125 139.4471875 84.66453125 139.7771875 83.64453125 140.1171875 C85.62453125 148.0371875 85.62453125 148.0371875 87.64453125 156.1171875 C86.65453125 156.1171875 85.66453125 156.1171875 84.64453125 156.1171875 C83.993182 154.55697883 83.34870161 152.99390171 82.70703125 151.4296875 C82.16755859 150.12451172 82.16755859 150.12451172 81.6171875 148.79296875 C80.68750005 146.23539485 80.102905 143.7950552 79.64453125 141.1171875 C78.98453125 141.1171875 78.32453125 141.1171875 77.64453125 141.1171875 C77.95599597 143.01319119 78.26874842 144.90898337 78.58203125 146.8046875 C78.75605469 147.86042969 78.93007812 148.91617188 79.109375 150.00390625 C79.57620246 152.71968354 80.08875741 155.41842985 80.64453125 158.1171875 C78.99453125 158.1171875 77.34453125 158.1171875 75.64453125 158.1171875 C75.97453125 158.7771875 76.30453125 159.4371875 76.64453125 160.1171875 C79.68449605 160.81056542 79.68449605 160.81056542 83.20703125 161.2421875 C85.00333984 161.49355469 85.00333984 161.49355469 86.8359375 161.75 C87.76277344 161.87117187 88.68960938 161.99234375 89.64453125 162.1171875 C89.64453125 161.4571875 89.64453125 160.7971875 89.64453125 160.1171875 C90.63453125 160.1171875 91.62453125 160.1171875 92.64453125 160.1171875 C92.71960841 162.74488809 92.71025893 164.89610349 91.95703125 167.4296875 C91.55303288 170.90407344 92.58143949 173.08835717 93.953125 176.25 C94.64453125 178.1171875 94.64453125 178.1171875 94.64453125 181.1171875 C96.29453125 181.4471875 97.94453125 181.7771875 99.64453125 182.1171875 C99.09729442 185.49181465 98.58963125 187.1995375 96.64453125 190.1171875 C96.58189226 192.24421109 96.58189226 192.24421109 96.95703125 194.4921875 C97.05628906 195.24242187 97.15554687 195.99265625 97.2578125 196.765625 C97.51559772 198.33316748 97.82323633 199.89331542 98.1796875 201.44140625 C98.77051557 204.84239135 98.7764816 208.10383908 98.76953125 211.5546875 C98.77210938 212.83214844 98.7746875 214.10960937 98.77734375 215.42578125 C98.64453125 219.1171875 98.64453125 219.1171875 98.046875 222.2578125 C97.5921587 225.48938852 98.05724056 227.35531544 99.08203125 230.4296875 C102.18528397 240.96366462 100.40280681 250.91615384 96.64453125 261.1171875 C95.32453125 261.1171875 94.00453125 261.1171875 92.64453125 261.1171875 C92.18880208 259.1640625 91.73307292 257.2109375 91.27734375 255.2578125 C90.62395229 253.04757473 89.73146878 251.14491971 88.64453125 249.1171875 C88.58394531 250.26316406 88.52335938 251.40914062 88.4609375 252.58984375 C88.37646136 254.11980047 88.29181698 255.64974791 88.20703125 257.1796875 C88.16771484 257.93185547 88.12839844 258.68402344 88.08789062 259.45898438 C87.82872406 264.06417491 87.36458915 268.56085474 86.64453125 273.1171875 C84.76953125 272.8046875 84.76953125 272.8046875 82.64453125 272.1171875 C81.65453125 270.6321875 81.65453125 270.6321875 80.64453125 269.1171875 C80.37189453 270.67566406 80.37189453 270.67566406 80.09375 272.265625 C78.70298147 280.041243 77.18656255 287.61729375 74.64453125 295.1171875 C72.85546875 294.9375 72.85546875 294.9375 70.64453125 294.1171875 C68.93359375 291.859375 68.93359375 291.859375 67.26953125 288.9921875 C64.40553226 284.24772265 61.37196626 280.20827471 57.64453125 276.1171875 C57.24363281 276.77203125 56.84273437 277.426875 56.4296875 278.1015625 C46.58285523 293.91008233 34.80781551 308.34476256 21.4453125 321.31640625 C19.3201138 323.44160495 17.50275149 325.75867719 15.64453125 328.1171875 C14.65453125 328.7771875 13.66453125 329.4371875 12.64453125 330.1171875 C11.84360871 332.76410418 11.84360871 332.76410418 11.45703125 335.7421875 C11.29847656 336.74507813 11.13992187 337.74796875 10.9765625 338.78125 C10.86699219 339.55210937 10.75742188 340.32296875 10.64453125 341.1171875 C9.98453125 341.1171875 9.32453125 341.1171875 8.64453125 341.1171875 C8.43062744 341.97654907 8.43062744 341.97654907 8.21240234 342.85327148 C7.26318617 346.63748541 6.27552775 350.41019467 5.26953125 354.1796875 C5.06070313 354.99501953 4.851875 355.81035156 4.63671875 356.65039062 C4.4253125 357.43478516 4.21390625 358.21917969 3.99609375 359.02734375 C3.80869629 359.74027588 3.62129883 360.45320801 3.42822266 361.18774414 C2.53417789 363.38887679 1.41501021 364.5607661 -0.35546875 366.1171875 C-2.35546875 365.1171875 -2.35546875 365.1171875 -3.25 362.59765625 C-3.70439453 360.96763672 -3.70439453 360.96763672 -4.16796875 359.3046875 C-5.5228863 354.63661306 -7.09564 350.29108818 -9.10546875 345.8671875 C-11.3829066 340.6297769 -11.82777675 336.78488351 -11.35546875 331.1171875 C-12.21398437 330.76140625 -12.21398437 330.76140625 -13.08984375 330.3984375 C-15.84339795 328.84125512 -17.52342509 326.99225953 -19.60546875 324.6171875 C-20.311875 323.823125 -21.01828125 323.0290625 -21.74609375 322.2109375 C-23.35546875 320.1171875 -23.35546875 320.1171875 -23.35546875 318.1171875 C-24.67546875 317.4571875 -25.99546875 316.7971875 -27.35546875 316.1171875 C-27.35546875 315.4571875 -27.35546875 314.7971875 -27.35546875 314.1171875 C-27.89816406 313.91996094 -28.44085938 313.72273438 -29 313.51953125 C-32.39220398 311.49996039 -34.54908875 308.70207187 -37.04296875 305.6796875 C-37.54119141 305.09380859 -38.03941406 304.50792969 -38.55273438 303.90429688 C-40.70331429 301.33352225 -42.2863739 299.32447206 -43.35546875 296.1171875 C-44.10441406 295.36953125 -44.85335937 294.621875 -45.625 293.8515625 C-48.54148927 290.93090085 -50.75696325 287.77479643 -53.04296875 284.3671875 C-57.88649565 277.35759416 -63.42402208 271.28740322 -70.65234375 266.640625 C-72.35546875 265.1171875 -72.35546875 265.1171875 -72.59765625 263.13671875 C-72.41589844 262.04423828 -72.41589844 262.04423828 -72.23046875 260.9296875 C-72.12476563 260.21425781 -72.0190625 259.49882812 -71.91015625 258.76171875 C-71.4681498 256.65440629 -70.90778828 254.57202168 -70.30859375 252.50390625 C-69.00770611 247.38848032 -69.13638359 242.36424478 -69.23046875 237.1171875 C-69.23949219 236.15167969 -69.24851563 235.18617188 -69.2578125 234.19140625 C-69.2811624 231.83306651 -69.31390828 229.47526464 -69.35546875 227.1171875 C-70.23203125 227.27445313 -71.10859375 227.43171875 -72.01171875 227.59375 C-83.67713619 229.41987843 -83.67713619 229.41987843 -88.36328125 227.140625 C-91.34090048 224.79592966 -92.69926743 222.79191491 -93.35546875 219.1171875 C-94.34546875 218.7871875 -95.33546875 218.4571875 -96.35546875 218.1171875 C-97.37250909 216.36914941 -98.38702473 214.61670703 -99.29296875 212.80859375 C-100.39812472 210.79299478 -100.39812472 210.79299478 -103.35546875 209.1171875 C-105.53109364 200.65889075 -105.60427263 192.94493893 -103.79296875 184.4921875 C-103.23114831 182.02485948 -103.23114831 182.02485948 -103.60546875 179.1171875 C-103.25939679 174.96432393 -101.44511214 173.77571786 -98.35546875 171.1171875 C-97.75734375 170.6634375 -97.15921875 170.2096875 -96.54296875 169.7421875 C-94.58680197 167.06532769 -95.17480607 164.30889489 -95.35546875 161.1171875 C-93.37546875 160.1271875 -93.37546875 160.1271875 -91.35546875 159.1171875 C-91.35546875 158.4571875 -91.35546875 157.7971875 -91.35546875 157.1171875 C-90.69546875 157.1171875 -90.03546875 157.1171875 -89.35546875 157.1171875 C-89.16984375 155.415625 -89.16984375 155.415625 -88.98046875 153.6796875 C-88.41317792 149.08380965 -87.42862087 144.61817501 -86.35546875 140.1171875 C-87.84046875 139.1271875 -87.84046875 139.1271875 -89.35546875 138.1171875 C-89.16796875 135.8046875 -89.16796875 135.8046875 -88.35546875 133.1171875 C-87.59234375 132.6840625 -86.82921875 132.2509375 -86.04296875 131.8046875 C-82.24658485 129.42091156 -80.57288408 126.40673817 -79.35546875 122.1171875 C-80.01383849 118.97532184 -80.01383849 118.97532184 -81.35546875 116.1171875 C-81.40459397 114.11779091 -81.41084917 112.11642061 -81.35546875 110.1171875 C-80.86143555 109.87073486 -80.36740234 109.62428223 -79.85839844 109.37036133 C-77.60108067 108.23561161 -75.35340739 107.0828983 -73.10546875 105.9296875 C-72.32816406 105.54232422 -71.55085938 105.15496094 -70.75 104.75585938 C-66.22978147 102.41848142 -63.32700906 100.37590493 -60.35546875 96.1171875 C-58.35546875 95.1171875 -58.35546875 95.1171875 -55.41796875 95.2421875 C-52.3612898 95.44122583 -52.3612898 95.44122583 -50.66796875 93.6171875 C-50.23484375 93.1221875 -49.80171875 92.6271875 -49.35546875 92.1171875 C-48.36546875 92.1171875 -47.37546875 92.1171875 -46.35546875 92.1171875 C-46.59265625 91.11558594 -46.82984375 90.11398438 -47.07421875 89.08203125 C-47.40881332 84.36517725 -46.09886156 81.65781133 -43.85546875 77.6796875 C-43.10400211 76.25406017 -42.35537019 74.82693552 -41.609375 73.3984375 C-41.2292627 72.68042969 -40.84915039 71.96242188 -40.45751953 71.22265625 C-34.69247155 60.20852824 -30.95832195 49.04436212 -27.92749023 36.98461914 C-25.18749774 26.40913604 -20.90182848 19.09106039 -13.29296875 11.3046875 C-12.68130859 10.66337891 -12.06964844 10.02207031 -11.43945312 9.36132812 C-10.26780913 8.13648516 -9.0877496 6.91961607 -7.89794922 5.71240234 C-6.62273986 4.39359609 -5.41799076 3.00706162 -4.234375 1.60546875 C-2.35546875 0.1171875 -2.35546875 0.1171875 0 0 Z M-12.35546875 16.1171875 C-18.28857823 23.24438191 -23.29604348 29.58236006 -24.35546875 39.1171875 C-24.02546875 39.7771875 -23.69546875 40.4371875 -23.35546875 41.1171875 C-20.90339234 38.66511109 -19.74888681 36.28404673 -18.35546875 33.1171875 C-18.35546875 31.7971875 -18.35546875 30.4771875 -18.35546875 29.1171875 C-17.69546875 28.4571875 -17.03546875 27.7971875 -16.35546875 27.1171875 C-15.29182026 25.59060391 -14.25226517 24.0470951 -13.23046875 22.4921875 C-12.69164063 21.67492187 -12.1528125 20.85765625 -11.59765625 20.015625 C-11.18773438 19.38914062 -10.7778125 18.76265625 -10.35546875 18.1171875 C-11.01546875 17.4571875 -11.67546875 16.7971875 -12.35546875 16.1171875 Z M-3.35546875 45.1171875 C-2.35546875 47.1171875 -2.35546875 47.1171875 -2.35546875 47.1171875 Z M-10.35546875 46.1171875 C-9.35546875 48.1171875 -9.35546875 48.1171875 -9.35546875 48.1171875 Z M0.64453125 46.1171875 C0.31453125 46.7771875 -0.01546875 47.4371875 -0.35546875 48.1171875 C0.96453125 47.4571875 2.28453125 46.7971875 3.64453125 46.1171875 C2.65453125 46.1171875 1.66453125 46.1171875 0.64453125 46.1171875 Z M-14.35546875 50.1171875 C-15.34546875 51.6021875 -15.34546875 51.6021875 -16.35546875 53.1171875 C-15.36546875 52.7871875 -14.37546875 52.4571875 -13.35546875 52.1171875 C-13.68546875 51.4571875 -14.01546875 50.7971875 -14.35546875 50.1171875 Z M12.64453125 50.1171875 C13.30453125 50.7771875 13.96453125 51.4371875 14.64453125 52.1171875 C14.64453125 51.4571875 14.64453125 50.7971875 14.64453125 50.1171875 C13.98453125 50.1171875 13.32453125 50.1171875 12.64453125 50.1171875 Z M-9.35546875 54.1171875 C-10.01894506 56.60119735 -10.01894506 56.60119735 -10.35546875 59.1171875 C-11.01546875 59.7771875 -11.67546875 60.4371875 -12.35546875 61.1171875 C-11.03546875 61.4471875 -9.71546875 61.7771875 -8.35546875 62.1171875 C-8.35546875 61.4571875 -8.35546875 60.7971875 -8.35546875 60.1171875 C-7.36546875 60.1171875 -6.37546875 60.1171875 -5.35546875 60.1171875 C-5.35546875 60.7771875 -5.35546875 61.4371875 -5.35546875 62.1171875 C-4.03546875 62.4471875 -2.71546875 62.7771875 -1.35546875 63.1171875 C-1.96399183 66.66690546 -2.73893679 69.88412359 -4.35546875 73.1171875 C-5.34546875 73.4471875 -6.33546875 73.7771875 -7.35546875 74.1171875 C-7.35546875 73.1271875 -7.35546875 72.1371875 -7.35546875 71.1171875 C-9.66546875 70.4571875 -11.97546875 69.7971875 -14.35546875 69.1171875 C-14.35546875 69.7771875 -14.35546875 70.4371875 -14.35546875 71.1171875 C-15.67546875 70.7871875 -16.99546875 70.4571875 -18.35546875 70.1171875 C-17.78582752 72.32909228 -17.19910477 74.53660137 -16.60546875 76.7421875 C-16.280625 77.97195312 -15.95578125 79.20171875 -15.62109375 80.46875 C-13.15774827 87.56987554 -8.63875707 93.02999995 -2.35546875 97.1171875 C1.20268678 97.55288001 2.62311628 96.90168784 5.4296875 94.74609375 C12.5738413 88.17832603 15.16603265 80.28012171 17.64453125 71.1171875 C15.66453125 71.7771875 13.68453125 72.4371875 11.64453125 73.1171875 C11.97453125 72.7871875 12.30453125 72.4571875 12.64453125 72.1171875 C12.64453125 71.4571875 12.64453125 70.7971875 12.64453125 70.1171875 C13.30453125 70.1171875 13.96453125 70.1171875 14.64453125 70.1171875 C14.14953125 69.1271875 14.14953125 69.1271875 13.64453125 68.1171875 C11.33453125 69.1071875 9.02453125 70.0971875 6.64453125 71.1171875 C6.97453125 72.1071875 7.30453125 73.0971875 7.64453125 74.1171875 C6.32453125 74.1171875 5.00453125 74.1171875 3.64453125 74.1171875 C3.05734533 70.77278073 2.5859001 67.51779435 2.64453125 64.1171875 C4.58203125 61.4921875 4.58203125 61.4921875 6.64453125 60.1171875 C6.64453125 60.7771875 6.64453125 61.4371875 6.64453125 62.1171875 C8.29453125 61.7871875 9.94453125 61.4571875 11.64453125 61.1171875 C10.98453125 59.4671875 10.32453125 57.8171875 9.64453125 56.1171875 C8.98453125 56.1171875 8.32453125 56.1171875 7.64453125 56.1171875 C7.31453125 55.1271875 6.98453125 54.1371875 6.64453125 53.1171875 C4.72949451 52.89436876 2.81236619 52.68947674 0.89453125 52.4921875 C-0.70648438 52.31816406 -0.70648438 52.31816406 -2.33984375 52.140625 C-5.41106007 52.11675544 -6.87738775 52.34377408 -9.35546875 54.1171875 Z M-19.35546875 56.1171875 C-19.35546875 59.1171875 -19.35546875 59.1171875 -19.35546875 59.1171875 Z M-21.35546875 59.1171875 C-22.01546875 60.4371875 -22.67546875 61.7571875 -23.35546875 63.1171875 C-22.36546875 62.4571875 -21.37546875 61.7971875 -20.35546875 61.1171875 C-20.68546875 60.4571875 -21.01546875 59.7971875 -21.35546875 59.1171875 Z M21.64453125 61.1171875 C22.64453125 63.1171875 22.64453125 63.1171875 22.64453125 63.1171875 Z M-24.35546875 63.1171875 C-25.34546875 64.6021875 -25.34546875 64.6021875 -26.35546875 66.1171875 C-25.36546875 65.7871875 -24.37546875 65.4571875 -23.35546875 65.1171875 C-23.68546875 64.4571875 -24.01546875 63.7971875 -24.35546875 63.1171875 Z M23.64453125 63.1171875 C24.64453125 65.1171875 24.64453125 65.1171875 24.64453125 65.1171875 Z M-31.35546875 65.1171875 C-31.02546875 65.7771875 -30.69546875 66.4371875 -30.35546875 67.1171875 C-30.02546875 66.4571875 -29.69546875 65.7971875 -29.35546875 65.1171875 C-30.01546875 65.1171875 -30.67546875 65.1171875 -31.35546875 65.1171875 Z M25.64453125 66.1171875 C26.64453125 68.1171875 26.64453125 68.1171875 26.64453125 68.1171875 Z M-27.35546875 67.1171875 C-28.34546875 68.1071875 -29.33546875 69.0971875 -30.35546875 70.1171875 C-30.02546875 70.7771875 -29.69546875 71.4371875 -29.35546875 72.1171875 C-28.36546875 71.1271875 -27.37546875 70.1371875 -26.35546875 69.1171875 C-26.68546875 68.4571875 -27.01546875 67.7971875 -27.35546875 67.1171875 Z M-33.35546875 68.1171875 C-32.35546875 70.1171875 -32.35546875 70.1171875 -32.35546875 70.1171875 Z M-34.35546875 70.1171875 C-33.35546875 72.1171875 -33.35546875 72.1171875 -33.35546875 72.1171875 Z M-31.35546875 72.1171875 C-32.84046875 74.0971875 -32.84046875 74.0971875 -34.35546875 76.1171875 C-33.03546875 75.4571875 -31.71546875 74.7971875 -30.35546875 74.1171875 C-30.68546875 73.4571875 -31.01546875 72.7971875 -31.35546875 72.1171875 Z M-36.35546875 76.1171875 C-36.02546875 76.7771875 -35.69546875 77.4371875 -35.35546875 78.1171875 C-35.02546875 77.4571875 -34.69546875 76.7971875 -34.35546875 76.1171875 C-35.01546875 76.1171875 -35.67546875 76.1171875 -36.35546875 76.1171875 Z M33.64453125 76.1171875 C34.63453125 77.1071875 35.62453125 78.0971875 36.64453125 79.1171875 C36.31453125 78.1271875 35.98453125 77.1371875 35.64453125 76.1171875 C34.98453125 76.1171875 34.32453125 76.1171875 33.64453125 76.1171875 Z M-38.35546875 78.1171875 C-38.35546875 79.1071875 -38.35546875 80.0971875 -38.35546875 81.1171875 C-37.69546875 80.1271875 -37.03546875 79.1371875 -36.35546875 78.1171875 C-37.01546875 78.1171875 -37.67546875 78.1171875 -38.35546875 78.1171875 Z M-40.35546875 93.1171875 C-39.69546875 93.7771875 -39.03546875 94.4371875 -38.35546875 95.1171875 C-38.35546875 94.4571875 -38.35546875 93.7971875 -38.35546875 93.1171875 C-39.01546875 93.1171875 -39.67546875 93.1171875 -40.35546875 93.1171875 Z M36.64453125 94.1171875 C36.64453125 97.1171875 36.64453125 97.1171875 36.64453125 97.1171875 Z M-56.35546875 98.1171875 C-57.04706276 99.96443802 -57.04706276 99.96443802 -57.35546875 102.1171875 C-56.36546875 103.6021875 -56.36546875 103.6021875 -55.35546875 105.1171875 C-54.69546875 105.1171875 -54.03546875 105.1171875 -53.35546875 105.1171875 C-53.02546875 106.1071875 -52.69546875 107.0971875 -52.35546875 108.1171875 C-44.04060865 115.4357136 -31.58262211 122.89264443 -20.35546875 123.1171875 C-20.35546875 121.7971875 -20.35546875 120.4771875 -20.35546875 119.1171875 C-23.20928264 117.84556094 -26.06358446 116.57503312 -28.91796875 115.3046875 C-29.71783203 114.94826172 -30.51769531 114.59183594 -31.34179688 114.22460938 C-32.13134766 113.87333984 -32.92089844 113.52207031 -33.734375 113.16015625 C-34.51683594 112.80993408 -35.29929687 112.45971191 -36.10546875 112.09887695 C-37.51644402 111.48325938 -38.93741848 110.88958143 -40.37109375 110.32885742 C-44.22535172 108.81519827 -46.62166505 107.27060911 -49.23046875 104.0546875 C-50.09285156 103.01634766 -50.09285156 103.01634766 -50.97265625 101.95703125 C-52.35546875 100.1171875 -52.35546875 100.1171875 -53.35546875 98.1171875 C-54.34546875 98.1171875 -55.33546875 98.1171875 -56.35546875 98.1171875 Z M61.64453125 105.1171875 C61.64453125 106.1071875 61.64453125 107.0971875 61.64453125 108.1171875 C60.98453125 108.1171875 60.32453125 108.1171875 59.64453125 108.1171875 C59.31453125 109.4371875 58.98453125 110.7571875 58.64453125 112.1171875 C61.45963118 114.3945376 61.45963118 114.3945376 64.64453125 114.1171875 C64.64453125 114.7771875 64.64453125 115.4371875 64.64453125 116.1171875 C65.30453125 116.1171875 65.96453125 116.1171875 66.64453125 116.1171875 C66.64453125 115.4571875 66.64453125 114.7971875 66.64453125 114.1171875 C67.96453125 114.7771875 69.28453125 115.4371875 70.64453125 116.1171875 C71.96453125 114.4671875 73.28453125 112.8171875 74.64453125 111.1171875 C72.66657949 110.11478661 70.68713683 109.11532707 68.70703125 108.1171875 C67.60488281 107.5603125 66.50273437 107.0034375 65.3671875 106.4296875 C62.99814882 105.04481367 62.99814882 105.04481367 61.64453125 105.1171875 Z M-74.35546875 110.1171875 C-73.99807386 112.09410845 -73.99807386 112.09410845 -73.35546875 114.1171875 C-72.73671875 114.4265625 -72.11796875 114.7359375 -71.48046875 115.0546875 C-69.35546875 116.1171875 -69.35546875 116.1171875 -68.04296875 118.4296875 C-65.84079498 121.93685313 -63.05599638 124.24702837 -59.35546875 126.1171875 C-58.03546875 126.1171875 -56.71546875 126.1171875 -55.35546875 126.1171875 C-55.58650744 118.43515103 -55.78428733 112.4578585 -60.35546875 106.1171875 C-65.62870683 105.43676968 -69.74935586 107.86932413 -74.35546875 110.1171875 Z M31.33203125 113.3046875 C25.83816847 116.85894253 19.77635485 118.92057386 13.64453125 121.1171875 C13.97453125 121.7771875 14.30453125 122.4371875 14.64453125 123.1171875 C22.24140742 122.17970065 28.6151094 119.96391507 34.64453125 115.1171875 C35.93222668 113.03583145 35.93222668 113.03583145 36.64453125 111.1171875 C34.26108427 110.93350032 34.26108427 110.93350032 31.33203125 113.3046875 Z M-75.35546875 121.1171875 C-76.07863281 122.25607422 -76.07863281 122.25607422 -76.81640625 123.41796875 C-77.44804688 124.41183594 -78.0796875 125.40570313 -78.73046875 126.4296875 C-79.35695313 127.41582031 -79.9834375 128.40195313 -80.62890625 129.41796875 C-81.85198488 131.33006679 -83.09640435 133.2285909 -84.35546875 135.1171875 C-84.02546875 135.4471875 -83.69546875 135.7771875 -83.35546875 136.1171875 C-77.28383809 135.91677995 -77.28383809 135.91677995 -72.35546875 132.5546875 C-71.69546875 131.7503125 -71.03546875 130.9459375 -70.35546875 130.1171875 C-70.66484375 129.5396875 -70.97421875 128.9621875 -71.29296875 128.3671875 C-72.35546875 126.1171875 -72.35546875 126.1171875 -72.85546875 123.9296875 C-73.02046875 123.3315625 -73.18546875 122.7334375 -73.35546875 122.1171875 C-74.01546875 121.7871875 -74.67546875 121.4571875 -75.35546875 121.1171875 Z M72.14453125 123.3046875 C70.38165434 125.43483043 69.62088452 127.54584333 68.64453125 130.1171875 C70.57442343 131.31701194 72.51372353 132.50171568 74.45703125 133.6796875 C75.53597656 134.34097656 76.61492187 135.00226563 77.7265625 135.68359375 C80.6035247 137.52093977 80.6035247 137.52093977 83.64453125 136.1171875 C83.64453125 135.4571875 83.64453125 134.7971875 83.64453125 134.1171875 C82.98453125 134.1171875 82.32453125 134.1171875 81.64453125 134.1171875 C79.64453125 130.1171875 77.64453125 126.1171875 75.64453125 122.1171875 C73.58702094 121.91028652 73.58702094 121.91028652 72.14453125 123.3046875 Z M-1.35546875 129.1171875 C2.64453125 130.1171875 2.64453125 130.1171875 2.64453125 130.1171875 Z M-65.35546875 136.1171875 C-65.44415174 139.07424071 -65.47067171 142.00783806 -65.453125 144.96484375 C-65.45171005 145.8512706 -65.4502951 146.73769745 -65.44883728 147.65098572 C-65.4432209 150.49392004 -65.43066566 153.33677681 -65.41796875 156.1796875 C-65.41295586 158.10221241 -65.40839259 160.02473854 -65.40429688 161.94726562 C-65.39324616 166.67060299 -65.37597058 171.39388208 -65.35546875 176.1171875 C-64.69546875 176.1171875 -64.03546875 176.1171875 -63.35546875 176.1171875 C-62.15562756 163.23273904 -62.75996293 151.21831544 -63.35546875 138.1171875 C-36.29546875 138.1171875 -9.23546875 138.1171875 18.64453125 138.1171875 C18.64453125 137.1271875 18.64453125 136.1371875 18.64453125 135.1171875 C7.8399504 135.09406438 -2.96462461 135.07627257 -13.76922512 135.06537533 C-18.78569345 135.06014643 -23.8021449 135.05304867 -28.81860352 135.04174805 C-33.65556569 135.0309194 -38.49251159 135.02491071 -43.32948494 135.02231026 C-45.1791516 135.02045597 -47.02881732 135.01683528 -48.8784771 135.01145744 C-51.45993889 135.0042473 -54.04133257 135.00319655 -56.62280273 135.00366211 C-57.39531876 135.00006683 -58.16783478 134.99647156 -58.96376038 134.99276733 C-62.45078566 134.68007687 -62.45078566 134.68007687 -65.35546875 136.1171875 Z M39.64453125 136.1171875 C39.31453125 136.7771875 38.98453125 137.4371875 38.64453125 138.1171875 C40.62453125 138.1171875 42.60453125 138.1171875 44.64453125 138.1171875 C42.26291116 136.70332839 42.26291116 136.70332839 39.64453125 136.1171875 Z M59.78515625 135.58203125 C56.99656107 136.27918004 54.25889111 136.46174708 51.39453125 136.6796875 C49.77804688 136.80537109 49.77804688 136.80537109 48.12890625 136.93359375 C46.89914063 137.02447266 46.89914063 137.02447266 45.64453125 137.1171875 C45.64453125 137.4471875 45.64453125 137.7771875 45.64453125 138.1171875 C51.25453125 138.1171875 56.86453125 138.1171875 62.64453125 138.1171875 C62.66708103 149.96484263 62.68544561 161.81248361 62.69634342 173.6601553 C62.70157256 179.16089612 62.70867076 184.66162155 62.7199707 190.16235352 C62.7307985 195.4661531 62.73680785 200.76993785 62.73940849 206.07374763 C62.74126294 208.10204362 62.74488392 210.13033876 62.75026131 212.15862846 C62.75747031 214.98915264 62.75852225 217.81961468 62.75805664 220.65014648 C62.76165192 221.49746841 62.76524719 222.34479034 62.76895142 223.2177887 C62.75858341 229.00313534 62.75858341 229.00313534 61.64453125 230.1171875 C61.44892319 232.0073567 61.25933335 233.8983505 61.10083008 235.79199219 C59.29658441 256.67426753 51.68499884 273.66539166 38.64453125 290.1171875 C37.72462263 291.40654729 36.8076061 292.6979793 35.89453125 293.9921875 C29.65968077 302.33459308 22.00777511 309.77991628 14.64453125 317.1171875 C12.77142237 319.1104395 12.77142237 319.1104395 11.64453125 321.1171875 C11.97453125 322.1071875 12.30453125 323.0971875 12.64453125 324.1171875 C13.62982553 323.18612961 14.60755569 322.24706269 15.58203125 321.3046875 C16.12730469 320.78261719 16.67257813 320.26054687 17.234375 319.72265625 C18.87972217 318.05906552 18.87972217 318.05906552 19.64453125 315.1171875 C21.08821829 313.87036687 22.53709245 312.62827496 24.02734375 311.4375 C28.05741519 308.14724844 31.63304502 304.35557552 34.64453125 300.1171875 C34.64453125 299.1271875 34.64453125 298.1371875 34.64453125 297.1171875 C35.72734375 296.900625 35.72734375 296.900625 36.83203125 296.6796875 C40.49644477 294.64390221 41.45210392 292.30150125 43.23828125 288.6015625 C44.68983034 286.03715911 46.4480745 283.96342754 48.36035156 281.73291016 C50.53152449 279.00119487 52.14733743 276.00970135 53.76953125 272.9296875 C54.1164502 272.27548828 54.46336914 271.62128906 54.82080078 270.94726562 C57.62055849 265.49952024 59.3350792 260.09900255 60.64453125 254.1171875 C61.01578125 252.9003125 61.38703125 251.6834375 61.76953125 250.4296875 C62.4651941 247.79610671 62.89789975 245.42925365 63.20703125 242.7421875 C63.64453125 239.1171875 63.64453125 239.1171875 64.64453125 238.1171875 C64.81729807 235.18530018 64.92862952 232.27474299 64.99609375 229.33984375 C65.01924652 228.45816025 65.04239929 227.57647675 65.06625366 226.66807556 C65.11396556 224.7993663 65.15919064 222.93059217 65.20214844 221.06176758 C65.26916786 218.19523026 65.34693703 215.32912424 65.42578125 212.46289062 C65.47070231 210.65105767 65.51499412 208.83920898 65.55859375 207.02734375 C65.58249176 206.1658522 65.60638977 205.30436066 65.63101196 204.41676331 C65.85878406 200.1340893 65.85878406 200.1340893 64.64453125 196.1171875 C64.97453125 195.1271875 65.30453125 194.1371875 65.64453125 193.1171875 C65.73305944 191.23061935 65.76215347 189.34103226 65.75805664 187.45239258 C65.75798111 186.29141556 65.75790558 185.13043854 65.75782776 183.9342804 C65.75266647 182.68108505 65.74750519 181.42788971 65.7421875 180.13671875 C65.74077255 178.85359299 65.7393576 177.57046722 65.73789978 176.24845886 C65.7340853 172.84048509 65.72426416 169.43255407 65.7131958 166.02459717 C65.70295868 162.54570087 65.69839723 159.06679765 65.69335938 155.58789062 C65.68264092 148.76430538 65.66557734 141.94074849 65.64453125 135.1171875 C61.9718596 134.95549708 61.9718596 134.95549708 59.78515625 135.58203125 Z M-88.16796875 156.5546875 C-90.68009994 158.93593509 -90.68009994 158.93593509 -90.35546875 162.1171875 C-87.56608663 162.53608968 -87.56608663 162.53608968 -84.35546875 162.1171875 C-80.8183728 159.23815591 -78.52201241 156.10818898 -76.35546875 152.1171875 C-81.68333599 152.1171875 -84.13583679 153.06017313 -88.16796875 156.5546875 Z M-3.35546875 157.1171875 C-2.35546875 159.1171875 -2.35546875 159.1171875 -2.35546875 159.1171875 Z M2.64453125 157.1171875 C5.60799911 159.58905205 8.18494814 160.77967111 11.89453125 161.8046875 C12.7865625 162.05605469 13.67859375 162.30742187 14.59765625 162.56640625 C15.273125 162.74816406 15.94859375 162.92992187 16.64453125 163.1171875 C16.64453125 162.4571875 16.64453125 161.7971875 16.64453125 161.1171875 C11.81611794 157.01303618 8.69593533 156.69984929 2.64453125 157.1171875 Z M-8.35546875 158.1171875 C-8.35546875 158.7771875 -8.35546875 159.4371875 -8.35546875 160.1171875 C-7.69546875 160.1171875 -7.03546875 160.1171875 -6.35546875 160.1171875 C-6.35546875 159.4571875 -6.35546875 158.7971875 -6.35546875 158.1171875 C-7.01546875 158.1171875 -7.67546875 158.1171875 -8.35546875 158.1171875 Z M-14.04296875 160.6171875 C-14.47609375 161.1121875 -14.90921875 161.6071875 -15.35546875 162.1171875 C-15.02546875 163.1071875 -14.69546875 164.0971875 -14.35546875 165.1171875 C-12.64796895 163.83656265 -10.98173279 162.49951193 -9.35546875 161.1171875 C-9.35546875 160.4571875 -9.35546875 159.7971875 -9.35546875 159.1171875 C-12.35806392 158.78500558 -12.35806392 158.78500558 -14.04296875 160.6171875 Z M-1.35546875 166.1171875 C-0.38609375 166.4059375 0.58328125 166.6946875 1.58203125 166.9921875 C4.64453125 168.1171875 4.64453125 168.1171875 5.64453125 170.1171875 C6.63453125 170.1171875 7.62453125 170.1171875 8.64453125 170.1171875 C8.64453125 170.7771875 8.64453125 171.4371875 8.64453125 172.1171875 C13.09953125 173.1071875 13.09953125 173.1071875 17.64453125 174.1171875 C17.64453125 172.7971875 17.64453125 171.4771875 17.64453125 170.1171875 C15.73303457 169.1073402 13.81511556 168.10964255 11.89453125 167.1171875 C10.8271875 166.5603125 9.75984375 166.0034375 8.66015625 165.4296875 C4.42139581 163.58483839 2.51886181 163.53430046 -1.35546875 166.1171875 Z M-89.85546875 166.9296875 C-91.5439782 168.95003263 -91.5439782 168.95003263 -91.35546875 171.1171875 C-93.33546875 172.1071875 -93.33546875 172.1071875 -95.35546875 173.1171875 C-94.04345702 174.67968559 -94.04345702 174.67968559 -92.35546875 176.1171875 C-91.36546875 176.1171875 -90.37546875 176.1171875 -89.35546875 176.1171875 C-89.68546875 175.4571875 -90.01546875 174.7971875 -90.35546875 174.1171875 C-86.96295425 170.724673 -84.18173525 168.66876081 -79.35546875 168.1171875 C-79.35546875 167.4571875 -79.35546875 166.7971875 -79.35546875 166.1171875 C-84.95261149 164.72547602 -84.95261149 164.72547602 -89.85546875 166.9296875 Z M-16.35546875 165.1171875 C-17.4618327 167.50787484 -17.4618327 167.50787484 -18.35546875 170.1171875 C-18.02546875 170.7771875 -17.69546875 171.4371875 -17.35546875 172.1171875 C-13.72546875 170.1371875 -10.09546875 168.1571875 -6.35546875 166.1171875 C-6.35546875 165.7871875 -6.35546875 165.4571875 -6.35546875 165.1171875 C-9.65546875 165.1171875 -12.95546875 165.1171875 -16.35546875 165.1171875 Z M79.64453125 167.1171875 C80.25444016 170.67498946 81.22289935 173.8000464 82.64453125 177.1171875 C80.62630208 177.54036458 78.60807292 177.96354167 76.58984375 178.38671875 C74.27406576 179.04027588 74.27406576 179.04027588 72.64453125 182.1171875 C73.63453125 182.10558594 74.62453125 182.09398437 75.64453125 182.08203125 C82.38253658 182.0274656 88.97452728 182.02820726 95.64453125 183.1171875 C94.98453125 181.7971875 94.32453125 180.4771875 93.64453125 179.1171875 C92.98453125 179.1171875 92.32453125 179.1171875 91.64453125 179.1171875 C91.58265625 178.0653125 91.52078125 177.0134375 91.45703125 175.9296875 C90.48952856 171.38986719 89.36272598 169.84386363 85.64453125 167.1171875 C82.43391337 166.69828532 82.43391337 166.69828532 79.64453125 167.1171875 Z M-25.35546875 169.1171875 C-28.05013658 174.50652317 -27.00613086 183.60705026 -25.53125 189.296875 C-23.93176087 194.03774321 -23.93176087 194.03774321 -20.35546875 197.1171875 C-20.56042969 196.51390625 -20.76539062 195.910625 -20.9765625 195.2890625 C-21.38068359 194.09023437 -21.38068359 194.09023437 -21.79296875 192.8671875 C-22.05980469 192.07828125 -22.32664062 191.289375 -22.6015625 190.4765625 C-22.85035156 189.69796875 -23.09914063 188.919375 -23.35546875 188.1171875 C-23.55140625 187.50875 -23.74734375 186.9003125 -23.94921875 186.2734375 C-24.54204733 183.12688583 -24.44757431 180.06458812 -24.41796875 176.8671875 C-24.40894531 175.60390625 -24.39992188 174.340625 -24.390625 173.0390625 C-24.37902344 172.07484375 -24.36742188 171.110625 -24.35546875 170.1171875 C-23.69546875 169.7871875 -23.03546875 169.4571875 -22.35546875 169.1171875 C-23.34546875 169.1171875 -24.33546875 169.1171875 -25.35546875 169.1171875 Z M-11.35546875 169.1171875 C-11.02546875 169.7771875 -10.69546875 170.4371875 -10.35546875 171.1171875 C-10.02546875 170.4571875 -9.69546875 169.7971875 -9.35546875 169.1171875 C-10.01546875 169.1171875 -10.67546875 169.1171875 -11.35546875 169.1171875 Z M-34.48046875 171.3671875 C-39.21021866 172.83527971 -43.97009694 174.00728379 -48.79296875 175.1171875 C-55.36015399 176.62984969 -61.87308 178.26907667 -68.35546875 180.1171875 C-68.68546875 179.7871875 -69.01546875 179.4571875 -69.35546875 179.1171875 C-75.28550363 179.1618582 -80.2184983 180.00796854 -85.35546875 183.1171875 C-85.35546875 183.7771875 -85.35546875 184.4371875 -85.35546875 185.1171875 C-86.01546875 185.1171875 -86.67546875 185.1171875 -87.35546875 185.1171875 C-87.35546875 185.7771875 -87.35546875 186.4371875 -87.35546875 187.1171875 C-88.67546875 187.4471875 -89.99546875 187.7771875 -91.35546875 188.1171875 C-91.35546875 189.1071875 -91.35546875 190.0971875 -91.35546875 191.1171875 C-92.01546875 191.1171875 -92.67546875 191.1171875 -93.35546875 191.1171875 C-95.77232587 195.34668745 -96.70380019 198.24054741 -96.35546875 203.1171875 C-95.36546875 203.4471875 -94.37546875 203.7771875 -93.35546875 204.1171875 C-92.54048313 202.5142822 -91.72856948 200.90981472 -90.91796875 199.3046875 C-90.23927734 197.96470703 -90.23927734 197.96470703 -89.546875 196.59765625 C-88.27230825 194.07719272 -88.27230825 194.07719272 -87.35546875 191.1171875 C-86.36546875 191.1171875 -85.37546875 191.1171875 -84.35546875 191.1171875 C-85.34546875 194.4171875 -86.33546875 197.7171875 -87.35546875 201.1171875 C-86.69546875 201.1171875 -86.03546875 201.1171875 -85.35546875 201.1171875 C-83.47010452 198.35955837 -81.80941183 195.49610204 -80.109375 192.62109375 C-78.35546875 190.1171875 -78.35546875 190.1171875 -75.35546875 189.1171875 C-75.85046875 190.2309375 -76.34546875 191.3446875 -76.85546875 192.4921875 C-78.48291935 195.77134499 -78.48291935 195.77134499 -78.35546875 198.1171875 C-76.70546875 198.4471875 -75.05546875 198.7771875 -73.35546875 199.1171875 C-73.35546875 198.4571875 -73.35546875 197.7971875 -73.35546875 197.1171875 C-72.03546875 196.7871875 -70.71546875 196.4571875 -69.35546875 196.1171875 C-69.35546875 195.1271875 -69.35546875 194.1371875 -69.35546875 193.1171875 C-65.68758355 191.15529541 -62.48298324 189.72417493 -58.35546875 189.1171875 C-58.35546875 189.7771875 -58.35546875 190.4371875 -58.35546875 191.1171875 C-55.21232183 189.89050987 -55.21232183 189.89050987 -53.48046875 187.1171875 C-52.35546875 185.1171875 -52.35546875 185.1171875 -49.23046875 183.8671875 C-48.28171875 183.6196875 -47.33296875 183.3721875 -46.35546875 183.1171875 C-46.35546875 183.7771875 -46.35546875 184.4371875 -46.35546875 185.1171875 C-47.01546875 185.1171875 -47.67546875 185.1171875 -48.35546875 185.1171875 C-48.85046875 187.5921875 -48.85046875 187.5921875 -49.35546875 190.1171875 C-48.69546875 189.7871875 -48.03546875 189.4571875 -47.35546875 189.1171875 C-47.35546875 188.4571875 -47.35546875 187.7971875 -47.35546875 187.1171875 C-46.75734375 186.8696875 -46.15921875 186.6221875 -45.54296875 186.3671875 C-43.06899354 184.95348738 -41.9217662 183.46663367 -40.35546875 181.1171875 C-40.35546875 183.0971875 -40.35546875 185.0771875 -40.35546875 187.1171875 C-34.81836031 182.79824292 -30.73925607 178.31460018 -27.35546875 172.1171875 C-27.35546875 171.4571875 -27.35546875 170.7971875 -27.35546875 170.1171875 C-30.20989831 170.1171875 -31.81429349 170.49394543 -34.48046875 171.3671875 Z M-15.35546875 173.1171875 C-16.34546875 173.7771875 -17.33546875 174.4371875 -18.35546875 175.1171875 C-18.35546875 176.1071875 -18.35546875 177.0971875 -18.35546875 178.1171875 C-15.95827443 178.79677353 -15.95827443 178.79677353 -13.35546875 179.1171875 C-12.69546875 178.4571875 -12.03546875 177.7971875 -11.35546875 177.1171875 C-12.34546875 176.7871875 -13.33546875 176.4571875 -14.35546875 176.1171875 C-14.68546875 175.1271875 -15.01546875 174.1371875 -15.35546875 173.1171875 Z M2.64453125 173.1171875 C2.95287824 176.13435593 2.95287824 176.13435593 4.64453125 179.1171875 C8.16423563 180.55434468 11.85058387 181.1171875 15.64453125 181.1171875 C15.97453125 179.7971875 16.30453125 178.4771875 16.64453125 177.1171875 C9.97809384 173.65304691 9.97809384 173.65304691 2.64453125 173.1171875 Z M-88.35546875 174.1171875 C-84.35546875 175.1171875 -84.35546875 175.1171875 -84.35546875 175.1171875 Z M-99.35546875 180.1171875 C-99.02546875 180.7771875 -98.69546875 181.4371875 -98.35546875 182.1171875 C-98.02546875 181.4571875 -97.69546875 180.7971875 -97.35546875 180.1171875 C-98.01546875 180.1171875 -98.67546875 180.1171875 -99.35546875 180.1171875 Z M-95.35546875 184.1171875 C-98.27671614 187.19910349 -100.21340956 189.78183111 -100.66796875 194.0546875 C-100.56484375 194.7353125 -100.46171875 195.4159375 -100.35546875 196.1171875 C-96.70766257 192.5799209 -93.3755329 188.87079714 -90.1015625 184.984375 C-88.32606521 183.08574479 -86.47661165 181.61173458 -84.35546875 180.1171875 C-88.99933881 180.1171875 -91.74679097 181.36234866 -95.35546875 184.1171875 Z M-14.35546875 181.1171875 C-14.35546875 182.1071875 -14.35546875 183.0971875 -14.35546875 184.1171875 C-10.89046875 183.6221875 -10.89046875 183.6221875 -7.35546875 183.1171875 C-8.01546875 182.4571875 -8.67546875 181.7971875 -9.35546875 181.1171875 C-10.67546875 181.1171875 -11.99546875 181.1171875 -13.35546875 181.1171875 C-13.68546875 181.1171875 -14.01546875 181.1171875 -14.35546875 181.1171875 Z M1.64453125 181.1171875 C1.31453125 181.7771875 0.98453125 182.4371875 0.64453125 183.1171875 C1.30453125 183.1171875 1.96453125 183.1171875 2.64453125 183.1171875 C2.64453125 184.1071875 2.64453125 185.0971875 2.64453125 186.1171875 C5.61453125 187.1071875 8.58453125 188.0971875 11.64453125 189.1171875 C12.63453125 188.1271875 13.62453125 187.1371875 14.64453125 186.1171875 C12.81704222 183.65405011 11.41476909 182.28290132 8.375 181.62890625 C6.12973779 181.39200457 3.89997547 181.21357401 1.64453125 181.1171875 Z M-60.35546875 192.1171875 C-59.35546875 194.1171875 -59.35546875 194.1171875 -59.35546875 194.1171875 Z M72.64453125 194.1171875 C73.28390625 194.6121875 73.92328125 195.1071875 74.58203125 195.6171875 C86.09280711 205.01373922 86.09280711 205.01373922 87.64453125 208.1171875 C88.30453125 208.1171875 88.96453125 208.1171875 89.64453125 208.1171875 C90.97786458 212.1171875 92.31119792 216.1171875 93.64453125 220.1171875 C94.30453125 220.1171875 94.96453125 220.1171875 95.64453125 220.1171875 C96.28300334 211.85961516 96.04010169 204.78304376 90.64453125 198.1171875 C85.06510212 193.95150153 79.38777114 193.68904528 72.64453125 194.1171875 Z M-7.35546875 204.1171875 C-5.37546875 205.1071875 -5.37546875 205.1071875 -3.35546875 206.1171875 C-3.02546875 206.4471875 -2.69546875 206.7771875 -2.35546875 207.1171875 C-0.66937909 207.18924261 1.01953784 207.20104818 2.70703125 207.1796875 C3.62613281 207.17066406 4.54523438 207.16164062 5.4921875 207.15234375 C6.20246094 207.14074219 6.91273437 207.12914062 7.64453125 207.1171875 C7.64453125 206.4571875 7.64453125 205.7971875 7.64453125 205.1171875 C8.63453125 204.7871875 9.62453125 204.4571875 10.64453125 204.1171875 C4.70453125 204.1171875 -1.23546875 204.1171875 -7.35546875 204.1171875 Z M-12.35546875 205.1171875 C-12.35546875 205.7771875 -12.35546875 206.4371875 -12.35546875 207.1171875 C-11.03546875 206.7871875 -9.71546875 206.4571875 -8.35546875 206.1171875 C-9.67546875 205.7871875 -10.99546875 205.4571875 -12.35546875 205.1171875 Z M-8.35546875 209.1171875 C-8.36163208 210.38780029 -8.36163208 210.38780029 -8.36791992 211.68408203 C-8.39500783 214.84925004 -8.444205 218.0131109 -8.50805664 221.17773438 C-8.53114769 222.54317415 -8.54561145 223.90878979 -8.55102539 225.27441406 C-8.61183077 238.09031724 -8.61183077 238.09031724 -11.74609375 241.9296875 C-17.5795301 246.81999342 -21.99767509 247.45805396 -29.453125 247.515625 C-32.73046359 247.06570772 -34.58544669 245.8550523 -37.35546875 244.1171875 C-38.34546875 244.6121875 -38.34546875 244.6121875 -39.35546875 245.1171875 C-39.07832031 245.87644531 -38.80117187 246.63570312 -38.515625 247.41796875 C-37.97228516 248.90876953 -37.97228516 248.90876953 -37.41796875 250.4296875 C-37.05832031 251.41582031 -36.69867188 252.40195312 -36.328125 253.41796875 C-35.6466091 255.3092438 -34.99118765 257.21003079 -34.35546875 259.1171875 C-32.87046875 258.6221875 -32.87046875 258.6221875 -31.35546875 258.1171875 C-31.02546875 257.4571875 -30.69546875 256.7971875 -30.35546875 256.1171875 C-29.68 256.14039063 -29.00453125 256.16359375 -28.30859375 256.1875 C-26.97054687 256.21457031 -26.97054687 256.21457031 -25.60546875 256.2421875 C-24.28289062 256.27699219 -24.28289062 256.27699219 -22.93359375 256.3125 C-20.21300237 256.10639459 -18.72244619 255.40097187 -16.35546875 254.1171875 C-13.60546875 253.9921875 -13.60546875 253.9921875 -11.35546875 254.1171875 C-8.97590056 257.81071037 -9.08811288 261.38471293 -9.13183594 265.62939453 C-9.13122414 266.75732925 -9.13122414 266.75732925 -9.13059998 267.90805054 C-9.1304026 269.54057388 -9.1344363 271.17310197 -9.14220428 272.80560684 C-9.15247008 275.40701297 -9.14701553 278.00794261 -9.13677979 280.60934448 C-9.10890197 288.00608436 -9.09598733 295.40256494 -9.12548828 302.79931641 C-9.14242255 307.33005006 -9.12957647 311.85993968 -9.09903717 316.39059067 C-9.09301249 318.10060159 -9.09758542 319.81069013 -9.11391449 321.5206337 C-9.22920751 334.13958929 -6.92589192 344.36911837 -2.35546875 356.1171875 C-2.02546875 357.1071875 -1.69546875 358.0971875 -1.35546875 359.1171875 C-0.69546875 359.1171875 -0.03546875 359.1171875 0.64453125 359.1171875 C1.13373047 357.74046875 1.13373047 357.74046875 1.6328125 356.3359375 C2.06980469 355.10875 2.50679687 353.8815625 2.95703125 352.6171875 C3.18414795 351.97297852 3.41126465 351.32876953 3.64526367 350.66503906 C4.81981855 347.34972954 6.06878083 344.09753944 7.45703125 340.8671875 C8.76068183 336.75039618 8.77824768 333.57921599 8.45703125 329.31640625 C8.64453125 327.1171875 8.64453125 327.1171875 10.14453125 325.32421875 C10.63953125 324.92589844 11.13453125 324.52757812 11.64453125 324.1171875 C10.65453125 323.7871875 9.66453125 323.4571875 8.64453125 323.1171875 C8.62135622 314.71132635 8.60358982 306.30547856 8.59271908 297.89959335 C8.58750156 293.99636455 8.58042441 290.09315762 8.5690918 286.18994141 C8.55822278 282.42280106 8.55224588 278.65568174 8.54965401 274.88852692 C8.54780701 273.45162881 8.5442003 272.01473186 8.53880119 270.57784271 C8.53153762 268.56460188 8.53112274 266.55133987 8.53100586 264.53808594 C8.52878525 263.39225037 8.52656464 262.24641479 8.52427673 261.06585693 C8.62653434 258.55847614 8.90924328 256.50203073 9.64453125 254.1171875 C15.10654868 253.86314018 15.10654868 253.86314018 17.89453125 255.1796875 C22.16786738 256.63650664 26.23882503 255.75024043 30.64453125 255.1171875 C31.63453125 257.0971875 31.63453125 257.0971875 32.64453125 259.1171875 C35.24980013 256.51191862 35.98587349 253.93779516 37.26953125 250.4921875 C37.93855469 248.70941406 37.93855469 248.70941406 38.62109375 246.890625 C39.12769531 245.51777344 39.12769531 245.51777344 39.64453125 244.1171875 C38.7525 244.42011719 37.86046875 244.72304687 36.94140625 245.03515625 C29.2013456 247.57543682 23.60614031 248.66869408 15.67578125 246.234375 C13.09289461 244.81378735 12.71147005 243.84891873 11.64453125 241.1171875 C11.11214844 240.14652344 10.57976562 239.17585938 10.03125 238.17578125 C7.73873228 232.77271086 8.32939058 226.93660884 8.45703125 221.1796875 C8.47733398 219.43848633 8.47733398 219.43848633 8.49804688 217.66210938 C8.53321715 214.81331698 8.58243838 211.96549906 8.64453125 209.1171875 C7.55140625 209.1171875 6.45828125 209.1171875 5.33203125 209.1171875 C0.76953125 209.1171875 -3.79296875 209.1171875 -8.35546875 209.1171875 Z M72.64453125 220.1171875 C73.69640625 221.6021875 73.69640625 221.6021875 74.76953125 223.1171875 C78.85512492 229.57921531 81.11211019 236.94634574 83.64453125 244.1171875 C84.30453125 243.7871875 84.96453125 243.4571875 85.64453125 243.1171875 C85.60564144 233.80307697 82.43012646 228.42855982 76.39453125 221.5546875 C74.76440731 219.90560769 74.76440731 219.90560769 72.64453125 220.1171875 Z M-64.35546875 225.1171875 C-65.1383066 239.6649242 -63.48113955 255.15325701 -56.35546875 268.1171875 C-55.68599458 269.44911338 -55.01861198 270.78209826 -54.35546875 272.1171875 C-53.69546875 272.1171875 -53.03546875 272.1171875 -52.35546875 272.1171875 C-53.31360424 269.11857827 -54.31607247 266.20759691 -55.57421875 263.3203125 C-59.33703363 254.64748308 -60.4520471 246.50253013 -61.19238281 237.14794922 C-61.41108536 234.42464413 -61.69527551 231.7092312 -61.98046875 228.9921875 C-62.10421875 227.7134375 -62.22796875 226.4346875 -62.35546875 225.1171875 C-63.01546875 225.1171875 -63.67546875 225.1171875 -64.35546875 225.1171875 Z M87.64453125 245.1171875 C88.64453125 247.1171875 88.64453125 247.1171875 88.64453125 247.1171875 Z M-51.35546875 274.1171875 C-51.35546875 275.4371875 -51.35546875 276.7571875 -51.35546875 278.1171875 C-50.36546875 278.1171875 -49.37546875 278.1171875 -48.35546875 278.1171875 C-49.01546875 276.7971875 -49.67546875 275.4771875 -50.35546875 274.1171875 C-50.68546875 274.1171875 -51.01546875 274.1171875 -51.35546875 274.1171875 Z M-49.35546875 280.1171875 C-49.02546875 280.7771875 -48.69546875 281.4371875 -48.35546875 282.1171875 C-47.69546875 282.1171875 -47.03546875 282.1171875 -46.35546875 282.1171875 C-46.35546875 281.4571875 -46.35546875 280.7971875 -46.35546875 280.1171875 C-47.34546875 280.1171875 -48.33546875 280.1171875 -49.35546875 280.1171875 Z M-38.35546875 292.1171875 C-37.35546875 294.1171875 -37.35546875 294.1171875 -37.35546875 294.1171875 Z M-36.35546875 295.1171875 C-35.35546875 297.1171875 -35.35546875 297.1171875 -35.35546875 297.1171875 Z M-31.35546875 301.1171875 C-31.35546875 302.1071875 -31.35546875 303.0971875 -31.35546875 304.1171875 C-30.69546875 303.4571875 -30.03546875 302.7971875 -29.35546875 302.1171875 C-30.01546875 301.7871875 -30.67546875 301.4571875 -31.35546875 301.1171875 Z M-30.35546875 305.1171875 C-29.36546875 306.6021875 -29.36546875 306.6021875 -28.35546875 308.1171875 C-27.69546875 308.1171875 -27.03546875 308.1171875 -26.35546875 308.1171875 C-26.35546875 307.4571875 -26.35546875 306.7971875 -26.35546875 306.1171875 C-27.67546875 305.7871875 -28.99546875 305.4571875 -30.35546875 305.1171875 Z M-20.35546875 313.1171875 C-20.68546875 314.1071875 -21.01546875 315.0971875 -21.35546875 316.1171875 C-20.03546875 317.1071875 -18.71546875 318.0971875 -17.35546875 319.1171875 C-16.69546875 318.4571875 -16.03546875 317.7971875 -15.35546875 317.1171875 C-17.00546875 315.7971875 -18.65546875 314.4771875 -20.35546875 313.1171875 Z M-17.35546875 319.1171875 C-16.36546875 320.1071875 -15.37546875 321.0971875 -14.35546875 322.1171875 C-14.35546875 321.1271875 -14.35546875 320.1371875 -14.35546875 319.1171875 C-15.34546875 319.1171875 -16.33546875 319.1171875 -17.35546875 319.1171875 Z M-12.35546875 322.1171875 C-12.35546875 323.1071875 -12.35546875 324.0971875 -12.35546875 325.1171875 C-11.69546875 325.1171875 -11.03546875 325.1171875 -10.35546875 325.1171875 C-10.68546875 324.1271875 -11.01546875 323.1371875 -11.35546875 322.1171875 C-11.68546875 322.1171875 -12.01546875 322.1171875 -12.35546875 322.1171875 Z " fill="#060606" transform="translate(107.35546875,4.8828125)"/>
<path d="M0 0 C0.66 0 1.32 0 2 0 C1.67 1.32 1.34 2.64 1 4 C0.34 4 -0.32 4 -1 4 C-1.28069336 4.59006836 -1.56138672 5.18013672 -1.85058594 5.78808594 C-2.90468451 7.8165764 -4.03290672 9.55733378 -5.390625 11.390625 C-5.85025635 12.01412842 -6.3098877 12.63763184 -6.78344727 13.2800293 C-7.50939087 14.25516479 -7.50939087 14.25516479 -8.25 15.25 C-8.74363037 15.91878174 -9.23726074 16.58756348 -9.74584961 17.27661133 C-12.75144843 21.34289344 -15.78205441 25.38929873 -18.87890625 29.38671875 C-20.12478692 31.17957142 -21.06790491 33.0284256 -22 35 C-21.360625 35.2475 -20.72125 35.495 -20.0625 35.75 C-15.31697611 37.68694853 -10.58576719 39.70711641 -6 42 C-5.81463902 46.0779415 -6.15234688 48.42017209 -8 52 C-8.58402133 54.41417872 -8.58402133 54.41417872 -8 57 C-5.39348419 60.62016085 -2.71549766 63.52300156 1 66 C0.67 67.65 0.34 69.3 0 71 C-1.485 71.495 -1.485 71.495 -3 72 C-1.68 77.28 -0.36 82.56 1 88 C0.01 88 -0.98 88 -2 88 C-2.65134925 86.43979133 -3.29582964 84.87671421 -3.9375 83.3125 C-4.47697266 82.00732422 -4.47697266 82.00732422 -5.02734375 80.67578125 C-5.9570312 78.11820735 -6.54162625 75.6778677 -7 73 C-7.66 73 -8.32 73 -9 73 C-8.68853528 74.89600369 -8.37578283 76.79179587 -8.0625 78.6875 C-7.80146484 80.27111328 -7.80146484 80.27111328 -7.53515625 81.88671875 C-7.06832879 84.60249604 -6.55577384 87.30124235 -6 90 C-7.65 90 -9.3 90 -11 90 C-10.67 90.66 -10.34 91.32 -10 92 C-6.9600352 92.69337792 -6.9600352 92.69337792 -3.4375 93.125 C-2.23996094 93.29257813 -1.04242188 93.46015625 0.19140625 93.6328125 C1.58166016 93.81457031 1.58166016 93.81457031 3 94 C3 93.34 3 92.68 3 92 C3.99 92 4.98 92 6 92 C6.07507716 94.62770059 6.06572768 96.77891599 5.3125 99.3125 C4.90850163 102.78688594 5.93690824 104.97116967 7.30859375 108.1328125 C8 110 8 110 8 113 C9.65 113.33 11.3 113.66 13 114 C12.45276317 117.37462715 11.9451 119.08235 10 122 C9.93736101 124.12702359 9.93736101 124.12702359 10.3125 126.375 C10.41175781 127.12523437 10.51101562 127.87546875 10.61328125 128.6484375 C10.87106647 130.21597998 11.17870508 131.77612792 11.53515625 133.32421875 C12.12598432 136.72520385 12.13195035 139.98665158 12.125 143.4375 C12.12886719 145.35369141 12.12886719 145.35369141 12.1328125 147.30859375 C12 151 12 151 11.40234375 154.140625 C10.94762745 157.37220102 11.41270931 159.23812794 12.4375 162.3125 C15.54075272 172.84647712 13.75827556 182.79896634 10 193 C8.68 193 7.36 193 6 193 C5.54427083 191.046875 5.08854167 189.09375 4.6328125 187.140625 C3.97942104 184.93038723 3.08693753 183.02773221 2 181 C1.93941406 182.14597656 1.87882812 183.29195312 1.81640625 184.47265625 C1.73193011 186.00261297 1.64728573 187.53256041 1.5625 189.0625 C1.52318359 189.81466797 1.48386719 190.56683594 1.44335938 191.34179688 C1.18419281 195.94698741 0.7200579 200.44366724 0 205 C-1.875 204.6875 -1.875 204.6875 -4 204 C-4.66 203.01 -5.32 202.02 -6 201 C-6.18175781 202.03898438 -6.36351562 203.07796875 -6.55078125 204.1484375 C-7.94154978 211.9240555 -9.4579687 219.50010625 -12 227 C-13.7890625 226.8203125 -13.7890625 226.8203125 -16 226 C-17.7109375 223.7421875 -17.7109375 223.7421875 -19.375 220.875 C-22.23899899 216.13053515 -25.27256499 212.09108721 -29 208 C-29.40089844 208.65484375 -29.80179687 209.3096875 -30.21484375 209.984375 C-40.06167602 225.79289483 -51.83671574 240.22757506 -65.19921875 253.19921875 C-67.32441745 255.32441745 -69.14177976 257.64148969 -71 260 C-71.99 260.66 -72.98 261.32 -74 262 C-74.80092254 264.64691668 -74.80092254 264.64691668 -75.1875 267.625 C-75.34605469 268.62789063 -75.50460938 269.63078125 -75.66796875 270.6640625 C-75.83232422 271.82035156 -75.83232422 271.82035156 -76 273 C-76.66 273 -77.32 273 -78 273 C-78.14260254 273.57290771 -78.28520508 274.14581543 -78.43212891 274.73608398 C-79.38134508 278.52029791 -80.3690035 282.29300717 -81.375 286.0625 C-81.58382812 286.87783203 -81.79265625 287.69316406 -82.0078125 288.53320312 C-82.21921875 289.31759766 -82.430625 290.10199219 -82.6484375 290.91015625 C-82.83583496 291.62308838 -83.02323242 292.33602051 -83.21630859 293.07055664 C-84.11035336 295.27168929 -85.22952104 296.4435786 -87 298 C-89 297 -89 297 -89.89453125 294.48046875 C-90.34892578 292.85044922 -90.34892578 292.85044922 -90.8125 291.1875 C-92.17282984 286.50591201 -93.7489735 282.13170615 -95.75 277.6875 C-97.87549427 272.7930132 -98.50904355 269.2940529 -98 264 C-97.67 264 -97.34 264 -97 264 C-97 265.65 -97 267.3 -97 269 C-96.01 269.33 -95.02 269.66 -94 270 C-92.95019646 272.28591025 -92.10201938 274.43917134 -91.3125 276.8125 C-90.87550781 278.05644531 -90.43851562 279.30039062 -89.98828125 280.58203125 C-89 284 -89 284 -89 288 C-88.34 288.33 -87.68 288.66 -87 289 C-87.33 289.66 -87.66 290.32 -88 291 C-87.34 291 -86.68 291 -86 291 C-85.62875 289.081875 -85.62875 289.081875 -85.25 287.125 C-84.46296841 283.52390584 -83.36938465 280.26986833 -81.9375 276.875 C-79.74478182 271.60106446 -78.82607886 267.05226945 -79.3125 261.3125 C-79.209375 260.219375 -79.10625 259.12625 -79 258 C-76.25 255.8125 -76.25 255.8125 -73 254 C-70.83668245 252.07705107 -69.29144616 250.6217518 -68.0625 248 C-66.59061229 245.22938783 -64.47761742 243.90142732 -62 242 C-55.86792107 236.26945786 -55.86792107 236.26945786 -52 229 C-51.236875 228.608125 -50.47375 228.21625 -49.6875 227.8125 C-46.46116513 225.63659974 -45.64658215 223.74489258 -44.1875 220.23046875 C-42.85807887 217.73343104 -41.13638895 215.77466719 -39.30175781 213.63549805 C-37.12235884 210.89735219 -35.50190997 207.90146827 -33.875 204.8125 C-33.52808105 204.15830078 -33.18116211 203.50410156 -32.82373047 202.83007812 C-30.02397276 197.38233274 -28.30945205 191.98181505 -27 186 C-26.62875 184.783125 -26.2575 183.56625 -25.875 182.3125 C-25.17933715 179.67891921 -24.7466315 177.31206615 -24.4375 174.625 C-24 171 -24 171 -23 170 C-22.8272775 167.2370119 -22.71593322 164.49664628 -22.6484375 161.73046875 C-22.61370834 160.48164665 -22.61370834 160.48164665 -22.57827759 159.20759583 C-22.53055788 157.4414395 -22.48533379 155.67521428 -22.44238281 153.90893555 C-22.37553741 151.20920475 -22.29768707 148.50994795 -22.21875 145.81054688 C-22.17381069 144.09637156 -22.12951886 142.38217913 -22.0859375 140.66796875 C-22.06203949 139.86054733 -22.03814148 139.05312592 -22.01351929 138.22123718 C-21.87801897 134.04051237 -21.87801897 134.04051237 -22.56484985 129.9420929 C-23 128 -23 128 -22 125 C-21.92834872 123.21355453 -21.91603802 121.42447173 -21.9375 119.63671875 C-21.94587891 118.53553711 -21.95425781 117.43435547 -21.96289062 116.29980469 C-21.97513672 115.10774414 -21.98738281 113.91568359 -22 112.6875 C-22.0626925 101.86164538 -21.88989747 91.06851002 -21.5 80.25 C-21.47599121 79.58181244 -21.45198242 78.91362488 -21.42724609 78.22518921 C-21.29134802 74.48319657 -21.14871095 70.74150414 -21 67 C-22.12792969 67.32871094 -23.25585938 67.65742188 -24.41796875 67.99609375 C-29.1037847 69.16780582 -33.50878247 69.1938361 -38.3125 69.0625 C-44.23539392 68.83399946 -44.23539392 68.83399946 -50 70 C-48.60612062 65.93512662 -46.68116942 63.10390742 -43.9375 59.8125 C-41.19079836 56.58717013 -41.19079836 56.58717013 -39 53 C-38.34 53 -37.68 53 -37 53 C-36.7421875 52.28457031 -36.484375 51.56914063 -36.21875 50.83203125 C-34.92615235 47.82839889 -33.3722291 45.36494628 -31.5 42.6875 C-30.8915625 41.80449219 -30.283125 40.92148438 -29.65625 40.01171875 C-29.1096875 39.34785156 -28.563125 38.68398437 -28 38 C-27.34 38 -26.68 38 -26 38 C-25.62875 36.948125 -25.62875 36.948125 -25.25 35.875 C-23.834088 32.6184024 -22.00994197 29.92355196 -20 27 C-19.525625 26.154375 -19.05125 25.30875 -18.5625 24.4375 C-17.09048799 22.14116126 -15.48331776 20.51532604 -13.5234375 18.64453125 C-8.97430232 13.73379815 -5.210925 7.9532809 -1.625 2.3125 C-1.08875 1.549375 -0.5525 0.78625 0 0 Z M-25 37 C-25 37.99 -25 38.98 -25 40 C-25.66 40 -26.32 40 -27 40 C-27.33 41.32 -27.66 42.64 -28 44 C-25.18490007 46.2773501 -25.18490007 46.2773501 -22 46 C-22 46.66 -22 47.32 -22 48 C-21.34 48 -20.68 48 -20 48 C-20 47.34 -20 46.68 -20 46 C-18.68 46.66 -17.36 47.32 -16 48 C-14.68 46.35 -13.36 44.7 -12 43 C-13.97795176 41.99759911 -15.95739442 40.99813957 -17.9375 40 C-19.03964844 39.443125 -20.14179688 38.88625 -21.27734375 38.3125 C-23.64638243 36.92762617 -23.64638243 36.92762617 -25 37 Z M-14.5 55.1875 C-16.26287691 57.31764293 -17.02364673 59.42865583 -18 62 C-16.07010782 63.19982444 -14.13080772 64.38452818 -12.1875 65.5625 C-11.10855469 66.22378906 -10.02960938 66.88507813 -8.91796875 67.56640625 C-6.04100655 69.40375227 -6.04100655 69.40375227 -3 68 C-3 67.34 -3 66.68 -3 66 C-3.66 66 -4.32 66 -5 66 C-7 62 -9 58 -11 54 C-13.05751031 53.79309902 -13.05751031 53.79309902 -14.5 55.1875 Z M-7 99 C-6.39009109 102.55780196 -5.4216319 105.6828589 -4 109 C-6.01822917 109.42317708 -8.03645833 109.84635417 -10.0546875 110.26953125 C-12.37046549 110.92308838 -12.37046549 110.92308838 -14 114 C-13.01 113.98839844 -12.02 113.97679687 -11 113.96484375 C-4.26199467 113.9102781 2.32999603 113.91101976 9 115 C8.34 113.68 7.68 112.36 7 111 C6.34 111 5.68 111 5 111 C4.938125 109.948125 4.87625 108.89625 4.8125 107.8125 C3.84499731 103.27267969 2.71819473 101.72667613 -1 99 C-4.21061788 98.58109782 -4.21061788 98.58109782 -7 99 Z M-14 126 C-13.360625 126.495 -12.72125 126.99 -12.0625 127.5 C-0.55172414 136.89655172 -0.55172414 136.89655172 1 140 C1.66 140 2.32 140 3 140 C4.33333333 144 5.66666667 148 7 152 C7.66 152 8.32 152 9 152 C9.63847209 143.74242766 9.39557044 136.66585626 4 130 C-1.57942913 125.83431403 -7.25676011 125.57185778 -14 126 Z M-14 152 C-12.948125 153.485 -12.948125 153.485 -11.875 155 C-7.78940633 161.46202781 -5.53242106 168.82915824 -3 176 C-2.34 175.67 -1.68 175.34 -1 175 C-1.03888981 165.68588947 -4.21440479 160.31137232 -10.25 153.4375 C-11.88012394 151.78842019 -11.88012394 151.78842019 -14 152 Z M1 177 C2 179 2 179 2 179 Z M-51 70 C-50.67 70.66 -50.34 71.32 -50 72 C-50.66 71.67 -51.32 71.34 -52 71 C-51.67 70.67 -51.34 70.34 -51 70 Z " fill="#101010" transform="translate(194,73)"/>
<path d="M0 0 C3.83619704 1.4255022 6.25621721 3.99386861 9.03515625 6.88671875 C9.60476074 7.47098633 10.17436523 8.05525391 10.76123047 8.65722656 C20.18606629 18.50135942 25.23176971 27.3730981 28.30639648 40.54296875 C31.77400109 55.15789766 37.8384995 68.93929129 45.7265625 81.72265625 C46.99132719 84.6291351 46.9604089 86.87338383 46.72265625 90.01171875 C46.39265625 90.67171875 46.06265625 91.33171875 45.72265625 92.01171875 C46.38265625 92.34171875 47.04265625 92.67171875 47.72265625 93.01171875 C46.63984375 92.64046875 46.63984375 92.64046875 45.53515625 92.26171875 C42.54322145 91.69434806 42.54322145 91.69434806 39.91015625 93.94921875 C39.18828125 94.62984375 38.46640625 95.31046875 37.72265625 96.01171875 C37.72265625 95.02171875 37.72265625 94.03171875 37.72265625 93.01171875 C38.38265625 93.01171875 39.04265625 93.01171875 39.72265625 93.01171875 C39.72265625 92.35171875 39.72265625 91.69171875 39.72265625 91.01171875 C40.38265625 91.01171875 41.04265625 91.01171875 41.72265625 91.01171875 C42.14037429 87.6797169 42.14037429 87.6797169 41.72265625 84.01171875 C39.36169425 81.72272635 39.36169425 81.72272635 36.72265625 80.01171875 C36.39265625 79.02171875 36.06265625 78.03171875 35.72265625 77.01171875 C34.15531941 75.71217749 34.15531941 75.71217749 32.28515625 74.57421875 C29.45272241 72.64353935 27.89639122 71.31951729 26.72265625 68.01171875 C26.35140625 67.31046875 25.98015625 66.60921875 25.59765625 65.88671875 C24.72265625 64.01171875 24.72265625 64.01171875 24.72265625 62.01171875 C23.07265625 61.35171875 21.42265625 60.69171875 19.72265625 60.01171875 C19.72265625 59.35171875 19.72265625 58.69171875 19.72265625 58.01171875 C19.06265625 57.35171875 18.40265625 56.69171875 17.72265625 56.01171875 C14.72265625 52.31941106 14.72265625 52.31941106 14.72265625 50.01171875 C13.79453125 49.82609375 13.79453125 49.82609375 12.84765625 49.63671875 C10.72265625 49.01171875 10.72265625 49.01171875 8.72265625 47.01171875 C5.69616691 46.76777278 5.69616691 46.76777278 2.28515625 46.88671875 C0.55458984 46.91378906 0.55458984 46.91378906 -1.2109375 46.94140625 C-2.22285156 46.96460938 -3.23476562 46.9878125 -4.27734375 47.01171875 C-5.26734375 47.01171875 -6.25734375 47.01171875 -7.27734375 47.01171875 C-9.29410955 48.65805818 -11.29473949 50.32439598 -13.27734375 52.01171875 C-13.93734375 52.01171875 -14.59734375 52.01171875 -15.27734375 52.01171875 C-15.27734375 52.67171875 -15.27734375 53.33171875 -15.27734375 54.01171875 C-16.94401042 55.67838542 -18.61067708 57.34505208 -20.27734375 59.01171875 C-22.50594394 61.87617994 -24.65200968 64.76105061 -26.27734375 68.01171875 C-27.92222669 69.69988808 -29.59071917 71.3652519 -31.27734375 73.01171875 C-31.83421875 73.60984375 -32.39109375 74.20796875 -32.96484375 74.82421875 C-34.27734375 76.01171875 -34.27734375 76.01171875 -36.27734375 76.01171875 C-36.27734375 76.67171875 -36.27734375 77.33171875 -36.27734375 78.01171875 C-37.94401042 79.67838542 -39.61067708 81.34505208 -41.27734375 83.01171875 C-41.27734375 83.67171875 -41.27734375 84.33171875 -41.27734375 85.01171875 C-41.89609375 85.09421875 -42.51484375 85.17671875 -43.15234375 85.26171875 C-45.46171942 85.82430334 -45.46171942 85.82430334 -46.52734375 88.07421875 C-46.77484375 88.71359375 -47.02234375 89.35296875 -47.27734375 90.01171875 C-46.87228044 83.27849653 -44.92390975 78.86960285 -41.58984375 73.07421875 C-35.85020361 62.61129064 -31.87116184 52.12510961 -28.828125 40.59765625 C-24.11266444 22.79146773 -24.11266444 22.79146773 -17.27734375 16.01171875 C-15.75339988 14.28529283 -14.23269912 12.55600005 -12.71484375 10.82421875 C-11.23720974 9.2186402 -9.7581628 7.61436021 -8.27734375 6.01171875 C-7.70628906 5.35171875 -7.13523438 4.69171875 -6.546875 4.01171875 C-2.94813131 0.01517049 -2.94813131 0.01517049 0 0 Z M-12.27734375 16.01171875 C-18.21045323 23.13891316 -23.21791848 29.47689131 -24.27734375 39.01171875 C-23.94734375 39.67171875 -23.61734375 40.33171875 -23.27734375 41.01171875 C-20.82526734 38.55964234 -19.67076181 36.17857798 -18.27734375 33.01171875 C-18.27734375 31.69171875 -18.27734375 30.37171875 -18.27734375 29.01171875 C-17.61734375 28.35171875 -16.95734375 27.69171875 -16.27734375 27.01171875 C-15.21369526 25.48513516 -14.17414017 23.94162635 -13.15234375 22.38671875 C-12.61351562 21.56945312 -12.0746875 20.7521875 -11.51953125 19.91015625 C-11.10960937 19.28367187 -10.6996875 18.6571875 -10.27734375 18.01171875 C-10.93734375 17.35171875 -11.59734375 16.69171875 -12.27734375 16.01171875 Z M-10.27734375 46.01171875 C-9.27734375 48.01171875 -9.27734375 48.01171875 -9.27734375 48.01171875 Z M-31.27734375 65.01171875 C-30.94734375 65.67171875 -30.61734375 66.33171875 -30.27734375 67.01171875 C-29.94734375 66.35171875 -29.61734375 65.69171875 -29.27734375 65.01171875 C-29.93734375 65.01171875 -30.59734375 65.01171875 -31.27734375 65.01171875 Z M-33.27734375 68.01171875 C-32.27734375 70.01171875 -32.27734375 70.01171875 -32.27734375 70.01171875 Z M-34.27734375 70.01171875 C-33.27734375 72.01171875 -33.27734375 72.01171875 -33.27734375 72.01171875 Z " fill="#0F0F0F" transform="translate(107.27734375,4.98828125)"/>
<path d="M0 0 C0.99 0 1.98 0 3 0 C2.67 1.32 2.34 2.64 2 4 C6.95 4 11.9 4 17 4 C17.66 5.32 18.32 6.64 19 8 C19.99 8.66 20.98 9.32 22 10 C22 10.99 22 11.98 22 13 C16.66666667 13 11.33333333 13 6 13 C4.948125 13.2784375 4.948125 13.2784375 3.875 13.5625 C3.25625 13.706875 2.6375 13.85125 2 14 C1.67 13.67 1.34 13.34 1 13 C0.34 13.66 -0.32 14.32 -1 15 C-2.5 13.6875 -2.5 13.6875 -4 12 C-4 11.01 -4 10.02 -4 9 C-3.195625 9.020625 -2.39125 9.04125 -1.5625 9.0625 C0.93354885 9.29633621 0.93354885 9.29633621 2 8 C1.34 7.67 0.68 7.34 0 7 C0 4.69 0 2.38 0 0 Z " fill="#282828" transform="translate(93,174)"/>
<path d="M0 0 C0.33 0 0.66 0 1 0 C1 1.65 1 3.3 1 5 C1.99 5.33 2.98 5.66 4 6 C5.04980354 8.28591025 5.89798062 10.43917134 6.6875 12.8125 C7.12449219 14.05644531 7.56148438 15.30039062 8.01171875 16.58203125 C9 20 9 20 9 24 C9.66 24.33 10.32 24.66 11 25 C10.67 25.66 10.34 26.32 10 27 C10.66 27 11.32 27 12 27 C12.37125 25.081875 12.37125 25.081875 12.75 23.125 C13.91775177 17.93590586 15.32336574 12.62725334 18 8 C20.1328125 6.71484375 20.1328125 6.71484375 22 6 C22 6.99 22 7.98 22 9 C21.34 9 20.68 9 20 9 C19.85739746 9.57290771 19.71479492 10.14581543 19.56787109 10.73608398 C18.61865492 14.52029791 17.6309965 18.29300717 16.625 22.0625 C16.41617188 22.87783203 16.20734375 23.69316406 15.9921875 24.53320312 C15.78078125 25.31759766 15.569375 26.10199219 15.3515625 26.91015625 C15.07046631 27.97955444 15.07046631 27.97955444 14.78369141 29.07055664 C13.88964664 31.27168929 12.77047896 32.4435786 11 34 C9 33 9 33 8.10546875 30.48046875 C7.80253906 29.39378906 7.49960938 28.30710937 7.1875 27.1875 C5.82717016 22.50591201 4.2510265 18.13170615 2.25 13.6875 C0.12450573 8.7930132 -0.50904355 5.2940529 0 0 Z " fill="#272727" transform="translate(96,337)"/>
<path d="M0 0 C1.32 0 2.64 0 4 0 C4 0.66 4 1.32 4 2 C4.66 1.34 5.32 0.68 6 0 C8.5 -0.25 8.5 -0.25 11 0 C12.95216435 1.95216435 13.84826645 3.53199953 15 6 C15.99 6 16.98 6 18 6 C18 6.66 18 7.32 18 8 C20.97 8.495 20.97 8.495 24 9 C23.01 10.485 23.01 10.485 22 12 C21.31808594 11.67128906 20.63617188 11.34257812 19.93359375 11.00390625 C16.46301927 9.81623962 13.72203564 9.83816407 10.0625 9.9375 C5.54399681 10.0505855 1.44006097 9.87445476 -3 9 C-2.34 8.01 -1.68 7.02 -1 6 C-1 5.01 -1 4.02 -1 3 C-0.01 2.67 0.98 2.34 2 2 C1.34 1.34 0.68 0.68 0 0 Z " fill="#131313" transform="translate(98,169)"/>
<path d="M0 0 C-1.39066595 2.21173451 -2.78730679 4.41930737 -4.1875 6.625 C-4.57486328 7.24246094 -4.96222656 7.85992187 -5.36132812 8.49609375 C-7.97805127 12.60499787 -10.81007164 16.31713422 -14 20 C-14.33 19.01 -14.66 18.02 -15 17 C-14.34 17 -13.68 17 -13 17 C-13 16.01 -13 15.02 -13 14 C-12.34 14 -11.68 14 -11 14 C-10.731875 13.278125 -10.46375 12.55625 -10.1875 11.8125 C-9.01017502 9.02409874 -7.60854116 6.55904276 -6 4 C-6.69867188 4.28875 -7.39734375 4.5775 -8.1171875 4.875 C-9.02726562 5.24625 -9.93734375 5.6175 -10.875 6 C-11.77992188 6.37125 -12.68484375 6.7425 -13.6171875 7.125 C-16 8 -16 8 -18 8 C-18.2475 8.70125 -18.495 9.4025 -18.75 10.125 C-20.17180238 13.39514548 -21.87246288 16.141122 -24 19 C-24.66 19 -25.32 19 -26 19 C-26.2475 19.53625 -26.495 20.0725 -26.75 20.625 C-30.85714286 28.42857143 -30.85714286 28.42857143 -34 30 C-34.495 31.485 -34.495 31.485 -35 33 C-36.485 33.495 -36.485 33.495 -38 34 C-36.55956804 29.67870413 -34.37514503 26.76883035 -31.4375 23.3125 C-28.40830054 19.86183949 -28.40830054 19.86183949 -26 16 C-25.34 16 -24.68 16 -24 16 C-23.62875 14.9171875 -23.62875 14.9171875 -23.25 13.8125 C-20.41615101 7.43633978 -16.56737171 4.84413306 -10.4375 2.125 C-9.42913086 1.64546875 -9.42913086 1.64546875 -8.40039062 1.15625 C-3.39317462 -1.13105821 -3.39317462 -1.13105821 0 0 Z " fill="#404040" transform="translate(211,53)"/>
<path d="M0 0 C0.33 0 0.66 0 1 0 C1 22.77 1 45.54 1 69 C0.01 69.495 0.01 69.495 -1 70 C-1.02322795 61.90671877 -1.04096821 53.81345161 -1.05181217 45.72014523 C-1.05701819 41.96161148 -1.0640742 38.20310064 -1.07543945 34.44458008 C-1.08634967 30.81358682 -1.092294 27.18261552 -1.09487724 23.55160713 C-1.09671688 22.17021909 -1.10030912 20.78883217 -1.10573006 19.40745354 C-1.11304849 17.46427469 -1.11340898 15.52107349 -1.11352539 13.57788086 C-1.115746 12.47423691 -1.11796661 11.37059296 -1.12025452 10.23350525 C-0.99128109 6.76555843 -0.54653225 3.4249501 0 0 Z " fill="#999999" transform="translate(107,218)"/>
<path d="M0 0 C5.94 0 11.88 0 18 0 C18 0.33 18 0.66 18 1 C14.37 1.33 10.74 1.66 7 2 C7.33 2.33 7.66 2.66 8 3 C10.03005482 3 12.06064427 2.99642412 14.08984375 2.9375 C16 3 16 3 18 4 C18 3.34 18 2.68 18 2 C19.65 1.67 21.3 1.34 23 1 C23 2.32 23 3.64 23 5 C21.22978678 5.336611 19.45880326 5.66917293 17.6875 6 C16.70136719 6.185625 15.71523437 6.37125 14.69921875 6.5625 C10.51036122 7.24144652 6.96427501 6.71428387 2.8125 6 C1.72582031 5.814375 0.63914062 5.62875 -0.48046875 5.4375 C-1.72763672 5.2209375 -1.72763672 5.2209375 -3 5 C-2.67 4.01 -2.34 3.02 -2 2 C-2 2.66 -2 3.32 -2 4 C-1.34 3.67 -0.68 3.34 0 3 C0 2.01 0 1.02 0 0 Z " fill="#1E1E1E" transform="translate(97,208)"/>
<path d="M0 0 C2.20665404 3.30998105 2.78262095 5.82021436 3.625 9.6875 C3.88539063 10.86699219 4.14578125 12.04648438 4.4140625 13.26171875 C4.60742188 14.16535156 4.80078125 15.06898438 5 16 C4.01 16 3.02 16 2 16 C-2.23632385 7.14223195 -2.23632385 7.14223195 -1.25 2.375 C-0.8375 1.59125 -0.425 0.8075 0 0 Z " fill="#2B2B2B" transform="translate(190,145)"/>
<path d="M0 0 C0.99 0.33 1.98 0.66 3 1 C1.625 3 1.625 3 0 5 C-0.66 5 -1.32 5 -2 5 C-2.2475 5.53625 -2.495 6.0725 -2.75 6.625 C-6.85714286 14.42857143 -6.85714286 14.42857143 -10 16 C-10.33 16.99 -10.66 17.98 -11 19 C-11.99 19.33 -12.98 19.66 -14 20 C-12.55956804 15.67870413 -10.37514503 12.76883035 -7.4375 9.3125 C-4.40830054 5.86183949 -4.40830054 5.86183949 -2 2 C-1.34 2 -0.68 2 0 2 C0 1.34 0 0.68 0 0 Z " fill="#545454" transform="translate(187,67)"/>
<path d="M0 0 C-0.33 1.32 -0.66 2.64 -1 4 C-1.66 4 -2.32 4 -3 4 C-3 4.66 -3 5.32 -3 6 C-3.66 6 -4.32 6 -5 6 C-5 6.66 -5 7.32 -5 8 C-6.32 8.33 -7.64 8.66 -9 9 C-9 9.99 -9 10.98 -9 12 C-9.99 11.67 -10.98 11.34 -12 11 C-5.09302326 0 -5.09302326 0 0 0 Z " fill="#3E3E3E" transform="translate(25,184)"/>
<path d="M0 0 C0.33 0.66 0.66 1.32 1 2 C1.99 1.67 2.98 1.34 4 1 C3.1875 2.9375 3.1875 2.9375 2 5 C1.01 5.33 0.02 5.66 -1 6 C-1 6.99 -1 7.98 -1 9 C0.27875 8.690625 1.5575 8.38125 2.875 8.0625 C3.59429688 7.88847656 4.31359375 7.71445313 5.0546875 7.53515625 C7.0585657 7.05153008 7.0585657 7.05153008 9 6 C8 9 8 9 6 10 C3.3276379 10.13415472 0.67749512 10.04318541 -2 10 C-2 9.01 -2 8.02 -2 7 C-2.66 6.67 -3.32 6.34 -4 6 C-3.34 6 -2.68 6 -2 6 C-2 5.34 -2 4.68 -2 4 C-1.34 4 -0.68 4 0 4 C0 2.68 0 1.36 0 0 Z " fill="#4A4A4A" transform="translate(18,158)"/>
<path d="M0 0 C0.33 0 0.66 0 1 0 C1 1.65 1 3.3 1 5 C1.99 5.33 2.98 5.66 4 6 C5.1875 9.5625 5.1875 9.5625 6 13 C5.34 13 4.68 13 4 13 C3.67 13.66 3.34 14.32 3 15 C0.31780178 9.63560356 -0.3152595 5.98993047 0 0 Z " fill="#383838" transform="translate(96,337)"/>
<path d="M0 0 C0.66 0.33 1.32 0.66 2 1 C-0.02207842 3.93201371 -1.96562488 6.10351555 -5 8 C-5.99 8 -6.98 8 -8 8 C-8.33 8.66 -8.66 9.32 -9 10 C-9 8.35 -9 6.7 -9 5 C-7.54735962 4.1361871 -6.0876837 3.28419546 -4.625 2.4375 C-3.40683594 1.72400391 -3.40683594 1.72400391 -2.1640625 0.99609375 C-1.44992188 0.66738281 -0.73578125 0.33867188 0 0 Z " fill="#232323" transform="translate(41,107)"/>
<path d="M0 0 C0 0.99 0 1.98 0 3 C-0.66 3 -1.32 3 -2 3 C-2.12375 3.515625 -2.2475 4.03125 -2.375 4.5625 C-3.18641628 7.72702351 -4.0945913 10.86124985 -5 14 C-5.99 14 -6.98 14 -8 14 C-7.79503906 13.39671875 -7.59007813 12.7934375 -7.37890625 12.171875 C-6.97478516 10.97304688 -6.97478516 10.97304688 -6.5625 9.75 C-6.29566406 8.96109375 -6.02882813 8.1721875 -5.75390625 7.359375 C-4.96957954 5.04130241 -4.96957954 5.04130241 -4.52734375 2.765625 C-4.35332031 2.18296875 -4.17929688 1.6003125 -4 1 C-2 0 -2 0 0 0 Z " fill="#474747" transform="translate(118,343)"/>
<path d="M0 0 C5.94 0 11.88 0 18 0 C18 0.33 18 0.66 18 1 C12.555 1.495 12.555 1.495 7 2 C7.33 2.66 7.66 3.32 8 4 C2.25 4.125 2.25 4.125 0 3 C0 2.01 0 1.02 0 0 Z " fill="#5E5E5E" transform="translate(97,208)"/>
<path d="M0 0 C0.66 0.99 1.32 1.98 2 3 C-2.95 9.435 -2.95 9.435 -8 16 C-8.33 15.01 -8.66 14.02 -9 13 C-8.34 13 -7.68 13 -7 13 C-7 12.01 -7 11.02 -7 10 C-6.34 10 -5.68 10 -5 10 C-4.731875 9.278125 -4.46375 8.55625 -4.1875 7.8125 C-3.01017502 5.02409874 -1.60854116 2.55904276 0 0 Z " fill="#555555" transform="translate(205,57)"/>
<path d="M0 0 C0.66 0 1.32 0 2 0 C5 6.5 5 6.5 5 11 C4.34 11 3.68 11 3 11 C0.84694043 7.14243493 -0.39253254 4.44870215 0 0 Z " fill="#1A1A1A" transform="translate(100,350)"/>
<path d="M0 0 C0.99 0.33 1.98 0.66 3 1 C3.3721042 2.32303717 3.70630173 3.65737935 4 5 C4.66 5.33 5.32 5.66 6 6 C6.66 6.66 7.32 7.32 8 8 C7.67 8.99 7.34 9.98 7 11 C5.62437146 9.71034824 4.29233607 8.37310707 3 7 C3 6.34 3 5.68 3 5 C2.34 5 1.68 5 1 5 C0.67 3.35 0.34 1.7 0 0 Z " fill="#959595" transform="translate(61,288)"/>
<path d="M0 0 C1.32 0.66 2.64 1.32 4 2 C4 2.66 4 3.32 4 4 C4.66 4.33 5.32 4.66 6 5 C5.278125 4.7525 4.55625 4.505 3.8125 4.25 C0.8205652 3.68262931 0.8205652 3.68262931 -1.8125 5.9375 C-2.8953125 6.9584375 -2.8953125 6.9584375 -4 8 C-4 7.01 -4 6.02 -4 5 C-3.34 5 -2.68 5 -2 5 C-2 4.34 -2 3.68 -2 3 C-1.34 3 -0.68 3 0 3 C0 2.01 0 1.02 0 0 Z " fill="#2C2C2C" transform="translate(149,93)"/>
<path d="M0 0 C0.99 0 1.98 0 3 0 C2.69381595 3.67420866 2.24228216 4.78135513 -0.5625 7.3125 C-1.366875 7.869375 -2.17125 8.42625 -3 9 C-3.33 8.01 -3.66 7.02 -4 6 C-3.01 5.67 -2.02 5.34 -1 5 C-0.67 3.35 -0.34 1.7 0 0 Z " fill="#474747" transform="translate(75,72)"/>
<path d="M0 0 C1.5 1.375 1.5 1.375 3 3 C3 3.66 3 4.32 3 5 C3.66 5 4.32 5 5 5 C5.33 6.32 5.66 7.64 6 9 C3.15616877 7.7251791 0.86245982 6.54862922 -1 4 C-0.6875 1.8125 -0.6875 1.8125 0 0 Z " fill="#878787" transform="translate(81,311)"/>
<path d="M0 0 C0 1.32 0 2.64 0 4 C-3.3 4 -6.6 4 -10 4 C-10 3.34 -10 2.68 -10 2 C-7.525 2.495 -7.525 2.495 -5 3 C-5 2.34 -5 1.68 -5 1 C-2 0 -2 0 0 0 Z " fill="#555555" transform="translate(120,209)"/>
<path d="M0 0 C0.66 0 1.32 0 2 0 C2.53229326 1.26607607 3.05044544 2.53810412 3.5625 3.8125 C3.85253906 4.52019531 4.14257812 5.22789062 4.44140625 5.95703125 C5 8 5 8 4 11 C4 10.34 4 9.68 4 9 C3.34 9 2.68 9 2 9 C1.01 6.36 0.02 3.72 -1 1 C-0.67 0.67 -0.34 0.34 0 0 Z " fill="#4B4B4B" transform="translate(197,175)"/>
<path d="M0 0 C0.33 0 0.66 0 1 0 C1 7.59 1 15.18 1 23 C0.67 23 0.34 23 0 23 C0 15.41 0 7.82 0 0 Z " fill="#E1E1E1" transform="translate(106,290)"/>
<path d="M0 0 C0.33 0.66 0.66 1.32 1 2 C1.99 2 2.98 2 4 2 C4 2.66 4 3.32 4 4 C6.97 4.495 6.97 4.495 10 5 C9.01 6.485 9.01 6.485 8 8 C4.67689517 6.83242263 2.16638868 5.85051143 0 3 C0 2.01 0 1.02 0 0 Z " fill="#3B3B3B" transform="translate(112,173)"/>
<path d="M0 0 C-0.33 0.99 -0.66 1.98 -1 3 C-1.99 3.33 -2.98 3.66 -4 4 C-4 5.32 -4 6.64 -4 8 C-4.66 8 -5.32 8 -6 8 C-6.66 5.69 -7.32 3.38 -8 1 C-5.29120665 -0.35439668 -2.99066732 -0.06501451 0 0 Z " fill="#2C2C2C" transform="translate(55,100)"/>
<path d="M0 0 C2.35981813 0.93578995 4.69631264 1.93347808 7 3 C7 3.66 7 4.32 7 5 C4.03 4.67 1.06 4.34 -2 4 C-2 3.01 -2 2.02 -2 1 C-1.34 0.67 -0.68 0.34 0 0 Z " fill="#5F5F5F" transform="translate(107,85)"/>
<path d="M0 0 C0.33 0 0.66 0 1 0 C1.05383848 2.45862401 1.09359038 4.9160755 1.125 7.375 C1.14175781 8.07367188 1.15851563 8.77234375 1.17578125 9.4921875 C1.19344267 11.32897486 1.10303261 13.16601963 1 15 C0.34 15.66 -0.32 16.32 -1 17 C-0.67 11.39 -0.34 5.78 0 0 Z " fill="#9A9A9A" transform="translate(107,323)"/>
<path d="M0 0 C4.875 4.75 4.875 4.75 6 7 C5.34 7.66 4.68 8.32 4 9 C0 4.5 0 4.5 0 0 Z " fill="#4A4A4A" transform="translate(185,130)"/>
<path d="M0 0 C0.66 0.33 1.32 0.66 2 1 C0.55746343 4.36591866 -1.33264727 6.51047079 -4 9 C-3.35455571 5.51460083 -1.89865603 2.97180943 0 0 Z " fill="#4D4D4D" transform="translate(27,130)"/>
<path d="M0 0 C0 3 0 3 -2.375 5.6875 C-5 8 -5 8 -7 8 C-5.50902342 4.2047869 -3.24299151 2.38957269 0 0 Z " fill="#3B3B3B" transform="translate(12,173)"/>
<path d="M0 0 C0.66 0 1.32 0 2 0 C2.66 1.65 3.32 3.3 4 5 C3.34 5 2.68 5 2 5 C1.67 5.66 1.34 6.32 1 7 C0.67 4.69 0.34 2.38 0 0 Z " fill="#2E2E2E" transform="translate(98,345)"/>
<path d="M0 0 C0.99 0 1.98 0 3 0 C2.67 1.32 2.34 2.64 2 4 C2.66 4.33 3.32 4.66 4 5 C3.67 5.66 3.34 6.32 3 7 C2.01 7 1.02 7 0 7 C0 4.69 0 2.38 0 0 Z " fill="#7F7F7F" transform="translate(93,174)"/>
<path d="M0 0 C0.66 0 1.32 0 2 0 C2 0.66 2 1.32 2 2 C2.66 2.33 3.32 2.66 4 3 C1.36 3.99 -1.28 4.98 -4 6 C-4 5.34 -4 4.68 -4 4 C-3.34 4 -2.68 4 -2 4 C-2 3.34 -2 2.68 -2 2 C-1.34 2 -0.68 2 0 2 C0 1.34 0 0.68 0 0 Z " fill="#696969" transform="translate(122,73)"/>
<path d="M0 0 C2 2 2 2 2.125 4.625 C2.08375 5.40875 2.0425 6.1925 2 7 C1.01 7.495 1.01 7.495 0 8 C0 5.36 0 2.72 0 0 Z " fill="#ACACAC" transform="translate(106,341)"/>
<path d="M0 0 C0.99 0.33 1.98 0.66 3 1 C2.67 1.99 2.34 2.98 2 4 C1.34 4 0.68 4 0 4 C-0.33 3.01 -0.66 2.02 -1 1 C-0.67 0.67 -0.34 0.34 0 0 Z " fill="#929292" transform="translate(109,81)"/>
<path d="M0 0 C1.98 0 3.96 0 6 0 C4.02 0.99 4.02 0.99 2 2 C1.34 1.34 0.68 0.68 0 0 Z " fill="#6B6B6B" transform="translate(104,90)"/>
<path d="M0 0 C0.99 0.495 0.99 0.495 2 1 C1.67 2.32 1.34 3.64 1 5 C0.67 5 0.34 5 0 5 C0 3.35 0 1.7 0 0 Z " fill="#C1C1C1" transform="translate(106,350)"/>
<path d="M0 0 C1.32 0.33 2.64 0.66 4 1 C3.01 1.33 2.02 1.66 1 2 C0.67 1.34 0.34 0.68 0 0 Z " fill="#828282" transform="translate(100,88)"/>
<path d="M0 0 C0.99 0.33 1.98 0.66 3 1 C2.01 1 1.02 1 0 1 C0 0.67 0 0.34 0 0 Z " fill="#BFBFBF" transform="translate(87,320)"/>
<path d="M0 0 C0.99 0.495 0.99 0.495 2 1 C1.01 1.495 1.01 1.495 0 2 C0 1.34 0 0.68 0 0 Z " fill="#6E6E6E" transform="translate(195,163)"/>
<path d="" fill="#BFBFBF" transform="translate(0,0)"/>
<path d="M0 0 C2 1 2 1 2 1 Z " fill="#888888" transform="translate(33,190)"/>
<path d="" fill="#E3E3E3" transform="translate(0,0)"/>
<path d="M0 0 C2 1 2 1 2 1 Z " fill="#A9A9A9" transform="translate(104,83)"/>
<path d="M0 0 C2 1 2 1 2 1 Z " fill="#B6B6B6" transform="translate(104,81)"/>
<path d="M0 0 C2 1 2 1 2 1 Z " fill="#D0D0D0" transform="translate(115,79)"/>
<path d="" fill="#EDEDED" transform="translate(0,0)"/>
<path d="" fill="#E7E7E7" transform="translate(0,0)"/>
<path d="" fill="#BCBCBC" transform="translate(0,0)"/>
<path d="" fill="#E5E5E5" transform="translate(0,0)"/>
<path d="" fill="#898989" transform="translate(0,0)"/>
<path d="" fill="#898989" transform="translate(0,0)"/>
<path d="" fill="#D6D6D6" transform="translate(0,0)"/>
<path d="" fill="#8C8C8C" transform="translate(0,0)"/>
<path d="" fill="#DEDEDE" transform="translate(0,0)"/>
<path d="" fill="#DEDEDE" transform="translate(0,0)"/>
<path d="" fill="#888888" transform="translate(0,0)"/>
<path d="" fill="#EEEEEE" transform="translate(0,0)"/>
<path d="" fill="#EEEEEE" transform="translate(0,0)"/>
<path d="" fill="#E7E7E7" transform="translate(0,0)"/>
<path d="" fill="#E8E8E8" transform="translate(0,0)"/>
<path d="" fill="#E4E4E4" transform="translate(0,0)"/>
<path d="" fill="#6A6A6A" transform="translate(0,0)"/>
<path d="" fill="#E7E7E7" transform="translate(0,0)"/>
<path d="" fill="#6C6C6C" transform="translate(0,0)"/>
<path d="" fill="#EAEAEA" transform="translate(0,0)"/>
<path d="" fill="#E9E9E9" transform="translate(0,0)"/>
<path d="" fill="#EEEEEE" transform="translate(0,0)"/>
<path d="" fill="#EDEDED" transform="translate(0,0)"/>
<path d="" fill="#E6E6E6" transform="translate(0,0)"/>
<path d="" fill="#EAEAEA" transform="translate(0,0)"/>
<path d="" fill="#E4E4E4" transform="translate(0,0)"/>
<path d="" fill="#E3E3E3" transform="translate(0,0)"/>
<path d="" fill="#E2E2E2" transform="translate(0,0)"/>
<path d="" fill="#E1E1E1" transform="translate(0,0)"/>
<path d="" fill="#5D5D5D" transform="translate(0,0)"/>
<path d="" fill="#8E8E8E" transform="translate(0,0)"/>
<path d="" fill="#B3B3B3" transform="translate(0,0)"/>
<path d="" fill="#BCBCBC" transform="translate(0,0)"/>
<path d="" fill="#E1E1E1" transform="translate(0,0)"/>
<path d="" fill="#BDBDBD" transform="translate(0,0)"/>
</svg>
