<?xml version="1.0" standalone="no"?>
<!DOCTYPE svg PUBLIC "-//W3C//DTD SVG 20010904//EN"
 "http://www.w3.org/TR/2001/REC-SVG-20010904/DTD/svg10.dtd">
<svg version="1.0" xmlns="http://www.w3.org/2000/svg"
 width="284.000000pt" height="352.000000pt" viewBox="0 0 284.000000 352.000000"
 preserveAspectRatio="xMidYMid meet">
<metadata>
Created by potrace 1.16, written by Peter Selinger 2001-2019
</metadata>
<g transform="translate(0.000000,352.000000) scale(0.100000,-0.100000)"
fill="#000000" stroke="none">
<path d="M440 3444 c0 -75 0 -76 24 -70 20 5 24 2 28 -22 8 -49 112 -367 123
-374 5 -4 18 -8 29 -8 21 0 23 -8 -34 150 -23 63 -52 144 -65 180 -12 36 -26
73 -30 83 -5 12 -2 17 9 17 23 0 20 13 -10 41 -14 13 -32 36 -40 52 -24 45
-34 31 -34 -49z"/>
<path d="M515 3510 c3 -5 10 -10 16 -10 5 0 9 5 9 10 0 6 -7 10 -16 10 -8 0
-12 -4 -9 -10z"/>
<path d="M444 3225 c-4 -8 -3 -23 0 -32 6 -15 8 -15 22 -2 8 9 12 23 8 32 -8
21 -23 22 -30 2z"/>
<path d="M488 3156 c-3 -15 0 -27 8 -30 21 -8 27 12 11 34 -14 21 -15 21 -19
-4z"/>
<path d="M484 3089 c-10 -17 13 -36 27 -22 12 12 4 33 -11 33 -5 0 -12 -5 -16
-11z"/>
<path d="M1200 3066 c-109 -19 -194 -43 -264 -72 -76 -32 -175 -64 -198 -64
-11 0 -18 -8 -18 -20 0 -11 5 -20 10 -20 6 0 43 9 82 20 76 21 212 27 238 10
16 -10 22 -7 -65 -34 -27 -8 -61 -14 -75 -14 -39 1 -144 -45 -148 -64 -2 -9 6
-26 16 -36 22 -22 48 -103 62 -189 11 -65 15 -72 38 -66 10 2 25 -3 32 -12 12
-15 12 -21 -3 -48 -18 -31 -12 -46 19 -47 27 0 37 -33 38 -133 2 -111 -2 -127
-45 -172 -28 -30 -28 -31 -13 -74 21 -62 35 -84 44 -75 17 18 108 241 133 329
15 50 40 147 57 217 16 70 36 144 44 163 20 48 91 137 166 210 77 74 63 44
-39 -83 -43 -53 -83 -107 -90 -119 -6 -13 -13 -87 -16 -175 -6 -174 -11 -216
-33 -241 -20 -22 -37 -52 -58 -102 -10 -22 -39 -83 -66 -135 -26 -52 -48 -98
-48 -103 0 -25 32 13 119 143 91 137 99 146 160 179 64 34 64 34 98 15 20 -10
38 -24 40 -31 8 -20 27 -15 54 13 44 47 53 48 135 8 61 -29 81 -45 101 -78 14
-22 68 -115 122 -205 53 -91 102 -166 109 -169 26 -8 9 38 -49 138 -60 102
-124 214 -146 255 -6 11 -15 33 -19 49 -7 22 -34 46 -102 93 -51 34 -98 63
-106 63 -7 0 -18 -11 -24 -25 -6 -14 -15 -25 -19 -25 -5 0 -9 135 -11 301 -1
165 -4 305 -8 310 -3 5 -1 9 4 9 13 0 220 -228 237 -261 14 -26 67 -229 80
-304 16 -93 182 -461 221 -489 13 -10 15 -21 10 -47 -11 -59 -104 -199 -193
-289 -46 -46 -83 -88 -83 -92 0 -19 30 -3 95 50 137 114 261 279 248 331 -6
26 -6 26 28 0 19 -14 44 -46 57 -70 33 -62 47 -76 124 -116 37 -19 68 -41 68
-48 0 -6 -5 -26 -11 -43 -10 -28 -6 -40 33 -113 46 -87 116 -174 148 -184 18
-6 19 -13 14 -59 -5 -38 -2 -61 9 -82 20 -39 107 -119 117 -108 4 5 26 56 48
114 140 367 135 718 -17 1087 -21 51 -63 132 -92 179 -206 329 -512 550 -879
636 -111 25 -409 34 -520 14z m244 -716 c7 -24 6 -24 -8 -6 -9 11 -16 27 -16
35 0 21 16 2 24 -29z m109 -12 c49 -26 128 -80 124 -84 -3 -3 -43 14 -90 38
-86 42 -86 42 -111 19 -15 -14 -32 -21 -40 -18 -25 10 -19 28 7 22 16 -4 29 0
41 14 22 24 38 26 69 9z"/>
<path d="M1895 3050 c-3 -5 1 -10 10 -10 9 0 13 5 10 10 -3 6 -8 10 -10 10 -2
0 -7 -4 -10 -10z"/>
<path d="M655 2948 c-34 -19 -55 -40 -49 -50 4 -6 9 -6 13 -1 3 4 19 13 36 18
16 6 31 18 33 28 4 20 -5 21 -33 5z"/>
<path d="M455 2819 c-119 -60 -141 -77 -171 -132 -27 -49 -4 -48 45 2 35 36
78 63 159 103 72 34 111 58 109 67 -1 8 -6 16 -12 17 -5 2 -64 -24 -130 -57z"/>
<path d="M345 2849 c-10 -15 1 -23 20 -15 9 3 13 10 10 16 -8 13 -22 13 -30
-1z"/>
<path d="M612 2809 c2 -7 10 -15 17 -17 8 -3 12 1 9 9 -2 7 -10 15 -17 17 -8
3 -12 -1 -9 -9z"/>
<path d="M678 2779 c-18 -10 -25 -39 -10 -39 10 0 72 39 72 45 0 9 -44 5 -62
-6z"/>
<path d="M567 2760 c-83 -25 -211 -147 -315 -302 -129 -191 -208 -417 -232
-667 -26 -260 40 -565 174 -805 35 -63 161 -239 174 -243 4 -2 48 36 97 85
106 102 313 285 392 344 55 42 55 42 26 61 -69 48 -225 227 -198 227 4 0 27
-16 52 -35 48 -36 125 -65 175 -65 32 0 78 21 97 44 16 20 8 20 -27 2 -42 -21
-72 -28 -72 -18 0 6 21 17 47 26 54 18 93 51 93 78 0 25 -12 23 -39 -8 -33
-38 -85 -57 -135 -49 -70 12 -111 33 -233 121 -26 18 -30 7 -12 -29 8 -17 5
-16 -15 6 -17 19 -26 40 -26 62 0 19 -4 36 -9 39 -4 3 -6 43 -4 88 3 46 5 98
4 117 -1 19 6 54 15 77 12 31 14 54 9 81 -10 45 -7 73 8 92 7 8 11 38 9 70 -3
69 34 196 73 246 26 35 26 35 7 63 -36 53 -87 195 -87 246 0 53 -5 59 -48 46z"/>
<path d="M706 2731 c-50 -18 -73 -41 -39 -41 29 1 105 39 98 50 -3 5 -7 10 -8
9 -1 0 -24 -8 -51 -18z"/>
<path d="M720 2680 c-40 -15 -66 -40 -43 -40 20 0 103 32 103 40 0 17 -16 17
-60 0z"/>
<path d="M738 2632 c-27 -8 -48 -22 -48 -29 0 -10 7 -12 22 -7 53 17 88 35 83
44 -3 6 -7 10 -8 9 -1 0 -23 -8 -49 -17z"/>
<path d="M731 2581 c-19 -10 -29 -21 -24 -24 12 -8 93 22 93 35 0 13 -33 8
-69 -11z"/>
<path d="M1504 2589 c-10 -17 13 -36 27 -22 12 12 4 33 -11 33 -5 0 -12 -5
-16 -11z"/>
<path d="M741 2529 c-31 -25 -24 -31 28 -23 31 5 41 11 41 25 0 25 -38 24 -69
-2z"/>
<path d="M2664 2429 c-10 -17 13 -36 27 -22 12 12 4 33 -11 33 -5 0 -12 -5
-16 -11z"/>
<path d="M165 2420 c-3 -5 -1 -10 4 -10 6 0 11 5 11 10 0 6 -2 10 -4 10 -3 0
-8 -4 -11 -10z"/>
<path d="M810 2410 c0 -23 29 -27 48 -8 19 19 14 28 -18 28 -23 0 -30 -4 -30
-20z"/>
<path d="M737 2393 c-11 -10 -8 -43 3 -43 6 0 10 11 10 25 0 26 -2 29 -13 18z"/>
<path d="M776 2364 c-4 -10 -1 -14 6 -12 15 5 23 28 10 28 -5 0 -13 -7 -16
-16z"/>
<path d="M120 2355 c0 -8 4 -15 9 -15 5 0 11 7 15 15 3 9 0 15 -9 15 -8 0 -15
-7 -15 -15z"/>
<path d="M832 2328 c3 -20 8 -23 42 -21 45 3 51 7 43 28 -4 10 -20 15 -47 15
-37 0 -41 -2 -38 -22z"/>
<path d="M680 2324 c0 -17 22 -14 28 4 2 7 -3 12 -12 12 -9 0 -16 -7 -16 -16z"/>
<path d="M750 2299 c-13 -24 -4 -41 10 -19 10 16 13 40 5 40 -2 0 -9 -9 -15
-21z"/>
<path d="M679 2288 c-5 -12 -7 -77 -4 -95 9 -41 104 -69 145 -43 23 14 2 25
-50 25 -53 0 -86 19 -61 35 11 6 12 12 3 22 -6 8 -9 24 -5 36 4 16 1 22 -11
22 -9 0 -16 -1 -17 -2z"/>
<path d="M2732 2266 c1 -10 8 -17 13 -17 15 1 12 24 -3 29 -9 3 -13 -2 -10
-12z"/>
<path d="M809 2243 c-8 -9 -8 -14 2 -18 21 -7 84 -1 82 8 -2 4 -3 11 -3 17 0
14 -68 9 -81 -7z"/>
<path d="M770 2224 c0 -8 5 -12 10 -9 6 4 8 11 5 16 -9 14 -15 11 -15 -7z"/>
<path d="M40 2195 c0 -9 5 -15 11 -13 14 5 14 21 0 26 -6 2 -11 -4 -11 -13z"/>
<path d="M1296 2201 c-3 -5 0 -11 8 -14 15 -6 26 1 26 15 0 11 -27 10 -34 -1z"/>
<path d="M1480 2186 c0 -7 7 -19 15 -26 13 -11 15 -8 15 14 0 16 -5 26 -15 26
-8 0 -15 -6 -15 -14z"/>
<path d="M1230 2160 c0 -5 5 -10 10 -10 6 0 10 5 10 10 0 6 -4 10 -10 10 -5 0
-10 -4 -10 -10z"/>
<path d="M1415 2133 c-44 -80 -129 -102 -186 -47 -24 23 -32 26 -38 15 -20
-32 31 -101 74 -101 16 0 75 -57 75 -72 0 -17 -39 -7 -53 15 -16 22 -16 22
-16 -1 -1 -38 48 -131 95 -180 40 -41 46 -44 79 -39 20 3 44 12 52 19 35 28
102 127 114 166 14 48 4 68 -18 35 -9 -13 -22 -23 -29 -23 -12 0 -12 5 1 31
10 19 32 37 61 49 34 15 49 28 60 56 21 51 5 65 -36 30 -56 -47 -140 -27 -185
43 -14 23 -26 41 -28 41 -1 0 -11 -17 -22 -37z m48 -60 c20 -40 29 -81 18 -88
-5 -3 -12 -2 -15 3 -3 5 -19 7 -37 4 -31 -5 -31 -4 -24 29 18 84 35 98 58 52z
m-63 -162 c0 -9 56 -7 103 5 49 12 28 -26 -23 -41 -14 -4 -28 -12 -32 -18 -4
-7 -20 0 -42 17 -38 29 -46 46 -21 46 8 0 15 -4 15 -9z"/>
<path d="M710 2095 c0 -14 5 -25 10 -25 6 0 10 11 10 25 0 14 -4 25 -10 25 -5
0 -10 -11 -10 -25z"/>
<path d="M836 2111 c-4 -7 -5 -15 -2 -18 9 -9 19 4 14 18 -4 11 -6 11 -12 0z"/>
<path d="M1295 2111 c-7 -12 12 -24 25 -16 11 7 4 25 -10 25 -5 0 -11 -4 -15
-9z"/>
<path d="M1575 2110 c-3 -5 1 -10 9 -10 9 0 16 5 16 10 0 6 -4 10 -9 10 -6 0
-13 -4 -16 -10z"/>
<path d="M2794 2106 c-4 -10 -2 -22 4 -28 8 -8 13 -7 18 6 4 10 2 22 -4 28 -8
8 -13 7 -18 -6z"/>
<path d="M750 2090 c0 -11 5 -20 10 -20 6 0 10 9 10 20 0 11 -4 20 -10 20 -5
0 -10 -9 -10 -20z"/>
<path d="M620 2035 c0 -16 27 -32 37 -21 7 7 -16 36 -28 36 -5 0 -9 -7 -9 -15z"/>
<path d="M826 2032 c-3 -5 1 -15 9 -22 21 -17 27 -9 10 13 -7 10 -16 14 -19 9z"/>
<path d="M1136 1994 c-9 -43 6 -64 44 -64 33 0 39 6 33 31 -5 16 -11 19 -34
14 -18 -4 -29 -2 -29 4 0 6 7 11 15 11 13 0 13 3 3 20 -18 28 -25 25 -32 -16z"/>
<path d="M745 2010 c-7 -12 2 -30 16 -30 12 0 12 27 0 35 -5 3 -12 1 -16 -5z"/>
<path d="M624 1949 c7 -95 64 -139 179 -139 45 0 78 6 96 16 33 19 74 81 67
100 -9 22 -24 16 -41 -16 -31 -59 -121 -78 -195 -40 -41 21 -69 50 -34 36 24
-10 85 -25 102 -26 25 0 11 28 -20 40 -78 29 -108 44 -124 61 -27 30 -34 23
-30 -32z"/>
<path d="M843 1926 c11 -23 13 -23 29 -9 26 23 22 33 -11 33 -27 0 -28 -2 -18
-24z"/>
<path d="M1684 1909 c-8 -13 24 -41 41 -36 5 2 10 12 10 23 0 22 -39 32 -51
13z"/>
<path d="M1030 1885 c0 -8 5 -15 10 -15 6 0 10 7 10 15 0 8 -4 15 -10 15 -5 0
-10 -7 -10 -15z"/>
<path d="M600 1851 c0 -27 40 -82 79 -108 91 -61 209 -57 287 11 29 26 36 37
28 46 -9 9 -19 5 -40 -16 -45 -42 -85 -55 -139 -45 -47 9 -132 60 -175 106
-28 30 -40 32 -40 6z"/>
<path d="M1181 1848 c16 -33 91 -108 106 -108 21 0 15 27 -11 43 -13 9 -34 32
-46 51 -13 22 -30 36 -41 36 -17 0 -18 -3 -8 -22z"/>
<path d="M990 1850 c0 -5 5 -10 10 -10 6 0 10 5 10 10 0 6 -4 10 -10 10 -5 0
-10 -4 -10 -10z"/>
<path d="M1027 1834 c-7 -7 58 -191 74 -210 22 -27 33 1 20 52 -23 90 -75 177
-94 158z"/>
<path d="M1850 1811 c0 -11 6 -21 13 -24 10 -4 10 -7 0 -18 -7 -7 -13 -23 -13
-36 0 -31 27 -30 42 2 9 20 8 31 -8 60 -21 39 -34 45 -34 16z"/>
<path d="M1636 1745 c-26 -36 -60 -72 -77 -80 -30 -16 -40 -45 -15 -45 20 0
133 106 151 141 12 23 12 29 1 38 -11 9 -23 -2 -60 -54z"/>
<path d="M1150 1780 c0 -5 15 -27 33 -47 56 -64 95 -117 113 -156 17 -35 44
-51 44 -24 0 31 -53 118 -106 175 -55 58 -84 76 -84 52z"/>
<path d="M595 1748 c11 -51 31 -83 71 -116 31 -26 48 -31 113 -37 119 -10 191
17 227 87 25 49 2 56 -35 9 -42 -52 -86 -67 -155 -52 -67 15 -148 62 -182 106
-33 44 -48 45 -39 3z"/>
<path d="M1770 1760 c0 -5 5 -10 10 -10 6 0 10 5 10 10 0 6 -4 10 -10 10 -5 0
-10 -4 -10 -10z"/>
<path d="M1128 1745 c-16 -16 19 -100 78 -187 35 -53 71 -113 79 -133 17 -39
35 -47 35 -15 0 27 -33 92 -78 155 -20 28 -53 80 -72 118 -20 37 -39 65 -42
62z"/>
<path d="M1665 1598 c-44 -68 -101 -149 -128 -182 -79 -99 -39 -88 70 21 104
101 168 180 184 222 7 18 5 28 -7 42 -10 11 -22 19 -28 19 -6 0 -47 -55 -91
-122z"/>
<path d="M1494 1696 c-10 -8 -16 -17 -12 -21 4 -4 17 2 29 14 26 24 13 29 -17
7z"/>
<path d="M2147 1675 c-27 -34 -117 -98 -163 -116 -26 -9 -32 -29 -10 -29 16 0
46 -37 46 -57 0 -7 -19 -26 -42 -43 -41 -30 -41 -30 -12 -30 29 0 138 83 244
186 25 24 51 44 58 44 23 0 12 20 -30 50 -22 16 -46 30 -52 30 -6 0 -24 -16
-39 -35z"/>
<path d="M1330 1686 c0 -7 11 -16 25 -18 30 -6 39 1 24 19 -15 17 -49 17 -49
-1z"/>
<path d="M1415 1680 c-4 -6 7 -10 27 -9 27 0 30 2 13 9 -27 12 -33 12 -40 0z"/>
<path d="M597 1663 c-11 -10 21 -59 59 -93 94 -82 233 -106 319 -55 47 27 79
69 71 92 -5 11 -17 4 -50 -30 -86 -89 -207 -73 -338 42 -30 28 -58 48 -61 44z"/>
<path d="M1360 1610 c0 -11 6 -20 13 -20 19 0 27 10 20 26 -8 21 -33 17 -33
-6z"/>
<path d="M1076 1575 c-16 -44 -1 -70 24 -40 9 11 9 19 -3 35 -13 18 -15 19
-21 5z"/>
<path d="M1567 1573 c-12 -11 -8 -23 8 -23 8 0 15 7 15 15 0 16 -12 20 -23 8z"/>
<path d="M2234 1545 c-15 -20 -24 -38 -22 -41 7 -6 68 54 68 67 0 19 -20 8
-46 -26z"/>
<path d="M1150 1541 c0 -5 7 -12 16 -15 24 -9 28 -7 14 9 -14 17 -30 20 -30 6z"/>
<path d="M1868 1512 c-28 -17 -38 -42 -17 -42 6 0 24 14 39 30 31 33 20 39
-22 12z"/>
<path d="M1903 1491 c-31 -26 -43 -51 -25 -51 14 0 77 50 77 62 0 21 -20 17
-52 -11z"/>
<path d="M1110 1485 c0 -8 9 -19 20 -25 23 -12 26 -35 7 -47 -7 -4 -20 -20
-29 -34 -10 -15 -31 -33 -48 -40 -35 -16 -38 -25 -10 -34 24 -8 40 1 40 21 0
8 6 14 13 14 7 0 26 18 43 40 16 22 32 40 37 40 20 0 3 38 -26 58 -39 26 -47
27 -47 7z"/>
<path d="M1080 1460 c0 -5 7 -10 16 -10 8 0 12 5 9 10 -3 6 -10 10 -16 10 -5
0 -9 -4 -9 -10z"/>
<path d="M1777 1464 c-4 -4 5 -20 18 -36 14 -16 25 -34 25 -40 0 -6 16 -26 35
-45 31 -30 35 -32 35 -13 0 11 -6 20 -14 20 -7 0 -16 13 -19 29 -6 28 -52 91
-66 91 -4 0 -11 -3 -14 -6z"/>
<path d="M1655 1429 c-11 -16 2 -22 32 -14 26 7 26 8 8 15 -28 12 -33 12 -40
-1z"/>
<path d="M1344 1395 c-9 -27 -8 -39 2 -53 16 -22 20 -17 27 41 8 57 -12 66
-29 12z"/>
<path d="M1737 1403 c-9 -10 -70 -56 -136 -103 -115 -82 -142 -110 -103 -110
24 0 294 199 289 214 -6 18 -32 18 -50 -1z"/>
<path d="M1170 1383 c0 -54 742 -617 823 -626 14 -1 23 4 25 17 3 12 -1 17 -9
14 -28 -9 -582 403 -745 555 -63 58 -94 71 -94 40z"/>
<path d="M1585 1369 c-4 -6 -5 -13 -2 -16 7 -7 27 6 27 18 0 12 -17 12 -25 -2z"/>
<path d="M980 1330 c-11 -7 -12 -12 -3 -21 13 -13 33 -4 33 17 0 16 -9 18 -30
4z"/>
<path d="M888 1316 c-26 -19 -22 -26 13 -26 23 0 30 4 27 17 -4 22 -19 25 -40
9z"/>
<path d="M1795 1319 c-4 -6 -5 -13 -2 -16 7 -7 27 6 27 18 0 12 -17 12 -25 -2z"/>
<path d="M1450 1306 c0 -10 9 -16 21 -16 24 0 21 23 -4 28 -10 2 -17 -3 -17
-12z"/>
<path d="M1740 1305 c0 -10 7 -15 18 -13 21 4 19 22 -2 26 -10 2 -16 -3 -16
-13z"/>
<path d="M2030 1276 c-157 -12 -291 -25 -297 -29 -20 -12 -16 -40 4 -33 42 17
147 17 371 1 240 -16 243 -16 285 4 23 11 55 25 70 31 35 12 31 33 -9 41 -46
10 -121 8 -424 -15z"/>
<path d="M1435 1261 c-3 -5 -1 -12 4 -15 12 -8 41 3 41 15 0 12 -37 12 -45 0z"/>
<path d="M1809 1168 c7 -19 14 -22 45 -20 37 4 45 -5 24 -27 -11 -10 -8 -11
12 -6 35 8 131 -15 374 -92 209 -67 209 -67 245 -46 20 11 48 23 64 27 15 3
27 10 27 15 0 4 -44 22 -97 39 -95 30 -176 45 -313 57 -138 12 -295 39 -306
52 -6 7 -18 11 -27 7 -8 -3 -25 -1 -36 5 -19 10 -20 9 -12 -11z"/>
<path d="M1637 1173 c-13 -12 -7 -23 13 -23 11 0 20 7 20 15 0 15 -21 21 -33
8z"/>
<path d="M900 1155 c0 -10 7 -15 18 -13 21 4 19 22 -2 26 -10 2 -16 -3 -16
-13z"/>
<path d="M1560 1156 c0 -13 39 -30 48 -21 8 7 -20 35 -34 35 -8 0 -14 -6 -14
-14z"/>
<path d="M1702 1158 c-16 -16 -15 -31 1 -25 6 2 20 0 29 -4 24 -13 35 11 13
28 -23 16 -28 16 -43 1z"/>
<path d="M2820 1160 c0 -5 5 -10 10 -10 6 0 10 5 10 10 0 6 -4 10 -10 10 -5 0
-10 -4 -10 -10z"/>
<path d="M1125 1150 c-4 -7 -3 -16 3 -22 14 -14 57 -6 57 12 0 18 -50 26 -60
10z"/>
<path d="M1214 1149 c-8 -13 -5 -15 33 -23 19 -5 34 -3 38 4 9 14 7 16 -32 23
-18 4 -35 2 -39 -4z"/>
<path d="M1158 1002 c-102 -70 -214 -144 -247 -165 -43 -26 -61 -43 -61 -58 0
-24 -2 -24 64 16 166 102 466 308 466 320 0 31 -40 10 -222 -113z"/>
<path d="M1642 1109 c2 -7 10 -15 17 -17 8 -3 12 1 9 9 -2 7 -10 15 -17 17 -8
3 -12 -1 -9 -9z"/>
<path d="M2478 1113 c7 -3 16 -2 19 1 4 3 -2 6 -13 5 -11 0 -14 -3 -6 -6z"/>
<path d="M1418 1083 c-3 -4 -5 -20 -6 -35 -1 -23 2 -28 23 -28 31 0 37 10 22
40 -13 25 -32 36 -39 23z"/>
<path d="M1130 1061 c0 -17 15 -19 35 -5 18 13 18 14 -8 14 -15 0 -27 -4 -27
-9z"/>
<path d="M1700 1062 c0 -5 8 -17 19 -26 18 -16 18 -16 14 9 -5 22 -33 37 -33
17z"/>
<path d="M1887 1043 c-10 -15 10 -35 29 -31 26 5 24 32 -3 36 -11 2 -23 -1
-26 -5z"/>
<path d="M2021 1036 c-6 -7 -8 -16 -4 -19 10 -11 93 -8 93 3 0 6 -9 10 -21 10
-11 0 -29 4 -39 10 -13 7 -21 6 -29 -4z"/>
<path d="M906 1031 c-3 -5 1 -14 8 -20 16 -13 32 2 21 19 -8 12 -22 13 -29 1z"/>
<path d="M1500 1026 c0 -9 5 -16 10 -16 6 0 10 4 10 9 0 6 -4 13 -10 16 -5 3
-10 -1 -10 -9z"/>
<path d="M2144 999 c-6 -11 -6 -11 26 -14 14 -1 37 -5 53 -10 17 -5 27 -3 27
4 0 6 -3 11 -7 11 -5 1 -27 5 -51 9 -23 5 -45 5 -48 0z"/>
<path d="M1030 979 c0 -5 5 -7 10 -4 6 3 10 8 10 11 0 2 -4 4 -10 4 -5 0 -10
-5 -10 -11z"/>
<path d="M1546 982 c-7 -11 5 -27 31 -41 28 -14 33 -14 33 2 0 16 -57 51 -64
39z"/>
<path d="M1810 981 c0 -9 66 -71 75 -71 3 0 5 12 5 26 0 21 -4 24 -20 19 -16
-5 -20 -2 -20 14 0 14 -6 21 -20 21 -11 0 -20 -4 -20 -9z"/>
<path d="M1970 977 c8 -8 103 -44 210 -81 174 -59 203 -66 273 -66 137 0 98
20 -176 89 -138 35 -268 65 -287 68 -31 5 -33 3 -20 -10z"/>
<path d="M1343 965 c-18 -8 -33 -16 -33 -19 0 -3 8 -20 19 -38 20 -36 33 -119
21 -138 -13 -20 -59 -3 -94 36 -26 28 -35 33 -43 22 -19 -24 -34 -113 -29
-178 9 -114 41 -165 68 -106 6 14 24 30 40 37 24 10 32 9 45 -3 13 -14 13 -28
3 -106 -25 -194 -16 -280 46 -418 27 -59 27 -59 50 -9 14 28 36 88 51 134 26
83 26 86 15 210 -18 187 -17 191 16 191 33 0 45 -8 61 -37 29 -56 61 -6 69
109 5 88 -12 178 -35 178 -8 0 -29 -16 -47 -35 -23 -24 -42 -35 -61 -35 -28 0
-28 0 -23 65 3 36 13 76 22 90 21 32 15 42 -32 55 -50 13 -90 12 -129 -5z
m-29 -284 c6 -9 -94 -24 -103 -15 -3 3 1 9 9 14 19 12 87 13 94 1z m286 -1
c24 -15 6 -20 -46 -13 -41 6 -45 8 -24 14 36 10 53 10 70 -1z"/>
<path d="M925 949 c-10 -15 1 -23 20 -15 9 3 13 10 10 16 -8 13 -22 13 -30 -1z"/>
<path d="M1199 930 c-24 -19 -24 -19 14 -20 30 0 37 3 37 20 0 25 -21 26 -51
0z"/>
<path d="M2338 943 c7 -3 16 -2 19 1 4 3 -2 6 -13 5 -11 0 -14 -3 -6 -6z"/>
<path d="M595 900 c-3 -5 1 -10 10 -10 9 0 13 5 10 10 -3 6 -8 10 -10 10 -2 0
-7 -4 -10 -10z"/>
<path d="M2500 906 c0 -2 7 -6 15 -10 8 -3 15 -1 15 4 0 6 -7 10 -15 10 -8 0
-15 -2 -15 -4z"/>
<path d="M1130 885 c0 -8 9 -15 20 -15 11 0 20 7 20 15 0 8 -9 15 -20 15 -11
0 -20 -7 -20 -15z"/>
<path d="M2000 890 c0 -5 7 -10 15 -10 8 0 15 5 15 10 0 6 -7 10 -15 10 -8 0
-15 -4 -15 -10z"/>
<path d="M2050 886 c0 -15 48 -28 56 -15 3 5 -7 14 -21 19 -34 13 -35 13 -35
-4z"/>
<path d="M1230 880 c0 -5 7 -10 15 -10 8 0 15 5 15 10 0 6 -7 10 -15 10 -8 0
-15 -4 -15 -10z"/>
<path d="M1677 873 c-4 -3 -7 -15 -7 -25 0 -29 37 -23 42 7 4 19 1 25 -12 25
-9 0 -20 -3 -23 -7z"/>
<path d="M604 849 c-10 -17 13 -36 27 -22 12 12 4 33 -11 33 -5 0 -12 -5 -16
-11z"/>
<path d="M2020 835 c-10 -12 -9 -16 5 -21 19 -8 40 9 31 25 -10 15 -21 14 -36
-4z"/>
<path d="M2215 830 c4 -6 11 -8 16 -5 14 9 11 15 -7 15 -8 0 -12 -5 -9 -10z"/>
<path d="M795 809 c-7 -10 34 -63 42 -55 5 5 -25 66 -32 66 -2 0 -7 -5 -10
-11z"/>
<path d="M2090 791 c0 -12 25 -21 57 -21 39 0 22 24 -20 28 -20 1 -37 -2 -37
-7z"/>
<path d="M2192 768 c2 -14 -2 -22 -9 -20 -20 3 -15 -16 7 -28 17 -9 20 -8 20
7 0 10 3 28 6 41 5 16 2 22 -10 22 -12 0 -16 -7 -14 -22z"/>
<path d="M732 740 c-12 -15 -42 -38 -66 -50 -45 -21 -68 -50 -40 -50 8 0 41
11 74 25 33 14 66 25 73 25 27 0 38 24 24 53 -15 34 -36 33 -65 -3z"/>
<path d="M2036 738 c-19 -37 -19 -38 -5 -38 6 0 47 -16 91 -35 117 -52 143
-43 50 18 -40 26 -80 56 -89 67 -23 27 -29 25 -47 -12z"/>
<path d="M1883 715 c-3 -9 -2 -19 1 -23 8 -8 38 10 44 26 6 18 -38 14 -45 -3z"/>
<path d="M1970 698 c0 -29 15 -45 25 -28 3 5 -1 20 -9 32 -16 22 -16 22 -16
-4z"/>
<path d="M2182 583 c2 -10 10 -18 18 -18 22 0 18 29 -3 33 -14 3 -18 -1 -15
-15z"/>
<path d="M1480 34 c0 -8 5 -12 10 -9 6 3 10 10 10 16 0 5 -4 9 -10 9 -5 0 -10
-7 -10 -16z"/>
</g>
</svg>
