<?xml version="1.0" standalone="no"?>
<!DOCTYPE svg PUBLIC "-//W3C//DTD SVG 20010904//EN"
 "http://www.w3.org/TR/2001/REC-SVG-20010904/DTD/svg10.dtd">
<svg version="1.0" xmlns="http://www.w3.org/2000/svg"
 width="470.000000pt" height="471.000000pt" viewBox="0 0 470.000000 471.000000"
 preserveAspectRatio="xMidYMid meet">
<metadata>
Created by potrace 1.16, written by Peter Selinger 2001-2019
</metadata>
<g transform="translate(0.000000,471.000000) scale(0.100000,-0.100000)"
fill="#000000" stroke="none">
<path d="M2240 4602 c-143 -145 -217 -232 -234 -273 -8 -19 -39 -123 -70 -232
-84 -294 -165 -489 -250 -600 -30 -39 -36 -56 -36 -95 0 -47 0 -47 -75 -81
-76 -34 -76 -34 -101 -10 -13 12 -36 47 -51 77 -22 46 -26 67 -26 131 1 64 8
94 43 184 46 123 47 157 0 202 -63 60 -179 52 -303 -20 -39 -23 -119 -70 -177
-103 -114 -66 -210 -98 -266 -87 -41 7 -97 54 -114 94 -12 30 -9 129 5 185 14
52 -18 24 -52 -47 -59 -121 -81 -266 -54 -355 37 -124 145 -210 264 -212 26 0
47 -4 47 -9 0 -13 -84 -65 -153 -96 -134 -59 -296 -48 -343 23 -10 15 -19 21
-25 15 -11 -11 31 -184 57 -235 54 -106 137 -178 205 -178 19 0 62 13 97 30
34 16 62 25 62 20 0 -18 -101 -129 -178 -198 -152 -133 -258 -192 -348 -192
-41 0 -59 5 -74 20 -21 21 -40 26 -40 12 0 -17 50 -135 75 -177 64 -111 172
-123 302 -34 26 18 85 66 131 107 45 40 82 68 82 62 0 -27 -103 -162 -190
-250 -115 -116 -193 -165 -251 -157 -21 3 -41 1 -44 -3 -7 -12 65 -67 121 -91
47 -21 122 -23 182 -4 15 5 22 3 22 -6 0 -27 -92 -201 -126 -239 -20 -22 -33
-43 -30 -49 10 -16 115 30 161 71 25 22 64 69 87 105 23 36 44 61 45 56 2 -5
-6 -65 -17 -134 -27 -160 -37 -430 -21 -567 14 -120 61 -317 76 -317 6 0 13
43 16 95 4 52 12 124 19 160 27 150 105 430 119 430 5 0 11 -134 14 -297 4
-191 11 -334 21 -398 8 -55 16 -117 16 -137 1 -159 118 234 155 522 27 207 23
193 48 184 12 -4 74 -8 137 -9 115 -3 115 -3 112 -76 -2 -41 -10 -107 -18
-148 -9 -40 -13 -76 -10 -79 6 -5 96 75 132 118 35 41 70 102 89 155 28 77 38
79 31 5 -3 -36 -9 -117 -13 -180 -6 -115 -6 -115 -53 -175 -105 -133 -270
-415 -270 -460 0 -32 95 -109 206 -166 130 -68 155 -78 389 -164 276 -102 424
-182 513 -279 23 -25 44 -46 47 -46 2 0 25 23 51 50 85 91 217 167 419 241
371 136 509 197 611 272 61 45 61 45 87 208 15 90 32 209 38 264 7 55 16 107
20 115 12 21 11 -220 -1 -364 -6 -66 -9 -121 -7 -123 2 -2 35 19 74 46 82 58
128 111 171 197 51 101 63 181 69 462 5 228 12 286 27 235 82 -283 114 -429
123 -566 4 -63 10 -96 17 -94 15 5 63 224 75 346 19 181 11 350 -25 574 -9 54
-14 101 -11 103 3 3 21 -22 41 -54 46 -77 103 -127 182 -163 35 -16 66 -29 69
-29 14 0 1 26 -31 63 -37 44 -124 208 -124 234 0 11 6 14 23 9 12 -4 47 -9 77
-13 61 -6 102 7 182 59 60 38 63 58 8 51 -66 -9 -139 34 -256 151 -91 91 -221
262 -208 275 2 3 28 -18 57 -46 141 -136 247 -203 322 -203 49 0 110 36 144
85 17 25 81 176 81 193 0 10 -28 -2 -48 -20 -65 -62 -224 4 -411 171 -77 68
-196 200 -188 208 3 2 32 -9 66 -26 66 -34 117 -39 160 -17 39 21 106 96 135
154 29 58 82 239 72 249 -3 4 -21 -9 -39 -29 -65 -71 -209 -73 -354 -4 -82 39
-133 72 -133 87 0 5 23 9 52 9 69 0 124 28 186 94 66 70 87 136 79 250 -5 82
-25 151 -68 240 -28 57 -56 76 -45 30 4 -16 10 -59 13 -96 5 -60 2 -72 -21
-112 -36 -61 -90 -83 -174 -68 -69 12 -133 43 -250 118 -194 126 -306 156
-399 105 -62 -32 -70 -113 -23 -222 52 -122 56 -238 13 -324 -28 -54 -32 -57
-62 -37 -29 20 -97 42 -130 42 -17 0 -21 6 -21 30 0 20 -17 56 -49 103 -98
145 -163 303 -252 612 -33 115 -66 218 -73 230 -38 58 -322 355 -340 355 -6 0
-58 -49 -116 -108z m110 16 c0 -24 3 -87 7 -140 4 -71 3 -98 -5 -98 -8 0 -12
25 -13 73 0 58 -2 67 -10 47 -6 -14 -9 -41 -9 -60 1 -19 2 -105 1 -191 -1
-156 -1 -156 -48 -187 -51 -33 -117 -97 -155 -149 -100 -140 -316 -383 -340
-383 -12 0 -3 27 37 114 76 164 127 308 194 553 38 141 40 144 101 215 89 103
224 247 233 247 4 1 7 -18 7 -41z m410 -638 c27 -82 83 -212 142 -330 53 -107
94 -197 91 -200 -6 -6 -64 59 -104 116 -57 82 -144 337 -178 521 -13 69 0 40
49 -107z m-363 75 c23 -14 43 -30 43 -36 0 -5 -16 1 -36 15 -47 32 -70 24
-164 -56 -74 -61 -106 -72 -54 -17 37 39 142 119 157 119 5 0 30 -11 54 -25z
m30 -81 c23 -13 83 -70 134 -126 51 -57 168 -178 259 -269 91 -92 174 -183
185 -203 19 -35 19 -36 -2 -80 -12 -24 -50 -74 -85 -111 -65 -70 -206 -190
-213 -183 -3 2 38 44 91 92 112 104 194 207 194 245 0 14 -9 40 -19 56 -11 17
-136 148 -279 292 -265 269 -305 301 -361 288 -29 -6 -83 -47 -193 -145 -73
-65 -73 -65 11 25 152 162 182 175 278 119z m-1217 -168 c-36 -13 -83 -31
-105 -40 -36 -15 -38 -15 -20 0 37 30 120 64 155 63 32 -1 29 -3 -30 -23z
m2382 -17 c76 -38 68 -51 -11 -15 -32 14 -73 29 -90 32 -17 4 -34 11 -38 17
-12 19 77 -3 139 -34z m-1258 -21 c9 -12 13 -31 10 -45 -5 -17 -2 -23 10 -23
11 0 16 9 16 29 0 33 22 61 48 61 27 0 102 -34 102 -46 0 -10 -39 -31 -102
-53 -25 -9 -26 -12 -16 -43 23 -72 27 -77 65 -87 69 -19 137 15 162 82 17 44
31 31 31 -29 0 -60 -3 -65 -95 -138 -20 -16 -45 -46 -55 -67 -21 -41 -78 -76
-106 -65 -9 4 -23 1 -30 -5 -11 -9 -14 -7 -14 10 0 11 -4 21 -10 21 -5 0 -10
-7 -10 -15 0 -8 -4 -15 -10 -15 -5 0 -10 7 -10 16 0 13 -3 14 -13 5 -8 -6 -17
-7 -21 -3 -4 4 -15 7 -24 8 -47 3 -52 5 -52 23 0 37 -35 82 -87 112 -33 19
-55 39 -57 52 -12 56 -13 95 -6 108 11 17 14 14 33 -33 20 -49 56 -71 113 -70
60 2 91 23 100 67 3 19 10 38 15 41 5 3 -19 20 -53 37 -35 18 -63 37 -63 42 0
13 64 45 92 45 12 0 29 -10 37 -22z m-445 -181 c-41 -39 -97 -96 -122 -125
-41 -46 -47 -58 -47 -97 0 -39 7 -53 60 -119 105 -129 235 -242 345 -298 33
-17 54 -33 48 -35 -7 -3 -51 16 -98 41 -47 24 -85 43 -85 40 0 -2 42 -35 94
-73 98 -73 117 -91 93 -91 -27 0 -346 248 -409 317 -57 64 -69 96 -17 46 86
-81 115 -106 167 -146 78 -59 72 -40 -8 28 -125 106 -209 228 -210 304 0 30
14 48 122 158 67 67 127 123 132 123 6 0 -23 -33 -65 -73z m-979 -127 c0 -5
-2 -10 -4 -10 -3 0 -8 5 -11 10 -3 6 -1 10 4 10 6 0 11 -4 11 -10z m2900 0 c0
-5 -2 -10 -4 -10 -3 0 -8 5 -11 10 -3 6 -1 10 4 10 6 0 11 -4 11 -10z m-1235
-112 c-5 -12 -26 -45 -49 -72 -99 -117 -118 -128 -131 -79 -6 27 -21 43 -38
43 -4 0 -15 -16 -23 -35 -9 -22 -21 -35 -33 -35 -11 0 -47 32 -85 76 -60 68
-67 80 -64 113 3 39 30 52 36 17 2 -10 16 -29 30 -41 22 -19 39 -23 111 -24
47 -1 88 -7 92 -12 4 -7 9 -5 12 5 4 9 12 14 19 11 18 -6 52 24 72 63 17 32
17 32 37 13 15 -14 19 -25 14 -43z m642 -37 c21 -17 21 -19 4 -67 -36 -108
-154 -280 -251 -367 -45 -41 -49 -56 -20 -82 16 -14 24 -15 50 -7 17 6 44 20
59 32 42 29 47 25 9 -8 -53 -46 -111 -82 -131 -82 -11 0 -32 14 -48 31 -31 34
-39 79 -14 79 42 0 181 134 155 150 -6 4 9 31 36 66 25 32 64 94 86 138 34 67
38 82 29 107 -12 34 2 38 36 10z m-1597 -16 c0 -26 79 -173 133 -248 28 -40
76 -101 106 -136 56 -64 56 -64 12 -102 -65 -58 -83 -53 -182 56 -91 99 -149
177 -201 272 -51 90 -51 86 20 122 44 22 44 22 49 1 10 -36 72 -161 124 -246
27 -45 49 -91 49 -101 0 -11 9 -28 20 -38 35 -31 100 3 71 37 -27 31 -95 126
-118 166 -31 52 -43 50 -13 -2 31 -56 24 -56 -14 0 -34 51 -96 185 -96 209 0
12 14 22 33 24 4 1 7 -6 7 -14z m1714 -41 c31 -20 56 -40 56 -44 0 -4 -7 -21
-15 -36 -8 -16 -15 -36 -15 -44 0 -8 -9 -26 -20 -40 -20 -25 -20 -25 -20 1 0
18 -12 35 -46 59 -36 27 -44 39 -39 55 4 11 9 35 12 53 3 17 11 32 18 32 7 0
38 -16 69 -36z m-2228 -25 c-5 -30 -3 -39 5 -33 8 4 9 3 5 -5 -7 -10 -41 -7
-55 5 -4 4 39 74 46 74 3 0 3 -18 -1 -41z m2544 -26 c0 -18 -6 -16 -30 9 -11
12 -20 31 -20 42 1 19 3 18 25 -9 14 -16 25 -36 25 -42z m-655 -4 c-18 -35
-86 -112 -92 -105 -4 4 98 135 105 136 1 0 -5 -14 -13 -31z m-1443 -207 c22
-30 70 -85 106 -124 37 -39 58 -66 46 -60 -32 17 -176 172 -216 234 -53 79
-82 143 -74 163 5 14 18 -5 52 -71 25 -49 64 -113 86 -142z m826 176 c6 -18
13 -65 15 -105 6 -79 25 -124 70 -165 48 -46 34 -55 -89 -52 -147 3 -144 2
-144 17 0 6 17 29 38 49 22 21 44 55 51 78 9 30 30 170 31 208 0 1 4 2 9 2 5
0 14 -15 19 -32z m1061 8 c21 -23 22 -25 7 -54 -78 -150 -273 -339 -469 -454
-119 -70 -254 -123 -357 -142 -63 -12 -124 -32 -179 -58 -84 -40 -84 -40 -150
-10 -90 41 -130 52 -209 61 -67 7 -67 7 -28 24 21 9 47 17 57 17 11 0 19 5 19
10 0 6 -9 10 -21 10 -27 0 -231 104 -254 130 -11 12 -13 20 -6 20 18 0 296
-140 294 -148 -1 -4 78 -7 175 -7 97 0 222 -2 277 -4 116 -4 144 4 340 100
141 69 236 145 367 294 94 107 120 151 99 165 -9 5 -11 18 -6 39 8 37 15 38
44 7z m-2549 -5 c-16 -31 -100 -83 -100 -62 0 10 89 81 102 81 5 0 4 -9 -2
-19z m2986 -17 c50 -41 57 -58 17 -43 -32 12 -61 36 -74 61 -16 29 8 21 57
-18z m-861 -55 c-48 -49 -153 -120 -221 -150 -27 -11 -83 -27 -124 -35 -90
-16 -100 -17 -100 -6 0 5 35 19 78 31 141 41 225 80 307 141 44 32 84 59 90
60 5 0 -9 -18 -30 -41z m-1640 -60 c-14 -61 3 -117 47 -160 23 -22 39 -42 36
-45 -3 -3 -32 4 -64 16 -105 37 -97 38 -91 -6 2 -21 7 -48 11 -59 4 -15 -2
-25 -26 -40 -18 -11 -34 -27 -36 -35 -2 -12 15 -15 100 -16 88 0 150 -9 231
-31 41 -11 0 -20 -117 -26 -164 -9 -204 -19 -252 -68 -21 -21 -35 -41 -32 -45
4 -3 42 1 85 10 100 20 183 30 183 23 0 -10 -363 -117 -395 -117 -15 0 0 28
41 73 57 64 90 125 75 140 -16 16 -16 17 44 97 50 66 55 78 55 124 0 57 23
115 64 164 35 41 50 41 41 1z m-335 -13 c0 -8 5 -16 11 -18 15 -5 -17 -38 -37
-38 -17 0 -18 11 -2 45 12 27 28 34 28 11z m2664 -19 c6 -15 7 -30 3 -33 -9
-10 -57 13 -57 26 0 6 5 8 10 5 6 -3 10 3 10 15 0 29 23 20 34 -13z m-1929
-66 c-8 -7 -36 22 -51 53 -14 29 -13 28 20 -9 19 -22 33 -41 31 -44z m1731
-30 c44 -59 52 -78 58 -129 4 -32 23 -97 42 -143 44 -102 55 -139 44 -139 -5
0 -17 13 -26 30 -10 16 -33 37 -51 45 -18 9 -33 17 -33 19 0 2 7 20 16 41 18
44 13 72 -21 123 -20 31 -95 202 -95 218 0 16 22 -6 66 -65z m-546 4 c-24 -25
-46 -42 -49 -40 -3 3 15 25 39 50 24 25 46 42 49 40 3 -3 -15 -25 -39 -50z
m246 17 c-16 -15 -25 -20 -21 -12 13 25 38 50 44 45 3 -3 -8 -18 -23 -33z
m-1411 -31 c-8 -13 -35 -15 -35 -2 0 5 8 11 18 13 21 5 26 2 17 -11z m-985
-39 c0 -14 -79 -86 -87 -79 -4 4 11 25 32 47 38 39 55 49 55 32z m3190 -79 c0
-14 -38 3 -66 31 -52 52 -40 63 16 15 28 -23 50 -44 50 -46z m-1585 17 c0 -20
-95 -37 -106 -18 -18 28 -9 35 49 34 43 -1 57 -5 57 -16z m-407 -25 c20 -13
80 -46 132 -72 61 -31 96 -55 98 -66 3 -16 0 -18 -20 -12 -47 14 -204 93 -246
124 -66 49 -34 73 36 26z m-1025 -16 c-19 -32 -63 -73 -71 -65 -5 6 70 96 81
96 4 0 0 -14 -10 -31z m2817 -61 c0 -18 -21 -5 -49 29 -46 56 -38 76 9 23 22
-25 40 -48 40 -52z m-1005 54 c-20 -19 -124 -66 -130 -60 -5 5 126 77 140 78
5 0 1 -8 -10 -18z m55 -11 c0 -18 -65 -60 -150 -95 -83 -35 -140 -46 -140 -26
0 6 5 10 11 10 21 0 144 53 198 86 57 34 81 42 81 25z m-204 -60 c-7 -11 -97
-43 -103 -37 -3 2 20 13 49 25 63 24 61 23 54 12z m641 -206 c137 -30 285 -66
330 -80 77 -24 84 -28 104 -66 11 -23 18 -43 15 -46 -3 -3 -21 2 -40 11 -41
19 -251 89 -441 146 -124 37 -254 88 -228 89 7 1 124 -24 260 -54z m-583 9
c28 -28 14 -74 -23 -74 -20 0 -74 67 -66 80 10 16 72 12 89 -6z m296 0 c74
-17 241 -68 520 -159 107 -35 207 -66 221 -69 15 -3 38 -22 53 -41 27 -35 27
-35 5 -35 -54 0 -841 280 -873 311 -14 12 -3 11 74 -7z m-410 -24 c11 -11 20
-24 20 -29 0 -18 -32 -41 -56 -41 -60 0 -85 44 -42 74 30 21 54 20 78 -4z
m-1816 -62 c-16 -23 -35 -43 -42 -46 -8 -2 3 19 23 47 21 29 40 49 43 46 3 -3
-8 -24 -24 -47z m1692 -674 c3 -408 10 -762 16 -819 19 -172 18 -183 -52 -402
-35 -112 -67 -203 -71 -203 -5 0 -28 64 -53 143 -84 267 -89 288 -82 342 18
146 25 343 26 740 0 255 4 446 10 455 7 12 12 8 23 -19 19 -46 31 -22 12 26
-8 21 -19 85 -25 142 -10 108 -14 311 -5 311 3 0 23 -11 45 -25 40 -25 40 -25
33 -965 -6 -873 -5 -940 10 -940 17 0 19 7 22 100 1 19 3 429 3 911 2 876 2
876 40 901 20 13 38 24 40 23 1 -1 5 -325 8 -721z m1492 670 c18 -23 32 -45
32 -49 0 -17 -43 32 -62 70 -22 44 -17 40 30 -21z m-2534 28 c49 -9 61 -32 16
-32 -17 0 -68 -10 -113 -21 -45 -12 -107 -22 -137 -23 -30 0 -55 -5 -55 -11 0
-5 26 -16 58 -24 34 -8 57 -19 57 -27 0 -7 10 -20 23 -30 22 -16 21 -16 -18
-10 -146 24 -184 17 -266 -46 -69 -53 -67 -31 5 54 62 73 76 97 76 132 0 17 8
27 28 34 31 12 267 14 326 4z m1264 -48 c24 -17 29 -43 10 -62 -21 -21 -48
-13 -68 21 -19 30 -19 33 -3 45 22 16 34 15 61 -4z m-628 -40 c-3 -16 -5 -72
-5 -125 0 -88 2 -100 34 -162 35 -69 35 -91 1 -69 -17 11 -20 10 -20 -9 0 -15
-5 -20 -22 -17 -16 2 -31 19 -48 53 -22 44 -25 63 -25 160 0 89 4 117 19 145
34 63 75 78 66 24z m513 27 c34 -13 42 -40 18 -64 -17 -17 -23 -18 -55 -7 -38
12 -61 42 -52 66 6 16 53 19 89 5z m-600 -37 c3 -3 -3 -23 -14 -42 -15 -29
-19 -57 -19 -128 0 -83 3 -98 30 -149 17 -31 30 -59 30 -61 0 -12 -30 -1 -48
19 -40 42 -55 96 -53 185 1 64 -1 83 -11 80 -19 -6 -31 -120 -18 -167 5 -21
21 -54 35 -74 25 -38 19 -55 -14 -38 -53 29 -86 159 -62 247 14 51 48 96 70
92 9 -2 24 7 34 19 19 23 29 28 40 17z m-153 -58 c0 -2 -10 -25 -22 -52 -15
-36 -23 -76 -26 -148 -4 -87 -7 -97 -18 -81 -8 10 -14 36 -14 57 0 21 -5 38
-11 38 -8 0 -10 -27 -7 -87 6 -104 29 -153 89 -183 47 -25 67 -26 49 -5 -7 9
-11 17 -9 20 8 8 99 -27 93 -36 -13 -22 -106 -59 -145 -59 -117 0 -210 129
-194 268 15 128 62 212 139 248 47 22 76 30 76 20z m748 -22 c23 -15 26 -23
16 -48 -7 -19 -33 -21 -68 -5 -28 13 -38 38 -24 63 10 18 36 15 76 -10z m100
14 c21 -21 14 -57 -13 -70 -30 -13 -31 -13 -39 34 -7 36 -5 39 35 47 3 0 10
-4 17 -11z m-1018 -52 c0 -7 -7 -19 -16 -27 -8 -7 -24 -29 -34 -48 -22 -44
-165 -199 -175 -189 -3 3 3 24 15 47 32 64 7 48 -43 -26 -47 -72 -103 -131
-113 -121 -3 4 18 45 47 93 67 109 182 228 252 261 60 28 67 29 67 10z m-440
-15 c19 -6 6 -9 -49 -15 -110 -11 -105 -7 -199 -153 -9 -15 -10 -23 -3 -23 6
0 33 29 61 64 38 48 62 69 94 81 64 25 94 14 36 -12 -45 -21 -98 -70 -137
-128 -25 -36 -73 -185 -73 -225 0 -41 -15 -45 -31 -7 -9 21 -14 72 -14 147 0
133 17 183 86 244 38 35 40 36 122 35 45 -1 93 -4 107 -8z m1320 -46 c19 -20
21 -27 10 -40 -20 -24 -49 -18 -56 10 -7 27 0 55 14 55 5 0 19 -11 32 -25z
m-1050 6 c0 -5 -12 -17 -27 -27 -57 -36 -147 -122 -211 -198 -36 -44 -67 -75
-69 -69 -2 6 7 40 21 77 30 78 14 92 -28 24 -33 -55 -83 -114 -90 -107 -7 6
49 114 90 171 36 51 116 108 153 109 14 0 51 7 81 14 72 16 80 17 80 6z m-240
-29 c0 -5 -15 -15 -32 -24 -18 -9 -61 -41 -95 -72 -33 -31 -64 -56 -67 -56
-17 0 -2 34 30 69 47 53 164 112 164 83z m1580 -181 c19 -5 80 -16 135 -26
121 -20 148 -28 152 -42 2 -6 -42 -38 -98 -70 -56 -32 -129 -75 -163 -95 -33
-20 -87 -51 -119 -68 -57 -30 -70 -52 -31 -55 166 -15 344 -58 344 -83 0 -10
-9 -12 -37 -8 -21 3 -67 8 -103 12 -36 3 -108 13 -160 21 -52 8 -119 18 -148
22 -61 8 -84 24 -62 45 13 12 217 133 370 221 58 32 66 48 28 53 -74 9 -214
50 -229 68 -10 12 -4 14 37 14 27 0 65 -4 84 -9z m410 -70 c0 -32 7 -78 15
-101 8 -23 15 -53 15 -65 0 -29 -33 -71 -61 -78 -30 -8 -89 51 -89 87 0 21 53
136 97 209 13 22 23 0 23 -52z m453 -213 c-2 -5 -33 -8 -68 -8 -35 0 -66 3
-68 8 -3 4 28 7 68 7 40 0 71 -3 68 -7z m-489 -74 c26 -10 18 -24 -13 -24 -30
0 -46 12 -34 24 8 8 27 8 47 0z m-353 -134 c10 -6 19 -15 19 -21 0 -6 -8 -5
-22 2 -18 10 -24 8 -39 -12 -19 -24 -19 -24 -19 2 0 40 21 50 61 29z m-90 -31
c-9 -22 -10 -22 -10 -3 -1 11 2 24 6 27 12 12 14 0 4 -24z m142 -14 c-7 -21
-13 -19 -13 6 0 11 4 18 10 14 5 -3 7 -12 3 -20z m-937 4 c4 -7 24 -9 50 -6
40 4 44 3 43 -17 -1 -11 -4 -32 -9 -46 -6 -22 -8 -23 -15 -7 -9 22 -53 22 -77
0 -17 -15 -18 -14 -18 35 0 49 10 66 26 41z m859 -39 c-3 -5 -10 -10 -16 -10
-5 0 -9 5 -9 10 0 6 7 10 16 10 8 0 12 -4 9 -10z m-26 -72 c-1 -59 -14 -146
-23 -155 -4 -4 -11 -1 -16 7 -10 16 -1 147 12 173 15 30 28 18 27 -25z m-54
-40 c-4 -13 -10 -50 -12 -84 -4 -53 -2 -64 20 -90 23 -28 25 -38 31 -209 3
-99 9 -197 12 -217 15 -95 -40 1 -77 132 -46 168 -50 357 -8 443 23 48 48 66
34 25z m166 -30 c29 -69 7 -294 -30 -306 -12 -4 -13 10 -5 84 5 49 8 126 7
172 -1 45 2 82 7 82 4 0 14 -15 21 -32z m-921 -48 c0 -5 -21 -24 -47 -41 -101
-68 -218 -186 -286 -287 -37 -54 -67 -104 -67 -111 0 -18 15 -13 41 15 13 14
76 58 139 97 63 40 141 91 173 115 79 60 83 47 5 -14 -87 -67 -303 -284 -312
-311 -10 -32 -32 -29 -82 13 -36 29 -44 42 -44 68 0 53 59 153 140 239 90 96
156 146 253 193 76 36 87 39 87 24z m-387 -64 c23 -18 22 -28 -14 -80 -31 -47
-109 -206 -109 -224 0 -5 -6 -14 -13 -20 -10 -9 -24 0 -60 36 -47 48 -47 48
24 147 111 156 131 172 172 141z m260 -408 c-22 -46 -48 -104 -58 -130 -10
-27 -22 -48 -28 -48 -16 0 -77 41 -77 52 0 14 191 220 198 214 2 -3 -13 -42
-35 -88z"/>
<path d="M2347 3584 c-3 -4 -3 -19 0 -35 4 -23 2 -29 -11 -29 -25 0 -42 -45
-25 -66 12 -14 14 -14 26 2 10 13 15 15 27 5 11 -10 19 -9 35 1 26 16 26 23 1
55 -11 14 -20 31 -20 38 0 16 -25 37 -33 29z"/>
<path d="M2365 3009 c4 -19 11 -43 15 -54 9 -24 60 -73 60 -58 0 6 -7 16 -15
23 -19 16 -45 68 -45 91 0 10 -5 21 -11 25 -8 4 -9 -4 -4 -27z"/>
<path d="M2195 2528 c43 -16 285 -16 310 -1 16 10 -14 12 -160 12 -140 -1
-173 -3 -150 -11z"/>
<path d="M2010 2090 c0 -5 5 -10 10 -10 6 0 10 5 10 10 0 6 -4 10 -10 10 -5 0
-10 -4 -10 -10z"/>
<path d="M2020 2061 c0 -5 5 -13 10 -16 6 -3 10 -2 10 4 0 5 -4 13 -10 16 -5
3 -10 2 -10 -4z"/>
<path d="M1659 2023 c-18 -29 -24 -53 -24 -100 0 -53 4 -66 31 -100 39 -49 94
-77 134 -68 36 8 38 18 6 33 -56 25 -106 133 -106 230 0 23 -4 42 -9 42 -5 0
-19 -17 -32 -37z"/>
</g>
</svg>
