<?xml version="1.0" standalone="no"?>
<!DOCTYPE svg PUBLIC "-//W3C//DTD SVG 20010904//EN"
 "http://www.w3.org/TR/2001/REC-SVG-20010904/DTD/svg10.dtd">
<svg version="1.0" xmlns="http://www.w3.org/2000/svg"
 width="346.000000pt" height="430.000000pt" viewBox="0 0 346.000000 430.000000"
 preserveAspectRatio="xMidYMid meet">
<metadata>
Created by potrace 1.16, written by Peter Selinger 2001-2019
</metadata>
<g transform="translate(0.000000,430.000000) scale(0.100000,-0.100000)"
fill="#000000" stroke="none">
<path d="M1684 4275 c-3 -14 -4 -32 0 -40 7 -20 -3 -19 -26 2 -20 18 -38 10
-23 -11 45 -60 48 -67 36 -79 -9 -9 -21 -7 -50 10 -43 25 -54 22 -39 -12 7
-16 7 -29 -2 -45 -17 -31 -6 -36 26 -11 55 43 98 12 50 -38 -34 -36 -36 -60
-1 -37 32 21 33 21 31 -11 0 -16 4 -29 9 -30 6 -1 9 11 9 27 -2 34 -1 35 26
18 29 -18 37 -1 12 25 -12 13 -22 31 -22 40 0 24 27 32 48 15 35 -30 46 -33
39 -9 -3 12 -1 36 4 53 11 42 6 45 -31 18 -55 -39 -85 3 -35 50 14 13 25 27
25 32 0 13 -27 9 -40 -7 -20 -24 -29 -17 -23 19 6 40 -13 59 -23 21z"/>
<path d="M1527 4134 c-11 -11 3 -24 24 -24 12 0 19 5 17 13 -5 14 -31 21 -41
11z"/>
<path d="M1822 4128 c7 -20 48 -23 48 -4 0 11 -9 16 -26 16 -16 0 -24 -5 -22
-12z"/>
<path d="M499 3822 c-43 -123 -54 -144 -100 -199 -90 -107 -106 -132 -113
-173 -8 -53 13 -104 56 -130 40 -24 57 -25 103 -3 25 12 35 23 35 40 0 12 9
27 19 33 26 13 31 13 31 -5 0 -8 -4 -15 -9 -15 -18 0 -23 -52 -6 -64 8 -6 18
-28 21 -48 6 -37 6 -37 -32 -40 -53 -4 -54 -32 -2 -36 36 -3 36 -3 43 -95 10
-133 5 -180 -20 -187 -11 -3 -29 -10 -40 -17 -19 -12 -19 -13 -3 -43 16 -28
16 -34 3 -53 -9 -15 -11 -27 -5 -37 19 -30 11 -45 -11 -21 -16 17 -24 20 -35
10 -8 -6 -14 -17 -14 -24 0 -21 41 -65 61 -65 25 0 27 -40 2 -40 -10 -1 -33
-14 -52 -30 -31 -26 -33 -32 -23 -54 15 -34 56 -59 81 -51 12 3 34 20 51 36
30 31 30 31 30 -5 0 -24 -5 -36 -14 -36 -15 0 -106 -77 -106 -90 0 -12 65 -32
92 -28 14 2 25 13 29 28 6 20 7 17 8 -16 1 -41 1 -41 -66 -43 -61 -2 -73 -6
-153 -56 -96 -59 -239 -132 -313 -160 -26 -10 -47 -23 -47 -30 0 -20 120 -55
191 -55 84 0 140 19 213 75 59 44 166 157 166 176 0 5 5 9 10 9 6 0 10 -33 10
-80 0 -61 -3 -78 -13 -74 -8 3 -81 -70 -181 -180 -92 -102 -178 -191 -189
-199 -33 -22 -15 -30 66 -31 63 0 82 4 139 32 75 37 165 127 175 173 10 52 23
30 23 -38 0 -46 -3 -63 -10 -53 -24 38 -81 -69 -101 -189 -7 -39 -9 -74 -5
-78 8 -8 62 21 97 54 14 13 28 20 32 16 4 -3 7 -57 7 -119 0 -121 4 -144 26
-144 17 0 19 102 4 317 -18 271 -41 637 -47 761 -3 67 -10 125 -15 128 -5 3
-15 1 -23 -6 -10 -8 -19 -8 -34 2 -31 19 -26 25 31 32 28 4 60 12 70 17 15 8
18 6 18 -15 0 -14 -5 -28 -10 -31 -5 -3 -10 -44 -10 -90 0 -101 17 -142 73
-174 57 -33 71 -17 64 73 -4 59 -8 73 -30 90 -13 12 -28 31 -31 42 -6 21 -6
21 41 6 27 -8 57 -22 68 -29 19 -13 18 -14 -7 -7 -33 7 -33 9 -10 -92 14 -65
17 -127 17 -344 -1 -259 -2 -270 -38 -477 -20 -117 -39 -223 -42 -236 -14 -56
17 -29 122 101 142 178 192 245 254 348 69 116 269 543 269 577 0 4 -31 7 -68
7 -58 0 -79 5 -138 35 -80 41 -87 42 -114 15 -16 -16 -25 -18 -45 -10 -59 22
-69 8 -31 -43 52 -69 73 -167 60 -285 -8 -79 -16 -65 -33 54 -18 127 -58 240
-100 283 -20 20 -32 33 -27 29 24 -19 186 0 186 21 0 5 -20 11 -44 13 -51 6
-151 50 -185 81 -45 42 -64 122 -40 170 6 12 40 49 75 83 56 52 64 65 64 96 0
45 -35 90 -94 120 -32 17 -64 23 -142 26 -116 5 -120 2 -106 -76 7 -42 9 -45
57 -60 61 -21 65 -35 32 -110 -16 -36 -25 -77 -26 -111 -1 -60 -6 -70 -23 -53
-7 7 -32 12 -57 12 -55 0 -44 17 14 22 32 2 40 7 40 23 0 17 -8 20 -52 23 -29
2 -53 7 -53 13 0 5 7 9 15 9 32 0 95 25 95 38 0 8 7 29 16 48 9 19 14 41 10
49 -6 18 -53 20 -58 3 -2 -6 -9 -9 -15 -5 -6 4 -14 57 -18 124 -3 65 -7 131
-8 148 -2 27 1 30 33 35 23 3 36 11 38 24 3 16 -1 17 -39 11 -37 -6 -41 -5
-36 10 4 9 7 35 8 58 0 23 3 36 6 30 7 -19 21 -16 28 7 6 19 8 19 28 5 65 -45
167 12 167 93 0 63 -13 85 -98 169 -65 64 -88 95 -127 176 -27 53 -54 97 -59
97 -6 0 -18 -22 -27 -48z m20 -228 c8 -149 8 -149 -16 -171 -24 -23 -24 -23
-34 1 -17 36 -68 71 -82 56 -9 -8 -4 -18 19 -38 59 -51 57 -102 -5 -102 -40 0
-63 18 -76 58 -14 47 4 89 75 172 38 46 72 96 76 114 7 35 24 70 30 63 2 -2 8
-71 13 -153z m69 107 c10 -31 37 -66 89 -118 107 -106 125 -166 66 -213 -32
-25 -69 -26 -83 -1 -12 23 -5 46 27 84 22 28 23 47 1 47 -10 0 -45 -39 -63
-72 -11 -18 -12 -18 -32 1 -22 21 -21 16 -38 245 -7 89 8 101 33 27z m20 -329
c2 -15 -2 -22 -12 -22 -9 0 -16 4 -16 9 0 5 -3 17 -6 26 -5 13 -2 16 12 13 11
-2 20 -13 22 -26z m38 -527 c2 -5 -4 -20 -14 -32 -16 -20 -20 -21 -60 -10 -48
13 -51 33 -3 29 21 -1 34 3 38 13 6 17 34 17 39 0z m475 -468 c45 -30 72 -88
76 -162 3 -60 3 -60 -10 -20 -21 60 -62 137 -91 168 -41 45 -30 51 25 14z
m-150 -236 c20 -77 27 -265 11 -275 -5 -3 -14 45 -21 107 -7 62 -19 148 -27
192 -8 44 -14 89 -13 100 1 30 27 -35 50 -124z m-374 -88 c-4 -17 -4 -17 -12
0 -4 9 -4 25 0 35 8 16 8 16 12 0 3 -10 3 -26 0 -35z"/>
<path d="M1820 3848 c-41 -16 -74 -40 -131 -97 -108 -108 -138 -177 -213 -486
-8 -33 -13 -62 -11 -64 2 -2 26 5 52 14 31 11 89 19 163 22 111 4 128 2 239
-33 23 -7 24 -6 17 27 -19 87 -56 317 -56 344 0 17 -5 36 -10 41 -7 7 2 18 27
35 33 21 38 29 35 56 -4 38 18 53 78 53 61 0 78 -14 114 -94 26 -57 44 -81 82
-110 77 -59 142 -64 72 -6 -24 20 -44 50 -57 86 -45 120 -99 188 -173 219 -54
22 -161 19 -228 -7z m-67 -299 c7 -11 22 -19 35 -19 21 0 23 -4 18 -25 -5 -19
-1 -28 19 -41 33 -21 33 -58 0 -80 -29 -19 -41 -13 -50 26 -4 17 -11 30 -16
30 -12 0 -12 -47 1 -55 6 -3 10 -21 10 -39 0 -24 -7 -38 -30 -55 -30 -21 -70
-22 -70 0 0 5 -7 9 -15 9 -16 0 -19 40 -6 75 6 14 3 24 -8 32 -24 18 -29 16
-23 -12 5 -28 0 -30 -29 -15 -12 7 -19 21 -19 41 0 35 23 48 52 30 24 -15 44
-2 51 34 5 30 -4 32 -28 5 -25 -27 -30 -25 -30 13 0 25 4 31 18 29 10 -2 30 8
43 21 28 28 58 26 77 -4z"/>
<path d="M1715 3530 c3 -5 8 -10 11 -10 2 0 4 5 4 10 0 6 -5 10 -11 10 -5 0
-7 -4 -4 -10z"/>
<path d="M1710 3500 c0 -19 40 -50 65 -50 14 0 25 4 25 9 0 16 -27 31 -44 25
-10 -4 -18 0 -22 10 -7 18 -24 22 -24 6z"/>
<path d="M1690 3457 c0 -27 13 -36 26 -16 3 6 -1 18 -10 27 -15 15 -16 14 -16
-11z"/>
<path d="M1685 3380 c8 -9 15 -26 15 -38 0 -11 4 -23 9 -26 15 -10 29 18 24
50 -4 26 -9 31 -34 31 -26 0 -28 -2 -14 -17z"/>
<path d="M117 3253 c-4 -3 -7 -36 -7 -73 0 -86 32 -151 107 -220 55 -50 55
-50 21 -50 -33 0 -121 12 -190 25 -28 5 -38 4 -38 -6 0 -20 86 -96 142 -126
48 -25 63 -28 153 -28 55 0 113 4 129 8 27 8 28 10 23 55 -4 34 -1 52 10 64
20 22 13 30 -53 68 -67 38 -213 176 -256 242 -35 53 -32 51 -41 41z"/>
<path d="M3224 3218 c-36 -57 -165 -183 -239 -233 -84 -55 -81 -52 -56 -79 23
-25 23 -25 -3 -59 -14 -19 -26 -39 -26 -45 0 -16 127 -35 205 -31 73 5 132 28
188 75 36 30 81 84 75 89 -3 3 -59 -3 -126 -13 -67 -10 -125 -16 -127 -13 -3
2 20 27 51 55 74 66 104 128 104 218 0 37 -4 70 -10 73 -5 3 -21 -14 -36 -37z"/>
<path d="M1630 3203 c-112 -16 -190 -38 -190 -51 0 -10 7 -13 23 -9 132 34
160 33 153 -5 -3 -13 -5 -26 -5 -30 -1 -9 -61 -21 -68 -14 -3 3 6 10 21 15 31
12 34 30 6 33 -11 0 -26 1 -32 2 -7 1 -15 -12 -18 -29 -3 -17 -12 -31 -21 -33
-13 -2 -15 3 -12 23 7 35 -24 34 -33 -1 -11 -42 4 -47 111 -33 103 13 274 7
335 -11 42 -12 52 -4 42 35 -10 35 -36 40 -40 7 -5 -35 -36 -24 -37 13 0 27
-3 30 -30 30 -25 0 -30 -4 -28 -22 4 -36 -24 -28 -29 8 -7 47 4 48 160 12 15
-4 22 -1 22 10 0 27 -239 64 -330 50z m118 -59 c-3 -37 -3 -37 -53 -38 -45 -1
-50 2 -53 22 -6 43 4 52 58 52 51 0 51 0 48 -36z"/>
<path d="M320 3120 c0 -22 95 -111 148 -140 63 -34 76 -28 66 30 -7 45 -11 48
-73 65 -28 7 -67 23 -87 34 -39 23 -54 26 -54 11z"/>
<path d="M2977 3097 c-56 -29 -63 -31 -230 -37 -159 -7 -176 -9 -224 -33 -64
-33 -83 -59 -83 -114 0 -39 4 -46 61 -95 68 -60 89 -92 89 -140 0 -34 -30 -93
-59 -116 -35 -28 -114 -63 -163 -72 -28 -6 -54 -12 -57 -15 -2 -3 17 -28 45
-56 49 -51 49 -51 104 -46 71 6 155 39 203 78 101 83 119 195 54 333 -38 80
-45 110 -27 121 6 4 43 15 83 26 111 31 190 73 236 126 37 42 52 74 34 72 -5
0 -34 -15 -66 -32z"/>
<path d="M1900 3004 c-8 -1 -64 -6 -125 -10 -73 -5 -102 -10 -85 -15 19 -5 12
-7 -29 -8 -43 -1 -52 2 -47 14 4 13 -9 15 -89 15 -89 0 -95 -1 -114 -26 -27
-34 -29 -69 -3 -59 9 4 26 10 37 13 20 5 20 5 0 -18 -39 -44 -97 -80 -132 -80
-23 0 -33 -5 -33 -15 0 -20 66 -20 100 0 33 19 45 19 29 -1 -20 -24 -159 -114
-187 -121 -15 -3 -44 2 -73 15 -32 13 -51 17 -55 10 -9 -14 30 -43 84 -64 38
-15 41 -19 28 -32 -8 -8 -37 -17 -65 -20 -60 -5 -67 -24 -14 -38 20 -5 39 -15
41 -23 4 -11 -7 -13 -57 -7 -68 8 -79 -3 -28 -27 17 -9 47 -27 66 -41 78 -58
227 -80 284 -42 34 23 37 52 5 41 -40 -14 -132 -17 -160 -6 -42 16 -33 31 17
31 59 0 104 19 138 59 31 38 37 68 10 55 -19 -8 -133 -16 -133 -9 0 3 23 20
52 40 35 23 54 31 59 23 10 -15 35 -4 53 24 16 25 12 98 -5 98 -5 0 -9 -4 -9
-9 0 -10 -92 -81 -105 -81 -3 0 9 15 28 33 31 29 95 141 118 207 6 18 7 9 3
-29 -3 -29 0 -77 7 -107 11 -47 15 -54 36 -54 13 0 33 5 44 11 11 6 25 9 32 6
6 -2 -18 -20 -54 -40 -88 -49 -101 -77 -88 -183 11 -88 24 -128 39 -119 6 3
10 17 10 30 0 38 20 41 21 3 1 -45 12 -81 26 -85 6 -2 13 5 15 17 2 15 16 -4
47 -65 41 -80 61 -103 61 -70 0 7 6 18 13 22 11 8 40 55 79 133 17 35 17 35
18 -5 1 -38 2 -39 16 -20 8 11 17 36 21 57 7 46 18 49 27 6 10 -53 24 -20 34
82 11 107 7 126 -38 164 -31 26 -32 28 -15 46 24 26 44 87 45 135 1 38 2 39
16 20 8 -11 19 -38 25 -60 7 -27 27 -55 61 -88 53 -50 38 -53 -23 -5 -45 34
-55 35 -61 4 -10 -50 43 -119 54 -71 2 12 15 7 55 -22 29 -21 52 -41 52 -45 1
-12 -98 -9 -120 2 -24 13 -25 1 -3 -41 19 -38 83 -68 143 -69 37 0 42 -2 31
-15 -24 -29 -88 -38 -141 -21 -58 19 -59 19 -59 2 0 -8 16 -24 36 -37 30 -18
45 -21 95 -15 32 3 76 13 96 21 53 22 173 96 173 106 0 5 -27 6 -60 2 -70 -7
-81 8 -20 29 54 18 54 32 0 38 -81 10 -90 27 -26 53 49 20 81 50 72 66 -5 7
-20 4 -44 -9 -20 -11 -46 -20 -57 -20 -32 1 -96 34 -150 79 -27 22 -55 41 -62
41 -7 0 -13 5 -13 10 0 13 13 13 27 -1 16 -16 78 -27 97 -17 23 13 10 28 -24
28 -21 0 -43 14 -82 51 -50 48 -49 56 5 34 24 -10 21 7 -10 54 -26 40 -39 45
-83 35z m19 -63 c9 -6 10 -11 2 -15 -13 -8 -31 1 -31 15 0 11 11 11 29 0z
m-257 -49 c6 -6 6 -17 -1 -31 -12 -22 -37 -28 -43 -10 -2 6 -20 11 -41 11 -46
0 -54 12 -25 33 24 17 92 15 110 -3z m182 12 c9 -3 16 -12 16 -19 0 -14 -52
-27 -75 -19 -10 4 -15 0 -15 -10 0 -19 -21 -21 -38 -4 -19 19 -14 38 11 48 26
10 79 13 101 4z m-114 -179 c-7 -8 -10 -22 -6 -30 6 -17 2 -18 -42 -9 -27 6
-29 8 -19 25 7 12 18 17 29 13 10 -3 18 -1 18 5 0 6 7 11 16 11 13 0 14 -3 4
-15z"/>
<path d="M2763 2899 c-22 -7 -33 -16 -33 -29 0 -24 46 -60 77 -60 33 0 80 26
94 52 10 18 8 24 -7 35 -20 15 -83 16 -131 2z"/>
<path d="M2771 2773 c0 -5 8 -30 17 -58 15 -43 21 -50 52 -57 49 -11 86 -1
110 29 11 14 20 29 20 33 0 15 -119 60 -159 60 -22 0 -41 -3 -40 -7z"/>
<path d="M285 2693 c-16 -2 -87 -13 -158 -25 -122 -20 -127 -22 -127 -45 0
-47 140 -88 242 -72 64 10 153 41 183 63 18 13 18 15 -10 49 -31 37 -47 40
-130 30z"/>
<path d="M2971 2667 c-18 -20 -31 -40 -27 -45 3 -5 36 -23 73 -38 60 -25 81
-29 173 -29 102 0 107 1 169 36 78 43 88 59 34 59 -22 0 -86 9 -144 19 -57 10
-135 22 -174 26 -70 6 -70 6 -104 -28z"/>
<path d="M2806 2622 c-2 -4 -7 -24 -11 -44 -7 -34 -5 -38 35 -67 23 -17 51
-33 62 -36 24 -8 65 18 80 50 9 21 8 27 -13 44 -22 19 -118 61 -139 61 -5 0
-11 -3 -14 -8z"/>
<path d="M260 2489 c-46 -16 -124 -39 -172 -51 -88 -21 -88 -21 -88 -58 0 -35
3 -39 40 -54 87 -35 207 -13 340 62 76 43 76 41 28 89 -23 23 -47 43 -53 42
-5 0 -48 -14 -95 -30z"/>
<path d="M2971 2476 c-43 -44 -43 -44 -1 -71 117 -74 227 -105 322 -91 48 7
168 72 168 91 0 8 -27 14 -72 18 -59 5 -287 63 -358 91 -10 4 -31 -9 -59 -38z"/>
<path d="M2736 2464 c-29 -35 -29 -35 -5 -61 28 -30 77 -53 113 -53 33 0 76
20 76 36 0 15 -124 114 -142 113 -7 0 -26 -16 -42 -35z"/>
<path d="M2245 2420 c-44 -30 -161 -63 -195 -56 -49 9 -44 -11 17 -75 73 -77
85 -83 120 -66 16 8 39 18 53 22 25 8 25 8 0 -13 -32 -26 -23 -34 21 -22 54
16 165 12 207 -7 53 -23 20 -28 -63 -8 -91 21 -179 4 -126 -24 27 -15 116
-149 160 -240 30 -62 36 -87 36 -138 0 -69 -20 -106 -30 -57 -37 179 -92 321
-145 374 -48 48 -114 71 -180 63 -51 -6 -63 -20 -36 -43 17 -13 48 -104 71
-203 25 -109 45 -270 55 -442 11 -192 19 -257 30 -253 16 6 183 222 242 313
91 140 101 176 95 322 -5 111 -4 127 19 193 15 43 23 82 20 97 -7 27 -60 63
-92 63 -30 0 -63 29 -149 131 -42 49 -82 89 -88 89 -7 0 -25 -9 -42 -20z m246
-281 c28 -14 14 -29 -27 -29 -32 0 -94 23 -94 35 0 10 102 5 121 -6z m-235
-151 c41 -81 70 -187 79 -285 11 -125 -7 -93 -61 109 -18 71 -47 162 -63 204
-26 68 -27 74 -9 57 11 -10 35 -48 54 -85z"/>
<path d="M1924 2371 c4 -25 2 -41 -4 -41 -5 0 -10 9 -10 20 0 12 -7 20 -16 20
-13 0 -15 -7 -9 -42 4 -24 9 -45 12 -48 3 -3 17 9 33 26 23 27 27 38 21 65 -3
18 -13 35 -20 37 -11 4 -13 -4 -7 -37z"/>
<path d="M2613 2377 c-35 -17 -63 -36 -63 -41 0 -5 11 -24 26 -43 23 -31 29
-33 83 -33 34 0 65 6 77 14 18 14 18 16 1 48 -10 19 -28 46 -40 60 -22 27 -22
27 -84 -5z"/>
<path d="M1426 2381 c-9 -14 44 -45 57 -32 7 7 6 15 -3 26 -14 16 -46 20 -54
6z"/>
<path d="M2444 2329 c-7 -12 44 -69 63 -69 17 0 16 14 -2 50 -16 30 -48 40
-61 19z"/>
<path d="M1410 2320 c0 -6 7 -13 15 -16 21 -8 19 -36 -2 -32 -12 2 -19 -4 -21
-19 -4 -24 0 -26 35 -17 24 7 36 49 22 76 -10 19 -49 25 -49 8z"/>
<path d="M2780 2309 c0 -35 116 -161 203 -220 77 -53 126 -69 211 -69 77 1
181 35 181 60 0 7 -18 18 -40 25 -86 27 -241 108 -368 193 -33 22 -51 26 -113
27 -62 0 -74 -3 -74 -16z"/>
<path d="M1823 2284 c-3 -8 -11 -13 -17 -11 -14 5 -62 -31 -53 -39 3 -4 19 -2
36 4 26 9 34 7 71 -20 49 -36 45 -46 -11 -28 -33 11 -50 11 -92 1 -29 -7 -71
-15 -94 -18 -33 -4 -43 -9 -43 -23 0 -22 16 -35 25 -20 8 13 45 13 45 0 0 -6
-11 -16 -25 -22 -54 -25 -24 -50 75 -62 30 -4 62 -11 70 -16 10 -7 -4 -8 -42
-4 -46 5 -58 4 -58 -7 0 -17 196 -80 250 -81 19 0 54 -6 78 -14 23 -8 46 -14
51 -14 12 0 22 101 15 140 -4 20 -15 35 -29 40 -12 4 -41 31 -64 59 -23 28
-66 64 -95 81 -30 16 -56 39 -59 50 -6 24 -25 26 -34 4z"/>
<path d="M2630 2229 c0 -5 11 -33 24 -63 27 -60 71 -96 119 -96 15 0 27 -4 27
-10 0 -5 -18 -10 -40 -10 -22 0 -40 -2 -40 -4 0 -16 97 -171 131 -210 75 -85
173 -128 278 -123 60 2 76 18 38 39 -33 18 -335 348 -377 413 -20 30 -39 57
-42 61 -10 10 -118 13 -118 3z"/>
<path d="M1433 2209 c-24 -9 -31 -33 -12 -44 6 -4 16 1 24 11 18 25 33 9 16
-18 -19 -30 4 -51 25 -23 30 41 -7 92 -53 74z"/>
<path d="M1518 2141 c-13 -11 -19 -24 -15 -34 9 -23 24 -21 32 4 9 29 31 18
27 -14 -2 -19 1 -27 12 -27 25 0 37 34 21 57 -20 29 -51 34 -77 14z"/>
<path d="M2636 2061 c-15 -24 -6 -149 14 -216 42 -132 80 -190 163 -247 78
-53 88 -48 70 37 -19 94 -29 114 -126 258 -48 70 -87 133 -87 141 0 19 -26 40
-34 27z"/>
<path d="M1280 1910 c0 -33 -3 -40 -17 -38 -14 2 -22 -17 -44 -102 -54 -208
-132 -387 -273 -623 -47 -79 -86 -152 -86 -164 0 -14 10 -25 33 -33 17 -7 62
-33 100 -58 64 -43 71 -46 152 -50 59 -3 85 -1 85 7 0 20 15 12 75 -40 87 -74
362 -279 375 -279 23 0 192 122 372 270 67 55 131 100 142 100 34 1 106 38
106 55 0 21 -67 225 -79 239 -24 29 -112 321 -152 508 -14 64 -23 83 -36 75
-6 -4 7 -95 34 -229 50 -258 83 -457 83 -510 0 -37 0 -37 62 -40 71 -3 84 -19
37 -43 -32 -17 -40 -14 -52 20 -4 11 -13 4 -189 -144 -156 -133 -302 -241
-323 -241 -23 0 -417 301 -469 359 -12 13 -31 21 -50 21 -34 0 -64 15 -53 26
3 4 29 9 57 12 46 4 50 6 55 36 3 17 16 96 30 176 28 167 65 446 65 495 0 19
-4 37 -10 40 -5 3 -10 3 -10 -2 0 -38 -46 -276 -70 -363 -35 -125 -102 -309
-131 -358 -24 -41 -14 -60 53 -103 43 -28 78 -59 65 -59 -2 0 -29 11 -60 24
-30 14 -81 32 -113 40 -36 9 -65 24 -75 38 -15 20 -20 21 -45 10 -47 -22 -48
1 -2 59 51 64 85 94 151 132 57 33 70 58 117 221 38 133 66 273 75 385 5 60
10 79 17 68 8 -15 44 -17 373 -17 365 0 365 0 365 24 0 30 -15 42 -62 50 -21
4 -57 16 -80 26 -39 18 -68 20 -320 20 -278 0 -278 0 -278 -40z"/>
<path d="M2610 1743 c0 -21 -9 -58 -20 -82 -24 -53 -25 -79 -4 -111 24 -35
147 -160 158 -160 5 0 7 37 3 90 -6 94 -26 154 -71 212 -13 18 -29 45 -35 61
-15 39 -31 33 -31 -10z"/>
<path d="M1672 1748 c-29 -37 -42 -78 -32 -103 6 -15 10 -33 10 -41 0 -13 -3
-13 -22 0 -30 21 -71 20 -91 -2 -20 -22 -21 -42 -5 -77 15 -33 36 -32 40 3 2
19 9 28 25 30 28 4 66 -52 58 -85 -3 -12 -1 -25 5 -28 5 -3 10 -22 10 -41 0
-27 -4 -34 -20 -34 -16 0 -20 -7 -20 -30 0 -24 4 -30 20 -30 18 0 20 -4 15
-34 -5 -25 -3 -35 9 -39 20 -8 30 10 28 45 -2 22 2 28 17 28 11 0 21 9 24 22
8 27 1 38 -24 38 -15 0 -19 7 -19 34 0 19 4 37 8 40 5 3 7 18 5 33 -6 37 29
83 63 83 22 0 25 -4 22 -27 -2 -19 2 -28 12 -28 8 0 21 12 30 28 13 24 13 30
-1 55 -12 22 -22 27 -50 26 -18 0 -42 -4 -51 -8 -15 -7 -16 -4 -7 26 8 27 5
42 -12 81 -24 50 -30 55 -47 35z"/>
<path d="M1395 1618 c-3 -73 -10 -222 -14 -331 -5 -130 -11 -201 -19 -209 -23
-23 -14 -85 18 -120 30 -33 30 -33 60 0 34 36 41 93 16 121 -12 13 -16 80 -22
344 -5 250 -10 327 -20 327 -8 0 -14 -37 -19 -132z m32 -585 c-20 -20 -57 -8
-57 18 0 15 5 18 24 13 15 -3 27 -1 32 8 7 10 9 9 12 -6 2 -10 -3 -25 -11 -33z"/>
<path d="M1935 1738 c-3 -7 -6 -78 -7 -158 -3 -145 -3 -145 -35 -155 -44 -13
-43 -35 2 -35 32 0 35 -3 35 -28 0 -17 -9 -37 -21 -48 -29 -26 -49 -75 -49
-123 0 -32 6 -44 31 -65 41 -35 71 -33 103 5 40 47 31 121 -21 181 -8 9 -13
29 -11 45 2 22 9 29 31 31 30 4 38 32 8 32 -36 0 -41 21 -38 175 1 111 -1 149
-10 152 -7 3 -15 -1 -18 -9z m-15 -546 c-1 -52 -2 -55 -15 -38 -15 20 -20 63
-9 90 12 31 24 4 24 -52z m73 -12 c-3 -11 -10 -20 -15 -20 -6 0 -8 10 -4 23 3
12 6 33 7 47 1 25 1 25 9 -2 4 -15 6 -37 3 -48z"/>
<path d="M690 1437 c0 -7 6 -21 13 -32 18 -24 32 -3 17 25 -12 23 -30 27 -30
7z"/>
<path d="M2440 1341 c-16 -31 -12 -78 20 -205 19 -78 39 -134 59 -165 29 -43
29 -46 11 -49 -27 -5 -38 3 -146 103 -105 97 -105 97 -63 -22 12 -34 19 -69
16 -77 -3 -8 -44 -26 -91 -41 -47 -15 -89 -31 -92 -36 -4 -7 45 -9 133 -6 118
3 147 7 201 28 99 40 97 31 46 208 -24 85 -50 183 -57 217 -12 67 -20 76 -37
45z"/>
<path d="M1669 1194 c-13 -25 -20 -29 -58 -29 -49 0 -59 -11 -37 -40 12 -16
16 -17 29 -6 15 12 56 7 57 -7 1 -4 3 -29 5 -56 3 -26 0 -56 -5 -66 -10 -19 5
-80 19 -80 20 0 30 52 22 120 -8 79 4 107 40 96 62 -19 59 -20 59 13 0 31 0
31 -45 24 -43 -6 -45 -5 -59 27 -13 33 -13 33 -27 4z"/>
<path d="M1270 967 c0 -7 20 -33 45 -57 46 -45 55 -44 33 1 -14 31 -78 76 -78
56z"/>
<path d="M709 734 c-58 -18 -109 -71 -109 -115 0 -17 7 -56 16 -86 19 -67 13
-105 -26 -157 -35 -46 -38 -78 -11 -122 34 -57 84 -78 183 -80 122 -3 242 -42
269 -89 17 -28 27 -34 69 -40 27 -4 78 -5 112 -4 35 2 69 0 76 -4 6 -5 16 -6
21 -2 5 3 52 -2 103 -12 109 -19 426 -29 478 -15 19 6 97 22 173 36 77 14 209
49 295 77 139 46 166 52 234 50 90 -1 146 17 182 60 40 48 42 81 7 143 -35 61
-39 104 -16 181 19 61 13 90 -28 133 -102 106 -315 59 -342 -75 -5 -26 -3 -33
9 -33 8 0 18 9 21 20 18 56 183 83 239 39 36 -28 32 -67 -9 -91 -17 -9 -85
-29 -153 -43 -67 -14 -191 -43 -275 -65 -270 -69 -310 -75 -542 -75 -237 0
-285 7 -635 95 -107 27 -220 54 -250 60 -79 15 -122 43 -118 77 2 14 15 35 29
45 55 41 209 14 239 -42 18 -34 33 -24 27 18 -11 67 -112 134 -199 131 -13 0
-44 -7 -69 -15z"/>
</g>
</svg>
