<?xml version="1.0" standalone="no"?>
<!DOCTYPE svg PUBLIC "-//W3C//DTD SVG 20010904//EN"
 "http://www.w3.org/TR/2001/REC-SVG-20010904/DTD/svg10.dtd">
<svg version="1.0" xmlns="http://www.w3.org/2000/svg"
 width="315.000000pt" height="407.000000pt" viewBox="0 0 315.000000 407.000000"
 preserveAspectRatio="xMidYMid meet">
<metadata>
Created by potrace 1.16, written by Peter Selinger 2001-2019
</metadata>
<g transform="translate(0.000000,407.000000) scale(0.100000,-0.100000)"
fill="#000000" stroke="none">
<path d="M1580 4041 c0 -37 -22 -55 -60 -47 -40 8 -40 -13 1 -37 23 -13 29
-22 24 -35 -23 -53 -10 -89 15 -42 6 11 20 20 30 20 11 0 25 -9 32 -20 16 -25
43 -27 33 -2 -20 46 -17 68 10 80 35 16 27 38 -13 34 -29 -3 -32 0 -42 37 -12
47 -30 54 -30 12z"/>
<path d="M1947 3813 c-13 -12 -7 -23 11 -23 11 0 27 -9 38 -21 17 -19 17 -23
3 -47 -18 -34 -62 -40 -127 -18 -77 27 -139 21 -221 -20 -53 -26 -83 -50 -113
-87 -49 -62 -109 -186 -111 -232 -2 -28 -7 -34 -29 -39 -24 -5 -28 -11 -30
-43 0 -21 -1 -46 0 -55 1 -10 -3 -18 -8 -18 -6 0 -10 -4 -10 -9 0 -13 389 -26
402 -13 6 6 6 12 0 16 -6 4 -8 21 -5 40 3 18 0 42 -6 53 -18 34 -142 55 -196
34 -18 -7 -17 -9 10 -14 17 -3 55 -9 85 -13 68 -8 80 -17 80 -60 0 -34 0 -34
-170 -32 -93 2 -170 6 -170 11 0 4 3 7 8 7 4 0 18 9 31 19 20 15 22 21 12 39
-10 19 -6 22 54 43 47 17 65 29 67 44 2 13 12 21 31 23 32 4 34 13 6 30 -16
11 -18 16 -9 28 7 8 23 14 36 14 32 0 40 19 15 36 -26 19 -19 34 16 34 22 0
24 3 19 25 -5 20 -3 25 14 25 12 0 20 7 20 16 0 12 6 15 25 10 19 -5 25 -2 25
10 0 12 6 15 26 10 19 -5 30 -2 39 11 10 13 16 15 26 6 14 -11 75 -18 140 -15
32 2 39 7 54 38 14 31 15 43 6 75 -15 51 -70 87 -94 62z"/>
<path d="M1064 3745 c-48 -51 -54 -54 -112 -61 -46 -5 -62 -11 -62 -22 0 -12
12 -14 76 -8 72 7 77 6 126 -24 65 -40 83 -37 83 15 0 36 3 40 28 43 19 2 27
9 27 23 0 22 -32 39 -38 21 -7 -22 -32 -13 -32 12 0 72 -29 72 -96 1z m70 -1
c8 -21 -1 -34 -19 -27 -8 3 -15 0 -15 -6 0 -6 9 -11 20 -11 20 0 40 -44 26
-57 -5 -5 -76 27 -95 44 -6 4 60 73 70 73 4 0 10 -7 13 -16z"/>
<path d="M635 3741 c-41 -18 -95 -83 -95 -113 0 -19 -13 -24 -87 -33 -54 -7
-133 12 -180 42 -27 18 -38 3 -34 -50 2 -36 1 -37 -23 -31 -19 4 -28 2 -32
-11 -10 -26 12 -42 37 -26 26 15 36 6 41 -34 5 -45 27 -41 88 16 42 40 66 54
100 60 83 16 83 16 91 -15 10 -36 67 -96 91 -96 21 0 43 -36 28 -45 -5 -3 -9
-16 -8 -28 0 -12 -3 -31 -7 -41 -8 -17 -5 -19 25 -13 18 4 43 7 56 7 28 0 31
16 7 42 -21 24 -24 89 -4 104 9 7 12 18 7 29 -6 17 -7 17 -21 -1 -10 -13 -14
-15 -15 -5 0 8 8 20 18 27 26 19 -5 40 -54 35 -23 -2 -23 -41 -1 -53 21 -11
21 -11 -3 -20 -30 -11 -61 16 -64 58 -2 16 -4 34 -6 39 -4 15 12 95 20 100 4
3 10 -2 14 -10 7 -20 36 -19 36 0 0 8 -7 15 -15 15 -23 0 -18 18 7 26 13 4 24
2 26 -5 5 -16 32 -13 32 4 0 18 2 18 35 3 21 -9 25 -17 20 -35 -5 -23 8 -32
20 -13 3 6 10 10 15 10 12 0 42 -81 42 -113 -1 -35 -38 -92 -69 -106 -25 -12
-31 -49 -9 -57 22 -8 93 47 112 88 15 33 18 60 14 121 -2 33 -28 82 -59 112
-27 25 -40 30 -94 32 -42 1 -75 -4 -102 -16z m-340 -151 c3 -5 16 -10 28 -10
48 0 52 -16 13 -55 -21 -20 -38 -35 -40 -33 -7 12 -26 77 -26 91 0 19 15 23
25 7z m285 -41 c0 -6 -4 -7 -10 -4 -5 3 -10 11 -10 16 0 6 5 7 10 4 6 -3 10
-11 10 -16z"/>
<path d="M686 3302 c-5 -9 58 -528 74 -605 13 -60 13 -57 -5 -57 -9 0 -27 -12
-40 -26 -24 -26 -24 -26 -52 17 -24 36 -28 53 -28 108 0 54 6 76 30 119 22 40
27 58 19 70 -20 34 -96 61 -199 72 -177 19 -304 72 -411 173 -34 31 -64 57
-68 57 -9 0 -7 -55 3 -65 5 -6 14 -28 21 -50 42 -134 170 -274 266 -290 21 -3
51 -9 67 -11 40 -8 33 11 -15 39 -45 26 -99 77 -82 77 6 0 48 -16 94 -35 47
-19 91 -35 99 -35 11 0 12 -11 8 -50 -18 -155 80 -348 224 -441 28 -18 54 -28
57 -23 12 16 82 16 82 0 0 -8 -6 -16 -14 -19 -11 -5 -13 -19 -9 -62 5 -47 4
-55 -10 -50 -19 8 -41 -64 -63 -207 -46 -310 -63 -394 -88 -443 -31 -60 -32
-51 -6 35 25 81 45 195 65 370 18 156 31 238 40 263 5 11 2 17 -8 17 -9 0 -23
-23 -36 -57 -12 -32 -33 -78 -47 -103 -25 -45 -25 -45 -18 0 3 25 12 70 21
100 29 109 29 110 -9 70 -18 -19 -43 -48 -56 -64 -42 -54 -30 -21 19 52 27 40
49 75 49 78 0 11 -31 2 -36 -10 -3 -8 -16 -22 -29 -30 -24 -16 -24 -16 -9 19
11 26 12 41 4 55 -13 25 -15 25 -57 -2 -34 -20 -35 -20 -25 -1 6 11 18 25 26
33 29 23 18 38 -35 45 -51 7 -51 7 -25 34 14 15 26 30 26 34 0 4 -18 14 -41
23 -40 17 -40 17 -19 39 22 23 22 23 0 45 -11 11 -29 19 -38 16 -49 -14 -220
-37 -255 -34 -25 2 -42 -2 -44 -9 -6 -18 135 -92 190 -99 45 -6 58 -16 37 -29
-23 -14 -7 -25 35 -25 25 0 45 -3 45 -6 0 -18 -204 -152 -250 -164 -44 -12
-52 -27 -18 -34 117 -24 203 -11 278 40 28 19 50 30 50 25 0 -29 -80 -193
-124 -254 -70 -98 -177 -187 -260 -217 -21 -8 -26 -14 -18 -22 18 -18 189 -4
254 21 71 28 147 95 189 167 17 30 32 54 34 52 2 -2 -1 -41 -6 -88 -5 -47 -13
-166 -19 -265 -12 -210 -38 -344 -97 -487 -45 -110 -121 -244 -158 -278 -23
-22 -34 -50 -18 -50 4 0 42 14 84 32 98 40 175 97 240 179 28 35 55 65 59 67
7 3 24 -62 33 -123 10 -78 79 86 98 234 20 157 19 153 33 142 8 -6 26 -38 41
-72 14 -33 32 -58 38 -56 8 2 13 50 15 152 3 148 3 148 32 101 36 -56 60 -58
72 -6 4 19 13 136 19 258 12 231 1 566 -21 641 -5 19 -7 37 -4 40 8 8 44 -41
44 -61 0 -9 5 -29 11 -45 14 -37 29 -13 22 36 -5 36 -5 36 22 7 14 -15 29 -41
32 -57 8 -40 23 -37 23 5 0 38 -30 82 -63 92 -12 3 -33 17 -47 29 -14 13 -38
27 -54 31 -32 8 -31 14 -9 -98 6 -32 -7 -36 -30 -10 -12 13 -17 40 -18 93 -2
59 -7 81 -26 109 -12 19 -23 42 -23 52 0 46 -21 59 -51 32 -17 -15 -18 -15
-23 7 -7 35 -67 580 -66 607 0 15 -6 22 -19 22 -11 0 -22 -4 -25 -8z m149
-693 c9 -14 6 -16 -35 -23 -31 -5 -32 -5 -12 6 12 6 22 15 22 20 0 12 18 10
25 -3z m-100 -53 c-17 -14 -32 -20 -34 -14 -5 14 27 38 48 38 11 0 6 -8 -14
-24z m66 -32 c-19 -8 -36 -12 -39 -9 -6 6 37 24 58 24 8 0 0 -6 -19 -15z m-71
-39 c-7 -8 -16 -15 -21 -15 -5 0 -6 7 -3 15 4 8 13 15 21 15 13 0 13 -3 3 -15z
m87 -21 c-3 -3 -12 -4 -19 -1 -8 3 -5 6 6 6 11 1 17 -2 13 -5z m-85 -46 c-7
-7 -12 -8 -12 -2 0 14 12 26 19 19 2 -3 -1 -11 -7 -17z m135 -107 c11 -12 36
-21 63 -24 45 -4 45 -4 44 -371 0 -258 -4 -370 -12 -378 -24 -24 -39 59 -87
477 -14 121 -28 241 -31 268 -7 52 -3 56 23 28z m8 -606 c7 -69 7 -69 -19 -38
-14 17 -26 36 -26 42 0 15 -27 14 -33 -1 -3 -7 -6 10 -6 37 -1 50 -1 50 18 26
24 -32 41 -19 42 32 1 42 1 42 9 7 5 -19 12 -66 15 -105z m-78 -72 c-3 -10 -5
-4 -5 12 0 17 2 24 5 18 2 -7 2 -21 0 -30z"/>
<path d="M1510 3282 c0 -31 24 -46 49 -30 26 16 27 38 2 38 -11 0 -26 3 -35 6
-11 4 -16 0 -16 -14z"/>
<path d="M3114 3209 c-34 -38 -128 -106 -189 -136 -87 -44 -157 -61 -270 -68
-126 -8 -175 -20 -216 -55 -34 -27 -34 -27 -1 -90 50 -98 41 -192 -27 -271
-42 -50 -100 -78 -159 -79 -46 0 -105 21 -134 47 -28 25 -34 8 -15 -45 9 -26
21 -66 27 -89 9 -36 17 -45 62 -67 73 -37 143 -35 226 4 157 74 277 287 256
451 -6 47 -6 47 52 68 33 12 78 29 102 38 23 9 45 13 48 10 8 -8 -55 -64 -88
-78 -42 -17 -34 -29 20 -29 122 1 246 118 312 295 41 109 39 144 -6 94z"/>
<path d="M1185 3158 c-97 -8 -165 -30 -173 -55 -10 -35 134 -104 222 -107 58
-2 41 19 -28 36 -96 23 -158 48 -153 62 8 26 77 30 249 13 221 -22 295 -21
498 3 169 20 260 18 260 -5 0 -14 -65 -42 -121 -54 -42 -9 -51 -31 -12 -31 44
0 115 27 146 56 33 31 34 39 2 60 -42 27 -139 28 -315 4 -197 -27 -319 -25
-375 9 -39 23 -47 23 -200 9z"/>
<path d="M1485 3053 c-54 -11 -77 -12 -101 -4 -45 16 -66 14 -62 -6 2 -12 18
-21 46 -27 34 -7 42 -13 42 -31 0 -34 -27 -39 -42 -8 -24 50 -40 41 -33 -19 9
-73 11 -78 37 -78 21 -1 20 -3 -12 -29 -40 -34 -45 -33 -29 2 7 17 8 31 1 42
-8 15 -14 8 -35 -39 -14 -31 -31 -56 -36 -56 -6 0 -11 -7 -11 -15 0 -20 51
-20 89 -1 15 8 44 33 64 55 45 50 89 55 135 16 17 -14 33 -25 36 -25 3 0 6 11
6 25 0 14 6 25 13 25 13 1 47 62 47 87 0 30 26 -5 60 -79 18 -40 42 -85 52
-100 17 -24 17 -28 4 -28 -21 0 -20 -25 0 -59 21 -35 54 -58 54 -37 0 8 -4 18
-10 21 -20 12 -10 26 10 15 24 -13 26 -52 4 -71 -20 -17 -134 -186 -134 -199
0 -15 15 -12 41 9 13 10 47 30 74 44 42 21 136 76 233 138 12 7 22 20 22 27 0
23 -39 72 -130 167 -72 75 -89 99 -103 145 -25 82 -31 87 -114 93 -66 5 -73 3
-73 -14 0 -16 -3 -15 -25 6 -28 29 -26 28 -120 8z m90 -43 c10 -16 -14 -49
-40 -56 -44 -11 -101 44 -62 59 22 9 96 7 102 -3z m409 -300 c40 -60 40 -59
-74 -123 -19 -11 -54 -33 -77 -48 -40 -28 -63 -36 -63 -22 0 15 84 113 96 113
8 0 19 12 24 26 8 19 15 24 29 19 31 -10 36 29 10 71 -22 37 -22 37 3 20 14
-9 38 -35 52 -56z m-114 -29 c-1 -25 -1 -25 -15 8 -19 42 -19 47 0 31 8 -7 15
-24 15 -39z"/>
<path d="M1510 2990 c0 -5 4 -10 9 -10 6 0 13 5 16 10 3 6 -1 10 -9 10 -9 0
-16 -4 -16 -10z"/>
<path d="M1635 2885 c-3 -14 -7 -36 -10 -49 -4 -20 -11 -25 -38 -24 -19 0 -42
10 -57 24 -14 12 -37 26 -52 29 -62 16 -10 -60 85 -121 44 -29 47 -37 10 -28
-33 8 -110 61 -117 80 -6 16 -36 19 -36 4 0 -16 -56 -40 -93 -40 -20 0 -46 -9
-61 -21 -31 -24 -34 -39 -6 -32 25 7 25 6 1 -48 -25 -56 -14 -116 28 -156 15
-16 36 -53 46 -83 20 -64 32 -81 44 -62 6 10 12 7 24 -12 10 -14 17 -32 17
-41 0 -24 19 -18 47 15 18 22 31 29 44 25 11 -4 19 -2 19 4 0 5 9 12 19 16 12
3 27 26 38 53 22 60 71 132 86 129 8 -1 13 19 15 61 2 46 7 62 17 62 19 0 19
7 0 60 -8 23 -15 63 -15 89 0 70 -43 122 -55 66z"/>
<path d="M70 2823 c0 -17 133 -107 184 -125 65 -22 144 -24 153 -3 15 40 -91
100 -202 115 -44 5 -92 13 -107 16 -16 4 -28 2 -28 -3z"/>
<path d="M3010 2820 c-14 -4 -41 -8 -61 -9 -61 -2 -133 -29 -177 -67 -34 -29
-40 -39 -31 -50 15 -18 82 -18 145 1 51 15 194 107 194 125 0 12 -34 11 -70 0z"/>
<path d="M2707 2609 c-21 -18 -21 -20 -4 -33 26 -20 21 -35 -18 -52 -19 -8
-35 -17 -35 -21 0 -4 12 -19 26 -34 25 -26 25 -26 -25 -33 -28 -4 -51 -10 -51
-14 0 -4 9 -18 20 -32 28 -35 25 -43 -10 -25 -54 28 -57 23 -34 -65 6 -24 5
-23 -29 9 -20 19 -40 32 -43 28 -3 -3 12 -39 35 -79 41 -73 41 -73 -9 -19 -27
30 -52 52 -54 50 -3 -3 4 -33 14 -68 19 -60 39 -182 28 -171 -3 3 -22 46 -43
95 -39 93 -51 113 -61 103 -6 -7 68 -504 90 -598 9 -38 12 -68 6 -74 -15 -15
-32 66 -86 429 -16 113 -61 258 -78 252 -6 -2 -12 -23 -13 -48 -5 -75 -14
-130 -22 -125 -4 3 -13 41 -21 85 -9 54 -18 81 -27 81 -7 0 -13 -11 -13 -24 0
-13 -14 -70 -31 -127 -20 -67 -29 -117 -26 -140 3 -20 1 -43 -4 -50 -5 -8 -9
-9 -10 -4 -1 6 -5 -8 -10 -30 -14 -70 -23 -391 -11 -399 7 -4 27 19 52 56 46
71 54 125 20 146 -25 16 -27 62 -2 62 9 0 33 21 52 47 19 25 36 41 37 36 2 -6
-8 -63 -22 -127 -19 -90 -25 -146 -25 -241 0 -127 7 -185 21 -185 4 0 20 27
35 60 41 91 51 94 59 13 14 -133 67 -332 91 -340 6 -2 15 23 22 55 7 32 18 66
25 75 11 16 17 10 62 -49 59 -78 148 -145 247 -186 82 -33 103 -26 59 21 -39
42 -109 165 -155 273 -69 164 -106 361 -106 572 0 50 -5 129 -10 175 -6 46 -9
85 -7 87 2 2 24 -26 48 -62 47 -69 129 -134 197 -155 51 -15 211 -24 223 -12
7 7 -10 20 -48 38 -71 35 -213 174 -262 257 -37 65 -84 175 -79 188 2 5 23 -4
47 -20 24 -17 62 -35 85 -41 77 -21 250 14 179 37 -48 15 -263 151 -263 167 0
4 18 7 41 7 38 0 41 2 35 24 -5 21 -2 24 39 29 49 7 111 36 162 75 39 29 34
45 -11 37 -18 -4 -77 1 -132 9 -54 9 -109 18 -122 20 -13 2 -33 -5 -45 -15z
m-340 -971 c-2 -24 -4 -5 -4 42 0 47 2 66 4 43 2 -24 2 -62 0 -85z m190 -190
c-3 -8 -6 -5 -6 6 -1 11 2 17 5 13 3 -3 4 -12 1 -19z"/>
<path d="M1161 2561 c-12 -16 -21 -33 -21 -39 0 -11 100 -112 111 -112 21 0 6
28 -38 72 -47 48 -47 48 -25 64 12 8 22 22 22 30 0 24 -27 16 -49 -15z"/>
<path d="M1925 2403 c-75 -40 -232 -169 -220 -181 4 -4 17 -7 28 -7 15 0 21
-5 19 -17 -1 -9 13 -28 33 -44 36 -27 58 -27 35 1 -7 9 -10 18 -7 22 7 7 94
-28 154 -63 49 -28 63 -30 63 -8 0 10 -36 32 -97 62 -98 47 -98 47 -36 50 59
3 102 -9 145 -40 21 -16 36 -3 22 20 -17 28 -76 52 -126 52 -50 0 -72 14 -38
25 11 3 20 11 20 16 0 12 -2 12 -61 -11 -28 -12 -56 -19 -62 -17 -9 3 100 87
159 123 32 20 4 35 -31 17z"/>
<path d="M1155 2378 c4 -18 10 -64 14 -102 3 -41 11 -71 18 -73 19 -7 26 43
14 93 -14 53 -7 68 15 36 8 -12 19 -22 25 -22 16 0 10 24 -16 63 -19 27 -33
37 -52 37 -24 0 -25 -2 -18 -32z"/>
<path d="M1480 2210 c-8 -5 -25 -10 -38 -10 -33 0 -124 -49 -119 -63 5 -13 10
-13 42 -1 18 7 19 6 6 -9 -8 -10 -11 -21 -7 -25 4 -4 15 2 24 13 10 11 29 21
45 22 31 2 37 -16 8 -24 -11 -3 -22 -11 -25 -19 -8 -20 8 -17 29 6 23 25 41
25 88 0 32 -18 38 -18 43 -5 8 21 24 9 24 -18 0 -12 13 -80 29 -152 51 -224
120 -559 123 -594 4 -48 24 -50 43 -4 14 32 14 48 5 103 -16 91 -56 247 -90
350 -16 48 -43 143 -60 211 -17 68 -37 141 -45 162 -12 30 -12 37 -2 37 17 0
60 -47 75 -82 14 -34 36 -38 27 -5 -4 12 -9 31 -12 42 -3 13 16 -1 54 -37 54
-53 83 -71 83 -50 0 16 -140 143 -150 137 -5 -3 -20 1 -32 9 -25 18 -84 21
-93 6 -4 -7 -12 -7 -25 0 -23 12 -31 12 -50 0z"/>
<path d="M1262 2079 c2 -8 17 -20 33 -28 32 -15 198 -27 239 -17 47 12 27 26
-36 27 -59 0 -107 6 -202 25 -31 6 -38 4 -34 -7z"/>
<path d="M1480 2079 c0 -5 5 -7 10 -4 6 3 10 8 10 11 0 2 -4 4 -10 4 -5 0 -10
-5 -10 -11z"/>
<path d="M1256 1951 c-26 -41 280 -67 314 -26 8 10 -16 14 -117 18 -71 4 -142
9 -159 13 -18 3 -34 1 -38 -5z"/>
<path d="M1306 1879 c-3 -8 -10 -138 -16 -289 -27 -660 -46 -878 -89 -1001
-48 -138 -123 -265 -189 -319 -27 -22 -33 -33 -25 -41 26 -26 167 141 219 257
67 150 82 255 99 694 22 579 23 763 1 699z"/>
<path d="M1360 1878 c0 -2 -2 -307 -4 -678 -4 -678 -13 -911 -42 -1093 -9 -54
-13 -101 -10 -105 15 -14 28 22 46 120 35 193 51 380 57 668 8 375 -17 1090
-38 1090 -5 0 -9 -1 -9 -2z"/>
<path d="M1236 1748 c-3 -24 -10 -101 -16 -173 -44 -532 -166 -1010 -311
-1221 -17 -25 -28 -48 -25 -51 13 -13 37 11 89 89 132 202 177 338 227 693 43
307 72 705 52 705 -6 0 -13 -19 -16 -42z"/>
<path d="M1953 1460 c-18 -19 -33 -40 -33 -46 0 -25 40 -203 65 -288 46 -159
145 -396 166 -396 16 0 10 22 -37 135 -71 172 -99 300 -122 550 -7 79 -7 79
-39 45z"/>
<path d="M1690 1123 c1 -58 100 -334 170 -475 106 -211 197 -310 364 -394 83
-42 136 -55 136 -35 0 5 -25 21 -55 35 -109 49 -242 172 -346 319 -86 120
-170 309 -236 531 -10 34 -33 47 -33 19z"/>
<path d="M1547 1053 c-7 -11 27 -223 59 -373 37 -173 78 -310 124 -405 39 -81
149 -257 169 -269 23 -15 10 30 -28 93 -108 179 -233 550 -276 816 -9 55 -18
110 -21 123 -4 22 -18 29 -27 15z"/>
</g>
</svg>
