<?xml version="1.0" standalone="no"?>
<!DOCTYPE svg PUBLIC "-//W3C//DTD SVG 20010904//EN"
 "http://www.w3.org/TR/2001/REC-SVG-20010904/DTD/svg10.dtd">
<svg version="1.0" xmlns="http://www.w3.org/2000/svg"
 width="374.000000pt" height="442.000000pt" viewBox="0 0 374.000000 442.000000"
 preserveAspectRatio="xMidYMid meet">
<metadata>
Created by potrace 1.16, written by Peter Selinger 2001-2019
</metadata>
<g transform="translate(0.000000,442.000000) scale(0.100000,-0.100000)"
fill="#000000" stroke="none">
<path d="M1880 4349 c-17 -49 -49 -73 -90 -67 -46 7 -47 -9 -5 -52 39 -40 40
-43 19 -124 -8 -33 4 -33 52 -1 20 14 42 25 49 25 7 0 29 -11 49 -25 46 -31
60 -32 52 -2 -23 76 -20 92 24 130 48 40 46 58 -5 50 -46 -7 -78 14 -95 66 -7
23 -19 41 -25 41 -6 0 -18 -18 -25 -41z"/>
<path d="M521 4021 c-12 -38 -21 -80 -21 -93 0 -34 -8 -41 -90 -82 -41 -21
-79 -42 -84 -46 -5 -5 21 -23 60 -42 69 -34 69 -34 72 -91 3 -50 6 -58 26 -63
23 -5 52 -51 41 -62 -9 -10 -95 41 -120 71 -13 15 -29 27 -35 27 -21 0 -1
-101 36 -177 28 -58 51 -88 119 -150 47 -43 85 -82 85 -87 0 -14 -71 3 -135
33 -72 33 -121 79 -147 140 -19 46 -41 169 -36 210 5 43 -21 33 -47 -18 -59
-117 -74 -292 -34 -409 29 -86 91 -153 169 -184 33 -12 60 -27 60 -31 0 -5
-60 -7 -132 -5 -104 3 -140 7 -167 22 -45 24 -55 11 -34 -50 56 -164 163 -254
303 -254 23 0 40 -4 38 -8 -14 -35 -184 -208 -228 -233 -27 -15 5 -31 74 -36
36 -3 66 -9 66 -13 0 -10 -91 -79 -160 -122 -50 -31 -105 -57 -153 -72 -41
-13 -5 -41 102 -78 70 -24 198 -35 240 -20 17 6 31 8 31 3 0 -10 -48 -53 -83
-75 -41 -25 -24 -36 56 -36 86 0 176 21 235 56 42 25 42 25 42 2 0 -39 -29
-146 -80 -303 -85 -262 -122 -496 -101 -635 23 -145 78 -224 251 -355 123 -94
183 -159 206 -224 11 -28 23 -50 29 -48 22 7 36 103 32 222 -3 108 -7 130 -40
225 -20 58 -37 123 -37 145 0 50 27 104 94 187 48 59 55 74 61 125 3 32 8 74
12 93 5 30 7 32 13 15 5 -11 9 -41 9 -67 1 -27 3 -48 5 -48 2 0 17 7 32 15 16
8 34 15 40 15 13 0 24 -32 24 -68 0 -40 50 -174 88 -237 94 -157 247 -306 472
-460 47 -32 88 -63 92 -69 4 -6 -17 -57 -47 -113 -30 -56 -55 -107 -55 -114 0
-14 133 -299 140 -298 3 0 37 66 76 148 71 148 71 148 18 252 -30 57 -52 109
-50 115 3 7 44 38 93 69 129 84 239 173 331 267 100 102 128 140 181 244 67
134 71 163 71 557 0 220 4 347 10 347 5 0 18 -17 29 -39 21 -40 114 -131 135
-131 21 0 26 11 15 32 -5 10 -9 46 -7 79 3 60 3 60 57 -1 53 -61 53 -61 35
-123 -26 -87 -26 -321 -1 -429 10 -43 23 -78 28 -78 5 0 23 10 39 21 28 21 30
21 55 5 41 -27 137 -58 148 -47 5 5 2 22 -8 41 -53 102 -94 379 -75 506 7 43
14 100 17 127 3 26 8 47 10 47 3 0 17 -8 31 -18 40 -27 104 -43 203 -49 106
-7 113 3 44 57 -52 41 -67 66 -33 55 47 -14 143 -17 197 -5 60 13 181 66 181
79 0 4 -19 14 -41 21 -69 23 -289 168 -289 190 0 6 15 10 33 10 55 0 107 12
107 24 0 7 -18 25 -40 42 -22 16 -77 72 -123 124 -83 95 -83 95 -13 95 95 0
162 36 222 117 40 55 93 183 80 195 -3 3 -22 -3 -43 -13 -30 -15 -66 -20 -170
-22 -73 -2 -133 0 -133 5 0 5 22 17 49 27 147 52 232 232 202 426 -12 75 -56
200 -75 212 -16 10 -28 -2 -23 -23 7 -25 -18 -156 -38 -203 -9 -22 -28 -54
-41 -72 -28 -36 -118 -87 -184 -104 -25 -6 -53 -13 -62 -16 -34 -10 -18 13 31
44 103 67 189 190 217 310 16 70 5 86 -33 48 -33 -34 -130 -91 -197 -118 -28
-10 -106 -33 -175 -49 -281 -66 -383 -119 -425 -221 -33 -77 -16 -126 78 -225
79 -84 98 -135 78 -210 -7 -27 -23 -58 -35 -70 -22 -21 -22 -21 -121 38 -55
32 -104 59 -109 59 -5 0 -6 13 -2 29 6 26 3 29 -29 35 -50 10 -51 20 -6 51 51
36 52 55 3 55 -21 1 -48 6 -59 13 -41 23 -96 78 -91 91 3 7 47 29 99 48 51 20
94 42 96 50 2 14 -106 65 -225 105 -87 29 -87 15 -3 188 32 66 55 124 50 129
-5 4 -34 -4 -65 -19 -101 -47 -90 -57 -207 175 -57 113 -107 204 -113 204 -5
-1 -56 -94 -112 -207 -56 -114 -107 -207 -112 -207 -6 0 -42 14 -81 31 -39 18
-73 29 -77 26 -3 -4 20 -61 51 -128 80 -168 80 -164 -24 -199 -117 -39 -222
-88 -218 -101 4 -11 26 -21 143 -61 33 -11 64 -24 69 -29 6 -5 -8 -24 -34 -46
-60 -52 -79 -62 -122 -63 -23 0 -38 -5 -38 -12 0 -7 17 -27 38 -45 31 -27 34
-35 22 -43 -8 -5 -27 -10 -42 -10 -28 0 -37 -13 -18 -25 21 -13 7 -24 -102
-85 -92 -51 -117 -60 -137 -54 -52 19 -82 99 -67 179 5 27 24 53 70 98 81 79
106 120 106 175 0 129 -109 209 -380 277 -58 14 -111 32 -119 40 -11 11 -12
28 -5 87 8 65 11 73 32 76 26 4 27 15 7 72 -15 43 -15 43 42 96 36 33 54 57
48 62 -6 5 -46 14 -90 20 -57 8 -83 16 -92 29 -48 71 -118 163 -124 163 -4 0
-16 -31 -28 -69z m87 -59 c17 -26 32 -59 32 -74 0 -26 1 -27 48 -21 31 3 58 1
73 -7 23 -13 23 -13 -15 -46 -38 -33 -38 -33 -22 -74 9 -22 16 -43 16 -45 0
-11 -38 -4 -73 15 -44 24 -47 24 -47 6 0 -8 18 -28 39 -46 40 -31 40 -31 34
-113 -3 -46 -1 -99 5 -120 10 -36 9 -39 -14 -48 -38 -14 -71 -11 -78 7 -3 9
-6 33 -6 55 0 24 -12 63 -30 99 -35 70 -35 70 -12 96 10 11 26 31 36 46 28 43
-1 46 -39 4 -18 -20 -41 -36 -50 -36 -15 0 -17 7 -11 48 6 48 6 48 -36 62 -23
8 -43 20 -45 27 -5 15 46 42 89 47 28 3 33 7 30 27 -5 36 19 139 32 139 6 0
26 -21 44 -48z m1400 -232 c45 -93 82 -176 82 -184 0 -8 -9 -18 -20 -21 -22
-7 -27 -31 -7 -38 6 -2 26 4 43 14 40 24 114 50 114 41 0 -4 -13 -16 -30 -25
-34 -20 -42 -44 -9 -27 30 17 34 5 10 -28 -12 -17 -21 -39 -21 -50 0 -37 -22
-44 -117 -36 -48 3 -94 10 -100 13 -9 5 1 27 34 75 42 59 46 69 31 77 -9 5
-33 39 -53 75 -20 36 -42 63 -48 61 -7 -2 -29 -32 -49 -68 -36 -61 -55 -75
-101 -78 -10 -1 -20 5 -23 12 -3 8 29 83 70 168 86 176 93 189 104 189 4 0 44
-77 90 -170z m-55 -164 c28 -54 28 -54 -5 -100 -32 -47 -32 -47 -51 -24 -51
65 -51 61 -17 122 18 31 35 56 38 56 4 0 20 -24 35 -54z m-1453 -57 c62 -31
63 -34 74 -111 3 -27 1 -38 -8 -38 -26 0 -146 143 -146 175 0 11 21 4 80 -26z
m1181 16 c24 -9 51 -23 62 -33 18 -16 19 -15 37 7 18 24 18 24 55 -27 20 -29
41 -52 46 -52 5 0 9 -6 9 -14 0 -17 -24 -22 -132 -31 -66 -6 -77 -4 -86 11 -5
9 -7 25 -5 35 3 11 0 19 -6 19 -6 0 -17 14 -26 30 -16 30 -9 40 13 18 22 -22
13 5 -10 29 -25 27 -16 29 43 8z m1669 10 c0 -21 -50 -96 -90 -136 -61 -61
-140 -100 -260 -129 -117 -28 -165 -51 -185 -90 -23 -44 -19 -60 35 -149 60
-99 74 -150 67 -239 -7 -103 -43 -169 -120 -224 -17 -12 -16 -16 8 -66 31 -64
31 -64 -1 -79 -24 -11 -26 -10 -39 21 -8 17 -17 44 -20 59 -8 32 -23 43 -37
29 -6 -6 -4 -22 6 -47 18 -41 21 -85 7 -85 -5 0 -25 23 -45 50 -20 28 -42 50
-49 50 -7 0 -18 -13 -23 -29 -11 -29 -11 -29 -120 -33 -60 -3 -111 -3 -113 -2
-11 9 28 36 87 59 90 34 260 175 292 241 53 109 34 189 -71 300 -72 76 -85
105 -75 156 18 90 119 148 361 208 163 41 286 85 340 120 30 20 45 25 45 15z
m189 -96 c40 -183 -34 -364 -166 -411 -49 -17 -230 -17 -260 0 -33 19 -28 32
12 32 46 0 45 17 -2 26 -53 10 -182 11 -220 1 -27 -7 -32 -5 -38 13 -8 26 19
60 48 60 11 0 29 -7 39 -16 41 -38 224 -25 325 23 113 54 202 163 224 275 6
32 15 55 19 53 5 -3 13 -28 19 -56z m-3264 -9 c13 -64 58 -141 109 -187 57
-51 153 -103 191 -103 33 0 24 17 -14 25 -16 3 -36 13 -43 22 -12 15 -10 16
16 9 15 -4 40 -9 55 -12 30 -6 48 -51 47 -118 -1 -37 -4 -40 -36 -49 -54 -14
-180 -2 -226 21 -109 56 -166 196 -145 360 13 106 28 117 46 32z m576 -24
c248 -65 339 -129 339 -238 0 -48 -3 -52 -75 -128 -42 -44 -82 -95 -90 -115
-21 -48 -18 -112 6 -165 26 -58 47 -80 74 -80 12 0 51 -24 87 -52 35 -29 105
-82 156 -117 51 -35 92 -68 92 -72 0 -5 -18 -9 -41 -9 -36 0 -47 6 -83 44 -60
63 -110 89 -173 87 -48 -1 -54 2 -78 33 -30 40 -31 46 -5 46 11 0 20 7 20 15
0 11 -11 15 -42 15 -57 0 -112 48 -122 106 -4 21 -14 62 -23 91 -15 50 -15 53
9 105 14 30 39 74 57 98 71 98 22 170 -139 200 -36 7 -73 17 -82 22 -20 9 -25
63 -8 73 6 3 10 19 10 36 0 16 4 29 9 29 5 0 51 -11 102 -24z m-167 -65 c3 -4
17 -90 32 -190 20 -138 24 -185 15 -194 -21 -21 -45 6 -52 59 -4 27 -14 106
-24 177 -9 70 -14 134 -11 142 6 16 32 20 40 6z m1392 -36 c127 -22 314 -85
314 -106 0 -12 4 -13 -80 16 -140 47 -226 58 -445 52 -182 -4 -208 -7 -290
-32 -134 -41 -133 -41 -115 -22 8 8 58 29 111 45 185 59 347 74 505 47z m-1
-69 c17 -12 16 -14 -21 -26 -21 -7 -56 -21 -76 -32 -32 -16 -38 -23 -38 -51 0
-31 2 -33 33 -33 17 0 40 -4 49 -8 12 -5 25 2 47 24 31 32 31 32 41 5 10 -27
-1 -65 -35 -109 -14 -19 -16 -19 -47 -3 -18 9 -41 22 -50 29 -15 11 -20 9 -33
-10 -9 -12 -22 -22 -30 -22 -17 0 -38 36 -30 50 4 6 7 33 9 60 1 37 -2 51 -14
56 -8 4 -41 17 -73 29 -32 12 -59 26 -60 31 -1 5 20 10 46 12 35 2 58 -3 83
-17 33 -20 37 -20 67 -4 66 34 104 39 132 19z m111 -87 c15 -30 59 -84 102
-126 77 -75 77 -75 35 -69 -24 4 -43 4 -43 1 0 -3 15 -19 33 -36 34 -32 32
-33 -33 -13 -32 10 -23 -14 13 -32 41 -21 77 -54 77 -70 0 -7 16 -25 36 -41
48 -36 25 -43 -27 -8 -23 14 -43 24 -47 21 -10 -11 50 -65 85 -77 47 -15 30
-33 -25 -25 -46 6 -46 6 -24 -17 12 -13 22 -26 22 -30 0 -13 -35 -7 -67 13
-24 14 -34 29 -39 57 -9 50 -32 95 -45 87 -6 -3 -8 -16 -4 -28 25 -86 31 -116
22 -116 -25 0 -77 44 -89 76 -6 18 -18 34 -25 34 -16 0 -17 -24 -2 -52 12 -22
4 -88 -11 -88 -6 0 -10 13 -10 29 0 17 -4 32 -9 36 -18 11 -23 -17 -11 -61 9
-31 10 -48 2 -56 -7 -7 -12 -4 -17 11 -8 27 -25 27 -25 0 0 -24 -69 -118 -87
-119 -6 0 -13 12 -15 27 -5 42 -28 41 -28 -2 0 -35 -1 -36 -32 -33 -32 3 -33
5 -36 51 -2 35 -7 47 -19 47 -12 0 -14 -7 -9 -35 4 -21 3 -35 -3 -35 -14 0
-41 54 -41 81 0 17 -3 19 -14 10 -21 -18 -29 3 -21 56 5 35 4 44 -7 41 -7 -3
-15 -15 -16 -29 -6 -42 -20 -43 -31 -1 -8 28 -8 48 -1 68 14 36 6 61 -15 44
-8 -7 -15 -21 -15 -31 0 -19 -58 -69 -79 -69 -12 0 -10 40 5 123 4 19 1 27 -9
27 -20 0 -35 -39 -30 -76 6 -39 -28 -80 -74 -89 -38 -8 -41 0 -12 31 20 22 20
22 -25 17 -25 -3 -53 -2 -63 1 -14 6 -8 11 27 27 62 28 124 89 91 89 -5 0 -24
-12 -41 -26 -34 -29 -53 -25 -27 4 10 10 17 23 17 28 0 15 50 59 88 78 17 9
32 23 32 32 0 13 -4 13 -30 -1 -28 -15 -30 -14 -30 4 0 10 7 24 15 31 25 21
17 29 -22 23 -42 -6 -43 -7 35 57 30 24 72 73 95 109 42 65 42 65 50 24 9 -48
-5 -114 -28 -133 -23 -19 -18 -31 10 -24 33 8 34 -17 3 -39 -28 -18 -18 -33
11 -16 34 22 35 2 0 -45 -50 -71 -25 -67 44 6 71 76 126 100 178 81 24 -9 31
-8 38 5 8 15 15 14 68 -7 69 -28 96 -51 130 -108 14 -24 29 -43 34 -43 16 0
10 37 -11 63 -24 31 -26 47 -4 47 12 0 14 3 6 13 -6 7 -9 23 -5 35 4 17 10 21
29 16 29 -7 32 11 5 25 -10 6 -22 18 -25 27 -9 24 -19 144 -12 144 3 0 17 -23
32 -51z m1056 30 c-55 -26 -208 -47 -223 -32 -8 8 5 13 47 18 33 4 86 13 119
20 88 18 106 16 57 -6z m-1420 -20 c17 -9 18 -13 7 -20 -32 -20 -80 -4 -64 21
8 13 31 13 57 -1z m255 -4 c1 -5 -8 -15 -21 -21 -26 -12 -63 6 -51 26 8 13 67
9 72 -5z m-1169 -1 c24 -7 30 -36 10 -51 -20 -14 -150 -11 -156 5 -2 7 5 12
20 12 13 0 37 9 53 20 33 22 39 23 73 14z m856 -49 c23 -17 72 -20 81 -5 11
17 35 11 35 -9 0 -38 -81 -110 -106 -93 -21 15 -44 63 -44 92 0 33 6 36 34 15z
m1276 -50 c0 -7 -36 -20 -77 -30 -41 -8 -44 9 -5 23 29 11 82 15 82 7z m-2172
-22 c5 -18 -30 -16 -54 2 -18 14 -17 15 15 13 19 -2 36 -9 39 -15z m2220 -51
c22 -28 7 -37 -66 -40 -64 -3 -72 -1 -82 18 -14 26 -11 30 32 40 44 10 100 2
116 -18z m-2235 12 c3 -4 2 -15 -4 -26 -8 -15 -17 -18 -37 -13 -33 8 -46 20
-38 34 8 12 68 15 79 5z m2374 -51 c48 -12 112 -17 221 -17 83 -1 152 -4 152
-8 0 -4 -13 -14 -30 -23 -16 -9 -30 -22 -30 -31 0 -12 4 -13 21 -4 29 16 35 5
14 -26 -77 -117 -213 -146 -318 -68 -19 15 -20 16 -2 10 48 -17 110 -24 128
-14 26 13 17 18 -41 23 -44 4 -160 36 -185 52 -4 3 -3 11 3 18 8 9 8 15 0 20
-24 15 -8 26 28 19 34 -7 36 -6 23 9 -7 10 -21 17 -30 17 -18 0 -41 18 -41 32
0 11 10 10 87 -9z m-2656 -17 c-14 -15 -19 -26 -12 -31 15 -9 14 -70 -1 -83
-14 -11 -133 -32 -162 -29 -10 1 -21 -4 -24 -12 -4 -11 8 -13 62 -9 36 3 66 3
66 -1 0 -4 -23 -15 -51 -25 -82 -30 -158 -7 -229 70 -47 52 -51 67 -13 58 28
-7 28 -7 -4 27 -32 34 -32 34 120 35 84 0 170 5 192 11 22 6 49 11 59 12 18 1
18 -1 -3 -23z m142 -3 c81 -13 50 -63 -39 -63 -65 0 -84 7 -84 31 0 32 48 45
123 32z m149 -76 c26 -53 48 -257 28 -257 -14 0 -30 69 -30 133 0 54 -3 61
-35 91 -33 31 -46 72 -28 89 11 12 47 -19 65 -56z m2254 7 c3 -19 3 -39 -2
-44 -9 -9 -108 9 -132 24 -7 4 -12 18 -12 32 0 23 2 24 70 24 69 0 69 0 76
-36z m-2377 -35 c24 -8 31 -17 29 -31 -3 -18 -12 -20 -81 -23 -68 -2 -79 0
-88 17 -19 35 -4 48 54 48 30 0 68 -5 86 -11z m2314 -50 c38 -10 57 -33 41
-49 -8 -8 -92 15 -121 33 -40 25 11 35 80 16z m-2285 -43 c23 -14 13 -36 -15
-36 -16 0 -45 -5 -67 -11 -34 -9 -41 -8 -59 10 -32 31 -11 46 65 45 35 0 69
-4 76 -8z m2458 -34 c50 -32 234 -226 234 -246 0 -9 -54 -7 -69 3 -9 6 -21 5
-32 -2 -13 -8 -24 -8 -45 3 -37 20 -214 192 -214 208 0 18 17 15 57 -13 51
-34 65 -18 19 21 -25 22 -36 39 -33 49 9 22 17 19 83 -23z m-210 13 c31 -8 59
-17 61 -19 3 -2 -1 -14 -7 -26 -8 -15 -17 -19 -31 -15 -33 11 -99 58 -93 67 7
10 3 11 70 -7z m-2429 -11 c3 -8 -4 -25 -16 -38 -13 -14 -18 -26 -12 -30 5 -4
12 -2 16 4 3 5 15 10 26 10 34 0 23 -42 -23 -87 -94 -89 -170 -133 -180 -103
-2 6 -17 6 -40 -2 -21 -6 -41 -9 -44 -5 -7 7 136 180 174 211 37 29 75 55 85
55 4 1 10 -6 14 -15z m676 -52 c30 -26 83 -63 117 -82 95 -54 180 -111 180
-121 0 -17 -47 -9 -71 12 -13 12 -64 49 -114 82 -108 73 -171 123 -179 142
-10 27 12 16 67 -33z m1366 12 c-33 -36 -137 -108 -179 -124 -40 -16 -110 -61
-129 -84 -13 -16 -61 -23 -61 -8 0 12 116 83 153 93 39 11 121 64 180 116 44
39 71 45 36 7z m-1611 -77 c49 -82 102 -241 102 -309 0 -45 3 -58 15 -58 21 0
20 123 -1 186 -24 71 -8 65 27 -11 57 -121 39 -248 -58 -427 -51 -94 -163
-239 -201 -259 -30 -17 -44 -2 -46 47 -1 32 3 39 23 44 13 3 27 12 32 20 4 8
17 135 30 282 21 256 22 410 2 543 -5 40 -5 40 18 18 13 -12 39 -46 57 -76z
m-232 69 c15 -12 17 -18 8 -33 -15 -25 -125 -31 -144 -8 -18 21 -2 36 47 45
58 12 68 11 89 -4z m2197 -21 c39 -27 48 -52 21 -62 -15 -5 -94 61 -94 79 0
16 36 7 73 -17z m-46 -57 c42 -41 46 -85 5 -60 -15 10 -62 73 -62 84 0 17 26
7 57 -24z m-2152 -17 c3 -6 19 -112 35 -238 16 -125 37 -284 46 -351 16 -126
13 -151 -19 -139 -16 6 -24 51 -62 347 -14 107 -32 237 -39 288 -7 50 -10 94
-8 97 9 9 41 6 47 -4z m2095 -26 c28 -29 32 -39 24 -53 -18 -28 -38 -19 -61
28 -12 25 -22 48 -23 53 -1 18 29 4 60 -28z m304 -18 c88 -75 404 -301 450
-321 43 -19 -130 -63 -206 -53 -75 10 -106 45 -218 245 -36 64 -74 129 -84
145 -28 42 0 34 58 -16z m-2534 27 c0 -4 -15 -30 -33 -58 -19 -28 -58 -96 -88
-150 -30 -55 -73 -120 -95 -145 -42 -46 -42 -46 -125 -44 -84 1 -170 20 -176
38 -2 6 19 23 47 38 52 29 213 145 359 259 78 61 111 80 111 62z m2444 -36
c21 -28 86 -149 86 -161 0 -9 -72 4 -99 17 -55 29 -117 126 -80 126 6 0 20
-11 31 -25 11 -14 26 -25 34 -25 19 0 18 6 -12 45 -26 34 -25 55 1 55 8 0 25
-15 39 -32z m-2390 4 c3 -5 -10 -33 -29 -63 -19 -30 -35 -57 -35 -61 0 -19 20
-5 40 27 27 44 40 44 40 0 0 -26 -6 -39 -25 -51 -28 -18 -105 -27 -105 -12 0
13 49 108 73 140 22 29 32 34 41 20z m1360 -37 c-4 -8 -10 -15 -15 -15 -4 0
-6 7 -3 15 4 8 10 15 15 15 4 0 6 -7 3 -15z m-341 -20 c1 -5 -15 -11 -35 -13
-36 -3 -52 10 -25 22 19 8 57 2 60 -9z m455 -2 c2 -9 -7 -13 -27 -13 -30 0
-46 11 -34 24 11 11 56 2 61 -11z m823 -67 c37 -35 76 -60 108 -71 52 -17 82
-47 131 -130 13 -22 41 -62 63 -88 21 -27 37 -50 34 -53 -15 -15 -85 12 -115
44 -35 36 -51 38 -32 3 8 -16 8 -21 -2 -21 -48 0 -164 123 -248 264 -23 38
-23 38 -2 27 27 -14 30 3 7 33 -15 20 -20 46 -9 46 4 0 33 -24 65 -54z m-403
-461 c2 -513 -2 -577 -48 -697 -70 -185 -272 -390 -584 -591 -53 -34 -44 -38
-211 84 -284 207 -406 350 -476 554 -24 70 -24 70 -24 585 0 283 3 523 7 533
7 16 47 17 670 15 l663 -3 3 -480z m299 399 c45 -80 67 -140 59 -160 -6 -15
-8 -16 -24 0 -10 9 -21 16 -24 16 -2 0 -3 -36 0 -80 5 -87 -3 -99 -36 -52 -38
54 -53 94 -68 182 -19 108 -14 132 14 69 37 -84 59 -68 26 18 -17 44 -13 78 8
71 6 -2 27 -31 45 -64z m-200 -31 c3 -28 9 -57 14 -64 16 -24 27 9 18 50 -11
48 -11 71 1 71 30 0 62 -169 48 -254 -4 -28 -6 -67 -2 -87 3 -21 1 -40 -4 -43
-16 -9 -71 74 -87 129 -16 59 -30 238 -20 255 12 20 25 -4 32 -57z m-1962 -12
c4 -32 2 -58 -5 -73 -18 -34 -90 -107 -124 -125 -29 -15 -29 -15 -22 12 8 31
-7 26 -37 -11 -20 -26 -76 -47 -109 -42 -21 3 -21 5 13 42 18 21 61 77 94 123
53 76 66 88 115 107 30 12 58 21 62 19 3 -2 9 -25 13 -52z m-20 -388 c11 -76
41 -160 67 -192 24 -27 25 -38 31 -197 8 -202 27 -304 96 -514 52 -159 77
-289 66 -341 -4 -16 -9 -29 -12 -29 -3 0 -29 24 -57 53 -28 29 -95 86 -149
126 -137 103 -169 158 -171 304 -1 37 -5 68 -11 70 -5 1 -15 -20 -20 -48 -13
-60 -22 -50 -31 37 -8 81 10 241 42 367 34 139 126 421 134 416 4 -3 11 -26
15 -52z m2335 -157 c0 -58 22 -191 46 -270 8 -27 14 -51 14 -53 0 -11 -36 1
-70 22 -42 27 -65 31 -75 15 -14 -22 -23 -7 -34 53 -19 110 -16 124 44 215 31
45 60 80 65 77 6 -4 10 -30 10 -59z m-1093 -1314 c34 -61 34 -61 -3 -142 -20
-44 -41 -79 -46 -78 -4 2 -24 37 -44 79 -36 75 -36 75 1 143 21 37 42 65 48
63 5 -1 25 -31 44 -65z"/>
<path d="M1610 3050 c-12 -8 -11 -10 8 -10 12 0 22 5 22 10 0 13 -11 13 -30 0z"/>
<path d="M1945 2945 c-17 -12 -27 -13 -52 -3 -29 11 -34 9 -69 -22 -21 -18
-57 -41 -79 -51 -24 -11 -47 -29 -53 -44 -19 -41 -14 -50 12 -26 24 23 24 23
37 0 12 -24 12 -24 22 -1 13 28 27 29 27 1 0 -11 5 -17 10 -14 6 3 10 14 10
24 0 20 39 51 64 51 7 0 16 -7 20 -15 7 -19 26 -20 26 -1 0 21 20 24 65 12 29
-9 41 -17 43 -34 2 -12 7 -22 12 -22 5 0 7 7 3 16 -4 12 -2 15 8 12 8 -2 16
-15 17 -29 2 -13 8 -28 14 -34 7 -7 9 0 5 23 -7 36 6 43 23 12 9 -18 40 -29
40 -15 0 23 -38 69 -73 91 -23 15 -52 39 -65 55 -26 32 -38 35 -67 14z"/>
<path d="M1623 2903 c-16 -6 -17 -33 -3 -33 11 0 26 28 19 34 -2 2 -10 1 -16
-1z"/>
<path d="M2195 2900 c3 -5 8 -10 11 -10 2 0 4 5 4 10 0 6 -5 10 -11 10 -5 0
-7 -4 -4 -10z"/>
<path d="M1880 2681 c0 -41 16 -63 30 -41 15 24 6 74 -12 78 -15 3 -18 -4 -18
-37z"/>
<path d="M1990 2536 c0 -8 5 -18 10 -21 6 -3 10 1 10 9 0 8 -4 18 -10 21 -5 3
-10 -1 -10 -9z"/>
<path d="M1327 2323 c-4 -3 -7 -96 -7 -205 0 -198 0 -198 255 -198 197 0 255
-3 256 -12 2 -23 5 -33 16 -58 6 -14 17 -41 26 -61 18 -44 30 -53 62 -45 24 6
72 90 85 146 5 25 5 25 258 28 252 2 252 2 252 207 0 204 0 204 -598 205 -329
0 -602 -3 -605 -7z m683 -42 c14 -4 26 -15 28 -25 3 -16 -1 -17 -55 -9 -32 4
-84 7 -116 5 -60 -3 -70 9 -23 28 25 10 130 11 166 1z m-37 -62 c38 -10 51
-29 20 -29 -24 1 -134 27 -141 34 -9 10 81 6 121 -5z m22 -63 c40 -26 22 -34
-42 -19 -32 7 -70 15 -85 18 -16 3 -28 10 -28 17 0 16 125 4 155 -16z m-8 -61
c32 -22 30 -39 -4 -30 -16 4 -52 13 -82 19 -30 6 -57 18 -59 25 -6 19 112 7
145 -14z m-18 -59 c30 -14 42 -41 15 -33 -11 3 -45 13 -77 22 -32 8 -55 20
-52 25 7 12 79 3 114 -14z m3 -64 c6 -6 -6 -8 -39 -5 -26 3 -52 10 -58 15 -7
7 6 9 38 5 27 -2 53 -9 59 -15z m18 -67 c0 -11 -32 -70 -48 -87 -14 -17 -17
-16 -49 17 -29 30 -33 38 -22 51 10 13 15 13 35 -1 21 -14 24 -13 34 5 9 17
50 29 50 15z"/>
<path d="M1780 1871 c0 -6 -16 -7 -36 -4 -34 6 -35 5 -29 -20 4 -14 2 -28 -4
-31 -6 -4 -11 -14 -11 -22 0 -12 7 -14 29 -9 24 5 38 -2 95 -51 36 -31 66 -60
66 -65 0 -5 -11 -15 -25 -21 -14 -6 -25 -17 -25 -24 0 -26 22 -26 49 0 34 32
38 32 73 -1 22 -21 31 -24 40 -15 9 9 5 19 -16 41 -29 30 -29 30 4 58 18 15
40 32 49 37 9 5 26 18 38 29 13 11 29 17 38 13 25 -9 37 2 25 24 -7 14 -7 25
2 39 16 26 3 39 -23 23 -13 -9 -25 -9 -38 -3 -23 13 -32 4 -25 -23 4 -16 -10
-36 -59 -84 -64 -63 -64 -63 -103 -37 -64 43 -128 135 -94 135 6 0 10 5 10 10
0 6 -7 10 -15 10 -8 0 -15 -4 -15 -9z"/>
<path d="M1580 1743 c-30 -25 -32 -30 -28 -80 5 -53 5 -53 -32 -53 -92 0 -121
-133 -38 -176 39 -20 76 -11 88 22 6 14 14 22 20 19 15 -9 12 -46 -5 -79 -8
-15 -15 -30 -15 -32 0 -2 27 -4 61 -4 54 0 60 2 53 18 -13 31 -17 92 -5 92 6
0 11 -4 11 -9 0 -18 32 -41 57 -41 37 0 93 60 93 100 0 42 -47 90 -88 90 -29
0 -29 0 -28 57 1 54 -1 58 -33 80 -44 30 -72 29 -111 -4z"/>
<path d="M2169 1755 c-37 -20 -55 -67 -41 -111 10 -34 10 -34 -23 -34 -47 0
-64 -8 -80 -41 -29 -54 -8 -117 44 -139 38 -15 58 -8 71 25 6 15 15 23 21 19
10 -6 9 -34 -3 -98 -3 -16 4 -18 52 -18 60 0 57 -4 43 64 -3 15 -2 35 1 45 6
14 10 11 26 -15 33 -53 97 -35 126 35 26 62 -12 123 -78 123 -21 0 -38 2 -38
4 0 1 5 17 11 35 15 41 -3 87 -42 106 -35 18 -56 18 -90 0z"/>
<path d="M1896 1572 c-44 -86 -51 -138 -51 -402 0 -258 6 -312 42 -407 8 -24
21 -43 28 -43 16 0 51 93 70 188 25 117 22 426 -4 536 -24 99 -46 156 -60 156
-6 0 -17 -12 -25 -28z"/>
<path d="M1368 3793 c-9 -19 -22 -29 -41 -31 -29 -4 -37 -29 -13 -38 21 -8 28
-32 16 -55 -17 -31 -2 -41 31 -22 24 15 33 15 50 5 27 -17 39 -7 33 28 -5 22
-1 31 15 42 31 19 26 38 -10 38 -24 0 -32 6 -40 30 -13 37 -24 38 -41 3z"/>
<path d="M2430 3802 c0 -26 -20 -42 -52 -42 -33 0 -35 -10 -7 -36 16 -14 19
-26 14 -51 -4 -25 -2 -33 9 -33 8 0 18 5 21 10 3 6 17 10 30 10 13 0 27 -4 30
-10 3 -5 12 -10 20 -10 10 0 12 9 8 34 -4 28 -1 37 16 48 31 19 26 36 -11 40
-24 2 -36 10 -46 31 -15 31 -32 36 -32 9z"/>
</g>
</svg>
