<?xml version="1.0" standalone="no"?>
<!DOCTYPE svg PUBLIC "-//W3C//DTD SVG 20010904//EN"
 "http://www.w3.org/TR/2001/REC-SVG-20010904/DTD/svg10.dtd">
<svg version="1.0" xmlns="http://www.w3.org/2000/svg"
 width="360.000000pt" height="436.000000pt" viewBox="0 0 360.000000 436.000000"
 preserveAspectRatio="xMidYMid meet">
<metadata>
Created by potrace 1.16, written by Peter Selinger 2001-2019
</metadata>
<g transform="translate(0.000000,436.000000) scale(0.100000,-0.100000)"
fill="#000000" stroke="none">
<path d="M1397 4260 c-55 -21 -150 -90 -171 -123 -7 -12 -19 -53 -26 -90 -10
-54 -19 -76 -46 -104 -43 -45 -43 -57 -1 -48 42 10 73 26 121 64 21 17 46 31
55 31 29 0 80 -39 87 -65 3 -14 15 -30 25 -36 43 -23 52 -64 46 -211 -3 -82
-11 -149 -19 -165 -12 -26 -20 -29 -108 -40 -187 -23 -321 -47 -331 -59 -25
-30 193 -181 311 -215 67 -19 71 -24 55 -69 -7 -21 -25 -56 -39 -79 -14 -22
-26 -45 -26 -51 0 -16 -55 -39 -78 -33 -29 7 -30 -23 -2 -32 46 -15 -5 -44
-54 -31 -38 9 -40 -10 -4 -43 28 -26 31 -33 18 -41 -8 -5 -23 -10 -32 -10 -26
0 -22 -21 12 -61 29 -36 29 -37 10 -54 -24 -22 -91 -16 -129 13 -40 30 -71 98
-71 157 0 76 31 126 110 178 112 73 96 104 -135 272 -75 54 -139 103 -142 109
-4 6 -6 27 -4 48 1 20 -3 46 -9 57 -11 22 -54 29 -65 10 -9 -14 -85 -1 -105
18 -13 13 -13 16 4 28 15 11 19 24 16 57 -8 103 -5 120 24 145 33 28 67 25
103 -9 32 -30 53 -17 53 33 0 47 -32 112 -67 135 -14 8 -43 18 -66 22 -41 7
-42 9 -79 92 -20 47 -42 102 -48 123 -6 21 -15 37 -21 35 -5 -2 -32 -52 -59
-112 -27 -59 -54 -114 -61 -122 -12 -15 -89 -20 -89 -5 0 5 7 14 15 21 16 13
20 40 7 40 -10 0 -87 -87 -114 -128 -9 -14 -19 -41 -23 -61 -4 -19 -14 -47
-24 -61 -34 -50 -70 -126 -87 -185 -20 -68 -23 -219 -5 -253 15 -29 -3 -38
-34 -18 -13 9 -27 16 -31 16 -12 0 4 -113 25 -182 12 -37 44 -100 71 -140 27
-40 44 -75 39 -76 -5 -2 -51 4 -100 13 -50 9 -93 14 -96 11 -3 -3 7 -31 23
-62 37 -71 159 -203 238 -256 34 -23 63 -43 65 -44 2 -2 -2 -10 -8 -18 -17
-20 -96 -37 -214 -46 -54 -4 -100 -10 -103 -13 -8 -8 69 -76 125 -111 85 -54
156 -84 236 -101 44 -9 84 -20 88 -24 13 -13 -8 -54 -64 -119 -54 -64 -162
-152 -186 -152 -22 0 -14 -29 10 -35 78 -17 158 -26 204 -23 54 3 54 3 57
-322 3 -243 8 -348 20 -415 33 -185 34 -177 -12 -247 -23 -35 -59 -81 -82
-103 -62 -61 -57 -65 72 -61 115 3 170 17 210 53 10 9 21 14 24 11 9 -9 -43
-112 -72 -143 -14 -15 -23 -33 -20 -40 7 -19 109 17 175 62 35 24 66 38 90 39
136 7 233 72 295 199 37 75 37 75 131 -24 52 -54 153 -149 225 -211 129 -113
129 -113 126 -180 -3 -68 -16 -99 -73 -176 -13 -17 -23 -35 -23 -40 0 -5 16
-18 36 -29 69 -37 152 -172 176 -287 7 -32 17 -58 24 -58 6 0 23 37 37 83 43
137 107 227 203 283 18 11 18 13 -8 39 -50 50 -75 105 -81 181 -6 71 -6 71
116 177 67 58 167 151 221 206 54 56 100 100 101 99 2 -2 17 -31 34 -65 56
-111 129 -174 221 -188 27 -4 60 -19 84 -38 22 -17 64 -41 95 -54 100 -41 105
-28 25 60 -128 141 -208 279 -245 424 -35 141 -21 143 47 8 72 -145 126 -226
197 -298 65 -66 125 -96 210 -104 59 -5 72 -3 123 22 50 25 204 156 204 174 0
4 -28 13 -62 20 -142 29 -210 85 -278 226 -52 110 -86 225 -113 388 -24 139
-24 139 7 133 17 -3 68 -9 114 -12 72 -6 82 -5 82 10 0 9 -5 16 -10 16 -21 0
-141 202 -128 215 2 2 26 -2 53 -11 108 -32 311 -26 362 11 17 13 17 14 -7 23
-31 12 -111 71 -163 121 -41 38 -127 148 -127 161 0 4 33 10 73 12 85 6 163
32 249 84 69 41 172 123 164 131 -3 3 -35 7 -73 9 -134 8 -263 37 -263 58 0 6
25 26 54 43 101 62 246 216 262 280 4 13 10 23 15 23 5 0 9 7 9 15 0 8 -4 15
-9 15 -14 0 -161 -29 -183 -35 -28 -10 -22 11 25 78 24 34 53 85 65 112 25 60
48 176 39 199 -6 14 -9 14 -36 -2 -16 -9 -32 -14 -36 -11 -3 4 -1 26 4 50 29
126 1 250 -96 420 -55 97 -156 229 -174 229 -5 0 -9 -24 -9 -52 0 -141 -80
-299 -217 -431 -82 -79 -117 -106 -296 -227 -217 -146 -238 -185 -145 -262 83
-69 96 -87 107 -140 19 -88 -16 -171 -89 -208 -43 -22 -85 -25 -124 -10 -32
12 -32 23 -1 64 32 43 32 49 -7 64 -33 13 -33 13 5 47 40 35 44 65 6 44 -24
-13 -81 -8 -86 7 -2 6 5 14 17 17 11 3 20 13 20 22 0 11 -5 15 -15 11 -26 -10
-74 15 -91 47 -43 82 -55 109 -60 137 -6 26 -3 30 22 36 52 12 152 62 224 109
70 48 128 109 111 119 -29 19 -194 48 -299 53 -99 5 -125 9 -132 22 -4 9 -14
71 -21 137 -17 163 -6 221 53 281 63 64 117 69 192 18 21 -14 41 -23 46 -20
11 7 -61 149 -90 180 -17 18 -35 24 -85 27 -54 3 -72 10 -124 45 -49 33 -75
43 -119 48 -31 3 -79 16 -107 30 -73 35 -90 38 -159 25 -52 -10 -72 -9 -123 4
-79 21 -147 20 -206 -4z m219 -40 c34 -13 74 -13 129 2 42 11 49 10 103 -16
31 -16 85 -32 119 -36 49 -6 76 -17 124 -49 56 -37 67 -41 124 -41 60 0 65 -2
85 -31 25 -34 19 -50 -12 -30 -12 8 -23 9 -27 3 -3 -5 -35 -9 -71 -9 -68 1
-66 3 -53 -45 7 -25 -24 -23 -39 2 -7 11 -18 20 -25 20 -16 0 -16 -5 -1 -30
10 -16 9 -24 -11 -50 -17 -23 -21 -38 -16 -61 4 -16 4 -63 0 -104 -7 -74 -7
-74 -39 -68 -42 8 -43 9 -21 48 10 20 16 37 13 40 -2 3 -28 9 -57 15 -29 5
-57 12 -62 16 -5 3 -23 32 -39 65 -17 32 -34 59 -39 59 -5 0 -21 -24 -36 -52
-35 -69 -40 -73 -107 -87 -60 -13 -68 -23 -43 -55 8 -11 15 -23 15 -28 0 -9
-62 -27 -72 -21 -5 2 -8 37 -8 78 0 68 2 74 22 77 34 5 34 27 -2 34 -37 8 -35
21 11 52 43 30 51 47 15 38 -35 -9 -33 1 10 45 55 57 23 57 -40 0 -53 -48 -94
-76 -101 -69 -4 4 -13 54 -14 81 -1 9 -7 17 -15 17 -21 0 -30 20 -17 33 15 15
14 27 -3 27 -7 0 -21 -10 -29 -22 -13 -18 -18 -20 -25 -9 -7 10 -14 10 -30 2
-27 -15 -30 -14 -34 7 -3 12 -10 5 -26 -25 -22 -42 -42 -63 -42 -44 0 5 5 33
11 60 8 37 20 58 46 81 52 46 109 81 145 91 38 9 147 3 184 -11z m-1018 -163
c35 -93 36 -103 13 -143 -30 -51 -16 -61 30 -19 21 19 49 35 62 35 31 0 85
-35 99 -65 14 -32 5 -41 -27 -27 -65 30 -136 -6 -155 -78 -8 -31 -7 -45 7 -74
19 -41 12 -57 -16 -32 -17 16 -19 15 -35 -6 -16 -23 -16 -23 -32 0 -16 22 -18
22 -37 5 -20 -18 -20 -17 -13 12 25 104 17 132 -51 172 -43 25 -71 27 -131 8
-24 -8 -24 -8 -7 24 35 68 132 77 186 18 38 -41 49 -27 21 27 -23 42 -23 42 6
112 16 38 32 78 36 88 9 25 16 16 44 -57z m2688 -189 c63 -97 94 -168 111
-258 14 -70 15 -93 4 -154 -12 -73 -44 -155 -82 -207 -22 -32 -99 -92 -106
-85 -3 3 15 31 38 63 50 66 121 202 113 215 -10 16 -20 7 -44 -44 -13 -29 -49
-78 -80 -108 -55 -55 -162 -121 -176 -108 -4 4 4 22 18 40 34 45 114 195 133
248 10 27 12 47 6 53 -6 6 -24 -20 -47 -68 -21 -43 -59 -101 -85 -129 -48 -53
-161 -130 -180 -124 -6 2 6 21 25 42 53 55 32 66 -23 12 -26 -25 -50 -46 -54
-46 -14 0 -6 20 18 46 14 15 25 34 25 42 0 9 -27 -11 -64 -46 -58 -56 -86 -74
-86 -55 0 4 9 17 21 29 12 13 16 24 11 28 -10 6 -18 -3 -82 -87 -29 -39 -29
-39 10 -88 112 -142 71 -367 -81 -444 -47 -24 -129 -34 -129 -17 0 5 18 17 41
27 51 23 112 92 127 143 28 93 3 197 -59 244 -16 13 -43 34 -59 46 -38 30 -38
61 -2 94 15 14 103 76 195 138 293 196 442 368 472 545 10 57 15 75 24 75 4 0
25 -28 47 -62z m-1455 -73 c19 -44 21 -45 64 -45 56 0 59 -18 9 -51 -32 -21
-35 -28 -31 -59 3 -19 8 -43 12 -52 10 -25 -16 -23 -49 3 -27 22 -55 19 -76
-6 -7 -8 -21 -15 -31 -15 -17 0 -17 3 -4 48 8 26 15 48 15 48 0 1 -18 14 -40
29 -54 37 -52 55 5 55 44 0 46 2 67 45 12 25 26 45 31 45 4 0 17 -20 28 -45z
m-1403 -5 c18 -17 22 -32 22 -76 0 -40 -4 -54 -12 -52 -12 4 -44 77 -55 126
-7 28 15 29 45 2z m-61 -52 c11 -35 30 -88 43 -118 12 -30 22 -62 23 -70 2
-18 -50 -27 -66 -11 -6 6 -24 11 -39 11 -36 0 -53 -37 -41 -89 12 -49 47 -67
81 -40 32 25 55 24 87 -3 26 -24 44 -100 31 -134 -6 -15 -10 -14 -37 12 -17
16 -39 44 -51 62 -17 27 -48 45 -48 27 0 -11 33 -71 76 -137 24 -37 44 -70 44
-74 0 -7 -34 -1 -62 11 -13 5 -18 3 -18 -9 0 -53 -104 24 -144 107 -46 95 -56
156 -46 280 10 131 32 197 65 197 12 0 30 9 40 20 29 32 40 24 62 -42z m1323
-121 c0 -57 -17 -77 -71 -88 -86 -16 -89 -15 -89 40 0 56 5 61 70 77 84 21 90
20 90 -29z m317 28 c54 -16 63 -29 63 -92 0 -38 -5 -39 -90 -19 -53 12 -55 14
-64 54 -16 74 0 84 91 57z m-1435 -108 c19 8 29 6 53 -11 23 -16 45 -21 97
-21 67 0 97 -13 83 -35 -5 -8 -11 -6 -19 6 -9 12 -15 14 -20 6 -4 -7 -31 -12
-62 -12 -31 0 -64 -5 -76 -11 -25 -14 -35 -4 -17 17 12 14 11 16 -6 12 -17 -3
-20 -11 -18 -46 2 -42 2 -42 -38 -42 -42 0 -48 6 -23 25 24 17 11 65 -17 65
-15 0 -19 -5 -15 -15 5 -13 0 -15 -27 -11 -97 15 -127 17 -127 7 0 -6 -7 -11
-15 -11 -17 0 -19 14 -5 40 8 16 14 17 40 7 23 -9 42 -8 87 3 49 13 59 19 61
39 4 25 4 25 22 1 15 -20 22 -22 42 -13z m1372 -45 c3 -5 -61 -12 -142 -15
-171 -7 -224 -19 -117 -27 70 -5 70 -5 75 -55 5 -47 7 -50 36 -53 18 -2 78 8
135 22 57 14 137 32 177 41 83 17 322 21 322 5 0 -6 -34 -10 -82 -10 -95 0
-160 -9 -348 -49 -74 -16 -162 -32 -195 -36 -78 -8 -225 7 -416 44 -85 17
-172 33 -194 36 -54 9 -29 21 64 30 82 7 218 28 296 45 95 21 380 37 389 22z
m-1214 -67 c14 -8 34 -14 46 -15 11 0 31 -11 43 -24 12 -13 48 -41 79 -62 31
-21 96 -67 143 -101 116 -84 124 -106 57 -150 -71 -45 -107 -84 -124 -135 -37
-113 26 -247 140 -299 40 -19 31 -32 -18 -27 -135 16 -238 159 -222 310 7 67
32 123 81 177 19 21 35 42 35 45 0 11 -93 116 -102 116 -14 0 -9 -27 7 -40 19
-16 19 -30 0 -30 -9 0 -49 34 -89 76 -84 86 -116 86 -42 -1 49 -56 53 -65 34
-65 -17 0 -130 75 -162 108 -27 29 -27 29 -11 70 11 27 26 44 43 51 35 12 33
13 62 -4z m-156 -86 c-7 -12 -44 -12 -44 0 0 5 6 11 13 14 17 6 38 -3 31 -14z
m11 -38 c8 -14 -7 -20 -37 -14 -15 3 -25 9 -22 14 7 12 51 12 59 0z m-459 -18
c10 -4 74 -54 143 -111 68 -57 146 -117 172 -134 30 -18 49 -37 49 -48 0 -25
-17 -35 -36 -19 -21 17 -30 2 -11 -19 24 -26 22 -27 -25 -27 -100 1 -280 193
-323 343 -7 23 1 27 31 15z m1910 -14 c13 -14 10 -15 -33 -15 -61 0 -194 -57
-175 -76 7 -7 12 -33 12 -59 0 -39 4 -49 25 -63 32 -21 34 -51 4 -43 -12 3
-28 0 -36 -9 -19 -18 -47 -18 -63 1 -8 9 -21 13 -36 9 -31 -8 -30 3 3 38 19
20 29 43 34 80 8 64 -1 78 -52 78 -45 0 -89 15 -89 31 0 8 12 10 35 6 19 -3
37 -2 40 2 2 5 35 11 73 15 38 4 82 11 98 16 43 14 142 6 160 -11z m1464 -1
c0 -34 -42 -116 -89 -176 -71 -90 -205 -174 -249 -157 -15 5 -14 9 8 25 30 23
20 38 -15 22 -32 -15 -161 -16 -170 -2 -4 6 27 26 72 46 128 58 140 65 286
167 77 53 144 97 149 97 4 0 8 -10 8 -22z m-2940 -85 c0 -61 -1 -66 -16 -52
-12 12 -14 27 -8 67 9 74 24 64 24 -15z m935 -40 c-8 -34 -41 -80 -66 -93 -23
-13 -23 -10 -2 37 32 70 82 111 68 56z m121 11 c13 -11 15 -17 7 -20 -20 -9
-15 -20 13 -33 27 -12 36 -9 71 22 36 32 40 -3 6 -55 -34 -52 -41 -58 -73 -58
-34 1 -57 20 -75 63 -18 44 -19 69 -3 85 16 16 30 15 54 -4z m432 -19 c8 -67
-38 -135 -91 -135 -21 0 -87 89 -87 117 0 27 12 30 31 7 20 -25 57 -36 80 -24
26 15 24 34 -3 27 -21 -5 -20 -4 6 19 36 32 60 28 64 -11z m102 8 c0 -9 6 -24
13 -32 20 -24 38 -71 27 -71 -12 0 -56 59 -64 87 -8 25 0 46 15 38 5 -4 9 -13
9 -22z m-440 13 c0 -3 -4 -8 -10 -11 -5 -3 -10 -1 -10 4 0 6 5 11 10 11 6 0
10 -2 10 -4z m-955 -33 c87 -28 115 -59 83 -91 -8 -8 -18 -5 -40 13 -17 14
-35 22 -41 18 -6 -4 2 -17 22 -34 18 -15 30 -32 27 -38 -9 -14 -94 28 -121 61
-30 34 -55 84 -48 92 8 8 49 1 118 -21z m2279 -15 c-23 -46 -63 -87 -106 -109
-62 -32 -96 -18 -43 17 14 9 25 23 25 31 0 12 -7 11 -36 -7 -27 -15 -40 -18
-48 -10 -34 34 93 106 192 109 33 1 33 1 16 -31z m-2444 -13 c0 -11 -11 -15
-37 -15 -40 0 -36 15 7 23 14 2 26 5 28 6 1 0 2 -6 2 -14z m1579 -79 c18 -23
57 -58 85 -79 28 -22 53 -43 54 -48 10 -25 -72 4 -97 35 -8 9 -20 16 -28 16
-26 0 5 -37 80 -95 39 -32 73 -60 75 -65 4 -11 -50 1 -76 18 -39 25 -37 4 5
-41 99 -107 97 -149 -3 -54 -38 37 -72 67 -76 67 -16 0 -7 -18 36 -68 31 -36
47 -66 55 -102 14 -64 14 -120 1 -120 -12 0 -13 2 -35 82 -16 58 -50 112 -65
103 -4 -3 1 -22 12 -42 22 -42 21 -122 -2 -178 -13 -30 -13 -30 -22 10 -19 83
-23 96 -33 95 -6 0 -9 -27 -6 -65 2 -43 -1 -65 -8 -65 -6 0 -11 16 -11 35 0
46 -17 45 -26 -2 -9 -52 -44 -143 -54 -143 -5 0 -11 30 -15 68 -3 37 -7 75 -8
85 -5 42 -23 17 -29 -39 -8 -75 -48 -196 -67 -202 -12 -4 -13 9 -7 72 4 49 3
83 -4 96 -19 36 -28 12 -27 -68 1 -44 -4 -86 -11 -97 -10 -17 -11 -12 -12 35
-1 59 -12 53 -24 -12 -4 -21 -11 -38 -16 -38 -11 0 -11 2 -14 80 0 30 -5 57
-11 60 -6 3 -11 -33 -13 -97 -1 -57 -7 -103 -12 -103 -18 0 -34 46 -39 115 -6
73 -24 91 -29 30 -7 -83 -45 -11 -40 77 2 31 0 59 -3 62 -12 12 -29 -21 -39
-75 -13 -67 -26 -81 -40 -45 -15 40 -12 118 5 160 17 41 12 64 -11 45 -8 -6
-14 -17 -14 -24 0 -7 -9 -24 -20 -38 -11 -14 -20 -37 -20 -51 0 -35 -15 -33
-30 4 -8 20 -11 52 -7 90 5 47 4 60 -7 60 -13 0 -36 -68 -36 -109 0 -31 -17
-25 -29 10 -15 45 -14 113 4 156 8 20 13 38 11 41 -15 14 -35 -14 -54 -75 -35
-110 -49 -120 -42 -30 7 81 25 119 85 177 32 31 42 35 105 38 74 4 84 -2 50
-33 -11 -10 -20 -22 -20 -27 0 -17 27 -7 51 18 58 62 79 53 79 -33 0 -29 5
-53 10 -53 6 0 10 11 10 25 0 14 5 25 10 25 6 0 10 -13 10 -29 0 -17 5 -33 10
-36 6 -4 10 24 10 77 0 46 4 89 8 96 5 7 24 17 42 22 68 19 99 -32 86 -142
-11 -96 -11 -107 -1 -108 6 -1 12 7 13 17 2 10 9 23 16 28 7 6 16 27 20 47 9
47 26 59 26 19 0 -17 5 -31 10 -31 6 0 8 20 4 55 -6 48 -5 55 11 55 9 0 30
-13 45 -30 41 -44 67 -39 35 6 -19 28 -11 34 47 34 52 0 63 15 23 30 -31 12
-31 17 0 46 19 17 24 31 22 56 -2 19 -8 32 -15 31 -7 -2 -18 -4 -24 -5 -15 -3
-18 124 -4 157 8 19 8 19 24 -4 10 -14 32 -43 51 -65z m-645 28 c3 -26 6 -65
6 -86 0 -39 -1 -39 -30 -33 -30 7 -30 7 -27 -35 2 -26 10 -46 20 -52 25 -14
21 -38 -7 -38 -13 0 -35 -9 -49 -20 -14 -11 -28 -20 -33 -20 -4 0 -28 -20 -54
-44 -51 -48 -90 -72 -90 -57 0 5 25 37 56 71 60 65 65 81 15 56 -32 -17 -61
-21 -61 -8 1 4 32 29 70 56 70 49 90 75 48 61 -42 -13 -78 -17 -78 -9 0 8 191
200 201 203 4 0 9 -20 13 -45z m-964 -89 c0 -88 -10 -125 -24 -89 -8 21 -8
179 0 187 17 17 24 -12 24 -98z m122 48 c29 -26 22 -33 -31 -33 -57 0 -71 12
-39 34 29 20 47 20 70 -1z m1096 -51 c12 -8 22 -18 22 -22 0 -5 -33 -27 -74
-49 -81 -45 -138 -53 -200 -27 -54 22 -56 39 -4 31 40 -6 46 -4 88 33 25 21
54 44 65 50 23 12 70 5 103 -16z m217 -23 c40 -35 64 -49 76 -45 65 20 65 20
51 4 -21 -27 -77 -48 -124 -48 -34 0 -60 10 -114 41 -38 23 -71 44 -73 46 -13
11 71 51 110 53 9 0 42 -23 74 -51z m-1725 -46 c74 -24 139 -49 144 -54 16
-15 -54 -80 -78 -73 -18 5 -18 3 4 -15 22 -17 23 -21 8 -26 -26 -10 -82 12
-145 59 -58 42 -143 134 -143 154 0 17 64 3 210 -45z m517 35 c32 -30 29 -45
-14 -63 -47 -20 -69 -15 -118 29 -40 34 -40 34 -15 45 47 19 121 13 147 -11z
m2278 1 c16 -16 -39 -57 -102 -75 -52 -15 -57 -15 -68 0 -7 9 -22 16 -34 16
-31 0 -26 24 11 55 31 26 36 27 108 21 41 -4 80 -12 85 -17z m475 8 c0 -23
-152 -163 -210 -193 -50 -26 -64 -29 -157 -29 -66 0 -106 4 -114 12 -12 12 -2
16 56 25 36 6 16 23 -28 24 -59 1 -99 12 -95 27 3 7 49 20 104 30 97 18 178
40 339 91 93 29 105 31 105 13z m-2880 -100 c20 -32 27 -101 12 -111 -33 -20
-105 128 -76 157 11 11 44 -13 64 -46z m-105 -33 c14 -15 25 -30 25 -35 0 -4
18 -29 40 -54 64 -74 46 -108 -21 -39 -18 19 -48 44 -65 55 -29 18 -34 18 -74
4 -65 -23 -82 1 -32 47 59 55 91 60 127 22z m284 -10 c12 -15 21 -33 21 -40 0
-14 -50 -27 -110 -28 -31 -1 -35 2 -38 25 -2 21 4 31 30 48 44 28 72 26 97 -5z
m2074 10 c41 -21 67 -44 67 -59 0 -32 -177 -20 -187 12 -6 18 42 63 67 63 12
0 35 -7 53 -16z m-79 -107 c47 -27 65 -52 50 -67 -6 -6 -42 -12 -80 -13 -38
-2 -79 -8 -91 -15 -12 -6 -47 -19 -79 -27 -31 -8 -68 -22 -81 -30 -22 -15 -22
-17 -9 -43 38 -70 114 -114 100 -57 -7 30 -3 30 53 9 51 -20 61 -15 38 19 -21
33 -5 43 37 23 39 -20 47 -13 25 23 -23 39 -22 41 16 41 35 0 137 -45 137 -61
0 -17 -94 -70 -164 -91 -60 -18 -84 -20 -175 -14 -134 8 -191 16 -191 27 0 5
23 9 50 9 59 0 64 13 25 64 -14 18 -25 37 -25 43 0 20 36 41 88 52 64 13 147
54 156 77 5 12 13 14 34 9 21 -5 24 -4 15 6 -15 15 -6 39 16 39 9 0 34 -10 55
-23z m-2288 -16 c64 -48 124 -108 124 -124 0 -30 -19 -27 -77 10 -50 33 -65
38 -113 37 -30 -1 -66 -3 -80 -5 -20 -3 -26 1 -28 19 -5 35 22 69 65 80 59 15
67 14 109 -17z m355 13 c20 -25 112 -83 155 -97 21 -8 67 -20 102 -28 47 -10
62 -17 60 -29 -2 -8 -13 -15 -26 -15 -16 0 -30 -13 -48 -43 -25 -42 -25 -42 0
-52 14 -5 39 -7 56 -4 23 5 30 3 30 -9 0 -36 -185 -34 -309 3 -69 20 -114 55
-124 97 -3 13 1 27 9 34 11 9 14 8 14 -5 0 -15 3 -15 30 -1 50 26 68 12 33
-27 -22 -24 -10 -34 23 -19 33 15 42 7 25 -20 -17 -29 -6 -35 32 -21 49 20 52
19 49 -10 -4 -39 22 -36 64 6 60 60 41 101 -56 121 -52 11 -92 34 -86 50 8 22
-5 25 -35 10 -33 -18 -72 -19 -100 -5 -28 15 -23 35 14 59 38 25 70 27 88 5z
m-173 -75 c8 -12 18 -60 23 -108 4 -47 13 -104 18 -126 22 -87 3 -175 -38
-175 -29 0 -78 46 -89 83 -24 77 -23 97 3 109 33 15 50 72 49 166 0 75 10 90
34 51z m2294 -4 c34 -14 81 -25 105 -25 23 0 75 -11 115 -24 40 -14 115 -29
167 -35 51 -6 96 -13 99 -16 9 -9 -29 -33 -98 -61 -51 -21 -82 -27 -145 -27
-89 -1 -180 22 -216 53 -24 20 -24 20 14 14 56 -10 45 8 -30 43 -88 42 -118
66 -110 87 9 22 27 20 99 -9z m-2453 -72 c70 -41 92 -66 75 -83 -7 -7 -27 -6
-66 4 -95 25 -199 3 -120 -25 21 -7 32 -19 35 -37 15 -75 -46 -34 -94 63 -34
70 -31 91 15 104 58 17 90 12 155 -26z m1852 -16 c-22 -23 -34 -28 -42 -20
-19 19 -6 47 26 54 46 8 50 -1 16 -34z m-2072 -33 c9 -38 10 -59 3 -66 -23
-23 -230 38 -263 78 -9 11 -4 14 27 15 22 1 68 7 104 14 117 22 115 23 129
-41z m2131 -36 c0 -13 -23 -5 -28 10 -2 7 2 10 12 6 9 -3 16 -11 16 -16z
m-1656 -53 c8 -19 22 -35 30 -35 21 0 70 -91 102 -188 15 -45 31 -82 35 -82
17 0 18 20 4 60 -27 76 -8 66 61 -31 33 -48 70 -156 85 -249 13 -88 7 -252
-12 -295 -12 -27 -14 -12 -20 145 -6 173 -21 263 -55 349 -20 49 -40 55 -30 9
30 -143 35 -330 11 -441 -39 -185 -194 -531 -280 -625 -24 -26 -55 -62 -70
-79 -52 -64 -81 -39 -114 97 -49 200 -56 275 -56 645 0 391 13 745 26 745 5 0
9 -161 9 -372 0 -371 7 -513 35 -723 8 -60 21 -172 29 -249 8 -76 17 -141 21
-144 30 -30 126 300 164 568 42 297 40 682 -5 898 -9 44 11 42 30 -3z m1701
-49 c62 -26 106 -68 137 -130 17 -34 49 -88 71 -121 52 -76 94 -176 102 -240
10 -85 -3 -85 -87 -3 -73 72 -163 128 -205 128 -39 0 -38 22 5 62 23 21 42 45
42 52 0 23 -27 26 -46 5 -29 -32 -36 -22 -32 48 3 73 -12 96 -30 43 -21 -58
-32 -33 -32 70 0 112 3 116 75 86z m453 -18 c26 -17 99 -81 162 -143 63 -61
132 -121 153 -134 20 -12 37 -27 37 -32 0 -5 -31 -9 -69 -9 -155 0 -332 95
-391 210 -34 66 -23 67 45 5 28 -25 53 -45 58 -45 15 0 6 27 -17 49 -13 13
-27 39 -31 59 -3 21 -8 45 -11 55 -8 25 11 21 64 -15z m-1850 11 c-5 -15 -143
-68 -155 -60 -6 3 -15 16 -22 29 -11 21 -10 22 26 23 21 0 56 4 78 8 59 13 77
12 73 0z m255 -15 c3 -4 2 -15 -4 -25 -8 -15 -21 -19 -69 -19 -60 0 -60 0 -60
-542 0 -616 -8 -553 88 -666 79 -93 436 -402 464 -402 17 0 284 228 394 336
44 43 95 102 114 129 33 48 35 55 40 160 3 61 9 116 13 123 21 32 27 4 27
-116 0 -127 0 -127 -37 -182 -55 -83 -248 -267 -485 -464 -71 -59 -66 -60
-193 49 -285 246 -390 349 -442 434 -23 36 -23 36 -23 607 0 314 3 574 7 577
8 9 158 9 166 1z m1002 -179 c0 -163 -2 -180 -17 -183 -17 -3 -18 10 -18 157
0 160 0 160 -82 163 -66 2 -83 6 -83 18 0 12 19 16 85 21 47 3 92 5 100 5 13
-1 15 -28 15 -181z m-935 150 c0 -8 -7 -15 -15 -15 -16 0 -20 12 -8 23 11 12
23 8 23 -8z m-296 -67 c7 -67 1 -83 -18 -55 -13 16 -36 24 -36 11 0 -3 9 -17
20 -31 20 -26 27 -53 13 -53 -11 0 -103 115 -103 128 0 12 78 60 101 61 13 1
18 -13 23 -61z m375 8 c9 -11 9 -20 2 -35 -14 -26 7 -41 24 -18 21 29 37 20
35 -20 -3 -59 -1 -60 29 -23 25 29 31 32 45 21 9 -7 16 -19 16 -26 0 -7 9 -24
21 -38 31 -40 12 -124 -32 -148 -27 -14 -61 13 -41 33 29 29 -8 40 -40 11 -46
-42 -1 -123 69 -123 32 0 44 7 89 55 51 54 84 70 84 41 0 -22 46 -72 80 -86
76 -32 156 54 103 112 -25 27 -44 23 -41 -9 4 -40 -32 -44 -61 -7 -17 22 -21
39 -19 78 3 44 6 51 23 49 14 -1 25 9 39 38 20 41 40 50 50 23 3 -8 11 -12 17
-9 6 4 8 13 5 21 -7 17 13 64 27 64 5 0 16 -8 23 -17 13 -17 15 -17 25 0 14
23 22 22 59 -9 32 -27 53 -26 30 1 -21 25 1 36 66 33 59 -3 59 -3 59 -158 0
-155 0 -155 -78 -193 -67 -32 -80 -42 -93 -75 -57 -140 -76 -170 -115 -187
-59 -27 -65 -40 -35 -70 20 -20 35 -25 74 -25 46 0 49 -2 65 -37 10 -21 35
-58 57 -83 35 -39 42 -43 59 -33 10 6 22 8 27 3 5 -4 18 -10 28 -12 17 -3 19
-11 17 -83 -2 -70 -6 -87 -34 -133 -18 -30 -75 -95 -127 -145 -119 -115 -344
-307 -359 -307 -17 0 -222 173 -348 294 -188 180 -173 118 -173 718 0 283 3
518 7 521 3 4 57 7 118 7 86 0 115 -3 124 -14z m1255 -65 c71 -53 110 -100
184 -224 34 -58 69 -110 77 -117 8 -7 15 -19 15 -27 0 -20 -50 -9 -119 26 -52
26 -56 31 -76 92 -25 73 -70 164 -114 229 -50 73 -43 77 33 21z m-2295 -13 c0
-24 -3 -61 -7 -83 -7 -37 -10 -41 -52 -52 -54 -14 -147 -16 -154 -4 -3 4 18
24 47 44 29 20 74 59 102 87 27 27 53 50 57 50 4 0 8 -19 7 -42z m2127 -249
c70 -40 148 -116 169 -165 20 -47 15 -126 -11 -175 -19 -34 -19 -34 -25 51 -6
84 -23 134 -53 159 -22 18 -20 3 6 -50 26 -53 31 -175 9 -226 -14 -33 -39 -48
-26 -15 14 36 17 123 6 169 -22 86 -134 239 -192 264 -16 6 -29 16 -29 22 0
19 91 -2 146 -34z m-117 -17 c49 -40 111 -130 111 -162 0 -33 -104 -137 -148
-147 -27 -6 -44 -21 -72 -59 -76 -109 -76 -109 -94 -95 -23 19 -21 29 28 127
25 49 42 92 40 96 -16 26 -44 -14 -90 -127 -18 -44 -37 -81 -43 -83 -38 -13
-31 135 10 207 19 34 20 43 9 56 -11 13 -9 19 9 39 15 16 19 26 11 31 -16 10
-50 -24 -50 -50 0 -31 -55 -112 -92 -135 -21 -13 -46 -19 -68 -18 -39 3 -44
17 -11 34 42 21 60 47 98 137 38 90 38 90 138 138 143 67 143 67 214 11z m390
-259 c16 -126 45 -239 84 -333 72 -175 140 -253 250 -289 37 -13 69 -26 71
-29 6 -10 -68 -71 -113 -94 -19 -10 -45 -18 -57 -18 -56 0 -226 251 -303 448
-17 44 -18 54 -6 105 7 31 16 96 20 145 7 94 21 162 33 162 4 0 13 -44 21 -97z
m-711 -95 c-3 -34 -20 -42 -26 -13 -5 22 5 45 18 45 7 0 10 -14 8 -32z m-1188
-485 c-17 -59 -67 -168 -86 -184 -8 -6 1 22 20 62 18 41 41 98 51 126 23 64
33 61 15 -4z m-430 -108 c10 -34 10 -48 1 -59 -13 -15 -95 -31 -111 -21 -5 3
8 28 30 56 22 28 40 55 40 60 0 5 6 9 14 9 7 0 19 -20 26 -45z m1199 -386 c42
-32 42 -32 81 0 39 31 60 39 60 21 0 -11 -84 -70 -100 -70 -15 0 -100 61 -100
72 0 15 15 9 59 -23z m-52 -81 c-3 -18 -9 -46 -13 -63 -7 -30 -7 -30 15 -11
11 11 21 25 21 32 0 20 21 28 31 13 5 -8 9 -29 9 -46 0 -33 0 -33 33 -15 21
13 33 27 35 45 4 36 16 34 41 -9 25 -42 48 -37 26 6 -18 35 -19 70 -2 70 6 0
27 -26 45 -57 34 -57 34 -57 -6 -93 -54 -48 -87 -95 -113 -163 -12 -31 -25
-57 -28 -57 -3 1 -22 35 -41 77 -24 53 -51 93 -88 129 -54 53 -54 53 -17 113
41 68 60 78 52 29z"/>
<path d="M2586 3155 c-10 -27 -7 -53 7 -58 22 -8 38 7 40 39 2 23 -3 30 -19
32 -13 2 -24 -4 -28 -13z"/>
<path d="M1775 3730 c-10 -16 5 -70 20 -70 7 0 21 12 30 27 17 25 17 27 -1 40
-21 16 -40 17 -49 3z"/>
<path d="M212 3466 c7 -57 52 -156 73 -156 13 0 11 8 -8 48 -14 26 -32 71 -41
100 -10 28 -20 52 -23 52 -3 0 -3 -20 -1 -44z"/>
<path d="M1027 3144 c-6 -34 20 -62 40 -41 9 9 12 23 7 40 -8 35 -40 36 -47 1z"/>
<path d="M1765 2643 c-4 -38 -14 -92 -22 -120 -14 -51 -11 -79 7 -68 14 9 38
104 45 183 6 61 5 72 -8 72 -12 0 -17 -17 -22 -67z"/>
<path d="M2037 2514 c-4 -4 -7 -18 -7 -31 0 -28 23 -27 28 1 4 20 -11 40 -21
30z"/>
<path d="M2031 2434 c0 -11 3 -14 6 -6 3 7 2 16 -1 19 -3 4 -6 -2 -5 -13z"/>
<path d="M1387 2932 c-15 -9 -27 -20 -27 -23 0 -11 38 2 51 17 18 22 7 25 -24
6z"/>
<path d="M841 2340 c-1 -8 6 -64 14 -125 17 -129 19 -389 5 -536 -21 -208 -95
-570 -132 -641 -5 -10 -6 -18 -3 -18 2 0 18 26 34 58 32 64 80 245 112 427 29
161 38 544 16 685 -13 86 -44 187 -46 150z"/>
<path d="M987 1913 c-10 -17 -12 -278 -2 -283 15 -8 23 44 24 173 1 103 -6
137 -22 110z"/>
<path d="M1787 1912 c-21 -23 -22 -72 -2 -98 14 -19 15 -18 35 6 24 30 25 42
5 80 -18 35 -17 35 -38 12z"/>
<path d="M1706 1821 c-16 -17 -17 -23 -6 -36 14 -17 51 -17 57 1 2 6 -4 21
-14 33 -18 23 -18 23 -37 2z"/>
<path d="M1860 1815 c-23 -24 -23 -26 -7 -43 13 -13 21 -14 35 -6 22 14 27 47
9 62 -11 9 -19 6 -37 -13z"/>
<path d="M1771 1739 c-32 -27 -33 -27 -12 -38 12 -7 21 -18 21 -26 0 -8 9 -15
20 -15 11 0 20 6 20 14 0 7 9 20 19 27 19 14 19 15 -8 40 -27 26 -27 26 -60
-2z"/>
<path d="M1785 1583 c-19 -77 -150 -230 -234 -272 -22 -12 -41 -25 -41 -29 0
-4 18 -15 40 -25 92 -43 230 -211 230 -280 0 -17 5 -27 15 -27 9 0 15 9 15 23
0 61 140 233 227 279 24 13 43 28 43 34 0 5 -15 17 -32 26 -80 38 -213 192
-227 262 -8 39 -27 44 -36 9z m51 -192 c-3 -12 -6 -10 -11 7 -13 41 -45 21
-45 -29 0 -10 -5 -19 -11 -19 -15 0 -7 51 17 105 17 40 17 40 36 -4 10 -25 17
-52 14 -60z m30 -91 c14 6 35 10 47 10 32 0 8 -18 -38 -28 -36 -8 -40 -11 -38
-38 4 -43 -9 -66 -16 -29 -7 35 -41 48 -41 16 0 -12 -4 -21 -9 -21 -5 0 -8 19
-6 43 2 31 8 43 21 45 11 2 23 8 29 13 5 6 12 3 17 -6 7 -11 15 -12 34 -5z
m-122 -10 c21 -21 -25 -21 -51 0 -28 23 -28 23 7 16 19 -3 39 -11 44 -16z
m-104 -10 c-13 -23 -14 -24 -43 -8 -22 12 -22 12 3 19 45 13 52 11 40 -11z
m375 0 c-3 -5 -17 -10 -30 -10 -13 0 -27 5 -30 10 -4 6 8 10 30 10 22 0 34 -4
30 -10z m-199 -159 c-14 -62 -22 -70 -30 -30 -5 24 -1 37 17 55 12 13 22 24
23 24 1 0 -4 -22 -10 -49z"/>
<path d="M2520 3855 c0 -8 7 -15 15 -15 8 0 15 7 15 15 0 8 -7 15 -15 15 -8 0
-15 -7 -15 -15z"/>
</g>
</svg>
