<?xml version="1.0" standalone="no"?>
<!DOCTYPE svg PUBLIC "-//W3C//DTD SVG 20010904//EN"
 "http://www.w3.org/TR/2001/REC-SVG-20010904/DTD/svg10.dtd">
<svg version="1.0" xmlns="http://www.w3.org/2000/svg"
 width="412.000000pt" height="456.000000pt" viewBox="0 0 412.000000 456.000000"
 preserveAspectRatio="xMidYMid meet">
<metadata>
Created by potrace 1.16, written by Peter Selinger 2001-2019
</metadata>
<g transform="translate(0.000000,456.000000) scale(0.100000,-0.100000)"
fill="#000000" stroke="none">
<path d="M2060 4536 c0 -42 -11 -56 -41 -56 -19 0 -29 -5 -29 -15 0 -9 9 -15
24 -15 28 0 48 -21 44 -47 -2 -11 3 -18 12 -18 9 0 17 12 20 30 4 24 11 31 33
33 35 4 35 30 0 34 -22 2 -29 10 -36 41 -10 42 -27 50 -27 13z"/>
<path d="M2047 4343 c-3 -4 -10 -27 -17 -51 -11 -43 -12 -43 -48 -38 -32 5
-42 2 -72 -26 -19 -17 -29 -33 -23 -35 6 -2 23 -15 38 -29 14 -13 35 -24 46
-24 23 0 24 9 2 25 -29 21 -9 47 34 43 34 -3 38 0 47 30 12 42 23 41 35 -5 13
-45 6 -57 -28 -50 -15 3 -32 3 -37 -1 -6 -4 -16 -47 -22 -97 -34 -247 -50
-339 -61 -343 -19 -6 -13 -25 15 -47 26 -21 26 -22 10 -48 -23 -34 -12 -55 16
-30 41 37 42 52 7 89 -18 19 -28 34 -23 34 14 0 84 102 84 122 0 8 14 34 30
56 35 49 36 52 12 52 -21 0 -40 -28 -58 -91 -15 -49 -39 -70 -30 -26 8 39 25
150 32 212 7 59 7 59 17 27 14 -47 43 -40 39 10 -2 29 1 37 19 41 17 5 20 11
14 35 -5 25 -3 31 15 37 31 10 48 -10 32 -35 -14 -23 -16 -40 -3 -40 12 0 91
52 91 60 0 4 -12 17 -26 31 -19 18 -37 24 -71 24 -44 0 -46 1 -62 45 -15 41
-42 63 -54 43z"/>
<path d="M1666 4143 c-3 -3 -6 -16 -6 -28 0 -25 -15 -41 -44 -46 -27 -5 -33
-29 -8 -29 28 0 52 -26 52 -56 0 -13 4 -24 9 -24 11 0 21 25 21 51 0 12 10 21
31 26 37 10 42 27 9 32 -29 4 -40 17 -40 48 0 23 -13 37 -24 26z"/>
<path d="M2446 4138 c-3 -7 -7 -25 -10 -39 -4 -19 -14 -28 -36 -32 -35 -8 -40
-27 -7 -27 31 0 47 -18 47 -52 0 -18 5 -28 15 -28 9 0 15 9 15 24 0 30 24 56
52 56 25 0 19 24 -8 29 -31 5 -44 21 -44 52 0 29 -17 40 -24 17z"/>
<path d="M1185 3898 c-2 -7 -6 -31 -8 -53 -2 -22 -10 -62 -18 -89 -14 -48 -14
-48 19 -75 17 -15 32 -32 32 -39 0 -18 -20 -25 -35 -12 -9 7 -26 9 -45 5 -19
-4 -30 -3 -30 4 0 24 -22 9 -35 -23 -8 -19 -19 -37 -25 -41 -18 -11 -11 -22
30 -49 54 -35 82 -35 78 2 -3 24 1 27 30 30 33 3 33 3 31 -36 -2 -26 3 -45 14
-57 21 -20 21 -26 2 -51 -19 -25 -19 -44 1 -44 13 0 15 -6 9 -27 -12 -50 -24
-55 -54 -21 -44 49 -95 49 -241 -1 -126 -43 -199 -53 -253 -32 -35 14 -47 14
-47 1 0 -17 83 -52 155 -65 70 -12 70 -12 10 -39 -275 -126 -328 -143 -475
-155 -112 -10 -135 -5 -174 38 -19 21 -46 28 -46 13 0 -15 56 -87 90 -115 111
-94 273 -110 465 -46 130 44 263 126 344 213 14 14 33 26 43 26 31 0 58 -58
58 -123 0 -73 21 -115 118 -238 31 -38 52 -38 52 1 0 27 6 33 57 58 64 30 75
48 41 61 -20 8 -21 10 -5 16 17 7 23 36 10 49 -5 4 -8 20 -8 34 0 26 -2 27
-53 27 -66 -1 -63 13 9 38 30 10 58 22 63 27 15 15 -15 42 -40 36 -30 -8 -34
1 -36 73 -2 61 -2 61 -40 61 -21 0 -38 3 -38 6 0 10 41 44 53 44 5 0 6 7 3 16
-3 8 1 22 9 31 14 13 13 18 -10 45 -17 21 -24 36 -19 47 5 9 8 36 9 61 0 45 0
45 35 45 31 0 35 -3 38 -27 2 -16 8 -28 13 -28 14 0 79 72 79 88 0 11 -85 72
-101 72 -3 0 -22 -11 -42 -24 -51 -35 -65 -10 -26 45 21 29 21 29 0 62 -12 17
-33 58 -48 90 -28 57 -40 68 -48 45z m75 -178 c0 -13 -11 -13 -30 0 -12 8 -11
10 8 10 12 0 22 -4 22 -10z m0 -522 c0 -51 12 -73 34 -65 8 3 18 2 21 -3 4 -6
-9 -10 -29 -10 -20 0 -39 0 -43 0 -5 0 -9 27 -11 60 -3 49 -1 60 12 60 12 0
16 -10 16 -42z"/>
<path d="M2205 3890 c-3 -5 -1 -18 5 -29 5 -11 10 -33 10 -50 0 -34 25 -53 58
-44 25 6 30 23 7 23 -8 0 -19 9 -25 21 -14 26 -7 35 10 14 14 -17 40 -20 40
-5 0 5 -12 17 -27 27 -16 10 -34 26 -41 35 -15 20 -28 23 -37 8z"/>
<path d="M1836 3873 c-9 -9 -7 -33 3 -33 12 0 22 28 12 34 -5 3 -11 3 -15 -1z"/>
<path d="M2340 3865 c-10 -12 -10 -18 1 -32 11 -13 11 -17 2 -20 -19 -7 -15
-20 7 -26 13 -3 18 -11 14 -20 -6 -18 -34 -31 -34 -17 0 6 -5 10 -11 10 -6 0
-9 -9 -6 -20 3 -11 1 -23 -4 -26 -5 -3 -9 -41 -9 -84 0 -79 0 -79 -217 -83
-120 -2 -229 -7 -242 -12 -21 -7 -22 -6 -12 13 6 12 13 62 15 112 4 89 4 90
-18 84 -14 -3 -27 1 -35 10 -10 12 -9 19 8 37 20 21 20 21 58 -10 38 -31 38
-31 55 -9 10 13 18 40 18 61 0 31 -3 38 -17 35 -10 -2 -19 -12 -21 -23 -7 -45
-11 -49 -31 -31 -10 9 -25 14 -34 10 -11 -4 -16 1 -19 18 -4 30 -48 40 -48 11
0 -11 6 -25 13 -32 10 -11 8 -15 -7 -25 -70 -41 -158 -150 -192 -237 -21 -54
-41 -79 -66 -79 -10 0 -18 -7 -18 -16 0 -12 6 -15 23 -10 33 9 239 44 342 57
140 18 533 14 625 -7 41 -9 93 -20 115 -24 23 -5 47 -10 54 -12 21 -5 24 19 3
24 -11 3 -22 18 -26 34 -19 76 -151 245 -218 280 -22 12 -28 21 -26 42 3 31
-22 42 -42 17z"/>
<path d="M2070 3864 c0 -14 26 -53 62 -92 39 -43 39 -43 3 -83 -20 -22 -34
-46 -32 -52 5 -17 37 -21 37 -5 0 8 13 29 30 48 36 43 37 60 5 90 -13 12 -36
40 -51 61 -23 33 -54 52 -54 33z"/>
<path d="M2254 3703 c-11 -51 -14 -55 -34 -50 -21 5 -24 -1 -14 -27 7 -19 38
-21 51 -3 14 17 25 107 13 107 -5 0 -12 -12 -16 -27z"/>
<path d="M1870 3677 c0 -27 7 -45 25 -62 42 -43 61 -29 25 18 -11 14 -20 29
-20 34 0 5 -7 18 -15 29 -13 18 -14 17 -15 -19z"/>
<path d="M1948 3493 c-14 -2 -32 -11 -38 -19 -7 -8 -19 -14 -26 -14 -8 0 -16
-12 -20 -27 -11 -52 -26 -93 -32 -93 -4 0 -12 10 -17 22 -9 19 -27 25 -144 45
-107 19 -136 21 -143 11 -13 -21 -9 -169 6 -223 8 -27 23 -70 34 -95 18 -43
22 -46 61 -47 22 -1 41 2 41 8 0 5 -7 9 -15 9 -26 0 -16 27 13 34 15 3 38 8
52 12 23 6 22 3 -14 -34 -21 -22 -35 -45 -32 -50 3 -6 -7 -25 -23 -42 -28 -31
-28 -31 -35 -8 -4 13 -10 18 -12 11 -3 -6 2 -26 11 -43 16 -31 16 -31 57 5 63
53 73 45 38 -33 -14 -31 -29 -47 -55 -58 -25 -10 -35 -20 -35 -37 0 -25 54
-82 70 -72 17 11 11 35 -9 35 -19 0 -31 18 -31 46 0 10 7 13 26 8 21 -5 33 1
71 42 44 47 46 48 39 19 -4 -16 -21 -58 -38 -93 -36 -72 -30 -93 13 -42 26 32
28 33 29 12 0 -13 -7 -36 -15 -52 -15 -29 -15 -30 6 -30 21 0 21 -1 4 -26 -9
-14 -14 -33 -10 -42 10 -27 37 10 39 54 1 22 8 50 16 64 14 25 14 25 21 0 4
-14 7 -40 8 -57 1 -18 5 -33 11 -33 14 0 30 35 30 64 0 14 5 28 10 31 18 11
11 -57 -11 -102 -12 -24 -18 -47 -15 -50 11 -11 75 59 97 105 16 32 24 40 30
30 12 -19 11 -95 -2 -162 -9 -42 -9 -63 -1 -81 17 -37 32 -30 32 13 0 31 10
51 46 98 26 32 55 76 64 97 17 39 17 39 24 -7 7 -48 38 -96 62 -96 18 0 18 5
-2 35 -13 20 -15 38 -10 88 8 73 26 112 26 57 0 -48 28 -100 69 -127 19 -13
38 -23 42 -23 17 0 9 24 -17 51 -16 17 -28 43 -31 70 -6 44 -6 44 31 10 19
-19 39 -32 42 -28 4 4 -9 51 -29 104 -20 53 -34 99 -32 101 2 3 29 -18 60 -46
46 -40 63 -50 91 -49 32 1 50 17 19 17 -20 0 -85 68 -114 120 -24 42 -24 42
30 6 74 -50 99 -49 58 2 -21 27 -21 27 5 47 32 26 33 39 3 31 -18 -4 -31 2
-52 24 -31 33 -30 35 10 20 23 -9 28 -7 32 10 7 26 20 25 29 -2 3 -13 22 -38
40 -56 33 -32 33 -32 58 5 44 68 67 167 64 274 -3 94 -3 94 -48 93 -25 0 -93
-11 -152 -24 -85 -18 -109 -27 -113 -41 -9 -26 -21 -16 -51 42 -13 28 -33 52
-42 55 -9 3 -29 12 -44 20 -25 13 -188 18 -260 7z m55 -54 c25 -6 37 -16 37
-27 0 -39 -48 -54 -92 -31 -21 11 -21 12 -2 26 13 11 15 17 7 20 -7 3 -13 9
-13 14 0 12 16 11 63 -2z m198 -3 c-6 -7 -9 -20 -5 -29 7 -19 -24 -37 -64 -37
-24 0 -31 5 -36 26 -4 15 -6 28 -4 29 6 7 74 23 97 24 19 1 21 -2 12 -13z
m-272 -136 c20 -41 18 -50 -8 -50 -24 0 -42 35 -35 69 8 37 18 32 43 -19z
m297 -17 c-2 -3 -9 -2 -15 2 -8 4 -7 13 1 28 13 22 13 22 16 -1 2 -13 1 -26
-2 -29z m-96 8 c3 -1 -9 -8 -27 -16 -25 -10 -40 -11 -67 -3 -20 6 -36 14 -36
18 0 6 110 6 130 1z m-350 -31 c11 -7 12 -10 2 -10 -9 0 -11 -7 -7 -19 3 -12
0 -21 -10 -25 -8 -3 -15 -12 -15 -20 0 -15 -29 -36 -49 -36 -6 0 -11 11 -11
25 0 14 6 25 13 25 20 0 51 37 37 45 -12 8 -4 25 13 25 7 0 19 -5 27 -10z
m636 -15 c-4 -10 3 -20 19 -27 26 -12 29 -18 25 -53 -3 -28 -3 -28 -44 -4 -39
23 -46 39 -18 39 13 1 11 5 -10 23 -36 29 -35 37 3 37 24 0 30 -4 25 -15z
m-299 -26 c66 -36 72 -51 11 -25 -18 8 -41 17 -51 20 -10 3 -15 10 -12 16 8
13 9 13 52 -11z m164 -18 c-7 -12 -19 -21 -28 -21 -15 0 -15 2 0 18 10 10 17
25 17 32 0 10 3 11 11 3 8 -8 8 -17 0 -32z m-255 4 c-11 -8 -29 -15 -40 -15
-19 1 -19 2 4 15 35 20 62 19 36 0z m-126 -15 c0 -5 -7 -10 -15 -10 -8 0 -15
5 -15 10 0 6 7 10 15 10 8 0 15 -4 15 -10z m55 -10 c-3 -5 -11 -10 -16 -10 -6
0 -7 5 -4 10 3 6 11 10 16 10 6 0 7 -4 4 -10z m120 -64 c14 -8 22 -17 16 -20
-16 -10 -61 5 -61 20 0 18 11 18 45 0z m-259 -183 c-2 -3 -9 -2 -15 1 -6 4 -6
17 2 39 12 32 12 32 15 -1 2 -19 1 -36 -2 -39z"/>
<path d="M2890 3337 c-68 -36 -83 -72 -76 -190 5 -80 3 -105 -11 -134 -29 -63
-99 -89 -153 -58 -58 33 -54 -1 6 -65 57 -61 105 -79 163 -62 83 25 130 94
131 190 0 60 17 108 48 136 21 18 22 18 84 -39 122 -110 244 -175 412 -217
105 -27 222 -21 301 16 59 27 139 96 168 144 23 41 4 52 -28 17 -42 -44 -72
-51 -193 -43 -119 7 -192 30 -427 134 -110 49 -110 49 -48 56 88 10 181 54
159 75 -3 3 -19 0 -35 -7 -53 -21 -124 -13 -255 29 -143 47 -186 50 -246 18z"/>
<path d="M1306 3317 c-18 -13 -18 -14 -2 -20 21 -8 59 10 51 24 -9 13 -28 11
-49 -4z"/>
<path d="M1547 3014 c-11 -11 -8 -137 4 -196 6 -29 29 -91 51 -137 32 -67 56
-101 117 -160 42 -42 95 -85 119 -95 42 -19 42 -19 11 -38 -17 -10 -29 -24
-26 -31 2 -7 33 -28 69 -48 35 -19 86 -52 113 -72 26 -20 53 -37 59 -36 6 0
38 18 71 39 33 21 88 55 123 75 34 20 62 40 62 45 0 14 -48 43 -60 35 -5 -3
-10 -2 -10 3 0 5 19 18 43 28 23 10 77 53 119 95 63 62 85 92 117 160 45 97
61 164 61 253 0 44 -5 67 -15 76 -17 14 -18 12 -15 -60 2 -67 -26 -184 -61
-258 -46 -96 -160 -208 -261 -256 -42 -20 -102 -42 -132 -48 -49 -11 -63 -10
-123 10 -244 78 -398 278 -406 526 -2 82 -11 109 -30 90z m530 -670 c-3 -3
-12 -4 -19 -1 -8 3 -5 6 6 6 11 1 17 -2 13 -5z"/>
<path d="M888 2907 c-87 -82 -102 -109 -76 -135 21 -21 53 -13 119 29 110 70
151 118 126 144 -13 12 -22 9 -68 -25 -29 -22 -56 -40 -61 -40 -13 0 6 32 36
59 25 23 35 51 19 51 -5 0 -47 -38 -95 -83z m127 -7 c-10 -11 -20 -18 -23 -15
-7 6 18 35 31 35 5 0 2 -9 -8 -20z"/>
<path d="M2505 2977 c-9 -22 -2 -62 10 -60 6 1 11 14 13 29 4 32 -14 56 -23
31z"/>
<path d="M3070 2986 c0 -3 18 -26 40 -52 23 -25 39 -49 36 -52 -3 -2 -35 14
-72 37 -64 41 -90 47 -65 17 7 -8 10 -19 7 -25 -9 -14 74 -83 142 -119 69 -37
108 -41 117 -13 10 32 -12 68 -72 114 -32 25 -69 57 -82 71 -21 22 -51 35 -51
22z m1 -103 c13 -16 12 -17 -3 -4 -10 7 -18 15 -18 17 0 8 8 3 21 -13z"/>
<path d="M601 2865 c-68 -32 -166 -131 -256 -258 -108 -154 -215 -237 -308
-237 -50 0 -45 -21 9 -33 41 -9 192 -3 234 9 25 8 25 8 -4 -30 -15 -20 -26
-40 -23 -42 10 -11 204 89 252 129 62 52 107 102 121 136 6 14 24 37 39 51 25
22 27 22 20 5 -15 -40 -18 -114 -5 -130 27 -33 44 -34 94 -9 59 30 74 26 78
-18 3 -30 6 -33 32 -31 16 1 52 16 78 33 27 16 52 30 54 30 3 0 10 -13 15 -30
12 -33 27 -37 67 -16 38 20 120 109 126 138 10 46 26 129 26 133 0 17 -24 -1
-41 -30 -12 -19 -29 -35 -38 -35 -9 0 -22 -5 -29 -12 -23 -23 -24 3 -2 62 12
33 20 63 17 67 -14 13 -34 -9 -77 -81 -25 -42 -48 -76 -51 -76 -8 0 5 63 21
104 23 61 5 62 -33 2 -33 -52 -110 -126 -132 -126 -13 0 -13 5 1 40 9 23 14
44 10 47 -3 4 -31 -4 -62 -16 -30 -13 -58 -21 -61 -18 -3 4 4 22 16 42 11 20
21 40 21 46 0 16 -26 10 -46 -12 -22 -25 -93 -63 -102 -55 -3 3 3 23 13 45 20
45 14 63 -18 57 -81 -17 -97 -17 -97 0 0 20 35 70 75 105 16 15 28 30 25 33
-3 3 -30 -6 -59 -19z"/>
<path d="M3420 2880 c0 -6 13 -22 29 -36 17 -14 40 -41 52 -60 29 -47 17 -59
-47 -46 -77 17 -90 3 -53 -57 11 -18 18 -36 15 -38 -6 -7 -83 32 -118 59 -37
29 -45 17 -23 -32 10 -22 16 -43 13 -46 -4 -3 -24 4 -47 15 -67 35 -87 25 -56
-29 16 -28 19 -50 7 -50 -19 0 -130 103 -150 139 -13 23 -28 41 -34 41 -12 0
-7 -25 17 -89 30 -81 11 -77 -39 7 -26 45 -52 85 -58 88 -20 12 -21 -8 -3 -66
10 -33 16 -62 13 -65 -13 -14 -59 17 -72 48 -19 48 -40 60 -31 18 9 -43 -7
-39 -34 9 -27 48 -36 50 -45 9 -8 -41 18 -87 94 -172 65 -71 140 -123 165
-113 9 3 20 17 25 31 5 14 12 25 14 25 3 0 27 -14 54 -30 26 -17 61 -32 77
-33 26 -2 30 2 38 36 10 43 14 44 68 16 59 -30 91 -23 106 23 10 30 10 46 -2
83 -12 43 -12 45 3 33 25 -19 57 -61 55 -70 -4 -12 115 -125 172 -163 62 -41
160 -85 188 -85 19 0 19 2 -8 30 -16 16 -26 33 -22 36 3 3 29 1 57 -5 89 -19
229 -9 238 17 2 8 -9 12 -35 12 -46 0 -124 36 -181 85 -22 20 -87 97 -144 172
-73 98 -124 153 -176 195 -40 32 -77 58 -82 58 -5 0 -15 3 -24 6 -9 3 -16 1
-16 -6z"/>
<path d="M1100 2865 c-10 -12 -9 -16 3 -21 20 -7 37 3 37 22 0 18 -24 18 -40
-1z"/>
<path d="M2944 2869 c-10 -17 13 -36 27 -22 12 12 4 33 -11 33 -5 0 -12 -5
-16 -11z"/>
<path d="M1482 2844 c-17 -12 -22 -24 -20 -47 4 -40 28 -49 28 -10 0 17 8 33
20 41 11 7 20 17 20 22 0 15 -23 12 -48 -6z"/>
<path d="M1306 2825 c-10 -26 91 -823 114 -906 9 -32 35 -57 47 -46 2 2 -19
183 -46 403 -27 219 -53 435 -58 479 -7 71 -10 80 -29 83 -13 2 -24 -4 -28
-13z"/>
<path d="M1376 2821 c-6 -9 91 -131 105 -131 18 0 36 -62 49 -165 16 -129 8
-440 -14 -548 -25 -122 0 -129 31 -8 20 81 28 394 14 533 -18 163 -28 196 -65
220 -18 12 -45 38 -61 59 -29 39 -51 54 -59 40z"/>
<path d="M2470 2800 c0 -15 5 -20 18 -18 9 2 17 10 17 18 0 8 -8 16 -17 18
-13 2 -18 -3 -18 -18z"/>
<path d="M2412 2763 c4 -21 33 -25 33 -3 0 8 -8 16 -18 18 -14 3 -18 -1 -15
-15z"/>
<path d="M1574 2594 c3 -22 9 -102 12 -179 6 -160 10 -189 26 -179 14 9 5 293
-12 346 -15 53 -34 61 -26 12z"/>
<path d="M2093 2544 c-7 -18 11 -39 26 -30 17 11 13 46 -4 46 -9 0 -18 -7 -22
-16z"/>
<path d="M2456 2521 c-11 -18 22 -81 47 -90 24 -9 43 -6 200 32 60 14 55 32
-9 33 -27 1 -79 5 -116 9 -46 5 -68 4 -68 -2 0 -15 25 -23 66 -23 45 0 44 -20
-1 -22 -19 -1 -43 -2 -52 -2 -12 -1 -22 11 -29 34 -12 35 -28 48 -38 31z"/>
<path d="M2360 2426 c0 -7 7 -19 16 -27 26 -22 74 -131 74 -171 0 -35 20 -17
48 45 16 34 39 71 50 81 27 24 28 36 3 36 -11 0 -29 -12 -41 -27 -20 -26 -21
-27 -17 -5 4 15 1 22 -6 19 -15 -5 -22 -38 -9 -46 6 -4 6 -15 0 -31 -9 -23
-11 -21 -33 38 -24 66 -49 102 -72 102 -7 0 -13 -6 -13 -14z"/>
<path d="M2860 2426 c0 -10 5 -26 11 -37 5 -11 9 -34 7 -52 -3 -30 -5 -28 -27
31 -13 34 -28 62 -32 62 -5 0 -9 -22 -9 -49 0 -52 -23 -164 -42 -205 -8 -19
-8 -28 3 -39 8 -7 34 -38 59 -67 94 -112 113 -130 130 -130 10 0 22 -9 25 -20
4 -11 22 -36 42 -55 32 -32 38 -33 84 -28 58 7 59 5 85 -134 16 -88 26 -109
37 -80 9 21 7 -25 -3 -110 -7 -58 -7 -102 0 -150 17 -102 81 -225 106 -201 2
3 -5 26 -17 53 -47 106 5 234 176 430 41 47 82 100 91 118 9 17 18 33 19 35 2
2 27 -21 56 -51 65 -64 147 -105 228 -113 94 -10 158 16 72 30 -42 6 -109 56
-149 110 -42 55 -99 178 -147 316 -56 161 -100 260 -114 260 -15 0 -14 -20 4
-70 15 -44 21 -220 8 -220 -5 0 -16 20 -26 43 -23 56 -86 157 -98 157 -5 0 -9
-24 -10 -52 -1 -29 -4 -78 -8 -108 -7 -60 -7 -61 -31 63 -8 40 -16 57 -27 57
-12 0 -14 -8 -9 -44 7 -46 -14 -210 -37 -286 -13 -45 -13 -45 -20 70 -6 114
-43 270 -67 285 -6 4 -10 -17 -11 -52 0 -58 0 -58 -19 -15 -11 23 -24 42 -30
42 -6 0 -19 20 -30 45 -11 25 -23 45 -29 45 -5 0 -7 -42 -4 -102 4 -67 1 -124
-8 -163 -13 -60 -13 -60 -20 23 -9 92 -44 229 -66 252 -13 13 -14 9 -8 -32 4
-27 5 -48 1 -48 -3 0 -20 28 -37 63 -38 75 -38 75 -49 57 -7 -11 -11 -8 -19
13 -6 16 -11 32 -11 36 0 5 -7 14 -15 21 -12 10 -15 9 -15 -4z"/>
<path d="M1246 2405 c-7 -29 -23 -33 -28 -7 -3 9 -13 -19 -24 -63 -19 -80 -19
-80 -22 -12 -2 37 -6 67 -10 67 -4 0 -27 -38 -52 -84 -44 -84 -63 -94 -53 -29
8 46 -14 43 -26 -4 -14 -55 -40 -193 -44 -233 -2 -32 -4 -30 -16 25 -9 39 -12
92 -8 153 4 69 2 92 -6 89 -7 -2 -18 -22 -25 -45 -8 -23 -20 -42 -27 -42 -7 0
-19 -16 -25 -36 -9 -25 -15 -33 -23 -25 -7 7 -7 23 2 52 14 46 7 64 -14 35
-30 -40 -58 -162 -64 -276 -6 -115 -6 -115 -23 -50 -25 100 -40 217 -33 261 5
32 4 39 -9 39 -16 0 -19 -8 -36 -104 -5 -33 -12 -61 -14 -63 -7 -8 -17 144
-11 170 6 21 4 27 -8 27 -19 0 -92 -99 -107 -146 -7 -19 -16 -34 -22 -34 -17
0 -3 178 18 228 9 23 14 45 11 48 -19 20 -49 -40 -121 -246 -66 -187 -119
-291 -184 -362 -41 -44 -66 -62 -99 -71 -65 -17 -47 -32 37 -30 92 3 177 40
251 112 29 28 54 51 56 51 1 0 9 -15 17 -33 7 -18 39 -62 71 -98 129 -143 186
-238 205 -342 10 -54 7 -75 -25 -149 -5 -13 -3 -18 9 -18 11 0 30 27 54 78 36
76 37 79 37 197 0 66 -4 140 -9 165 -8 45 -8 45 13 26 21 -19 21 -19 21 3 0
12 10 60 21 107 26 104 46 123 105 104 35 -12 39 -11 57 11 11 13 24 36 29 51
6 17 16 27 27 25 11 -1 53 40 115 111 98 112 98 112 72 205 -14 50 -26 113
-26 140 0 52 -23 67 -34 22z"/>
<path d="M2741 2334 c-6 -14 -38 -64 -71 -110 -79 -110 -105 -165 -119 -247
-11 -66 -8 -112 8 -103 4 3 13 38 20 78 7 40 14 82 16 93 5 22 67 126 103 171
23 29 23 29 6 -6 -9 -19 -36 -67 -60 -106 -40 -64 -57 -113 -35 -100 4 3 34
49 66 102 69 115 116 254 87 254 -5 0 -14 -12 -21 -26z"/>
<path d="M2340 2335 c-7 -8 -16 -15 -20 -15 -7 0 -79 -40 -125 -70 -106 -69
-118 -73 -149 -61 -17 7 -37 13 -43 15 -7 1 -19 9 -25 18 -21 25 -61 48 -83
48 -12 0 -35 16 -52 35 -34 38 -45 42 -62 21 -9 -11 0 -20 44 -47 103 -62 190
-120 210 -139 20 -18 21 -17 100 34 44 29 113 71 154 92 74 38 92 57 74 75 -6
6 -14 4 -23 -6z"/>
<path d="M2320 2250 c-12 -7 -12 -15 -3 -42 7 -18 15 -50 19 -70 7 -40 19 -46
47 -25 16 11 15 17 -6 79 -22 68 -30 76 -57 58z"/>
<path d="M1763 2220 c-8 -35 -120 -251 -172 -333 -24 -37 -52 -72 -62 -77 -23
-13 -62 5 -112 52 -30 29 -35 41 -41 98 -11 95 -17 120 -30 120 -6 0 -19 -12
-28 -27 -9 -16 -75 -87 -147 -160 -131 -132 -131 -132 -110 -185 30 -79 105
-213 165 -299 56 -80 180 -219 195 -219 14 0 92 126 147 237 56 112 122 294
158 434 34 137 67 360 54 373 -7 7 -13 3 -17 -14z"/>
<path d="M1870 2131 c0 -91 -18 -254 -42 -384 -20 -110 -20 -143 2 -121 23 24
70 347 70 489 0 60 -3 75 -15 75 -12 0 -15 -13 -15 -59z"/>
<path d="M1946 2114 c-3 -9 -6 -57 -6 -107 0 -87 -23 -328 -36 -385 -45 -190
-143 -478 -195 -569 -33 -59 -35 -73 -14 -73 19 0 66 93 122 240 32 86 42 104
37 70 -9 -63 -49 -182 -90 -268 -20 -41 -33 -76 -30 -79 15 -16 37 15 76 109
87 211 141 502 161 871 5 104 7 192 4 198 -9 14 -22 11 -29 -7z"/>
<path d="M2113 1953 c9 -232 44 -473 103 -707 26 -101 98 -304 114 -320 20
-20 20 23 0 75 -97 245 -167 611 -186 977 -6 108 -10 132 -22 132 -13 0 -14
-21 -9 -157z"/>
<path d="M2711 2033 c-16 -32 -45 -85 -65 -118 -20 -33 -43 -82 -51 -109 -18
-60 -31 -76 -61 -76 -13 0 -24 -3 -24 -7 1 -46 173 -464 207 -503 8 -9 112
114 174 205 60 88 141 238 163 303 12 34 12 34 -121 164 -73 72 -143 146 -155
164 -13 19 -26 34 -30 34 -4 0 -21 -26 -37 -57z"/>
<path d="M2348 2055 c-20 -14 -42 -25 -47 -25 -17 0 -13 -40 5 -47 9 -3 30 2
48 12 31 19 31 19 -6 -27 -42 -52 -48 -78 -18 -78 15 0 20 -7 20 -25 0 -20 5
-25 23 -25 18 0 23 -5 23 -22 -1 -18 4 -22 22 -21 16 2 22 -2 22 -17 0 -30 24
-24 59 16 34 38 34 49 0 114 -10 19 -28 60 -40 90 -37 91 -49 97 -111 55z"/>
<path d="M2200 1908 c0 -235 165 -928 220 -928 16 0 12 27 -20 118 -68 191
-141 519 -161 717 -7 71 -18 126 -26 135 -11 12 -13 6 -13 -42z"/>
<path d="M954 1795 c-11 -28 82 -235 163 -362 144 -228 297 -373 687 -647 69
-49 152 -113 185 -142 33 -30 62 -54 66 -54 4 0 36 26 70 59 69 64 80 73 235
181 345 241 468 358 614 582 76 117 166 305 169 354 3 62 -21 48 -52 -31 -66
-169 -166 -335 -292 -483 -78 -92 -242 -229 -434 -363 -82 -57 -185 -132 -228
-166 -43 -35 -80 -63 -83 -63 -4 0 -45 31 -93 68 -47 38 -143 108 -213 155
-358 245 -529 428 -676 724 -22 43 -47 101 -57 128 -27 73 -48 94 -61 60z"/>
<path d="M1725 1728 c-64 -207 -132 -376 -181 -447 -28 -41 -30 -51 -9 -51 20
0 76 88 119 187 36 82 96 272 96 304 0 21 -18 26 -25 7z"/>
<path d="M2385 1593 c24 -204 119 -523 155 -523 22 0 18 27 -19 127 -39 107
-94 315 -107 406 -4 32 -11 47 -21 47 -13 0 -14 -10 -8 -57z"/>
<path d="M875 1027 c-17 -13 -20 -28 -21 -112 -1 -98 -1 -98 -63 -218 -62
-120 -62 -120 -39 -154 23 -34 94 -85 136 -98 32 -9 62 3 62 26 0 12 -16 27
-49 44 -52 26 -72 45 -48 45 7 0 71 -29 141 -64 220 -111 473 -193 716 -232
137 -22 412 -29 557 -15 306 30 632 128 890 267 44 24 87 44 95 44 16 -1 -27
-38 -71 -63 -34 -18 -36 -33 -9 -51 36 -22 176 62 194 116 4 15 -11 55 -52
135 -59 114 -59 114 -62 214 -4 111 -15 129 -79 129 -63 0 -249 -88 -276 -131
-11 -18 25 -109 42 -109 15 0 14 26 -1 50 -17 27 -7 32 87 55 75 17 95 15 95
-11 0 -33 -193 -133 -395 -203 -236 -83 -416 -113 -670 -113 -328 0 -639 72
-915 213 -118 60 -170 102 -153 120 10 10 27 9 85 -4 98 -24 105 -28 89 -63
-7 -17 -8 -31 -2 -37 12 -12 40 31 47 75 6 33 3 36 -43 66 -117 75 -246 110
-288 79z"/>
<path d="M1940 201 c0 -8 103 -187 114 -198 2 -2 15 17 28 44 14 26 39 70 56
98 33 54 33 65 -2 65 -16 0 -32 -13 -50 -40 -14 -22 -30 -40 -35 -40 -5 0 -19
15 -30 34 -12 19 -28 37 -37 40 -23 9 -44 7 -44 -3z"/>
</g>
</svg>
