<?xml version="1.0" standalone="no"?>
<!DOCTYPE svg PUBLIC "-//W3C//DTD SVG 20010904//EN"
 "http://www.w3.org/TR/2001/REC-SVG-20010904/DTD/svg10.dtd">
<svg version="1.0" xmlns="http://www.w3.org/2000/svg"
 width="335.000000pt" height="424.000000pt" viewBox="0 0 335.000000 424.000000"
 preserveAspectRatio="xMidYMid meet">
<metadata>
Created by potrace 1.16, written by Peter Selinger 2001-2019
</metadata>
<g transform="translate(0.000000,424.000000) scale(0.100000,-0.100000)"
fill="#000000" stroke="none">
<path d="M0 4115 c0 -79 5 -116 19 -153 28 -72 224 -850 218 -866 -3 -8 -23
-19 -44 -26 -21 -7 -42 -16 -46 -20 -4 -4 1 -30 12 -59 19 -52 19 -52 -6 -62
-15 -5 -31 -8 -37 -6 -6 3 -21 35 -34 72 -22 64 -22 68 -5 81 17 13 17 15 -3
31 -12 10 -27 28 -33 41 -16 30 -28 21 -36 -27 -5 -32 -3 -43 14 -60 11 -11
25 -39 31 -63 24 -100 50 -121 117 -94 27 10 64 20 84 23 31 4 37 2 42 -17 4
-17 -7 -37 -48 -85 -29 -35 -56 -72 -60 -84 -8 -27 -42 -27 -50 -1 -7 21 -35
28 -35 9 0 -7 -8 -18 -17 -25 -17 -12 -17 -14 4 -33 27 -25 32 -26 48 -4 17
23 49 10 41 -17 -3 -11 -9 -28 -12 -38 -3 -11 6 -32 25 -56 17 -21 31 -48 31
-59 0 -19 11 -39 77 -137 23 -35 23 -35 -3 -44 -17 -5 -30 -4 -37 3 -16 16
-34 13 -41 -6 -3 -10 -9 -24 -12 -30 -3 -7 1 -13 9 -13 8 0 20 -7 27 -15 11
-13 17 -10 45 22 31 37 31 37 78 23 26 -7 47 -17 47 -23 0 -6 -18 -48 -40 -92
-50 -101 -87 -244 -102 -396 -16 -164 6 -392 69 -695 44 -215 47 -239 48 -384
0 -106 -4 -162 -13 -177 -6 -12 -8 -24 -3 -27 12 -8 154 49 228 90 70 39 206
144 221 170 5 10 41 48 78 86 58 58 71 67 79 53 6 -9 79 -109 163 -223 84
-114 230 -312 325 -441 204 -277 192 -261 203 -261 5 1 27 26 49 57 22 31 87
120 145 198 58 79 191 260 295 403 105 144 193 261 196 261 3 1 37 -39 76 -88
83 -103 193 -191 309 -246 79 -37 199 -73 210 -62 3 3 0 16 -8 29 -24 42 -15
327 16 498 41 224 64 402 71 552 8 154 8 154 -77 262 -30 38 -38 57 -38 90 0
38 -5 46 -71 107 -41 38 -69 73 -67 80 3 9 29 16 75 20 91 9 113 16 113 40 0
12 16 27 49 44 62 31 173 123 168 138 -2 7 -28 15 -59 18 -94 10 -284 117
-248 139 7 4 42 -1 79 -11 200 -59 180 -57 212 -18 41 48 159 224 159 236 0 6
-9 13 -21 16 -17 5 -19 9 -10 25 50 94 79 252 47 252 -8 0 -18 -4 -21 -10 -3
-5 -12 -10 -20 -10 -10 0 -11 9 -3 43 12 53 3 133 -24 215 -21 63 -48 84 -48
37 0 -61 -71 -187 -125 -224 -32 -22 -53 -26 -163 -33 -109 -7 -134 -12 -182
-35 -31 -16 -61 -40 -70 -55 -13 -25 -13 -34 5 -95 28 -100 26 -161 -7 -205
-26 -35 -107 -88 -133 -88 -15 0 -95 59 -150 110 -22 21 -50 43 -63 49 -23 12
-23 12 -3 45 33 53 36 104 8 156 -15 29 -31 46 -45 48 -25 4 -27 -1 -10 -28 9
-15 10 -25 2 -37 -38 -60 -83 -37 -141 72 -68 127 -85 167 -76 175 4 4 47 14
94 23 150 29 240 73 226 112 -16 39 -143 87 -290 109 -48 8 -90 16 -94 19 -13
14 -44 148 -50 217 -8 110 10 185 57 232 33 34 43 38 87 38 78 0 142 -57 166
-150 12 -47 27 -7 27 73 0 69 -4 91 -29 143 -75 158 -245 206 -427 120 -40
-19 -93 -53 -117 -75 -24 -23 -48 -41 -52 -41 -4 0 -27 18 -52 40 -124 109
-307 149 -421 91 -54 -27 -117 -102 -137 -161 -17 -51 -18 -207 -1 -203 5 1
17 23 27 48 23 60 44 83 98 107 105 48 186 -32 198 -196 5 -78 -15 -194 -44
-255 -17 -34 -21 -36 -80 -43 -127 -14 -309 -79 -320 -115 -8 -22 43 -54 132
-82 49 -16 114 -32 144 -36 52 -7 53 -8 47 -35 -7 -39 -117 -241 -138 -254
-12 -7 -26 -7 -45 0 -25 9 -28 14 -26 53 2 35 -1 42 -15 39 -21 -4 -62 -82
-62 -118 0 -14 9 -43 20 -65 25 -48 25 -62 3 -70 -10 -3 -47 -32 -83 -65 -36
-33 -84 -70 -107 -81 -38 -18 -42 -24 -48 -67 -3 -27 -10 -54 -15 -61 -12 -20
-40 -5 -40 20 0 12 -13 45 -29 73 -34 62 -60 202 -44 239 9 18 7 33 -10 68
-18 41 -19 47 -5 85 18 50 14 64 -20 64 -53 0 -111 -54 -112 -105 -1 -16 -5
-39 -9 -50 -8 -19 -8 -19 -18 0 -10 18 -27 104 -24 122 1 5 22 15 48 24 62 20
71 36 55 96 -7 26 -16 51 -20 55 -4 4 -32 1 -62 -7 -73 -20 -79 -19 -90 9 -18
47 -202 712 -220 796 -14 60 -34 112 -71 178 -28 50 -55 92 -60 92 -5 0 -9
-47 -9 -105z m1484 -49 c39 -19 96 -57 127 -85 56 -50 56 -50 90 -15 166 172
407 190 508 37 55 -83 55 -131 0 -68 -37 42 -96 75 -135 75 -85 0 -174 -147
-174 -287 0 -52 -9 -54 -81 -18 -51 26 -65 43 -117 146 -15 30 -33 54 -40 54
-7 0 -24 -27 -37 -60 -14 -33 -33 -71 -43 -85 -16 -23 -113 -79 -137 -80 -6 0
-16 37 -22 83 -13 98 -39 162 -83 205 -61 61 -123 56 -205 -19 -62 -57 -70
-49 -30 31 47 93 120 132 234 126 60 -4 89 -12 145 -40z m-1400 -50 c8 -28 22
-82 32 -121 17 -71 170 -628 198 -720 12 -38 13 -51 3 -57 -23 -14 -37 -8 -43
20 -3 15 -26 101 -50 192 -23 91 -68 262 -98 380 -31 118 -63 240 -71 270 -8
30 -15 67 -15 83 0 25 2 28 15 17 8 -7 21 -35 29 -64z m1604 -219 c11 -24 34
-60 52 -80 17 -20 27 -37 21 -37 -18 0 -61 47 -76 84 -8 19 -19 36 -25 38 -10
3 -4 38 6 38 2 0 12 -19 22 -43z m-58 -57 c0 -18 -48 -60 -67 -60 -13 0 -11 5
11 19 16 11 33 27 38 35 10 18 18 21 18 6z m-110 -86 c0 -8 -4 -12 -10 -9 -5
3 -10 10 -10 16 0 5 5 9 10 9 6 0 10 -7 10 -16z m-10 -52 c41 -28 63 -52 87
-97 17 -33 28 -64 24 -68 -4 -4 -59 -6 -122 -5 -95 3 -113 5 -110 18 2 8 11
53 21 100 10 47 19 86 19 88 3 9 34 -5 81 -36z m88 -5 c16 -18 33 -43 36 -57
6 -23 6 -24 -6 -5 -7 11 -32 39 -56 62 -28 27 -36 40 -24 36 11 -2 33 -19 50
-36z m316 -39 c10 -46 20 -93 23 -105 5 -23 5 -23 -116 -23 -90 0 -121 3 -121
13 0 35 64 119 118 156 31 21 62 40 68 40 6 1 19 -36 28 -81z m-151 47 c-17
-14 -41 -41 -53 -61 -28 -44 -37 -38 -14 9 9 19 33 44 53 56 48 28 53 26 14
-4z m302 -220 c55 -7 110 -17 122 -22 12 -4 -221 -8 -517 -8 -296 0 -532 4
-524 8 63 35 715 51 919 22z m-247 -91 c12 -4 22 -9 22 -13 0 -3 -32 -19 -71
-36 -38 -16 -74 -34 -78 -40 -5 -5 -5 -37 -1 -70 4 -33 3 -64 -1 -70 -14 -15
-10 -23 11 -27 19 -3 29 -23 13 -23 -5 -1 -18 -6 -31 -13 -18 -11 -29 -11 -57
0 -37 13 -42 31 -9 36 17 2 19 11 18 80 -1 77 -1 77 -78 117 -42 22 -76 43
-76 48 0 4 29 7 64 7 48 0 69 -5 89 -20 28 -22 44 -25 49 -10 3 11 73 39 98
39 8 1 25 -2 38 -5z m-362 -125 c29 -47 63 -58 109 -36 33 16 33 16 40 -19 5
-28 2 -39 -14 -52 -10 -9 -22 -27 -26 -39 -5 -17 0 -25 23 -37 16 -8 34 -21
40 -29 20 -24 -36 -65 -133 -98 -103 -34 -95 -32 -95 -16 0 14 55 70 113 112
42 31 45 40 17 48 -12 3 -20 14 -20 26 0 12 -8 24 -17 28 -32 11 -53 36 -53
62 0 28 -15 59 -25 50 -3 -4 -10 -53 -15 -111 -11 -124 -49 -239 -111 -334
-54 -84 -111 -111 -174 -82 -35 16 -31 28 9 28 45 0 66 9 66 27 0 11 -7 13
-25 9 -31 -8 -95 20 -95 40 0 10 13 14 40 14 22 0 56 6 75 14 57 24 130 100
159 167 35 76 28 101 -8 31 -57 -113 -159 -191 -231 -178 -42 8 -85 42 -85 67
0 23 4 24 36 3 57 -38 158 11 237 114 55 71 69 98 97 192 28 92 34 103 38 66
2 -16 15 -46 28 -67z m517 62 c21 -36 21 -42 2 -35 -29 11 -15 -18 50 -104 36
-48 65 -90 65 -94 0 -34 -100 57 -135 122 -19 37 -25 140 -7 140 4 0 15 -13
25 -29z m-603 -26 c-7 -8 -16 -15 -21 -15 -15 0 -10 22 9 43 15 17 17 17 20 3
2 -9 -2 -23 -8 -31z m550 -10 c0 -18 -5 -35 -12 -37 -6 -2 -16 -22 -23 -43 -7
-27 -22 -47 -45 -63 -50 -34 -55 -54 -18 -88 45 -43 111 -124 106 -130 -3 -2
-41 7 -85 21 -75 23 -163 74 -163 94 0 5 16 16 35 25 40 20 46 49 16 87 -12
16 -17 34 -14 57 6 36 11 38 39 17 10 -8 30 -15 42 -15 28 0 80 51 94 92 13
36 28 26 28 -17z m1336 -30 c13 -88 -19 -200 -74 -259 -52 -56 -243 -169 -258
-153 -4 3 20 35 52 70 33 36 88 113 124 171 116 191 133 216 141 216 4 0 11
-20 15 -45z m-1919 -77 c-40 -61 -81 -102 -97 -96 -7 2 12 34 43 75 30 39 61
82 68 95 14 23 14 23 17 1 2 -13 -11 -45 -31 -75z m223 70 c0 -11 -47 -10 -55
1 -3 5 8 9 25 9 16 -1 30 -5 30 -10z m250 2 c0 -5 -9 -10 -19 -10 -11 0 -23 5
-26 10 -4 6 5 10 19 10 14 0 26 -4 26 -10z m135 -58 c7 -34 38 -75 120 -157
92 -93 164 -117 219 -74 22 17 26 18 26 4 0 -27 -30 -63 -62 -74 -76 -27 -173
35 -243 155 -47 81 -60 63 -16 -23 48 -95 147 -172 223 -173 15 0 30 -5 34
-11 10 -16 -36 -49 -66 -48 -40 2 -43 0 -29 -17 7 -8 26 -15 43 -14 49 3 52 1
27 -20 -27 -24 -81 -26 -120 -6 -45 24 -126 169 -157 281 -19 68 -30 220 -16
211 6 -3 13 -19 17 -34z m-1445 -41 c0 -27 -40 -39 -52 -16 -9 15 -14 13 -44
-16 -29 -28 -42 -34 -82 -34 -26 0 -51 -5 -57 -11 -19 -21 -55 -23 -65 -4 -13
25 -11 26 133 65 147 40 167 42 167 16z m2560 -44 c0 -37 -102 -159 -162 -195
-26 -15 -28 -21 -29 -82 0 -36 -6 -79 -12 -97 -34 -93 -126 -171 -212 -181
-44 -4 -44 -4 -55 38 -12 44 -2 70 26 70 23 0 96 73 115 115 24 52 23 85 -2
165 -26 86 -21 103 44 134 42 21 77 28 163 35 60 4 112 9 117 10 4 0 7 -5 7
-12z m-2482 -94 c0 -78 20 -276 30 -308 5 -16 21 -52 36 -79 31 -59 33 -89 6
-141 -24 -47 -24 -46 -5 -39 20 8 20 -41 0 -76 -8 -14 -14 -40 -15 -57 0 -71
-33 -18 -50 82 -4 28 -11 62 -15 76 -5 19 0 33 19 56 29 35 33 70 11 99 -8 10
-15 25 -15 33 0 18 -37 96 -60 131 -25 36 -14 218 14 249 31 34 43 26 44 -26z
m2716 -21 c-4 -15 -19 -55 -35 -89 -23 -48 -36 -64 -62 -73 -33 -12 -207 -27
-207 -18 0 3 39 27 86 54 47 26 113 73 147 105 34 31 65 55 70 52 4 -2 4 -16
1 -31z m-2908 19 c-7 -11 -46 -21 -46 -12 0 13 13 21 32 21 11 0 17 -4 14 -9z
m9 -77 c33 -21 32 -34 -3 -34 -20 0 -42 -13 -73 -42 -25 -24 -55 -51 -67 -61
-13 -10 -20 -22 -17 -27 8 -13 74 21 119 60 18 17 40 30 47 30 17 0 99 -80 99
-96 0 -9 -15 -11 -53 -7 -46 5 -61 1 -115 -26 -34 -17 -62 -38 -62 -46 0 -21
10 -19 78 15 34 17 70 30 81 30 34 0 101 -31 112 -53 10 -18 9 -19 -22 -14
-68 12 -201 -30 -216 -69 -10 -26 4 -26 44 -1 75 50 208 50 227 1 11 -27 -9
-39 -43 -25 -19 9 -35 10 -48 3 -10 -5 -36 -13 -58 -17 -56 -10 -57 -11 -30
-52 32 -46 32 -63 -1 -63 -26 0 -94 61 -94 85 0 6 -11 26 -25 45 -14 19 -25
46 -25 60 0 15 -9 35 -21 46 -16 14 -19 26 -14 50 3 21 1 34 -6 36 -21 7 8 70
62 131 55 62 80 70 124 41z m1321 -45 c12 -13 21 -42 24 -78 6 -73 25 -64 25
12 0 31 4 57 9 57 13 0 34 -30 52 -72 29 -69 43 -38 19 41 -12 36 24 23 53
-19 27 -41 48 -53 39 -21 -4 11 -10 30 -13 41 -12 37 38 7 73 -44 35 -52 50
-120 35 -163 -9 -26 -10 -26 -17 -8 -25 65 -45 105 -54 105 -14 0 -14 -1 10
-82 16 -53 20 -83 15 -125 -6 -49 -33 -123 -36 -98 -1 6 -4 34 -6 63 -4 60
-21 99 -35 85 -6 -6 -6 -26 0 -54 16 -68 13 -140 -9 -186 -25 -56 -42 -56 -34
0 10 62 10 69 -2 74 -7 2 -16 -19 -22 -55 -6 -33 -24 -87 -41 -120 -17 -34
-27 -63 -23 -66 4 -2 31 13 59 34 54 42 134 156 177 254 25 56 25 56 160 56
136 0 136 0 136 -333 0 -332 0 -332 -67 -357 -54 -20 -87 -25 -161 -25 -81 0
-92 -2 -92 -18 0 -9 5 -26 12 -37 7 -10 10 -22 7 -25 -3 -3 -70 -8 -149 -12
-143 -6 -143 -6 -137 107 4 64 12 119 19 127 14 17 65 12 161 -14 32 -9 60
-13 64 -9 4 3 -1 22 -10 41 -21 44 -21 62 -2 99 8 15 15 32 15 37 0 14 -28 11
-53 -6 -26 -16 -163 -39 -179 -29 -15 10 -2 99 22 148 23 48 26 78 8 75 -26
-3 -37 2 -67 27 -31 26 -31 26 -72 -11 -49 -44 -65 -36 -75 36 -6 48 -19 63
-30 35 -11 -28 17 -128 42 -151 44 -40 72 -147 42 -157 -19 -7 -140 12 -176
28 -20 8 -37 12 -40 9 -3 -2 1 -24 7 -48 11 -36 10 -49 -5 -85 -9 -24 -14 -45
-12 -48 3 -2 29 2 59 10 30 7 77 17 106 21 45 6 53 4 62 -12 13 -26 26 -219
15 -225 -26 -16 -386 43 -524 85 -75 23 -75 23 -75 367 0 345 0 345 126 348
141 3 133 7 169 -78 40 -97 85 -156 163 -214 41 -31 77 -56 80 -56 19 0 3 33
-31 67 -56 55 -84 136 -90 256 -3 67 -8 97 -16 94 -24 -8 -24 -112 0 -227 6
-31 5 -33 -8 -23 -8 7 -30 46 -48 85 -29 63 -34 83 -33 148 0 43 8 94 17 119
9 24 14 46 12 49 -14 13 -34 -12 -50 -64 -15 -48 -20 -55 -28 -39 -29 50 24
190 83 221 39 20 48 11 26 -25 -21 -36 -21 -41 -2 -41 9 0 18 8 22 18 9 26 45
62 61 62 10 0 12 -5 7 -17 -17 -39 -18 -73 -2 -73 9 0 17 13 21 34 4 18 15 41
26 51 18 17 19 16 22 -39 4 -71 21 -77 28 -9 3 30 13 60 24 72 26 29 86 28
112 0z m1524 -107 c0 -27 -112 -162 -133 -162 -21 0 -190 59 -201 70 -7 7 18
10 72 10 50 0 82 4 82 10 0 13 -11 17 -75 25 -71 10 -41 21 90 35 61 7 112 14
114 16 8 8 51 4 51 -4z m-2205 -107 c50 -25 114 -50 143 -55 65 -12 72 -16 72
-41 0 -18 -8 -19 -143 -19 -107 0 -148 4 -162 14 -19 14 -19 15 -2 34 23 25
10 35 -23 17 -21 -11 -29 -11 -53 3 -15 9 -26 20 -25 24 4 10 81 66 93 68 6 0
51 -20 100 -45z m1410 13 c25 -17 45 -35 45 -39 0 -5 -16 -16 -35 -25 -34 -16
-36 -16 -50 2 -17 24 -33 9 -17 -16 16 -26 16 -27 -10 -41 -21 -11 -296 -14
-307 -3 -15 15 22 40 69 48 29 5 94 31 144 57 50 26 96 47 103 48 7 1 33 -13
58 -31z m-1512 -164 c46 -35 62 -73 38 -89 -5 -3 -45 19 -88 48 -62 42 -79 59
-81 81 -7 54 5 61 46 26 20 -17 58 -47 85 -66z m1597 83 c0 -29 -62 -109 -107
-137 -59 -38 -73 -38 -73 -1 0 23 10 35 55 65 30 20 55 41 55 46 0 9 47 39 63
40 4 0 7 -6 7 -13z m410 -95 c52 -27 105 -51 118 -54 12 -4 22 -11 22 -17 0
-13 -68 -64 -110 -81 -30 -12 -33 -11 -72 26 -62 60 -122 138 -108 142 6 2 22
-6 36 -19 31 -29 43 -17 20 21 -9 17 -13 30 -9 30 5 0 51 -22 103 -48z m-293
-142 c79 -160 113 -208 190 -271 28 -23 31 -30 26 -66 -5 -37 -2 -43 40 -87
25 -26 57 -70 71 -99 24 -51 24 -55 15 -177 -10 -141 -13 -156 -68 -400 -52
-231 -65 -331 -58 -462 3 -60 2 -108 -2 -108 -11 0 -64 77 -95 138 -39 77 -89
226 -136 402 -95 355 -145 452 -277 537 -29 18 -53 38 -53 43 0 22 129 -32
191 -81 36 -29 59 -37 59 -21 0 16 -66 72 -119 101 -55 30 -55 30 5 57 50 24
73 28 149 28 99 1 136 -12 235 -80 59 -40 83 -44 49 -8 -40 44 -110 87 -194
121 -82 34 -134 40 -179 23 -37 -14 -33 2 12 48 52 54 102 119 102 131 0 23
-20 8 -85 -64 -64 -72 -101 -102 -112 -92 -2 3 9 54 26 114 38 135 61 257 51
273 -12 19 -30 2 -30 -27 0 -66 -76 -273 -101 -273 -5 0 -9 65 -9 158 1 157 1
157 62 192 34 19 77 54 97 78 19 23 40 41 46 39 5 -2 47 -77 92 -167z m-2141
152 c12 -7 34 -74 34 -104 0 -9 -9 -20 -20 -23 -28 -9 -25 -23 7 -27 22 -2 28
-11 40 -52 12 -40 12 -50 1 -57 -32 -21 -47 -9 -64 49 -10 31 -28 90 -40 131
-13 41 -21 78 -18 82 6 11 45 11 60 1z m326 -45 c25 -23 69 -53 97 -67 51 -23
51 -23 51 -87 0 -68 -14 -83 -31 -33 -6 17 -15 30 -21 30 -5 0 -7 -13 -3 -30
4 -16 3 -30 -2 -30 -19 0 -130 129 -152 177 -20 43 -22 55 -11 68 18 21 21 20
72 -28z m1991 -73 c48 -53 84 -100 81 -105 -3 -5 -34 -9 -69 -9 -62 0 -65 1
-71 28 -3 15 -17 58 -30 95 -13 38 -24 72 -24 78 0 26 35 -1 113 -87z m-2072
0 c87 -192 92 -479 15 -820 -30 -135 -55 -201 -121 -329 -52 -99 -67 -149 -95
-320 -6 -38 -20 -90 -31 -114 -21 -47 -65 -111 -77 -111 -4 0 -7 66 -8 148 -1
144 -2 151 -54 352 -53 205 -53 205 -57 415 -7 303 16 507 71 640 23 54 30 37
14 -32 -20 -89 -16 -531 6 -698 20 -144 71 -430 81 -445 17 -28 25 -5 19 53
-7 69 6 111 65 207 34 55 74 162 90 240 6 31 12 171 14 322 1 185 6 271 14
279 15 15 28 -135 20 -236 -5 -69 3 -108 20 -91 4 4 8 98 7 209 0 154 -4 220
-17 277 -31 134 -31 134 -17 125 7 -4 25 -36 41 -71z m1950 -1 c27 -63 23 -87
-5 -33 -13 25 -27 56 -31 69 -12 41 15 13 36 -36z m-1834 -136 c63 -71 96
-150 43 -102 -22 19 -41 13 -25 -9 76 -100 90 -131 93 -208 4 -74 3 -78 -17
-78 -12 0 -21 2 -21 4 0 2 -7 41 -16 87 -15 80 -28 118 -45 129 -11 8 -58 210
-49 210 5 0 21 -15 37 -33z m13 -204 c1 -5 5 -42 10 -83 9 -83 -3 -178 -27
-207 -13 -16 -14 -13 -9 37 3 30 6 101 6 158 0 61 4 102 10 102 6 0 10 -3 10
-7z m215 -292 c245 -71 441 -95 720 -90 123 3 181 1 174 -6 -6 -6 -90 -11
-197 -13 -190 -4 -341 9 -512 44 -99 20 -283 73 -294 85 -15 14 0 11 109 -20z
m1105 4 c0 -12 -67 -45 -90 -45 -14 0 -37 8 -50 18 -25 17 -25 17 40 23 36 3
73 6 83 7 9 1 17 0 17 -3z m108 -14 c79 -40 191 -185 192 -246 0 -54 -79 -104
-163 -105 -26 0 -81 -10 -122 -22 -41 -12 -77 -19 -81 -15 -17 16 45 58 121
82 40 12 62 45 30 45 -9 0 -60 -20 -114 -45 -96 -44 -141 -55 -141 -35 0 21
42 50 134 94 60 28 96 51 96 61 0 8 -3 15 -6 15 -3 0 -61 -27 -129 -60 -68
-33 -131 -60 -140 -60 -9 0 -25 -5 -36 -10 -34 -18 -21 6 27 50 26 24 87 61
139 86 85 40 117 66 96 79 -5 2 -70 -27 -145 -66 -76 -39 -142 -69 -148 -67
-15 5 73 91 124 120 24 14 61 31 83 38 53 17 83 37 90 61 8 25 45 25 93 0z
m-1219 -252 c195 -67 455 -110 700 -115 96 -2 176 -6 178 -8 9 -9 -154 -16
-257 -11 -124 7 -185 14 -355 46 -168 32 -385 100 -385 121 0 6 8 7 18 3 9 -4
55 -20 101 -36z m46 -68 c105 -34 256 -66 388 -82 127 -15 123 -13 91 -54 -27
-36 -27 -36 -5 -76 13 -22 20 -46 17 -54 -7 -20 -105 -20 -132 0 -33 25 -43
18 -42 -32 1 -27 -1 -56 -3 -66 -3 -11 6 -24 22 -34 25 -15 27 -15 48 6 17 17
32 21 64 19 42 -3 42 -3 42 -98 -1 -107 -21 -162 -75 -202 -40 -29 -38 -38 9
-38 21 0 43 -6 49 -13 11 -13 39 -168 44 -240 6 -74 23 -40 40 76 23 154 31
172 83 172 46 0 54 19 15 38 -42 20 -73 98 -78 194 -5 96 3 113 54 113 23 0
38 -6 46 -20 16 -25 36 -25 66 -2 20 15 22 22 13 44 -6 16 -7 39 -1 57 11 39
1 45 -44 26 -42 -18 -122 -20 -132 -4 -4 7 3 31 16 54 23 43 23 43 -5 76 -28
34 -28 34 147 40 97 4 185 10 196 13 14 5 24 1 29 -9 9 -15 16 -15 84 1 146
32 129 51 129 -149 0 -175 0 -175 -74 -274 -40 -54 -156 -210 -256 -348 -335
-458 -311 -428 -332 -408 -9 10 -88 115 -175 234 -87 119 -224 307 -305 417
-148 200 -148 200 -148 426 0 163 3 226 11 226 7 0 53 -13 104 -29z m-195
-338 c-7 -41 -29 -83 -43 -83 -5 0 -6 6 -4 13 3 6 14 48 23 92 16 71 19 76 25
47 3 -17 3 -49 -1 -69z m1565 -47 c32 -92 87 -185 146 -251 29 -30 49 -58 46
-61 -7 -8 -74 36 -145 95 -44 37 -64 61 -71 88 -12 40 -15 211 -5 200 4 -3 16
-35 29 -71z"/>
<path d="M2628 2000 c-21 -20 -38 -38 -38 -41 0 -2 51 -3 112 -2 123 2 148 15
70 38 -23 7 -54 20 -67 29 -31 21 -33 20 -77 -24z"/>
<path d="M2750 1840 c0 -6 8 -13 18 -16 55 -18 82 -33 129 -71 68 -56 81 -37
17 25 -57 55 -164 95 -164 62z"/>
<path d="M2768 1554 c-4 -3 -4 -50 -1 -105 4 -64 2 -99 -4 -99 -10 0 -14 8
-47 101 -9 25 -23 54 -30 65 -28 37 -29 3 -3 -74 24 -71 47 -181 77 -372 14
-84 27 -117 41 -103 6 6 5 30 -2 64 -8 38 -10 121 -5 280 6 188 5 227 -7 237
-7 7 -16 9 -19 6z"/>
<path d="M2273 1544 c-8 -21 13 -42 28 -27 13 13 5 43 -11 43 -6 0 -13 -7 -17
-16z"/>
<path d="M1073 2954 c-8 -21 13 -42 28 -27 13 13 5 43 -11 43 -6 0 -13 -7 -17
-16z"/>
<path d="M2216 2961 c-9 -14 4 -41 20 -41 8 0 14 10 14 25 0 25 -23 35 -34 16z"/>
</g>
</svg>
