<?xml version="1.0" standalone="no"?>
<!DOCTYPE svg PUBLIC "-//W3C//DTD SVG 20010904//EN"
 "http://www.w3.org/TR/2001/REC-SVG-20010904/DTD/svg10.dtd">
<svg version="1.0" xmlns="http://www.w3.org/2000/svg"
 width="376.000000pt" height="454.000000pt" viewBox="0 0 376.000000 454.000000"
 preserveAspectRatio="xMidYMid meet">
<metadata>
Created by potrace 1.16, written by Peter Selinger 2001-2019
</metadata>
<g transform="translate(0.000000,454.000000) scale(0.100000,-0.100000)"
fill="#000000" stroke="none">
<path d="M1874 4495 c-17 -47 -20 -48 -98 -59 -21 -3 -41 -8 -44 -11 -4 -3 15
-25 40 -49 50 -45 51 -50 24 -133 -10 -31 13 -30 64 2 22 14 44 25 50 25 6 0
28 -11 48 -25 46 -32 66 -33 59 -2 -22 90 -21 93 22 132 57 51 54 65 -13 65
-59 0 -67 6 -87 63 -18 52 -43 49 -65 -8z m56 -50 c10 -31 16 -35 46 -35 41 0
43 -13 7 -44 -24 -21 -26 -26 -16 -49 15 -33 -1 -46 -26 -23 -22 20 -45 20
-61 1 -24 -29 -41 -18 -34 23 5 33 3 39 -20 52 -38 20 -33 40 10 40 31 0 37 4
50 35 8 19 18 35 23 35 5 0 15 -16 21 -35z"/>
<path d="M943 4238 c-6 -7 -14 -34 -18 -60 -6 -38 -11 -47 -31 -52 -34 -9 -32
-48 4 -74 20 -16 23 -22 12 -25 -171 -56 -230 -118 -230 -241 0 -72 25 -122
85 -173 25 -20 45 -45 45 -55 0 -9 5 -20 10 -23 6 -3 10 -14 10 -24 0 -10 7
-24 15 -31 22 -18 18 -40 -7 -40 -65 0 -217 -130 -331 -282 -415 -555 -550
-1279 -327 -1755 60 -128 125 -218 247 -339 139 -139 161 -179 140 -256 -12
-44 21 -36 40 9 26 64 14 142 -44 273 -68 154 -87 244 -81 374 5 98 31 216 48
216 4 0 11 -16 15 -36 9 -49 67 -165 80 -160 5 2 8 10 6 17 -11 42 -12 155 -2
215 13 72 44 154 58 154 5 0 17 -35 27 -77 20 -86 31 -113 48 -113 7 0 8 13 5
38 -7 40 0 82 13 82 5 0 14 -26 20 -58 37 -183 119 -359 182 -393 28 -15 55 5
190 143 67 69 121 117 128 113 7 -5 9 -75 7 -233 -3 -198 -7 -235 -25 -287
-21 -62 -20 -80 4 -71 22 9 116 -13 136 -31 17 -15 17 -18 3 -33 -30 -33 -225
-107 -247 -93 -5 2 -8 30 -8 62 0 71 -15 88 -92 101 -60 9 -184 -2 -221 -21
-56 -29 -57 -33 -50 -158 6 -113 5 -119 -22 -179 -27 -61 -28 -63 -9 -83 10
-12 55 -45 99 -74 218 -145 509 -242 822 -276 113 -12 113 -12 107 -51 -8 -44
7 -68 42 -68 20 0 24 -5 24 -30 0 -17 7 -42 16 -56 17 -25 17 -25 35 3 11 15
19 40 19 55 0 22 5 27 27 30 35 4 54 48 35 79 -16 25 -16 25 118 39 349 38
709 173 900 338 35 30 35 30 9 79 -38 69 -41 94 -28 205 13 115 8 126 -69 152
-56 20 -226 21 -262 3 -22 -11 -25 -20 -28 -77 -2 -36 -7 -69 -11 -73 -11 -11
-150 35 -206 67 -25 15 -45 34 -45 42 0 20 55 42 125 50 46 6 55 10 49 23 -14
33 -33 125 -27 134 3 5 16 -11 30 -35 34 -59 52 -78 78 -78 19 0 38 34 134
234 141 296 192 447 203 601 2 22 7 39 13 38 19 -3 48 -107 49 -175 2 -110 26
-84 66 70 6 23 15 42 19 42 35 0 80 -244 60 -327 -12 -51 -11 -53 6 -53 16 0
57 82 75 151 6 22 15 37 20 34 23 -14 42 -158 37 -278 -5 -132 -16 -173 -93
-347 -31 -70 -38 -97 -38 -151 0 -46 5 -74 17 -93 26 -40 39 -33 32 17 -10 68
13 108 139 236 194 198 279 351 334 605 13 62 17 128 17 276 0 176 -3 209 -29
335 -78 379 -281 779 -516 1015 -119 120 -178 154 -270 154 -123 1 -199 -71
-200 -190 0 -125 152 -213 220 -126 21 26 22 26 35 8 22 -29 38 -125 31 -183
-5 -42 -3 -53 8 -53 34 0 39 136 8 218 -27 70 -68 138 -94 157 -28 19 -74 20
-81 0 -7 -18 6 -27 27 -19 20 8 79 -50 74 -73 -2 -9 -19 -25 -40 -35 -33 -17
-39 -18 -70 -5 -19 8 -45 27 -57 43 -32 40 -26 131 10 170 122 133 341 12 508
-281 46 -80 96 -194 88 -201 -3 -3 -54 55 -115 128 -61 73 -133 155 -161 183
-64 62 -81 52 -44 -24 54 -114 54 -236 0 -356 -51 -110 -181 -196 -300 -198
-45 -1 -70 4 -90 17 -37 25 -30 40 25 47 89 13 168 71 207 152 22 46 28 112
10 122 -15 10 -20 2 -24 -36 -10 -105 -94 -186 -216 -209 -33 -7 -57 -6 -70 0
-17 9 -144 168 -137 171 2 1 22 3 45 3 43 2 83 27 83 53 0 18 -25 17 -40 -2
-13 -15 -70 -21 -70 -7 0 4 14 16 30 25 17 10 30 22 30 27 0 15 -19 21 -37 11
-21 -11 -65 9 -87 41 -22 31 -20 41 14 60 39 22 40 42 2 33 -37 -8 -76 23 -92
70 -20 60 -15 64 114 101 171 49 268 107 226 134 -29 20 -144 50 -277 75 -75
14 -139 27 -141 30 -3 3 2 29 11 59 21 67 22 65 -7 75 -22 9 -24 16 -28 108
-5 90 -4 101 18 139 13 22 24 52 24 65 0 24 26 50 76 77 19 10 27 6 61 -28 43
-42 117 -70 136 -51 7 7 3 17 -16 31 -14 11 -33 43 -43 73 -28 88 -39 102 -86
116 -24 7 -64 24 -90 37 -62 32 -82 30 -169 -10 -41 -19 -104 -47 -140 -64
-53 -24 -75 -41 -107 -83 -22 -30 -61 -81 -87 -114 -95 -123 -102 -135 -115
-195 -12 -54 -18 -65 -52 -87 -21 -14 -38 -26 -38 -27 0 0 7 -23 15 -50 21
-68 19 -74 -17 -80 -161 -26 -325 -59 -358 -72 -96 -39 -12 -101 222 -165 69
-19 88 -28 88 -42 0 -47 -61 -117 -102 -117 -38 0 -37 -25 2 -45 37 -19 37
-25 3 -57 -43 -39 -70 -50 -92 -38 -40 21 -42 5 -5 -39 24 -29 24 -31 6 -31
-11 0 -31 9 -45 20 -14 11 -28 20 -31 20 -15 0 -4 -29 20 -51 20 -19 35 -24
70 -22 26 1 44 -3 44 -10 0 -42 -147 -208 -218 -246 -33 -18 -40 -5 -13 23 13
14 22 29 20 34 -2 5 -34 35 -71 67 -68 57 -68 57 -68 110 0 34 -5 55 -13 58
-9 3 -13 32 -15 90 -2 86 -2 86 36 96 69 19 112 81 112 161 0 68 -31 124 -87
157 -45 26 -53 40 -28 50 9 3 15 14 13 23 -2 10 8 30 21 44 19 20 22 29 13 38
-9 9 -2 20 29 46 114 98 110 266 -9 347 -38 26 -161 69 -170 60 -3 -3 1 -16 8
-30 12 -22 11 -28 -9 -49 -23 -25 -23 -25 -2 -38 26 -16 27 -36 4 -54 -12 -9
-15 -16 -8 -23 7 -7 19 -3 39 12 27 22 28 25 16 58 -8 23 -9 42 -2 59 9 24 9
24 46 -15 44 -46 66 -92 66 -135 0 -36 -13 -39 -28 -5 -10 21 -17 24 -52 22
-45 -3 -74 -32 -68 -70 4 -31 40 -30 48 3 6 26 44 36 46 13 1 -7 2 -17 3 -23
2 -17 47 -11 64 8 32 35 16 121 -31 175 -19 21 -4 22 26 1 36 -25 62 -87 62
-147 0 -62 -18 -94 -94 -170 -40 -40 -52 -47 -86 -47 -22 0 -40 5 -40 10 0 6
11 10 25 10 14 0 25 5 25 10 0 6 -6 10 -12 10 -7 0 -19 4 -27 9 -12 8 -12 12
-2 25 28 33 -26 51 -61 19 -17 -15 -17 -18 -2 -34 14 -16 14 -18 -5 -24 -12
-3 -21 -13 -21 -21 0 -8 -6 -14 -14 -14 -8 0 -21 -3 -30 -6 -10 -4 -16 -1 -16
9 0 9 -21 31 -46 49 -61 44 -94 101 -94 163 0 57 30 126 67 155 42 33 44 23 7
-31 -55 -83 -42 -179 26 -179 23 0 29 5 32 25 4 34 19 34 39 -1 8 -16 22 -29
30 -29 18 0 25 61 8 81 -10 12 -9 16 9 21 27 7 28 29 2 43 -11 6 -20 18 -20
26 0 9 9 18 20 21 11 3 20 9 20 14 0 5 -9 14 -20 21 -24 15 -25 26 -5 48 9 10
16 43 19 84 2 37 6 69 9 72 10 11 27 -36 25 -68 -3 -27 1 -34 19 -36 23 -3 55
32 47 53 -3 7 -16 17 -29 23 -18 8 -26 22 -31 52 -8 52 -26 77 -41 58z m1242
-63 c-33 -19 -90 -46 -128 -61 -66 -25 -68 -27 -132 -123 -35 -53 -80 -110
-99 -127 -21 -19 -39 -48 -47 -75 -12 -40 -13 -41 -17 -17 -4 35 8 57 83 150
33 41 75 96 92 121 28 40 46 53 120 87 49 21 104 48 123 59 19 11 42 20 50 20
8 1 -12 -15 -45 -34z m-1297 -267 c0 -29 1 -62 3 -73 3 -17 -1 -20 -31 -20
-27 0 -37 -5 -45 -23 -12 -28 -29 -23 -33 10 -4 33 17 84 52 126 41 48 56 42
54 -20z m1042 -237 c0 -5 -14 -21 -31 -36 -32 -26 -32 -26 -5 -54 45 -47 37
-51 -92 -51 -117 0 -117 0 -130 52 -6 29 -9 55 -4 60 21 21 262 48 262 29z
m187 -5 c69 -13 123 -30 123 -39 0 -1 -6 -22 -14 -47 -13 -45 -13 -45 -140
-48 -135 -3 -145 1 -101 42 14 13 25 27 25 32 0 4 -14 23 -32 41 -32 33 -32
33 13 33 24 0 81 -7 126 -14z m-1082 -146 c19 -8 18 -9 -5 -11 -66 -5 -120 -4
-120 3 0 4 21 9 48 11 26 2 49 4 52 4 3 1 14 -2 25 -7z m1222 -41 c199 -26
110 -37 -302 -37 -426 1 -530 12 -335 37 96 12 546 13 637 0z m-1299 -37 c6
-18 -15 -14 -22 4 -4 10 -1 14 6 12 6 -2 14 -10 16 -16z m54 -14 c-7 -7 -12
-8 -12 -2 0 14 12 26 19 19 2 -3 -1 -11 -7 -17z m-98 -47 c3 -9 8 -32 11 -53
6 -31 4 -37 -14 -43 -79 -25 -167 -258 -132 -348 18 -47 35 -28 32 36 -4 101
44 221 64 158 3 -10 18 -24 34 -31 32 -13 41 -43 41 -142 0 -45 -3 -58 -15
-58 -8 0 -15 9 -15 20 0 12 -7 20 -16 20 -14 0 -15 -7 -10 -41 4 -23 16 -63
27 -90 21 -48 19 -69 -5 -69 -7 0 -25 -12 -40 -27 -27 -26 -27 -26 -71 17 -58
57 -87 126 -93 221 -5 82 13 166 49 227 36 62 19 69 -43 20 -35 -28 -172 -186
-260 -298 -72 -91 4 93 95 234 30 46 85 115 122 154 104 111 221 156 239 93z
m197 -8 c69 -66 71 -153 3 -212 -50 -44 -61 -41 -69 23 -8 58 -3 76 21 76 9 0
14 7 12 18 -2 9 -11 16 -21 16 -14 -2 -17 8 -17 57 0 72 13 76 71 22z m797 15
c9 -9 24 -8 66 2 63 15 132 9 155 -14 14 -15 13 -16 -6 -16 -12 0 -44 -9 -71
-19 -28 -11 -60 -17 -72 -14 -21 6 -22 4 -16 -23 4 -16 7 -47 6 -69 -1 -32 4
-42 22 -50 27 -12 26 -31 -1 -27 -10 2 -21 -4 -24 -13 -8 -19 -41 -19 -57 0
-8 9 -21 13 -32 9 -17 -5 -19 -2 -13 15 8 26 -16 29 -36 5 -23 -28 -67 -46
-88 -34 -25 13 -32 36 -33 108 -1 68 7 89 27 72 10 -8 10 -17 2 -40 -10 -25
-8 -31 14 -49 26 -22 89 -29 89 -10 0 6 -8 9 -18 7 -11 -3 -30 1 -43 9 -22 13
-19 13 31 7 57 -7 82 -19 78 -38 -2 -6 2 -14 7 -16 11 -6 27 111 17 121 -11
10 -134 49 -154 49 -25 0 -23 15 5 28 30 14 130 15 145 0z m-910 -20 c8 -10
20 -211 27 -443 0 -5 -10 -11 -22 -13 -21 -3 -23 1 -23 42 0 24 -4 78 -9 118
-6 40 -12 126 -15 191 -5 109 -4 117 13 117 10 0 23 -6 29 -12z m686 -55 c-4
-21 -11 -49 -15 -63 -7 -25 -7 -25 -8 4 -1 23 -5 27 -21 23 -14 -4 -20 0 -20
12 0 26 29 61 51 61 18 0 19 -4 13 -37z m582 2 c19 -46 18 -54 -7 -48 -25 7
-53 48 -45 68 10 26 37 16 52 -20z m-79 -57 c-8 -90 -27 -122 -70 -114 -40 8
-129 65 -124 80 5 16 73 14 70 -1 -3 -14 35 -18 52 -5 21 15 45 61 39 77 -7
18 14 47 28 38 7 -3 8 -33 5 -75z m-1252 -116 c-6 -6 -75 30 -75 38 0 10 32
55 49 68 14 11 17 7 23 -44 4 -32 6 -60 3 -62z m1345 24 c36 -39 40 -47 23
-42 -33 10 -29 -9 7 -34 16 -12 44 -42 62 -68 32 -47 32 -47 -14 -9 -31 26
-48 34 -51 25 -3 -9 -12 -6 -31 11 -36 34 -32 14 7 -36 49 -62 87 -152 94
-227 7 -83 -7 -86 -35 -8 -25 67 -57 122 -72 122 -16 0 -12 -13 22 -86 27 -57
33 -80 32 -137 0 -92 -17 -105 -32 -25 -13 70 -59 168 -79 168 -18 0 -16 -20
6 -57 45 -73 62 -179 40 -256 -14 -53 -25 -39 -31 40 -6 74 -51 183 -76 183
-10 0 -12 -6 -6 -17 66 -151 68 -232 8 -350 -56 -111 -84 -126 -59 -33 32 120
31 230 -2 230 -12 0 -15 -8 -11 -37 8 -60 -7 -145 -39 -214 -17 -35 -33 -77
-37 -92 -6 -26 -7 -27 -24 -10 -12 11 -17 33 -17 67 0 28 -4 52 -10 54 -19 7
-29 -66 -18 -141 5 -39 9 -74 7 -76 -6 -7 -36 22 -65 62 -19 27 -32 61 -40
113 -8 43 -17 73 -23 71 -13 -4 -13 -55 -1 -112 8 -40 8 -40 -15 -20 -13 11
-42 58 -64 105 -40 83 -41 87 -43 200 -1 66 -6 116 -11 118 -16 5 -25 -35 -31
-148 -7 -105 -7 -105 -26 -65 -26 55 -28 230 -2 293 21 52 21 52 2 52 -20 0
-34 -37 -48 -122 -6 -38 -14 -68 -18 -68 -4 0 -10 24 -13 54 -8 63 5 121 42
188 15 26 23 50 19 54 -13 13 -40 -21 -74 -91 -33 -70 -33 -70 -30 -10 2 45
12 78 40 133 40 79 41 82 29 82 -4 0 -27 -29 -50 -65 -24 -36 -45 -65 -48 -65
-7 0 26 73 43 95 9 11 37 39 62 62 25 23 42 45 38 49 -9 9 -16 5 -78 -45 -34
-29 -40 -31 -30 -12 7 12 31 40 53 62 31 30 38 42 29 52 -13 16 -5 27 19 27
10 0 24 10 33 23 15 21 15 22 22 2 3 -11 11 -28 16 -37 20 -39 8 -78 -43 -136
-24 -28 -27 -36 -16 -49 9 -11 23 -14 55 -9 24 3 43 2 43 -2 0 -5 -13 -21 -30
-37 -31 -30 -39 -55 -17 -55 12 0 57 62 57 79 0 5 16 19 35 31 36 22 85 24
157 5 18 -5 40 -2 62 9 45 21 74 20 113 -4 18 -11 61 -22 98 -26 61 -6 65 -5
65 13 0 11 -7 26 -16 34 -22 18 -44 64 -44 93 0 34 22 127 30 124 3 -2 26 -25
50 -52z m-184 -54 c49 -25 133 -116 120 -129 -9 -9 -96 27 -158 64 -42 26 -61
32 -73 25 -9 -5 -39 -7 -65 -4 -31 3 -58 -1 -77 -10 -109 -57 -135 -69 -165
-74 -33 -7 -33 -7 -7 22 15 16 34 41 43 55 11 17 38 34 79 49 61 23 61 23 104
0 23 -12 48 -19 55 -16 7 4 29 16 48 26 19 10 37 19 40 19 3 0 28 -12 56 -27z
m-96 -87 c0 -12 -13 -15 -60 -15 -55 0 -70 6 -53 23 3 4 30 7 60 7 40 0 53 -4
53 -15z m341 -28 c12 -22 12 -22 -10 -3 -11 11 -21 23 -21 28 0 14 19 -1 31
-25z m-1690 -203 c23 -66 23 -66 -5 -88 -56 -42 -150 -96 -168 -96 -10 0 -18
6 -18 13 0 50 86 254 132 312 23 30 23 30 29 -23 4 -29 17 -82 30 -118z m1749
96 c-1 -8 -9 1 -20 20 -25 46 -25 63 0 25 11 -16 20 -37 20 -45z m876 -65 c45
-94 78 -205 66 -217 -16 -16 -202 97 -202 123 0 5 9 42 20 82 11 39 22 90 26
112 6 40 6 40 26 15 12 -14 40 -65 64 -115z m-2251 -9 c0 -71 -18 -85 -40 -32
-27 63 -17 98 25 93 11 -2 15 -16 15 -61z m120 -111 c30 -26 35 -34 22 -35
-25 0 -77 38 -77 56 0 21 11 17 55 -21z m-57 -20 c66 -44 60 -63 -15 -45 -87
22 -133 24 -133 6 0 -19 30 -36 64 -36 28 0 41 -14 32 -36 -4 -11 -11 -12 -23
-6 -23 12 -105 1 -111 -15 -2 -9 12 -13 50 -14 74 -1 102 -11 106 -36 3 -20 0
-21 -77 -19 -45 2 -84 6 -88 10 -4 3 -8 28 -10 54 -2 34 2 50 14 59 15 12 15
14 -2 32 -23 26 -14 45 32 71 50 27 92 20 161 -25z m-249 -153 c0 -4 -14 -18
-30 -31 -30 -23 -32 -23 -65 -7 -43 20 -53 20 -76 -1 -31 -28 -40 -5 -28 72 6
37 17 83 25 102 14 34 14 34 95 -47 44 -45 80 -85 79 -88z m2306 111 c22 -74
31 -163 18 -163 -6 0 -16 7 -23 15 -16 20 -45 19 -76 -1 -20 -14 -30 -15 -50
-5 -32 14 -77 14 -91 0 -13 -13 -3 -39 41 -104 24 -36 53 -131 42 -142 -3 -3
-14 15 -25 40 -24 55 -78 117 -148 169 -29 21 -53 45 -53 52 0 9 19 15 60 19
82 7 144 40 215 113 33 34 63 62 67 63 4 0 14 -25 23 -56z m-575 -17 c0 -32
-65 -114 -97 -122 -41 -11 -92 -10 -93 1 0 6 12 11 27 13 57 6 84 24 115 79
32 57 48 67 48 29z m-1218 -46 c27 -35 43 -47 78 -56 54 -13 51 -30 -4 -27
-45 2 -90 39 -112 90 -26 61 -11 58 38 -7z m-206 -5 c15 -22 15 -37 3 -157
-12 -112 -17 -133 -31 -136 -13 -2 -18 3 -18 17 0 12 -5 21 -11 21 -7 0 -9
-12 -6 -32 3 -18 9 -79 13 -135 7 -103 7 -103 -18 -103 -24 0 -25 3 -32 77
-12 152 -9 179 23 202 36 26 44 78 25 169 -8 37 -14 68 -14 69 0 6 33 33 40
33 5 0 17 -11 26 -25z m1543 -59 c14 -14 20 -26 14 -26 -10 0 -103 67 -103 75
0 2 -3 12 -7 22 -8 20 53 -25 96 -71z m-1436 15 c-22 -18 -33 -36 -33 -54 0
-19 -4 -25 -15 -21 -8 4 -15 13 -15 22 0 18 67 82 84 82 6 -1 -4 -13 -21 -29z
m-867 -59 c-23 -46 -174 -207 -184 -197 -3 3 7 22 21 44 31 47 179 213 184
207 3 -2 -7 -26 -21 -54z m3146 -87 c37 -44 78 -106 78 -119 0 -6 -34 23 -76
64 -72 71 -134 158 -134 189 0 13 62 -50 132 -134z m-747 -31 c31 -64 54 -118
52 -121 -3 -2 -39 25 -80 61 -76 66 -76 66 -145 6 -67 -57 -92 -71 -92 -51 0
19 185 221 202 221 4 0 33 -52 63 -116z m-1946 56 c-29 -148 -20 -437 21 -632
26 -127 89 -298 109 -298 4 0 11 51 14 113 7 131 44 382 60 412 20 37 20 -7
-2 -158 -11 -78 -23 -198 -26 -267 -3 -69 -8 -140 -11 -159 -5 -33 -5 -33 -30
-10 -115 108 -205 550 -175 859 10 106 33 202 45 189 2 -2 0 -24 -5 -49z m209
29 c12 -5 22 -13 22 -19 0 -11 -16 -13 -75 -11 -49 2 -78 -14 -55 -29 8 -6 24
-10 35 -9 42 3 65 -1 65 -11 0 -5 -9 -10 -20 -10 -11 0 -23 -7 -26 -15 -4 -8
-13 -15 -21 -15 -18 0 -66 48 -58 59 3 5 0 21 -7 36 -10 22 -9 28 3 36 15 10
98 3 137 -12z m577 -85 c39 -77 60 -98 75 -73 10 16 9 17 43 -43 33 -58 103
-120 174 -155 65 -31 85 -25 94 30 11 66 39 116 67 119 17 2 41 21 71 58 24
30 50 56 57 58 6 2 24 21 38 43 26 39 26 39 116 39 65 0 90 -3 91 -12 0 -7 1
-104 2 -215 2 -201 2 -201 -36 -237 -36 -34 -40 -35 -69 -23 -38 15 -44 29
-23 50 19 19 19 25 0 43 -17 18 -11 59 12 86 23 26 8 36 -42 30 -28 -3 -50 0
-60 8 -13 10 -23 6 -61 -23 -26 -20 -51 -34 -55 -31 -5 3 -9 18 -9 34 0 50
-25 24 -38 -38 -16 -78 -15 -123 3 -150 15 -20 21 -21 90 -15 63 5 87 2 162
-21 117 -35 153 -54 180 -95 33 -49 30 -89 -13 -146 -45 -58 -177 -147 -213
-143 -29 4 -41 28 -14 28 10 0 29 7 42 16 34 24 12 38 -32 19 -20 -8 -46 -15
-58 -15 -33 0 -17 24 27 38 45 15 59 26 50 40 -4 7 -28 3 -67 -10 -55 -18 -62
-19 -76 -5 -22 21 -9 35 43 48 42 11 65 31 51 45 -3 4 -28 -2 -56 -11 -86 -28
-130 6 -63 49 20 13 60 44 87 69 38 34 47 48 39 57 -9 9 -18 8 -38 -5 -48 -32
-146 -2 -166 51 -11 28 -30 24 -30 -7 0 -29 41 -66 89 -80 23 -7 40 -17 38
-23 -2 -6 -22 -21 -45 -34 -50 -28 -55 -57 -18 -105 14 -18 28 -44 31 -60 4
-15 26 -43 48 -61 42 -35 42 -35 19 -58 -27 -30 -28 -42 -2 -35 37 9 31 -12
-14 -55 -70 -67 -73 -123 -11 -185 43 -43 107 -47 154 -8 64 55 62 127 -6 197
-36 37 -36 37 -12 57 13 11 29 20 35 21 7 0 35 16 64 35 29 19 54 35 56 35 2
0 4 -94 4 -210 0 -209 0 -209 -268 -482 -269 -272 -269 -272 -298 -248 -16 14
-136 135 -266 269 -185 190 -239 250 -244 276 -8 45 1 1219 10 1233 5 8 42 12
105 12 98 0 98 0 136 -76z m-1146 -29 c-2 -75 5 -105 17 -69 17 54 23 60 23
24 1 -62 -56 -351 -73 -367 -2 -3 -8 21 -11 51 -7 50 6 208 22 274 9 39 -21
25 -84 -41 -104 -108 -139 -206 -152 -422 -7 -120 -7 -120 -26 -60 -15 46 -20
88 -20 180 0 112 2 124 29 179 20 40 64 96 137 172 59 61 112 121 118 133 7
12 14 21 17 21 3 0 4 -34 3 -75z m2994 -84 c54 -58 109 -128 122 -156 46 -96
54 -228 19 -357 -22 -85 -31 -75 -31 34 -2 204 -56 355 -163 447 -34 29 -63
51 -66 48 -3 -2 0 -42 6 -88 12 -98 13 -246 2 -253 -19 -12 -90 358 -72 377 4
5 11 -5 15 -22 12 -57 25 -32 26 52 0 82 0 82 22 53 12 -17 66 -77 120 -135z
m-314 85 c25 -38 44 -76 38 -76 -6 0 -97 128 -97 135 0 13 31 -18 59 -59z
m-2476 31 c-34 -54 -67 -97 -71 -93 -6 6 22 52 51 84 23 24 32 29 20 9z m511
-4 c23 -83 10 -224 -25 -266 -16 -19 -20 -20 -29 -7 -18 27 -12 132 10 165 13
19 20 47 20 78 0 46 14 64 24 30z m63 -24 c24 -67 12 -252 -19 -317 -18 -34
-44 -50 -59 -35 -9 9 -8 18 4 36 46 70 69 227 48 320 -12 49 9 46 26 -4z m48
-162 c0 -89 -4 -142 -14 -164 -13 -32 -39 -48 -27 -18 16 43 28 157 24 241 -3
65 -1 91 7 83 6 -6 10 -63 10 -142z m1480 57 c53 -50 93 -94 88 -97 -5 -3 -44
10 -86 29 -97 43 -156 45 -209 9 -43 -29 -58 -31 -58 -9 0 16 149 165 161 161
3 -1 50 -43 104 -93z m-1777 43 c2 -10 -3 -17 -12 -17 -10 0 -16 9 -16 21 0
24 23 21 28 -4z m1787 -160 c28 -16 47 -36 64 -70 25 -51 21 -77 -6 -36 -36
52 -93 95 -158 118 -41 15 -62 27 -54 31 15 10 100 -14 154 -43z m-95 -47 c77
-21 131 -118 129 -228 -1 -57 -1 -57 -14 -12 -8 25 -19 64 -25 88 -14 56 -71
119 -121 134 -71 21 -41 38 31 18z m-9 -55 c47 -36 79 -91 78 -140 0 -40 0
-40 -28 20 -29 62 -65 101 -116 128 -30 16 -30 16 1 17 17 0 45 -11 65 -25z
m-73 -24 c72 -37 103 -96 101 -193 -2 -120 -32 -160 -42 -57 -12 106 -70 209
-135 236 -27 11 -32 17 -21 24 22 14 57 11 97 -10z m-478 -11 c0 -5 -7 -10
-15 -10 -8 0 -15 5 -15 10 0 6 7 10 15 10 8 0 15 -4 15 -10z m413 -50 c19 -16
45 -54 58 -82 23 -50 24 -63 22 -228 -1 -96 -5 -245 -10 -330 -8 -146 -10
-153 -21 -113 -9 30 -12 118 -10 305 3 263 3 263 -30 331 -28 57 -57 89 -111
123 -1 2 0 7 4 13 13 21 64 11 98 -19z m1 -273 c-7 -18 -24 -23 -24 -8 0 22
13 42 22 33 5 -5 6 -16 2 -25z m-1455 -663 c32 -7 42 -28 17 -37 -27 -11 -101
17 -91 34 7 11 30 11 74 3z m1678 -11 c6 -17 -65 -35 -88 -22 -11 5 -19 14
-19 19 0 20 101 23 107 3z m-1717 -78 c20 -24 0 -38 -34 -25 -36 13 -99 13
-113 -1 -14 -14 -27 5 -19 26 8 22 149 21 166 0z m498 -39 c50 -53 62 -80 77
-174 7 -43 7 -43 69 -37 62 7 62 7 99 -38 21 -25 34 -48 30 -50 -15 -8 -199
14 -318 38 -188 38 -415 121 -490 179 -19 14 -14 15 60 16 44 0 118 9 164 20
79 19 205 72 217 92 13 20 45 4 92 -46z m819 24 c79 -50 193 -82 308 -86 55
-2 102 -7 104 -11 7 -12 -164 -95 -269 -130 -105 -35 -309 -79 -410 -88 -36
-3 -80 -8 -97 -11 -46 -7 -43 15 7 60 39 35 42 36 94 30 54 -7 54 -7 60 27 23
117 29 130 78 184 28 30 56 55 64 55 7 0 35 -14 61 -30z m527 24 c18 -7 21
-30 6 -39 -5 -3 -20 1 -32 9 -20 12 -30 12 -77 0 -59 -16 -84 -7 -61 21 9 11
31 15 80 15 38 0 75 -3 84 -6z m-1973 -119 c198 -135 476 -228 784 -261 83 -9
159 -22 170 -29 17 -10 24 -10 38 0 9 7 72 18 138 24 349 35 646 136 848 288
24 18 47 33 50 33 4 0 5 -30 3 -67 -3 -53 1 -79 17 -117 26 -59 24 -61 -72
-124 -258 -167 -573 -258 -932 -269 -408 -12 -795 84 -1068 267 -104 69 -103
67 -76 140 17 46 20 73 16 115 -3 30 -4 55 -1 55 3 0 41 -25 85 -55z m954
-605 c0 -28 -29 -50 -46 -33 -8 8 -6 18 6 37 21 31 40 29 40 -4z m81 4 c19
-28 9 -48 -22 -42 -20 3 -29 29 -20 54 8 21 24 17 42 -12z"/>
<path d="M1493 2146 c-4 -5 1 -14 10 -21 26 -19 33 -72 12 -95 -16 -18 -16
-20 -1 -35 21 -21 20 -28 -4 -50 -31 -28 -14 -38 50 -31 43 5 59 3 63 -6 3 -9
22 2 56 31 39 32 55 41 64 32 8 -8 8 -14 -1 -23 -16 -16 -15 -38 1 -38 17 0
47 52 47 83 0 14 -5 38 -11 54 -7 15 -15 46 -18 67 -7 45 -31 62 -31 22 0 -38
-18 -41 -51 -10 -28 27 -36 29 -106 29 -41 0 -77 -4 -80 -9z"/>
<path d="M1900 2006 c0 -7 -9 -20 -20 -27 -18 -14 -18 -15 10 -48 29 -34 29
-34 39 -8 6 15 17 27 26 27 8 0 15 7 15 15 0 8 -9 15 -20 15 -13 0 -20 7 -20
20 0 11 -7 20 -15 20 -8 0 -15 -6 -15 -14z"/>
<path d="M1897 1833 c-4 -3 -7 -14 -7 -24 0 -9 -7 -19 -15 -23 -8 -3 -20 -17
-27 -31 -10 -22 -8 -29 11 -49 13 -14 20 -29 16 -35 -8 -14 -41 -14 -66 0 -31
16 -69 -13 -69 -51 0 -23 6 -33 24 -42 32 -14 56 -4 56 22 0 15 5 20 16 18 25
-5 31 -23 43 -134 9 -78 9 -108 0 -128 -10 -22 -9 -29 5 -45 17 -19 16 -22
-35 -83 -29 -35 -60 -63 -68 -64 -9 0 -26 -5 -38 -12 -12 -7 -28 -12 -37 -12
-8 0 -18 -4 -21 -10 -8 -13 63 -42 86 -35 12 4 30 -10 63 -48 48 -56 56 -77
31 -77 -20 0 -19 -9 2 -32 10 -11 20 -40 23 -66 7 -62 33 -65 41 -5 3 23 13
51 22 61 21 23 21 32 0 48 -17 12 -17 14 3 36 12 13 35 44 52 70 29 47 42 52
42 16 0 -22 8 -22 34 -3 11 8 28 15 38 15 23 0 23 19 1 26 -10 3 -29 11 -41
17 -13 6 -32 12 -42 12 -26 0 -114 121 -104 143 4 9 6 51 5 92 -1 41 2 88 8
103 8 20 8 33 -1 47 -9 14 -9 25 0 44 15 33 49 35 54 4 5 -34 52 -37 73 -4 13
19 14 29 5 45 -15 29 -49 46 -63 32 -6 -6 -26 -11 -44 -11 -40 0 -44 22 -12
56 21 22 21 25 5 49 -9 14 -21 25 -27 25 -6 0 -9 6 -6 14 9 22 -21 45 -36 29z
m-4 -95 c3 -10 8 -10 21 1 24 20 33 5 11 -19 -17 -19 -19 -19 -37 -4 -10 10
-18 21 -18 26 0 13 18 9 23 -4z"/>
<path d="M1589 1663 c-1 -4 -2 -22 -4 -38 -3 -33 -38 -109 -55 -120 -16 -10
-1 -25 26 -25 31 0 31 -13 -2 -31 -50 -26 -74 -66 -74 -121 0 -45 4 -54 36
-84 85 -81 215 -14 201 104 -4 35 -14 53 -48 88 -39 39 -40 51 -6 45 13 -2 8
15 -20 65 -15 27 -27 64 -28 83 0 19 -6 36 -12 38 -7 3 -13 1 -14 -4z"/>
<path d="M252 2108 c-21 -27 -50 -95 -56 -133 -5 -35 -3 -33 18 21 13 34 31
75 40 93 17 32 16 41 -2 19z"/>
<path d="M3530 2128 c0 -5 36 -88 69 -158 11 -23 11 -23 6 10 -7 44 -75 178
-75 148z"/>
<path d="M1377 763 c-3 -2 -40 -5 -82 -6 -50 -1 -80 -6 -82 -14 -5 -15 74 -27
115 -18 19 4 38 1 51 -7 16 -10 23 -10 33 0 6 6 22 12 35 12 20 0 23 -5 21
-32 -2 -24 1 -33 12 -33 20 0 27 83 8 89 -21 7 -107 14 -111 9z"/>
<path d="M2317 754 c-8 -9 -9 -78 -1 -87 3 -3 12 -3 20 0 11 4 13 14 9 34 -7
32 9 38 46 18 14 -7 24 -7 33 0 8 7 32 8 59 5 56 -8 120 3 114 19 -4 13 -267
23 -280 11z"/>
</g>
</svg>
