<?xml version="1.0" standalone="no"?>
<!DOCTYPE svg PUBLIC "-//W3C//DTD SVG 20010904//EN"
 "http://www.w3.org/TR/2001/REC-SVG-20010904/DTD/svg10.dtd">
<svg version="1.0" xmlns="http://www.w3.org/2000/svg"
 width="350.000000pt" height="396.000000pt" viewBox="0 0 350.000000 396.000000"
 preserveAspectRatio="xMidYMid meet">
<metadata>
Created by potrace 1.16, written by Peter Selinger 2001-2019
</metadata>
<g transform="translate(0.000000,396.000000) scale(0.100000,-0.100000)"
fill="#000000" stroke="none">
<path d="M1863 3651 c-179 -65 -305 -200 -375 -401 -40 -116 -37 -121 69 -95
140 35 327 23 425 -26 45 -23 48 -23 48 -4 0 20 -91 63 -150 70 -73 10 -73 11
-45 54 15 21 35 41 46 44 32 8 22 27 -27 48 -29 13 -53 33 -66 55 -15 25 -27
34 -46 34 -19 0 -23 3 -15 11 6 6 9 17 7 24 -3 8 8 18 30 25 37 12 50 40 19
40 -16 1 -16 2 2 16 15 12 34 14 78 9 39 -5 57 -3 57 4 0 6 -7 11 -15 11 -8 0
-15 6 -15 14 0 22 40 46 75 46 66 0 238 -68 250 -98 3 -7 0 -23 -6 -34 -6 -11
-20 -47 -31 -81 -20 -61 -20 -61 2 -79 27 -22 78 -23 108 -2 34 24 26 34 -25
31 -42 -2 -48 1 -51 20 -2 12 10 48 27 81 30 60 30 60 10 86 -41 52 -203 116
-291 116 -23 -1 -66 -9 -95 -19z m-168 -251 c-9 -17 -27 -35 -41 -40 -42 -16
-51 -11 -17 10 17 10 37 28 43 39 6 12 15 21 21 21 5 0 2 -14 -6 -30z m68 -26
c11 -22 28 -39 47 -46 17 -5 30 -12 30 -15 0 -3 -11 -18 -25 -35 -14 -16 -25
-38 -25 -49 0 -23 -22 -25 -40 -4 -9 11 -17 12 -32 4 -21 -11 -37 1 -38 27 0
6 -9 19 -20 29 -27 24 -25 30 11 46 20 8 37 25 45 46 8 18 18 33 22 33 5 0 16
-16 25 -36z m-119 -123 c23 -40 15 -49 -49 -56 -45 -4 -47 -3 -22 7 31 14 36
28 8 28 -27 0 -37 21 -18 35 10 7 17 20 17 30 0 16 2 16 23 3 12 -9 30 -30 41
-47z"/>
<path d="M385 3620 c-3 -5 -9 -40 -12 -78 -5 -66 -4 -70 46 -170 28 -56 55
-102 61 -102 24 0 23 8 -46 236 -13 45 -24 91 -24 103 0 22 -14 28 -25 11z"/>
<path d="M510 3471 c-19 -36 -10 -75 30 -141 47 -76 52 -122 18 -166 -42 -55
-56 -55 -33 -1 19 45 19 57 0 57 -19 0 -35 -58 -42 -147 -4 -57 -3 -73 8 -73
7 0 23 -9 35 -21 20 -19 21 -22 7 -50 -13 -26 -19 -30 -42 -24 -21 5 -24 4
-13 -6 16 -17 15 -29 -3 -29 -14 0 -65 45 -65 58 0 4 14 24 31 45 28 35 30 39
19 74 -19 60 -74 163 -85 159 -15 -5 -6 -37 21 -77 32 -47 30 -54 -7 -32 -73
42 -83 84 -48 193 24 73 21 108 -11 140 -39 39 -55 17 -20 -27 23 -29 21 -39
-17 -127 -42 -97 -22 -148 84 -208 28 -16 54 -35 56 -43 3 -7 -5 -25 -18 -39
-33 -36 -41 -67 -21 -81 21 -16 20 -25 -3 -25 -10 0 -21 7 -25 15 -8 21 -39
19 -59 -3 -23 -25 -22 -28 13 -40 24 -9 31 -8 38 4 8 14 10 13 21 0 9 -11 30
-16 63 -16 39 0 48 -3 40 -12 -16 -20 -19 -63 -4 -62 6 1 25 2 41 3 26 1 29 4
27 29 -2 15 -10 28 -20 30 -9 2 -16 6 -16 8 0 16 43 86 56 91 26 10 26 -4 -2
-36 -14 -18 -24 -34 -21 -37 12 -12 43 7 60 36 22 37 11 58 -50 97 -24 15 -43
35 -43 44 0 10 19 41 43 69 73 90 78 101 74 147 -3 27 -15 56 -33 79 -58 72
-65 87 -58 127 6 40 -8 51 -26 18z"/>
<path d="M2106 3402 c-2 -4 -1 -14 4 -22 7 -11 12 -12 21 -3 6 6 8 16 5 22 -8
13 -23 14 -30 3z"/>
<path d="M1425 3311 c-11 -5 -54 -19 -95 -31 -214 -65 -397 -175 -561 -339
-135 -136 -209 -244 -210 -309 -1 -47 -1 -47 -15 -15 -9 22 -19 31 -29 27 -17
-7 -20 -25 -7 -40 21 -23 62 -320 46 -333 -5 -4 -22 -13 -39 -20 -30 -13 -30
-13 -2 16 51 54 30 88 -30 49 -118 -78 -296 -116 -373 -81 -45 20 -61 14 -36
-14 33 -37 145 -85 208 -89 75 -6 188 23 195 48 4 13 14 18 41 17 21 -1 52 2
69 6 53 14 38 -9 -19 -29 -40 -15 -53 -24 -53 -39 0 -22 12 -23 78 -12 56 9
45 -10 -17 -28 -49 -14 -63 -25 -143 -116 -151 -171 -249 -233 -330 -210 -33
10 -50 1 -38 -18 10 -17 111 -33 182 -29 95 5 199 56 271 132 56 59 62 79 33
104 -25 22 -37 97 -15 88 9 -3 20 -6 25 -6 5 0 4 -8 -2 -19 -29 -45 17 -64 91
-37 36 12 36 12 32 -15 -5 -32 15 -46 72 -51 38 -3 38 -3 41 70 2 39 -1 75 -6
78 -6 3 -5 12 3 21 11 14 14 11 21 -23 43 -222 35 -622 -17 -876 -26 -129 -31
-181 -15 -176 21 7 75 160 95 273 31 171 23 648 -13 795 -6 22 -4 23 10 12 15
-13 41 -85 87 -241 12 -43 25 -70 30 -65 12 12 -14 139 -40 200 -24 55 -25 71
-5 54 16 -14 98 -171 107 -207 3 -13 11 -23 17 -23 6 0 11 10 11 23 0 26 -52
139 -84 182 -33 44 -38 55 -27 55 21 0 92 -73 137 -142 30 -44 50 -66 56 -60
12 12 -8 52 -57 116 -20 26 -33 51 -30 56 3 5 -8 19 -25 31 -26 20 -41 49 -24
49 12 0 51 -25 91 -57 23 -19 47 -32 53 -28 16 10 -14 40 -84 83 -60 37 -60
37 -26 40 19 2 52 -2 72 -9 39 -12 55 -9 44 10 -8 13 -71 31 -111 31 -26 1
-27 2 -12 11 10 6 37 8 60 4 39 -5 41 -5 23 10 -37 29 -87 19 -150 -30 -32
-25 -66 -46 -75 -46 -17 -2 -68 -1 -86 0 -6 1 -21 24 -34 52 -14 28 -32 54
-41 58 -9 3 -31 18 -48 33 -30 25 -31 28 -18 55 38 78 27 92 -38 48 -36 -24
-36 -24 -36 0 0 19 10 28 47 45 27 12 70 42 96 68 45 44 48 45 37 17 -6 -16
-30 -67 -53 -111 -35 -70 -39 -84 -28 -98 20 -24 41 -20 41 8 0 13 25 74 55
135 88 175 217 321 368 416 77 48 77 48 77 106 0 69 5 74 114 114 81 31 81 31
84 73 2 30 -1 44 -12 48 -37 14 -287 -80 -342 -129 -50 -43 -44 -110 10 -130
21 -8 46 8 46 30 0 9 -6 12 -19 8 -22 -7 -44 17 -39 42 4 24 64 62 87 56 24
-6 30 -29 24 -85 -7 -56 -15 -66 -93 -116 -65 -41 -65 -41 -68 1 -4 54 -34 87
-78 87 -26 0 -40 -9 -73 -47 -23 -25 -40 -51 -38 -57 5 -15 65 -43 110 -51 20
-4 37 -9 37 -13 0 -3 -26 -33 -58 -66 -32 -34 -68 -74 -80 -91 -17 -24 -23
-27 -31 -16 -8 12 -13 12 -35 -3 -14 -9 -65 -32 -113 -52 -48 -19 -91 -40 -95
-47 -5 -7 -8 0 -8 18 0 18 17 60 40 100 165 282 429 490 726 571 103 29 124
42 124 81 0 24 -11 27 -45 14z m-437 -387 c26 -18 28 -46 7 -68 -14 -14 -20
-14 -63 2 -26 10 -47 22 -47 27 0 9 62 55 74 55 4 0 17 -7 29 -16z m-411 -536
c-2 -13 -4 -5 -4 17 -1 22 1 32 4 23 2 -10 2 -28 0 -40z m62 -100 c-23 -19
-69 -24 -69 -8 0 6 11 10 25 10 21 0 25 5 25 33 0 32 0 32 20 7 20 -25 20 -25
-1 -42z m85 -83 c-5 -12 -10 -13 -20 -4 -19 15 -18 19 6 19 13 0 18 -5 14 -15z
m19 -75 c17 -29 17 -31 0 -55 -10 -13 -27 -24 -38 -25 -17 0 -16 3 9 23 29 24
29 24 10 43 -11 11 -18 26 -16 32 6 19 17 14 35 -18z m297 -72 c23 -33 23 -33
-8 -4 -34 31 -37 36 -24 36 5 0 19 -15 32 -32z"/>
<path d="M2027 3313 c-3 -5 -3 -20 0 -36 5 -23 13 -29 62 -43 257 -71 423
-166 602 -344 77 -76 126 -135 177 -215 39 -60 77 -118 86 -127 16 -18 66 -25
66 -10 0 17 -86 162 -138 235 -65 90 -219 243 -312 309 -135 96 -281 162 -517
232 -12 4 -24 3 -26 -1z"/>
<path d="M2040 3187 c0 -56 14 -71 96 -101 44 -16 85 -33 92 -38 6 -6 12 -32
12 -58 0 -67 5 -76 69 -117 210 -134 315 -270 436 -565 28 -69 45 -87 45 -45
-1 19 -52 154 -104 272 -18 39 -18 39 51 -26 110 -103 234 -135 357 -92 79 29
182 133 131 133 -8 0 -15 -5 -15 -11 0 -5 -17 -17 -37 -26 -77 -31 -256 8
-427 94 -55 28 -74 33 -87 25 -14 -9 -21 -6 -34 15 -10 15 -45 56 -78 92 -61
65 -61 65 -17 76 66 17 115 44 102 57 -7 7 -26 5 -60 -7 -58 -21 -82 -15 -82
19 0 25 23 56 41 56 16 0 53 -22 62 -36 12 -21 27 -17 27 6 0 21 -46 55 -88
67 -34 8 -72 -33 -79 -85 -3 -23 -7 -42 -9 -42 -14 0 -142 91 -148 105 -12 34
-7 115 9 121 44 17 111 -40 88 -75 -6 -9 -21 -15 -33 -13 -30 3 -22 -32 8 -36
56 -8 84 76 41 119 -38 38 -240 121 -328 135 -39 6 -41 5 -41 -19z"/>
<path d="M1567 3130 c-78 -18 -126 -45 -108 -63 5 -5 21 -2 40 7 102 53 302
58 426 11 90 -34 115 -40 115 -26 0 17 -74 50 -157 72 -95 24 -211 24 -316 -1z"/>
<path d="M1630 3053 c-109 -18 -161 -51 -145 -91 5 -15 9 -13 25 8 28 37 36
16 16 -43 -19 -58 -13 -93 26 -134 29 -31 11 -49 -63 -64 -46 -9 -59 -16 -57
-28 8 -42 140 -66 199 -36 45 23 99 64 99 75 0 5 -12 16 -27 24 -16 8 -26 16
-23 17 13 4 110 5 110 2 0 -3 -10 -13 -22 -22 -30 -25 -19 -44 44 -80 38 -22
66 -31 98 -31 48 0 116 27 139 53 12 15 10 17 -16 17 -36 0 -123 29 -123 40 0
5 11 26 25 46 30 45 40 94 27 134 -10 27 -9 29 11 27 39 -4 24 27 -23 50 -67
33 -231 51 -320 36z m235 -50 c12 -5 -45 -10 -145 -13 -91 -3 -167 -4 -169 -3
-2 1 19 9 45 17 51 17 228 16 269 -1z m-217 -60 c37 -9 68 -18 70 -19 1 -1 -3
-14 -10 -28 -14 -33 -51 -44 -107 -33 -25 5 -28 9 -28 51 0 25 2 46 5 46 2 0
34 -8 70 -17z m267 6 c11 -17 -5 -78 -23 -88 -13 -7 -93 2 -119 13 -1 1 -4 13
-8 29 -6 24 -4 27 16 28 13 0 40 7 59 14 44 17 67 18 75 4z"/>
<path d="M1822 2909 c2 -6 8 -10 13 -10 5 0 11 4 13 10 2 6 -4 11 -13 11 -9 0
-15 -5 -13 -11z"/>
<path d="M470 2975 c0 -9 -7 -18 -15 -21 -8 -4 -15 -12 -15 -20 0 -19 16 -18
24 2 4 12 14 14 36 9 34 -7 39 4 12 28 -23 21 -42 22 -42 2z"/>
<path d="M632 2946 c-5 -6 -4 -21 3 -34 12 -22 12 -22 39 -1 14 11 24 24 21
29 -8 13 -54 18 -63 6z"/>
<path d="M1451 2894 c-21 -27 -29 -94 -11 -94 6 0 10 -8 10 -17 0 -10 4 -24 9
-32 8 -12 11 -12 24 1 11 11 13 18 5 26 -7 7 -8 25 -3 49 16 75 -1 109 -34 67z"/>
<path d="M1997 2828 c-3 -46 -4 -84 -2 -86 11 -11 45 27 45 49 0 15 7 29 15
33 13 5 11 12 -11 46 -15 22 -30 40 -34 40 -4 0 -10 -37 -13 -82z"/>
<path d="M715 2733 c-27 -28 -85 -120 -85 -137 0 -10 81 1 94 14 5 5 10 19 11
32 1 13 3 26 4 31 2 11 39 8 46 -4 9 -14 45 19 45 42 0 22 -37 49 -66 49 -12
0 -34 -12 -49 -27z"/>
<path d="M2692 2744 c-39 -27 -17 -87 25 -66 28 15 43 3 43 -33 0 -34 15 -45
83 -61 37 -9 35 8 -9 82 -54 91 -93 113 -142 78z"/>
<path d="M483 2743 c-23 -9 -14 -33 11 -33 35 0 56 10 56 26 0 14 -41 18 -67
7z"/>
<path d="M492 2683 c2 -10 10 -18 18 -18 8 0 16 8 18 18 2 12 -3 17 -18 17
-15 0 -20 -5 -18 -17z"/>
<path d="M1390 2680 c0 -14 48 -35 58 -26 8 9 -26 36 -45 36 -7 0 -13 -5 -13
-10z"/>
<path d="M2058 2679 c-25 -14 -22 -31 4 -27 13 2 24 11 26 21 4 19 -5 21 -30
6z"/>
<path d="M1695 2656 c-39 -27 -122 -41 -168 -29 -50 14 -73 3 -107 -51 -24
-40 -19 -67 9 -42 16 15 17 10 15 -77 -3 -92 -3 -92 -41 -114 -21 -13 -46 -23
-57 -23 -25 0 -86 38 -86 54 0 7 18 20 40 30 49 21 61 41 51 86 -8 42 -39 56
-96 46 -38 -8 -90 -50 -128 -106 -12 -18 -29 -25 -64 -30 -59 -6 -71 -30 -15
-30 23 0 45 -6 52 -15 7 -8 19 -15 28 -15 8 0 34 -18 57 -39 47 -43 91 -57
157 -48 49 7 112 63 123 111 7 31 7 31 20 -14 20 -69 46 -124 54 -114 4 5 14
29 21 54 9 30 15 38 17 25 11 -64 28 -127 36 -132 13 -8 27 17 27 49 0 46 18
41 37 -12 10 -27 23 -50 30 -50 15 0 73 77 73 97 0 23 18 14 51 -27 18 -22 35
-37 40 -35 4 3 11 31 15 62 6 51 8 55 20 38 8 -10 14 -34 14 -53 0 -50 22 -35
45 31 19 55 35 74 35 42 0 -23 17 -18 24 7 6 25 22 16 28 -16 5 -32 53 -59
110 -63 65 -5 132 25 164 74 16 23 24 29 32 21 9 -9 16 -7 29 4 10 9 35 18 55
20 30 2 36 6 28 17 -5 9 -25 15 -47 15 -40 1 -65 18 -97 69 -25 40 -74 67
-122 67 -44 0 -57 -10 -67 -49 -9 -36 12 -68 55 -86 49 -19 48 -42 -5 -70 -37
-20 -37 -20 -91 9 -51 28 -54 31 -60 77 -4 27 -13 66 -21 89 -16 45 -6 52 23
15 49 -62 54 5 7 77 -27 40 -47 46 -90 26 -30 -14 -165 8 -178 29 -10 17 -57
17 -82 -1z m-369 -160 c19 -15 19 -15 -2 -36 -18 -18 -25 -20 -43 -11 -26 14
-27 36 -3 50 23 14 25 13 48 -3z m892 2 c18 -18 14 -36 -10 -49 -19 -10 -24
-8 -41 12 -18 22 -18 24 -1 36 22 16 37 16 52 1z m-98 -204 c0 -2 -9 0 -20 6
-11 6 -20 13 -20 16 0 2 9 0 20 -6 11 -6 20 -13 20 -16z"/>
<path d="M484 2555 c-3 -8 -3 -19 1 -25 11 -17 -47 -32 -112 -28 -44 3 -71 10
-92 26 -35 25 -41 27 -41 9 0 -20 69 -82 119 -108 50 -26 154 -38 165 -20 9
14 -15 161 -26 161 -5 0 -11 -7 -14 -15z"/>
<path d="M2760 2426 c0 -9 14 -52 30 -98 34 -94 36 -108 14 -108 -15 0 -15 -2
0 -22 91 -124 97 -326 15 -558 -45 -126 -71 -228 -64 -247 10 -28 24 -10 35
43 11 54 83 240 100 257 8 9 40 -30 40 -50 0 -7 -16 -28 -35 -48 -39 -38 -38
-55 1 -55 14 0 24 -6 24 -14 0 -17 -22 -26 -48 -19 -18 4 -20 -2 -26 -64 -4
-37 -10 -88 -13 -113 -6 -44 -5 -45 14 -27 32 28 121 215 148 311 35 124 34
154 -9 189 -19 15 -39 27 -45 27 -5 0 -16 -19 -25 -42 -15 -43 -15 -43 -10 32
8 106 9 108 47 63 118 -144 302 -202 450 -142 45 19 26 33 -39 30 -54 -2 -64
1 -119 37 -59 38 -204 184 -249 252 -77 115 -171 269 -193 316 -25 56 -43 76
-43 50z m169 -390 c-12 -13 -18 -5 -25 35 -6 34 -6 34 14 4 11 -17 16 -34 11
-39z"/>
<path d="M2820 2399 c0 -23 75 -122 128 -169 90 -81 208 -115 310 -90 58 14
162 75 162 96 0 18 -4 18 -42 -2 -24 -12 -49 -15 -102 -12 -84 6 -167 38 -281
107 -76 46 -147 81 -166 81 -5 0 -9 -5 -9 -11z"/>
<path d="M405 2357 c-16 -38 -19 -57 -10 -57 25 0 105 64 93 75 -2 3 -19 8
-36 11 -29 6 -33 4 -47 -29z"/>
<path d="M3021 2376 c-22 -27 12 -66 59 -66 19 0 21 4 15 33 -4 17 -9 35 -12
40 -7 12 -50 8 -62 -7z"/>
<path d="M2605 2210 c-26 -10 -70 -58 -62 -66 3 -4 21 6 39 21 32 27 49 29
116 9 36 -11 27 20 -11 34 -38 14 -54 14 -82 2z"/>
<path d="M2966 2148 c8 -29 65 -108 76 -108 4 0 8 20 8 45 0 40 -4 47 -32 65
-44 27 -61 26 -52 -2z"/>
<path d="M2604 2150 c-12 -5 -25 -13 -29 -19 -3 -6 -21 -11 -38 -11 -85 0
-125 -28 -193 -133 -72 -111 -55 -118 47 -19 38 37 74 68 78 70 5 2 0 -14 -10
-35 -11 -23 -19 -58 -18 -88 0 -28 1 -92 1 -142 1 -71 4 -93 14 -93 17 0 14
-15 23 121 6 109 9 119 41 169 33 52 80 90 110 90 8 0 -4 -16 -28 -36 -45 -38
-72 -80 -72 -112 0 -24 23 -35 39 -19 8 8 11 8 11 0 0 -6 -7 -16 -15 -23 -12
-10 -15 -44 -15 -191 0 -213 14 -354 46 -469 31 -109 102 -254 128 -258 15 -3
18 0 12 21 -3 14 -13 76 -21 138 -9 63 -22 159 -30 214 -32 224 -28 565 7 627
13 23 13 23 16 -4 5 -38 17 -35 43 12 13 22 26 40 31 40 4 0 8 9 8 19 0 19
-18 31 -47 31 -8 0 -21 7 -29 15 -9 8 -26 15 -39 15 -13 0 -27 5 -30 10 -3 6
-17 10 -30 10 -13 0 -26 4 -30 9 -8 14 32 24 71 16 41 -7 47 11 8 25 -29 12
-32 12 -60 0z m59 -152 c-11 -13 -28 -38 -38 -56 -17 -35 -31 -38 -21 -5 7 21
61 83 72 83 4 0 -2 -10 -13 -22z"/>
<path d="M462 2127 c-15 -18 -25 -65 -18 -83 6 -15 9 -14 31 6 15 14 25 35 25
51 0 29 -23 45 -38 26z"/>
<path d="M1234 2131 c-2 -2 -4 -155 -4 -338 0 -335 0 -335 248 -589 136 -140
252 -254 257 -254 6 0 124 114 262 253 253 252 253 252 253 582 0 182 0 335 0
342 0 8 -126 11 -506 10 -278 -1 -508 -4 -510 -6z m974 -350 c2 -305 2 -305
-230 -538 -128 -128 -235 -233 -238 -233 -7 0 -370 365 -425 428 -38 42 -38
42 -37 335 0 160 0 298 1 305 1 10 97 12 464 10 462 -3 462 -3 465 -307z"/>
<path d="M1725 1998 c-4 -13 -21 -37 -37 -54 -33 -35 -35 -76 -5 -82 14 -3 17
2 15 25 -2 15 2 29 7 30 6 2 10 -21 10 -52 0 -30 4 -57 8 -61 12 -13 8 -22
-15 -27 -21 -6 -21 -7 -5 -25 39 -43 11 -73 -51 -54 -24 8 -40 8 -46 2 -12
-12 -66 -13 -66 -1 0 5 7 11 15 15 17 6 21 36 5 36 -5 0 -30 -16 -56 -35 -25
-19 -50 -35 -55 -35 -20 0 -7 -26 19 -37 15 -7 39 -22 55 -35 22 -17 30 -19
40 -9 9 10 7 16 -12 30 -24 18 -24 18 4 25 16 4 33 2 41 -5 11 -9 24 -9 53 0
70 21 71 19 70 -165 -1 -134 -4 -164 -15 -164 -10 0 -13 10 -12 33 2 23 -1 32
-12 32 -26 0 -25 -54 3 -84 14 -14 30 -36 36 -48 16 -31 26 -29 41 6 6 16 22
39 36 52 40 37 28 93 -15 70 -19 -11 -19 -6 -20 128 -1 130 0 140 18 146 11 3
35 -1 54 -9 20 -8 38 -12 40 -9 3 2 22 8 42 13 37 8 37 8 16 -14 -22 -24 -28
-46 -11 -46 13 0 120 72 120 82 0 4 -15 14 -34 23 -19 9 -42 25 -52 36 -9 10
-23 19 -31 19 -18 0 -17 -26 2 -34 24 -9 17 -26 -10 -26 -13 0 -28 8 -34 17
-9 17 -10 17 -28 0 -20 -17 -49 -22 -77 -11 -19 7 -21 50 -3 57 9 3 9 7 0 18
-6 8 -11 25 -10 39 0 14 -2 46 -7 73 -6 39 -5 47 8 47 17 0 20 -9 16 -48 -1
-18 3 -23 17 -20 28 5 28 46 -1 77 -13 14 -29 38 -35 54 -13 33 -27 35 -36 5z
m59 -647 c3 -5 -1 -14 -8 -20 -16 -13 -32 2 -21 19 8 12 22 13 29 1z"/>
<path d="M373 2112 c-6 -4 -15 -42 -19 -83 -8 -90 5 -109 43 -65 19 22 23 38
23 92 0 54 -3 64 -17 64 -10 0 -23 -4 -30 -8z"/>
<path d="M3087 2113 c-4 -3 -7 -35 -7 -70 0 -50 4 -67 20 -83 11 -11 25 -20
30 -20 15 0 13 153 -2 168 -13 13 -31 16 -41 5z"/>
<path d="M624 1908 c17 -96 19 -121 8 -114 -6 3 -14 36 -17 72 -5 43 -11 62
-17 56 -6 -6 -8 -32 -5 -59 3 -26 10 -97 16 -158 8 -81 16 -117 31 -137 11
-15 20 -32 20 -38 0 -5 4 -10 8 -10 12 0 32 -69 26 -85 -3 -8 -1 -22 5 -32 9
-16 10 -14 11 12 0 22 3 26 10 15 18 -28 22 -1 10 77 -6 43 -18 125 -26 183
-22 151 -33 202 -50 227 -22 34 -37 29 -30 -9z m36 -246 c7 -52 9 -96 7 -98
-9 -9 -26 60 -32 136 -10 110 11 78 25 -38z"/>
<path d="M2386 1868 c-26 -79 -48 -169 -43 -174 13 -13 27 10 47 75 11 37 20
75 20 84 0 20 -19 32 -24 15z"/>
<path d="M501 1792 c-44 -38 -44 -38 -13 -149 44 -158 161 -401 181 -376 4 4
5 52 3 106 -3 72 -7 97 -17 97 -8 0 -17 9 -20 20 -4 14 -15 20 -36 20 -19 0
-29 5 -29 15 0 10 10 15 30 15 38 0 38 14 1 46 -41 34 -46 58 -22 91 19 27 19
30 3 91 -9 34 -21 62 -27 62 -5 0 -30 -17 -54 -38z"/>
<path d="M390 1735 c-11 -13 -11 -26 0 -73 37 -166 140 -385 249 -528 36 -48
72 -89 79 -92 8 -2 12 8 12 34 0 29 -14 58 -69 138 -106 156 -159 272 -205
446 -24 87 -40 106 -66 75z"/>
<path d="M3055 1738 c-2 -7 -9 -38 -16 -68 -30 -138 -113 -319 -210 -460 -47
-67 -60 -95 -65 -135 -5 -50 -5 -50 36 -5 107 118 211 301 270 476 37 107 46
169 30 189 -15 18 -39 20 -45 3z"/>
<path d="M754 1555 c21 -105 19 -177 -7 -174 -18 2 -31 0 -45 -10 -11 -7 -7
-25 20 -95 18 -47 35 -86 38 -86 11 0 43 118 48 175 5 68 -19 181 -45 205 -14
14 -15 12 -9 -15z m13 -252 c-4 -17 -4 -17 -12 0 -4 9 -4 25 0 35 8 16 8 16
12 0 3 -10 3 -26 0 -35z"/>
<path d="M2217 1284 c-3 -3 0 -16 7 -28 8 -11 16 -36 20 -55 3 -18 19 -49 36
-68 31 -35 39 -78 20 -114 -18 -33 22 -23 45 11 23 34 39 40 30 10 -8 -26 5
-25 51 2 30 18 41 20 65 11 25 -10 30 -8 53 20 19 23 23 34 15 44 -14 16 -91
17 -107 1 -9 -9 -12 -9 -12 -1 0 7 5 15 10 18 16 10 61 105 55 115 -9 14 -85
-26 -112 -58 -22 -26 -22 -26 -28 0 -8 32 -52 74 -85 80 -14 3 -32 8 -41 12
-8 4 -18 4 -22 0z"/>
<path d="M1196 1270 c-35 -11 -65 -38 -77 -67 -8 -23 -29 -32 -29 -13 0 12
-82 60 -103 60 -10 0 -17 -2 -17 -5 0 -13 34 -72 57 -99 29 -35 24 -42 -16
-22 -33 18 -73 13 -92 -10 -20 -24 28 -67 65 -60 19 4 41 -1 66 -15 50 -28 68
-22 40 14 -16 20 -18 27 -7 27 7 0 28 -20 46 -45 18 -25 37 -45 42 -45 5 0 7
22 3 55 -6 51 -5 57 24 89 17 20 33 51 37 75 4 23 11 43 16 47 15 9 10 24 -8
23 -10 0 -31 -5 -47 -9z"/>
<path d="M859 990 c-101 -12 -211 -45 -328 -100 -130 -60 -153 -66 -192 -50
-53 22 -46 -1 21 -62 138 -129 215 -160 280 -116 67 45 43 80 -26 37 -19 -11
-40 -19 -46 -17 -21 7 72 55 162 83 70 23 105 28 200 29 89 1 114 -2 112 -12
-5 -24 282 -141 386 -158 32 -5 42 -3 42 7 0 15 -73 46 -270 116 -112 40 -119
43 -70 38 67 -8 182 -46 272 -91 37 -19 74 -34 83 -34 10 0 15 -10 15 -28 0
-15 8 -38 17 -52 16 -23 16 -23 -3 -16 -42 17 -101 18 -132 2 -35 -18 -62 -62
-62 -100 0 -28 44 -86 66 -86 18 0 18 14 -1 30 -36 30 -2 106 44 97 60 -12
103 -26 126 -41 39 -25 77 -91 82 -141 7 -56 -9 -78 -49 -70 -32 7 -39 -13
-13 -35 28 -23 67 -15 96 21 28 34 28 34 18 -10 -5 -24 -12 -48 -14 -51 -7
-12 56 -144 64 -134 4 5 18 33 31 62 21 47 23 58 14 103 -12 55 -4 73 14 33
17 -35 58 -49 88 -29 31 20 31 35 0 35 -43 0 -63 48 -45 112 15 58 76 116 130
124 22 4 43 13 46 20 8 21 27 17 57 -11 29 -27 34 -66 11 -85 -19 -15 -19 -30
-2 -30 18 0 53 38 65 70 14 36 -9 85 -50 110 -36 22 -107 27 -140 9 -11 -6
-18 -7 -16 -2 2 4 12 26 22 48 16 36 27 44 104 79 190 86 309 112 480 103 115
-5 261 -44 332 -88 46 -29 23 -36 -30 -9 -46 23 -66 19 -50 -11 13 -23 61 -49
92 -49 37 1 101 40 198 119 108 89 117 109 35 79 -30 -10 -42 -7 -151 44 -66
31 -136 61 -157 68 -43 13 -72 7 -63 -15 12 -31 -17 -25 -57 12 -40 37 -49 40
-118 46 -134 11 -304 -17 -466 -79 -171 -65 -201 -74 -245 -74 -50 0 -60 -11
-35 -42 17 -23 78 -58 102 -59 11 0 14 -3 8 -6 -39 -15 -144 61 -179 129 -8
15 -18 28 -23 28 -4 0 -22 -22 -39 -50 -17 -27 -46 -59 -64 -70 -46 -28 -59
-25 -18 5 34 25 50 43 50 58 0 4 -27 7 -60 7 -49 0 -86 10 -188 49 -167 64
-256 88 -372 101 -104 11 -97 11 -191 0z m930 -234 c23 -24 60 -49 82 -56 22
-8 42 -17 45 -22 11 -17 -6 -53 -51 -113 -51 -68 -115 -188 -115 -217 0 -35
-21 -14 -40 39 -17 48 -41 88 -125 207 -50 69 -47 91 12 105 33 9 58 24 87 55
23 24 46 44 51 45 6 0 30 -19 54 -43z"/>
<path d="M1812 678 c-7 -7 -12 -19 -12 -28 0 -27 -58 -110 -73 -104 -17 6 -52
68 -61 107 -4 18 -13 27 -26 27 -16 0 -19 -5 -14 -24 3 -13 1 -27 -5 -30 -14
-9 90 -116 112 -116 9 0 35 20 59 43 24 24 50 47 58 50 13 5 12 8 -4 21 -15
13 -17 18 -7 30 22 26 -3 48 -27 24z"/>
<path d="M2280 751 c-177 -59 -280 -104 -280 -121 0 -18 45 -11 151 23 114 37
279 107 279 119 0 16 -68 6 -150 -21z"/>
</g>
</svg>
