<?xml version="1.0" encoding="UTF-8"?>
<!-- Generator: visioncortex VTracer 0.6.4 -->
<svg version="1.1" xmlns="http://www.w3.org/2000/svg" width="347" height="376">
<path d="M0 0 C1.92289955 2.88434932 3.04927271 5.4738827 4.3125 8.6875 C7.94821023 17.42374284 10.77719899 22.60886438 18.91796875 27.64453125 C24.17826111 31.06914935 26.38253496 36.11395858 28 42 C28.78712585 45.98451904 29.43035932 49.97900699 30 54 C30.99 54.33 31.98 54.66 33 55 C33.10248325 61.09205958 33.03440474 66.99498104 32.12109375 73.02734375 C31.98393071 75.26177398 32.24109234 76.89596261 33 79 C33.66 79.33 34.32 79.66 35 80 C33.68 80.33 32.36 80.66 31 81 C31 81.66 31 82.32 31 83 C31.66 83.33 32.32 83.66 33 84 C33 84.99 33 85.98 33 87 C33.5775 87.2475 34.155 87.495 34.75 87.75 C37 89 37 89 39 91.0625 C41.14246116 93.13800924 42.15789107 93.4499144 45 94 C45.99 94.66 46.98 95.32 48 96 C48 95.67 48 95.34 48 95 C49.65 95 51.3 95 53 95 C53.33 95.66 53.66 96.32 54 97 C54.66 97 55.32 97 56 97 C56 97.99 56 98.98 56 100 C56.515625 99.773125 57.03125 99.54625 57.5625 99.3125 C61.1926316 98.84709851 63.71575287 100.54033461 67 102 C67.66 101.67 68.32 101.34 69 101 C69 101.66 69 102.32 69 103 C69.66 103 70.32 103 71 103 C71.33 103.66 71.66 104.32 72 105 C72.66 105 73.32 105 74 105 C74.66 105.66 75.32 106.32 76 107 C76.66 106.67 77.32 106.34 78 106 C77.34 105.34 76.68 104.68 76 104 C76 103.34 76 102.68 76 102 C75.34 101.67 74.68 101.34 74 101 C74 100.34 74 99.68 74 99 C73.34 99 72.68 99 72 99 C72.3125 97.0625 72.3125 97.0625 73 95 C75.82206185 94.05931272 77.92476327 93.78604777 80.8671875 93.60546875 C91.84181132 92.84761618 101.63995235 91.85373753 112 88 C113.33059886 87.65591345 114.66357988 87.32073377 116 87 C115.57847656 88.21816406 115.15695312 89.43632813 114.72265625 90.69140625 C114.16894719 92.31499383 113.61557988 93.93869798 113.0625 95.5625 C112.78470703 96.36236328 112.50691406 97.16222656 112.22070312 97.98632812 C109.71710726 105.37646049 108.86823355 112.11039066 108.9375 119.9375 C108.94426758 120.96327148 108.94426758 120.96327148 108.95117188 122.00976562 C108.9628044 123.67321604 108.98073306 125.3366205 109 127 C104.81664538 128.50808779 102.32318291 129.32097255 98 128 C96 127 96 127 95 124 C94.34 123.34 93.68 122.68 93 122 C91.66666667 120.66666667 90.33333333 119.33333333 89 118 C88.34 118.33 87.68 118.66 87 119 C87.66 119.598125 88.32 120.19625 89 120.8125 C91 123 91 123 91 126 C91.639375 126.61875 92.27875 127.2375 92.9375 127.875 C95.27990815 130.28839022 95.63515416 131.7163874 96 135 C97.32 135 98.64 135 100 135 C100 135.66 100 136.32 100 137 C100.66 137.33 101.32 137.66 102 138 C101.34 138.99 100.68 139.98 100 141 C100.33 140.67 100.66 140.34 101 140 C101.66 140.33 102.32 140.66 103 141 C103 141.66 103 142.32 103 143 C104.98 143.66 106.96 144.32 109 145 C109 145.99 109 146.98 109 148 C109.66 148 110.32 148 111 148 C111 148.99 111 149.98 111 151 C111.66 151 112.32 151 113 151 C113 151.66 113 152.32 113 153 C113.61359375 153.2475 114.2271875 153.495 114.859375 153.75 C117.39494109 155.23062253 118.02968785 156.36567537 119.25 159 C119.58515625 159.70125 119.9203125 160.4025 120.265625 161.125 C121 163 121 163 121 165 C121.66 165 122.32 165 123 165 C123.66 165.99 124.32 166.98 125 168 C125.66 167.67 126.32 167.34 127 167 C126.67 169.64 126.34 172.28 126 175 C126.66 175 127.32 175 128 175 C128.33 174.01 128.66 173.02 129 172 C134.59517422 173.29339276 138.42849481 175.35746789 143.0625 178.6875 C151.53266544 184.56014804 160.36601462 189.27533651 170 193 C166.47619868 195.91997859 162.53510633 197.78540082 158.4375 199.75 C150.90752132 203.4335888 143.52549298 207.3813329 136.953125 212.63671875 C134.91886951 214.05662908 133.39273009 214.47149657 131 215 C130.87995605 215.55236328 130.75991211 216.10472656 130.63623047 216.67382812 C124.37008592 245.13379602 124.37008592 245.13379602 117.81640625 255.5078125 C114.77934848 261.346801 115.74908635 265.55024612 117.609375 271.6171875 C118.31207706 273.70680153 119.02594143 275.79268971 119.75 277.875 C120.09804688 278.91269531 120.44609375 279.95039063 120.8046875 281.01953125 C122.89807069 287.16787521 125.23521024 293.12249607 128 299 C126.31583984 298.58427734 126.31583984 298.58427734 124.59765625 298.16015625 C113.41342381 295.38989344 113.41342381 295.38989344 102 294 C101.2059375 293.87882812 100.411875 293.75765625 99.59375 293.6328125 C95.55157701 293.2211097 93.02985406 293.27825104 89.63671875 295.65625 C87.97956756 297.1967768 86.35099542 298.76839457 84.74609375 300.36328125 C69.42706077 315.07216783 42.6938168 330 21 330 C20.91878906 330.69480469 20.83757812 331.38960938 20.75390625 332.10546875 C19.82122236 335.68639499 18.01139319 338.31215629 15.9375 341.3125 C12.44628275 346.5454491 9.36474032 351.86731989 6.5625 357.5 C6.06834595 358.48673706 6.06834595 358.48673706 5.56420898 359.4934082 C3.72636035 363.2520989 2.22797794 367.00135826 1 371 C-1.50547513 368.49452487 -2.2055071 366.17896735 -3.5 362.875 C-7.2399099 353.72174533 -12.50909472 345.37466194 -18.19433594 337.3046875 C-21 333.29730101 -21 333.29730101 -21 330 C-21.64582031 329.93683594 -22.29164063 329.87367188 -22.95703125 329.80859375 C-44.35727979 327.0274397 -67.19641086 315.97552752 -82.94921875 301.27734375 C-89.17662009 295.3124346 -89.17662009 295.3124346 -97.25 293.1875 C-100.01269358 293.42982478 -100.01269358 293.42982478 -103 294 C-103.63019043 294.10103027 -104.26038086 294.20206055 -104.90966797 294.30615234 C-112.35244915 295.50329249 -119.72189785 297.02884733 -127 299 C-125.91171237 296.24818699 -124.79337457 293.51531577 -123.6328125 290.79296875 C-120.8168071 284.05935999 -118.37012293 277.39031534 -116.5625 270.3125 C-116.3867041 269.64178467 -116.2109082 268.97106934 -116.02978516 268.2800293 C-114.54371857 262.13297514 -115.90539366 259.10204256 -118.62890625 253.515625 C-124.20943728 241.9015309 -130 227.04761899 -130 214 C-131.27230469 213.89365234 -131.27230469 213.89365234 -132.5703125 213.78515625 C-136.69996337 212.83975782 -139.51007079 210.87882906 -142.875 208.4375 C-149.53727186 203.78299003 -156.41013857 200.09063196 -163.734375 196.59375 C-167 195 -167 195 -170 193 C-168.9790625 192.61521484 -168.9790625 192.61521484 -167.9375 192.22265625 C-156.19287995 187.58415604 -144.96793582 181.50233663 -134.796875 173.99609375 C-133 173 -133 173 -129 173 C-128.87544434 172.28360352 -128.75088867 171.56720703 -128.62255859 170.82910156 C-127.5439339 165.92749256 -125.50929651 161.38918571 -123.625 156.75 C-123.22539063 155.73164063 -122.82578125 154.71328125 -122.4140625 153.6640625 C-122.0221875 152.69726562 -121.6303125 151.73046875 -121.2265625 150.734375 C-120.87158691 149.84975586 -120.51661133 148.96513672 -120.15087891 148.05371094 C-119 146 -119 146 -116 145 C-108.18665414 134.80089968 -106.56162916 123.53244684 -108 111 C-109.59931689 102.81123015 -112.33640492 94.89121158 -115 87 C-114.46632812 87.18175781 -113.93265625 87.36351563 -113.3828125 87.55078125 C-110.92588851 88.37967429 -108.46316334 89.18984451 -106 90 C-105.12601562 90.29777344 -104.25203125 90.59554687 -103.3515625 90.90234375 C-102.49304688 91.18207031 -101.63453125 91.46179688 -100.75 91.75 C-99.56664063 92.14445312 -99.56664063 92.14445312 -98.359375 92.546875 C-95.56250318 93.08402257 -93.71711925 92.82009238 -91 92 C-90.195625 91.29875 -89.39125 90.5975 -88.5625 89.875 C-86 88 -86 88 -82.8125 88.125 C-80 89 -80 89 -78 91 C-76.989375 91.165 -75.97875 91.33 -74.9375 91.5 C-73.968125 91.665 -72.99875 91.83 -72 92 C-71.67 92.66 -71.34 93.32 -71 94 C-69.68 93.67 -68.36 93.34 -67 93 C-66.566875 93.969375 -66.13375 94.93875 -65.6875 95.9375 C-64.2985139 99.27731765 -64.2985139 99.27731765 -61 100 C-61.33 100.66 -61.66 101.32 -62 102 C-60.39125 101.5359375 -60.39125 101.5359375 -58.75 101.0625 C-56.17030708 100.33158701 -53.59915091 99.64978773 -51 99 C-47.72226496 98.24849977 -47.72226496 98.24849977 -46 95 C-45.34 95 -44.68 95 -44 95 C-44 94.34 -44 93.68 -44 93 C-43.34 93 -42.68 93 -42 93 C-41.67 93.99 -41.34 94.98 -41 96 C-40.566875 95.54625 -40.13375 95.0925 -39.6875 94.625 C-38 93 -38 93 -35 91 C-34.26656572 87.93443402 -34.26656572 87.93443402 -34 85 C-32.68 85.33 -31.36 85.66 -30 86 C-30.11382653 84.04098546 -30.24141125 82.0827662 -30.375 80.125 C-30.47941406 78.48917969 -30.47941406 78.48917969 -30.5859375 76.8203125 C-30.73253491 73.86953526 -30.73253491 73.86953526 -33 72 C-32.01 72 -31.02 72 -30 72 C-30.16371094 71.30519531 -30.32742187 70.61039062 -30.49609375 69.89453125 C-31.04095996 66.7647184 -31.09738483 63.86201917 -31.0625 60.6875 C-31.05347656 59.61886719 -31.04445312 58.55023438 -31.03515625 57.44921875 C-31.01775391 56.23685547 -31.01775391 56.23685547 -31 55 C-29.68 54.67 -28.36 54.34 -27 54 C-27.0825 52.7625 -27.165 51.525 -27.25 50.25 C-27.23841954 42.93115124 -25.19621389 35.70303248 -20.5625 30 C-19.716875 29.34 -18.87125 28.68 -18 28 C-17.154375 27.319375 -16.30875 26.63875 -15.4375 25.9375 C-14.633125 25.298125 -13.82875 24.65875 -13 24 C-9.22595871 20.75417139 -7.35373073 17.04091048 -5.375 12.5625 C-5.0759375 11.90701172 -4.776875 11.25152344 -4.46875 10.57617188 C-2.88642926 7.0859644 -1.38988534 3.57104204 0 0 Z M-20 34 C-23.84142829 40.75763451 -25.32885588 48.24996318 -25 56 C-23.4117422 61.30197825 -20.47985254 63.95230305 -16 67 C-12.69404589 68.70530594 -9.54394791 70.29908939 -5.76171875 69.56640625 C-5.18035156 69.37949219 -4.59898437 69.19257812 -4 69 C-5.14339844 68.38511719 -6.28679687 67.77023438 -7.46484375 67.13671875 C-8.95599823 66.32080404 -10.44686907 65.50437081 -11.9375 64.6875 C-12.69224609 64.28337891 -13.44699219 63.87925781 -14.22460938 63.46289062 C-15.30258789 62.86831055 -15.30258789 62.86831055 -16.40234375 62.26171875 C-17.06741943 61.90037842 -17.73249512 61.53903809 -18.41772461 61.16674805 C-20 60 -20 60 -21 57 C-20.80078125 54.22265625 -20.80078125 54.22265625 -20.3125 51.0625 C-20.16425781 50.02222656 -20.01601562 48.98195313 -19.86328125 47.91015625 C-18.85803792 44.52144004 -17.77417253 43.15435741 -15 41 C-12.75 40.25 -12.75 40.25 -11 40 C-11.06960937 40.85271484 -11.06960937 40.85271484 -11.140625 41.72265625 C-11.42329541 47.76978395 -10.69208089 51.14199883 -7 56 C-3.55960954 58.44649988 -1.66060089 59 2.5625 59 C6.7928604 57.7693497 8.32675817 56.49006572 11 53 C13.13955791 48.74666198 14.45151725 44.81618402 14 40 C16.3125 40.375 16.3125 40.375 19 42 C21.41773516 47.10935438 23.17215229 53.45891644 22 59 C17.63674802 63.78041043 12.04050651 66.05840862 6 68 C6 68.66 6 69.32 6 70 C13.7633298 69.82748156 20.58524025 65.41475975 26 60 C27.06512473 50.09186297 26.51162987 40.85595299 20.26953125 32.75390625 C14.80384876 26.80820374 9.08338851 23.51852552 1.0625 22.5 C-7.49627186 23.02852974 -15.00195879 27.07452269 -20 34 Z M-29 58 C-29.2954439 63.02254631 -28.98514628 65.89542386 -26 70 C-24.84042793 66.52128379 -25.22543349 65.65780355 -26.4375 62.3125 C-26.72496094 61.50425781 -27.01242188 60.69601563 -27.30859375 59.86328125 C-27.53675781 59.24839844 -27.76492187 58.63351563 -28 58 C-28.33 58 -28.66 58 -29 58 Z M30 58 C27.97649676 61.03525486 27.67875982 62.19426202 27.375 65.6875 C27.30023438 66.49574219 27.22546875 67.30398437 27.1484375 68.13671875 C27.09945312 68.75160156 27.05046875 69.36648437 27 70 C29.04219706 68.30820672 29.91793306 67.36272334 30.51171875 64.73828125 C30.56972656 63.93777344 30.62773437 63.13726562 30.6875 62.3125 C30.78611328 61.10013672 30.78611328 61.10013672 30.88671875 59.86328125 C30.92410156 59.24839844 30.96148437 58.63351563 31 58 C30.67 58 30.34 58 30 58 Z M23 69 C22.7215625 69.8971875 22.7215625 69.8971875 22.4375 70.8125 C20.35027347 73.98871429 17.5454572 75.02981453 14 76 C10.20740603 76.2528396 7.60105166 76.20035055 4 75 C4.66 78.63 5.32 82.26 6 86 C3 86 3 86 1.3125 84.5 C0.879375 84.005 0.44625 83.51 0 83 C-0.680625 83.7425 -0.680625 83.7425 -1.375 84.5 C-3 86 -3 86 -5 86 C-4.01 82.7 -3.02 79.4 -2 76 C-3.505625 76.061875 -5.01125 76.12375 -6.5625 76.1875 C-12.31074127 76.1875 -16.49268351 75.18379179 -20.9375 71.3125 C-21.4634375 70.6628125 -21.4634375 70.6628125 -22 70 C-21.93519493 74.73527615 -21.93519493 74.73527615 -19.4453125 78.578125 C-16.04374358 81.17963522 -16.04374358 81.17963522 -12 82 C-11.87625 83.093125 -11.7525 84.18625 -11.625 85.3125 C-11.24535199 89.07381802 -11.24535199 89.07381802 -9 92 C-8.67 90.35 -8.34 88.7 -8 87 C-7.67 88.65 -7.34 90.3 -7 92 C3.21968373 93.61188716 3.21968373 93.61188716 12.875 90.875 C14.21905597 88.84985341 14.21905597 88.84985341 14.8125 85.5625 C16.2942469 81.11725931 18.08390131 80.36597629 22 78 C24.12272015 75.00889434 24.20086799 72.61562381 24 69 C23.67 69 23.34 69 23 69 Z M-29 75 C-28 77 -28 77 -28 77 Z M27 75 C28 77 28 77 28 77 Z M27 82 C27.33 82.99 27.66 83.98 28 85 C28.33 84.01 28.66 83.02 29 82 C28.34 82 27.68 82 27 82 Z M-26 83 C-26.33 84.32 -26.66 85.64 -27 87 C-26.34 86.67 -25.68 86.34 -25 86 C-25.33 85.01 -25.66 84.02 -26 83 Z M29 85 C29.66 85.66 30.32 86.32 31 87 C31 86.34 31 85.68 31 85 C30.34 85 29.68 85 29 85 Z M25 88 C24.731875 89.09054688 24.46375 90.18109375 24.1875 91.3046875 C21.24503211 102.81280579 17.22350783 113.34324925 12 124 C11.61102539 124.79712402 11.22205078 125.59424805 10.82128906 126.41552734 C-0.73112351 149.8209557 -14.91884101 171.99427727 -30.125 193.1875 C-31.75180309 195.4570498 -33.37684139 197.7278423 -35 200 C-35.60134766 200.83869629 -35.60134766 200.83869629 -36.21484375 201.69433594 C-37.36419328 203.30813573 -38.4949775 204.93510845 -39.625 206.5625 C-40.27726563 207.49191406 -40.92953125 208.42132813 -41.6015625 209.37890625 C-43.11236497 212.21060585 -43.30830217 213.84275743 -43 217 C-38.0677374 218.77055581 -33.13723439 220.01464592 -28 221 C-27.13375 221.185625 -26.2675 221.37125 -25.375 221.5625 C-12.19948796 218.44198399 2.10831487 189.7259646 8.69628906 179.13720703 C30.54848835 144.84001811 30.54848835 144.84001811 39.125 105.9375 C39.10695313 104.99777344 39.08890625 104.05804688 39.0703125 103.08984375 C39.04710937 102.40019531 39.02390625 101.71054688 39 101 C36.80666821 103.19333179 36.5508984 104.10047789 35.8515625 107.03515625 C35.54992187 108.25041992 35.54992187 108.25041992 35.2421875 109.49023438 C34.83735804 111.17745082 34.43367259 112.86494225 34.03125 114.55273438 C32.58884843 120.35429258 30.60135272 125.61797487 28 131 C28.18175781 130.37134033 28.36351562 129.74268066 28.55078125 129.0949707 C34.82355261 111.09444268 34.82355261 111.09444268 33.00390625 92.92578125 C30.73188763 89.88934515 28.61951352 88.7115283 25 88 Z M-25 89 C-25 89.66 -25 90.32 -25 91 C-25.66 91 -26.32 91 -27 91 C-31.36574515 95.14084312 -32.42271191 99.9714313 -32.625 105.8125 C-31.95642312 123.56497555 -25.19948185 145.95541168 -14 160 C-11.9349233 160.22469446 -11.9349233 160.22469446 -10.62036133 158.7409668 C-6.56948587 154.02276731 -2.59879251 149.10535146 -1 143 C-1.6694083 136.83233263 -5.45548979 131.54776035 -8.62988281 126.36425781 C-10.74851705 122.70836795 -12.26420594 118.8845311 -13.75 114.9375 C-14.029646 114.21199951 -14.30929199 113.48649902 -14.59741211 112.73901367 C-17.63396926 104.66032185 -19.85757831 96.35248273 -22 88 C-23.2236068 87.9254644 -23.2236068 87.9254644 -25 89 Z M35 89 C36 91 36 91 36 91 Z M-86.625 93.375 C-88.21531408 94.89968321 -88.21531408 94.89968321 -88 97 C-85.36 97.66 -82.72 98.32 -80 99 C-79.67 97.68 -79.34 96.36 -79 95 C-82.63728377 91.71049355 -82.63728377 91.71049355 -86.625 93.375 Z M-14 92 C-13.74438677 94.3431213 -13.40729228 96.67843403 -13 99 C-12.34 99.33 -11.68 99.66 -11 100 C-11.66 97.36 -12.32 94.72 -13 92 C-13.33 92 -13.66 92 -14 92 Z M15 92 C14.01 92.495 14.01 92.495 13 93 C13 94.98 13 96.96 13 99 C13.33 98.01 13.66 97.02 14 96 C14.66 96 15.32 96 16 96 C15.67 94.68 15.34 93.36 15 92 Z M-11 94 C-10.54917531 95.46067199 -10.08906463 96.91848032 -9.625 98.375 C-9.36976563 99.18710938 -9.11453125 99.99921875 -8.8515625 100.8359375 C-8.10145717 103.16459185 -8.10145717 103.16459185 -6 105 C-5.67 104.01 -5.34 103.02 -5 102 C-4.34 103.65 -3.68 105.3 -3 107 C-2.01 107 -1.02 107 0 107 C0.33 103.37 0.66 99.74 1 96 C0.01 96.33 -0.98 96.66 -2 97 C-2.33 97.99 -2.66 98.98 -3 100 C-3.99 98.68 -4.98 97.36 -6 96 C-6.33 96.66 -6.66 97.32 -7 98 C-7.66 96.68 -8.32 95.36 -9 94 C-9.66 94 -10.32 94 -11 94 Z M-69 95 C-68.34 95.66 -67.68 96.32 -67 97 C-67 96.34 -67 95.68 -67 95 C-67.66 95 -68.32 95 -69 95 Z M10 95 C10 97.64 10 100.28 10 103 C10.99 102.34 11.98 101.68 13 101 C12.34 99.02 11.68 97.04 11 95 C10.67 95 10.34 95 10 95 Z M4 96 C2.27072025 97.51990778 2.27072025 97.51990778 1 100 C1.03176766 102.77437543 1.49635852 105.25286467 2 108 C2.66 107.67 3.32 107.34 4 107 C4.65555119 104.47266765 4.65555119 104.47266765 5 102 C5.33 103.32 5.66 104.64 6 106 C6.66 106 7.32 106 8 106 C8.33 102.7 8.66 99.4 9 96 C8.34 96 7.68 96 7 96 C7 96.99 7 97.98 7 99 C6.34 99 5.68 99 5 99 C4.67 98.01 4.34 97.02 4 96 Z M-102 99 C-102 100.32 -102 101.64 -102 103 C-101.34 103 -100.68 103 -100 103 C-100.33 101.68 -100.66 100.36 -101 99 C-101.33 99 -101.66 99 -102 99 Z M-96 102 C-96 102.99 -96 103.98 -96 105 C-89.88019467 106.40454548 -84.28260706 107.23268915 -78 107 C-78 105.68 -78 104.36 -78 103 C-81.5990827 101.40040769 -84.76893855 100.61352275 -88.6875 100.25 C-89.64011719 100.15203125 -90.59273438 100.0540625 -91.57421875 99.953125 C-94.1853821 99.72317313 -94.1853821 99.72317313 -96 102 Z M-71 100 C-71.99 101.485 -71.99 101.485 -73 103 C-72.34 104.32 -71.68 105.64 -71 107 C-69.68 106.67 -68.36 106.34 -67 106 C-67 104.35 -67 102.7 -67 101 C-68.32 100.67 -69.64 100.34 -71 100 Z M98 101 C93.0084132 101.49915868 87.85753045 101.29534145 83 100 C85.29683964 103.25385616 87.64191166 105.55181562 90.875 107.8125 C95.19693342 110.91231367 98.05825802 114.60967295 101 119 C102.33333333 116 102.33333333 116 101 113 C100.74195585 107.75310227 101.02118361 103.94704099 103 99 C100.67642489 98.81509993 100.67642489 98.81509993 98 101 Z M44 101 C43.76925781 102.11375 43.53851563 103.2275 43.30078125 104.375 C34.89851897 144.07207327 15.99792512 178.21752294 -8.71142578 210.21630859 C-9.26169434 210.93254395 -9.81196289 211.6487793 -10.37890625 212.38671875 C-10.88107666 213.03213623 -11.38324707 213.67755371 -11.90063477 214.3425293 C-13.18424804 215.94629658 -13.18424804 215.94629658 -13 218 C-7.33251002 221.1218089 -3.65707498 222.28714128 2.7109375 221.16015625 C5.40436792 220.97170805 7.04556499 221.55299268 9.5625 222.5 C14.19027801 224.09102572 18.41872593 224.13042687 23.25 223.8125 C24.26042358 223.74869141 24.26042358 223.74869141 25.29125977 223.68359375 C29.44353645 223.33855481 33.1647606 222.64531197 37 221 C38.64185993 218.21712945 38.64185993 218.21712945 40 215 C42.68251563 211.00916972 45.27004571 208.35141551 50 207 C49.67 205.35 49.34 203.7 49 202 C43.68026163 202.41723438 40.79494837 203.20505163 37 207 C35.67279454 208.76960728 34.41730218 210.55998523 33.2109375 212.4140625 C32 214 32 214 29 216 C26.66800612 216.07905064 24.33167378 216.08798769 22 216 C22.59167969 215.28714844 23.18335938 214.57429688 23.79296875 213.83984375 C28.05379915 208.67541147 32.20133556 203.51419031 36 198 C36.99 198.495 36.99 198.495 38 199 C40.60931266 198.10636395 40.60931266 198.10636395 43 197 C43 196.01 43 195.02 43 194 C34.21627031 194.45325296 28.22348826 195.33197687 22 202 C19.29120665 203.35439668 16.99066732 203.06501451 14 203 C14.1875 201.1875 14.1875 201.1875 15 199 C16.65071396 197.97388051 18.31970006 196.97691857 20 196 C20.515625 195.175 21.03125 194.35 21.5625 193.5 C25.47895606 189.48312199 30.62141963 189.04019715 36 188 C35.34 186.02 34.68 184.04 34 182 C34.825 182.226875 35.65 182.45375 36.5 182.6875 C40.99519291 183.08885651 44.04802549 182.09753305 48 180 C48.56901031 179.71076157 49.13802063 179.42152313 49.72427368 179.1235199 C52.55067195 177.45329588 54.63464531 176.20431432 55.61701965 172.96612549 C55.81047367 170.46443264 55.78758448 168.05003676 55.68359375 165.54296875 C55.67368912 164.64000565 55.66378448 163.73704254 55.65357971 162.80671692 C55.61449532 159.93196895 55.52669106 157.0610868 55.4375 154.1875 C55.40237815 152.23508132 55.37044067 150.28260259 55.34179688 148.33007812 C55.26475335 143.55190341 55.14401669 138.77660627 55 134 C55.08040527 134.62567871 55.16081055 135.25135742 55.24365234 135.89599609 C55.61200718 138.72355296 55.9933349 141.54921035 56.375 144.375 C56.56449219 145.85226563 56.56449219 145.85226563 56.7578125 147.359375 C56.88671875 148.30039063 57.015625 149.24140625 57.1484375 150.2109375 C57.26364746 151.08024902 57.37885742 151.94956055 57.49755859 152.84521484 C57.84629199 155.19833324 57.84629199 155.19833324 60 157 C61.69214979 150.01855181 63.29843593 143.15595346 64 136 C64 140.62 64 145.24 64 150 C64.66 150 65.32 150 66 150 C66.51949219 149.07058594 67.03898437 148.14117187 67.57421875 147.18359375 C71.11269637 140.89617406 74.61866667 134.75049999 79 129 C79 133.04375329 77.15929221 135.82544035 75.3125 139.3125 C67.61877337 154.08839052 67.61877337 154.08839052 64.9375 170.25 C64.958125 171.4875 64.97875 172.725 65 174 C66.88373192 171.17440212 68.20254938 168.45035413 69.625 165.375 C72.58591671 159.35056056 76.28543929 154.73849249 81 150 C81.33 150.33 81.66 150.66 82 151 C81.47212891 151.73089844 81.47212891 151.73089844 80.93359375 152.4765625 C77.58677742 157.28269561 74.71236981 162.22373841 72.0625 167.4375 C71.744021 168.05254395 71.42554199 168.66758789 71.09741211 169.30126953 C70.33308298 170.83675405 69.658348 172.41617878 69 174 C69.33 174.66 69.66 175.32 70 176 C70.6290625 175.25234375 71.258125 174.5046875 71.90625 173.734375 C78.44362055 166.21246069 83.37483126 161.44130565 93.5 160.0625 C98.7420348 159.72619093 102.28102549 160.77406863 107 163 C106.23558594 163.12375 105.47117187 163.2475 104.68359375 163.375 C95.02451974 165.23474951 87.43723338 169.08703285 79 174 C79 174.33 79 174.66 79 175 C80.19496094 174.97679687 81.38992187 174.95359375 82.62109375 174.9296875 C104.3860428 174.63012789 104.3860428 174.63012789 110 180 C109.40832031 179.7834375 108.81664062 179.566875 108.20703125 179.34375 C102.26339098 177.22239206 102.26339098 177.22239206 96 177 C100.28536925 179.85691283 104.9886158 181.1364974 109.84765625 182.78125 C113 184 113 184 115 186 C114.05640625 185.65066406 113.1128125 185.30132812 112.140625 184.94140625 C104.04887537 182.04098965 96.68231858 180.1778501 88 180 C88.66 181.32 89.32 182.64 90 184 C89.11248047 183.58427734 89.11248047 183.58427734 88.20703125 183.16015625 C87.41683594 182.79792969 86.62664062 182.43570313 85.8125 182.0625 C85.03519531 181.70285156 84.25789063 181.34320313 83.45703125 180.97265625 C77.86995475 178.76092008 74.59751249 179.10718796 68.8125 180.875 C67.58144531 181.24367188 66.35039062 181.61234375 65.08203125 181.9921875 C62.12916063 182.8741381 62.12916063 182.8741381 60 184 C60 184.66 60 185.32 60 186 C61.7015625 186.2784375 61.7015625 186.2784375 63.4375 186.5625 C77.78442311 190.31283604 87.27536451 207.12801805 94.40625 219.06640625 C96.35080043 222.64571354 97.7821221 226.1180142 99 230 C102.97106338 229.41433957 105.81820149 228.19024401 109.25 226.125 C110.12140625 225.61195313 110.9928125 225.09890625 111.890625 224.5703125 C114.28416413 223.10107014 114.28416413 223.10107014 115 220 C115.66 220 116.32 220 117 220 C119.0925242 218.04904245 119.0925242 218.04904245 121.1875 215.5 C122.29158203 214.24703125 122.29158203 214.24703125 123.41796875 212.96875 C125.51455488 209.03441554 124.87770097 206.17336763 124 202 C123.79761719 200.70320313 123.59523438 199.40640625 123.38671875 198.0703125 C122.19739777 191.19715355 120.76712885 184.8373218 117.90234375 178.4375 C116.51041426 174.67748269 116.11682748 170.83065417 115.6875 166.859375 C114.08498344 160.19436295 109.14135279 155.93597805 104.25 151.5 C103.62963867 150.92540039 103.00927734 150.35080078 102.37011719 149.75878906 C99.13965313 146.80160708 95.92260758 144.15339761 92.25 141.75 C89.24660524 139.63555929 88.49443405 138.16528432 87.8125 134.5625 C87.70421875 133.79035156 87.5959375 133.01820313 87.484375 132.22265625 C86.81274187 129.14072682 85.23616029 127.31995385 83.26513672 124.92089844 C81.85674144 122.78248584 81.47144554 121.07064883 80.9296875 118.58203125 C80.02587573 115.75398436 79.43247851 114.33988707 77.08081055 112.49169922 C74.61729302 111.22259093 72.15005453 110.17921843 69.5625 109.1875 C68.2168396 108.62977905 68.2168396 108.62977905 66.84399414 108.06079102 C64.24345101 106.99832688 61.62968691 105.98782229 59 105 C58.31905273 104.74283203 57.63810547 104.48566406 56.93652344 104.22070312 C50.62503247 101.81124273 50.62503247 101.81124273 44 101 Z M62 101 C63 103 63 103 63 103 Z M-50.5 104.375 C-51.24636719 104.50132813 -51.99273437 104.62765625 -52.76171875 104.7578125 C-60.08944008 105.98917868 -60.08944008 105.98917868 -66.0625 110.125 C-68.02073913 113.03077419 -69.44395279 115.94657907 -70.92578125 119.109375 C-72 121 -72 121 -74.625 123.25 C-78.32388105 127.5329149 -79.22796616 132.38731594 -79 138 C-76.66086223 140.53501743 -76.66086223 140.53501743 -74.66015625 141.69921875 C-68.3282317 146.66046786 -67.00324713 159.59083418 -66 167 C-65.69152629 172.66744842 -65.81467059 178.33029276 -66 184 C-62.07835434 181.38556956 -61.13683794 178.4004517 -60 174 C-59.57896752 170.84054486 -59.52494377 167.74695544 -59.5625 164.5625 C-59.56733398 163.27001343 -59.56733398 163.27001343 -59.57226562 161.95141602 C-59.73193553 154.4462422 -61.13155884 147.52029075 -63.125 140.30859375 C-64 137 -64 137 -64 134 C-62.35 137.96 -60.7 141.92 -59 146 C-56.55562941 138.66688822 -59.01207011 130.99879942 -62.0625 124.19140625 C-62.94227195 122.13493932 -63.52312218 120.18072254 -64 118 C-63.05174959 119.32570931 -62.11703784 120.66110365 -61.1875 122 C-60.66542969 122.7425 -60.14335938 123.485 -59.60546875 124.25 C-55.80782201 130.75497155 -54.47325952 137.05584687 -53.8125 144.5 C-53.73064453 145.32242188 -53.64878906 146.14484375 -53.56445312 146.9921875 C-53.36661362 148.99385775 -53.18191276 150.99681953 -53 153 C-50.72525723 149.58788584 -50.43370356 147.3431471 -49.875 143.3125 C-49.70742187 142.13300781 -49.53984375 140.95351562 -49.3671875 139.73828125 C-49.24601562 138.83464844 -49.12484375 137.93101562 -49 137 C-48.97502004 141.37418249 -48.95700938 145.74832563 -48.94506836 150.12255859 C-48.94008292 151.60628992 -48.93329215 153.09001646 -48.92456055 154.57373047 C-48.87753603 162.77812616 -48.9783645 170.84300472 -50 179 C-47.05250811 175.33602691 -45.93308086 171.83685377 -44.875 167.3125 C-44.62169922 166.30799805 -44.62169922 166.30799805 -44.36328125 165.28320312 C-42.31773401 156.85136078 -41.85023968 148.58969614 -41.9375 139.9375 C-41.94201172 139.07189453 -41.94652344 138.20628906 -41.95117188 137.31445312 C-41.96280087 135.20960461 -41.98072927 133.10479242 -42 131 C-38.87495348 149.57386523 -40.69914599 168.38660339 -48.10595703 185.68676758 C-49.70015497 189.52147333 -50.45269238 192.0316696 -49 196 C-47.04190477 198.29289472 -47.04190477 198.29289472 -45 200 C-50.75 199.125 -50.75 199.125 -53 198 C-53 199.98 -53 201.96 -53 204 C-50.22161192 205.69482998 -50.22161192 205.69482998 -47.0546875 205.73046875 C-36.84557752 202.10099429 -27.95299455 185.29323869 -22.546875 176.4375 C-21.12786439 174.20148328 -19.59177362 172.18839505 -17.9375 170.125 C-16.9784375 168.578125 -16.9784375 168.578125 -16 167 C-16.61990484 164.64900944 -16.61990484 164.64900944 -18 162 C-18.27787354 161.41105957 -18.55574707 160.82211914 -18.84204102 160.21533203 C-19.47855782 158.8665665 -20.12045038 157.52032875 -20.7668457 156.17626953 C-29.13154098 138.76723528 -34.04977784 122.01951735 -37 103 C-41.63108251 102.79784957 -45.96340298 103.56013629 -50.5 104.375 Z M-101 108 C-100.938125 109.27875 -100.87625 110.5575 -100.8125 111.875 C-100.70703125 114.0546875 -100.70703125 114.0546875 -101 116 C-101.99 116.66 -102.98 117.32 -104 118 C-103.88437394 119.39664108 -103.757008 120.79231199 -103.625 122.1875 C-103.55539063 122.96480469 -103.48578125 123.74210937 -103.4140625 124.54296875 C-103.09510608 127.04851364 -103.09510608 127.04851364 -101.94921875 129.38671875 C-100.43056899 133.56769277 -101.12220666 137.65777316 -101.41796875 142.0390625 C-101.31173923 145.17780642 -101.31173923 145.17780642 -98.6875 146.9375 C-95.9692017 148.29171471 -95.9692017 148.29171471 -92.8125 147.375 C-89.7495641 146.17020643 -89.7495641 146.17020643 -88 143 C-88.495 141.515 -88.495 141.515 -89 140 C-89.33 140 -89.66 140 -90 140 C-89.9071875 138.4840625 -89.9071875 138.4840625 -89.8125 136.9375 C-90.03146367 132.33926295 -90.76548194 129.99021082 -93 126 C-95.06890419 124.95710245 -95.06890419 124.95710245 -97 125 C-97 124.34 -97 123.68 -97 123 C-96.06027344 122.85304688 -96.06027344 122.85304688 -95.1015625 122.703125 C-94.28429687 122.55359375 -93.46703125 122.4040625 -92.625 122.25 C-91.81289062 122.11078125 -91.00078125 121.9715625 -90.1640625 121.828125 C-87.47657938 121.07902504 -87.47657938 121.07902504 -86 117 C-89.63 116.34 -93.26 115.68 -97 115 C-94.05613377 113.52806688 -91.62609964 114.15063827 -88.375 114.4375 C-87.18648437 114.53933594 -85.99796875 114.64117187 -84.7734375 114.74609375 C-83.85820313 114.82988281 -82.94296875 114.91367188 -82 115 C-81.67 113.68 -81.34 112.36 -81 111 C-86.27013325 107.63297042 -95.14875956 105.07437978 -101 108 Z M-75 111 C-75 112.98 -75 114.96 -75 117 C-74.01 116.67 -73.02 116.34 -72 116 C-72 114.68 -72 113.36 -72 112 C-72.99 111.67 -73.98 111.34 -75 111 Z M85 113 C85.33 114.32 85.66 115.64 86 117 C86.66 116.34 87.32 115.68 88 115 C87.34 115 86.68 115 86 115 C85.67 114.34 85.34 113.68 85 113 Z M105 125 C104.67 125.66 104.34 126.32 104 127 C104.66 127 105.32 127 106 127 C105.67 126.34 105.34 125.68 105 125 Z M-108 134 C-107 137 -107 137 -107 137 Z M96 137 C97 139 97 139 97 139 Z M-106 141 C-107.54660079 142.87362589 -107.54660079 142.87362589 -109.125 145.3125 C-111.72834223 149.15501139 -114.40683895 152.90878944 -117.1875 156.625 C-126.02753666 168.73722078 -127.77899859 180.48661178 -125.68359375 195.22558594 C-124.16806644 203.05703651 -121.7935508 211.2064492 -116 217 C-102.32508077 217 -85.23024902 207.48683268 -74 200 C-67.76887134 184.18251955 -68.64191689 165.17691756 -73 149 C-73.9409608 146.9715541 -74.92355459 144.95991461 -76 143 C-77.17015075 146.51045225 -76.44337956 148.25196251 -75.50244141 151.72558594 C-74.63026753 155.67367723 -74.66019602 159.59649225 -74.6875 163.625 C-74.69595947 164.93887695 -74.69595947 164.93887695 -74.70458984 166.27929688 C-74.93594527 178.78623396 -77.79950803 189.04379089 -84 200 C-84.66 200 -85.32 200 -86 200 C-85.59007812 199.04480469 -85.18015625 198.08960938 -84.7578125 197.10546875 C-84.21296717 195.79971874 -83.66872942 194.49371509 -83.125 193.1875 C-82.85558594 192.56423828 -82.58617187 191.94097656 -82.30859375 191.29882812 C-78.41804806 181.85713798 -77.66992281 172.31059175 -77.75 162.1875 C-77.74226563 161.19041016 -77.73453125 160.19332031 -77.7265625 159.16601562 C-77.74017555 154.05091277 -77.95353322 149.78321005 -80 145 C-81.96583924 147.94875886 -82.29667517 148.90687149 -82.640625 152.25390625 C-82.78697388 153.5222229 -82.78697388 153.5222229 -82.9362793 154.81616211 C-83.03980713 155.72245361 -83.14333496 156.62874512 -83.25 157.5625 C-85.73310293 176.59089255 -92.16278203 196.83458124 -107 210 C-107.66 210 -108.32 210 -109 210 C-108.67 209.34 -108.34 208.68 -108 208 C-107.89665742 206.45095794 -107.85410284 204.89765528 -107.84228516 203.34521484 C-107.83202301 202.37595062 -107.82176086 201.4066864 -107.81118774 200.40805054 C-107.80023575 198.82547958 -107.80023575 198.82547958 -107.7890625 197.2109375 C-107.76094943 194.9661391 -107.7322848 192.72134755 -107.703125 190.4765625 C-107.66220378 186.94661989 -107.62531595 183.41679911 -107.59863281 179.88671875 C-107.48965146 166.61354122 -107.18962027 153.93772842 -104 141 C-104.66 141 -105.32 141 -106 141 Z M102 143 C103 145 103 145 103 145 Z M104 145 C105 147 105 147 105 147 Z M106 147 C107 149 107 149 107 149 Z M108 149 C109 151 109 151 109 151 Z M114 155 C114.33 155.99 114.66 156.98 115 158 C115.66 157.67 116.32 157.34 117 157 C116.01 156.34 115.02 155.68 114 155 Z M-133 178 C-133.1959375 178.67546875 -133.391875 179.3509375 -133.59375 180.046875 C-135.99871762 187.2203129 -135.99871762 187.2203129 -138.90625 189.484375 C-140.91103862 190.45684709 -142.90437677 191.2468854 -145 192 C-146.34069844 192.65172841 -147.67625609 193.31448976 -149 194 C-148.38511719 194.20496094 -147.77023438 194.40992188 -147.13671875 194.62109375 C-142.06835938 196.31054688 -142.06835938 196.31054688 -137 198 C-135.9375 200.75 -135.9375 200.75 -135 204 C-134.34588315 205.67163195 -133.68346682 207.34015202 -133 209 C-132.67 209 -132.34 209 -132 209 C-132 198.77 -132 188.54 -132 178 C-132.33 178 -132.66 178 -133 178 Z M132 178 C132.03552979 178.58378418 132.07105957 179.16756836 132.10766602 179.76904297 C132.26741355 182.47061643 132.41500419 185.17273101 132.5625 187.875 C132.61857422 188.7928125 132.67464844 189.710625 132.73242188 190.65625 C133.06105348 196.87834177 132.8052264 202.82183958 132 209 C134.05385904 206.94614096 134.53187833 205.76378979 135.5625 203.125 C137.70486134 198.62848495 140.4032341 197.41479718 144.9765625 195.7890625 C147.1832373 195.08468672 147.1832373 195.08468672 149 193 C147.5437455 192.32880451 146.08492133 191.66318193 144.625 191 C143.81289063 190.62875 143.00078125 190.2575 142.1640625 189.875 C140.08001567 188.87504987 140.08001567 188.87504987 138 189 C136.13448574 185.41247258 134.57464072 181.72187807 133 178 C132.67 178 132.34 178 132 178 Z M48 186 C47.67 186.66 47.34 187.32 47 188 C48.98 188.99 50.96 189.98 53 191 C52.01 191.495 52.01 191.495 51 192 C51 192.66 51 193.32 51 194 C53.97 194.495 53.97 194.495 57 195 C57.020625 195.598125 57.04125 196.19625 57.0625 196.8125 C58.55271861 200.28967676 61.62125266 200.63664581 65 202 C67.1519437 205.22791555 67.20086443 206.28400809 67 210 C70.18819807 209.07710056 71.66440282 208.51737898 73.5 205.6875 C74.27561434 202.94301928 74.27561434 202.94301928 72.8125 200.375 C70.61073596 197.48858801 70.61073596 197.48858801 68 195 C67.34 195 66.68 195 66 195 C66 194.34 66 193.68 66 193 C61.81787877 188.67847473 56.72013879 187.27975987 51 186 C50.01 186 49.02 186 48 186 Z M-63 193 C-63.33 193.66 -63.66 194.32 -64 195 C-63.34 195 -62.68 195 -62 195 C-62.33 194.34 -62.66 193.68 -63 193 Z M-66 201 C-66.66 201.99 -67.32 202.98 -68 204 C-68.66 203.67 -69.32 203.34 -70 203 C-70 204.32 -70 205.64 -70 207 C-70.99 206.67 -71.98 206.34 -73 206 C-74.98330173 206.86649466 -74.98330173 206.86649466 -77 208 C-78.32860925 208.35169068 -79.66158328 208.68770276 -81 209 C-83.51083114 210.25541557 -83.87125446 211.50063488 -85 214 C-85.66 213.01 -86.32 212.02 -87 211 C-88.37562854 212.28965176 -89.70766393 213.62689293 -91 215 C-91 215.66 -91 216.32 -91 217 C-91.66 217 -92.32 217 -93 217 C-93 217.66 -93 218.32 -93 219 C-93.886875 218.979375 -94.77375 218.95875 -95.6875 218.9375 C-98.64106547 218.99322765 -101.12431576 219.41011605 -104 220 C-105.6662553 220.0370279 -107.33401319 220.04759962 -109 220 C-109.33 220.66 -109.66 221.32 -110 222 C-112.64860427 222.59355614 -115.29197322 222.74209269 -118 223 C-118 223.66 -118 224.32 -118 225 C-118.66 225 -119.32 225 -120 225 C-121.01111093 228.04913228 -121.01111093 228.04913228 -120 231 C-119.34 231 -118.68 231 -118 231 C-117.20046862 234.28696233 -116.90341064 235.71023192 -118 239 C-116.15811388 241.05270463 -116.15811388 241.05270463 -114 242 C-114.103125 243.051875 -114.20625 244.10375 -114.3125 245.1875 C-114.34940759 249.13170331 -114.34940759 249.13170331 -111.625 251.9375 C-109.29428432 254.20594052 -109.29428432 254.20594052 -107 254 C-106.67 255.65 -106.34 257.3 -106 259 C-105.2575 258.773125 -104.515 258.54625 -103.75 258.3125 C-101 258 -101 258 -98.6875 259.1875 C-97 261 -97 261 -97 265 C-95.5833253 266.7511573 -95.5833253 266.7511573 -94 268 C-92.515 267.505 -92.515 267.505 -91 267 C-91 268.65 -91 270.3 -91 272 C-90.34 272.33 -89.68 272.66 -89 273 C-87.875 275.0625 -87.875 275.0625 -87 277 C-86.34 277 -85.68 277 -85 277 C-85 277.99 -85 278.98 -85 280 C-82.52733235 279.65555119 -82.52733235 279.65555119 -80 279 C-78.99983813 276.99967627 -78.50603992 275.16874252 -78 273 C-77.01 273.99 -77.01 273.99 -76 275 C-75.34 272.36 -74.68 269.72 -74 267 C-73.34 267 -72.68 267 -72 267 C-72 265.68 -72 264.36 -72 263 C-70.68 263.33 -69.36 263.66 -68 264 C-67.54625 262.88625 -67.0925 261.7725 -66.625 260.625 C-65 257 -65 257 -63 255 C-62.835 254.154375 -62.67 253.30875 -62.5 252.4375 C-62.335 251.633125 -62.17 250.82875 -62 250 C-61.34 249.67 -60.68 249.34 -60 249 C-59.80568235 246.95966465 -59.61142512 244.91932344 -59.41796875 242.87890625 C-59 241 -59 241 -56.9375 239.5 C-55.9784375 239.2525 -55.9784375 239.2525 -55 239 C-55 238.01 -55 237.02 -55 236 C-54.01 236 -53.02 236 -52 236 C-52.33 235.34 -52.66 234.68 -53 234 C-55.42608405 228.1029343 -55.98099453 224.37646443 -55 218 C-56.08228372 215.05338662 -56.08228372 215.05338662 -58 213 C-58.99 213 -59.98 213 -61 213 C-61 213.66 -61 214.32 -61 215 C-61.66 214.67 -62.32 214.34 -63 214 C-63.125 209.25 -63.125 209.25 -62 207 C-62.495 206.01 -62.495 206.01 -63 205 C-63.495 204.01 -63.495 204.01 -64 203 C-63.67 202.34 -63.34 201.68 -63 201 C-63.99 201 -64.98 201 -66 201 Z M-62 201 C-61 205 -61 205 -61 205 Z M-61 205 C-60 207 -60 207 -60 207 Z M-60 209 C-59 211 -59 211 -59 211 Z M54 209 C49.66012875 213.21115317 49.66012875 213.21115317 46 218 C46 218.66 46 219.32 46 220 C48.9008605 219.64701919 49.89516676 219.11271704 51.921875 216.93359375 C52.52515625 216.10988281 53.1284375 215.28617188 53.75 214.4375 C54.36359375 213.61121094 54.9771875 212.78492188 55.609375 211.93359375 C56.06828125 211.29550781 56.5271875 210.65742188 57 210 C56.01 209.67 55.02 209.34 54 209 Z M-63 212 C-62 214 -62 214 -62 214 Z M71 216 C73.08192146 220.86817455 76.26355816 222.85533913 81 225 C84.64117502 225.9330212 88.27130751 226.54076765 92 227 C91.67 226.01 91.34 225.02 91 224 C88.41343802 222.88881487 88.41343802 222.88881487 85.3125 222.0625 C80.50505449 220.58196684 77.01779615 218.96048138 73 216 C72.34 216 71.68 216 71 216 Z M64 217 C64.33 217.66 64.66 218.32 65 219 C65.66 218.67 66.32 218.34 67 218 C66.01 217.67 65.02 217.34 64 217 Z M-102 217 C-102.66 217.66 -103.32 218.32 -104 219 C-103.01 219 -102.02 219 -101 219 C-101.33 218.34 -101.66 217.68 -102 217 Z M62 218 C61.34 218.66 60.68 219.32 60 220 C62.11850479 227.87490105 62.11850479 227.87490105 66 235 C64.68 234.67 63.36 234.34 62 234 C60.515 236.475 60.515 236.475 59 239 C59.66 239 60.32 239 61 239 C61 239.66 61 240.32 61 241 C62.32 241 63.64 241 65 241 C64.95359375 241.59167969 64.9071875 242.18335938 64.859375 242.79296875 C64.60208863 248.42570241 65.15991769 250.6799074 69 255 C69.0396713 256.66619446 69.04384447 258.33391013 69 260 C70.27159652 261.85602615 70.27159652 261.85602615 72 263 C72.66 263 73.32 263 74 263 C74 263.66 74 264.32 74 265 C74.99 265.66 75.98 266.32 77 267 C77.33 267.66 77.66 268.32 78 269 C78.66 269 79.32 269 80 269 C80.144375 269.9075 80.28875 270.815 80.4375 271.75 C80.86409473 274.21476956 81.35074221 276.58847107 82 279 C82.99 278.505 82.99 278.505 84 278 C84 277.01 84 276.02 84 275 C84.928125 274.8453125 84.928125 274.8453125 85.875 274.6875 C88.36526484 274.12474627 88.36526484 274.12474627 90 271 C89.505 270.505 89.505 270.505 89 270 C90.175625 270.0928125 90.175625 270.0928125 91.375 270.1875 C92.24125 270.125625 93.1075 270.06375 94 270 C96.18490007 267.32357511 96.18490007 267.32357511 96 265 C96.99 264.360625 97.98 263.72125 99 263.0625 C99.99 262.381875 100.98 261.70125 102 261 C102 260.01 102 259.02 102 258 C103.11375 257.855625 104.2275 257.71125 105.375 257.5625 C108.82142047 257.21627965 108.82142047 257.21627965 111 256 C111.57954213 254.08155935 111.57954213 254.08155935 111.9375 251.8125 C112.55718316 248.66410975 113.20255713 246.60238787 114.6875 243.6875 C116.24023165 241.13547 116.24023165 241.13547 115.6875 238.625 C115.460625 238.08875 115.23375 237.5525 115 237 C115.66 237 116.32 237 117 237 C117.5534764 234.92446352 118 233.15634036 118 231 C118.66666667 229.66666667 119.33333333 228.33333333 120 227 C120 226.34 120 225.68 120 225 C118.35 225.33 116.7 225.66 115 226 C114.67 227.65 114.34 229.3 114 231 C113.01 230.67 112.02 230.34 111 230 C110.608125 230.433125 110.21625 230.86625 109.8125 231.3125 C106.82266933 234.09613545 104.33015383 235.91132308 100.1875 236.1875 C99.465625 236.125625 98.74375 236.06375 98 236 C97.505 235.01 97.505 235.01 97 234 C95.35 234 93.7 234 92 234 C92 233.34 92 232.68 92 232 C91.01 232.33 90.02 232.66 89 233 C88.26676204 235.01508358 88.26676204 235.01508358 88 237 C87.34 237 86.68 237 86 237 C86 235.68 86 234.36 86 233 C84.68 233 83.36 233 82 233 C82 233.66 82 234.32 82 235 C78.39846838 233.34524223 76.7025523 231.91074922 75.1875 228.3125 C74.795625 227.219375 74.40375 226.12625 74 225 C73.34 225.66 72.68 226.32 72 227 C71.7525 226.21625 71.505 225.4325 71.25 224.625 C69.80253303 221.58531937 69.06085181 221.17032569 66 220 C64.66666667 219.33333333 63.33333333 218.66666667 62 218 Z M-120 221 C-120.33 221.66 -120.66 222.32 -121 223 C-120.01 222.67 -119.02 222.34 -118 222 C-118.66 221.67 -119.32 221.34 -120 221 Z M-48 221 C-49.54586876 224.09173752 -49.29359521 226.59429552 -49 230 C-42.93643551 237.45429029 -32.00329505 238.67649821 -23 240 C-22.32942113 238.2097939 -21.6636531 236.41778511 -21 234.625 C-20.62875 233.62726563 -20.2575 232.62953125 -19.875 231.6015625 C-18.89373723 229.14151939 -18.89373723 229.14151939 -19 227 C-23.2695936 225.99465576 -27.54086684 224.99663958 -31.8125 224 C-33.02744141 223.71382812 -34.24238281 223.42765625 -35.49414062 223.1328125 C-37.23920898 222.72675781 -37.23920898 222.72675781 -39.01953125 222.3125 C-40.09307861 222.06113281 -41.16662598 221.80976563 -42.27270508 221.55078125 C-45.02637977 220.90102246 -45.02637977 220.90102246 -48 221 Z M-122 223 C-121 225 -121 225 -121 225 Z M46.5546875 223.70703125 C44.93820313 223.9690332 44.93820313 223.9690332 43.2890625 224.23632812 C41.59910156 224.5215332 41.59910156 224.5215332 39.875 224.8125 C38.7715625 224.99103516 37.668125 225.16957031 36.53125 225.35351562 C30.30115154 226.37830023 24.14817849 227.56369192 18 229 C18.54339792 233.56454251 19.79463821 236.9728176 22 241 C27.86266755 241.19189318 32.94271001 240.59274258 38.625 239.1875 C39.34945312 239.02185547 40.07390625 238.85621094 40.8203125 238.68554688 C45.20769922 237.6324151 49.07903108 236.31313258 53 234 C54.94993721 230.63192664 55.219963 227.84935246 55 224 C51.619423 222.873141 50.03285469 223.13558109 46.5546875 223.70703125 Z M-55 225 C-54 229 -54 229 -54 229 Z M-11 225 C-15.23392795 229.52931828 -16.92070184 233.42930573 -17.26953125 239.6328125 C-16.71106032 244.53764418 -13.45203088 246.67997193 -9.9375 249.875 C-7.79687921 251.33475701 -7.79687921 251.33475701 -4 251 C-0.71862457 245.43592862 0.85717746 239.68586308 -0.625 233.3125 C-2.51266894 230.13778406 -4.40451161 227.65728574 -7 225 C-8.32 225 -9.64 225 -11 225 Z M4 225 C1.90598084 227.09401916 2.62673898 231.53491756 2.5 234.4375 C2.17958485 240.98691507 1.73594698 247.48161243 1 254 C3.84029548 254.05680591 5.42518217 254.06597458 8 253 C12.00904104 248.53861141 14.79471405 243.72003884 15.25 237.6875 C14.91680859 232.7729267 13.61874835 229.56653066 10.0625 226.125 C7.80629766 224.68076525 7.80629766 224.68076525 4 225 Z M81 229 C81.33 229.66 81.66 230.32 82 231 C82.99 230.67 83.98 230.34 85 230 C83.68 229.67 82.36 229.34 81 229 Z M-54 231 C-53 233 -53 233 -53 233 Z M118 232 C118.66 232.66 119.32 233.32 120 234 C120 233.34 120 232.68 120 232 C119.34 232 118.68 232 118 232 Z M103 233 C102.67 233.66 102.34 234.32 102 235 C102.66 235 103.32 235 104 235 C103.67 234.34 103.34 233.68 103 233 Z M118 235 C119 237 119 237 119 237 Z M58 239 C59 241 59 241 59 241 Z M59 241 C60 243 60 243 60 243 Z M116 241 C117 243 117 243 117 243 Z M115 243 C116 245 116 245 116 245 Z M-44 247 C-44 247.66 -44 248.32 -44 249 C-45.98 249.99 -45.98 249.99 -48 251 C-48 251.66 -48 252.32 -48 253 C-48.66 253 -49.32 253 -50 253 C-50.33 251.35 -50.66 249.7 -51 248 C-54.73251454 252.58715572 -58.21771682 257.33249745 -61.69628906 262.11230469 C-63.94736597 265.20358287 -66.20516415 268.28491863 -68.53125 271.3203125 C-69.2634375 272.28710938 -69.995625 273.25390625 -70.75 274.25 C-71.40484375 275.10078125 -72.0596875 275.9515625 -72.734375 276.828125 C-73.36085938 277.90320313 -73.36085938 277.90320313 -74 279 C-72.68374806 282.94875582 -70.94634602 283.54992713 -67.4375 285.6875 C-66.42558594 286.31011719 -65.41367188 286.93273437 -64.37109375 287.57421875 C-63.58863281 288.04472656 -62.80617188 288.51523437 -62 289 C-57.56302966 284.9280455 -54.44339504 280.41998124 -51.1875 275.375 C-50.12929589 273.76190977 -49.06940066 272.14992767 -48.0078125 270.5390625 C-47.49508789 269.76079102 -46.98236328 268.98251953 -46.45410156 268.18066406 C-42.59098523 262.38728678 -38.5654387 256.7095922 -33.9375 251.5 C-32.9784375 250.2625 -32.9784375 250.2625 -32 249 C-32.67171444 245.93107766 -32.67171444 245.93107766 -34.875 244.8125 C-38.97975016 243.2430367 -40.87654898 244.19966461 -44 247 Z M-27.875 249.4375 C-37.64916145 259.23603187 -44.94575703 271.09475878 -52.1875 282.8125 C-52.65736328 283.57119385 -53.12722656 284.3298877 -53.61132812 285.11157227 C-54.25811523 286.17976196 -54.25811523 286.17976196 -54.91796875 287.26953125 C-55.29719482 287.89448486 -55.6764209 288.51943848 -56.06713867 289.16333008 C-57.04635161 291.09125966 -57.5581347 292.88925466 -58 295 C-56.25395451 296.4630657 -54.50300547 297.9202808 -52.75 299.375 C-51.77546875 300.18710937 -50.8009375 300.99921875 -49.796875 301.8359375 C-47.5447318 303.57851757 -45.59288614 304.876416 -43 306 C-38.63091552 298.12170404 -34.56641119 290.21388059 -31 281.9375 C-26.70588468 272.02563905 -21.96651954 262.33824573 -15 254 C-16.5277867 250.56247993 -18.50181056 247.81046312 -21 245 C-24.25828455 245 -25.59598877 247.21463832 -27.875 249.4375 Z M61 245 C62 247 62 247 62 247 Z M47 246 C45.948125 245.938125 44.89625 245.87625 43.8125 245.8125 C39.08202831 246.04514615 36.03057703 247.654937 32 250 C32.8944202 254.45093489 35.35730254 257.45731905 38.0625 261 C43.74704051 268.59258651 49.04534167 276.38924854 54.1640625 284.375 C54.87304688 285.468125 55.58203125 286.56125 56.3125 287.6875 C56.94800781 288.68136719 57.58351562 289.67523438 58.23828125 290.69921875 C59.86223548 293.2657341 59.86223548 293.2657341 63 294 C64.96752145 293.49790162 64.96752145 293.49790162 67.01171875 292.56640625 C67.76904297 292.24736328 68.52636719 291.92832031 69.30664062 291.59960938 C70.48516602 291.08624023 70.48516602 291.08624023 71.6875 290.5625 C72.48478516 290.22412109 73.28207031 289.88574219 74.10351562 289.53710938 C76.07265607 288.6999299 78.03682084 287.8510647 80 287 C80 282.78675724 77.8302693 280.12679551 75.625 276.6875 C75.17527832 275.97907959 74.72555664 275.27065918 74.26220703 274.54077148 C64.3294218 258.80672116 64.3294218 258.80672116 52 245 C49.78918149 244.89459074 49.78918149 244.89459074 47 246 Z M18 247 C17.73445312 247.63808594 17.46890625 248.27617187 17.1953125 248.93359375 C16.84210938 249.75988281 16.48890625 250.58617187 16.125 251.4375 C15.77695313 252.26121094 15.42890625 253.08492187 15.0703125 253.93359375 C14 256 14 256 12 257 C13.3833901 259.87021123 14.93535127 262.55033778 16.625 265.25 C19.2381294 269.56734423 21.53117411 273.97363953 23.75 278.5 C28.17150329 287.51768325 33.0619293 296.2571863 38 305 C41.8461622 303.15003985 45.26658589 300.82487366 48.75 298.375 C49.35199219 297.95476562 49.95398438 297.53453125 50.57421875 297.1015625 C52.05113043 296.07006863 53.52579194 295.03535421 55 294 C53.64407542 290.19663155 51.92264119 287.28441421 49.5 284.0625 C46.71266613 280.31575774 43.96200978 276.55233359 41.27099609 272.73632812 C31.45423817 258.67610945 31.45423817 258.67610945 19 247 C18.67 247 18.34 247 18 247 Z M62 247 C63 249 63 249 63 249 Z M63 249 C64 251 64 251 64 251 Z M-110 255 C-109 257 -109 257 -109 257 Z M-14.8515625 259.83984375 C-23.79291186 271.19130991 -37 293.25633823 -37 308 C-32.68201197 309.38501503 -28.34449787 310.7011199 -24 312 C-22.69820801 312.39324463 -22.69820801 312.39324463 -21.37011719 312.79443359 C-18.50189585 313.6525123 -15.62706798 314.48461197 -12.75 315.3125 C-11.82815918 315.59109863 -10.90631836 315.86969727 -9.95654297 316.15673828 C-3.87932457 317.87362061 0.82256074 318.25149031 7 317 C8.02496582 316.79431396 9.04993164 316.58862793 10.10595703 316.37670898 C13.56041774 315.64656048 16.99853888 314.86230301 20.4375 314.0625 C21.62021484 313.79759766 22.80292969 313.53269531 24.02148438 313.25976562 C25.14748047 313.00001953 26.27347656 312.74027344 27.43359375 312.47265625 C28.45509521 312.23812744 29.47659668 312.00359863 30.52905273 311.76196289 C33.14573777 311.1658233 33.14573777 311.1658233 35 309 C30.42949311 299.74958579 25.77617756 290.55666424 20.875 281.4765625 C19.69598369 279.29046976 18.52769069 277.09852502 17.375 274.8984375 C15.9655446 272.23368588 14.50949183 269.60920472 13 267 C12.56558594 266.236875 12.13117188 265.47375 11.68359375 264.6875 C7.77880285 258.63563034 2.87190033 256.70674649 -4 255 C-8.51829178 255 -11.72262907 256.7307137 -14.8515625 259.83984375 Z M-109 257 C-108 259 -108 259 -108 259 Z M-65 257 C-64 259 -64 259 -64 259 Z M-101 259 C-100 261 -100 261 -100 261 Z M-98 263 C-97 265 -97 265 -97 265 Z M73 265 C74 267 74 267 74 267 Z M-109 266 C-108.94779297 266.90878906 -108.94779297 266.90878906 -108.89453125 267.8359375 C-108.68175616 274.42183303 -109.7878232 279.81117204 -112 286 C-111.2678125 285.85046875 -110.535625 285.7009375 -109.78125 285.546875 C-99.05438687 283.43766034 -99.05438687 283.43766034 -95.1875 285.5 C-94.465625 285.995 -93.74375 286.49 -93 287 C-90.88847185 286.64293218 -90.88847185 286.64293218 -89 286 C-89.71285156 285.47792969 -90.42570312 284.95585937 -91.16015625 284.41796875 C-97.45687985 279.57889853 -101.76803184 275.02715108 -105.66015625 268.08984375 C-106.10230469 267.40019531 -106.54445313 266.71054687 -107 266 C-107.66 266 -108.32 266 -109 266 Z M108 266 C106.96638622 267.61219642 105.99954019 269.26732324 105.0625 270.9375 C101.11234465 277.39834731 96.05704437 281.5640091 90 286 C90.99 286.33 91.98 286.66 93 287 C93.86625 286.505 94.7325 286.01 95.625 285.5 C101.415863 282.92628311 106.97437088 284.77157649 113 286 C112.7834375 285.31035156 112.566875 284.62070312 112.34375 283.91015625 C110.50372836 277.7000832 109.68181715 272.46971792 110 266 C109.34 266 108.68 266 108 266 Z M-72 267 C-71 269 -71 269 -71 269 Z M-75 271 C-74 273 -74 273 -74 273 Z M77 271 C78 273 78 273 78 273 Z M-84 281 C-83 283 -83 283 -83 283 Z M-76 287 C-75 289 -75 289 -75 289 Z M-74 289 C-74 289.66 -74 290.32 -74 291 C-75.98 291 -77.96 291 -80 291 C-79.37240135 293.92879371 -78.41377341 296.36095629 -77 299 C-76.67 298.34 -76.34 297.68 -76 297 C-75.34 297 -74.68 297 -74 297 C-74 297.66 -74 298.32 -74 299 C-71.09432866 301.01782732 -68.48330216 302.35494404 -65 303 C-65 303.66 -65 304.32 -65 305 C-63.02 305.99 -61.04 306.98 -59 308 C-59.33 308.66 -59.66 309.32 -60 310 C-59.38125 310.309375 -58.7625 310.61875 -58.125 310.9375 C-56.75 311.625 -55.375 312.3125 -54 313 C-54 312.34 -54 311.68 -54 311 C-52.68 310.34 -51.36 309.68 -50 309 C-50.433125 308.566875 -50.86625 308.13375 -51.3125 307.6875 C-52.875 306.125 -54.4375 304.5625 -56 303 C-56 303.66 -56 304.32 -56 305 C-60.23548286 302.88225857 -61.38988385 301.37031527 -63 297 C-63.99 296.67 -64.98 296.34 -66 296 C-66.33 295.01 -66.66 294.02 -67 293 C-67.33 293.66 -67.66 294.32 -68 295 C-68.66 295 -69.32 295 -70 295 C-69.67 294.01 -69.34 293.02 -69 292 C-70.65 291.01 -72.3 290.02 -74 289 Z M80 291 C79.67 291.66 79.34 292.32 79 293 C79.66 293.66 80.32 294.32 81 295 C81.66 294.34 82.32 293.68 83 293 C82.67 292.34 82.34 291.68 82 291 C81.34 291 80.68 291 80 291 Z M75 293 C76 295 76 295 76 295 Z M70 296 C70.33 297.65 70.66 299.3 71 301 C71.99 301 72.98 301 74 301 C73.67 299.35 73.34 297.7 73 296 C72.01 296 71.02 296 70 296 Z M-61 299 C-60.67 299.99 -60.34 300.98 -60 302 C-60 301.01 -60 300.02 -60 299 C-60.33 299 -60.66 299 -61 299 Z M63 299 C62.67 299.66 62.34 300.32 62 301 C62.66 301 63.32 301 64 301 C63.67 300.34 63.34 299.68 63 299 Z M66 301 C66 301.66 66 302.32 66 303 C66.66 303 67.32 303 68 303 C68 302.34 68 301.68 68 301 C67.34 301 66.68 301 66 301 Z M60 302 C60 302.99 60 303.98 60 305 C59.01 305.33 58.02 305.66 57 306 C57 306.33 57 306.66 57 307 C59.31 307.33 61.62 307.66 64 308 C64 307.01 64 306.02 64 305 C64 304.34 64 303.68 64 303 C62.68 302.67 61.36 302.34 60 302 Z M-70 303 C-69.34 303.66 -68.68 304.32 -68 305 C-68 304.34 -68 303.68 -68 303 C-68.66 303 -69.32 303 -70 303 Z M68 303 C68.33 303.66 68.66 304.32 69 305 C69.33 304.34 69.66 303.68 70 303 C69.34 303 68.68 303 68 303 Z M-49 309 C-48.01 310.485 -48.01 310.485 -47 312 C-46.34 311.67 -45.68 311.34 -45 311 C-46.32 310.34 -47.64 309.68 -49 309 Z M49 309 C48.67 309.66 48.34 310.32 48 311 C48.66 311 49.32 311 50 311 C49.67 310.34 49.34 309.68 49 309 Z M53 309 C54 311 54 311 54 311 Z M55 309 C54.67 310.32 54.34 311.64 54 313 C54.99 312.34 55.98 311.68 57 311 C56.34 310.34 55.68 309.68 55 309 Z M59 309 C60 311 60 311 60 311 Z M-44 312 C-44.99 313.485 -44.99 313.485 -46 315 C-43.5800956 317.92935796 -41.70218483 318.44467228 -38 319 C-37.01 319.33 -36.02 319.66 -35 320 C-34.01 319.67 -33.02 319.34 -32 319 C-32 319.66 -32 320.32 -32 321 C-30.906875 321.12375 -29.81375 321.2475 -28.6875 321.375 C-25 322 -25 322 -22 324 C-19.35367713 323.6878236 -19.35367713 323.6878236 -17 323 C-17.33 322.01 -17.66 321.02 -18 320 C-19.99920291 319.1541477 -19.99920291 319.1541477 -22.375 318.75 C-23.56222656 318.49476563 -23.56222656 318.49476563 -24.7734375 318.234375 C-27.17015491 317.82682778 -27.17015491 317.82682778 -30 319 C-29.67 317.68 -29.34 316.36 -29 315 C-30.65 314.67 -32.3 314.34 -34 314 C-34 314.66 -34 315.32 -34 316 C-34.763125 315.835 -35.52625 315.67 -36.3125 315.5 C-39.03596236 314.90854604 -39.03596236 314.90854604 -42 315 C-42.33 314.01 -42.66 313.02 -43 312 C-43.33 312 -43.66 312 -44 312 Z M34 316 C33.34 316 32.68 316 32 316 C29.80475826 316.48020913 28.0161858 316.9919071 26 318 C23.6670134 318.04022391 21.33293334 318.04320247 19 318 C19.79117904 319.99983534 19.79117904 319.99983534 21 322 C24.72497789 323.2416593 26.15828242 322.19766974 29.66015625 320.76953125 C33.67397027 319.4494622 37.80277497 319.24942526 42 319 C41.67 318.34 41.34 317.68 41 317 C40.01 317 39.02 317 38 317 C38.99 316.01 39.98 315.02 41 314 C36.95377498 313.63019987 36.95377498 313.63019987 34 316 Z M19 322 C19.33 322.66 19.66 323.32 20 324 C20.66 323.67 21.32 323.34 22 323 C21.01 322.67 20.02 322.34 19 322 Z M-1 328 C-3.01800895 328.96314063 -5.01549844 329.96958573 -7 331 C-9.67652141 331.53143927 -12.27423342 331.76502012 -15 332 C-12.79116806 334.20883194 -11.54087158 334.50267738 -8.625 335.4375 C-5.37566319 336.79269844 -4.23160996 337.57650211 -2.51953125 340.70703125 C-1.5430081 343.45328228 -0.69754086 346.17081331 0 349 C1.74879154 346.37681269 2.54590737 344.47476778 3.5625 341.5625 C5.24895324 337.5951349 6.80270044 336.16018332 10.75 334.4375 C12.1557996 333.92733079 13.56976827 333.43701525 15 333 C15 332.67 15 332.34 15 332 C13.77023438 331.81824219 13.77023438 331.81824219 12.515625 331.6328125 C11.43796875 331.46523438 10.3603125 331.29765625 9.25 331.125 C8.18265625 330.96257812 7.1153125 330.80015625 6.015625 330.6328125 C3 330 3 330 0.78125 328.84765625 C-0.10046875 328.42806641 -0.10046875 328.42806641 -1 328 Z " fill="#080808" transform="translate(172,5)"/>
<path d="M0 0 C0.33 0 0.66 0 1 0 C1 20.13 1 40.26 1 61 C-3 62 -3 62 -4.5859375 61.05078125 C-6.67672882 58.01855627 -7.59797684 54.68381651 -8.625 51.1875 C-8.8415625 50.48818359 -9.058125 49.78886719 -9.28125 49.06835938 C-13.76924684 34.26074016 -12.05275732 22.47406566 -4.85742188 8.74072266 C-3.27437516 5.8056647 -1.65106084 2.89737133 0 0 Z " fill="#030303" transform="translate(60,157)"/>
<path d="M0 0 C1.32 0 2.64 0 4 0 C3.96519531 0.97839844 3.96519531 0.97839844 3.9296875 1.9765625 C3.82522818 7.03537807 3.83441024 11.30788885 6 16 C6.66 16.33 7.32 16.66 8 17 C8 17.66 8 18.32 8 19 C8.99 19.33 9.98 19.66 11 20 C11 20.66 11 21.32 11 22 C11.66 22 12.32 22 13 22 C12.40075776 26.19469571 11.42500059 30.00999834 10 34 C7.41443537 30.19769908 8.35256491 27.37018684 9 23 C8.34 22.34 7.68 21.68 7 21 C7 20.01 7 19.02 7 18 C6.01 18 5.02 18 4 18 C4 18.66 4 19.32 4 20 C3.01 19.67 2.02 19.34 1 19 C0.90021879 15.50765756 1.22157062 12.40562852 2 9 C1.34 8.67 0.68 8.34 0 8 C0.33 7.67 0.66 7.34 1 7 C0.34 6.67 -0.32 6.34 -1 6 C-1 7.32 -1 8.64 -1 10 C-2.32 9.34 -3.64 8.68 -5 8 C-5 7.34 -5 6.68 -5 6 C-4.34 6 -3.68 6 -3 6 C-2.690625 5.38125 -2.38125 4.7625 -2.0625 4.125 C-1.375 2.75 -0.6875 1.375 0 0 Z M2 17 C3 19 3 19 3 19 Z " fill="#787878" transform="translate(107,200)"/>
<path d="M0 0 C0.226875 0.556875 0.45375 1.11375 0.6875 1.6875 C1.98466965 4.22215457 1.98466965 4.22215457 4.625 6.5625 C7 9 7 9 7 12 C5.02 12 3.04 12 1 12 C1.33 13.32 1.66 14.64 2 16 C0.125 15.6875 0.125 15.6875 -2 15 C-2.66 14.01 -3.32 13.02 -4 12 C-3.67 11.34 -3.34 10.68 -3 10 C-2.34 10 -1.68 10 -1 10 C-1 8.68 -1 7.36 -1 6 C-1.66 6 -2.32 6 -3 6 C-3 4.35 -3 2.7 -3 1 C-2.01 0.67 -1.02 0.34 0 0 Z " fill="#737373" transform="translate(91,284)"/>
<path d="M0 0 C3.46905388 3.46905388 3.15784897 7.2558348 3.1875 12 C3.20167969 13.03125 3.21585938 14.0625 3.23046875 15.125 C2.99942401 18.00718521 2.66425917 19.64916526 1 22 C-2.125 22.75 -2.125 22.75 -5 23 C-4.525625 22.0925 -4.05125 21.185 -3.5625 20.25 C-1.28354344 15.50977036 -0.8048413 11.49773289 -0.4375 6.25 C-0.35371094 5.07953125 -0.26992187 3.9090625 -0.18359375 2.703125 C-0.12300781 1.81109375 -0.06242188 0.9190625 0 0 Z " fill="#0B0B0B" transform="translate(218,155)"/>
<path d="M0 0 C0.99 0 1.98 0 3 0 C3.33 1.32 3.66 2.64 4 4 C-6.11397059 9.29779412 -6.11397059 9.29779412 -10.375 8.625 C-10.91125 8.41875 -11.4475 8.2125 -12 8 C-10.49336217 4.98672434 -7.96833589 4.38943382 -5 3 C-5 2.67 -5 2.34 -5 2 C-3.35 2 -1.7 2 0 2 C0 1.34 0 0.68 0 0 Z " fill="#7B7B7B" transform="translate(222,314)"/>
<path d="M0 0 C2.13391026 0.45726648 3.89360563 0.94129966 5.8125 2 C8.16682527 3.20399454 8.16682527 3.20399454 11.6875 3.5 C13.3271875 3.7475 13.3271875 3.7475 15 4 C15.33 4.66 15.66 5.32 16 6 C15.0625 8.125 15.0625 8.125 14 10 C13.34 10 12.68 10 12 10 C12 8.68 12 7.36 12 6 C10.68 6 9.36 6 8 6 C8 6.66 8 7.32 8 8 C4.22699642 6.9802693 3.19793856 6.34127338 1.1875 2.875 C0.795625 1.92625 0.40375 0.9775 0 0 Z " fill="#7C7C7C" transform="translate(246,232)"/>
<path d="M0 0 C2.12161334 2.12161334 2.92986249 3.7733159 4.125 6.5 C4.47820312 7.2940625 4.83140625 8.088125 5.1953125 8.90625 C6 11 6 11 6 13 C5.4225 13.103125 4.845 13.20625 4.25 13.3125 C1.67950842 14.09792798 0.06342716 15.30504197 -2 17 C-3.08740918 13.76657799 -2.94175931 12.15817088 -1.5625 9.0625 C-0.25856481 5.8915667 0.32583722 3.47559698 0 0 Z " fill="#7A7A7A" transform="translate(232,227)"/>
<path d="M0 0 C0.66 0 1.32 0 2 0 C2 0.66 2 1.32 2 2 C3.32 2 4.64 2 6 2 C6.06058594 2.61488281 6.12117187 3.22976562 6.18359375 3.86328125 C6.26738281 4.67152344 6.35117188 5.47976562 6.4375 6.3125 C6.51871094 7.11300781 6.59992188 7.91351563 6.68359375 8.73828125 C6.95265693 11.16087179 6.95265693 11.16087179 8 14 C8.99 14.33 9.98 14.66 11 15 C11 16.65 11 18.3 11 20 C10.34 20 9.68 20 9 20 C6.79811994 16.40359589 4.92646467 13.22062447 3.875 9.125 C3.441875 7.578125 3.441875 7.578125 3 6 C2.34 5.67 1.68 5.34 1 5 C0.375 2.4375 0.375 2.4375 0 0 Z " fill="#7D7D7D" transform="translate(231,244)"/>
<path d="M0 0 C-0.33 0.66 -0.66 1.32 -1 2 C-0.67 2.99 -0.34 3.98 0 5 C-1.32 5.33 -2.64 5.66 -4 6 C-4 6.66 -4 7.32 -4 8 C-4.66 8.66 -5.32 9.32 -6 10 C-8.125 9.625 -8.125 9.625 -10 9 C-9.34 8.67 -8.68 8.34 -8 8 C-8 7.34 -8 6.68 -8 6 C-8.99 6 -9.98 6 -11 6 C-11 5.34 -11 4.68 -11 4 C-10.01 4 -9.02 4 -8 4 C-7.67 3.01 -7.34 2.02 -7 1 C-4.53721199 -0.231394 -2.7204945 -0.07159196 0 0 Z M-6 4 C-6 4.66 -6 5.32 -6 6 C-5.34 6 -4.68 6 -4 6 C-4 5.34 -4 4.68 -4 4 C-4.66 4 -5.32 4 -6 4 Z " fill="#7B7B7B" transform="translate(244,302)"/>
<path d="M0 0 C0.99 0.33 1.98 0.66 3 1 C3 1.66 3 2.32 3 3 C2.34 3 1.68 3 1 3 C1 3.66 1 4.32 1 5 C-0.77021322 5.336611 -2.54119674 5.66917293 -4.3125 6 C-5.79169922 6.2784375 -5.79169922 6.2784375 -7.30078125 6.5625 C-10 7 -10 7 -13 7 C-13 6.34 -13 5.68 -13 5 C-10 4 -10 4 -7 5 C-6.67 4.01 -6.34 3.02 -6 2 C-4.7934375 1.7834375 -4.7934375 1.7834375 -3.5625 1.5625 C-1.07896294 1.25864751 -1.07896294 1.25864751 0 0 Z " fill="#797979" transform="translate(78,219)"/>
<path d="M0 0 C1.9375 0.375 1.9375 0.375 4 1 C4.33 1.66 4.66 2.32 5 3 C4.67 3.66 4.34 4.32 4 5 C4.66 5 5.32 5 6 5 C6 6.32 6 7.64 6 9 C6.66 9 7.32 9 8 9 C7.34 10.98 6.68 12.96 6 15 C5.01 14.67 4.02 14.34 3 14 C2.92652344 12.73542969 2.92652344 12.73542969 2.8515625 11.4453125 C2.77679688 10.34960938 2.70203125 9.25390625 2.625 8.125 C2.55539063 7.03445312 2.48578125 5.94390625 2.4140625 4.8203125 C2.26746509 1.86953526 2.26746509 1.86953526 0 0 Z " fill="#747474" transform="translate(139,77)"/>
<path d="M0 0 C1.65 0.33 3.3 0.66 5 1 C3.625 3 3.625 3 2 5 C1.34 5 0.68 5 0 5 C0 5.66 0 6.32 0 7 C-1.28965176 8.37562854 -2.62689293 9.70766393 -4 11 C-4.66 11.66 -5.32 12.32 -6 13 C-6.33 11.68 -6.66 10.36 -7 9 C-6.34 9 -5.68 9 -5 9 C-5 8.01 -5 7.02 -5 6 C-3.33333333 5 -1.66666667 4 0 3 C0 2.01 0 1.02 0 0 Z " fill="#747474" transform="translate(261,274)"/>
<path d="M0 0 C1.32 0.33 2.64 0.66 4 1 C4 1.66 4 2.32 4 3 C4.66 3 5.32 3 6 3 C5.40075776 7.19469571 4.42500059 11.00999834 3 15 C0.40836234 11.18876815 1.37354788 8.38516486 2 4 C1.19420215 1.6284995 1.19420215 1.6284995 0 0 Z " fill="#757575" transform="translate(114,219)"/>
<path d="M0 0 C0.66 0 1.32 0 2 0 C0.66550073 3.43771931 -0.79861467 6.75920154 -2.4375 10.0625 C-2.84871094 10.89910156 -3.25992188 11.73570312 -3.68359375 12.59765625 C-4.95272156 14.91372035 -6.3623548 16.93265197 -8 19 C-8 17.35 -8 15.7 -8 14 C-7.01 13.67 -6.02 13.34 -5 13 C-4.896875 11.72125 -4.79375 10.4425 -4.6875 9.125 C-4.51171875 6.9453125 -4.51171875 6.9453125 -4 5 C-3.01 4.34 -2.02 3.68 -1 3 C-0.67 2.01 -0.34 1.02 0 0 Z " fill="#777777" transform="translate(117,241)"/>
<path d="M0 0 C0.598125 0.61875 1.19625 1.2375 1.8125 1.875 C4.00811144 4.13676954 4.00811144 4.13676954 7 6 C5 8 5 8 2.5625 8.25 C0 8 0 8 -3 6 C-3 5.34 -3 4.68 -3 4 C-2.01 3.34 -1.02 2.68 0 2 C0 1.34 0 0.68 0 0 Z " fill="#777777" transform="translate(121,312)"/>
<path d="M0 0 C1.32 0.33 2.64 0.66 4 1 C4 1.66 4 2.32 4 3 C4.45375 3.4125 4.9075 3.825 5.375 4.25 C7.53986646 6.58139465 8.12705877 8.97828036 9 12 C7.68 11.67 6.36 11.34 5 11 C4.67 9.35 4.34 7.7 4 6 C3.01 5.67 2.02 5.34 1 5 C0.67 3.35 0.34 1.7 0 0 Z " fill="#7A7A7A" transform="translate(246,270)"/>
<path d="M0 0 C8.57142857 0.85714286 8.57142857 0.85714286 12 3 C11.67 3.66 11.34 4.32 11 5 C7.04 4.67 3.08 4.34 -1 4 C-0.67 2.68 -0.34 1.36 0 0 Z " fill="#6F6F6F" transform="translate(143,320)"/>
<path d="M0 0 C0.99 0.33 1.98 0.66 3 1 C4.33106622 1.34227417 5.66400079 1.67751743 7 2 C6.67 2.99 6.34 3.98 6 5 C3.69 5.33 1.38 5.66 -1 6 C-1.66 4.68 -2.32 3.36 -3 2 C-2.01 1.34 -1.02 0.68 0 0 Z " fill="#767676" transform="translate(227,310)"/>
<path d="M0 0 C0.433125 0.9590625 0.433125 0.9590625 0.875 1.9375 C1.82823451 4.15206079 1.82823451 4.15206079 4 5 C2.68 5.33 1.36 5.66 0 6 C0 6.66 0 7.32 0 8 C0.66 8.33 1.32 8.66 2 9 C2 9.99 2 10.98 2 12 C1.34 12 0.68 12 0 12 C0 11.34 0 10.68 0 10 C-0.66 10 -1.32 10 -2 10 C-2.6875 8.375 -2.6875 8.375 -3 6 C-1.5625 2.75 -1.5625 2.75 0 0 Z " fill="#797979" transform="translate(203,80)"/>
<path d="M0 0 C-0.33 1.32 -0.66 2.64 -1 4 C-1.66 4 -2.32 4 -3 4 C-3.66 5.32 -4.32 6.64 -5 8 C-7 6 -7 6 -7.125 3.375 C-7.08375 2.59125 -7.0425 1.8075 -7 1 C-3.375 -1.125 -3.375 -1.125 0 0 Z " fill="#707070" transform="translate(252,298)"/>
<path d="M0 0 C0.66 0 1.32 0 2 0 C2.92017937 7.82152466 2.92017937 7.82152466 0.6640625 10.7109375 C-1 12.0625 -1 12.0625 -4 14 C-3.69255859 13.11248047 -3.69255859 13.11248047 -3.37890625 12.20703125 C-2.0002429 8.16339184 -0.68249153 4.23144751 0 0 Z " fill="#5B5B5B" transform="translate(64,132)"/>
<path d="M0 0 C0.99 0 1.98 0 3 0 C3.33 1.32 3.66 2.64 4 4 C2.02 4.99 0.04 5.98 -2 7 C-2 6.34 -2 5.68 -2 5 C-3.45833358 3.37485532 -3.45833358 3.37485532 -5 2 C-3.35 2 -1.7 2 0 2 C0 1.34 0 0.68 0 0 Z " fill="#757575" transform="translate(222,314)"/>
<path d="M0 0 C2.46800047 1.15173355 4.04783565 2.04783565 6 4 C4.25 6.0625 4.25 6.0625 2 8 C-0.25 7.75 -0.25 7.75 -2 7 C-1.34 4.69 -0.68 2.38 0 0 Z " fill="#787878" transform="translate(138,90)"/>
<path d="M0 0 C1.00289062 0.10183594 2.00578125 0.20367187 3.0390625 0.30859375 C3.80992188 0.39238281 4.58078125 0.47617188 5.375 0.5625 C4.385 1.0575 4.385 1.0575 3.375 1.5625 C3.375 2.2225 3.375 2.8825 3.375 3.5625 C1.72833797 3.4489371 0.08263918 3.32132619 -1.5625 3.1875 C-2.47902344 3.11789063 -3.39554687 3.04828125 -4.33984375 2.9765625 C-5.47099609 2.77160156 -5.47099609 2.77160156 -6.625 2.5625 C-6.955 1.9025 -7.285 1.2425 -7.625 0.5625 C-4.89657939 -0.80171031 -3.01546682 -0.31557211 0 0 Z " fill="#111111" transform="translate(81.625,118.4375)"/>
<path d="M0 0 C3 2 3 2 3.6875 4.625 C3.790625 5.40875 3.89375 6.1925 4 7 C4.99 7.33 5.98 7.66 7 8 C7 8.66 7 9.32 7 10 C6.34 10 5.68 10 5 10 C4.67 10.66 4.34 11.32 4 12 C3.49596232 10.70990357 2.99690074 9.41786211 2.5 8.125 C2.2215625 7.40570313 1.943125 6.68640625 1.65625 5.9453125 C1 4 1 4 1 2 C0.01 1.67 -0.98 1.34 -2 1 C-1.34 0.67 -0.68 0.34 0 0 Z " fill="#565656" transform="translate(254,114)"/>
<path d="M0 0 C1.98 0.66 3.96 1.32 6 2 C6 2.99 6 3.98 6 5 C6.66 5 7.32 5 8 5 C8 5.99 8 6.98 8 8 C7.34 8 6.68 8 6 8 C6 7.34 6 6.68 6 6 C4.68 5.67 3.36 5.34 2 5 C2 4.01 2 3.02 2 2 C1.34 2 0.68 2 0 2 C0 1.34 0 0.68 0 0 Z " fill="#7A7A7A" transform="translate(275,148)"/>
<path d="M0 0 C3.21029714 1.10699901 4.00968977 2.01603825 5.8125 5 C6.204375 5.99 6.59625 6.98 7 8 C6.67 8.66 6.34 9.32 6 10 C5.54625 9.21625 5.0925 8.4325 4.625 7.625 C3.11571258 4.96301969 3.11571258 4.96301969 1 3 C0.34 2.34 -0.32 1.68 -1 1 C-0.67 0.67 -0.34 0.34 0 0 Z " fill="#696969" transform="translate(285,158)"/>
<path d="M0 0 C0.87840996 3.09720845 0.99435406 4.90645403 0 8 C-0.66 8 -1.32 8 -2 8 C-2.33 8.99 -2.66 9.98 -3 11 C-4 8 -4 8 -3.22265625 5.95703125 C-2.83980469 5.24933594 -2.45695312 4.54164063 -2.0625 3.8125 C-1.68222656 3.09707031 -1.30195313 2.38164062 -0.91015625 1.64453125 C-0.60980469 1.10183594 -0.30945313 0.55914062 0 0 Z " fill="#707070" transform="translate(287,246)"/>
<path d="M0 0 C1.32 0 2.64 0 4 0 C4 0.66 4 1.32 4 2 C4.66 2.33 5.32 2.66 6 3 C5.01 3.99 4.02 4.98 3 6 C2.566875 5.0409375 2.566875 5.0409375 2.125 4.0625 C1.17176549 1.84793921 1.17176549 1.84793921 -1 1 C-0.67 0.67 -0.34 0.34 0 0 Z " fill="#7A7A7A" transform="translate(268,140)"/>
<path d="M0 0 C0.33 0.66 0.66 1.32 1 2 C1.99 2.33 2.98 2.66 4 3 C4 4.65 4 6.3 4 8 C3.34 8 2.68 8 2 8 C0.02 4.535 0.02 4.535 -2 1 C-1.34 0.67 -0.68 0.34 0 0 Z " fill="#767676" transform="translate(238,256)"/>
<path d="M0 0 C0.66 0 1.32 0 2 0 C2 0.66 2 1.32 2 2 C4.31 1.34 6.62 0.68 9 0 C8.67 0.99 8.34 1.98 8 3 C5.36 3 2.72 3 0 3 C0 2.01 0 1.02 0 0 Z " fill="#737373" transform="translate(54,225)"/>
<path d="M0 0 C2.76223278 2.76223278 2.57856291 5.20706617 3 9 C2.01 9.33 1.02 9.66 0 10 C0 6.7 0 3.4 0 0 Z " fill="#181818" transform="translate(218,155)"/>
<path d="M0 0 C0.66 0 1.32 0 2 0 C1.67 1.65 1.34 3.3 1 5 C-0.65 5.33 -2.3 5.66 -4 6 C-3.34 4.68 -2.68 3.36 -2 2 C-1.34 2 -0.68 2 0 2 C0 1.34 0 0.68 0 0 Z " fill="#777777" transform="translate(128,98)"/>
<path d="M0 0 C2.31 0 4.62 0 7 0 C7.33 0.99 7.66 1.98 8 3 C5.36 2.67 2.72 2.34 0 2 C0 1.34 0 0.68 0 0 Z " fill="#7D7D7D" transform="translate(130,318)"/>
<path d="M0 0 C1.98 0 3.96 0 6 0 C6.33 0.66 6.66 1.32 7 2 C6.071875 2.185625 6.071875 2.185625 5.125 2.375 C2.80879168 2.87197356 2.80879168 2.87197356 1 5 C0.67 3.35 0.34 1.7 0 0 Z " fill="#797979" transform="translate(230,222)"/>
<path d="M0 0 C0.66 0.66 1.32 1.32 2 2 C1.01 2 0.02 2 -1 2 C-1 2.66 -1 3.32 -1 4 C-1.66 4 -2.32 4 -3 4 C-3 3.01 -3 2.02 -3 1 C-2.01 0.67 -1.02 0.34 0 0 Z " fill="#242424" transform="translate(181,91)"/>
<path d="M0 0 C1.32 0.33 2.64 0.66 4 1 C2.68 1.33 1.36 1.66 0 2 C0 1.34 0 0.68 0 0 Z " fill="#808080" transform="translate(238,104)"/>
<path d="M0 0 C0.66 0.66 1.32 1.32 2 2 C1.01 2.33 0.02 2.66 -1 3 C-1.33 2.34 -1.66 1.68 -2 1 C-1.34 0.67 -0.68 0.34 0 0 Z " fill="#6E6E6E" transform="translate(101,94)"/>
<path d="M0 0 C1.98 0 3.96 0 6 0 C6 0.33 6 0.66 6 1 C4.02 1 2.04 1 0 1 C0 0.67 0 0.34 0 0 Z " fill="#696969" transform="translate(171,60)"/>
<path d="M0 0 C0.66 0.33 1.32 0.66 2 1 C0.68 1.33 -0.64 1.66 -2 2 C-1.34 1.34 -0.68 0.68 0 0 Z " fill="#818181" transform="translate(258,277)"/>
<path d="M0 0 C0.33 0.99 0.66 1.98 1 3 C0.34 3 -0.32 3 -1 3 C-0.67 2.01 -0.34 1.02 0 0 Z " fill="#818181" transform="translate(113,221)"/>
<path d="M0 0 C0.66 0.66 1.32 1.32 2 2 C1.34 2 0.68 2 0 2 C0 1.34 0 0.68 0 0 Z " fill="#7B7B7B" transform="translate(104,300)"/>
<path d="M0 0 C0.99 0.495 0.99 0.495 2 1 C1.01 1.495 1.01 1.495 0 2 C0 1.34 0 0.68 0 0 Z " fill="#818181" transform="translate(95,298)"/>
<path d="M0 0 C0.66 0 1.32 0 2 0 C1.67 0.66 1.34 1.32 1 2 C0.67 1.34 0.34 0.68 0 0 Z " fill="#808080" transform="translate(264,272)"/>
<path d="M0 0 C0.99 0.495 0.99 0.495 2 1 C1.01 1.495 1.01 1.495 0 2 C0 1.34 0 0.68 0 0 Z " fill="#7C7C7C" transform="translate(55,242)"/>
<path d="M0 0 C0.33 0.66 0.66 1.32 1 2 C0.34 1.67 -0.32 1.34 -1 1 C-0.67 0.67 -0.34 0.34 0 0 Z " fill="#818181" transform="translate(241,232)"/>
<path d="" fill="#131313" transform="translate(0,0)"/>
<path d="M0 0 C0.66 0 1.32 0 2 0 C1.67 0.66 1.34 1.32 1 2 C0.67 1.34 0.34 0.68 0 0 Z " fill="#808080" transform="translate(106,98)"/>
<path d="M0 0 C0.66 0 1.32 0 2 0 C1.67 0.66 1.34 1.32 1 2 C0.67 1.34 0.34 0.68 0 0 Z " fill="#818181" transform="translate(218,90)"/>
<path d="M0 0 C0.66 0 1.32 0 2 0 C1.67 0.66 1.34 1.32 1 2 C0.67 1.34 0.34 0.68 0 0 Z " fill="#808080" transform="translate(208,86)"/>
<path d="M0 0 C3 1 3 1 3 1 Z " fill="#727272" transform="translate(166,58)"/>
<path d="" fill="#818181" transform="translate(0,0)"/>
<path d="" fill="#7A7A7A" transform="translate(0,0)"/>
<path d="M0 0 C2 1 2 1 2 1 Z " fill="#7B7B7B" transform="translate(270,266)"/>
<path d="" fill="#7D7D7D" transform="translate(0,0)"/>
<path d="" fill="#818181" transform="translate(0,0)"/>
<path d="" fill="#7B7B7B" transform="translate(0,0)"/>
<path d="M0 0 C2 1 2 1 2 1 Z " fill="#818181" transform="translate(268,250)"/>
<path d="" fill="#808080" transform="translate(0,0)"/>
<path d="M0 0 C2 1 2 1 2 1 Z " fill="#818181" transform="translate(272,134)"/>
<path d="M0 0 C2 1 2 1 2 1 Z " fill="#7A7A7A" transform="translate(107,102)"/>
<path d="M0 0 C2 1 2 1 2 1 Z " fill="#818181" transform="translate(217,99)"/>
<path d="" fill="#2B2B2B" transform="translate(0,0)"/>
<path d="M0 0 C2 1 2 1 2 1 Z " fill="#272727" transform="translate(172,93)"/>
<path d="M0 0 C2 1 2 1 2 1 Z " fill="#808080" transform="translate(208,84)"/>
<path d="" fill="#6D6D6D" transform="translate(0,0)"/>
<path d="" fill="#636363" transform="translate(0,0)"/>
<path d="" fill="#808080" transform="translate(0,0)"/>
<path d="" fill="#818181" transform="translate(0,0)"/>
<path d="" fill="#818181" transform="translate(0,0)"/>
<path d="" fill="#818181" transform="translate(0,0)"/>
<path d="" fill="#7C7C7C" transform="translate(0,0)"/>
<path d="" fill="#7B7B7B" transform="translate(0,0)"/>
<path d="" fill="#7B7B7B" transform="translate(0,0)"/>
<path d="" fill="#7C7C7C" transform="translate(0,0)"/>
<path d="" fill="#797979" transform="translate(0,0)"/>
<path d="" fill="#808080" transform="translate(0,0)"/>
<path d="" fill="#818181" transform="translate(0,0)"/>
<path d="" fill="#818181" transform="translate(0,0)"/>
<path d="" fill="#818181" transform="translate(0,0)"/>
<path d="" fill="#818181" transform="translate(0,0)"/>
<path d="" fill="#818181" transform="translate(0,0)"/>
<path d="" fill="#818181" transform="translate(0,0)"/>
<path d="" fill="#818181" transform="translate(0,0)"/>
<path d="" fill="#818181" transform="translate(0,0)"/>
<path d="" fill="#818181" transform="translate(0,0)"/>
<path d="" fill="#818181" transform="translate(0,0)"/>
<path d="" fill="#818181" transform="translate(0,0)"/>
<path d="" fill="#818181" transform="translate(0,0)"/>
<path d="" fill="#818181" transform="translate(0,0)"/>
<path d="" fill="#818181" transform="translate(0,0)"/>
<path d="" fill="#818181" transform="translate(0,0)"/>
<path d="" fill="#7E7E7E" transform="translate(0,0)"/>
<path d="" fill="#818181" transform="translate(0,0)"/>
<path d="" fill="#818181" transform="translate(0,0)"/>
<path d="" fill="#505050" transform="translate(0,0)"/>
<path d="" fill="#000000" transform="translate(0,0)"/>
<path d="" fill="#777777" transform="translate(0,0)"/>
<path d="" fill="#767676" transform="translate(0,0)"/>
<path d="" fill="#818181" transform="translate(0,0)"/>
<path d="" fill="#4D4D4D" transform="translate(0,0)"/>
<path d="" fill="#2C2C2C" transform="translate(0,0)"/>
<path d="" fill="#808080" transform="translate(0,0)"/>
<path d="" fill="#777777" transform="translate(0,0)"/>
<path d="" fill="#818181" transform="translate(0,0)"/>
<path d="" fill="#818181" transform="translate(0,0)"/>
<path d="" fill="#6A6A6A" transform="translate(0,0)"/>
<path d="" fill="#818181" transform="translate(0,0)"/>
<path d="" fill="#000000" transform="translate(0,0)"/>
<path d="" fill="#000000" transform="translate(0,0)"/>
<path d="" fill="#818181" transform="translate(0,0)"/>
<path d="" fill="#818181" transform="translate(0,0)"/>
<path d="" fill="#818181" transform="translate(0,0)"/>
<path d="" fill="#818181" transform="translate(0,0)"/>
<path d="" fill="#818181" transform="translate(0,0)"/>
<path d="" fill="#5D5D5D" transform="translate(0,0)"/>
<path d="" fill="#414141" transform="translate(0,0)"/>
<path d="" fill="#717171" transform="translate(0,0)"/>
<path d="" fill="#606060" transform="translate(0,0)"/>
</svg>
