<?xml version="1.0" standalone="no"?>
<!DOCTYPE svg PUBLIC "-//W3C//DTD SVG 20010904//EN"
 "http://www.w3.org/TR/2001/REC-SVG-20010904/DTD/svg10.dtd">
<svg version="1.0" xmlns="http://www.w3.org/2000/svg"
 width="370.000000pt" height="398.000000pt" viewBox="0 0 370.000000 398.000000"
 preserveAspectRatio="xMidYMid meet">
<metadata>
Created by potrace 1.16, written by Peter Selinger 2001-2019
</metadata>
<g transform="translate(0.000000,398.000000) scale(0.100000,-0.100000)"
fill="#000000" stroke="none">
<path d="M1802 3955 c-11 -14 -29 -25 -40 -25 -45 0 -37 -74 9 -84 29 -5 29
-5 29 -87 0 -70 2 -80 16 -75 9 3 22 6 29 6 9 0 14 21 17 69 2 39 6 73 10 76
5 6 28 12 51 14 4 1 7 19 7 41 0 35 -3 40 -24 40 -14 0 -30 10 -40 25 -9 14
-23 25 -31 25 -7 0 -22 -11 -33 -25z"/>
<path d="M1530 3860 c-34 -34 -29 -92 12 -139 16 -18 37 -49 46 -67 17 -37 33
-42 52 -20 9 12 2 26 -39 76 -51 61 -62 95 -39 118 22 22 48 14 60 -18 13 -38
34 -33 31 6 -4 58 -82 85 -123 44z"/>
<path d="M2036 3859 c-15 -12 -26 -30 -26 -45 0 -29 25 -32 33 -4 8 31 37 37
58 11 22 -27 18 -41 -38 -114 -35 -47 -42 -61 -32 -73 17 -21 27 -17 43 14 8
16 31 48 50 71 28 33 36 52 36 82 0 72 -67 103 -124 58z"/>
<path d="M1356 3734 c-5 -12 -14 -15 -40 -10 -44 8 -67 -15 -43 -42 15 -17 15
-20 1 -40 -14 -21 -14 -25 0 -47 18 -28 41 -32 50 -10 10 26 41 16 81 -26 55
-56 66 -61 93 -38 23 18 23 18 -40 78 -51 48 -61 62 -50 72 17 18 15 43 -6 62
-23 21 -38 21 -46 1z"/>
<path d="M2254 3724 c-13 -19 -14 -28 -5 -37 21 -21 11 -42 -49 -98 -60 -56
-60 -56 -37 -72 22 -14 26 -13 82 34 64 53 76 57 95 34 18 -22 39 -18 52 10 8
17 8 32 1 47 -7 16 -7 30 1 47 14 31 -15 57 -45 38 -14 -9 -22 -8 -37 6 -26
23 -39 21 -58 -9z"/>
<path d="M1804 3645 c-8 -21 4 -35 31 -35 29 0 41 16 25 35 -16 19 -49 19 -56
0z"/>
<path d="M1633 3585 c-7 -19 27 -59 39 -47 11 11 -8 62 -22 62 -6 0 -13 -7
-17 -15z"/>
<path d="M1995 3585 c-3 -8 -7 -22 -10 -30 -2 -8 0 -17 5 -20 10 -6 40 33 40
52 0 18 -30 16 -35 -2z"/>
<path d="M2036 3528 c-32 -49 -37 -68 -16 -68 10 0 70 86 70 100 0 27 -23 14
-54 -32z"/>
<path d="M434 3539 c-82 -160 -92 -300 -29 -433 33 -71 109 -154 160 -177 91
-42 105 -14 38 78 -57 77 -74 105 -52 86 7 -7 19 -13 26 -13 9 0 2 23 -22 70
-54 108 -87 230 -87 333 -1 48 -5 87 -9 87 -5 0 -16 -14 -25 -31z"/>
<path d="M1570 3560 c0 -16 59 -100 70 -100 17 0 10 24 -18 64 -27 40 -52 57
-52 36z"/>
<path d="M1756 3537 c-33 -18 -62 -39 -64 -45 -6 -18 29 -14 73 8 21 11 40 18
41 17 2 -2 -3 -25 -11 -52 -8 -26 -15 -67 -15 -91 0 -24 -5 -46 -10 -49 -7 -4
-9 2 -6 17 11 52 15 137 8 142 -13 8 -127 -69 -151 -102 -29 -42 -47 -96 -56
-171 -5 -44 -4 -66 4 -70 12 -8 128 11 194 31 37 11 37 11 39 87 2 76 2 76 7
-4 6 -80 6 -80 41 -87 80 -17 216 -36 224 -31 5 3 6 43 4 87 -8 122 -48 186
-145 235 -67 33 -80 29 -97 -31 -8 -29 -17 -62 -19 -73 -3 -11 -5 -2 -6 21 -1
48 25 144 40 144 5 0 22 -6 37 -14 43 -21 72 -28 72 -17 0 15 -101 81 -125 81
-11 0 -47 -15 -79 -33z"/>
<path d="M3194 3483 c0 -102 -26 -205 -79 -321 -38 -81 -38 -104 1 -59 48 55
23 7 -41 -79 -68 -93 -71 -99 -54 -109 40 -25 162 61 216 152 34 58 63 154 63
209 0 89 -63 280 -95 291 -6 2 -10 -31 -11 -84z"/>
<path d="M1510 3485 c-11 -13 -8 -21 20 -50 32 -33 70 -47 70 -26 0 5 -11 23
-25 39 -14 17 -25 35 -25 41 0 16 -26 13 -40 -4z"/>
<path d="M2087 3453 c-20 -25 -34 -49 -31 -54 10 -17 32 -9 57 21 14 17 30 30
36 30 18 0 12 29 -7 39 -15 8 -25 1 -55 -36z"/>
<path d="M660 3152 c0 -14 48 -74 81 -101 28 -24 30 -28 15 -40 -36 -30 -2
-71 60 -71 38 0 64 -18 80 -56 16 -39 29 -43 45 -13 11 22 9 57 -6 94 -8 18
-7 19 9 6 64 -53 61 -164 -9 -255 -71 -93 -23 -221 109 -290 30 -17 58 -28 61
-25 14 14 -21 71 -58 97 -49 32 -67 63 -67 114 0 34 5 40 59 77 71 48 104 86
126 144 23 61 17 89 -21 99 -24 6 -33 16 -42 45 -7 21 -21 53 -32 70 -18 31
-22 32 -63 27 -39 -6 -48 -3 -78 24 -33 29 -36 29 -112 24 -69 -4 -82 -2 -107
17 -30 22 -50 27 -50 13z"/>
<path d="M1710 3149 c-124 -23 -190 -43 -190 -55 0 -9 13 -14 38 -15 34 0 35
-1 15 -11 -33 -16 -32 -86 1 -125 23 -28 23 -28 8 -144 -15 -116 -15 -116 54
-181 122 -116 130 -121 169 -114 20 4 68 33 117 72 46 36 96 73 111 82 23 14
27 22 23 42 -30 128 -35 224 -14 247 9 10 18 38 20 63 3 45 3 45 -52 50 -55 6
-55 6 5 13 33 5 68 9 78 10 39 4 19 23 -38 34 -69 14 -274 44 -290 42 -5 -1
-30 -5 -55 -10z m109 -42 c14 -18 4 -27 -31 -27 -43 0 -35 36 8 39 6 1 17 -5
23 -12z m-91 -54 c-10 -2 -28 -2 -40 0 -13 2 -5 4 17 4 22 1 32 -1 23 -4z
m-43 -43 c83 -15 84 -16 78 -40 -9 -35 -35 -41 -94 -24 -66 20 -79 30 -79 61
0 18 4 23 18 19 9 -2 44 -10 77 -16z m335 -8 c0 -25 -55 -50 -143 -64 -40 -7
-74 -13 -76 -15 -3 -2 -8 -22 -12 -46 -5 -33 -7 -25 -7 39 0 81 0 81 82 91
134 16 156 16 156 -5z m-18 -142 c-2 -33 1 -83 8 -112 10 -50 10 -54 -12 -68
-12 -8 -56 -43 -98 -77 -41 -34 -78 -59 -81 -55 -8 9 11 315 20 325 8 8 125
44 151 46 12 1 14 -10 12 -59z m-271 21 c10 -9 17 -312 8 -309 -4 2 -37 32
-74 67 -67 65 -67 65 -56 119 6 31 11 75 11 100 0 44 0 44 53 37 28 -4 55 -10
58 -14z"/>
<path d="M2950 3138 c-22 -18 -34 -20 -106 -15 -81 6 -82 6 -110 -24 -25 -27
-34 -30 -71 -26 -22 2 -46 1 -52 -2 -6 -4 -24 -37 -41 -74 -25 -56 -34 -67
-55 -67 -33 0 -37 -11 -24 -70 14 -67 61 -126 134 -171 58 -35 60 -38 59 -77
-1 -50 -23 -85 -73 -117 -37 -22 -73 -87 -58 -102 7 -7 86 42 134 82 44 36 72
96 73 151 0 32 -9 55 -41 102 -61 91 -64 188 -7 238 21 19 21 19 14 -1 -15
-42 -18 -73 -7 -94 16 -30 29 -26 45 13 16 40 42 56 86 56 20 0 40 9 56 26 25
24 25 26 9 44 -15 17 -13 21 34 68 49 49 65 82 39 82 -7 -1 -24 -10 -38 -22z"/>
<path d="M2103 3034 c-17 -44 27 -244 69 -311 22 -36 8 -45 -23 -17 -19 17
-49 13 -49 -6 0 -6 24 -22 53 -35 92 -43 115 -29 69 43 -40 62 -71 158 -85
260 -11 79 -21 99 -34 66z"/>
<path d="M1518 3004 c-5 -4 -8 -19 -8 -34 0 -47 -39 -183 -70 -244 -34 -67
-37 -86 -12 -86 28 1 116 54 120 73 4 22 -25 23 -50 0 -29 -26 -29 -12 -2 55
34 85 48 162 38 207 -5 20 -12 33 -16 29z"/>
<path d="M110 2983 c0 -27 26 -106 50 -153 33 -65 106 -136 173 -170 50 -25
72 -30 133 -30 62 0 77 4 100 23 15 13 24 28 21 34 -4 6 -35 21 -69 34 -54 20
-59 24 -35 27 40 5 33 17 -21 37 -26 9 -75 33 -110 51 -66 36 -88 42 -76 22
16 -26 -56 35 -104 87 -55 60 -62 64 -62 38z"/>
<path d="M3515 2971 c-7 -24 -128 -126 -133 -113 -2 6 -38 -6 -82 -28 -44 -21
-93 -43 -110 -48 -44 -16 -38 -34 8 -27 32 5 27 1 -38 -32 -41 -21 -76 -43
-78 -50 -7 -23 46 -45 111 -46 107 -1 213 61 286 168 31 44 71 144 71 175 0
25 -27 26 -35 1z"/>
<path d="M605 2871 c-14 -24 102 -91 158 -91 40 0 7 59 -50 89 -26 13 -100 15
-108 2z"/>
<path d="M2918 2840 c-47 -47 -42 -67 15 -56 42 8 129 64 124 80 -2 6 -25 12
-51 14 -44 3 -50 0 -88 -38z"/>
<path d="M640 2687 c-37 -19 -32 -41 10 -45 70 -7 143 33 94 52 -26 10 -77 7
-104 -7z"/>
<path d="M2923 2693 c-22 -8 -14 -33 15 -44 38 -16 82 -13 101 6 15 15 14 17
-3 31 -19 13 -87 18 -113 7z"/>
<path d="M566 2556 c-22 -7 -41 -17 -43 -23 -6 -17 69 -56 107 -56 38 0 100
27 100 44 0 13 -79 49 -105 48 -11 -1 -38 -7 -59 -13z"/>
<path d="M2967 2545 c-20 -14 -37 -28 -37 -31 0 -10 75 -36 105 -36 32 0 115
38 115 53 0 9 -93 39 -124 39 -12 0 -38 -11 -59 -25z"/>
<path d="M1423 2503 c-25 -9 -14 -33 16 -33 25 0 41 -9 117 -65 17 -12 27 -13
52 -4 18 6 32 15 32 19 0 13 -62 62 -97 77 -32 13 -96 16 -120 6z"/>
<path d="M2087 2480 c-67 -42 -73 -68 -22 -84 15 -4 36 6 74 34 33 25 64 40
81 40 36 0 47 16 21 29 -39 21 -104 13 -154 -19z"/>
<path d="M1091 2493 c2 -22 88 -130 113 -142 73 -35 42 51 -41 114 -43 33 -74
45 -72 28z"/>
<path d="M1270 2491 c0 -5 17 -21 37 -37 21 -16 50 -43 66 -61 22 -25 37 -33
63 -33 45 0 43 15 -7 59 -70 60 -159 101 -159 72z"/>
<path d="M2495 2466 c-52 -36 -103 -110 -84 -121 23 -15 71 20 114 82 25 35
45 66 45 68 0 13 -31 1 -75 -29z"/>
<path d="M2399 2472 c-48 -24 -129 -93 -129 -109 0 -8 12 -13 30 -13 22 0 45
15 95 61 36 34 65 65 65 70 0 14 -23 11 -61 -9z"/>
<path d="M1260 2415 c62 -63 110 -85 110 -51 0 30 -116 116 -157 116 -12 0 3
-20 47 -65z"/>
<path d="M1740 2439 c-83 -43 -223 -91 -315 -110 -61 -12 -290 -18 -400 -10
-60 5 -60 5 -60 -525 0 -588 0 -583 71 -806 40 -124 139 -326 207 -421 133
-186 305 -356 480 -475 98 -66 98 -66 144 -42 137 73 383 299 506 465 171 232
287 519 318 789 14 125 8 1022 -7 1019 -6 -1 -73 -5 -150 -9 -230 -11 -402 23
-613 122 -51 24 -96 43 -100 42 -3 0 -40 -18 -81 -39z m181 -68 c191 -89 307
-114 539 -115 175 -1 175 -1 178 -451 2 -413 1 -460 -18 -569 -69 -410 -304
-787 -649 -1042 -47 -35 -100 -71 -116 -80 -30 -16 -32 -16 -90 21 -168 107
-360 299 -489 489 -69 101 -161 296 -196 416 -56 192 -60 242 -58 715 2 430 2
430 8 40 5 -361 6 -392 24 -418 18 -27 18 -28 1 -41 -21 -15 -17 -57 21 -208
81 -324 245 -589 514 -833 47 -43 102 -89 124 -104 21 -14 50 -34 65 -44 39
-27 80 -16 163 46 317 236 541 563 633 927 36 140 41 203 21 231 -21 30 -20
36 4 42 20 5 20 13 20 414 0 224 -4 413 -8 420 -5 8 -55 11 -162 11 -228 0
-360 31 -574 133 -40 19 -40 19 -140 -22 -110 -46 -125 -51 -236 -81 -61 -17
-110 -21 -263 -24 -169 -2 -190 -4 -202 -21 -13 -17 -14 -16 -15 10 0 29 0 29
123 22 204 -11 387 23 567 105 58 26 110 48 116 49 6 1 49 -17 95 -38z m-111
-925 c0 -3 -4 -8 -10 -11 -5 -3 -10 -1 -10 4 0 6 5 11 10 11 6 0 10 -2 10 -4z
m-40 -40 c0 -11 -19 -15 -25 -6 -3 5 1 10 9 10 9 0 16 -2 16 -4z m140 -16 c0
-11 -2 -20 -5 -20 -2 0 -9 9 -15 20 -9 16 -8 20 5 20 8 0 15 -9 15 -20z m-4
-87 c-13 -14 -25 9 -13 28 12 20 12 20 15 -1 2 -12 1 -24 -2 -27z m-122 8 c16
-16 26 -35 24 -43 -3 -9 -9 -6 -17 10 -6 12 -18 22 -25 22 -8 0 -16 9 -19 20
-7 28 4 25 37 -9z"/>
<path d="M524 2436 c-13 -10 -16 -18 -8 -25 14 -15 74 6 74 25 0 18 -41 18
-66 0z"/>
<path d="M3062 2439 c7 -21 76 -45 90 -31 17 17 0 30 -51 38 -35 6 -43 4 -39
-7z"/>
<path d="M2786 2433 c-11 -11 -6 -73 8 -106 35 -81 60 -85 71 -12 6 34 2 46
-22 77 -29 38 -47 51 -57 41z"/>
<path d="M827 2402 c-21 -22 -27 -38 -27 -74 0 -61 20 -79 49 -42 26 33 34 60
29 104 -4 44 -18 47 -51 12z"/>
<path d="M593 2375 c-12 -9 -32 -29 -44 -46 -27 -39 -13 -52 46 -43 41 6 115
65 115 91 0 19 -90 17 -117 -2z"/>
<path d="M2950 2377 c0 -15 45 -59 75 -75 34 -16 102 -25 110 -13 7 13 -37 70
-69 88 -29 17 -116 17 -116 0z"/>
<path d="M270 2348 c-74 -13 -130 -18 -187 -14 -97 6 -106 -4 -44 -53 68 -54
127 -75 211 -75 89 0 155 25 213 82 60 58 48 76 -33 47 -60 -21 -81 -19 -42 5
59 36 40 38 -118 8z"/>
<path d="M3240 2365 c0 -2 17 -13 38 -24 29 -16 32 -20 16 -21 -12 0 -41 7
-65 15 -70 25 -79 11 -29 -40 81 -83 197 -112 306 -77 71 22 192 108 176 124
-7 7 -21 7 -43 -1 -46 -16 -118 -14 -254 9 -128 21 -145 23 -145 15z"/>
<path d="M2940 2255 c0 -26 28 -72 56 -94 29 -22 84 -29 84 -9 0 22 -52 78
-90 98 -47 24 -50 24 -50 5z"/>
<path d="M653 2240 c-30 -18 -63 -65 -63 -90 0 -15 48 -12 75 6 20 13 65 82
65 99 0 12 -48 3 -77 -15z"/>
<path d="M473 2115 c-101 -80 -330 -188 -428 -202 -25 -3 -45 -11 -45 -17 0
-6 33 -22 73 -35 144 -47 272 -16 370 88 45 48 91 130 99 176 5 31 -23 27 -69
-10z"/>
<path d="M3120 2131 c0 -10 16 -50 36 -89 86 -173 261 -243 443 -178 71 24 91
46 44 46 -73 0 -263 82 -404 175 -55 36 -104 65 -109 65 -6 0 -10 -8 -10 -19z"/>
<path d="M674 2078 c-40 -27 -56 -47 -85 -108 -33 -68 -35 -75 -18 -78 10 -2
41 9 69 24 55 30 84 76 96 152 8 51 2 52 -62 10z"/>
<path d="M2926 2102 c-9 -14 15 -101 37 -133 21 -31 132 -97 144 -85 7 6 -54
136 -75 160 -16 17 -86 66 -96 66 -3 0 -7 -4 -10 -8z"/>
<path d="M800 2034 c-29 -48 -34 -66 -36 -130 -2 -43 1 -76 7 -80 13 -8 62 49
85 98 14 31 15 49 8 100 -5 34 -14 63 -19 65 -6 2 -26 -22 -45 -53z"/>
<path d="M2805 2080 c-3 -5 -7 -40 -8 -77 -2 -64 0 -71 38 -125 22 -31 45 -56
50 -54 15 4 18 105 5 150 -13 42 -58 116 -71 116 -4 0 -11 -4 -14 -10z"/>
<path d="M532 1813 c-12 -30 -104 -165 -108 -160 -5 4 59 121 78 145 6 7 8 15
4 19 -22 23 -166 -173 -253 -345 -36 -70 -78 -141 -95 -158 -44 -47 -19 -51
61 -9 118 62 204 152 269 282 29 57 72 193 72 228 0 21 -19 19 -28 -2z"/>
<path d="M3100 1819 c0 -18 30 -120 56 -191 31 -82 107 -191 171 -247 47 -40
170 -111 192 -111 19 0 12 27 -12 43 -13 8 -55 78 -96 158 -78 152 -123 222
-196 301 -55 60 -75 62 -42 6 13 -24 36 -64 51 -90 46 -80 21 -54 -45 47 -58
89 -79 111 -79 84z"/>
<path d="M689 1729 c-67 -121 -96 -234 -104 -408 -8 -169 -24 -300 -41 -333
-23 -45 2 -43 46 4 92 97 156 214 185 343 19 81 21 419 2 412 -18 -6 -53 -102
-83 -225 -15 -62 -29 -110 -32 -108 -9 10 21 212 39 266 20 57 11 91 -12 49z"/>
<path d="M2879 1750 c0 -3 -3 -78 -6 -167 -6 -194 8 -274 65 -396 52 -111 180
-269 184 -227 0 3 -7 29 -16 58 -9 32 -20 131 -26 249 -12 212 -30 305 -80
411 -30 64 -58 86 -46 35 18 -69 44 -224 50 -283 5 -65 5 -65 -8 -20 -8 25
-25 90 -39 145 -27 112 -48 170 -65 187 -7 7 -12 10 -13 8z"/>
</g>
</svg>
