<?xml version="1.0" standalone="no"?>
<!DOCTYPE svg PUBLIC "-//W3C//DTD SVG 20010904//EN"
 "http://www.w3.org/TR/2001/REC-SVG-20010904/DTD/svg10.dtd">
<svg version="1.0" xmlns="http://www.w3.org/2000/svg"
 width="390.000000pt" height="420.000000pt" viewBox="0 0 390.000000 420.000000"
 preserveAspectRatio="xMidYMid meet">
<metadata>
Created by potrace 1.16, written by Peter Selinger 2001-2019
</metadata>
<g transform="translate(0.000000,420.000000) scale(0.100000,-0.100000)"
fill="#000000" stroke="none">
<path d="M1896 4132 c-28 -68 -28 -68 -134 -86 -116 -19 -144 -31 -181 -69
-20 -22 -22 -30 -13 -56 10 -27 8 -33 -16 -52 -23 -18 -36 -20 -89 -16 -34 4
-65 2 -68 -3 -3 -4 13 -28 35 -52 22 -23 40 -49 40 -55 0 -7 -31 -34 -70 -60
-38 -27 -69 -52 -70 -58 0 -6 41 -9 105 -9 106 2 106 2 163 56 31 30 67 60 80
67 17 9 22 20 22 51 0 35 3 39 33 49 58 18 151 31 160 22 4 -4 11 -34 14 -65
3 -31 10 -59 14 -62 19 -12 8 -44 -21 -59 -33 -17 -41 -54 -15 -75 20 -17 3
-46 -32 -54 -42 -10 -128 -70 -158 -110 -42 -55 -65 -128 -65 -206 0 -40 -5
-72 -11 -76 -8 -4 -10 -32 -6 -83 9 -149 -38 -368 -97 -446 -14 -18 -26 -38
-26 -43 0 -5 23 -30 50 -56 28 -26 50 -51 50 -55 0 -16 -175 -35 -326 -36
-151 0 -151 0 -197 50 -26 28 -46 59 -47 70 0 26 33 63 96 108 95 68 134 155
110 247 -18 71 -52 108 -188 212 -128 97 -190 172 -204 244 -8 41 -21 43 -49
8 -21 -27 -21 -27 -68 40 -114 163 -187 306 -187 366 0 53 -27 34 -65 -43 -63
-130 -81 -248 -53 -366 6 -28 9 -54 5 -57 -3 -4 -19 9 -34 27 -58 70 -122 134
-128 127 -6 -6 11 -134 31 -236 7 -34 7 -34 -52 11 -61 47 -88 48 -66 5 15
-30 29 -90 37 -158 15 -123 69 -278 118 -336 15 -18 27 -35 27 -39 0 -16 -68
8 -200 70 -76 36 -141 65 -144 65 -10 0 -7 -89 4 -108 5 -9 23 -53 40 -98 17
-45 44 -102 61 -127 64 -97 200 -191 294 -203 25 -4 42 -10 38 -14 -23 -21
-234 -83 -288 -85 -40 -2 -60 -7 -60 -15 0 -35 210 -129 294 -131 20 -1 47 -4
61 -8 24 -7 24 -7 -10 -33 -79 -59 -220 -108 -311 -108 -16 0 -29 -4 -29 -9 0
-5 28 -35 62 -67 141 -130 280 -147 474 -58 41 18 74 29 74 22 0 -6 -27 -54
-59 -107 -33 -53 -75 -132 -94 -176 -45 -105 -86 -186 -105 -208 -23 -26 -7
-32 46 -19 145 38 264 135 341 280 24 45 46 80 48 78 2 -2 -3 -30 -11 -62 -8
-33 -24 -133 -36 -223 -12 -91 -30 -191 -40 -222 -24 -70 -24 -69 -5 -69 8 0
50 35 93 78 61 59 87 94 113 149 19 40 37 73 42 73 4 0 7 -31 7 -69 0 -141 48
-334 121 -488 90 -189 267 -408 460 -569 93 -77 263 -192 298 -201 33 -8 104
29 230 122 431 318 681 735 681 1136 0 49 3 89 8 89 4 0 16 -21 26 -48 11 -26
35 -71 54 -100 37 -57 157 -172 178 -172 16 0 19 26 5 35 -14 8 -39 135 -52
265 -10 105 -26 196 -45 259 -14 46 14 12 58 -71 54 -102 103 -157 180 -204
68 -41 189 -86 201 -74 5 4 -5 29 -21 56 -17 27 -51 97 -77 156 -26 59 -63
133 -82 165 -63 103 -85 144 -80 149 3 3 32 -8 64 -24 140 -71 268 -81 372
-27 52 26 171 128 171 147 0 4 -15 8 -32 8 -52 0 -154 28 -211 56 -68 35 -130
74 -125 80 3 2 42 9 87 14 94 12 159 36 237 85 66 42 72 65 15 58 -30 -4 -70
5 -166 37 -69 24 -128 46 -130 51 -3 4 19 13 50 19 67 14 152 69 224 145 54
57 101 145 122 229 6 25 15 49 20 52 15 9 11 107 -3 101 -7 -3 -68 -31 -134
-62 -67 -31 -139 -59 -160 -62 -39 -6 -39 -6 -13 28 58 76 94 179 124 357 8
51 22 109 30 129 24 57 4 60 -60 8 -31 -26 -59 -45 -61 -42 -3 3 2 31 10 63 8
33 18 82 21 109 4 28 9 58 12 68 10 37 -27 14 -97 -59 -39 -42 -73 -74 -76
-72 -2 3 3 38 12 79 16 76 14 158 -7 229 -16 56 -82 190 -94 190 -5 0 -16 -23
-23 -52 -19 -81 -116 -257 -205 -371 -30 -39 -30 -39 -52 -11 -23 28 -45 26
-45 -5 0 -32 -49 -116 -92 -157 -24 -23 -85 -73 -136 -112 -137 -103 -183
-177 -168 -275 9 -62 46 -114 122 -171 103 -78 109 -107 36 -179 -48 -47 -48
-47 -167 -47 -121 1 -340 22 -352 34 -4 4 19 33 51 65 58 58 58 58 23 104 -43
56 -71 140 -91 272 -11 73 -13 111 -6 135 14 50 12 96 -5 110 -11 9 -15 34
-15 94 0 64 -5 92 -24 133 -38 80 -114 144 -209 177 -24 8 -33 35 -19 57 17
27 15 35 -20 68 -31 29 -31 29 -15 64 10 19 17 48 17 64 0 53 17 63 85 52 33
-5 75 -14 94 -20 30 -10 33 -14 27 -42 -6 -27 0 -36 61 -94 89 -85 113 -95
192 -82 41 6 68 6 81 -1 26 -14 40 -13 40 4 0 8 -34 34 -75 58 -41 23 -75 47
-75 51 0 5 18 30 40 56 22 26 40 52 40 58 0 7 -24 9 -67 6 -58 -5 -72 -2 -93
15 -23 19 -24 23 -13 52 11 30 10 34 -26 72 -36 40 -39 41 -141 54 -57 7 -110
16 -117 19 -8 2 -27 34 -43 70 -26 58 -32 65 -57 65 -25 0 -31 -7 -57 -68z
m-1357 -492 c19 -38 68 -123 111 -187 69 -107 107 -185 81 -169 -5 4 -12 -3
-16 -14 -3 -11 -10 -20 -15 -20 -4 0 -28 45 -51 100 -24 55 -49 100 -56 100
-18 0 -17 -8 20 -107 39 -101 51 -153 37 -153 -16 0 -85 112 -110 179 -22 61
-34 78 -43 64 -6 -10 15 -86 38 -138 17 -39 17 -40 -2 -22 -11 9 -27 17 -35
17 -36 0 -64 227 -38 306 5 16 14 48 20 72 6 23 14 42 18 42 4 0 23 -31 41
-70z m2894 3 c30 -107 19 -323 -16 -323 -7 0 -18 -9 -25 -21 -23 -36 -23 -14
-1 39 12 28 18 59 15 68 -9 22 -19 10 -40 -49 -18 -49 -103 -173 -113 -164 -3
3 13 59 36 124 23 65 41 124 41 132 0 32 -26 -1 -56 -71 -57 -134 -83 -157
-95 -84 -5 32 -1 45 27 84 53 76 161 254 178 295 8 21 20 36 24 33 5 -3 17
-31 25 -63z m-1445 0 c2 -9 -9 -13 -37 -13 -39 0 -50 8 -34 24 11 11 66 2 71
-11z m-28 -184 c0 -37 -4 -70 -9 -73 -5 -3 -13 27 -19 67 -5 39 -13 83 -17 97
-8 25 -8 25 19 1 23 -22 26 -32 26 -92z m187 -3 c16 -13 42 -48 58 -78 25 -45
29 -65 30 -128 0 -113 4 -110 -120 -110 -78 0 -114 4 -137 16 -29 15 -34 15
-59 0 -35 -20 -206 -23 -233 -3 -14 10 -17 27 -17 84 0 89 28 158 82 207 45
41 116 79 133 73 8 -3 17 -45 25 -104 19 -159 51 -162 77 -8 9 55 21 105 26
112 11 14 85 -19 135 -61z m-1686 -264 c44 -56 105 -127 135 -157 46 -45 54
-57 48 -79 -3 -14 -11 -26 -16 -26 -20 0 -158 93 -184 123 -32 39 -74 122
-108 215 -49 138 -35 129 125 -76z m3118 118 c-53 -172 -107 -256 -209 -327
-41 -29 -78 -52 -83 -53 -4 0 -12 12 -18 27 -9 24 -5 31 44 82 30 31 87 99
126 151 120 159 136 179 147 179 8 1 6 -18 -7 -59z m-2746 -22 c31 -63 89
-121 212 -213 95 -70 140 -125 151 -181 15 -82 -21 -143 -125 -209 -67 -43
-86 -70 -86 -126 0 -30 8 -46 33 -72 39 -40 40 -47 7 -47 -22 0 -25 -4 -25
-40 0 -22 -5 -40 -10 -40 -18 0 -87 48 -108 75 -71 90 -50 224 53 342 71 81
58 131 -70 263 -88 92 -98 110 -98 180 0 46 23 120 37 120 2 0 15 -24 29 -52z
m2291 -5 c31 -91 18 -129 -87 -242 -126 -137 -138 -187 -64 -272 125 -142 113
-319 -25 -390 -53 -27 -59 -25 -52 21 6 38 5 40 -20 40 -32 0 -33 15 -3 35 47
30 60 98 29 148 -9 16 -48 50 -87 75 -81 54 -105 93 -105 168 0 75 38 128 157
216 115 85 186 156 210 209 9 22 20 39 24 39 4 0 14 -21 23 -47z m-2849 -121
c16 -20 51 -68 76 -107 25 -38 78 -104 117 -146 40 -42 72 -82 72 -87 0 -22
-21 -23 -54 -3 -46 29 -52 26 -21 -10 14 -17 24 -34 21 -36 -3 -3 -41 20 -86
52 -96 68 -112 94 -146 244 -34 150 -32 159 21 93z m3398 6 c-21 -113 -56
-228 -81 -262 -25 -37 -143 -126 -166 -126 -5 0 1 11 14 25 32 34 20 40 -24
14 -27 -16 -40 -19 -48 -11 -8 8 8 32 59 86 39 40 99 116 133 167 93 140 125
171 113 107z m-2833 -148 c72 -81 94 -112 105 -147 12 -42 -14 -24 -40 28 -15
28 -43 70 -64 92 -46 50 -91 115 -91 131 0 6 6 2 12 -9 6 -11 41 -54 78 -95z
m847 100 c24 -9 152 -18 258 -19 60 -1 282 16 296 23 25 11 28 -2 17 -79 -9
-70 -15 -81 -71 -120 -16 -11 -19 -31 -22 -144 -2 -72 -8 -138 -12 -146 -5 -8
-32 -32 -62 -54 -53 -40 -53 -40 -98 -15 -46 24 -46 24 -80 4 -48 -28 -62 -26
-117 23 -48 42 -48 42 -53 177 -5 135 -5 135 -45 170 -41 37 -57 79 -58 153 0
40 3 42 47 27z m1447 -32 c-4 -7 -28 -40 -54 -73 -26 -33 -59 -84 -75 -112
-27 -51 -45 -67 -45 -40 0 24 51 100 112 167 63 69 75 81 62 58z m-2380 -179
c28 -17 75 -49 104 -71 52 -39 52 -39 23 -76 -75 -93 -97 -222 -53 -308 27
-53 90 -107 142 -123 31 -9 40 -17 40 -34 0 -12 3 -32 6 -44 9 -33 -15 -30
-61 7 -26 21 -42 27 -49 20 -11 -11 41 -71 85 -97 23 -14 27 -24 33 -84 3 -37
2 -79 -4 -93 -10 -28 -78 -106 -91 -106 -18 0 -8 86 16 145 29 70 19 91 -19
40 -42 -54 -166 -119 -166 -86 0 9 66 124 93 163 15 22 4 32 -21 19 -25 -13
-151 -14 -172 -1 -12 7 -11 13 10 35 13 14 45 39 72 56 26 17 48 36 48 43 0 7
-25 11 -75 11 -41 1 -77 4 -81 8 -11 10 34 55 84 84 23 14 42 28 42 32 0 4
-35 7 -77 7 -65 -1 -85 3 -120 23 -24 14 -43 31 -43 39 0 13 16 14 100 9 55
-3 100 -1 100 4 0 5 -13 15 -28 23 -16 8 -34 21 -41 30 -10 12 -7 16 26 25 21
6 46 11 56 11 37 0 16 28 -30 39 -34 9 -61 26 -95 60 -26 27 -48 53 -48 60 0
22 50 10 125 -29 84 -44 95 -47 95 -25 0 8 -4 15 -9 15 -12 0 -61 47 -61 60 0
5 11 10 25 10 27 0 34 17 11 26 -8 3 -26 23 -40 45 -45 68 -31 76 48 28z m946
-53 c0 -55 -31 -309 -39 -318 -3 -3 -28 13 -56 37 -49 43 -49 43 -31 82 29 58
56 154 56 195 0 20 5 49 10 64 11 27 11 27 35 4 19 -18 25 -34 25 -64z m1519
57 c-13 -36 -28 -54 -62 -76 -34 -22 -27 -38 13 -30 42 8 38 -10 -10 -48 -60
-49 -34 -58 42 -16 73 42 148 59 148 34 0 -39 -130 -127 -188 -127 -33 0 -1
-25 44 -35 60 -12 64 -33 12 -58 -52 -25 -49 -42 5 -32 42 8 158 7 166 -1 10
-9 -34 -44 -75 -60 -33 -12 -60 -15 -104 -11 -49 6 -60 4 -60 -8 0 -8 4 -15 9
-15 5 0 34 -19 65 -42 70 -51 62 -63 -40 -63 -43 0 -74 -4 -74 -10 0 -5 19
-22 43 -38 23 -15 56 -39 72 -52 29 -25 29 -26 11 -40 -27 -21 -141 -23 -161
-4 -11 11 -35 12 -35 1 0 -5 25 -46 55 -91 30 -45 55 -86 55 -92 0 -32 -128
27 -166 77 -45 59 -58 39 -25 -37 24 -55 38 -139 22 -139 -21 0 -85 66 -101
105 -24 56 -17 162 12 171 24 7 85 60 98 85 17 31 -6 30 -45 -1 -50 -40 -65
-39 -65 4 0 40 18 62 59 71 39 8 107 68 131 115 32 62 35 126 10 200 -12 36
-35 82 -51 102 -16 20 -29 40 -29 45 1 23 182 142 217 143 9 0 9 -7 2 -27z
m-955 1 c3 -9 6 -29 6 -46 0 -47 29 -148 58 -201 26 -48 26 -48 -28 -102 -30
-30 -57 -52 -61 -47 -8 8 -25 141 -35 282 -6 85 -5 94 9 82 16 -14 33 0 22 18
-7 11 2 30 15 30 4 0 11 -7 14 -16z m-2079 -188 c66 -33 156 -73 199 -90 44
-17 81 -37 84 -45 6 -18 -40 -8 -136 30 -79 32 -92 34 -92 19 0 -11 152 -85
196 -96 26 -7 64 -48 64 -70 0 -19 -44 -18 -159 2 -51 9 -95 14 -98 11 -2 -3
5 -15 16 -26 12 -12 16 -21 10 -21 -5 0 -35 24 -66 52 -41 40 -66 76 -99 145
-44 91 -65 159 -48 152 5 -3 63 -31 129 -63z m3675 59 c0 -2 -11 -35 -25 -72
-29 -76 -64 -140 -108 -196 -24 -32 -34 -37 -54 -32 -14 3 -76 -2 -139 -11
-63 -10 -117 -14 -121 -10 -4 3 -2 19 3 33 8 23 30 36 129 79 65 28 121 56
123 63 5 16 -16 14 -78 -10 -75 -29 -150 -49 -150 -39 0 13 23 27 75 44 28 9
111 47 185 85 127 64 160 78 160 66z m-2251 -243 c24 -21 42 -44 40 -51 -6
-16 -119 75 -119 96 0 18 20 6 79 -45z m367 -1 c16 -14 170 -69 267 -95 137
-37 252 -48 447 -44 115 2 174 -1 173 -7 -1 -6 -7 -67 -13 -135 -6 -68 -13
-127 -15 -130 -2 -4 -5 -139 -6 -301 -5 -668 -46 -871 -234 -1159 -111 -171
-280 -341 -478 -484 -45 -32 -103 -69 -129 -82 -48 -24 -48 -24 -115 18 -173
107 -393 303 -508 452 -148 191 -243 412 -275 636 -14 100 -27 404 -29 670 -1
118 -7 271 -13 340 -6 69 -12 138 -12 154 -1 29 -1 29 224 31 175 1 243 5 305
19 92 20 300 87 342 110 32 17 55 20 69 7z m332 -3 c-2 -6 -10 -14 -16 -16 -7
-2 -10 2 -6 12 7 18 28 22 22 4z m-42 -55 c-10 -10 -19 5 -10 18 6 11 8 11 12
0 2 -7 1 -15 -2 -18z m-1636 -232 c0 -24 -87 -51 -198 -60 -40 -3 -72 -10 -72
-16 0 -5 28 -12 62 -15 63 -5 63 -5 10 -24 -63 -21 -113 -17 -187 18 -50 23
-50 23 -5 35 25 7 74 22 110 33 88 29 280 49 280 29z m2798 -1 c40 -5 112 -21
160 -35 128 -39 120 -34 97 -51 -49 -36 -180 -48 -231 -21 -29 16 -29 16 34
17 46 0 63 3 60 13 -3 7 -33 14 -79 18 -41 3 -84 10 -96 17 -12 7 -35 12 -50
12 -28 0 -53 15 -53 32 0 11 67 10 158 -2z m-2758 -169 c0 -14 -54 -51 -134
-92 -38 -19 -72 -41 -74 -48 -5 -16 20 -9 97 25 30 13 72 27 94 31 34 5 39 4
34 -9 -3 -9 -1 -20 5 -26 8 -8 1 -17 -23 -31 -19 -12 -38 -21 -42 -21 -5 0
-51 -25 -103 -56 -112 -67 -156 -76 -228 -45 -55 24 -106 58 -106 71 0 5 28
14 63 21 42 8 116 40 232 100 178 92 185 95 185 80z m2664 -36 c125 -71 270
-135 325 -144 28 -4 55 -11 59 -15 18 -19 -114 -86 -182 -93 -47 -4 -57 -1
-116 36 -36 23 -100 59 -142 81 -70 36 -77 42 -69 62 12 34 38 33 130 -7 46
-19 89 -35 97 -35 32 0 10 21 -58 55 -78 39 -138 80 -138 96 0 15 12 11 94
-36z m-2579 -370 c-21 -41 -35 -78 -32 -81 6 -7 33 21 67 70 14 19 28 36 32
36 11 0 -11 -46 -51 -110 -58 -93 -218 -246 -237 -227 -6 6 86 191 124 251
105 163 167 202 97 61z m2407 63 c79 -107 219 -360 206 -374 -26 -25 -207 159
-261 265 -21 41 -36 79 -34 85 2 5 22 -18 46 -52 62 -92 81 -82 32 17 -37 72
-41 91 -21 91 4 0 19 -15 32 -32z m-220 -80 c28 -57 48 -127 71 -253 20 -105
28 -185 18 -185 -8 0 -39 72 -71 163 -10 32 -26 108 -35 169 -8 61 -18 121
-21 134 -11 42 12 25 38 -28z m-1957 -25 c-12 -121 -36 -226 -72 -320 -20 -51
-40 -93 -44 -93 -11 0 -12 -7 6 108 26 172 86 372 111 372 4 0 3 -30 -1 -67z"/>
<path d="M1670 3057 c0 -13 8 -31 18 -40 24 -22 192 -99 205 -94 13 4 10 87
-3 100 -4 5 -48 17 -96 28 -49 11 -97 22 -106 25 -14 4 -18 0 -18 -19z"/>
<path d="M2113 3051 c-51 -9 -97 -21 -102 -26 -10 -11 -18 -91 -10 -99 6 -7
142 48 185 75 30 18 44 37 44 60 0 11 1 11 -117 -10z"/>
<path d="M1660 2891 c0 -6 5 -13 10 -16 6 -3 10 1 10 9 0 9 -4 16 -10 16 -5 0
-10 -4 -10 -9z"/>
<path d="M1846 2454 c-88 -38 -230 -76 -349 -94 -87 -13 -350 -17 -385 -6 -22
7 -22 7 -16 -81 3 -48 8 -95 11 -103 3 -8 9 -213 13 -455 9 -470 15 -534 66
-697 62 -199 166 -367 337 -544 104 -109 306 -273 389 -317 35 -18 35 -18 104
24 348 215 620 557 705 887 34 132 40 205 49 622 8 361 21 592 36 642 4 15
-11 17 -169 17 -246 1 -475 44 -619 117 -60 31 -76 29 -172 -12z m326 -84
c136 -41 281 -60 448 -60 142 0 142 0 137 -52 -3 -29 -10 -190 -16 -358 -6
-168 -12 -332 -14 -364 -2 -60 -2 -60 -47 -13 -45 47 -45 47 -140 57 -130 13
-185 31 -232 77 -33 32 -41 36 -56 25 -45 -32 -156 -83 -169 -78 -12 5 -14 21
-8 94 12 175 27 303 44 389 18 88 18 88 -26 127 -24 21 -64 67 -89 102 -25 36
-53 64 -63 64 -9 0 -25 -15 -36 -32 -10 -18 -52 -66 -92 -106 -73 -73 -73 -73
-58 -136 30 -129 63 -506 45 -506 -17 0 -70 29 -123 66 -26 19 -50 34 -54 34
-4 0 -25 -18 -48 -40 -47 -46 -114 -67 -247 -77 -88 -6 -88 -6 -124 -59 -37
-53 -37 -53 4 -107 40 -54 40 -54 149 -61 143 -9 175 -19 222 -67 39 -41 39
-41 99 3 69 51 119 75 132 62 16 -16 -27 -397 -57 -506 -15 -57 -15 -57 9 -87
14 -16 44 -75 68 -132 84 -203 99 -234 112 -237 10 -2 25 27 47 85 57 151 109
265 131 288 20 22 21 25 6 86 -33 144 -70 487 -55 503 11 12 119 -38 162 -73
28 -24 28 -24 65 12 49 48 73 55 219 69 125 12 125 12 160 55 20 24 40 43 46
43 14 0 0 -195 -24 -312 -49 -244 -159 -445 -354 -646 -115 -119 -200 -191
-316 -267 -95 -62 -76 -66 -220 37 -284 203 -497 475 -583 743 -56 177 -64
259 -76 775 -6 234 -11 445 -13 470 -2 45 -2 45 183 51 236 8 395 41 565 118
60 28 60 28 125 -1 35 -16 108 -42 162 -58z m-222 -450 c0 -269 -4 -421 -10
-425 -7 -4 -7 -12 0 -25 13 -24 14 -1020 1 -1020 -5 0 -15 17 -22 37 -21 68
-89 227 -116 272 -24 41 -25 48 -14 90 20 79 65 441 60 479 -4 26 6 47 37 82
20 22 34 43 30 47 -8 9 -186 -84 -247 -130 -50 -37 -50 -37 -74 -8 -37 43 -91
60 -218 67 -113 7 -113 7 -146 45 -32 39 -32 39 -1 77 31 39 32 39 119 45 119
9 215 39 243 77 26 35 35 37 62 11 18 -17 240 -141 252 -141 12 0 1 24 -29 64
-33 42 -34 48 -41 162 -8 128 -28 298 -46 382 -12 52 -12 52 47 112 33 33 68
75 78 94 11 19 23 33 27 30 4 -3 8 -194 8 -424z"/>
</g>
</svg>
