<?xml version="1.0" standalone="no"?>
<!DOCTYPE svg PUBLIC "-//W3C//DTD SVG 20010904//EN"
 "http://www.w3.org/TR/2001/REC-SVG-20010904/DTD/svg10.dtd">
<svg version="1.0" xmlns="http://www.w3.org/2000/svg"
 width="387.000000pt" height="459.000000pt" viewBox="0 0 387.000000 459.000000"
 preserveAspectRatio="xMidYMid meet">
<metadata>
Created by potrace 1.16, written by Peter Selinger 2001-2019
</metadata>
<g transform="translate(0.000000,459.000000) scale(0.100000,-0.100000)"
fill="#000000" stroke="none">
<path d="M1919 4514 c-35 -59 -35 -59 -97 -57 -34 1 -62 0 -62 -3 0 -15 44
-161 51 -170 5 -7 23 -14 39 -17 23 -5 31 -14 38 -39 11 -39 0 -58 -32 -58
-41 0 -125 -51 -166 -100 -47 -57 -77 -118 -85 -180 -10 -70 -13 -75 -31 -59
-13 11 -15 25 -9 79 7 65 7 65 -14 46 -20 -18 -24 -18 -78 -3 -32 8 -68 18
-80 22 -23 7 -23 6 -22 -84 1 -50 3 -91 5 -91 2 0 21 9 41 20 21 11 56 20 79
20 34 0 43 -4 52 -25 8 -16 20 -25 35 -25 39 0 54 21 61 83 14 127 97 224 229
267 21 6 45 9 54 6 13 -5 11 -10 -11 -31 -28 -26 -33 -54 -15 -84 9 -14 8 -27
-6 -57 -13 -31 -29 -46 -74 -69 -116 -61 -200 -174 -209 -282 -2 -35 -9 -66
-13 -69 -14 -8 -11 -82 4 -107 11 -18 12 -63 6 -227 -7 -205 -7 -205 17 -225
13 -12 24 -23 24 -27 0 -3 -47 -22 -105 -42 -105 -37 -105 -37 -159 -11 -36
18 -81 29 -141 35 -101 10 -135 28 -135 68 0 29 29 62 104 116 42 31 86 112
86 159 0 76 -52 138 -197 238 -252 173 -313 276 -313 535 0 57 -4 105 -9 108
-16 10 -74 -73 -131 -188 -64 -130 -85 -147 -147 -121 -21 8 -48 27 -59 42
-22 26 -22 26 -34 3 -21 -39 -8 -206 19 -260 79 -153 228 -272 467 -371 54
-23 101 -43 103 -45 2 -2 -2 -10 -9 -19 -9 -11 -23 -13 -51 -9 -38 6 -38 6
-32 -43 3 -31 1 -58 -7 -73 -12 -22 -13 -22 -39 26 -29 54 -85 98 -116 90 -25
-7 -147 59 -236 126 -123 93 -201 215 -204 318 -2 67 -21 74 -42 15 -25 -70
-33 -147 -23 -205 17 -97 17 -95 -9 -92 -23 4 -24 2 -17 -44 21 -157 160 -264
387 -299 51 -8 89 -63 89 -128 0 -53 25 -109 64 -146 36 -33 33 -41 -15 -41
-86 0 -156 58 -145 120 14 77 18 71 -71 91 -101 22 -194 65 -348 162 -66 42
-123 73 -127 69 -8 -8 15 -131 35 -188 38 -105 96 -184 162 -219 38 -21 41
-38 7 -43 -30 -5 -28 -18 11 -53 42 -39 97 -55 144 -43 59 15 53 33 -13 36
-88 5 -78 24 16 31 47 4 100 15 130 28 50 21 50 21 86 -6 32 -25 34 -29 21
-48 -20 -32 -294 -170 -420 -212 -59 -20 -129 -37 -154 -39 -26 -1 -48 -7 -50
-13 -6 -17 73 -91 127 -118 34 -17 50 -31 48 -42 -4 -22 53 -60 121 -80 41
-11 77 -14 139 -10 81 6 83 6 76 -15 -6 -19 -4 -20 40 -14 25 4 46 4 46 -1 0
-4 -9 -32 -20 -61 -11 -29 -38 -117 -60 -197 -22 -79 -50 -172 -64 -207 -25
-66 -87 -181 -113 -210 -8 -10 -13 -25 -9 -34 5 -14 15 -15 63 -9 88 11 155
40 218 96 60 52 74 53 75 2 0 -13 6 -23 13 -23 20 0 102 110 143 192 39 80 54
89 54 34 0 -51 37 -243 65 -342 87 -299 238 -557 496 -849 99 -112 435 -451
462 -467 28 -15 380 336 568 564 275 337 432 691 475 1076 3 34 9 62 13 62 3
0 25 -38 49 -85 41 -79 122 -185 143 -185 5 0 9 10 9 23 0 50 15 51 71 1 66
-59 136 -91 216 -100 76 -8 89 7 50 58 -59 78 -117 217 -166 400 -27 101 -57
200 -65 220 -22 51 -21 51 25 44 34 -5 42 -4 45 11 4 16 18 18 112 18 93 0
113 3 152 24 58 30 80 50 80 71 0 10 10 20 23 24 13 3 47 23 75 43 39 28 52
44 52 63 0 24 -5 27 -62 39 -182 37 -556 221 -558 273 0 4 17 17 39 27 38 20
39 20 92 1 30 -10 83 -21 119 -25 36 -4 72 -9 80 -11 27 -9 -11 -24 -62 -24
-55 0 -71 -16 -31 -31 41 -16 101 -4 147 28 47 33 57 58 26 66 -25 6 -26 24
-1 32 29 9 116 106 144 161 14 27 31 69 38 94 7 25 16 49 21 55 12 13 10 105
-2 105 -6 0 -63 -32 -126 -70 -188 -114 -249 -142 -364 -164 -55 -11 -64 -16
-62 -32 15 -83 14 -95 -9 -121 -30 -32 -78 -53 -124 -53 -42 0 -46 17 -9 51
39 36 54 72 54 128 0 75 39 128 100 136 165 24 315 115 360 219 19 43 37 136
26 136 -3 0 -15 -5 -26 -12 -28 -18 -30 -9 -14 52 20 76 18 146 -6 224 -26 84
-50 90 -49 12 2 -111 -95 -251 -245 -355 -92 -63 -171 -101 -213 -101 -36 0
-82 -40 -103 -89 -25 -62 -54 -20 -47 69 1 27 -1 34 -13 31 -35 -10 -65 -5
-68 10 -2 11 17 24 65 44 342 143 520 316 531 517 5 73 -4 138 -17 138 -5 0
-23 -13 -41 -30 -37 -35 -86 -40 -119 -12 -12 9 -34 54 -50 99 -16 45 -39 97
-52 115 -29 42 -61 78 -69 78 -4 0 -10 -42 -13 -92 -8 -113 -37 -232 -74 -300
-36 -66 -140 -160 -277 -251 -145 -95 -181 -143 -181 -237 0 -80 20 -115 102
-175 64 -48 89 -86 73 -115 -16 -30 -44 -41 -136 -50 -61 -6 -98 -16 -134 -36
-43 -23 -55 -26 -78 -17 -15 6 -64 23 -109 38 -46 15 -83 31 -83 36 0 5 10 15
23 24 24 15 24 15 19 231 -3 153 -1 219 7 227 13 13 15 93 2 101 -4 3 -11 35
-13 70 -9 109 -92 219 -212 282 -31 16 -59 38 -62 49 -4 11 -13 28 -22 38 -14
15 -13 19 1 35 25 28 21 69 -8 88 -59 39 22 40 98 2 57 -28 122 -93 146 -143
11 -24 24 -72 28 -107 7 -57 11 -63 37 -73 26 -9 31 -7 56 24 25 29 32 32 62
26 18 -4 48 -16 66 -26 19 -11 37 -17 42 -14 4 3 8 44 9 91 1 79 0 86 -16 79
-70 -26 -136 -38 -154 -27 -10 7 -21 12 -23 12 -3 0 -4 -26 -3 -58 1 -66 -8
-89 -29 -71 -7 6 -12 15 -9 19 7 12 -15 110 -33 145 -42 83 -129 156 -209 177
-32 8 -43 15 -43 30 0 32 18 55 48 61 20 4 33 15 40 34 9 24 42 147 42 158 0
2 -26 3 -57 2 -55 -2 -57 -1 -87 39 -17 23 -36 49 -41 59 -10 16 -15 10 -46
-41z m90 -81 c14 -16 30 -23 56 -23 43 0 44 -23 2 -28 -36 -4 -53 -33 -68
-112 -13 -74 -25 -92 -55 -84 -16 4 -23 16 -28 47 -18 124 -21 130 -73 152
-41 17 -35 37 8 28 34 -6 61 13 86 61 16 30 16 30 34 5 11 -13 28 -34 38 -46z
m62 -126 c-18 -18 -25 2 -10 30 14 26 14 26 17 4 2 -13 -1 -28 -7 -34z m-223
31 c15 -15 16 -41 0 -36 -13 5 -31 48 -20 48 5 0 13 -5 20 -12z m131 -252 c17
-20 3 -46 -25 -46 -39 0 -32 54 7 59 4 1 12 -5 18 -13z m-1220 -111 c2 -187
77 -299 312 -468 137 -99 179 -149 179 -214 0 -58 -26 -101 -90 -148 -28 -20
-59 -48 -70 -62 -27 -34 -27 -94 0 -118 26 -23 25 -35 0 -35 -28 0 -71 23 -95
52 -18 21 -20 21 -23 5 -6 -28 5 -45 40 -67 30 -18 44 -19 149 -14 95 6 125 4
167 -10 57 -19 61 -29 36 -78 -15 -29 -18 -30 -62 -24 -60 8 -76 24 -34 32 18
4 35 10 37 15 10 15 -33 19 -101 9 -135 -19 -208 -8 -256 40 -24 24 -28 37
-28 82 0 65 28 126 99 222 28 38 51 72 51 77 0 14 -182 299 -191 299 -20 0 -6
-33 62 -144 39 -65 68 -120 66 -123 -3 -3 -29 3 -57 12 -101 34 -204 157 -244
295 -37 125 -28 317 21 430 14 31 16 33 23 15 5 -11 9 -47 9 -80z m2476 -1
c19 -103 18 -162 0 -269 -25 -143 -102 -281 -195 -350 -38 -28 -117 -61 -126
-52 -3 3 24 55 59 115 70 117 78 135 62 141 -12 5 -183 -266 -184 -291 -1 -9
15 -38 35 -63 71 -93 104 -166 104 -229 0 -50 -4 -61 -28 -86 -40 -40 -101
-54 -192 -45 -115 12 -153 11 -157 -2 -3 -8 4 -13 19 -13 27 0 54 -15 41 -23
-5 -3 -31 -9 -59 -12 -47 -6 -50 -5 -66 23 -29 49 -24 60 36 77 40 12 88 15
181 13 126 -3 126 -3 156 30 51 56 31 73 -28 22 -18 -16 -45 -30 -58 -30 -30
0 -31 4 -4 46 36 59 20 90 -91 183 -61 52 -84 97 -75 151 10 60 58 113 171
190 239 163 304 251 341 460 8 47 17 91 19 99 9 29 25 -7 39 -85z m-1255 -217
c0 -119 4 -177 12 -185 15 -15 -9 -25 -49 -20 -20 2 -27 7 -23 18 2 8 6 87 8
175 1 88 5 166 7 173 2 6 14 12 25 12 19 0 20 -6 20 -173z m-517 152 c20 -5
37 -14 37 -19 0 -13 -23 -13 -36 0 -8 8 -15 6 -24 -5 -18 -22 -30 -18 -30 10
0 28 1 29 53 14z m1037 -20 c0 -27 -2 -30 -15 -19 -8 7 -15 21 -15 31 0 11 7
19 15 19 10 0 15 -10 15 -31z m-50 12 c0 -12 -20 -25 -27 -18 -7 7 6 27 18 27
5 0 9 -4 9 -9z m-294 -91 c45 -42 70 -92 78 -158 10 -75 4 -79 -96 -69 -143
15 -128 -4 -128 161 0 78 3 146 7 149 9 9 97 -43 139 -83z m-258 -67 c-3 -148
-3 -148 -73 -154 -38 -4 -86 -8 -105 -10 -35 -4 -35 -4 -38 53 -5 97 42 173
143 233 77 45 77 45 73 -122z m-16 -200 c3 -10 21 -26 41 -37 35 -18 36 -18
71 4 20 12 36 28 36 37 0 12 13 13 83 8 157 -11 167 -14 167 -39 0 -22 -4 -23
-112 -29 -62 -3 -136 -13 -163 -21 -45 -14 -56 -14 -100 0 -28 8 -101 18 -162
21 -109 6 -113 7 -113 29 0 21 5 23 88 29 48 3 92 8 97 10 29 10 63 4 67 -12z
m16 -109 c49 -13 63 -13 116 0 34 8 98 18 143 22 72 6 84 4 89 -10 11 -29 -14
-102 -65 -188 -27 -45 -69 -138 -92 -205 -45 -130 -55 -141 -96 -104 -18 17
-20 28 -15 119 6 121 -4 212 -23 212 -21 0 -25 -25 -25 -175 0 -144 0 -144
-27 -165 -14 -11 -29 -17 -33 -13 -4 4 -25 62 -48 128 -24 71 -63 159 -96 216
-37 63 -58 111 -62 143 -7 49 -7 49 86 42 51 -4 117 -14 148 -22z m-204 -177
c32 -70 94 -322 82 -334 -3 -3 -33 17 -68 44 -63 50 -63 50 -63 189 -1 138 2
174 11 174 3 0 20 -33 38 -73z m569 -83 c4 -81 4 -150 1 -155 -9 -15 -125
-101 -130 -97 -2 3 8 61 22 129 24 113 79 269 95 269 3 0 9 -66 12 -146z
m-1915 1 c-7 -8 -38 23 -38 38 0 6 10 2 22 -10 12 -13 19 -25 16 -28z m3242
10 c-7 -8 -17 -15 -23 -15 -5 0 -2 9 8 20 21 23 35 19 15 -5z m-2861 -17 c83
-30 101 -54 111 -151 9 -77 26 -123 54 -146 13 -11 16 -37 16 -132 0 -71 -4
-119 -10 -119 -12 0 -35 36 -45 70 -4 14 -31 50 -61 81 -29 31 -56 69 -60 85
-4 16 -2 65 4 109 15 105 15 105 -8 105 -16 0 -20 -7 -20 -31 0 -27 -2 -30
-16 -18 -33 27 -82 158 -66 174 7 7 11 6 101 -27z m2561 5 c0 -33 -39 -121
-66 -148 -19 -18 -19 -18 -24 11 -3 17 -11 29 -20 29 -16 0 -16 -3 -4 -127 9
-88 3 -106 -51 -159 -26 -25 -59 -71 -75 -106 -16 -35 -34 -63 -39 -63 -7 0
-11 43 -11 124 0 103 3 126 17 137 27 23 53 91 53 139 0 27 9 64 23 90 19 38
29 47 67 58 25 7 59 19 75 27 45 20 55 18 55 -12z m-1244 -293 c186 -105 308
-140 484 -140 133 0 296 30 403 75 16 7 17 -23 17 -549 0 -597 -4 -654 -55
-856 -101 -401 -322 -733 -793 -1193 -117 -114 -145 -136 -159 -128 -34 18
-347 337 -458 466 -302 352 -449 651 -511 1040 -11 67 -16 235 -21 647 -5 496
-4 558 10 564 8 3 51 -6 94 -19 162 -52 378 -62 524 -26 82 20 339 135 353
158 11 17 16 15 112 -39z m-426 -20 c0 -5 -4 -10 -9 -10 -6 0 -13 5 -16 10 -3
6 1 10 9 10 9 0 16 -4 16 -10z m700 0 c0 -5 -7 -10 -15 -10 -8 0 -15 5 -15 10
0 6 7 10 15 10 8 0 15 -4 15 -10z m-1495 -221 c10 -20 32 -52 51 -70 28 -27
34 -40 34 -76 0 -40 -3 -44 -40 -63 -21 -11 -46 -20 -54 -20 -29 0 -46 30 -46
80 0 50 0 50 -30 43 -22 -4 -36 0 -51 13 -18 16 -20 26 -14 68 3 28 8 52 10
55 2 3 30 6 63 7 60 1 60 1 77 -37z m2412 -26 c4 -55 2 -63 -17 -73 -12 -6
-33 -10 -48 -8 -26 3 -27 0 -30 -43 -2 -31 -10 -53 -23 -65 -19 -17 -21 -17
-67 2 -46 19 -47 20 -50 69 -2 46 0 52 28 70 18 11 41 38 52 60 11 22 24 42
29 45 4 3 33 5 65 5 57 0 57 0 61 -62z m-2581 -311 c-108 -105 -156 -132 -236
-131 -58 0 -156 28 -153 43 1 5 33 19 70 31 101 32 177 74 288 160 100 77 100
77 113 33 13 -43 13 -43 -82 -136z m2621 109 c111 -85 183 -126 285 -162 81
-29 88 -34 72 -46 -53 -39 -175 -44 -243 -11 -65 31 -221 188 -221 221 0 32 9
57 21 57 5 0 44 -27 86 -59z m-2925 -29 c8 -8 1 -21 -27 -47 -33 -29 -46 -35
-84 -35 -45 0 -122 28 -135 48 -4 7 9 15 31 21 21 5 54 14 73 20 42 12 127 8
142 -7z m2678 3 c10 -12 10 -21 2 -40 -17 -37 -32 -30 -32 15 0 42 9 50 30 25z
m681 1 c24 -8 56 -17 72 -20 15 -4 27 -10 27 -14 0 -17 -65 -44 -119 -49 -54
-5 -60 -3 -94 27 -43 37 -45 47 -14 60 33 13 78 12 128 -4z m-2801 -26 c0 -31
-16 -41 -26 -15 -8 19 2 45 16 45 5 0 10 -13 10 -30z m-90 -72 c-38 -74 -105
-266 -115 -332 -10 -67 11 -59 30 12 41 147 108 322 124 322 15 0 21 -29 11
-56 -6 -14 -21 -105 -35 -202 -22 -151 -76 -410 -92 -435 -2 -4 -12 -3 -21 2
-13 8 -31 -4 -84 -55 -69 -66 -133 -103 -180 -104 -16 0 -28 2 -28 5 0 2 18
38 40 79 21 42 62 149 90 238 85 271 127 378 198 503 44 77 73 108 86 95 6 -6
-2 -31 -24 -72z m2300 35 c65 -98 139 -269 195 -453 65 -214 95 -294 136 -369
18 -31 27 -57 22 -62 -5 -5 -31 -3 -60 6 -40 12 -70 32 -131 90 -60 56 -82 71
-90 63 -8 -8 -15 -8 -21 -2 -18 18 -72 260 -87 388 -8 72 -22 164 -30 204 -15
72 -14 102 5 102 11 0 61 -136 100 -269 15 -52 33 -97 40 -99 10 -3 12 5 6 39
-10 64 -63 225 -95 294 -55 116 -49 155 10 68z m-2295 -663 c-24 -52 -31 -45
-9 9 9 23 19 39 22 37 3 -3 -3 -24 -13 -46z m2280 -15 c16 -40 16 -40 -4 -15
-11 13 -22 35 -24 48 -6 33 9 15 28 -33z"/>
<path d="M765 3680 c-20 -32 88 -290 122 -290 7 0 -2 29 -22 73 -19 41 -44
105 -56 143 -25 76 -33 91 -44 74z"/>
<path d="M3131 3672 c-6 -11 -11 -26 -11 -33 0 -7 -20 -63 -45 -125 -50 -125
-52 -132 -28 -113 39 33 125 261 105 281 -7 7 -14 3 -21 -10z"/>
<path d="M1700 3397 c0 -45 45 -85 121 -108 38 -12 76 -18 84 -15 15 6 21 69
9 100 -7 19 -54 32 -146 41 -68 7 -68 6 -68 -18z"/>
<path d="M2125 3413 c-115 -9 -135 -22 -135 -86 0 -67 7 -70 86 -43 104 36
103 36 125 78 22 43 18 59 -14 56 -12 -1 -40 -3 -62 -5z"/>
<path d="M1900 2790 c-62 -41 -196 -97 -288 -121 -155 -40 -353 -34 -517 16
-27 8 -52 12 -56 10 -14 -9 0 -902 17 -1035 60 -480 294 -885 754 -1308 69
-63 130 -116 136 -119 15 -6 81 53 264 236 243 244 362 403 480 644 73 150
115 280 152 472 20 101 22 150 26 613 2 276 2 502 0 502 -2 0 -48 -11 -103
-25 -143 -37 -292 -43 -415 -17 -114 23 -232 69 -318 123 -35 21 -69 39 -75
39 -7 0 -32 -14 -57 -30z m127 -64 c79 -46 164 -81 264 -108 107 -28 322 -31
437 -5 40 10 78 17 83 17 5 0 9 -141 9 -354 0 -351 0 -355 -21 -361 -28 -9
-192 4 -257 21 -56 15 -166 67 -177 84 -11 17 -20 11 -39 -25 -12 -22 -35 -42
-62 -56 -38 -18 -49 -19 -79 -9 -73 24 -104 99 -91 221 7 71 35 131 76 161 35
26 36 32 10 65 -24 31 -27 110 -5 139 26 35 18 41 -52 41 -56 -1 -77 4 -119
27 -52 28 -52 28 -80 7 -37 -26 -114 -43 -164 -35 -44 7 -51 -5 -25 -40 21
-28 19 -95 -5 -134 -23 -38 -26 -62 -6 -62 23 0 64 -57 81 -112 43 -146 -6
-281 -102 -281 -51 0 -99 26 -118 63 -9 17 -20 30 -25 30 -5 0 -33 -14 -62
-31 -65 -38 -166 -65 -284 -74 -150 -11 -137 -45 -132 361 2 189 7 346 9 349
3 2 39 -3 80 -12 107 -24 320 -23 424 1 100 23 213 66 290 111 33 19 65 35 72
35 7 0 38 -15 70 -34z m-129 -871 c28 -30 53 -55 56 -55 3 0 28 25 57 55 28
30 60 55 70 55 28 0 69 -57 69 -95 0 -34 -17 -56 -29 -38 -3 6 -17 16 -30 22
-21 12 -27 9 -63 -26 -60 -58 -64 -70 -34 -102 14 -15 26 -32 26 -37 0 -6 -15
-25 -34 -43 -35 -34 -35 -34 -65 0 -37 41 -38 49 -6 79 14 13 25 29 25 35 0
14 -95 105 -109 105 -6 0 -19 -9 -30 -21 -25 -27 -41 -17 -41 26 0 39 41 95
70 95 10 0 41 -25 68 -55z m-552 -235 c43 -21 79 -49 111 -86 26 -30 52 -54
59 -54 6 0 14 14 18 31 14 74 81 119 176 119 102 0 116 -23 108 -178 -6 -116
-38 -197 -91 -231 -43 -28 -46 -40 -16 -67 49 -43 56 -104 21 -166 -15 -26
-15 -28 30 -76 25 -27 55 -67 66 -88 29 -57 68 -190 88 -304 15 -80 22 -100
36 -100 12 0 19 15 28 58 50 255 100 385 170 445 40 34 40 34 20 72 -30 59
-26 98 15 144 19 21 35 42 35 47 -1 5 -15 18 -33 29 -20 12 -43 43 -62 80 -27
54 -30 71 -33 172 -4 109 -3 113 22 138 21 21 34 25 81 25 31 0 70 -6 88 -14
48 -19 87 -70 87 -112 0 -47 18 -43 63 14 75 94 177 142 306 142 63 0 63 0 56
-55 -9 -74 -58 -260 -91 -342 -75 -191 -205 -402 -356 -578 -111 -129 -373
-385 -394 -385 -19 0 -218 184 -315 291 -217 241 -338 426 -434 668 -43 108
-95 307 -95 365 0 39 0 39 86 33 69 -4 98 -11 150 -37z"/>
<path d="M1618 4377 c-26 -32 -26 -32 -76 -14 -64 22 -65 22 -57 -12 3 -16 3
-46 -1 -66 -5 -31 -13 -40 -48 -56 -22 -10 -51 -19 -63 -19 -28 0 -29 -14 -3
-47 26 -33 25 -57 -2 -83 -30 -27 -11 -49 27 -32 14 7 35 12 46 12 28 0 119
-48 126 -66 4 -11 15 1 35 38 36 62 71 102 116 130 17 11 32 24 32 30 0 5 -21
38 -46 74 -42 58 -45 68 -39 104 8 50 -8 52 -47 7z m-35 -91 c-4 -25 2 -40 32
-79 30 -39 34 -51 25 -62 -17 -20 -24 -19 -87 11 -72 34 -97 30 -101 -16 -5
-52 -19 -59 -29 -14 -4 22 -8 42 -8 46 0 4 20 18 45 31 38 20 46 30 54 63 4
21 10 44 11 50 2 6 16 9 33 6 28 -4 30 -7 25 -36z"/>
<path d="M2240 4399 c0 -6 5 -19 10 -30 13 -22 4 -41 -52 -115 -37 -50 -47
-74 -29 -74 21 0 109 -92 131 -139 22 -45 50 -68 50 -41 0 13 94 60 119 60 11
0 32 -5 46 -12 20 -9 28 -9 38 1 9 10 7 16 -10 28 -30 20 -29 54 3 92 18 22
22 32 12 35 -7 2 -31 9 -54 15 -63 17 -78 40 -71 107 5 50 4 55 -11 50 -101
-33 -102 -33 -130 2 -27 32 -52 42 -52 21z m151 -76 c7 -84 16 -100 65 -123
42 -21 45 -24 38 -54 -12 -59 -31 -64 -36 -8 -4 48 -24 51 -101 18 -88 -40
-113 -17 -56 53 23 29 30 47 27 72 -2 28 1 34 22 40 35 10 40 10 41 2z"/>
</g>
</svg>
