<?xml version="1.0" standalone="no"?>
<!DOCTYPE svg PUBLIC "-//W3C//DTD SVG 20010904//EN"
 "http://www.w3.org/TR/2001/REC-SVG-20010904/DTD/svg10.dtd">
<svg version="1.0" xmlns="http://www.w3.org/2000/svg"
 width="381.000000pt" height="402.000000pt" viewBox="0 0 381.000000 402.000000"
 preserveAspectRatio="xMidYMid meet">
<metadata>
Created by potrace 1.16, written by Peter Selinger 2001-2019
</metadata>
<g transform="translate(0.000000,402.000000) scale(0.100000,-0.100000)"
fill="#000000" stroke="none">
<path d="M1867 3930 c-9 -24 -18 -30 -47 -32 -28 -2 -36 -8 -38 -26 -2 -13 4
-34 12 -47 9 -13 16 -40 16 -60 0 -19 3 -35 8 -36 17 -2 44 -8 47 -11 2 -2
-19 -39 -46 -82 -26 -43 -50 -84 -52 -89 -2 -6 -16 -2 -34 11 -43 30 -50 28
-64 -20 -17 -60 -24 -64 -58 -37 -21 17 -30 33 -30 55 -2 64 -101 63 -101 -1
0 -14 -8 -29 -19 -35 -28 -15 -35 -47 -17 -75 18 -27 45 -32 64 -13 10 10 15
9 25 -2 19 -21 66 -131 73 -171 3 -19 13 -54 21 -78 14 -45 12 -73 -17 -251
-5 -30 -12 -89 -16 -130 -14 -156 -65 -217 -258 -310 -114 -54 -127 -58 -160
-49 -56 15 -90 50 -90 91 0 49 22 79 109 143 124 91 159 170 115 259 -29 62
-75 93 -278 192 -247 120 -384 213 -446 303 -44 63 -87 178 -94 250 -4 36 -11
65 -17 65 -16 -2 -73 -116 -90 -180 -19 -74 -19 -241 0 -314 8 -30 28 -81 45
-114 17 -32 27 -63 23 -67 -16 -16 -247 53 -310 92 -19 12 -37 18 -40 15 -10
-10 26 -116 64 -186 45 -84 91 -139 167 -202 33 -28 63 -55 64 -59 5 -13 -276
-11 -321 2 -22 6 -41 8 -44 6 -12 -13 70 -131 141 -202 61 -60 101 -90 159
-119 42 -21 77 -41 77 -45 0 -10 -145 -68 -200 -81 -25 -5 -62 -10 -82 -10
-25 0 -38 -5 -38 -13 0 -17 112 -99 165 -122 79 -33 191 -72 228 -79 20 -4 37
-11 37 -16 0 -16 -152 -178 -197 -210 -23 -17 -58 -37 -78 -46 -20 -8 -35 -20
-33 -25 2 -6 31 -23 63 -37 50 -22 75 -27 153 -27 50 0 92 -4 92 -8 0 -4 -20
-30 -45 -56 -51 -55 -45 -66 25 -50 65 15 114 44 185 110 60 57 65 60 65 36 0
-42 -51 -166 -86 -213 -18 -24 -29 -46 -24 -49 6 -3 42 4 81 17 59 19 72 20
79 8 7 -11 20 -5 64 28 30 23 58 42 61 42 10 0 5 -51 -10 -87 -8 -19 -15 -39
-15 -44 0 -37 89 40 147 127 19 29 40 51 45 48 5 -3 8 -65 7 -137 -2 -106 -6
-138 -20 -163 -25 -41 -136 -147 -178 -169 -33 -16 -34 -18 -16 -31 10 -8 22
-14 27 -14 4 0 8 -9 8 -20 0 -28 -14 -25 -44 10 -25 30 -26 30 -55 15 -17 -9
-56 -15 -93 -15 -63 -1 -63 -1 -35 -23 36 -30 34 -37 -13 -37 -47 0 -57 -26
-12 -36 56 -12 59 -14 38 -29 -38 -28 -6 -33 68 -11 89 28 184 79 259 141 31
25 58 45 62 45 3 0 5 -37 4 -83 -1 -90 8 -120 62 -188 16 -20 29 -42 29 -49 0
-23 -64 -130 -78 -130 -7 0 -26 7 -43 15 -16 9 -34 13 -39 10 -6 -3 -10 -47
-10 -96 0 -90 0 -90 -33 -104 -18 -7 -69 -20 -114 -29 -99 -19 -151 -39 -160
-62 -4 -11 19 -68 65 -159 81 -160 91 -170 186 -170 76 0 147 27 181 67 24 29
26 36 20 93 -5 42 -3 65 4 69 6 4 37 -8 69 -27 146 -88 337 -169 559 -237 102
-31 102 -31 275 26 194 63 320 117 457 192 51 29 97 49 102 47 4 -3 5 -35 2
-70 -7 -79 6 -103 73 -136 37 -17 66 -23 125 -23 69 -1 80 2 103 23 28 26 156
270 156 296 0 26 -57 52 -152 69 -50 9 -106 23 -124 31 -34 14 -34 14 -34 104
0 49 -4 92 -9 96 -5 3 -25 -2 -44 -11 -20 -9 -41 -14 -49 -11 -7 3 -26 30 -42
60 -29 55 -29 55 17 133 46 76 47 81 47 160 0 44 3 83 6 87 3 3 40 -22 82 -55
87 -69 173 -113 255 -130 57 -12 87 -5 54 13 -23 14 -22 29 4 29 25 0 59 17
59 30 0 6 -16 10 -35 10 -37 0 -44 10 -20 30 27 22 16 30 -40 30 -31 0 -72 7
-91 15 -35 14 -36 14 -61 -15 -13 -17 -29 -30 -34 -30 -19 0 -8 30 16 46 32
21 31 26 -3 42 -39 17 -146 114 -171 156 -18 29 -21 49 -21 164 0 72 4 133 9
137 6 3 28 -21 50 -54 54 -79 141 -147 141 -111 0 6 -6 21 -14 33 -8 12 -17
42 -21 65 -7 41 -6 43 12 33 11 -5 25 -17 32 -25 26 -31 81 -59 94 -48 9 8 30
5 71 -9 33 -10 65 -19 73 -19 18 0 17 25 -3 41 -29 24 -104 194 -104 237 0 8
29 -13 65 -47 73 -68 120 -95 191 -111 68 -16 74 -1 20 55 -25 26 -46 50 -46
53 0 4 44 7 98 8 81 0 107 4 157 26 32 14 61 30 63 36 2 6 -23 22 -55 37 -43
19 -84 53 -160 130 -57 57 -103 108 -103 113 0 6 19 13 42 17 64 11 234 82
296 123 30 20 65 44 78 52 30 19 26 34 -12 37 -97 9 -284 72 -284 97 0 7 24
22 53 34 74 31 179 114 231 180 54 71 93 139 84 147 -3 4 -23 2 -45 -4 -36
-10 -313 -16 -313 -7 0 3 42 47 94 98 60 60 106 117 130 160 39 70 82 185 73
195 -3 3 -34 -9 -69 -26 -71 -34 -273 -95 -288 -86 -5 3 9 42 30 88 22 45 44
106 50 136 13 71 13 187 -1 253 -13 60 -78 198 -94 198 -6 0 -16 -33 -22 -74
-38 -237 -140 -341 -517 -528 -282 -141 -324 -179 -314 -288 6 -60 38 -105
116 -164 99 -73 122 -100 122 -141 0 -47 -13 -71 -50 -90 -56 -29 -95 -20
-168 39 -136 108 -238 248 -271 372 -25 94 -48 257 -41 292 5 20 13 60 19 89
15 73 79 199 94 184 17 -17 52 -13 70 7 24 27 21 59 -8 78 -14 9 -25 26 -25
38 0 30 -18 46 -51 46 -35 0 -61 -25 -54 -53 4 -17 -3 -29 -29 -49 -35 -28
-35 -28 -51 27 -17 61 -38 71 -70 35 -25 -27 -32 -25 -51 13 -9 17 -34 58 -55
90 -38 58 -38 58 -9 64 27 5 30 10 29 37 -2 20 7 45 24 70 31 45 23 66 -24 66
-22 0 -32 7 -44 30 -21 42 -62 42 -78 0z m55 -40 c3 -21 8 -25 36 -22 39 3 44
-20 8 -43 -16 -11 -22 -22 -19 -38 4 -21 1 -23 -51 -24 -31 -1 -56 1 -56 3 0
2 6 14 13 25 10 17 9 23 -1 26 -20 8 -43 34 -37 44 4 5 20 8 38 6 24 -1 32 2
35 18 9 54 27 56 34 5z m47 -282 c28 -45 49 -84 46 -86 -6 -7 -5 -9 -59 76
-25 39 -50 72 -55 72 -5 0 -27 -31 -50 -70 -36 -60 -61 -92 -61 -77 0 6 79
137 93 155 19 24 37 10 86 -70z m-1490 -45 c37 -111 137 -288 229 -403 47 -58
90 -111 95 -118 55 -70 -204 77 -290 166 -25 26 -60 75 -76 110 -28 60 -29 69
-24 155 5 89 21 157 37 157 4 0 17 -30 29 -67z m2896 5 c60 -203 -47 -379
-312 -512 -92 -46 -94 -36 -12 59 33 39 84 107 115 152 55 83 154 275 154 299
0 25 20 65 30 59 5 -3 16 -29 25 -57z m-1427 -14 c42 -65 42 -65 21 -93 -12
-16 -32 -34 -46 -40 -22 -10 -31 -8 -65 15 -21 15 -41 31 -43 35 -3 4 11 31
30 60 19 30 38 62 41 71 9 29 18 22 62 -48z m-398 2 c0 -8 -5 -18 -11 -22 -14
-8 -33 11 -25 25 10 16 36 13 36 -3z m743 8 c9 -10 -4 -34 -19 -34 -8 0 -14 6
-14 13 0 22 19 35 33 21z m-593 -78 c-6 -20 -16 -36 -20 -36 -5 0 -7 6 -5 13
19 55 26 69 31 64 3 -3 1 -22 -6 -41z m415 34 c8 -13 25 -70 20 -70 -1 0 -12
18 -23 40 -11 22 -16 40 -11 40 4 0 11 -5 14 -10z m-252 -128 c20 -15 22 -32
5 -32 -6 0 -19 -6 -27 -14 -9 -7 -47 -16 -84 -19 -69 -6 -69 -6 -53 17 19 30
11 38 -29 30 -23 -4 -35 0 -49 15 -10 11 -22 18 -26 16 -4 -3 -10 2 -14 10 -7
19 -5 19 30 0 57 -29 95 -12 110 50 11 48 13 48 68 -7 29 -29 60 -59 69 -66z
m230 67 c16 -55 48 -74 88 -53 16 8 31 14 34 14 5 0 -21 -57 -30 -68 -2 -2
-15 4 -29 13 -34 22 -70 16 -74 -12 -3 -20 -9 -23 -49 -23 -51 0 -113 25 -113
46 0 8 5 14 10 14 6 0 40 27 76 61 36 33 67 59 70 56 2 -2 10 -24 17 -48z
m250 5 c-3 -8 -9 -14 -13 -14 -14 0 -22 20 -16 37 5 12 9 13 21 3 7 -6 11 -18
8 -26z m-845 9 c-4 -22 -22 -20 -26 1 -2 10 3 16 13 16 10 0 15 -7 13 -17z
m138 -140 c-9 -9 -22 7 -31 37 -7 25 -7 25 15 -3 12 -15 19 -31 16 -34z m500
-10 c-10 -10 -19 5 -10 18 6 11 8 11 12 0 2 -7 1 -15 -2 -18z m-1466 -28 c25
-30 172 -116 350 -205 185 -92 230 -121 256 -172 34 -66 0 -139 -100 -212
-101 -74 -126 -107 -126 -166 0 -38 6 -55 27 -81 32 -38 78 -59 128 -59 29 0
36 -3 33 -17 -3 -15 -16 -19 -66 -21 -44 -2 -64 -7 -68 -17 -2 -8 -6 -22 -9
-30 -4 -12 -9 -13 -32 -3 -76 32 -122 108 -123 201 0 82 32 139 124 223 140
127 131 153 -104 292 -113 66 -162 102 -221 162 -75 76 -109 120 -91 120 5 0
15 -7 22 -15z m1149 -22 c-10 -12 -10 -16 2 -24 20 -13 35 -11 48 5 8 10 9 16
1 21 -17 11 -1 25 29 25 26 0 29 -3 27 -32 -2 -33 -2 -33 -86 -39 -47 -3 -86
-5 -87 -5 -1 1 -3 15 -5 31 -3 27 0 30 32 36 43 6 55 2 39 -18z m248 12 c9 -3
9 -10 0 -29 -10 -22 -19 -26 -53 -26 -41 0 -42 1 -39 33 2 17 3 33 4 35 1 3
67 -7 88 -13z m1058 -22 c-42 -65 -147 -151 -285 -233 -78 -47 -155 -100 -171
-118 -48 -54 -41 -74 59 -171 100 -98 132 -154 132 -231 0 -86 -34 -146 -102
-181 -46 -24 -46 -24 -50 4 -3 20 -10 22 -77 27 -47 3 -76 10 -79 17 -4 15 6
19 71 28 72 10 118 55 124 121 6 65 -15 97 -110 167 -123 91 -152 145 -119
220 26 57 64 83 282 190 96 47 211 110 255 141 44 30 81 53 84 51 2 -3 -4 -17
-14 -32z m-1433 -18 c6 -28 1 -35 -23 -35 -19 0 -35 33 -24 50 12 20 43 10 47
-15z m467 11 c17 -20 3 -46 -24 -46 -27 0 -41 15 -24 25 5 4 8 13 5 21 -7 18
28 19 43 0z m-36 -80 c41 -19 15 -34 -98 -60 -38 -9 -73 -20 -77 -24 -4 -4
-10 -76 -14 -160 -6 -139 -9 -152 -26 -152 -15 0 -18 8 -18 49 0 101 -21 256
-35 267 -9 6 -43 17 -78 24 -74 15 -100 27 -94 43 2 7 17 15 33 19 39 9 384 4
407 -6z m-1608 -48 c47 -48 48 -50 15 -30 -28 17 -82 82 -68 82 2 0 26 -23 53
-52z m2795 12 c-23 -32 -61 -62 -69 -55 -6 7 70 85 82 85 4 0 -1 -13 -13 -30z
m-3082 -56 c20 -8 89 -29 152 -45 156 -40 359 -135 375 -176 5 -14 -6 -15 -92
-10 -177 11 -338 73 -430 164 -29 28 -53 59 -53 67 0 20 2 20 48 0z m1499 -10
c18 -14 53 -31 76 -38 42 -12 42 -12 49 -101 4 -50 9 -104 12 -121 8 -38 -2
-49 -26 -27 -15 13 -18 13 -18 2 0 -48 67 -81 117 -57 28 13 43 46 25 57 -6 4
-5 49 1 124 10 117 10 117 38 117 16 0 46 14 73 35 26 19 51 35 56 35 6 0 10
-18 10 -40 0 -37 -4 -42 -54 -76 -49 -32 -56 -41 -65 -86 -6 -27 -11 -93 -11
-147 0 -115 7 -128 98 -190 32 -21 68 -51 81 -65 14 -14 30 -26 38 -26 33 0 1
68 -68 148 -56 64 -96 169 -84 223 9 38 21 30 29 -20 3 -22 15 -61 27 -88 45
-107 90 -148 211 -193 74 -28 82 -38 58 -78 -11 -18 -23 -32 -28 -32 -5 0 -16
16 -25 35 -9 19 -24 35 -33 35 -13 0 -15 -8 -9 -49 7 -55 -6 -91 -33 -91 -9 0
-37 16 -61 35 -57 45 -91 45 -161 0 -54 -34 -90 -44 -90 -26 0 6 4 12 9 15 19
12 81 116 81 136 0 21 -57 99 -72 100 -5 0 -8 -24 -8 -52 0 -90 -73 -208 -129
-208 -27 0 -30 9 -15 45 20 48 17 115 -7 215 -19 77 -21 111 -19 235 1 65 -16
97 -70 134 -49 33 -68 65 -56 96 7 20 14 19 53 -11z m1893 20 c0 -24 -51 -79
-108 -118 -77 -53 -176 -92 -280 -112 -84 -16 -192 -19 -192 -5 0 34 212 138
369 181 58 16 126 36 151 44 54 17 60 18 60 10z m-2660 -145 c60 -36 80 -60
80 -96 0 -21 -5 -33 -13 -33 -12 0 -117 118 -125 141 -6 15 21 10 58 -12z
m1919 -11 c-42 -58 -107 -120 -119 -113 -30 19 17 92 80 126 53 28 65 24 39
-13z m-2500 -71 c51 -32 118 -70 148 -83 64 -28 63 -39 0 -30 -73 11 -182 70
-243 130 -58 59 -73 91 -26 60 15 -10 69 -45 121 -77z m3171 69 c0 -23 -102
-111 -161 -138 -64 -31 -139 -52 -165 -46 -13 3 9 18 66 47 47 23 121 67 165
96 87 58 95 62 95 41z m-1388 -91 c-5 -37 -10 -55 -15 -47 -10 16 3 126 13
115 5 -4 5 -35 2 -68z m-432 -97 c0 -62 -5 -101 -19 -135 -21 -54 -19 -64 19
-113 30 -38 70 -113 70 -130 0 -6 -28 -10 -69 -10 -67 0 -70 1 -125 46 -31 26
-53 51 -50 56 4 6 24 8 46 5 25 -3 41 -1 43 6 2 7 5 74 8 149 4 113 2 135 -9
131 -11 -4 -14 8 -14 53 0 72 16 106 26 57 8 -38 24 -44 24 -9 0 13 3 32 7 42
6 15 10 11 25 -21 12 -28 18 -66 18 -127z m-890 90 c0 -13 -23 -5 -28 10 -2 7
2 10 12 6 9 -3 16 -11 16 -16z m2150 18 c0 -3 -27 -17 -60 -32 -58 -26 -76
-44 -45 -44 9 0 29 7 45 15 19 10 30 12 30 4 0 -16 -56 -69 -74 -69 -19 0 -93
67 -83 76 3 4 44 17 89 29 96 26 98 26 98 21z m-2027 -38 c20 -6 37 -17 37
-25 0 -7 -4 -13 -10 -13 -5 0 -25 -14 -44 -31 -35 -30 -35 -30 -78 10 -47 43
-47 61 1 37 50 -26 71 -19 28 9 -20 14 -37 28 -37 31 0 6 45 -2 103 -18z
m-189 -77 c21 -5 44 -15 50 -22 8 -9 1 -10 -35 -6 -28 4 -50 2 -57 -5 -13 -13
-42 6 -42 28 0 16 28 17 84 5z m236 -1 c0 -5 -5 -10 -11 -10 -5 0 -7 5 -4 10
3 6 8 10 11 10 2 0 4 -4 4 -10z m1795 0 c3 -5 1 -10 -4 -10 -6 0 -11 5 -11 10
0 6 2 10 4 10 3 0 8 -4 11 -10z m295 -4 c0 -20 -26 -40 -35 -26 -4 7 -25 8
-58 4 -62 -8 -56 10 8 25 59 14 85 13 85 -3z m-2200 -61 c0 -7 -8 -23 -19 -36
-17 -22 -21 -22 -60 -10 -51 15 -52 38 -1 55 41 14 80 9 80 -9z m-375 -6 c57
-15 92 -39 74 -50 -36 -22 -359 1 -427 31 -24 11 -41 23 -39 27 7 12 345 5
392 -8z m2458 10 c20 -5 37 -14 37 -18 0 -14 -25 -31 -57 -37 -25 -5 -34 -1
-47 17 -33 48 -12 60 67 38z m677 1 c0 -5 -18 -19 -39 -30 -70 -35 -431 -53
-431 -21 0 5 19 17 43 27 32 14 81 19 212 24 94 4 180 7 193 8 12 1 22 -2 22
-8z m-770 -61 c0 -6 -4 -7 -10 -4 -5 3 -10 11 -10 16 0 6 5 7 10 4 6 -3 10
-11 10 -16z m235 -19 c0 -8 -20 -22 -45 -31 -25 -9 -46 -24 -48 -33 -4 -17
-44 -31 -66 -23 -14 5 -27 52 -18 62 3 3 24 5 46 5 24 0 53 8 71 20 33 22 60
22 60 0z m-2397 -2 c6 -6 33 -13 58 -14 62 -4 74 -9 74 -34 0 -33 -77 -54 -87
-24 -2 6 6 15 19 19 19 6 14 9 -27 15 -61 10 -105 26 -105 40 0 14 53 13 68
-2z m-395 -13 c136 -18 270 -52 264 -69 -13 -39 -245 -46 -327 -9 -51 23 -95
66 -85 82 8 14 3 14 148 -4z m1240 -8 c-4 -7 -22 -34 -40 -61 -18 -26 -33 -55
-33 -64 0 -9 14 -31 32 -49 17 -18 29 -35 25 -39 -11 -11 -73 16 -107 48 -33
31 -34 33 -13 36 13 2 26 16 34 35 16 39 88 119 100 111 5 -3 6 -11 2 -17z
m2036 14 c11 -7 8 -15 -15 -36 -46 -44 -109 -67 -198 -72 -79 -5 -190 10 -201
27 -3 4 30 20 72 34 67 22 127 33 268 49 55 7 60 7 74 -2z m-2761 -142 c3 -23
-3 -29 -47 -48 -27 -11 -57 -21 -65 -21 -25 0 -19 19 9 26 13 3 29 12 36 20
10 12 3 14 -42 15 -30 0 -63 4 -74 9 -21 8 -21 8 25 24 8 2 47 4 85 3 67 -2
70 -3 73 -28z m2278 18 c13 -13 -10 -27 -44 -27 -59 0 -71 -15 -31 -36 27 -15
30 -19 15 -22 -17 -4 -86 21 -112 40 -24 17 -3 47 35 51 45 6 129 2 137 -6z
m-2216 -42 c0 -8 -7 -15 -15 -15 -16 0 -20 12 -8 23 11 12 23 8 23 -8z m1995
-4 c3 -5 1 -12 -5 -16 -5 -3 -10 1 -10 9 0 18 6 21 15 7z m-2040 -51 c10 -16
-13 -49 -57 -80 -38 -28 -88 -40 -88 -22 0 17 112 112 132 112 4 0 10 -4 13
-10z m85 -32 c0 -12 -38 -10 -45 2 -4 6 -1 18 6 26 12 14 14 14 26 -2 7 -10
13 -21 13 -26z m1223 35 c-7 -2 -21 -2 -30 0 -10 3 -4 5 12 5 17 0 24 -2 18
-5z m718 -6 c-1 -4 -1 -14 -1 -22 0 -8 -7 -15 -15 -15 -15 0 -21 31 -8 44 8 8
25 3 24 -7z m121 -30 c90 -73 67 -109 -28 -44 -35 24 -50 42 -52 60 -5 39 18
34 80 -16z m-2397 13 c-13 -21 -134 -80 -195 -94 -67 -16 -200 -22 -200 -8 0
4 38 20 83 36 45 15 111 39 147 52 65 24 177 33 165 14z m2815 -45 c69 -25
131 -48 139 -51 27 -9 2 -15 -61 -16 -90 0 -185 25 -257 68 -85 51 -87 58 -10
51 39 -3 113 -24 189 -52z m-772 16 c10 -1 12 -85 10 -403 -3 -403 -3 -403
-269 -406 -267 -2 -267 -2 -285 27 -60 93 -151 200 -170 201 -12 0 -27 7 -34
15 -15 18 -37 20 -42 4 -3 -9 -10 -9 -26 0 -28 15 -28 22 3 51 24 23 24 23 62
-5 21 -16 46 -37 55 -49 16 -20 17 -20 37 -2 26 24 27 43 1 51 -24 8 -26 28
-5 45 22 19 19 27 -35 95 -51 64 -51 64 -48 217 3 153 3 153 108 158 91 4 603
6 638 1z m190 -8 c-2 -10 -14 -19 -26 -21 -21 -3 -22 -1 -12 17 13 26 43 28
38 4z m-1860 -11 c3 -9 -2 -13 -14 -10 -9 1 -19 9 -22 16 -3 9 2 13 14 10 9
-1 19 -9 22 -16z m47 -22 c3 -5 17 -10 31 -10 15 0 24 -6 24 -15 0 -17 -26
-20 -35 -5 -4 6 -16 10 -28 8 -14 -2 -23 3 -25 15 -4 18 22 24 33 7z m1755 -5
c0 -8 -7 -15 -15 -15 -8 0 -15 7 -15 15 0 8 7 15 15 15 8 0 15 -7 15 -15z
m-1880 -17 c0 -23 -60 -78 -85 -78 -41 0 -37 17 11 54 48 37 74 45 74 24z
m1830 -4 c0 -17 -22 -14 -28 4 -2 7 3 12 12 12 9 0 16 -7 16 -16z m217 -11
c48 -31 53 -56 11 -61 -20 -2 -32 5 -52 31 -47 62 -30 74 41 30z m-2313 8 c8
-12 -47 -58 -91 -76 -20 -8 -63 -20 -97 -26 -52 -9 -69 -8 -115 7 -30 11 -56
24 -58 30 -2 6 28 15 75 22 43 7 107 21 142 31 71 21 136 26 144 12z m2658
-15 c51 -13 119 -27 151 -31 31 -4 60 -11 62 -16 3 -4 -9 -16 -27 -26 -73 -38
-244 -10 -311 52 -54 51 -14 57 125 21z m-1632 -3 c0 -22 29 -53 51 -53 10 0
28 -14 40 -31 18 -26 20 -34 9 -54 -17 -31 -5 -48 30 -40 23 5 31 1 49 -24 18
-25 20 -33 10 -50 -11 -17 -9 -23 19 -46 42 -35 41 -60 -2 -75 -19 -6 -40 -18
-46 -26 -19 -22 -37 -17 -57 16 -9 17 -23 30 -29 30 -6 0 -34 -14 -60 -31 -27
-17 -80 -50 -118 -74 -53 -33 -72 -51 -80 -76 -6 -20 -19 -35 -30 -37 -18 -4
-18 -2 3 26 24 35 26 42 9 42 -7 0 -34 -24 -59 -53 -48 -54 -123 -104 -133
-88 -3 5 12 20 34 35 22 14 40 33 40 41 0 21 -16 19 -58 -10 -20 -14 -42 -25
-49 -25 -25 0 -12 29 22 50 19 12 35 28 35 36 0 20 -34 17 -72 -5 -30 -19 -48
-19 -48 -2 0 5 19 21 41 36 53 35 39 56 -17 26 -24 -13 -40 -17 -43 -10 -1 5
-1 11 0 13 23 17 243 158 267 170 20 11 57 16 107 16 129 0 177 36 120 90 -29
27 -105 124 -105 133 0 11 85 66 103 67 9 0 17 -7 17 -17z m-710 -12 c0 -24
-29 -57 -57 -66 -30 -8 -29 0 3 47 29 41 54 50 54 19z m1926 -21 c29 -44 27
-56 -5 -45 -23 7 -55 60 -46 75 11 18 25 10 51 -30z m-1848 -14 c4 -17 -52
-86 -70 -86 -13 0 -9 37 7 76 11 28 19 35 37 32 13 -2 24 -11 26 -22z m1778
-11 c16 -39 18 -75 5 -75 -13 0 -71 68 -71 84 0 41 47 34 66 -9z m-1716 -4 c0
-16 -9 -39 -21 -52 -20 -24 -20 -24 -14 20 3 24 8 48 11 53 11 18 24 7 24 -21z
m1628 -27 c4 -47 -14 -36 -24 15 -6 26 -4 33 7 29 8 -3 15 -21 17 -44z m-2018
-10 c0 -19 -104 -133 -164 -178 -141 -107 -153 -97 -28 25 127 125 192 177
192 153z m2530 -121 c72 -69 128 -128 125 -131 -7 -8 -103 59 -163 113 -47 42
-112 123 -112 139 0 20 35 -8 150 -121z m-2322 105 c-6 -17 -77 -73 -84 -66
-3 4 2 20 10 36 14 27 26 33 69 41 5 0 7 -4 5 -11z m2025 -20 c17 -21 23 -48
9 -48 -12 0 -82 60 -82 71 0 16 54 -2 73 -23z m-1843 -54 c0 -29 -16 -64 -30
-64 -14 0 -12 34 2 65 15 32 28 32 28 -1z m1629 -11 c13 -46 -3 -70 -19 -28
-9 24 -6 65 5 65 2 0 9 -17 14 -37z m109 19 c18 -12 34 -74 22 -86 -13 -13
-95 67 -86 83 8 13 45 14 64 3z m-1817 -21 c-13 -23 -69 -71 -83 -71 -10 0 -3
64 8 82 3 5 23 8 45 8 36 0 39 -2 30 -19z m-241 -44 c0 -2 -11 -36 -25 -77
-30 -88 -61 -142 -111 -193 -40 -41 -94 -74 -94 -58 0 11 148 245 188 299 20
27 42 42 42 29z m2365 -162 c59 -91 105 -168 102 -171 -20 -21 -126 75 -162
146 -18 36 -65 170 -65 186 0 22 34 -22 125 -161z m-2465 133 c0 -18 -75 -140
-102 -165 -31 -30 -100 -53 -155 -53 -46 0 -113 23 -113 38 0 5 28 22 63 37
34 15 95 48 136 73 125 77 171 96 171 70z m2514 -15 c16 -8 60 -35 98 -60 39
-24 93 -53 121 -64 29 -11 58 -27 66 -34 12 -12 10 -16 -15 -27 -16 -7 -61
-12 -100 -13 -96 0 -150 33 -205 124 -46 75 -51 106 -16 95 12 -3 35 -13 51
-21z m-2248 -104 c19 -79 17 -114 -10 -167 -25 -48 -81 -112 -98 -112 -12 0
-4 50 28 185 41 171 58 191 80 94z m119 52 c19 -32 24 -118 10 -173 -20 -77
-75 -182 -88 -168 -6 6 18 241 29 285 13 57 34 80 49 56z m1703 -8 c13 -25 21
-75 32 -195 5 -57 13 -113 16 -125 11 -40 -11 -25 -44 30 -41 68 -66 166 -57
226 9 66 15 81 30 81 8 0 18 -8 23 -17z m156 -126 c48 -209 46 -229 -14 -160
-56 63 -74 116 -66 196 3 38 11 78 17 90 11 19 12 20 25 3 7 -10 24 -68 38
-129z m-2094 -23 c-10 -49 -66 -152 -76 -141 -6 6 54 215 70 242 10 18 11 17
14 -15 2 -19 -1 -58 -8 -86z m2180 -11 c23 -71 44 -134 47 -140 2 -7 0 -13 -6
-13 -17 0 -78 121 -90 178 -30 147 -3 132 49 -25z m-1171 1 c31 -26 55 -25 44
1 -3 9 1 15 10 15 23 0 29 -16 13 -32 -7 -8 -17 -24 -20 -36 -9 -27 -22 -28
-66 -1 -56 34 -82 61 -68 71 24 15 56 8 87 -18z m167 -94 c26 -36 68 -90 94
-120 25 -30 120 -152 210 -270 90 -118 188 -246 218 -285 53 -70 53 -70 22
-97 -54 -50 -80 -40 -152 55 -34 45 -103 134 -153 197 -50 63 -140 180 -200
259 -61 80 -125 161 -142 181 -18 21 -33 41 -33 44 0 9 82 107 86 104 1 -2 23
-32 50 -68z m-226 22 c0 -12 -103 -157 -495 -697 -12 -16 -24 -38 -28 -47 -7
-21 -37 -24 -37 -5 0 8 11 29 26 48 62 83 197 271 347 482 141 198 187 252
187 219z m48 -40 c-3 -10 -41 -67 -85 -127 -44 -61 -157 -218 -251 -350 -219
-308 -198 -282 -212 -269 -9 9 -3 23 22 56 18 24 139 193 268 375 210 296 273
373 258 315z m-243 -121 c3 -5 -61 -101 -142 -213 -80 -112 -171 -238 -202
-280 -30 -43 -60 -78 -66 -78 -6 0 -19 16 -28 35 -15 31 -17 72 -17 284 0 136
3 251 7 254 10 11 441 8 448 -2z m315 -586 c0 -528 -2 -595 -15 -595 -41 0
-281 156 -427 277 -78 65 -228 219 -228 235 0 4 20 8 44 8 44 0 45 0 103 83
188 268 408 573 417 579 6 4 32 8 59 8 47 0 47 0 47 -595z m-560 -261 c25 -25
78 -73 119 -107 44 -36 69 -63 61 -65 -15 -5 -253 112 -270 133 -9 11 -7 22
10 50 12 19 25 35 29 35 4 0 27 -21 51 -46z m1190 14 c11 -18 20 -38 20 -45 0
-15 -263 -147 -281 -141 -8 3 8 20 41 45 30 23 87 70 125 106 39 37 71 66 73
67 1 0 11 -15 22 -32z m212 0 c2 -7 4 -64 3 -126 0 -113 0 -113 -50 -130 -27
-10 -106 -48 -174 -86 -69 -37 -170 -87 -225 -110 -132 -57 -352 -128 -396
-129 -76 -2 -399 117 -565 208 -83 45 -175 92 -265 135 -19 9 -24 54 -15 158
5 56 11 82 20 82 7 0 61 -30 121 -66 166 -101 284 -157 459 -221 39 -14 108
-45 155 -70 86 -45 86 -45 168 -4 45 22 128 59 184 82 148 59 326 146 453 222
61 37 113 67 116 67 4 0 9 -6 11 -12z m-1722 -242 c0 -70 5 -79 65 -116 58
-36 51 -41 -75 -60 -41 -6 -94 -16 -118 -22 -23 -6 -44 -9 -46 -7 -2 2 -25 46
-50 97 -35 69 -44 97 -36 106 5 8 49 21 96 30 48 10 96 21 108 26 50 20 56 15
56 -54z m1901 34 c81 -17 129 -34 129 -46 0 -2 -22 -49 -50 -104 -50 -99 -50
-99 -87 -86 -21 7 -78 19 -128 26 -49 7 -94 16 -98 20 -5 4 11 22 35 41 57 45
58 45 58 110 0 63 6 73 35 64 11 -4 59 -15 106 -25z"/>
<path d="M1319 1846 c-16 -7 -24 -20 -24 -36 0 -32 28 -37 54 -11 38 38 17 71
-30 47z"/>
<path d="M1590 3831 c0 -6 18 -11 42 -11 48 0 45 10 -6 17 -22 3 -36 0 -36 -6z"/>
<path d="M270 3810 c0 -5 5 -10 10 -10 6 0 10 5 10 10 0 6 -4 10 -10 10 -5 0
-10 -4 -10 -10z"/>
<path d="M1556 3792 c-6 -9 -2 -29 9 -55 7 -17 9 -17 26 2 19 20 19 21 -1 41
-22 22 -27 24 -34 12z"/>
<path d="M1350 3580 c0 -6 -6 -10 -13 -8 -7 2 -14 0 -15 -4 -5 -19 -1 -27 13
-22 10 4 15 0 15 -12 0 -25 6 -14 13 24 4 18 2 32 -3 32 -6 0 -10 -5 -10 -10z"/>
<path d="M182 3558 c-21 -21 -14 -48 12 -48 31 0 40 14 26 40 -12 23 -21 25
-38 8z"/>
<path d="M1300 3510 c6 -11 13 -20 16 -20 2 0 0 9 -6 20 -6 11 -13 20 -16 20
-2 0 0 -9 6 -20z"/>
<path d="M149 3468 c-1 -5 -7 -33 -10 -54 -2 -11 1 -21 6 -22 6 -1 9 10 7 23
-2 16 2 27 12 31 16 6 13 24 -5 24 -5 0 -9 -1 -10 -2z"/>
<path d="M3016 3462 c-2 -4 -1 -14 3 -21 6 -10 10 -9 14 3 6 16 -8 32 -17 18z"/>
<path d="M209 3453 c0 -4 0 -28 1 -52 1 -36 -1 -43 -14 -38 -24 10 -19 1 12
-18 15 -10 22 -12 16 -6 -6 7 -8 31 -4 62 4 27 3 52 -2 55 -4 3 -8 2 -9 -3z"/>
<path d="M1300 3449 c0 -6 24 -19 36 -19 2 0 4 6 4 14 0 9 -9 14 -20 13 -11
-1 -20 -4 -20 -8z"/>
<path d="M2970 3442 c0 -7 -6 -12 -13 -12 -7 0 -13 -9 -14 -20 -1 -15 4 -20
23 -20 13 0 26 0 29 0 3 0 5 3 4 8 0 4 -9 6 -20 5 -22 -3 -25 7 -7 25 6 6 9
15 5 19 -4 3 -7 1 -7 -5z"/>
<path d="M1342 3410 c-11 -17 -10 -20 8 -20 21 0 25 7 12 27 -6 9 -11 7 -20
-7z"/>
<path d="M3513 3413 c-15 -5 -17 -23 -4 -23 5 0 11 7 15 15 3 8 4 15 3 14 -1
0 -8 -3 -14 -6z"/>
<path d="M2880 3380 c0 -5 -7 -7 -15 -4 -9 4 -15 0 -15 -10 0 -10 9 -16 25
-16 15 0 25 6 25 14 0 8 6 17 13 19 6 3 2 6 -10 6 -13 1 -23 -3 -23 -9z"/>
<path d="M2690 3330 c0 -5 9 -10 20 -10 11 0 20 5 20 10 0 6 -9 10 -20 10 -11
0 -20 -4 -20 -10z"/>
<path d="M195 3311 c-3 -6 3 -9 14 -8 11 0 17 5 15 9 -7 11 -22 10 -29 -1z"/>
<path d="M1270 3293 c0 -6 -3 -18 -6 -27 -3 -9 -1 -16 5 -16 17 0 25 30 12 43
-8 8 -11 8 -11 0z"/>
<path d="M1330 3270 c-25 -6 -25 -6 3 -12 15 -3 30 -2 32 3 8 12 -8 16 -35 9z"/>
<path d="M2750 3260 c-7 -4 -10 -15 -7 -23 4 -11 14 -13 47 -7 43 8 57 16 47
27 -10 9 -73 12 -87 3z m45 -10 c3 -5 1 -10 -4 -10 -6 0 -11 5 -11 10 0 6 2
10 4 10 3 0 8 -4 11 -10z"/>
<path d="M1376 3208 c5 -7 -1 -9 -20 -6 -16 3 -26 1 -26 -7 0 -7 11 -10 30 -7
35 5 47 17 24 26 -10 4 -13 2 -8 -6z"/>
<path d="M2474 3167 c3 -16 0 -30 -7 -33 -18 -7 -15 -69 3 -69 11 0 14 8 12
29 -2 16 3 33 12 40 14 10 13 14 -4 36 -20 25 -20 25 -16 -3z"/>
<path d="M2371 3158 c0 -13 -2 -33 -6 -45 -5 -15 -3 -23 4 -23 7 0 10 4 6 9
-3 5 -2 12 3 15 12 7 14 66 2 66 -5 0 -9 -10 -9 -22z"/>
<path d="M3490 3170 c0 -5 7 -7 15 -4 8 4 15 8 15 10 0 2 -7 4 -15 4 -8 0 -15
-4 -15 -10z"/>
<path d="M1505 3161 c-4 -7 0 -8 10 -4 10 3 21 0 27 -8 8 -12 9 -11 5 1 -5 18
-33 25 -42 11z"/>
<path d="M1339 3113 c-13 -16 -12 -17 4 -4 16 13 21 21 13 21 -2 0 -10 -8 -17
-17z"/>
<path d="M2389 3088 c-8 -31 -5 -58 6 -58 11 0 12 6 5 24 -5 13 -6 27 -3 30 4
3 3 6 0 6 -4 0 -7 -1 -8 -2z"/>
<path d="M3730 3074 c0 -8 5 -12 10 -9 6 3 10 10 10 16 0 5 -4 9 -10 9 -5 0
-10 -7 -10 -16z"/>
<path d="M1318 3053 c7 -3 16 -2 19 1 4 3 -2 6 -13 5 -11 0 -14 -3 -6 -6z"/>
<path d="M2324 3035 c36 -19 41 -19 22 0 -8 8 -23 15 -33 15 -13 0 -10 -4 11
-15z"/>
<path d="M2260 3013 c0 -4 5 -15 10 -23 7 -11 12 -12 21 -3 8 8 6 14 -10 22
-12 7 -21 8 -21 4z"/>
<path d="M2345 2970 c-3 -6 -3 -20 1 -32 6 -19 7 -20 16 -4 7 12 17 16 34 12
35 -9 29 10 -7 23 -39 13 -36 13 -44 1z m25 -10 c0 -5 -4 -10 -10 -10 -5 0
-10 5 -10 10 0 6 5 10 10 10 6 0 10 -4 10 -10z"/>
<path d="M34 2939 c-4 -6 45 -19 72 -19 8 0 14 6 14 14 0 10 -12 14 -41 13
-22 -1 -43 -5 -45 -8z"/>
<path d="M2270 2941 c0 -18 18 -21 30 -6 10 13 9 15 -9 15 -11 0 -21 -4 -21
-9z"/>
<path d="M1532 2910 c0 -19 2 -27 5 -17 2 9 2 25 0 35 -3 9 -5 1 -5 -18z"/>
<path d="M0 2919 c0 -5 5 -7 10 -4 5 3 10 8 10 11 0 2 -4 4 -10 4 -5 0 -10 -5
-10 -11z"/>
<path d="M1423 2887 c3 -26 1 -50 -4 -53 -5 -3 -8 -15 -8 -27 1 -20 2 -20 6
-2 3 11 9 24 14 30 12 12 11 67 -2 85 -8 11 -9 3 -6 -33z"/>
<path d="M2380 2890 c0 -5 7 -10 16 -10 8 0 12 5 9 10 -3 6 -10 10 -16 10 -5
0 -9 -4 -9 -10z"/>
<path d="M1498 2830 c-1 -16 -2 -37 -2 -45 -1 -8 4 -15 9 -14 6 0 9 6 7 14 -1
7 1 16 6 19 11 7 3 56 -9 56 -5 0 -10 -13 -11 -30z"/>
<path d="M2315 2791 c-7 -12 12 -24 25 -16 11 7 4 25 -10 25 -5 0 -11 -4 -15
-9z"/>
<path d="M1410 2665 c0 -8 7 -15 16 -15 14 0 14 3 4 15 -7 8 -14 15 -16 15 -2
0 -4 -7 -4 -15z"/>
<path d="M2412 2648 c2 -6 14 -15 26 -19 20 -8 21 -6 12 11 -11 21 -44 28 -38
8z"/>
<path d="M1249 2578 c-1 -2 -3 -13 -4 -26 -2 -17 1 -20 11 -11 7 6 10 17 7 25
-5 13 -11 18 -14 12z"/>
<path d="M0 2551 c0 -6 4 -13 10 -16 6 -3 7 1 4 9 -7 18 -14 21 -14 7z"/>
<path d="M72 2498 c-16 -16 -15 -28 3 -28 8 0 15 9 15 20 0 23 -2 24 -18 8z"/>
<path d="M55 2450 c3 -5 12 -7 20 -3 21 7 19 13 -6 13 -11 0 -18 -4 -14 -10z"/>
<path d="M3635 2361 c-7 -12 31 -25 45 -16 6 4 8 11 5 16 -8 12 -42 12 -50 0z"/>
<path d="M272 2026 c6 -14 15 -23 19 -20 15 9 10 23 -11 34 -18 10 -19 9 -8
-14z"/>
<path d="M227 2024 c-3 -3 -3 -13 0 -22 3 -11 2 -13 -4 -6 -13 16 -42 24 -49
13 -3 -6 3 -13 15 -16 12 -3 21 -12 21 -20 0 -31 33 -8 35 25 3 30 -4 40 -18
26z"/>
<path d="M130 1819 c0 -5 5 -7 10 -4 6 3 10 8 10 11 0 2 -4 4 -10 4 -5 0 -10
-5 -10 -11z"/>
<path d="M745 1430 c-3 -5 3 -10 15 -10 12 0 18 5 15 10 -3 6 -10 10 -15 10
-5 0 -12 -4 -15 -10z"/>
<path d="M573 1244 c-7 -18 7 -46 25 -52 8 -2 12 9 12 32 0 38 -25 51 -37 20z"/>
<path d="M650 1250 c0 -5 5 -10 10 -10 6 0 10 5 10 10 0 6 -4 10 -10 10 -5 0
-10 -4 -10 -10z"/>
<path d="M2790 979 c0 -5 5 -7 10 -4 6 3 10 8 10 11 0 2 -4 4 -10 4 -5 0 -10
-5 -10 -11z"/>
<path d="M935 961 c-3 -5 -1 -12 5 -16 5 -3 10 1 10 9 0 18 -6 21 -15 7z"/>
<path d="M900 846 c0 -8 -5 -16 -11 -18 -8 -3 -8 -10 2 -26 8 -12 18 -21 23
-19 12 4 27 57 20 69 -9 13 -34 9 -34 -6z m20 -31 c0 -8 -4 -15 -10 -15 -5 0
-10 7 -10 15 0 8 5 15 10 15 6 0 10 -7 10 -15z"/>
<path d="M890 750 c0 -3 4 -11 9 -18 6 -11 11 -10 25 3 20 21 21 20 -9 20 -14
0 -25 -2 -25 -5z"/>
<path d="M812 705 c2 -21 4 -23 16 -11 8 8 11 19 8 25 -13 20 -26 12 -24 -14z"/>
<path d="M915 600 c3 -5 10 -10 16 -10 5 0 9 5 9 10 0 6 -7 10 -16 10 -8 0
-12 -4 -9 -10z"/>
<path d="M614 526 c-8 -21 4 -52 15 -40 15 15 17 47 4 51 -7 3 -16 -2 -19 -11z"/>
<path d="M2540 180 c0 -5 5 -10 10 -10 6 0 10 5 10 10 0 6 -4 10 -10 10 -5 0
-10 -4 -10 -10z"/>
<path d="M610 160 c0 -11 5 -20 10 -20 6 0 10 9 10 20 0 11 -4 20 -10 20 -5 0
-10 -9 -10 -20z"/>
</g>
</svg>
