<?xml version="1.0" encoding="UTF-8"?>
<!-- Generator: visioncortex VTracer 0.6.4 -->
<svg version="1.1" xmlns="http://www.w3.org/2000/svg" width="220" height="368">
<path d="M0 0 C0.66 0 1.32 0 2 0 C2.83819158 1.62249941 3.6704116 3.24808497 4.5 4.875 C5.19609375 6.23238281 5.19609375 6.23238281 5.90625 7.6171875 C7 10 7 10 7 12 C7.969375 12.12375 8.93875 12.2475 9.9375 12.375 C10.948125 12.58125 11.95875 12.7875 13 13 C14.36952673 15.73905345 14.12621361 17.97087332 14 21 C13.67 21.66 13.34 22.32 13 23 C10.69 23 8.38 23 6 23 C5.23391939 33.26918591 5.23391939 33.26918591 10 42 C10.5775 43.010625 11.155 44.02125 11.75 45.0625 C14.27811331 48.36309237 16.65882834 49.8252126 20.29296875 51.7265625 C22 53 22 53 22.73828125 55.1484375 C22.82464844 55.75945313 22.91101563 56.37046875 23 57 C23.68707031 56.57847656 24.37414062 56.15695313 25.08203125 55.72265625 C25.98308594 55.17480469 26.88414062 54.62695312 27.8125 54.0625 C28.70582031 53.51722656 29.59914062 52.97195312 30.51953125 52.41015625 C33 51 33 51 36 50 C36.66966192 48.24757174 36.66966192 48.24757174 37 46 C38 42 39 38 40 34 C46.82423338 35.23416987 53.39367844 36.8915995 60 39 C60 39.66 60 40.32 60 41 C58.1640625 42.48046875 58.1640625 42.48046875 55.625 44.1875 C54.71492187 44.81269531 53.80484375 45.43789063 52.8671875 46.08203125 C51.03247959 47.30933586 49.18447532 48.517133 47.3203125 49.69921875 C41.36451061 53.58225676 37.2172245 57.57862914 34 64 C34 64.66 34 65.32 34 66 C36.832168 66.33448259 36.832168 66.33448259 40 66 C41.35308313 64.68671343 42.68870078 63.35500919 44 62 C47.87661134 62.26620507 49.99325595 64.50845772 52.75 67.0625 C53.94882812 68.16271484 53.94882812 68.16271484 55.171875 69.28515625 C55.77515625 69.85105469 56.3784375 70.41695313 57 71 C53.81640096 74.23896598 50.51136283 77.12706678 47 80 C46.319375 79.67 45.63875 79.34 44.9375 79 C40.43702233 77.4679225 36.49812495 77.50062502 32 79 C31.73535866 94.72725672 42.43607381 112.95193563 52.84765625 124.04296875 C59.00341922 129.64013254 66.76740256 132.93942503 74.1796875 136.55078125 C76.66155436 137.82608957 78.93384169 139.20135297 81.25 140.75 C85.03410203 143.22238599 88.58017589 144.13182026 93 145 C92.93941406 145.680625 92.87882813 146.36125 92.81640625 147.0625 C92.63615759 149.14783834 92.46379083 151.23386464 92.296875 153.3203125 C92.0938098 155.83725216 91.87427571 158.3529027 91.640625 160.8671875 C89.94647836 180.53569901 94.60528075 194.31576288 106 210 C106.66 210.99 107.32 211.98 108 213 C101.25 212.125 101.25 212.125 99 211 C99.50660156 212.64935547 99.50660156 212.64935547 100.0234375 214.33203125 C107.16183901 237.83782481 109.47561779 260.20948737 98 283 C93.27755749 291.148295 93.27755749 291.148295 89 294 C89.33 291.03 89.66 288.06 90 285 C79.70978399 295.80651126 79.70978399 295.80651126 73 309 C70.60236815 306.60236815 70.65719414 305.66726502 70.375 302.375 C70.26285156 301.14910156 70.26285156 301.14910156 70.1484375 299.8984375 C70.07496094 298.95871094 70.07496094 298.95871094 70 298 C66.2351774 301.55884447 62.7623264 305.18327884 59.625 309.3125 C53.34941471 317.5328271 46.22143748 324.86821586 38.9375 332.1875 C37.94665405 333.18535522 37.94665405 333.18535522 36.93579102 334.20336914 C29.94506336 341.17158238 22.49093141 347.51096369 14.8125 353.70703125 C12.93448667 355.23813378 11.0799629 356.79849811 9.25 358.38671875 C7.950625 359.49466797 7.950625 359.49466797 6.625 360.625 C5.85414062 361.29789062 5.08328125 361.97078125 4.2890625 362.6640625 C2 364 2 364 -0.35546875 364.07421875 C-4.21626539 362.50594833 -6.88249641 359.97640214 -9.9375 357.1875 C-11.28449867 355.98494012 -12.63216914 354.78313236 -13.98046875 353.58203125 C-14.6564209 352.97568848 -15.33237305 352.3693457 -16.02880859 351.74462891 C-17.80275003 350.17457868 -19.60025533 348.64615478 -21.42578125 347.13671875 C-28.68369091 341.12451404 -35.4566986 334.72447474 -42.125 328.0625 C-42.94323242 327.24507324 -43.76146484 326.42764648 -44.60449219 325.58544922 C-47.62630443 322.53527203 -50.56851497 319.5401054 -53.25 316.18359375 C-55.23211046 313.71038003 -57.36957553 311.93565504 -59.875 310 C-60.75027344 309.31421875 -61.62554687 308.6284375 -62.52734375 307.921875 C-63.34332031 307.28765625 -64.15929687 306.6534375 -65 306 C-70.5522091 301.61363938 -70.5522091 301.61363938 -72.6875 298.6875 C-73.3371875 297.8521875 -73.3371875 297.8521875 -74 297 C-74.99 297 -75.98 297 -77 297 C-77.61875 297.94875 -78.2375 298.8975 -78.875 299.875 C-81.18713659 303.27520087 -82.25677096 303.7275492 -86 305 C-85.91878906 303.86304688 -85.83757812 302.72609375 -85.75390625 301.5546875 C-85.18000293 289.88235744 -87.06735689 283.02324499 -93 273 C-93.84175239 271.22188904 -94.65915703 269.43176726 -95.4375 267.625 C-95.953125 266.42875 -96.46875 265.2325 -97 264 C-96.505 268.95 -96.505 268.95 -96 274 C-102.79283403 268.42017204 -104.97148638 259.39317903 -106 251 C-107.1326877 238.02377076 -104.023915 225.45258148 -98 214 C-100.31 214 -102.62 214 -105 214 C-104 211 -104 211 -101.75 208.8125 C-90.97692918 197.79458667 -89.52231182 184.72786349 -89.65283203 169.98022461 C-89.81606213 162.73018306 -90.44925078 155.68187283 -91.66015625 148.53515625 C-91.77230469 147.69855469 -91.88445312 146.86195313 -92 146 C-90.20126172 144.20126172 -87.24415424 144.38185192 -84.8125 144 C-77.74896668 142.71301143 -71.21773159 140.4149991 -64.5625 137.75 C-63.63993408 137.39164063 -62.71736816 137.03328125 -61.7668457 136.6640625 C-49.78214674 131.70592287 -43.89942722 124.36975043 -38.98779297 112.61962891 C-32.71878613 96.71242313 -32.71878613 96.71242313 -31 80 C-33.430466 77.569534 -34.5989856 77.23728007 -38 77 C-39.2375 77.7734375 -39.2375 77.7734375 -40.5 78.5625 C-43 80 -43 80 -45.3125 79.5625 C-49.11629283 77.35099254 -52.54949793 74.72272868 -56 72 C-54.76634671 68.29904013 -53.3725544 67.45550919 -50.25 65.1875 C-49.38890625 64.54167969 -48.5278125 63.89585938 -47.640625 63.23046875 C-45 62 -45 62 -42.234375 62.67578125 C-40 64 -40 64 -39 66 C-36.67843403 66.40729228 -34.3431213 66.74438677 -32 67 C-36.43359705 57.29083566 -36.43359705 57.29083566 -44.8125 51.125 C-45.864375 50.75375 -46.91625 50.3825 -48 50 C-48 49.34 -48 48.68 -48 48 C-48.515625 47.773125 -49.03125 47.54625 -49.5625 47.3125 C-52.89547005 45.51782382 -56.14703671 43.50034985 -59 41 C-59 40.34 -59 39.68 -59 39 C-52.39367844 36.8915995 -45.82423338 35.23416987 -39 34 C-37.86235649 38.26616316 -37 41.56486311 -37 46 C-36.34 46 -35.68 46 -35 46 C-34.75121094 46.59296875 -34.50242187 47.1859375 -34.24609375 47.796875 C-32.82025774 50.31778882 -31.38383287 51.53817911 -29.0625 53.25 C-28.02802734 54.03117187 -28.02802734 54.03117187 -26.97265625 54.828125 C-24.95254528 56.25536771 -24.95254528 56.25536771 -22 56 C-21.566875 55.236875 -21.13375 54.47375 -20.6875 53.6875 C-19 51 -19 51 -16.25 49.8125 C-11.38463556 47.09912368 -8.5926344 42.87815232 -6 38 C-5.15665654 34.33761521 -4.88068892 30.87453141 -4.9375 27.125 C-4.94652344 26.34382813 -4.95554687 25.56265625 -4.96484375 24.7578125 C-4.97644531 24.17773438 -4.98804687 23.59765625 -5 23 C-6.98 23.33 -8.96 23.66 -11 24 C-12.98362069 21.08291076 -12.9876191 19.87619096 -12.625 16.25 C-12.41875 15.1775 -12.2125 14.105 -12 13 C-11.2575 13 -10.515 13 -9.75 13 C-6.48294065 11.81197842 -6.32077244 11.20793156 -4.875 8.1875 C-4.39546875 7.11048828 -4.39546875 7.11048828 -3.90625 6.01171875 C-2.87500491 3.72253245 -1.69829729 1.85268796 0 0 Z M0 9 C-0.99 10.485 -0.99 10.485 -2 12 C-0.68 12.33 0.64 12.66 2 13 C2 11.68 2 10.36 2 9 C1.34 9 0.68 9 0 9 Z M-9 16 C-8.67 17.32 -8.34 18.64 -8 20 C-4.535 19.505 -4.535 19.505 -1 19 C-1 22.96 -1 26.92 -1 31 C-0.01 31 0.98 31 2 31 C2.03738281 30.38511719 2.07476562 29.77023438 2.11328125 29.13671875 C2.17902344 28.32847656 2.24476562 27.52023438 2.3125 26.6875 C2.37050781 25.88699219 2.42851563 25.08648437 2.48828125 24.26171875 C3.09499565 21.58013375 3.84362154 20.6646627 6 19 C6.99 18.67 7.98 18.34 9 18 C9 17.34 9 16.68 9 16 C5.93537096 15.10614986 3.18818621 14.86527992 0 14.875 C-0.845625 14.87242188 -1.69125 14.86984375 -2.5625 14.8671875 C-4.84698944 14.99166289 -6.80991574 15.36122543 -9 16 Z M0 36 C-2.21531661 38.22712063 -2.21531661 38.22712063 -4 41 C-3.87436418 43.26424351 -3.87436418 43.26424351 -3 45 C-2.34 43.68 -1.68 42.36 -1 41 C-0.21625 41.825 0.5675 42.65 1.375 43.5 C3.63721264 46.22988506 3.63721264 46.22988506 6 46 C6.33 47.32 6.66 48.64 7 50 C7.66 50 8.32 50 9 50 C8.48234722 46.16936944 7.79845632 44.59116326 5 42 C3.66666667 40 2.33333333 38 1 36 C0.67 36 0.34 36 0 36 Z M43 39 C41.74335022 41.90600261 41 43.79604584 41 47 C41.99 47 42.98 47 44 47 C43.67 45.35 43.34 43.7 43 42 C43.99 42 44.98 42 46 42 C45.67 43.32 45.34 44.64 45 46 C49.06024321 43.96197865 49.06024321 43.96197865 51 40 C48.36 39.67 45.72 39.34 43 39 Z M-46.6875 39.375 C-47.450625 39.58125 -48.21375 39.7875 -49 40 C-47.83242263 43.32310483 -46.85051143 45.83361132 -44 48 C-43.01 48 -42.02 48 -41 48 C-40.74984127 44.58357241 -40.74984127 44.58357241 -41 41 C-43.78114056 38.66608797 -43.78114056 38.66608797 -46.6875 39.375 Z M-6 44 C-8.37015245 46.65484449 -8.37015245 46.65484449 -9 50 C-6.87635519 50.22609337 -6.87635519 50.22609337 -5.375 48.5 C-4.694375 47.7575 -4.694375 47.7575 -4 47 C-4.33 46.01 -4.66 45.02 -5 44 C-5.33 44 -5.66 44 -6 44 Z M0 49 C0.33 50.98 0.66 52.96 1 55 C1.66 54.67 2.32 54.34 3 54 C2.34 52.35 1.68 50.7 1 49 C0.67 49 0.34 49 0 49 Z M-2 53 C-1 55 -1 55 -1 55 Z M13 54 C12.34 55.65 11.68 57.3 11 59 C8.69 59.33 6.38 59.66 4 60 C4 60.99 4 61.98 4 63 C4.66 63.66 5.32 64.32 6 65 C5 68 5 68 2.9375 69.1875 C2.298125 69.455625 1.65875 69.72375 1 70 C1 70.33 1 70.66 1 71 C13.95477615 72.71767863 13.95477615 72.71767863 27 73 C27 72.67 27 72.34 27 72 C25.35 72 23.7 72 22 72 C22.185625 71.071875 22.37125 70.14375 22.5625 69.1875 C23.24123881 65.98656229 23.24123881 65.98656229 22 63 C22.99 62.34 23.98 61.68 25 61 C23.02 61 21.04 61 19 61 C19.309375 60.1028125 19.309375 60.1028125 19.625 59.1875 C20.30671915 56.71549154 20.30671915 56.71549154 18 54 C15.41619823 53.74969023 15.41619823 53.74969023 13 54 Z M-18 56 C-18 57.65 -18 59.3 -18 61 C-19.98 61 -21.96 61 -24 61 C-22.68 61.99 -21.36 62.98 -20 64 C-20.99 64.495 -20.99 64.495 -22 65 C-21.67 66.65 -21.34 68.3 -21 70 C-22.65 70.66 -24.3 71.32 -26 72 C-26 72.33 -26 72.66 -26 73 C-22.74931846 72.88985294 -19.49976672 72.75928788 -16.25 72.625 C-15.32960938 72.5940625 -14.40921875 72.563125 -13.4609375 72.53125 C-12.12675781 72.47324219 -12.12675781 72.47324219 -10.765625 72.4140625 C-9.94868164 72.3826416 -9.13173828 72.3512207 -8.29003906 72.31884766 C-5.83167042 71.97656307 -4.14240001 71.2260723 -2 70 C-2.66 69.01 -3.32 68.02 -4 67 C-4.66 67 -5.32 67 -6 67 C-5.38722388 64.03824877 -4.74627478 62.61941217 -3 60 C-3.928125 59.938125 -4.85625 59.87625 -5.8125 59.8125 C-9 59 -9 59 -10.75 56.4375 C-11.1625 55.633125 -11.575 54.82875 -12 54 C-14.46278801 54 -15.85224119 54.85452863 -18 56 Z M26 61 C28.47266765 60.65555119 28.47266765 60.65555119 31 60 C31.33 59.34 31.66 58.68 32 58 C29.23776722 58 28.10718546 59.31425163 26 61 Z M-30 59 C-29.67 59.66 -29.34 60.32 -29 61 C-27.68 60.67 -26.36 60.34 -25 60 C-26.65 59.67 -28.3 59.34 -30 59 Z M0 62 C-1.2236068 64.0745356 -1.2236068 64.0745356 -1 67 C0.32 66.34 1.64 65.68 3 65 C2.67 64.01 2.34 63.02 2 62 C1.34 62 0.68 62 0 62 Z M44 66 C44.185625 66.7425 44.37125 67.485 44.5625 68.25 C44.99203108 70.94990963 44.85122974 72.44631077 44 75 C44.99 75.495 44.99 75.495 46 76 C47.60339848 72.88228073 48.18974141 71.60988311 47.125 68.1875 C46.568125 67.1046875 46.568125 67.1046875 46 66 C45.34 66 44.68 66 44 66 Z M-45 67 C-45.66 67.66 -46.32 68.32 -47 69 C-46.64700993 72.44165321 -45.95418308 74.06872538 -44 77 C-42.76351913 74.18534987 -42.76351913 74.18534987 -43.5 72 C-44 70 -44 70 -43 67 C-43.66 67 -44.32 67 -45 67 Z M32 70 C32 70.66 32 71.32 32 72 C35.3 72 38.6 72 42 72 C42 71.67 42 71.34 42 71 C38.7 70.67 35.4 70.34 32 70 Z M-42 71 C-42 71.33 -42 71.66 -42 72 C-38.37 72.33 -34.74 72.66 -31 73 C-31 72.34 -31 71.68 -31 71 C-34.63 71 -38.26 71 -42 71 Z M17 76 C17 76.33 17 76.66 17 77 C18.65 77 20.3 77 22 77 C22 76.67 22 76.34 22 76 C20.35 76 18.7 76 17 76 Z M-18 81 C-17.18015625 81.19335938 -16.3603125 81.38671875 -15.515625 81.5859375 C-14.43796875 81.84632812 -13.3603125 82.10671875 -12.25 82.375 C-11.18265625 82.63023438 -10.1153125 82.88546875 -9.015625 83.1484375 C-6 84 -6 84 -2 86 C-2 88.97 -2 91.94 -2 95 C-2.33 94.34 -2.66 93.68 -3 93 C-7.62 93 -12.24 93 -17 93 C-15.2309319 101.84534052 -12.18661951 113.28402881 -4.875 119.125 C-2.40898454 120.56944836 -1.1995188 120.99072006 1.6875 121.125 C8.7206886 117.70344879 10.88199599 112.84506419 14 106 C14.55558594 104.85402344 15.11117187 103.70804688 15.68359375 102.52734375 C17.96740264 97.8181852 17.96740264 97.8181852 20 93 C19.505 92.01 19.505 92.01 19 91 C18.01 91.66 17.02 92.32 16 93 C13.08203125 93.1953125 13.08203125 93.1953125 9.8125 93.125 C8.18248047 93.09792969 8.18248047 93.09792969 6.51953125 93.0703125 C5.27236328 93.03550781 5.27236328 93.03550781 4 93 C3.67 93.66 3.34 94.32 3 95 C2.609375 89.04296875 2.609375 89.04296875 3 87 C5.96400058 83.97899941 9.20094814 83.2367401 13.25 82.3125 C14.32765625 82.06113281 15.4053125 81.80976562 16.515625 81.55078125 C17.33546875 81.36902344 18.1553125 81.18726562 19 81 C15.44953024 78.80115434 12.53540465 78.74234634 8.40625 78.734375 C7.12878906 78.73179688 5.85132812 78.72921875 4.53515625 78.7265625 C3.87273926 78.73075195 3.21032227 78.73494141 2.52783203 78.73925781 C0.50653057 78.74996541 -1.51388225 78.73934604 -3.53515625 78.7265625 C-4.81261719 78.72914062 -6.09007813 78.73171875 -7.40625 78.734375 C-8.57478516 78.73663086 -9.74332031 78.73888672 -10.94726562 78.74121094 C-13.86882737 78.98888012 -15.53574262 79.47385782 -18 81 Z M26 84 C25.97283911 87.02089478 25.95308343 90.04154129 25.9375 93.0625 C25.92912109 93.91005859 25.92074219 94.75761719 25.91210938 95.63085938 C25.89322752 100.52126015 25.98731264 105.20406551 27 110 C27.66 110.33 28.32 110.66 29 111 C29 109.35 29 107.7 29 106 C29.66 106 30.32 106 31 106 C31.08636719 106.65484375 31.17273438 107.3096875 31.26171875 107.984375 C32.39541564 115.34820434 34.22860552 122.50945093 38 129 C40.03018317 130.15928318 40.03018317 130.15928318 42 131 C40.35490105 122.56886787 37.68016847 114.51844217 35 106.375 C34.3194864 104.29667469 33.64019765 102.21795825 32.9621582 100.13882446 C32.34814865 98.25765588 31.73081694 96.37757259 31.11328125 94.49755859 C30.00434111 91.01363832 28.98629681 87.52015636 28 84 C27.34 84 26.68 84 26 84 Z M-27 87 C-29.32392817 93.99364558 -30.74912056 100.82307477 -31.6875 108.125 C-31.81705078 109.08148438 -31.94660156 110.03796875 -32.08007812 111.0234375 C-32.39390751 113.34809962 -32.70043369 115.67346463 -33 118 C-32.01 117.67 -31.02 117.34 -30 117 C-28.77479736 113.99152582 -28.77479736 113.99152582 -28 111 C-27.34 111 -26.68 111 -26 111 C-24.74751498 108.49502996 -24.88625594 106.79146726 -24.90234375 103.9921875 C-24.90556641 103.00605469 -24.90878906 102.01992187 -24.91210938 101.00390625 C-24.92048828 99.97136719 -24.92886719 98.93882813 -24.9375 97.875 C-24.94201172 96.83472656 -24.94652344 95.79445313 -24.95117188 94.72265625 C-24.96298048 92.14838038 -24.97944925 89.57421854 -25 87 C-25.66 87 -26.32 87 -27 87 Z M-33.4375 127.0625 C-38.22858789 131.37273053 -43.49702606 134.67682889 -49 138 C-49.86625 138.54785156 -50.7325 139.09570312 -51.625 139.66015625 C-54.41131195 141.23203947 -56.84279144 141.63288273 -60 142 C-60 142.99 -60 143.98 -60 145 C-52.78313196 147.03129238 -45.78549017 146.76774509 -39.0390625 143.39453125 C-33.36270885 139.51242732 -30.23680145 133.3376041 -28 127 C-28 126.01 -28 125.02 -28 124 C-30.78688245 124 -31.43067307 125.1641502 -33.4375 127.0625 Z M33 130 C33.45733606 134.58940745 34.94823528 136.32460046 38.4375 139.25 C39.24058594 139.93578125 40.04367188 140.6215625 40.87109375 141.328125 C45.08871396 144.64031115 48.80170881 144.35912202 54 144 C56.92876584 143.35062487 56.92876584 143.35062487 59 142 C59.33 141.01 59.66 140.02 60 139 C59.16855469 138.72285156 58.33710938 138.44570312 57.48046875 138.16015625 C53.3203125 136.7734375 49.16015625 135.38671875 45 134 C45 135.32 45 136.64 45 138 C44.46890625 137.59007812 43.9378125 137.18015625 43.390625 136.7578125 C42.68421875 136.21898437 41.9778125 135.68015625 41.25 135.125 C40.55390625 134.59132812 39.8578125 134.05765625 39.140625 133.5078125 C37.15277397 132.10761086 35.20156614 131.02144735 33 130 Z M-6.4375 140.625 C-21.89719447 147.92252916 -38.02962602 151.04771018 -55 152 C-55.96228516 152.05494629 -56.92457031 152.10989258 -57.91601562 152.16650391 C-63.94224049 152.49835742 -69.96943985 152.76212734 -76 153 C-75.9278125 154.08007324 -75.855625 155.16014648 -75.78125 156.27294922 C-74.93445945 169.89876762 -74.9139089 183.47751077 -75 197.125 C-75.02677811 201.44010174 -75.04663314 205.75515842 -75.0625 210.0703125 C-75.07079834 211.03607208 -75.07909668 212.00183167 -75.08764648 212.99685669 C-75.10832643 218.75035767 -74.74174372 224.29309978 -74 230 C-71.03 229.01 -71.03 229.01 -68 228 C-67.97677012 220.03710264 -67.95903082 212.07421958 -67.94818783 204.11129665 C-67.94298222 200.41329687 -67.93592699 196.71532037 -67.92456055 193.01733398 C-67.91364883 189.44469539 -67.90770569 185.87207911 -67.90512276 182.29942513 C-67.90328339 180.94036572 -67.89969168 179.58130745 -67.89426994 178.22225761 C-67.8869495 176.31021199 -67.88659101 174.39814362 -67.88647461 172.48608398 C-67.88314369 170.8572654 -67.88314369 170.8572654 -67.87974548 169.19554138 C-68.00973554 165.741296 -68.45659994 162.41164668 -69 159 C-67.90945312 159.02320313 -66.81890625 159.04640625 -65.6953125 159.0703125 C-44.60232881 159.38206637 -25.76677492 156.56223236 -6.2421875 148.26953125 C0.70351076 145.54983012 0.70351076 145.54983012 5.09375 147.07421875 C6.2178125 147.60660156 7.341875 148.13898438 8.5 148.6875 C21.75197296 155.02826822 21.75197296 155.02826822 36 156 C38.17342791 154.02999008 38.17342791 154.02999008 40 152 C39.12786865 151.71801758 38.2557373 151.43603516 37.35717773 151.14550781 C34.09175423 150.08560694 30.82876921 149.01875559 27.56713867 147.94726562 C26.16081373 147.48682036 24.75359897 147.02908297 23.34545898 146.57421875 C21.30987748 145.91613639 19.27780184 145.24805701 17.24609375 144.578125 C16.02591553 144.18012695 14.8057373 143.78212891 13.54858398 143.37207031 C10.84556171 142.32693889 8.7375728 141.31418275 6.29711914 139.83886719 C1.12227252 136.95275502 -1.50152601 138.06851945 -6.4375 140.625 Z M34 161 C33.18039795 161.69222656 33.18039795 161.69222656 32.34423828 162.3984375 C26.42003715 167.4067641 20.55217596 172.46795366 14.8125 177.6875 C11.4991692 180.69814479 8.11058071 183.56565178 4.625 186.375 C-0.51758543 190.53562075 -5.37451737 194.94356304 -10.22265625 199.4375 C-13.11230673 202.10361915 -16.05509004 204.69598353 -19.0234375 207.2734375 C-24.12701915 211.73150685 -29.14583337 216.28678239 -34.12890625 220.87890625 C-34.65838867 221.36649414 -35.18787109 221.85408203 -35.73339844 222.35644531 C-37.23656074 223.74247808 -38.73748141 225.13094075 -40.23828125 226.51953125 C-42.75749021 228.78218711 -45.33256288 230.91560924 -48 233 C-46.44298069 237.67105792 -43.91552627 241.08705685 -41 245 C-37.86558582 244.41681857 -36.16666112 243.55939993 -33.86315918 241.37020874 C-32.98534161 240.54465957 -32.98534161 240.54465957 -32.08979034 239.70243263 C-31.46654625 239.10115232 -30.84330215 238.49987202 -30.20117188 237.88037109 C-29.54137077 237.25365698 -28.88156967 236.62694286 -28.2017746 235.98123741 C-20.95500845 229.06699671 -13.85715299 222.00232326 -6.78125 214.9140625 C-5.38470714 213.51819601 -3.98801611 212.12247776 -2.59118652 210.72689819 C0.30443771 207.83273185 3.19828751 204.93680671 6.09082031 202.03955078 C9.77994791 198.34468931 13.47359977 194.65438818 17.16857147 190.96537209 C20.04097939 188.09658985 22.91098661 185.2254154 25.7802887 182.35352707 C27.1413915 180.99176249 28.50322277 179.6307256 29.86582947 178.27046585 C39.7361108 168.41838697 39.7361108 168.41838697 49 158 C49.49987427 157.42883453 49.99974854 156.85766907 50.51477051 156.26919556 C53.16860192 153.53028429 53.16860192 153.53028429 54 150 C45.78130698 150 39.91944445 155.97451246 34 161 Z M54.328125 155.0234375 C53.67070312 156.49683594 53.67070312 156.49683594 53 158 C58.72370949 158.83253956 64.22156499 159.09705875 70 159 C69.7563974 160.95530136 69.7563974 160.95530136 69.50787354 162.95010376 C68.99530989 167.58390086 68.86116468 172.1401396 68.87402344 176.79833984 C68.8721553 177.62744873 68.87028717 178.45655762 68.86836243 179.31079102 C68.86438646 181.09654813 68.86228619 182.88231025 68.86190033 184.66807175 C68.85843865 188.49648864 68.83701256 192.32474261 68.81666946 196.15310097 C68.77894132 203.25654932 68.7473702 210.35981846 68.74951172 217.46337891 C68.75030781 222.42776226 68.72656011 227.39153836 68.6876297 232.35576248 C68.67730539 234.22680542 68.67554314 236.09791964 68.68328094 237.96897507 C68.8075602 271.36994647 54.37406098 297.51825172 31.12890625 320.94140625 C22.83500852 328.84419091 13.58021954 335.73078412 4 342 C3.15953125 342.56460938 2.3190625 343.12921875 1.453125 343.7109375 C-2.18358761 344.13946733 -3.90136525 342.43698945 -6.72412109 340.26269531 C-7.41328613 339.70163086 -8.10245117 339.14056641 -8.8125 338.5625 C-9.87718506 337.73057129 -9.87718506 337.73057129 -10.96337891 336.88183594 C-15.32021537 333.45038954 -19.57825418 329.9128548 -23.6171875 326.109375 C-24.96453308 324.79141024 -24.96453308 324.79141024 -27 325 C-27 324.34 -27 323.68 -27 323 C-28.38964326 321.67504067 -28.38964326 321.67504067 -30.25 320.25 C-42.85910816 309.44537552 -52.91092812 295.30277558 -59.6875 280.1875 C-61.2496278 276.84409698 -62.4040195 275.36196659 -65.8125 273.875 C-66.864375 273.58625 -67.91625 273.2975 -69 273 C-68.43765009 277.99181838 -66.81679363 282.06523502 -64.5625 286.5 C-64.21050537 287.19561035 -63.85851074 287.8912207 -63.49584961 288.60791016 C-57.59197821 299.93212963 -49.83933148 309.81752677 -41 319 C-40.51080078 319.52029785 -40.02160156 320.0405957 -39.51757812 320.57666016 C-31.00043526 329.61244177 -21.90163793 337.37922236 -11.84716797 344.66113281 C-10.2518721 345.81743767 -8.67311791 346.99650095 -7.09765625 348.1796875 C-5.93556641 349.01886719 -5.93556641 349.01886719 -4.75 349.875 C-4.12609375 350.32617188 -3.5021875 350.77734375 -2.859375 351.2421875 C-0.07932139 352.37523456 1.1580005 352.01210808 4 351 C6.67525623 349.33517681 9.14225178 347.43698564 11.625 345.5 C12.33793213 344.95174561 13.05086426 344.40349121 13.78540039 343.83862305 C15.21514632 342.73473595 16.64141386 341.62632727 18.06396484 340.51318359 C19.66399933 339.2626144 21.27753942 338.02934589 22.89453125 336.80078125 C47.83639967 317.29938183 70.64776547 289.35678487 75 257 C75.26540514 251.8186787 75.31937855 246.64704195 75.33552551 241.45963478 C75.34393962 238.83539122 75.36456458 236.2114755 75.38806152 233.58732605 C75.4359919 227.99576751 75.46900014 222.40417454 75.5 216.8125 C75.54098783 209.48556644 75.58905657 202.158776 75.65625 194.83203125 C75.6641153 193.95323429 75.67198059 193.07443733 75.68008423 192.16901016 C75.81437064 178.69704649 76.42095426 165.39159313 78 152 C77.32696838 151.97537689 76.65393677 151.95075378 75.96051025 151.92538452 C75.06120789 151.89248322 74.16190552 151.85958191 73.23535156 151.82568359 C72.29824341 151.79238953 71.36113525 151.75909546 70.39562988 151.72479248 C68.44250224 151.65112101 66.49001218 151.560066 64.53808594 151.45947266 C58.51904143 151.21436165 58.51904143 151.21436165 54.328125 155.0234375 Z M-11 173 C-11 180.26 -11 187.52 -11 195 C-7.99511796 193.49755898 -6.15910281 192.45724869 -3.72265625 190.35546875 C-3.12646484 189.84306641 -2.53027344 189.33066406 -1.91601562 188.80273438 C-0.99852539 188.00319336 -0.99852539 188.00319336 -0.0625 187.1875 C0.54529297 186.66607422 1.15308594 186.14464844 1.77929688 185.60742188 C7.09859347 181.01973293 7.09859347 181.01973293 12 176 C12 175.01 12 174.02 12 173 C4.41 173 -3.18 173 -11 173 Z M-83 177 C-82 181 -82 181 -82 181 Z M-84 183 C-83 186 -83 186 -83 186 Z M82 186 C81.05948037 200.80447571 83.32371206 214.26047149 86.4921875 228.67578125 C88.09823661 236.0778787 89.1092338 243.48291564 90 251 C91.485 250.505 91.485 250.505 93 250 C93.33 247.69 93.66 245.38 94 243 C94.33 243 94.66 243 95 243 C95.66 250.92 96.32 258.84 97 267 C100.00924636 263.99075364 99.293318 261.14384807 99.32226562 257.02539062 C99.31743164 255.43500977 99.31743164 255.43500977 99.3125 253.8125 C99.32861328 252.80251953 99.34472656 251.79253906 99.36132812 250.75195312 C99.37036671 236.37155954 95.33225887 223.09083892 90.9375 209.5625 C90.04715035 206.79412408 89.16129265 204.02433198 88.27734375 201.25390625 C87.96680557 200.28380112 87.96680557 200.28380112 87.6499939 199.2940979 C86.25245885 194.89447174 85.0275797 190.49928964 84 186 C83.34 186 82.68 186 82 186 Z M-85 187 C-84 189 -84 189 -84 189 Z M8.43075562 203.32200623 C7.8134256 203.94076126 7.19609558 204.5595163 6.56005859 205.19702148 C5.85948334 205.89452011 5.15890808 206.59201874 4.43710327 207.31065369 C3.68184357 208.07309891 2.92658386 208.83554413 2.1484375 209.62109375 C1.37440582 210.39558365 0.60037415 211.17007355 -0.19711304 211.96803284 C-1.83527509 213.60922121 -3.47100079 215.25284446 -5.10449219 216.89868164 C-7.61602507 219.42845987 -10.13545659 221.95015588 -12.65625 224.47070312 C-14.24266034 226.06202876 -15.82861351 227.65381031 -17.4140625 229.24609375 C-18.55302475 230.38672523 -18.55302475 230.38672523 -19.71499634 231.55039978 C-20.40926727 232.25105057 -21.10353821 232.95170135 -21.81884766 233.67358398 C-22.43458649 234.29313461 -23.05032532 234.91268524 -23.6847229 235.55101013 C-25.11201947 236.79725463 -25.11201947 236.79725463 -25 238 C-20.38 238 -15.76 238 -11 238 C-11.05236816 239.35681885 -11.10473633 240.7136377 -11.15869141 242.11157227 C-11.34019352 247.16330559 -11.45466428 252.21475372 -11.54931641 257.26879883 C-11.5994955 259.45256054 -11.66765942 261.63598807 -11.75439453 263.81860352 C-12.75525157 276.00587703 -12.75525157 276.00587703 -8.87011719 287.06201172 C-6.21086853 289.02739472 -4.21315824 290.23369091 -1 291 C4.07399867 290.15151953 8.4165972 287.64920287 12 284 C13.21627846 280.42593218 13.0571143 277.0929463 12.87890625 273.3515625 C12.86617172 272.33903412 12.85343719 271.32650574 12.84031677 270.28329468 C12.79008474 267.06138659 12.67721487 263.84519322 12.5625 260.625 C12.51734004 258.4362795 12.4762781 256.24747035 12.43945312 254.05859375 C12.34043012 248.70379206 12.19000819 243.35230415 12 238 C12.57407089 238.00222061 13.14814178 238.00444122 13.73960876 238.00672913 C19.6925291 238.02878257 25.6454379 238.04390684 31.59838867 238.05493164 C33.82267732 238.05997317 36.04696263 238.06680623 38.27124023 238.07543945 C41.46078309 238.08751298 44.65028229 238.09322996 47.83984375 238.09765625 C48.84087631 238.10281754 49.84190887 238.10797882 50.87327576 238.11329651 C51.79415482 238.11337204 52.71503387 238.11344757 53.66381836 238.11352539 C54.88626503 238.11685631 54.88626503 238.11685631 56.13340759 238.12025452 C58.01477856 238.20528245 58.01477856 238.20528245 59 237 C59 230.07 59 223.14 59 216 C43.49 216 27.98 216 12 216 C12 211.38 12 206.76 12 202 C9.91294671 201.78523702 9.91294671 201.78523702 8.43075562 203.32200623 Z M-85 203 C-86.56833965 205.07396267 -87.98537233 207.12230447 -89.375 209.3125 C-89.77984619 209.94897461 -90.18469238 210.58544922 -90.60180664 211.24121094 C-93.91483371 216.59513775 -96.32094836 221.91459737 -98 228 C-98.22300781 228.78375 -98.44601563 229.5675 -98.67578125 230.375 C-100.47937023 237.83474218 -100.18291749 245.37843785 -100 253 C-99.34 253 -98.68 253 -98 253 C-97.77795898 252.10498779 -97.55591797 251.20997559 -97.32714844 250.2878418 C-94.83665191 240.57025608 -91.71722291 231.22014103 -88.25 221.8125 C-87.24789116 219.09244489 -86.25423085 216.36951879 -85.265625 213.64453125 C-84.83024414 212.46221924 -84.39486328 211.27990723 -83.94628906 210.06176758 C-82.80314348 206.89717146 -82.80314348 206.89717146 -83 203 C-83.66 203 -84.32 203 -85 203 Z M-58 216 C-58 218.31 -58 220.62 -58 223 C-56.329375 223.37125 -56.329375 223.37125 -54.625 223.75 C-51 225 -51 225 -49.5625 227.125 C-49.2840625 228.053125 -49.2840625 228.053125 -49 229 C-45.13103156 226.83895456 -41.96295782 224.35445348 -38.6875 221.375 C-37.80449219 220.57835937 -36.92148438 219.78171875 -36.01171875 218.9609375 C-35.34785156 218.31382812 -34.68398437 217.66671875 -34 217 C-34 216.67 -34 216.34 -34 216 C-41.92 216 -49.84 216 -58 216 Z M-66.125 229.1875 C-66.75792969 229.47947266 -67.39085937 229.77144531 -68.04296875 230.07226562 C-70.9537577 231.50912004 -72.76476037 232.6008639 -74.4296875 235.42578125 C-75.27017662 239.19123836 -75.27017662 239.19123836 -75 243 C-72.94343608 245.74167303 -72.94343608 245.74167303 -70.125 248.3125 C-69.38648804 249.02273315 -69.38648804 249.02273315 -68.63305664 249.74731445 C-61.16564976 257.84757367 -61.16564976 257.84757367 -52 262 C-52.50740537 257.4579035 -54.18644005 255.12910157 -57.125 251.6875 C-58.33736328 250.26050781 -58.33736328 250.26050781 -59.57421875 248.8046875 C-60.37472656 247.87914062 -61.17523438 246.95359375 -62 246 C-62.68707031 245.17757812 -63.37414063 244.35515625 -64.08203125 243.5078125 C-66.44992491 240.66882134 -66.44992491 240.66882134 -69 238 C-69.66 238 -70.32 238 -71 238 C-71 237.34 -71 236.68 -71 236 C-67.11985823 238.82192129 -64.14046288 242.01515999 -61.0390625 245.62890625 C-58.61714222 248.44520053 -56.16366777 251.23146651 -53.6875 254 C-52.42486328 255.423125 -52.42486328 255.423125 -51.13671875 256.875 C-49.26590078 259.23505324 -49.26590078 259.23505324 -47 259 C-47.56658288 255.32909059 -48.52479482 252.74375554 -50.50390625 249.609375 C-50.99697266 248.81789062 -51.49003906 248.02640625 -51.99804688 247.2109375 C-52.51431641 246.39882812 -53.03058594 245.58671875 -53.5625 244.75 C-54.5863981 243.12089819 -55.60862986 241.49074746 -56.62890625 239.859375 C-57.08338135 239.14233398 -57.53785645 238.42529297 -58.00610352 237.68652344 C-59 236 -59 236 -59 235 C-58.34773438 236.08539063 -57.69546875 237.17078125 -57.0234375 238.2890625 C-56.14106848 239.73464579 -55.2582309 241.17994314 -54.375 242.625 C-53.94832031 243.33785156 -53.52164063 244.05070312 -53.08203125 244.78515625 C-50.17957895 249.50705625 -47.15456641 253.31093122 -43 257 C-42.34 257 -41.68 257 -41 257 C-40.35571663 251.09873783 -42.49929608 247.46345127 -45.3125 242.5 C-46.12158357 241.03151977 -46.93018636 239.56277453 -47.73828125 238.09375 C-48.12709473 237.39765625 -48.5159082 236.7015625 -48.91650391 235.984375 C-49.88330685 234.21371833 -50.78074787 232.40559218 -51.66796875 230.59375 C-52.87172385 227.92429047 -52.87172385 227.92429047 -55 226 C-59.44923624 226 -62.25186177 227.25891674 -66.125 229.1875 Z M-76 245 C-78.20347527 247.66430232 -78.20347527 247.66430232 -77.9140625 249.90625 C-74.9959101 256.5905649 -66.47683973 262.02065372 -60 265 C-58.68 265 -57.36 265 -56 265 C-57.42062515 261.7731002 -59.14245441 259.60057488 -61.625 257.109375 C-62.33140625 256.40039062 -63.0378125 255.69140625 -63.765625 254.9609375 C-64.50296875 254.23132813 -65.2403125 253.50171875 -66 252.75 C-66.73734375 252.00492188 -67.4746875 251.25984375 -68.234375 250.4921875 C-68.94078125 249.78835937 -69.6471875 249.08453125 -70.375 248.359375 C-71.02210937 247.71452148 -71.66921875 247.06966797 -72.3359375 246.40527344 C-73.89166356 244.78493391 -73.89166356 244.78493391 -76 245 Z M-79 254 C-78.55032382 259.04227062 -77.21440984 261.53468138 -73.8125 265.25 C-72.67748047 266.52617187 -72.67748047 266.52617187 -71.51953125 267.828125 C-68.758398 270.20826467 -66.50065663 271.08810681 -63 272 C-62.67 270.68 -62.34 269.36 -62 268 C-64.45078762 265.65863048 -66.91182546 263.32832922 -69.375 261 C-70.07367188 260.33226562 -70.77234375 259.66453125 -71.4921875 258.9765625 C-72.1625 258.34492188 -72.8328125 257.71328125 -73.5234375 257.0625 C-74.14138184 256.47597656 -74.75932617 255.88945312 -75.39599609 255.28515625 C-76.91757703 253.79157523 -76.91757703 253.79157523 -79 254 Z " fill="#050505" transform="translate(109,4)"/>
<path d="M0 0 C0.99 0 1.98 0 3 0 C2.690625 0.598125 2.38125 1.19625 2.0625 1.8125 C0.89790296 4.08956772 0.89790296 4.08956772 0 7 C0.99 7.33 1.98 7.66 3 8 C1.94901234 10.86632997 1.33137046 11.83006643 -1.4375 13.25 C-4 14 -4 14 -7 14 C-9.1875 11.5 -9.1875 11.5 -11 9 C-9.19587357 5.73539027 -8.16605307 4.11070205 -5 2 C-2.8125 2.375 -2.8125 2.375 -1 3 C-0.67 2.01 -0.34 1.02 0 0 Z M-4 6 C-5.2236068 8.0745356 -5.2236068 8.0745356 -5 11 C-3.68 10.34 -2.36 9.68 -1 9 C-1.33 8.01 -1.66 7.02 -2 6 C-2.66 6 -3.32 6 -4 6 Z " fill="#3C3C3C" transform="translate(113,60)"/>
<path d="M0 0 C2 3 2 3 2 5 C2.99 4.67 3.98 4.34 5 4 C5 5.65 5 7.3 5 9 C4.01 9.495 4.01 9.495 3 10 C3 9.34 3 8.68 3 8 C2.05125 8.20625 1.1025 8.4125 0.125 8.625 C-0.90625 8.74875 -1.9375 8.8725 -3 9 C-3.66 8.34 -4.32 7.68 -5 7 C-5 6.34 -5 5.68 -5 5 C-4.34 5 -3.68 5 -3 5 C-2.67 4.01 -2.34 3.02 -2 2 C-1.34 2 -0.68 2 0 2 C0 1.34 0 0.68 0 0 Z M-1 3 C0 5 0 5 0 5 Z " fill="#1B1B1B" transform="translate(108,54)"/>
<path d="M0 0 C0.33 0.99 0.66 1.98 1 3 C-0.0828125 3.61875 -0.0828125 3.61875 -1.1875 4.25 C-3.97969862 5.98736803 -6.47012585 7.90381857 -9 10 C-7.61811547 6.78956118 -6.07578097 4.95063635 -3.375 2.75 C-2.74335938 2.22921875 -2.11171875 1.7084375 -1.4609375 1.171875 C-0.73777344 0.59179688 -0.73777344 0.59179688 0 0 Z M-11 10 C-10.34 10.33 -9.68 10.66 -9 11 C-9.99 11.66 -10.98 12.32 -12 13 C-11.67 12.01 -11.34 11.02 -11 10 Z " fill="#141414" transform="translate(163,157)"/>
<path d="M0 0 C1.32 0.66 2.64 1.32 4 2 C3.3125 3.9375 3.3125 3.9375 2 6 C-0.625 6.75 -0.625 6.75 -3 7 C-3 6.01 -3 5.02 -3 4 C-2.34 3.67 -1.68 3.34 -1 3 C-0.67 2.01 -0.34 1.02 0 0 Z " fill="#333333" transform="translate(112,66)"/>
<path d="M0 0 C0.66 0 1.32 0 2 0 C2.33 2.97 2.66 5.94 3 9 C1.68 8.34 0.36 7.68 -1 7 C-0.67 4.69 -0.34 2.38 0 0 Z " fill="#242424" transform="translate(138,110)"/>
<path d="M0 0 C1.98 0.99 1.98 0.99 4 2 C4 2.66 4 3.32 4 4 C2.68 4 1.36 4 0 4 C0 2.68 0 1.36 0 0 Z " fill="#393939" transform="translate(63,45)"/>
<path d="" fill="#5F5F5F" transform="translate(0,0)"/>
</svg>
