<?xml version="1.0" encoding="UTF-8"?>
<!-- Generator: visioncortex VTracer 0.6.4 -->
<svg version="1.1" xmlns="http://www.w3.org/2000/svg" width="224" height="355">
<path d="M0 0 C4.89212407 0.38941209 9.77138748 0.51740972 14.67675781 0.62524414 C15.64280945 0.64650864 16.60886108 0.66777313 17.60418701 0.68968201 C20.61270274 0.75298649 23.6212815 0.81225587 26.62988281 0.87133789 C28.69499413 0.9146177 30.76009841 0.95823469 32.82519531 1.00219727 C37.84335176 1.10829975 42.86158149 1.20983436 47.87988281 1.30883789 C47.95044356 10.36050679 48.00321742 19.41207627 48.03531933 28.46396351 C48.0507527 32.67041275 48.0715627 36.8766694 48.10620117 41.08300781 C48.54448034 95.80562951 40.38849403 135.05446574 1.00488281 175.37133789 C-4.08588058 180.39925235 -9.49705568 184.892901 -15.12011719 189.30883789 C-16.18342007 190.18546911 -17.24590032 191.06309896 -18.30761719 191.94165039 C-19.36919918 192.79435704 -20.43167776 193.64594885 -21.49511719 194.49633789 C-22.45160156 195.27364258 -23.40808594 196.05094727 -24.39355469 196.85180664 C-27.12011719 198.30883789 -27.12011719 198.30883789 -29.65917969 197.78930664 C-39.4496473 191.89948565 -47.87806374 183.17135391 -56.12011719 175.30883789 C-56.70760742 174.7500293 -57.29509766 174.1912207 -57.90039062 173.61547852 C-78.46488882 153.92961491 -95.63479057 130.04748635 -96.49243164 100.42700195 C-96.5052137 98.05952152 -96.50171849 95.69190694 -96.48339844 93.32446289 C-96.48389694 92.0616449 -96.48439545 90.7988269 -96.48490906 89.4977417 C-96.48200106 86.19081956 -96.46513893 82.8843475 -96.44268799 79.57751465 C-96.42914644 76.86313226 -96.43445087 74.1489138 -96.43981647 71.43451309 C-96.44394676 68.18946258 -96.43201083 64.94449176 -96.42089844 61.69946289 C-96.42226555 59.87780609 -96.42226555 59.87780609 -96.42366028 58.01934814 C-96.40936226 56.34555084 -96.40936226 56.34555084 -96.39477539 54.63793945 C-96.390168 53.65424377 -96.38556061 52.6705481 -96.3808136 51.65704346 C-96.12011719 49.30883789 -96.12011719 49.30883789 -94.12011719 47.30883789 C-93.13011719 47.30883789 -92.14011719 47.30883789 -91.12011719 47.30883789 C-91.12011719 57.86883789 -91.12011719 68.42883789 -91.12011719 79.30883789 C-88.19136719 78.83446289 -85.26261719 78.36008789 -82.24511719 77.87133789 C-67.55641326 75.60838244 -52.96230998 75.11181763 -38.12011719 75.30883789 C-35.93433641 70.9259817 -35.88900837 66.92906163 -35.99511719 62.14086914 C-36.00269043 61.3471843 -36.01026367 60.55349945 -36.01806641 59.73576355 C-36.05037654 56.3660516 -36.1057183 52.99684155 -36.16113281 49.62744141 C-36.39674604 33.92660962 -35.3120079 18.72499093 -32.12011719 3.30883789 C-29.24511719 3.18383789 -29.24511719 3.18383789 -26.12011719 3.30883789 C-17.4267047 12.00225037 -20.58777728 36.80050548 -20.49511719 48.12133789 C-20.45845595 51.37285202 -20.41785117 54.62425207 -20.37246704 57.87565613 C-20.34551182 59.8789335 -20.32404568 61.88229473 -20.30892944 63.88569641 C-20.2986673 64.7882164 -20.28840515 65.69073639 -20.27783203 66.62060547 C-20.27133636 67.40792557 -20.2648407 68.19524567 -20.25814819 69.00642395 C-20.10792873 71.51214635 -19.66379004 73.86082065 -19.12011719 76.30883789 C-18.46011719 75.97883789 -17.80011719 75.64883789 -17.12011719 75.30883789 C-7.12835969 74.68975205 2.96912693 75.43808754 12.94238281 76.05883789 C14.08819824 76.12047119 15.23401367 76.18210449 16.41455078 76.24560547 C25.61674759 76.87489929 32.60657141 78.83595485 41.87988281 81.30883789 C42.20988281 56.88883789 42.53988281 32.46883789 42.87988281 7.30883789 C31.65988281 7.30883789 20.43988281 7.30883789 8.87988281 7.30883789 C-15.03678385 5.03106011 -15.03678385 5.03106011 -19.12011719 2.30883789 C-17.54612571 1.7604196 -15.95991865 1.24708044 -14.37011719 0.74633789 C-13.48839844 0.45629883 -12.60667969 0.16625977 -11.69824219 -0.13256836 C-7.59620649 -0.77295166 -4.11418214 -0.41275688 0 0 Z M28.90722656 88.55493164 C21.93185668 89.91496797 14.96544565 90.51014485 7.87988281 90.87133789 C7.06261719 90.91669678 6.24535156 90.96205566 5.40332031 91.00878906 C1.32350769 91.21601639 -2.72308327 91.33126593 -6.80761719 91.23071289 C-7.90009766 91.20642212 -7.90009766 91.20642212 -9.01464844 91.18164062 C-11.00877193 91.12452693 -13.00204752 91.03976228 -14.99511719 90.95336914 C-18.1432791 90.98166764 -18.1432791 90.98166764 -19.79138184 92.99073792 C-21.39913664 95.79561277 -21.49797464 97.53210845 -21.50488281 100.75390625 C-21.5149939 101.84702621 -21.52510498 102.94014618 -21.53552246 104.06639099 C-21.53250122 105.24854691 -21.52947998 106.43070282 -21.52636719 107.64868164 C-21.54262146 109.49654015 -21.54262146 109.49654015 -21.5592041 111.38172913 C-21.59350554 115.33660666 -21.60961817 119.29134582 -21.62011719 123.24633789 C-21.72961363 161.44393403 -21.72961363 161.44393403 -26.21972656 178.62890625 C-27.27856068 182.32498888 -27.27856068 182.32498888 -27.12011719 186.30883789 C-27.78011719 186.30883789 -28.44011719 186.30883789 -29.12011719 186.30883789 C-29.94521818 182.24879548 -30.75277837 178.18544133 -31.55761719 174.12133789 C-31.78771484 172.99018555 -32.0178125 171.8590332 -32.25488281 170.69360352 C-35.71898031 153.07189014 -35.18258633 135.64529408 -34.94873047 117.76147461 C-34.90647501 114.33973231 -34.8829988 110.91826916 -34.86230469 107.49633789 C-34.84368378 106.44736328 -34.82506287 105.39838867 -34.80587769 104.31762695 C-34.79155486 100.25946496 -34.8793391 96.99685119 -36.2265625 93.1472168 C-38.97647492 90.47743333 -40.88479745 90.69650978 -44.67480469 90.70727539 C-45.32486481 90.70031143 -45.97492493 90.69334747 -46.64468384 90.68617249 C-48.03885759 90.67250087 -49.43316568 90.66928594 -50.82739258 90.67550659 C-54.45446698 90.68944667 -58.07974067 90.62386766 -61.70605469 90.55493164 C-62.42569397 90.54234818 -63.14533325 90.52976471 -63.88677979 90.51679993 C-73.08239037 90.30990065 -82.07911685 88.92766565 -91.12011719 87.30883789 C-91.78982671 104.25620933 -90.13291454 119.06095586 -82.12011719 134.30883789 C-81.49363281 135.6062793 -81.49363281 135.6062793 -80.85449219 136.92993164 C-70.59381837 157.24488641 -52.07316541 174.74004565 -34.12011719 188.30883789 C-32.45071291 189.638742 -30.78334412 190.97121623 -29.12011719 192.30883789 C-19.29793711 188.86062574 -11.55310634 179.97222824 -4.05761719 172.99633789 C-3.30706055 172.30266113 -2.55650391 171.60898437 -1.78320312 170.89428711 C-1.0784082 170.23058105 -0.37361328 169.566875 0.35253906 168.88305664 C0.98426025 168.29097412 1.61598145 167.6988916 2.2668457 167.08886719 C3.97526182 165.37425257 3.97526182 165.37425257 4.9128418 163.14794922 C5.87988281 161.30883789 5.87988281 161.30883789 8.87988281 160.30883789 C27.86544066 140.66325043 40.39505321 113.72374831 40.87988281 86.30883789 C37.0560827 86.30883789 32.63953971 87.78311464 28.90722656 88.55493164 Z " fill="#121212" transform="translate(145.1201171875,152.691162109375)"/>
<path d="M0 0 C1.875 0.3125 1.875 0.3125 4 1 C6.29013653 4.4352048 6.17842973 5.985331 6 10 C6.66 9.34 7.32 8.68 8 8 C8.3125 10.1875 8.3125 10.1875 8 13 C5.625 15.8125 5.625 15.8125 3 18 C2.34 18 1.68 18 1 18 C1 18.99 1 19.98 1 21 C6.87008573 17.8601867 9.14190673 13.91852943 12 8 C16.103573 7.88814792 19.1389146 8.56331706 23 10 C23 10.66 23 11.32 23 12 C23.99 12 24.98 12 26 12 C26 13.65 26 15.3 26 17 C25.38125 17.268125 24.7625 17.53625 24.125 17.8125 C21.7004767 18.95556848 21.7004767 18.95556848 20 22 C19.34 22 18.68 22 18 22 C18 22.66 18 23.32 18 24 C17.01 24 16.02 24 15 24 C15 24.66 15 25.32 15 26 C8.25 28 8.25 28 6 28 C4.42422931 29.20672402 2.88853078 30.46607606 1.375 31.75 C-7.4364066 38.93624804 -16.19974334 41.91603136 -27.375 43.4375 C-33.54859406 44.31024512 -39.6452777 45.29548216 -45.75 46.5625 C-52.78028682 47.92809528 -59.80343024 48.6453556 -66.9375 49.25 C-68.01161133 49.34224854 -69.08572266 49.43449707 -70.19238281 49.52954102 C-75.92634927 49.9774203 -75.92634927 49.9774203 -78 50 C-79 49 -79 49 -79.0625 46.4375 C-79.041875 45.633125 -79.02125 44.82875 -79 44 C-74.9816087 43.08960927 -71.05863571 42.72714696 -66.94921875 42.46484375 C-66.29041214 42.42186661 -65.63160553 42.37888947 -64.95283508 42.33460999 C-62.86457818 42.19910146 -60.7760609 42.06823067 -58.6875 41.9375 C-57.26495418 41.84601014 -55.84242787 41.75421643 -54.41992188 41.66210938 C-50.94683335 41.43788997 -47.473496 41.21782672 -44 41 C-44.5775 40.66226563 -45.155 40.32453125 -45.75 39.9765625 C-46.86375 39.30753906 -46.86375 39.30753906 -48 38.625 C-48.7425 38.18414062 -49.485 37.74328125 -50.25 37.2890625 C-50.8275 36.86367187 -51.405 36.43828125 -52 36 C-52 35.34 -52 34.68 -52 34 C-52.99 34 -53.98 34 -55 34 C-55 33.34 -55 32.68 -55 32 C-56.32 31.34 -57.64 30.68 -59 30 C-59 28.68 -59 27.36 -59 26 C-56.61435923 26.57584432 -54.33317216 27.22227595 -52 28 C-52 27.34 -52 26.68 -52 26 C-52.99 26 -53.98 26 -55 26 C-55 25.34 -55 24.68 -55 24 C-55.99 24 -56.98 24 -58 24 C-58 23.34 -58 22.68 -58 22 C-59.98 21.34 -61.96 20.68 -64 20 C-64 19.34 -64 18.68 -64 18 C-66.31 17.34 -68.62 16.68 -71 16 C-71 14.68 -71 13.36 -71 12 C-67.7 12 -64.4 12 -61 12 C-61.185625 11.05125 -61.37125 10.1025 -61.5625 9.125 C-62 6 -62 6 -61 4 C-59.68 4 -58.36 4 -57 4 C-56 5 -55 6 -54 7 C-51.39388923 7.72197162 -51.39388923 7.72197162 -49 8 C-49 8.66 -49 9.32 -49 10 C-48.34 10 -47.68 10 -47 10 C-47 10.66 -47 11.32 -47 12 C-46.34 12 -45.68 12 -45 12 C-45 12.66 -45 13.32 -45 14 C-44.34 14 -43.68 14 -43 14 C-43 14.66 -43 15.32 -43 16 C-42.071875 16.28875 -41.14375 16.5775 -40.1875 16.875 C-37 18 -37 18 -34 20 C-34 20.66 -34 21.32 -34 22 C-32.7090864 22.33623796 -31.41723903 22.66889249 -30.125 23 C-29.40570313 23.185625 -28.68640625 23.37125 -27.9453125 23.5625 C-26.00710683 24.07313965 -26.00710683 24.07313965 -24 24 C-22.74783552 22.55012534 -21.50055213 21.09508259 -20.30078125 19.6015625 C-18.65775669 17.57861935 -16.94065076 15.73989379 -15 14 C-14.34 14 -13.68 14 -13 14 C-13 13.34 -13 12.68 -13 12 C-12.34 12 -11.68 12 -11 12 C-11 11.34 -11 10.68 -11 10 C-9.35 9.34 -7.7 8.68 -6 8 C-6 7.34 -6 6.68 -6 6 C-4.34997172 4.64613064 -2.6825613 3.31321858 -1 2 C-0.67 1.34 -0.34 0.68 0 0 Z M-53 12 C-52.34414811 15.60992379 -52.34414811 15.60992379 -51 19 C-50.34 18.67 -49.68 18.34 -49 18 C-49.99 16.02 -50.98 14.04 -52 12 C-52.33 12 -52.66 12 -53 12 Z M10 22 C11 24 11 24 11 24 Z M-49 28 C-48.67 28.66 -48.34 29.32 -48 30 C-47.34 29.67 -46.68 29.34 -46 29 C-46.99 28.67 -47.98 28.34 -49 28 Z M-25 30 C-23.02 30.99 -23.02 30.99 -21 32 C-21 31.34 -21 30.68 -21 30 C-22.32 30 -23.64 30 -25 30 Z M-33 32 C-33 32.33 -33 32.66 -33 33 C-30.08347826 33.16681109 -30.08347826 33.16681109 -27 33 C-26.34 32.34 -25.68 31.68 -25 31 C-27.83967231 31 -30.23735711 31.40267181 -33 32 Z M-42 42 C-38 43 -38 43 -38 43 Z " fill="#1A1A1A" transform="translate(149,111)"/>
<path d="M0 0 C0.66 0 1.32 0 2 0 C3.41867401 2.18304578 4.71941953 4.36241143 6 6.625 C12.97016218 18.50714451 20.26423128 28.91308929 30.44213867 38.29516602 C35.78215402 43.32066824 35.78215402 43.32066824 36 48 C35.01 48.495 35.01 48.495 34 49 C33.608125 48.505 33.21625 48.01 32.8125 47.5 C30.44908285 45.54406857 28.98564997 45.75792027 26 46 C26.103125 47.27875 26.20625 48.5575 26.3125 49.875 C26.37050781 50.59429687 26.42851562 51.31359375 26.48828125 52.0546875 C26.87393036 54.39519216 26.87393036 54.39519216 30 56 C30.42375026 58.3194751 30.43875379 60.55148898 30.49609375 62.90625 C31.08988267 66.55183781 32.33642806 69.56755368 33.75415039 72.96679688 C35.20229244 76.49251055 36.54490082 80.05363749 37.875 83.625 C38.1283461 84.30300659 38.3816922 84.98101318 38.64271545 85.67956543 C39.69373085 88.49347015 40.74227988 91.30829191 41.79101562 94.12304688 C42.56806349 96.2073862 43.34629783 98.29127821 44.125 100.375 C44.4972168 101.37333862 44.4972168 101.37333862 44.87695312 102.3918457 C46.60135969 106.99658605 48.41886096 111.55430169 50.3359375 116.08203125 C51 118 51 118 51 121 C53.16804899 120.08649621 55.33456191 119.16965977 57.5 118.25 C58.1405835 117.97921631 58.78116699 117.70843262 59.44116211 117.42944336 C62.90788321 115.94934422 66.25949016 114.37629153 69.5625 112.5625 C73 111 73 111 78 112 C78 115.96 78 119.92 78 124 C76.515 123.505 76.515 123.505 75 123 C72.8817921 123.23769206 72.8817921 123.23769206 71 124 C70.67 124.66 70.34 125.32 70 126 C68.02 125.505 68.02 125.505 66 125 C66.99 123.02 66.99 123.02 68 121 C63.6961026 121 61.62544087 121.83145913 57.73046875 123.5546875 C57.131241 123.81629669 56.53201324 124.07790588 55.91462708 124.34744263 C54.00248475 125.18310065 52.09475058 126.0282434 50.1875 126.875 C48.29056395 127.71362506 46.39273167 128.5499837 44.49250793 129.38113403 C42.75992968 130.13943859 41.03062351 130.90520635 39.30151367 131.67138672 C35.88826405 133.04496539 32.55052299 134.05143206 29 135 C28.67 134.01 28.34 133.02 28 132 C33.61 129.36 39.22 126.72 45 124 C44.34644531 122.47503906 43.69289062 120.95007813 43.01953125 119.37890625 C39.37855971 110.63672167 36.08942608 101.76231906 32.78686523 92.88793945 C31.67760214 89.91093644 30.56059837 86.93690813 29.44335938 83.96289062 C28.73650711 82.06788435 28.03010997 80.17270823 27.32421875 78.27734375 C26.82277596 76.94617775 26.82277596 76.94617775 26.311203 75.58811951 C26.00700943 74.76618607 25.70281586 73.94425262 25.3894043 73.09741211 C25.12024704 72.37637802 24.85108978 71.65534393 24.57377625 70.91246033 C24 69 24 69 24 66 C23.01 66 22.02 66 21 66 C21 65.01 21 64.02 21 63 C21.99 62.34 22.98 61.68 24 61 C21.03 61.495 21.03 61.495 18 62 C18.226875 61.0925 18.45375 60.185 18.6875 59.25 C19.26372309 56.06507577 19.26372309 56.06507577 17.9375 53.625 C16.01831681 51.70557333 16.01831681 51.70557333 12.875 51.6875 C10.10649557 51.68465212 10.10649557 51.68465212 9 53 C8.95919217 54.99958364 8.95745644 57.00045254 9 59 C7.0625 58.4375 7.0625 58.4375 5 57 C3.50514487 50.46115517 4.01082575 43.790095 4.125 37.125 C4.22893508 26.32520049 3.36476651 16.52504886 1 6 C0.65383212 4.00218146 0.31591276 2.00282556 0 0 Z M74 119 C75 121 75 121 75 121 Z M72 120 C73 123 73 123 73 123 Z " fill="#171717" transform="translate(0,18)"/>
<path d="M0 0 C0.98484375 0.00902344 1.9696875 0.01804687 2.984375 0.02734375 C4.10585937 0.04474609 4.10585937 0.04474609 5.25 0.0625 C6.375 3.8125 6.375 3.8125 5.25 6.0625 C5.91 5.7325 6.57 5.4025 7.25 5.0625 C9.5829866 5.02227609 11.91706666 5.01929753 14.25 5.0625 C14.58 3.4125 14.91 1.7625 15.25 0.0625 C23.40475474 -0.370922 30.42683695 0.76879774 38.25 3.0625 C38.25 4.3825 38.25 5.7025 38.25 7.0625 C38.5481424 8.40414079 38.87243192 9.74101173 39.25 11.0625 C37.6 11.0625 35.95 11.0625 34.25 11.0625 C34.25 10.4025 34.25 9.7425 34.25 9.0625 C33.49074219 9.00191406 32.73148438 8.94132812 31.94921875 8.87890625 C30.95535156 8.79511719 29.96148437 8.71132812 28.9375 8.625 C27.95136719 8.54378906 26.96523437 8.46257812 25.94921875 8.37890625 C23.25 8.0625 23.25 8.0625 20.25 7.0625 C20.25 7.7225 20.25 8.3825 20.25 9.0625 C22.89 9.0625 25.53 9.0625 28.25 9.0625 C26.79345589 11.97558822 24.89612352 12.11702316 21.875 13.1875 C20.89789063 13.54070312 19.92078125 13.89390625 18.9140625 14.2578125 C16.25 15.0625 16.25 15.0625 13.25 15.0625 C14.54144978 18.06242729 14.54144978 18.06242729 16.25 21.0625 C20.55551154 22.49767051 23.27238303 20.9816615 27.25 19.0625 C30.15495532 17.02550095 30.15495532 17.02550095 32.25 15.0625 C32.93946314 19.56316214 33.37500527 23.4803758 30.64453125 27.3203125 C29.95746094 28.06023437 29.27039063 28.80015625 28.5625 29.5625 C23.80127896 34.82003207 22.43422044 40.15131622 20.88598633 46.90625 C20.62338013 48.03353516 20.62338013 48.03353516 20.35546875 49.18359375 C20.21262451 49.8583374 20.06978027 50.53308105 19.92260742 51.22827148 C19.08764891 53.50523819 18.15022353 54.56416666 16.25 56.0625 C11.32372179 57.27387989 9.42056581 57.66946005 4.875 55.3125 C2.32058824 53.1230042 0.47491092 51.50591566 -0.05859375 48.08203125 C-0.10113281 47.35371094 -0.14367187 46.62539062 -0.1875 45.875 C-0.75684639 39.94993756 -1.71759173 34.8470536 -6.3125 30.8125 C-7.116875 30.235 -7.92125 29.6575 -8.75 29.0625 C-9.41 27.7425 -10.07 26.4225 -10.75 25.0625 C-11.41 32.3225 -12.07 39.5825 -12.75 47.0625 C-13.74 46.7325 -14.73 46.4025 -15.75 46.0625 C-15.28916006 37.41439734 -14.82007967 28.76668396 -14.25 20.125 C-14.1778125 19.02285156 -14.105625 17.92070313 -14.03125 16.78515625 C-13.75 14.0625 -13.75 14.0625 -12.75 11.0625 C-12.09 11.0625 -11.43 11.0625 -10.75 11.0625 C-10.42 13.0425 -10.09 15.0225 -9.75 17.0625 C-9.09 16.7325 -8.43 16.4025 -7.75 16.0625 C-7.110625 16.8875 -6.47125 17.7125 -5.8125 18.5625 C-1.72615535 21.89829155 1.17872936 21.5596834 6.25 21.0625 C6.91 19.0825 7.57 17.1025 8.25 15.0625 C7.58613281 14.94132812 6.92226562 14.82015625 6.23828125 14.6953125 C1.71575541 13.83702292 -2.54938524 13.02278689 -6.75 11.0625 C-6.75 10.4025 -6.75 9.7425 -6.75 9.0625 C-4.00034772 8.86738275 -1.25057868 8.68113567 1.5 8.5 C2.27730469 8.44392578 3.05460937 8.38785156 3.85546875 8.33007812 C4.60957031 8.28173828 5.36367187 8.23339844 6.140625 8.18359375 C6.83188477 8.1364624 7.52314453 8.08933105 8.23535156 8.04077148 C10.38617072 8.06396864 12.19084871 8.4629236 14.25 9.0625 C14.25 8.4025 14.25 7.7425 14.25 7.0625 C3.4296932 7.58429144 -7.22056462 8.30713373 -17.75 11.0625 C-17.75 8.7525 -17.75 6.4425 -17.75 4.0625 C-16.50108386 3.58051537 -15.25081192 3.10204323 -14 2.625 C-13.30390625 2.35816406 -12.6078125 2.09132813 -11.890625 1.81640625 C-7.78912429 0.37189961 -4.36847278 -0.05200563 0 0 Z M-6.875 2.375 C-8.11507812 2.63925781 -9.35515625 2.90351562 -10.6328125 3.17578125 C-13.82147833 3.8095412 -13.82147833 3.8095412 -15.75 6.0625 C-8.99289769 5.0038873 -2.35675438 3.84124156 4.25 2.0625 C0.32118237 0.59166124 -2.86318415 1.49139546 -6.875 2.375 Z M19.25 2.0625 C19.25 2.3925 19.25 2.7225 19.25 3.0625 C20.81116819 3.40201619 22.37401338 3.73382544 23.9375 4.0625 C25.24267578 4.3409375 25.24267578 4.3409375 26.57421875 4.625 C29.18712964 5.05222047 31.60813038 5.13866201 34.25 5.0625 C31.58684806 2.39934806 29.59655932 2.11823507 25.890625 1.96484375 C24.70726562 1.98224609 24.70726562 1.98224609 23.5 2 C22.30117187 2.01353516 22.30117187 2.01353516 21.078125 2.02734375 C20.17320313 2.04474609 20.17320313 2.04474609 19.25 2.0625 Z M7.25 23.0625 C8.25 26.0625 8.25 26.0625 8.25 26.0625 Z M12.25 24.0625 C12.04029441 28.20343698 12.04029441 28.20343698 13.25 32.0625 C13.91 32.0625 14.57 32.0625 15.25 32.0625 C14.99438677 29.7193787 14.65729228 27.38406597 14.25 25.0625 C13.59 24.7325 12.93 24.4025 12.25 24.0625 Z M6.25 27.0625 C6.25 28.7125 6.25 30.3625 6.25 32.0625 C6.91 30.7425 7.57 29.4225 8.25 28.0625 C7.59 27.7325 6.93 27.4025 6.25 27.0625 Z " fill="#0E0E0E" transform="translate(106.75,64.9375)"/>
<path d="M0 0 C0.66 0 1.32 0 2 0 C6 5.29411765 6 5.29411765 6 9 C6.66 9 7.32 9 8 9 C7.34 10.32 6.68 11.64 6 13 C6.99 12.67 7.98 12.34 9 12 C13.92788061 12.28159318 18.24487168 14.92460793 22 18 C22.99 19.98 22.99 19.98 24 22 C24 19.03 24 16.06 24 13 C27 13 27 13 30 15 C30.33 13.68 30.66 12.36 31 11 C31.99 11 32.98 11 34 11 C33.896875 12.093125 33.79375 13.18625 33.6875 14.3125 C33.790625 15.529375 33.89375 16.74625 34 18 C36.28643812 19.77195874 36.28643812 19.77195874 39 21 C41.13612532 23.2887057 41.92937123 24.5055986 42.375 27.625 C42.58125 28.40875 42.7875 29.1925 43 30 C45.47636012 31.37466625 45.47636012 31.37466625 48 32 C48 34 48 34 46.625 35.625 C45 37 45 37 43 37 C43 37.99 43 38.98 43 40 C41.02 39.67 39.04 39.34 37 39 C32.67485375 44.96168808 31.05496596 50.09171849 29.7734375 57.33984375 C29.39058594 58.65662109 29.39058594 58.65662109 29 60 C27.515 60.495 27.515 60.495 26 61 C25.04351419 51.43514193 28.96826632 45.03976507 33.8046875 37 C37.29710281 31.53392632 37.29710281 31.53392632 37.375 25.3125 C36.92125 24.549375 36.4675 23.78625 36 23 C31.70761377 24.65091778 29.1206085 27.73754566 26 31 C24.125 30.4375 24.125 30.4375 22 29 C20.75 25.375 20.75 25.375 20 22 C18.35 22 16.7 22 15 22 C14.34 20.35 13.68 18.7 13 17 C9.04 17.495 9.04 17.495 5 18 C4.67 20.31 4.34 22.62 4 25 C4.61875 24.2265625 4.61875 24.2265625 5.25 23.4375 C5.8275 22.963125 6.405 22.48875 7 22 C9.1875 22.3125 9.1875 22.3125 11 23 C11 24.65 11 26.3 11 28 C10.01 28.33 9.02 28.66 8 29 C8 28.01 8 27.02 8 26 C4.50586395 28.86698342 2.71163126 30.84150148 2.1875 35.3125 C2.0946875 37.1378125 2.0946875 37.1378125 2 39 C1.01 38.67 0.02 38.34 -1 38 C-1.1546875 36.3603125 -1.1546875 36.3603125 -1.3125 34.6875 C-1.99727202 31.01463192 -2.27919304 30.24762314 -5 28 C-5 27.34 -5 26.68 -5 26 C-5.66 26 -6.32 26 -7 26 C-7 26.66 -7 27.32 -7 28 C-7.99 28 -8.98 28 -10 28 C-10 26.35 -10 24.7 -10 23 C-7.69 23 -5.38 23 -3 23 C-3.33 21.35 -3.66 19.7 -4 18 C-6.85778033 17.31506627 -6.85778033 17.31506627 -10 17 C-13.24849977 18.72226496 -13.24849977 18.72226496 -14 22 C-15.65 22 -17.3 22 -19 22 C-19.33 24.97 -19.66 27.94 -20 31 C-23.73487777 30.5020163 -25.81237635 30.12508244 -29 28 C-29.33 27.01 -29.66 26.02 -30 25 C-32.31 24.67 -34.62 24.34 -37 24 C-36.67 27.3 -36.34 30.6 -36 34 C-35.34 34 -34.68 34 -34 34 C-32.56805405 36.03753976 -31.27110673 38.05286967 -30 40.1875 C-29.64421875 40.76564453 -29.2884375 41.34378906 -28.921875 41.93945312 C-25.03784511 48.35245023 -23.63632382 52.60525095 -24 60 C-24.33 60.66 -24.66 61.32 -25 62 C-25.66 62 -26.32 62 -27 62 C-27.21914062 60.94941406 -27.43828125 59.89882813 -27.6640625 58.81640625 C-29.50485262 50.50316055 -31.42522623 43.68972853 -37 37 C-37.33 37.99 -37.66 38.98 -38 40 C-39.32 40 -40.64 40 -42 40 C-42.33 39.34 -42.66 38.68 -43 38 C-43.515625 37.360625 -44.03125 36.72125 -44.5625 36.0625 C-46 34 -46 34 -46 31 C-44.35 30.67 -42.7 30.34 -41 30 C-40.89042969 29.37351562 -40.78085938 28.74703125 -40.66796875 28.1015625 C-40.50941406 27.28429687 -40.35085937 26.46703125 -40.1875 25.625 C-40.03667969 24.81289063 -39.88585937 24.00078125 -39.73046875 23.1640625 C-39 21 -39 21 -36 19 C-34.34450469 18.61500109 -32.6777567 18.27206865 -31 18 C-31.66 17.01 -32.32 16.02 -33 15 C-32.67 14.01 -32.34 13.02 -32 12 C-30.0625 12.375 -30.0625 12.375 -28 13 C-27.67 13.66 -27.34 14.32 -27 15 C-25.68 14.34 -24.36 13.68 -23 13 C-23 15.64 -23 18.28 -23 21 C-22.54109375 20.60167969 -22.0821875 20.20335938 -21.609375 19.79296875 C-20.34553259 18.70170987 -19.07575415 17.6172961 -17.80078125 16.5390625 C-16.48382006 15.41350348 -15.20016904 14.24864365 -13.9375 13.0625 C-11.08906752 11.50045638 -9.06495097 12.25078976 -6 13 C-5.67 13 -5.34 13 -5 13 C-5.66 12.01 -6.32 11.02 -7 10 C-5.68 9.67 -4.36 9.34 -3 9 C-3.495 7.515 -3.495 7.515 -4 6 C-2.1875 2.8125 -2.1875 2.8125 0 0 Z M-2 11 C-1 13 -1 13 -1 13 Z M-26 26 C-25 28 -25 28 -25 28 Z M-40 31 C-39 33 -39 33 -39 33 Z " fill="#292929" transform="translate(117,4)"/>
<path d="M0 0 C0.66 1.32 1.32 2.64 2 4 C2.66 4 3.32 4 4 4 C6.44563344 9.70647802 7.42801938 13.79371906 7 20 C6.67 20.66 6.34 21.32 6 22 C7.97736066 37.03789779 12.4987351 50.90484311 20 64 C25.4346472 74.11803434 26.35462159 84.72567282 25.8125 96.0625 C25.78260986 96.77664063 25.75271973 97.49078125 25.72192383 98.2265625 C25.42791533 102.55305404 24.62278106 105.52329023 22 109 C21.67 109 21.34 109 21 109 C20.90203125 108.12859375 20.8040625 107.2571875 20.703125 106.359375 C19.16503374 94.10768259 15.67571917 84.09909184 10.07714844 73.21240234 C0.29864546 53.98865069 -1.37388096 37.36303434 0 16 C-0.66 16 -1.32 16 -2 16 C-2 15.34 -2 14.68 -2 14 C-1.34 14 -0.68 14 0 14 C0.077357 9.43593679 -0.05115281 5.47313676 -1 1 C-0.67 0.67 -0.34 0.34 0 0 Z M1 8 C2 10 2 10 2 10 Z " fill="#1D1D1D" transform="translate(196,163)"/>
<path d="M0 0 C1 1 1 1 1.0625 4.5625 C1.041875 5.696875 1.02125 6.83125 1 8 C2.35439668 5.29120665 2.06501451 2.99066732 2 0 C3.75 -0.75 3.75 -0.75 6 -1 C8.3125 0.625 8.3125 0.625 10 3 C9.9375 5.625 9.9375 5.625 9 8 C8.01 8.66 7.02 9.32 6 10 C6.33 11.65 6.66 13.3 7 15 C5.35 15.33 3.7 15.66 2 16 C3.2065625 16.309375 3.2065625 16.309375 4.4375 16.625 C5.283125 17.07875 6.12875 17.5325 7 18 C7.8125 21.125 7.8125 21.125 8 24 C6.02 24.33 4.04 24.66 2 25 C2.78375 24.95875 3.5675 24.9175 4.375 24.875 C7 25 7 25 9 27 C8.8984375 28.99609375 8.8984375 28.99609375 8 31 C6.0390625 32.16015625 6.0390625 32.16015625 3.625 33.0625 C0.33419162 34.3112921 -1.57581403 35.47221634 -4 38 C-6.5625 38.8125 -6.5625 38.8125 -9 39 C-9.66 38.34 -10.32 37.68 -11 37 C-11.66 37 -12.32 37 -13 37 C-12.34 34.69 -11.68 32.38 -11 30 C-12.65 29.01 -14.3 28.02 -16 27 C-14.125 22.25 -14.125 22.25 -13 20 C-13.928125 20.309375 -13.928125 20.309375 -14.875 20.625 C-15.57625 20.74875 -16.2775 20.8725 -17 21 C-17.66 20.34 -18.32 19.68 -19 19 C-18.97265625 17.109375 -18.97265625 17.109375 -18 15 C-15.49609375 13.078125 -15.49609375 13.078125 -12.4375 11.25 C-11.42558594 10.63640625 -10.41367187 10.0228125 -9.37109375 9.390625 C-8.58863281 8.93171875 -7.80617188 8.4728125 -7 8 C-11.87451861 8.64138403 -14.33409161 9.65755411 -18 13 C-19.5625 11.8125 -19.5625 11.8125 -21 10 C-21.0625 7.5625 -21.0625 7.5625 -20 5 C-14.68766807 0.35170956 -6.9276679 -2.38138584 0 0 Z M-11 18 C-11 18.66 -11 19.32 -11 20 C-8.03 19.34 -5.06 18.68 -2 18 C-2 17.67 -2 17.34 -2 17 C-6.65052872 16.73067479 -6.65052872 16.73067479 -11 18 Z M-10 28 C-9.01 28.495 -9.01 28.495 -8 29 C-6.68 28.01 -5.36 27.02 -4 26 C-7.18490007 25.7226499 -7.18490007 25.7226499 -10 28 Z " fill="#1C1C1C" transform="translate(61,146)"/>
<path d="M0 0 C1.9921875 0.81640625 1.9921875 0.81640625 3.046875 2.5390625 C3.31757812 3.31121094 3.58828125 4.08335938 3.8671875 4.87890625 C4.1971875 5.78511719 4.5271875 6.69132812 4.8671875 7.625 C5.2384375 8.67816406 5.6096875 9.73132813 5.9921875 10.81640625 C6.69524373 12.68789401 7.3985172 14.55930477 8.10644531 16.42895508 C9.68066964 20.59337456 11.2288303 24.76759322 12.78320312 28.93945312 C13.56025099 31.02379245 14.33848533 33.10768446 15.1171875 35.19140625 C15.36533203 35.85696533 15.61347656 36.52252441 15.86914062 37.20825195 C17.59354719 41.8129923 19.41104846 46.37070794 21.328125 50.8984375 C21.9921875 52.81640625 21.9921875 52.81640625 21.9921875 55.81640625 C24.16023649 54.90290246 26.32674941 53.98606602 28.4921875 53.06640625 C29.132771 52.79562256 29.77335449 52.52483887 30.43334961 52.24584961 C33.90007071 50.76575047 37.25167766 49.19269778 40.5546875 47.37890625 C43.9921875 45.81640625 43.9921875 45.81640625 48.9921875 46.81640625 C48.9921875 50.77640625 48.9921875 54.73640625 48.9921875 58.81640625 C48.0021875 58.48640625 47.0121875 58.15640625 45.9921875 57.81640625 C43.8739796 58.05409831 43.8739796 58.05409831 41.9921875 58.81640625 C41.4971875 59.80640625 41.4971875 59.80640625 40.9921875 60.81640625 C39.6721875 60.48640625 38.3521875 60.15640625 36.9921875 59.81640625 C37.6521875 58.49640625 38.3121875 57.17640625 38.9921875 55.81640625 C34.6882901 55.81640625 32.61762837 56.64786538 28.72265625 58.37109375 C28.1234285 58.63270294 27.52420074 58.89431213 26.90681458 59.16384888 C24.99467225 59.9995069 23.08693808 60.84464965 21.1796875 61.69140625 C19.28275145 62.53003131 17.38491917 63.36638995 15.48469543 64.19754028 C13.75211718 64.95584484 12.02281101 65.7216126 10.29370117 66.48779297 C6.88045155 67.86137164 3.54271049 68.86783831 -0.0078125 69.81640625 C-0.3378125 68.82640625 -0.6678125 67.83640625 -1.0078125 66.81640625 C4.6021875 64.17640625 10.2121875 61.53640625 15.9921875 58.81640625 C15.01378906 56.52896484 15.01378906 56.52896484 14.015625 54.1953125 C10.37318874 45.44652506 7.04537449 36.57908517 3.72412109 27.7043457 C2.97953891 25.71972379 2.23076522 23.7366699 1.47802734 21.75512695 C0.38260261 18.87129714 -0.70070239 15.98318173 -1.78125 13.09375 C-2.12070648 12.206306 -2.46016296 11.318862 -2.80990601 10.40452576 C-3.11417511 9.58259232 -3.41844421 8.76065887 -3.73193359 7.91381836 C-4.00331146 7.19278427 -4.27468933 6.47175018 -4.55429077 5.72886658 C-5.0078125 3.81640625 -5.0078125 3.81640625 -4.0078125 0.81640625 C-2.0078125 -0.18359375 -2.0078125 -0.18359375 0 0 Z M44.9921875 53.81640625 C45.9921875 55.81640625 45.9921875 55.81640625 45.9921875 55.81640625 Z M42.9921875 54.81640625 C43.9921875 57.81640625 43.9921875 57.81640625 43.9921875 57.81640625 Z " fill="#161616" transform="translate(29.0078125,83.18359375)"/>
<path d="M0 0 C2.77082834 2.77082834 2.53096421 5.18070857 3 9 C3.66229729 12.0895946 3.66229729 12.0895946 5.9375 13.125 C6.9584375 13.558125 6.9584375 13.558125 8 14 C8.66 14.33 9.32 14.66 10 15 C10 15.66 10 16.32 10 17 C9.15695313 17.82757813 9.15695313 17.82757813 8.296875 18.671875 C5.42025811 21.58762954 3.41020833 24.78803746 1.25 28.25 C0.83878906 28.8996875 0.42757812 29.549375 0.00390625 30.21875 C-1.00205086 31.8095659 -2.00167362 33.40438433 -3 35 C-3.66 34.67 -4.32 34.34 -5 34 C-7.97 40.27 -10.94 46.54 -14 53 C-17 52 -17 52 -18.25 50.4375 C-20.05367513 44.57555583 -18.04917867 39.73819642 -15.4375 34.5 C-14.63671739 32.99371203 -13.82820753 31.49138477 -13 30 C-15.48889248 33.56741255 -17.54955729 36.89041233 -19 41 C-19.66 40.67 -20.32 40.34 -21 40 C-21.51953125 37.70703125 -21.51953125 37.70703125 -21.8125 34.8125 C-21.92207031 33.87019531 -22.03164063 32.92789063 -22.14453125 31.95703125 C-21.82005945 25.31851357 -17.64854343 21.24069169 -13.25 16.75 C-8.25317771 11.51181091 -3.91670457 6.10950748 0 0 Z M-3 8 C-2 10 -2 10 -2 10 Z M-1 11 C-1 12.65 -1 14.3 -1 16 C-0.34 15.67 0.32 15.34 1 15 C0.34 13.68 -0.32 12.36 -1 11 Z M-7 14 C-6 16 -6 16 -6 16 Z M4 15 C2.96953278 16.78614318 1.95086764 18.57910018 0.9375 20.375 C0.36902344 21.37273437 -0.19945313 22.37046875 -0.78515625 23.3984375 C-1.18605469 24.25695312 -1.58695313 25.11546875 -2 26 C-1.67 26.66 -1.34 27.32 -1 28 C0.33905267 26.2126038 1.67109066 24.41995047 3 22.625 C3.7425 21.62726563 4.485 20.62953125 5.25 19.6015625 C7.1860485 17.24598283 7.1860485 17.24598283 7 15 C6.01 15 5.02 15 4 15 Z M-11 26 C-10 28 -10 28 -10 28 Z M-3 28 C-3.33 29.32 -3.66 30.64 -4 32 C-3.34 31.67 -2.68 31.34 -2 31 C-2.33 30.01 -2.66 29.02 -3 28 Z " fill="#141414" transform="translate(37,177)"/>
<path d="M0 0 C0.99 0 1.98 0 3 0 C2.896875 1.093125 2.79375 2.18625 2.6875 3.3125 C2.8421875 5.1378125 2.8421875 5.1378125 3 7 C5.28643812 8.77195874 5.28643812 8.77195874 8 10 C10.13612532 12.2887057 10.92937123 13.5055986 11.375 16.625 C11.58125 17.40875 11.7875 18.1925 12 19 C14.47636012 20.37466625 14.47636012 20.37466625 17 21 C17 23 17 23 15.625 24.625 C14 26 14 26 12 26 C12 26.99 12 27.98 12 29 C10.02 28.67 8.04 28.34 6 28 C1.67485375 33.96168808 0.05496596 39.09171849 -1.2265625 46.33984375 C-1.60941406 47.65662109 -1.60941406 47.65662109 -2 49 C-2.99 49.33 -3.98 49.66 -5 50 C-5.95648581 40.43514193 -2.03173368 34.03976507 2.8046875 26 C6.29710281 20.53392632 6.29710281 20.53392632 6.375 14.3125 C5.694375 13.1678125 5.694375 13.1678125 5 12 C0.70761377 13.65091778 -1.8793915 16.73754566 -5 20 C-6.875 19.4375 -6.875 19.4375 -9 18 C-10.25 14.375 -10.25 14.375 -11 11 C-12.65 11 -14.3 11 -16 11 C-16.66 9.35 -17.32 7.7 -18 6 C-20.64 6.33 -23.28 6.66 -26 7 C-26.33 9.31 -26.66 11.62 -27 14 C-26.5875 13.484375 -26.175 12.96875 -25.75 12.4375 C-25.1725 11.963125 -24.595 11.48875 -24 11 C-21.8125 11.3125 -21.8125 11.3125 -20 12 C-20 13.65 -20 15.3 -20 17 C-20.99 17.33 -21.98 17.66 -23 18 C-23 17.01 -23 16.02 -23 15 C-26.49413605 17.86698342 -28.28836874 19.84150148 -28.8125 24.3125 C-28.874375 25.529375 -28.93625 26.74625 -29 28 C-29.99 27.67 -30.98 27.34 -32 27 C-32.103125 25.906875 -32.20625 24.81375 -32.3125 23.6875 C-32.99727202 20.01463192 -33.27919304 19.24762314 -36 17 C-36 16.34 -36 15.68 -36 15 C-36.66 15 -37.32 15 -38 15 C-38 15.66 -38 16.32 -38 17 C-38.99 17 -39.98 17 -41 17 C-41 15.35 -41 13.7 -41 12 C-36.72656908 11.63370592 -34.51187196 12.59185923 -31 15 C-30.86722656 14.39671875 -30.73445313 13.7934375 -30.59765625 13.171875 C-30.42105469 12.37265625 -30.24445313 11.5734375 -30.0625 10.75 C-29.88847656 9.96109375 -29.71445313 9.1721875 -29.53515625 8.359375 C-29.35855469 7.58078125 -29.18195313 6.8021875 -29 6 C-28.85433594 5.26265625 -28.70867187 4.5253125 -28.55859375 3.765625 C-28.37425781 3.18296875 -28.18992187 2.6003125 -28 2 C-27.34 1.67 -26.68 1.34 -26 1 C-25.67 1.66 -25.34 2.32 -25 3 C-24.01 2.34 -23.02 1.68 -22 1 C-17.12892741 1.1391735 -12.69427152 3.97444871 -9 7 C-8.34 8.32 -7.68 9.64 -7 11 C-7 8.03 -7 5.06 -7 2 C-4 2 -4 2 -1 4 C-0.67 2.68 -0.34 1.36 0 0 Z " fill="#262626" transform="translate(148,15)"/>
<path d="M0 0 C0.98484375 0.00902344 1.9696875 0.01804687 2.984375 0.02734375 C4.10585937 0.04474609 4.10585937 0.04474609 5.25 0.0625 C6.375 3.8125 6.375 3.8125 5.25 6.0625 C5.91 5.7325 6.57 5.4025 7.25 5.0625 C9.5829866 5.02227609 11.91706666 5.01929753 14.25 5.0625 C14.58 3.4125 14.91 1.7625 15.25 0.0625 C23.40475474 -0.370922 30.42683695 0.76879774 38.25 3.0625 C38.25 4.3825 38.25 5.7025 38.25 7.0625 C38.5481424 8.40414079 38.87243192 9.74101173 39.25 11.0625 C37.6 11.0625 35.95 11.0625 34.25 11.0625 C34.25 10.4025 34.25 9.7425 34.25 9.0625 C33.49074219 9.00191406 32.73148438 8.94132812 31.94921875 8.87890625 C30.95535156 8.79511719 29.96148437 8.71132812 28.9375 8.625 C27.95136719 8.54378906 26.96523437 8.46257812 25.94921875 8.37890625 C23.25 8.0625 23.25 8.0625 20.25 7.0625 C20.25 7.7225 20.25 8.3825 20.25 9.0625 C18.27 9.0625 16.29 9.0625 14.25 9.0625 C14.25 8.4025 14.25 7.7425 14.25 7.0625 C3.4296932 7.58429144 -7.22056462 8.30713373 -17.75 11.0625 C-17.75 8.7525 -17.75 6.4425 -17.75 4.0625 C-16.50108386 3.58051537 -15.25081192 3.10204323 -14 2.625 C-13.30390625 2.35816406 -12.6078125 2.09132813 -11.890625 1.81640625 C-7.78912429 0.37189961 -4.36847278 -0.05200563 0 0 Z M-6.875 2.375 C-8.11507812 2.63925781 -9.35515625 2.90351562 -10.6328125 3.17578125 C-13.82147833 3.8095412 -13.82147833 3.8095412 -15.75 6.0625 C-8.99289769 5.0038873 -2.35675438 3.84124156 4.25 2.0625 C0.32118237 0.59166124 -2.86318415 1.49139546 -6.875 2.375 Z M19.25 2.0625 C19.25 2.3925 19.25 2.7225 19.25 3.0625 C20.81116819 3.40201619 22.37401338 3.73382544 23.9375 4.0625 C25.24267578 4.3409375 25.24267578 4.3409375 26.57421875 4.625 C29.18712964 5.05222047 31.60813038 5.13866201 34.25 5.0625 C31.58684806 2.39934806 29.59655932 2.11823507 25.890625 1.96484375 C24.70726562 1.98224609 24.70726562 1.98224609 23.5 2 C22.30117187 2.01353516 22.30117187 2.01353516 21.078125 2.02734375 C20.17320313 2.04474609 20.17320313 2.04474609 19.25 2.0625 Z " fill="#303030" transform="translate(106.75,64.9375)"/>
<path d="M0 0 C1.9375 0.375 1.9375 0.375 4 1 C4.33 1.66 4.66 2.32 5 3 C6.32 2.34 7.64 1.68 9 1 C8.67 5.29 8.34 9.58 8 14 C5 13 5 13 4 12 C0.99668982 11.85806663 -1.99217134 11.95763622 -5 12 C-4.67 15.3 -4.34 18.6 -4 22 C-3.34 22 -2.68 22 -2 22 C-0.56805405 24.03753976 0.72889327 26.05286967 2 28.1875 C2.53367187 29.0547168 2.53367187 29.0547168 3.078125 29.93945312 C6.96215489 36.35245023 8.36367618 40.60525095 8 48 C7.67 48.66 7.34 49.32 7 50 C6.34 50 5.68 50 5 50 C4.78085938 48.94941406 4.56171875 47.89882813 4.3359375 46.81640625 C2.49514738 38.50316055 0.57477377 31.68972853 -5 25 C-5.33 25.99 -5.66 26.98 -6 28 C-7.32 28 -8.64 28 -10 28 C-10.33 27.34 -10.66 26.68 -11 26 C-11.7734375 25.0409375 -11.7734375 25.0409375 -12.5625 24.0625 C-14 22 -14 22 -14 19 C-12.35 18.67 -10.7 18.34 -9 18 C-8.89042969 17.37351562 -8.78085938 16.74703125 -8.66796875 16.1015625 C-8.50941406 15.28429688 -8.35085937 14.46703125 -8.1875 13.625 C-8.03667969 12.81289063 -7.88585937 12.00078125 -7.73046875 11.1640625 C-7 9 -7 9 -4 7 C-2.34450469 6.61500109 -0.6777567 6.27206865 1 6 C0.34 5.01 -0.32 4.02 -1 3 C-0.67 2.01 -0.34 1.02 0 0 Z M-8 19 C-7 21 -7 21 -7 21 Z " fill="#2A2A2A" transform="translate(85,16)"/>
<path d="M0 0 C0 3.96 0 7.92 0 12 C-0.99 11.67 -1.98 11.34 -3 11 C-5.1182079 11.23769206 -5.1182079 11.23769206 -7 12 C-7.33 12.66 -7.66 13.32 -8 14 C-9.32 13.67 -10.64 13.34 -12 13 C-11.34 11.68 -10.68 10.36 -10 9 C-14.3038974 9 -16.37455913 9.83145913 -20.26953125 11.5546875 C-20.868759 11.81629669 -21.46798676 12.07790588 -22.08537292 12.34744263 C-23.99751525 13.18310065 -25.90524942 14.0282434 -27.8125 14.875 C-29.70943605 15.71362506 -31.60726833 16.5499837 -33.50749207 17.38113403 C-35.24007032 18.13943859 -36.96937649 18.90520635 -38.69848633 19.67138672 C-42.11173595 21.04496539 -45.44947701 22.05143206 -49 23 C-49.33 22.01 -49.66 21.02 -50 20 C-48.83082031 19.45730469 -47.66164063 18.91460937 -46.45703125 18.35546875 C-44.90878763 17.63295506 -43.36061424 16.91029087 -41.8125 16.1875 C-41.04357422 15.83107422 -40.27464844 15.47464844 -39.48242188 15.10742188 C-36.36833615 13.65061783 -33.34572829 12.21035275 -30.40625 10.421875 C-27.30759232 8.59085001 -24.03882125 7.34185826 -20.6875 6.0625 C-16.46254934 4.4281085 -12.34946536 2.75111572 -8.375 0.5625 C-5 -1 -5 -1 0 0 Z M-4 7 C-3 9 -3 9 -3 9 Z M-6 8 C-5 11 -5 11 -5 11 Z " fill="#202020" transform="translate(78,130)"/>
<path d="M0 0 C0.66 0.66 1.32 1.32 2 2 C2.99 1.34 3.98 0.68 5 0 C9.87107259 0.1391735 14.30572848 2.97444871 18 6 C20.13073176 9.40240659 20.18123976 12.01272535 20 16 C20.99 16 21.98 16 23 16 C23.144375 15.21625 23.28875 14.4325 23.4375 13.625 C24 11 24 11 25 9 C26.98 9 28.96 9 31 9 C30.06409496 10.1055189 29.12620142 11.20935453 28.1875 12.3125 C27.40439453 13.23482422 27.40439453 13.23482422 26.60546875 14.17578125 C25.12827531 15.85424679 23.59960869 17.43882034 22 19 C20.125 18.4375 20.125 18.4375 18 17 C16.75 13.375 16.75 13.375 16 10 C14.35 10 12.7 10 11 10 C10.34 8.35 9.68 6.7 9 5 C6.36 5.33 3.72 5.66 1 6 C0.67 8.31 0.34 10.62 0 13 C0.4125 12.484375 0.825 11.96875 1.25 11.4375 C1.8275 10.963125 2.405 10.48875 3 10 C5.1875 10.3125 5.1875 10.3125 7 11 C7 12.65 7 14.3 7 16 C6.01 16.33 5.02 16.66 4 17 C4 16.01 4 15.02 4 14 C0.50586395 16.86698342 -1.28836874 18.84150148 -1.8125 23.3125 C-1.874375 24.529375 -1.93625 25.74625 -2 27 C-2.99 26.67 -3.98 26.34 -5 26 C-5.103125 24.906875 -5.20625 23.81375 -5.3125 22.6875 C-5.99727202 19.01463192 -6.27919304 18.24762314 -9 16 C-9 15.34 -9 14.68 -9 14 C-9.66 14 -10.32 14 -11 14 C-11 14.66 -11 15.32 -11 16 C-11.99 16 -12.98 16 -14 16 C-14 14.35 -14 12.7 -14 11 C-9.72656908 10.63370592 -7.51187196 11.59185923 -4 14 C-3.86722656 13.39671875 -3.73445313 12.7934375 -3.59765625 12.171875 C-3.42105469 11.37265625 -3.24445313 10.5734375 -3.0625 9.75 C-2.88847656 8.96109375 -2.71445313 8.1721875 -2.53515625 7.359375 C-2.35855469 6.58078125 -2.18195313 5.8021875 -2 5 C-1.83371094 4.26265625 -1.66742188 3.5253125 -1.49609375 2.765625 C-1 1 -1 1 0 0 Z " fill="#1A1A1A" transform="translate(121,16)"/>
<path d="M0 0 C-1.56953616 5.43233905 -4.06972766 10.12127388 -6.75 15.0625 C-10.78304815 22.5980089 -14.545745 30.17878035 -18 38 C-21 37 -21 37 -22.25 35.4375 C-23.74676481 30.57301437 -22.77827866 26.64051158 -20.66015625 22.17578125 C-19.1550256 19.41944175 -17.58647019 16.71004457 -16 14 C-15.67128906 13.28585938 -15.34257812 12.57171875 -15.00390625 11.8359375 C-13.87833496 9.77749973 -12.74183402 8.77287089 -10.875 7.375 C-9.92625 6.59125 -8.9775 5.8075 -8 5 C-8 4.34 -8 3.68 -8 3 C-5.04518508 0.25624329 -4.22528092 0 0 0 Z " fill="#141414" transform="translate(41,192)"/>
<path d="M0 0 C0.84820312 0.32742187 1.69640625 0.65484375 2.5703125 0.9921875 C6.20190011 2.05932828 9.10336301 2.20197218 12.875 2.125 C14.02742188 2.10695312 15.17984375 2.08890625 16.3671875 2.0703125 C17.23601562 2.04710937 18.10484375 2.02390625 19 2 C19 2.33 19 2.66 19 3 C4.79428307 5.66053132 -9.33273204 8.19794445 -23.75 9.375 C-24.77222656 9.45927246 -25.79445313 9.54354492 -26.84765625 9.63037109 C-32.05913795 10.00969921 -32.05913795 10.00969921 -34 10 C-35 9 -35 9 -35.0625 6.4375 C-35.041875 5.633125 -35.02125 4.82875 -35 4 C-30.9816087 3.08960927 -27.05863571 2.72714696 -22.94921875 2.46484375 C-22.29041214 2.42186661 -21.63160553 2.37888947 -20.95283508 2.33460999 C-18.86457818 2.19910146 -16.7760609 2.06823067 -14.6875 1.9375 C-13.26495418 1.84601014 -11.84242787 1.75421643 -10.41992188 1.66210938 C-6.94683335 1.43788997 -3.473496 1.21782672 0 1 C0 0.67 0 0.34 0 0 Z " fill="#323232" transform="translate(105,151)"/>
<path d="M0 0 C0.66 0 1.32 0 2 0 C2 0.66 2 1.32 2 2 C3.0209375 2.12375 3.0209375 2.12375 4.0625 2.25 C9.21909227 3.56657675 12.89465966 5.37883417 15.875 9.75 C17.20041386 13.57897337 17.65238783 16.96769887 18 21 C16.68 21 15.36 21 14 21 C13.34 18.36 12.68 15.72 12 13 C7.80837855 13.95264124 6.2792209 14.63260408 3.625 18.125 C3.08875 19.07375 2.5525 20.0225 2 21 C1 19 1 19 1 16 C0.68578929 13.99690671 0.3548954 11.99628664 0 10 C-0.99 11.98 -1.98 13.96 -3 16 C-3.33 16 -3.66 16 -4 16 C-4.36266924 10.19729221 -3.30512167 6.34788227 -1 1 C-0.67 0.67 -0.34 0.34 0 0 Z M1 2 C2 5 2 5 2 5 Z M4 11 C3.67 12.32 3.34 13.64 3 15 C3.66 13.68 4.32 12.36 5 11 C4.67 11 4.34 11 4 11 Z " fill="#222222" transform="translate(173,131)"/>
<path d="M0 0 C2.75 0.25 2.75 0.25 5 1 C5 2.32 5 3.64 5 5 C5.94392019 6.69905634 6.95650161 8.36021682 8 10 C9.37490339 12.64631943 10.69034993 15.32086813 12 18 C9.50365329 20.63382667 7.53079849 21.96659556 4 23 C1.6875 22.625 1.6875 22.625 0 22 C0.33 20.35 0.66 18.7 1 17 C0.34 16.67 -0.32 16.34 -1 16 C-1.34375 14.0390625 -1.34375 14.0390625 -1.5 11.625 C-1.72941463 8.10348536 -1.95292864 7.07060704 -4 4 C-2.3125 1.9375 -2.3125 1.9375 0 0 Z " fill="#393939" transform="translate(63,180)"/>
<path d="M0 0 C4.02634698 4.02634698 4.07460671 11.52298483 4.3125 17.0625 C3.98677026 21.16669472 3.01340025 24.50528414 1.734375 28.390625 C0.56826735 32.53402878 0.26427617 36.7169034 0 41 C-2 40 -2 40 -3.10546875 37.3203125 C-5.43062739 28.689811 -4.11967264 20.27355577 -1.734375 11.8125 C-0.70822632 7.88256887 -0.33685599 4.04227188 0 0 Z " fill="#2A2A2A" transform="translate(206,254)"/>
<path d="M0 0 C1.19947266 0.05220703 2.39894531 0.10441406 3.63476562 0.15820312 C6.56934343 0.28681012 9.50348521 0.42172092 12.4375 0.5625 C10.98095589 3.47558822 9.08362352 3.61702316 6.0625 4.6875 C4.59683594 5.21730469 4.59683594 5.21730469 3.1015625 5.7578125 C0.4375 6.5625 0.4375 6.5625 -2.5625 6.5625 C-2.8925 7.2225 -3.2225 7.8825 -3.5625 8.5625 C-3.5625 7.5725 -3.5625 6.5825 -3.5625 5.5625 C-4.5525 5.5625 -5.5425 5.5625 -6.5625 5.5625 C-6.8925 6.5525 -7.2225 7.5425 -7.5625 8.5625 C-7.5625 7.9025 -7.5625 7.2425 -7.5625 6.5625 C-8.22636719 6.44132812 -8.89023438 6.32015625 -9.57421875 6.1953125 C-14.09674459 5.33702292 -18.36188524 4.52278689 -22.5625 2.5625 C-22.5625 1.9025 -22.5625 1.2425 -22.5625 0.5625 C-14.95894962 -0.53533883 -7.66109121 -0.36885165 0 0 Z " fill="#282828" transform="translate(122.5625,73.4375)"/>
<path d="M0 0 C0.66 0 1.32 0 2 0 C2.33 2.31 2.66 4.62 3 7 C3.66 7 4.32 7 5 7 C6.36978501 10.09750602 7.71806572 13.20391657 9.0625 16.3125 C9.45244141 17.19357422 9.84238281 18.07464844 10.24414062 18.98242188 C10.60830078 19.82998047 10.97246094 20.67753906 11.34765625 21.55078125 C11.85824585 22.72120972 11.85824585 22.72120972 12.37915039 23.9152832 C13 26 13 26 12 29 C11.01 29.33 10.02 29.66 9 30 C7.35 24.72 5.7 19.44 4 14 C4.33 16.31 4.66 18.62 5 21 C5.06515057 23.64511313 5.08591426 26.29168825 5.0625 28.9375 C5.05573242 29.96327148 5.05573242 29.96327148 5.04882812 31.00976562 C5.0371956 32.67321604 5.01926694 34.3366205 5 36 C4.34 36 3.68 36 3 36 C1.64414404 24.00791473 0.58653426 12.05482249 0 0 Z " fill="#383838" transform="translate(140,77)"/>
<path d="M0 0 C2.77082834 2.77082834 2.53096421 5.18070857 3 9 C3.66229729 12.0895946 3.66229729 12.0895946 5.9375 13.125 C6.9584375 13.558125 6.9584375 13.558125 8 14 C8.66 14.33 9.32 14.66 10 15 C10 15.66 10 16.32 10 17 C9.15695313 17.82757813 9.15695313 17.82757813 8.296875 18.671875 C5.42025811 21.58762954 3.41020833 24.78803746 1.25 28.25 C0.83878906 28.8996875 0.42757812 29.549375 0.00390625 30.21875 C-1.00205086 31.8095659 -2.00167362 33.40438433 -3 35 C-3.495 33.515 -3.495 33.515 -4 32 C-2.64309132 29.55108889 -1.25766593 27.30448413 0.3125 25 C0.93801758 24.05640625 0.93801758 24.05640625 1.57617188 23.09375 C2.70807788 21.38957254 3.85345415 19.6943626 5 18 C5.66 17.01 6.32 16.02 7 15 C6.071875 15.061875 5.14375 15.12375 4.1875 15.1875 C1 15 1 15 -0.75 13.5625 C-1.1625 13.046875 -1.575 12.53125 -2 12 C-2.66 11.67 -3.32 11.34 -4 11 C-4.33 12.65 -4.66 14.3 -5 16 C-5.66 15.01 -6.32 14.02 -7 13 C-8.65 14.32 -10.3 15.64 -12 17 C-10.54434981 13.81350206 -8.74189282 11.23712991 -6.5625 8.5 C-4.33686303 5.69271708 -2.13703446 2.87552037 0 0 Z M-3 8 C-2 10 -2 10 -2 10 Z " fill="#393939" transform="translate(37,177)"/>
<path d="M0 0 C0.98484375 0.00902344 1.9696875 0.01804687 2.984375 0.02734375 C4.10585937 0.04474609 4.10585937 0.04474609 5.25 0.0625 C5.875 1.875 5.875 1.875 6.25 4.0625 C4.25 7.0625 4.25 7.0625 2.43408203 7.66259766 C1.71591309 7.76620605 0.99774414 7.86981445 0.2578125 7.9765625 C-0.52980469 8.09773438 -1.31742188 8.21890625 -2.12890625 8.34375 C-3.36447266 8.51390625 -3.36447266 8.51390625 -4.625 8.6875 C-6.24757981 8.92845182 -7.86998259 9.17059945 -9.4921875 9.4140625 C-10.2126123 9.51541504 -10.93303711 9.61676758 -11.67529297 9.72119141 C-13.73792792 10.06051403 -15.73020059 10.52726169 -17.75 11.0625 C-17.75 8.7525 -17.75 6.4425 -17.75 4.0625 C-16.50108386 3.58051537 -15.25081192 3.10204323 -14 2.625 C-13.30390625 2.35816406 -12.6078125 2.09132813 -11.890625 1.81640625 C-7.78912429 0.37189961 -4.36847278 -0.05200563 0 0 Z M-6.875 2.375 C-8.11507812 2.63925781 -9.35515625 2.90351562 -10.6328125 3.17578125 C-13.82147833 3.8095412 -13.82147833 3.8095412 -15.75 6.0625 C-8.99289769 5.0038873 -2.35675438 3.84124156 4.25 2.0625 C0.32118237 0.59166124 -2.86318415 1.49139546 -6.875 2.375 Z " fill="#303030" transform="translate(106.75,64.9375)"/>
<path d="M0 0 C0.66 0 1.32 0 2 0 C2.33 4.62 2.66 9.24 3 14 C2.67 14 2.34 14 2 14 C1.34 21.26 0.68 28.52 0 36 C-0.99 35.67 -1.98 35.34 -3 35 C-2.53916006 26.35189734 -2.07007967 17.70418396 -1.5 9.0625 C-1.4278125 7.96035156 -1.355625 6.85820313 -1.28125 5.72265625 C-1 3 -1 3 0 0 Z " fill="#505050" transform="translate(94,76)"/>
<path d="M0 0 C0.66 1.32 1.32 2.64 2 4 C2.66 4 3.32 4 4 4 C6.45029331 9.71735105 7.33266291 13.79029227 7 20 C6.01 20 5.02 20 4 20 C3.34 18.35 2.68 16.7 2 15 C1.67 17.31 1.34 19.62 1 22 C0.67 22 0.34 22 0 22 C0 20.02 0 18.04 0 16 C-0.66 16 -1.32 16 -2 16 C-2 15.34 -2 14.68 -2 14 C-1.34 14 -0.68 14 0 14 C0.077357 9.43593679 -0.05115281 5.47313676 -1 1 C-0.67 0.67 -0.34 0.34 0 0 Z M1 8 C2 10 2 10 2 10 Z " fill="#B8B8B8" transform="translate(196,163)"/>
<path d="M0 0 C2.36720333 0.31562711 3.84191959 0.89097903 5.8125 2.25 C7 4 7 4 6.875 6.5625 C6 9 6 9 3 11 C3.33 12.65 3.66 14.3 4 16 C2.35 16 0.7 16 -1 16 C-1.86802096 12.52791618 -1.9308828 10.41323695 -1 7 C-1 5.948125 -1 4.89625 -1 3.8125 C-1 1 -1 1 0 0 Z " fill="#2F2F2F" transform="translate(64,145)"/>
<path d="M0 0 C2.75 0.25 2.75 0.25 5 1 C5 2.32 5 3.64 5 5 C5.66 5.66 6.32 6.32 7 7 C7 8.32 7 9.64 7 11 C4.69 11.33 2.38 11.66 0 12 C-1.33333333 9.33333333 -2.66666667 6.66666667 -4 4 C-2.3125 1.9375 -2.3125 1.9375 0 0 Z " fill="#121212" transform="translate(63,180)"/>
<path d="M0 0 C0.33 0 0.66 0 1 0 C0.54582332 5.94015295 -0.33161672 11.26493248 -2 17 C-2.43296522 19.99227077 -2.74047081 22.98809542 -3 26 C-4.9375 25.25 -4.9375 25.25 -7 24 C-8.40893583 20.57420472 -7.73837875 18.572109 -6.34765625 15.234375 C-5.98349609 14.34492187 -5.61933594 13.45546875 -5.24414062 12.5390625 C-4.85419922 11.61867188 -4.46425781 10.69828125 -4.0625 9.75 C-3.67642578 8.81414062 -3.29035156 7.87828125 -2.89257812 6.9140625 C-1.93833169 4.60502173 -0.97388338 2.30081138 0 0 Z " fill="#3C3C3C" transform="translate(91,82)"/>
<path d="M0 0 C0.66 0 1.32 0 2 0 C6 5.29411765 6 5.29411765 6 9 C4.25 10.75 4.25 10.75 2 12 C-0.125 12 -0.125 12 -2 11 C-3.5 8.8125 -3.5 8.8125 -4 6 C-2.25 2.6875 -2.25 2.6875 0 0 Z " fill="#212121" transform="translate(117,4)"/>
<path d="M0 0 C1.9375 0.375 1.9375 0.375 4 1 C4.33 1.66 4.66 2.32 5 3 C6.32 2.34 7.64 1.68 9 1 C8.67 5.29 8.34 9.58 8 14 C7.01 13.67 6.02 13.34 5 13 C4.67 11.35 4.34 9.7 4 8 C3.01 7.67 2.02 7.34 1 7 C-0.25 5.125 -0.25 5.125 -1 3 C-0.67 2.01 -0.34 1.02 0 0 Z " fill="#202020" transform="translate(85,16)"/>
<path d="M0 0 C0.99 0 1.98 0 3 0 C3.125 3.375 3.125 3.375 3 7 C0.64046906 9.35953094 -0.77895617 9.49141413 -4 10 C-4.33 11.65 -4.66 13.3 -5 15 C-5.33 15 -5.66 15 -6 15 C-6.33 10.71 -6.66 6.42 -7 2 C-4 2 -4 2 -1 4 C-0.67 2.68 -0.34 1.36 0 0 Z " fill="#4A4A4A" transform="translate(148,15)"/>
<path d="M0 0 C0.66 0 1.32 0 2 0 C6 4.91428571 6 4.91428571 6 8.6875 C4.81190004 11.43498117 3.52415768 12.45293562 1 14 C-0.65 12.35 -2.3 10.7 -4 9 C-2.84826645 6.53199953 -1.95216435 4.95216435 0 3 C0 2.01 0 1.02 0 0 Z M0 7 C-0.33 7.66 -0.66 8.32 -1 9 C-0.01 9.99 0.98 10.98 2 12 C2.66 10.68 3.32 9.36 4 8 C2.68 7.67 1.36 7.34 0 7 Z " fill="#373737" transform="translate(116,49)"/>
<path d="M0 0 C2.475 0.99 2.475 0.99 5 2 C5 4 5 4 3.625 5.625 C2 7 2 7 0 7 C0 7.99 0 8.98 0 10 C-1.65 9.67 -3.3 9.34 -5 9 C-5.33 8.01 -5.66 7.02 -6 6 C-4 4 -2 2 0 0 Z " fill="#262626" transform="translate(160,34)"/>
<path d="M0 0 C4.43601966 3.51822249 5.52033129 7.75390186 7 13 C5.02 13.99 5.02 13.99 3 15 C2.491217 13.44033782 1.99336531 11.87710759 1.5 10.3125 C1.2215625 9.44238281 0.943125 8.57226562 0.65625 7.67578125 C0.00149195 5.00608323 -0.11831495 2.73603316 0 0 Z " fill="#2B2B2B" transform="translate(146,92)"/>
<path d="M0 0 C1.32 0.33 2.64 0.66 4 1 C3.01 1.66 2.02 2.32 1 3 C0.06413555 5.14875914 0.06413555 5.14875914 -0.5625 7.5625 C-1.25390625 10.00390625 -1.25390625 10.00390625 -2 12 C-2.99 12.495 -2.99 12.495 -4 13 C-4 11.68 -4 10.36 -4 9 C-5.65 9.33 -7.3 9.66 -9 10 C-8.67 9.34 -8.34 8.68 -8 8 C-7.34 8 -6.68 8 -6 8 C-6 7.34 -6 6.68 -6 6 C-4.34997172 4.64613064 -2.6825613 3.31321858 -1 2 C-0.67 1.34 -0.34 0.68 0 0 Z " fill="#8F8F8F" transform="translate(149,111)"/>
<path d="M0 0 C0.99 0.33 1.98 0.66 3 1 C4.07407228 3.30748496 4.94125086 5.47746557 5.75 7.875 C5.98332031 8.51308594 6.21664062 9.15117188 6.45703125 9.80859375 C8.13049267 14.608522 8.13049267 14.608522 7 18 C2.77736037 12.23013364 0.97012929 7.06601636 0 0 Z " fill="#444444" transform="translate(99,97)"/>
<path d="M0 0 C0.66 0 1.32 0 2 0 C2 1.98 2 3.96 2 6 C1.34 6 0.68 6 0 6 C-0.103125 7.093125 -0.20625 8.18625 -0.3125 9.3125 C-0.97307727 12.85559629 -1.2027092 13.93243723 -4 16 C-4.36266924 10.19729221 -3.30512167 6.34788227 -1 1 C-0.67 0.67 -0.34 0.34 0 0 Z " fill="#434343" transform="translate(173,131)"/>
<path d="M0 0 C1.65 0.33 3.3 0.66 5 1 C5 2.65 5 4.3 5 6 C6.65 6 8.3 6 10 6 C6.46588679 8.12046792 3.05606165 8.53199289 -1 9 C-0.67 6.03 -0.34 3.06 0 0 Z " fill="#767676" transform="translate(118,134)"/>
<path d="M0 0 C3 2 3 2 4 5 C4.99 4.34 5.98 3.68 7 3 C7 4.32 7 5.64 7 7 C7.33 5.35 7.66 3.7 8 2 C8.33 2 8.66 2 9 2 C9 4.64 9 7.28 9 10 C5.26512223 9.5020163 3.18762365 9.12508244 0 7 C-1.15317663 4.02096037 -1.0448029 3.13440869 0 0 Z " fill="#626262" transform="translate(88,25)"/>
<path d="M0 0 C2.1875 0.3125 2.1875 0.3125 4 1 C4 2.65 4 4.3 4 6 C3.01 6.33 2.02 6.66 1 7 C1 6.01 1 5.02 1 4 C0.21625 4.66 -0.5675 5.32 -1.375 6 C-4 8 -4 8 -6 8 C-5.67 6.35 -5.34 4.7 -5 3 C-4.34 3 -3.68 3 -3 3 C-2.54625 2.484375 -2.0925 1.96875 -1.625 1.4375 C-1.08875 0.963125 -0.5525 0.48875 0 0 Z " fill="#383838" transform="translate(124,26)"/>
<path d="M0 0 C0.99 0.33 1.98 0.66 3 1 C3 1.66 3 2.32 3 3 C2.15695313 3.82757813 2.15695313 3.82757813 1.296875 4.671875 C-1.57974189 7.58762954 -3.58979167 10.78803746 -5.75 14.25 C-6.16121094 14.8996875 -6.57242188 15.549375 -6.99609375 16.21875 C-8.00205086 17.8095659 -9.00167362 19.40438433 -10 21 C-10.33 20.01 -10.66 19.02 -11 18 C-9.64155856 15.57484316 -8.25436022 13.34563918 -6.6875 11.0625 C-5.85633374 9.82538546 -5.02685709 8.58713377 -4.19921875 7.34765625 C-3.81169434 6.76902832 -3.42416992 6.19040039 -3.02490234 5.59423828 C-1.86679594 3.79280074 -0.88465681 1.95015507 0 0 Z " fill="#5B5B5B" transform="translate(44,191)"/>
<path d="M0 0 C0.66 1.32 1.32 2.64 2 4 C2.66 4 3.32 4 4 4 C6.60018816 7.90028225 6.15085514 11.47434569 6 16 C3.82896321 13.82896321 2.72135157 11.84581937 1.3125 9.125 C0.62607422 7.82949219 0.62607422 7.82949219 -0.07421875 6.5078125 C-1.08282493 3.7756388 -1.0255368 2.67261106 0 0 Z " fill="#898989" transform="translate(196,163)"/>
<path d="M0 0 C2.75 0.25 2.75 0.25 5 1 C4 4 4 4 1 6 C1.33 6.66 1.66 7.32 2 8 C0.125 7.6875 0.125 7.6875 -2 7 C-2.66 6.01 -3.32 5.02 -4 4 C-2.3125 1.9375 -2.3125 1.9375 0 0 Z " fill="#393939" transform="translate(63,180)"/>
<path d="M0 0 C0.33 0 0.66 0 1 0 C2.00926479 4.15626368 2.10239579 8.04365094 2.0625 12.3125 C2.05347656 13.56675781 2.04445313 14.82101563 2.03515625 16.11328125 C2.01775391 17.54220703 2.01775391 17.54220703 2 19 C1.01 18.67 0.02 18.34 -1 18 C-0.505 9.09 -0.505 9.09 0 0 Z " fill="#575757" transform="translate(92,93)"/>
<path d="M0 0 C1.65 0.33 3.3 0.66 5 1 C4.67 2.65 4.34 4.3 4 6 C-0.455 6.495 -0.455 6.495 -5 7 C-5 6.01 -5 5.02 -5 4 C-4.360625 3.71125 -3.72125 3.4225 -3.0625 3.125 C-0.84793921 2.17176549 -0.84793921 2.17176549 0 0 Z " fill="#4E4E4E" transform="translate(26,77)"/>
<path d="M0 0 C4.17546267 4.17546267 4.125 11.98419752 4.125 17.6875 C4.08375 18.780625 4.0425 19.87375 4 21 C3.67 21 3.34 21 3 21 C2.34 17.37 1.68 13.74 1 10 C0.34 10.99 -0.32 11.98 -1 13 C-0.67 8.71 -0.34 4.42 0 0 Z " fill="#868686" transform="translate(206,254)"/>
<path d="M0 0 C-0.94386277 6.86784355 -2.13305415 12.19958122 -6 18 C-7 16 -7 16 -6.44140625 13.79296875 C-5.85810096 12.06379262 -5.27476788 10.33462587 -4.69140625 8.60546875 C-3.98726439 5.95200762 -3.87741098 3.73128343 -4 1 C-2 0 -2 0 0 0 Z " fill="#6C6C6C" transform="translate(137,97)"/>
<path d="M0 0 C0 0.66 0 1.32 0 2 C0.66 2.33 1.32 2.66 2 3 C1.34 3 0.68 3 0 3 C-0.33 3.99 -0.66 4.98 -1 6 C-1.99 6.33 -2.98 6.66 -4 7 C-5.4606285 4.35261084 -6 3.10551666 -6 0 C-3.50907189 -1.24546405 -2.58919267 -0.7767578 0 0 Z " fill="#3A3A3A" transform="translate(77,35)"/>
<path d="M0 0 C1.17949219 0.11085938 2.35898438 0.22171875 3.57421875 0.3359375 C4.47785156 0.43132812 5.38148437 0.52671875 6.3125 0.625 C6.3125 1.615 6.3125 2.605 6.3125 3.625 C4.3325 3.625 2.3525 3.625 0.3125 3.625 C0.3125 2.965 0.3125 2.305 0.3125 1.625 C-2.9875 1.625 -6.2875 1.625 -9.6875 1.625 C-5.94784036 -0.86810643 -4.39679359 -0.4353261 0 0 Z " fill="#999999" transform="translate(120.6875,70.375)"/>
<path d="M0 0 C1.98 0 3.96 0 6 0 C5.06725891 1.12894876 4.12859878 2.25300876 3.1875 3.375 C2.66542969 4.00148438 2.14335937 4.62796875 1.60546875 5.2734375 C0 7 0 7 -3 9 C-3.66 8.34 -4.32 7.68 -5 7 C-4.01 7 -3.02 7 -2 7 C-1.855625 6.21625 -1.71125 5.4325 -1.5625 4.625 C-1 2 -1 2 0 0 Z " fill="#4B4B4B" transform="translate(146,25)"/>
<path d="M0 0 C0.33 1.32 0.66 2.64 1 4 C0.360625 4.12375 -0.27875 4.2475 -0.9375 4.375 C-1.9584375 4.684375 -1.9584375 4.684375 -3 5 C-3.33 5.66 -3.66 6.32 -4 7 C-5.32 6.67 -6.64 6.34 -8 6 C-6.24081631 1.94034532 -4.71412298 0 0 0 Z M-2 1 C-1 4 -1 4 -1 4 Z " fill="#7F7F7F" transform="translate(74,137)"/>
<path d="M0 0 C2.97 0.495 2.97 0.495 6 1 C6 1.66 6 2.32 6 3 C6.66 3 7.32 3 8 3 C7.67 3.66 7.34 4.32 7 5 C6.34 4.67 5.68 4.34 5 4 C5 4.99 5 5.98 5 7 C3.68 7 2.36 7 1 7 C0.67 4.69 0.34 2.38 0 0 Z " fill="#ABABAB" transform="translate(94,118)"/>
<path d="M0 0 C0.66 0 1.32 0 2 0 C5 5.75 5 5.75 5 8 C3.35 8 1.7 8 0 8 C-0.79953138 4.71303767 -1.09658936 3.28976808 0 0 Z " fill="#4E4E4E" transform="translate(63,153)"/>
<path d="M0 0 C-0.8125 1.9375 -0.8125 1.9375 -2 4 C-2.99 4.33 -3.98 4.66 -5 5 C-5.144375 6.051875 -5.28875 7.10375 -5.4375 8.1875 C-5.87526966 11.15460549 -6.37804866 14.06794366 -7 17 C-7.33 17 -7.66 17 -8 17 C-7.96699341 14.72854654 -7.89759995 12.45759874 -7.8125 10.1875 C-7.77769531 8.92292969 -7.74289063 7.65835937 -7.70703125 6.35546875 C-7 3 -7 3 -4.57421875 1.05078125 C-2 0 -2 0 0 0 Z " fill="#7E7E7E" transform="translate(125,13)"/>
<path d="M0 0 C0.99 0.33 1.98 0.66 3 1 C3.125 5.75 3.125 5.75 2 8 C0.68 7.67 -0.64 7.34 -2 7 C-1.125 1.125 -1.125 1.125 0 0 Z " fill="#3B3B3B" transform="translate(85,31)"/>
<path d="M0 0 C0 2.97 0 5.94 0 9 C-0.99 9.33 -1.98 9.66 -3 10 C-3 7.03 -3 4.06 -3 1 C-1 0 -1 0 0 0 Z " fill="#212121" transform="translate(146,55)"/>
<path d="M0 0 C0.33 0 0.66 0 1 0 C1.3125 2.1875 1.3125 2.1875 1 5 C-1.5 7.8125 -1.5 7.8125 -4 10 C-4 5.73138235 -2.34474443 3.51711665 0 0 Z " fill="#CECECE" transform="translate(156,119)"/>
<path d="M0 0 C0 0.66 0 1.32 0 2 C-2.76452033 3.38226016 -5.0461363 3.09525387 -8.125 3.0625 C-9.22070312 3.05347656 -10.31640625 3.04445312 -11.4453125 3.03515625 C-12.70988281 3.01775391 -12.70988281 3.01775391 -14 3 C-13.67 2.34 -13.34 1.68 -13 1 C-10.98177083 1.03255208 -8.96354167 1.06510417 -6.9453125 1.09765625 C-4.28892869 0.96430365 -2.80063589 0 0 0 Z " fill="#A7A7A7" transform="translate(127,142)"/>
<path d="M0 0 C0.66 0.33 1.32 0.66 2 1 C1.67 2.65 1.34 4.3 1 6 C0.34 5.01 -0.32 4.02 -1 3 C-2.65 4.32 -4.3 5.64 -6 7 C-4.60667426 3.63279613 -3.0210714 2.0140476 0 0 Z " fill="#545454" transform="translate(31,187)"/>
<path d="M0 0 C5.625 -0.25 5.625 -0.25 9 2 C9 2.66 9 3.32 9 4 C8.01 4.33 7.02 4.66 6 5 C6 4.34 6 3.68 6 3 C4.02 2.34 2.04 1.68 0 1 C0 0.67 0 0.34 0 0 Z " fill="#353535" transform="translate(137,67)"/>
<path d="M0 0 C0.66 0.33 1.32 0.66 2 1 C1.67 3.97 1.34 6.94 1 10 C0.01 9.01 -0.98 8.02 -2 7 C-1.73904456 4.32520673 -1.1995243 2.39904859 0 0 Z " fill="#474747" transform="translate(146,49)"/>
<path d="M0 0 C1.65 0 3.3 0 5 0 C5 1.98 5 3.96 5 6 C4.01 5.67 3.02 5.34 2 5 C0.8125 2.4375 0.8125 2.4375 0 0 Z " fill="#404040" transform="translate(147,33)"/>
<path d="M0 0 C2.125 0.9375 2.125 0.9375 4 2 C3.01 2 2.02 2 1 2 C0.71125 2.969375 0.4225 3.93875 0.125 4.9375 C-1 8 -1 8 -3 9 C-2.4140625 2.84765625 -2.4140625 2.84765625 -2 1 C-1.34 0.67 -0.68 0.34 0 0 Z " fill="#020202" transform="translate(145,23)"/>
<path d="M0 0 C0.66 0 1.32 0 2 0 C2.99 2.97 3.98 5.94 5 9 C4.01 9 3.02 9 2 9 C1.34 6.03 0.68 3.06 0 0 Z " fill="#636363" transform="translate(143,84)"/>
<path d="M0 0 C-1.98611612 1.98611612 -3.44143249 2.91454712 -6 4 C-6.99 4 -7.98 4 -9 4 C-8.67 3.01 -8.34 2.02 -8 1 C-5.07175348 0.02391783 -3.04386724 -0.08226668 0 0 Z " fill="#313131" transform="translate(98,67)"/>
<path d="M0 0 C0.33 0 0.66 0 1 0 C1.33 2.97 1.66 5.94 2 9 C1.01 9 0.02 9 -1 9 C-1.625 5.625 -1.625 5.625 -2 2 C-1.34 1.34 -0.68 0.68 0 0 Z " fill="#C0C0C0" transform="translate(115,88)"/>
<path d="M0 0 C1.65 0 3.3 0 5 0 C5.33 1.32 5.66 2.64 6 4 C4.35 3.67 2.7 3.34 1 3 C0.67 2.01 0.34 1.02 0 0 Z " fill="#515151" transform="translate(154,40)"/>
<path d="M0 0 C2.475 0.495 2.475 0.495 5 1 C4.67 2.32 4.34 3.64 4 5 C3.01 5 2.02 5 1 5 C0.67 3.35 0.34 1.7 0 0 Z " fill="#9D9D9D" transform="translate(118,134)"/>
<path d="M0 0 C2.97 0 5.94 0 9 0 C9 0.33 9 0.66 9 1 C6.69 1 4.38 1 2 1 C2 1.99 2 2.98 2 4 C1.01 3.67 0.02 3.34 -1 3 C-0.67 2.01 -0.34 1.02 0 0 Z " fill="#9B9B9B" transform="translate(78,123)"/>
<path d="M0 0 C1.32 0.33 2.64 0.66 4 1 C3.67 1.99 3.34 2.98 3 4 C2.01 3.67 1.02 3.34 0 3 C0 2.01 0 1.02 0 0 Z " fill="#575757" transform="translate(96,39)"/>
<path d="M0 0 C0.99 0.33 1.98 0.66 3 1 C2.67 1.99 2.34 2.98 2 4 C1.34 4 0.68 4 0 4 C0 2.68 0 1.36 0 0 Z " fill="#414141" transform="translate(136,39)"/>
<path d="M0 0 C0.33 0 0.66 0 1 0 C1 1.65 1 3.3 1 5 C0.67 5 0.34 5 0 5 C0 3.35 0 1.7 0 0 Z " fill="#E3E3E3" transform="translate(194,171)"/>
<path d="M0 0 C0.66 0.33 1.32 0.66 2 1 C0.68 1.33 -0.64 1.66 -2 2 C-1.34 1.34 -0.68 0.68 0 0 Z " fill="#E2E2E2" transform="translate(55,143)"/>
<path d="M0 0 C2 1 2 1 2 1 Z " fill="#DADADA" transform="translate(47,156)"/>
<path d="" fill="#CFCFCF" transform="translate(0,0)"/>
<path d="" fill="#E4E4E4" transform="translate(0,0)"/>
<path d="M0 0 C2 1 2 1 2 1 Z " fill="#DEDEDE" transform="translate(74,32)"/>
<path d="" fill="#DADADA" transform="translate(0,0)"/>
<path d="" fill="#E6E6E6" transform="translate(0,0)"/>
<path d="" fill="#E0E0E0" transform="translate(0,0)"/>
<path d="" fill="#E0E0E0" transform="translate(0,0)"/>
<path d="" fill="#CACACA" transform="translate(0,0)"/>
<path d="" fill="#C7C7C7" transform="translate(0,0)"/>
<path d="" fill="#D8D8D8" transform="translate(0,0)"/>
<path d="" fill="#E4E4E4" transform="translate(0,0)"/>
<path d="" fill="#B9B9B9" transform="translate(0,0)"/>
<path d="" fill="#E4E4E4" transform="translate(0,0)"/>
<path d="" fill="#E4E4E4" transform="translate(0,0)"/>
<path d="" fill="#E6E6E6" transform="translate(0,0)"/>
<path d="" fill="#DCDCDC" transform="translate(0,0)"/>
<path d="" fill="#DEDEDE" transform="translate(0,0)"/>
<path d="" fill="#E4E4E4" transform="translate(0,0)"/>
<path d="" fill="#DCDCDC" transform="translate(0,0)"/>
<path d="" fill="#E2E2E2" transform="translate(0,0)"/>
<path d="" fill="#DCDCDC" transform="translate(0,0)"/>
<path d="" fill="#E0E0E0" transform="translate(0,0)"/>
<path d="" fill="#E6E6E6" transform="translate(0,0)"/>
<path d="" fill="#D8D8D8" transform="translate(0,0)"/>
<path d="" fill="#E4E4E4" transform="translate(0,0)"/>
<path d="" fill="#E2E2E2" transform="translate(0,0)"/>
<path d="" fill="#E4E4E4" transform="translate(0,0)"/>
</svg>
